  0
SECTION
  2
HEADER
  9
$ANGBASE
  50
0.0
  9
$ANGDIR
  70
1
  9
$MEASUREMENT
  70
0
  0
ENDSEC
  0
SECTION
  2
TABLES
  0
TABLE
  2
LTYPE
  70
4
  0
LTYPE
  5
40F
  2
CONTINUOUS
  70
0
  3
Solid line
  72
65
  73
0
  40
0.0
  0
LTYPE
  5
410
  2
DASHDOT
 70
0
  3
Dash Dot ____ _ ____ _
 72
65
 73
4
 40
2.0
 49
1.25
 49
-0.25
 49
0.25
 49
-0.25
  0
LTYPE
  5
411
  2
DASHED
 70
0
  3
Dashed __ __ __ __ __
 72
65
 73
2
 40
0.75
 49
0.5
 49
-0.25
  0
LTYPE
  5
43B
  2
DOTTED
 70
0
  3
Dotted .  .  .  .
 72
65
 73
2
 40
0.2
 49
0.0
 49
-0.2
  0
ENDTAB
  0
TABLE
  2
STYLE
  70
4
  0
STYLE
  2
KICAD
  70
0
  40
0
  41
1
  42
1
  50
0
  71
0
  3
isocp.shx
  0
STYLE
  2
KICADB
  70
0
  40
0
  41
1
  42
1
  50
0
  71
0
  3
isocp.shx
  0
STYLE
  2
KICADI
  70
0
  40
0
  41
1
  42
1
  50
15
  71
0
  3
isocp.shx
  0
STYLE
  2
KICADBI
  70
0
  40
0
  41
1
  42
1
  50
15
  71
0
  3
isocp.shx
  0
ENDTAB
  0
TABLE
  2
LAYER
  70
1
  0
LAYER
  2
BLACK
  70
0
  62
7
  6
CONTINUOUS
  0
ENDTAB
  0
ENDSEC
  0
SECTION
  2
ENTITIES
0
LINE
8
BLACK
6
CONTINUOUS
10
5.87446
20
-3.57102
11
5.87446
21
-3.57102
0
LINE
8
BLACK
6
CONTINUOUS
10
5.87446
20
-3.57102
11
5.8746
21
-3.57104
0
LINE
8
BLACK
6
CONTINUOUS
10
5.8746
20
-3.57104
11
5.87479
21
-3.57109
0
LINE
8
BLACK
6
CONTINUOUS
10
5.87479
20
-3.57109
11
5.87496
21
-3.57119
0
LINE
8
BLACK
6
CONTINUOUS
10
5.87496
20
-3.57119
11
5.87511
21
-3.57131
0
LINE
8
BLACK
6
CONTINUOUS
10
5.87511
20
-3.57131
11
5.87523
21
-3.57146
0
LINE
8
BLACK
6
CONTINUOUS
10
5.87523
20
-3.57146
11
5.87532
21
-3.57163
0
LINE
8
BLACK
6
CONTINUOUS
10
5.87532
20
-3.57163
11
5.87538
21
-3.57181
0
LINE
8
BLACK
6
CONTINUOUS
10
5.87538
20
-3.57181
11
5.8754
21
-3.57201
0
LINE
8
BLACK
6
CONTINUOUS
10
5.8754
20
-3.57201
11
5.87539
21
-3.57206
0
LINE
8
BLACK
6
CONTINUOUS
10
5.87539
20
-3.57206
11
5.87539
21
-4.16251
0
LINE
8
BLACK
6
CONTINUOUS
10
5.87539
20
-4.16251
11
5.8754
21
-4.16256
0
LINE
8
BLACK
6
CONTINUOUS
10
5.8754
20
-4.16256
11
5.87539
21
-4.16261
0
LINE
8
BLACK
6
CONTINUOUS
10
5.87539
20
-4.16261
11
5.87539
21
-4.16261
0
LINE
8
BLACK
6
CONTINUOUS
10
5.87539
20
-4.16261
11
5.87538
21
-4.16275
0
LINE
8
BLACK
6
CONTINUOUS
10
5.87538
20
-4.16275
11
5.87532
21
-4.16294
0
LINE
8
BLACK
6
CONTINUOUS
10
5.87532
20
-4.16294
11
5.87523
21
-4.16311
0
LINE
8
BLACK
6
CONTINUOUS
10
5.87523
20
-4.16311
11
5.87511
21
-4.16326
0
LINE
8
BLACK
6
CONTINUOUS
10
5.87511
20
-4.16326
11
5.87496
21
-4.16338
0
LINE
8
BLACK
6
CONTINUOUS
10
5.87496
20
-4.16338
11
5.87479
21
-4.16347
0
LINE
8
BLACK
6
CONTINUOUS
10
5.87479
20
-4.16347
11
5.8746
21
-4.16353
0
LINE
8
BLACK
6
CONTINUOUS
10
5.8746
20
-4.16353
11
5.87441
21
-4.16355
0
LINE
8
BLACK
6
CONTINUOUS
10
5.87441
20
-4.16355
11
5.87436
21
-4.16354
0
LINE
8
BLACK
6
CONTINUOUS
10
5.87436
20
-4.16354
11
5.08706
21
-4.16354
0
LINE
8
BLACK
6
CONTINUOUS
10
5.08706
20
-4.16354
11
5.08701
21
-4.16355
0
LINE
8
BLACK
6
CONTINUOUS
10
5.08701
20
-4.16355
11
5.08681
21
-4.16353
0
LINE
8
BLACK
6
CONTINUOUS
10
5.08681
20
-4.16353
11
5.08663
21
-4.16347
0
LINE
8
BLACK
6
CONTINUOUS
10
5.08663
20
-4.16347
11
5.08646
21
-4.16338
0
LINE
8
BLACK
6
CONTINUOUS
10
5.08646
20
-4.16338
11
5.08631
21
-4.16326
0
LINE
8
BLACK
6
CONTINUOUS
10
5.08631
20
-4.16326
11
5.08619
21
-4.16311
0
LINE
8
BLACK
6
CONTINUOUS
10
5.08619
20
-4.16311
11
5.08609
21
-4.16294
0
LINE
8
BLACK
6
CONTINUOUS
10
5.08609
20
-4.16294
11
5.08604
21
-4.16275
0
LINE
8
BLACK
6
CONTINUOUS
10
5.08604
20
-4.16275
11
5.08602
21
-4.16256
0
LINE
8
BLACK
6
CONTINUOUS
10
5.08602
20
-4.16256
11
5.08602
21
-4.16251
0
LINE
8
BLACK
6
CONTINUOUS
10
5.08602
20
-4.16251
11
5.08602
21
-3.57206
0
LINE
8
BLACK
6
CONTINUOUS
10
5.08602
20
-3.57206
11
5.08602
21
-3.57201
0
LINE
8
BLACK
6
CONTINUOUS
10
5.08602
20
-3.57201
11
5.08604
21
-3.57181
0
LINE
8
BLACK
6
CONTINUOUS
10
5.08604
20
-3.57181
11
5.08609
21
-3.57163
0
LINE
8
BLACK
6
CONTINUOUS
10
5.08609
20
-3.57163
11
5.08619
21
-3.57146
0
LINE
8
BLACK
6
CONTINUOUS
10
5.08619
20
-3.57146
11
5.08631
21
-3.57131
0
LINE
8
BLACK
6
CONTINUOUS
10
5.08631
20
-3.57131
11
5.08646
21
-3.57119
0
LINE
8
BLACK
6
CONTINUOUS
10
5.08646
20
-3.57119
11
5.08663
21
-3.57109
0
LINE
8
BLACK
6
CONTINUOUS
10
5.08663
20
-3.57109
11
5.08681
21
-3.57104
0
LINE
8
BLACK
6
CONTINUOUS
10
5.08681
20
-3.57104
11
5.08696
21
-3.57102
0
LINE
8
BLACK
6
CONTINUOUS
10
5.08696
20
-3.57102
11
5.08696
21
-3.57102
0
LINE
8
BLACK
6
CONTINUOUS
10
5.08696
20
-3.57102
11
5.08701
21
-3.57102
0
LINE
8
BLACK
6
CONTINUOUS
10
5.08701
20
-3.57102
11
5.08706
21
-3.57102
0
LINE
8
BLACK
6
CONTINUOUS
10
5.08706
20
-3.57102
11
5.87436
21
-3.57102
0
LINE
8
BLACK
6
CONTINUOUS
10
5.87436
20
-3.57102
11
5.87441
21
-3.57102
0
LINE
8
BLACK
6
CONTINUOUS
10
5.87441
20
-3.57102
11
5.87446
21
-3.57102
0
LINE
8
BLACK
6
CONTINUOUS
10
5.08799
20
-3.57299
11
5.08799
21
-4.16157
0
LINE
8
BLACK
6
CONTINUOUS
10
5.08799
20
-4.16157
11
5.87343
21
-4.16157
0
LINE
8
BLACK
6
CONTINUOUS
10
5.87343
20
-4.16157
11
5.87343
21
-3.57299
0
LINE
8
BLACK
6
CONTINUOUS
10
5.87343
20
-3.57299
11
5.08799
21
-3.57299
  0
ENDSEC
  0
EOF
