  0
SECTION
  2
HEADER
  9
$ANGBASE
  50
0.0
  9
$ANGDIR
  70
1
  9
$MEASUREMENT
  70
0
  0
ENDSEC
  0
SECTION
  2
TABLES
  0
TABLE
  2
LTYPE
  70
4
  0
LTYPE
  5
40F
  2
CONTINUOUS
  70
0
  3
Solid line
  72
65
  73
0
  40
0.0
  0
LTYPE
  5
410
  2
DASHDOT
 70
0
  3
Dash Dot ____ _ ____ _
 72
65
 73
4
 40
2.0
 49
1.25
 49
-0.25
 49
0.25
 49
-0.25
  0
LTYPE
  5
411
  2
DASHED
 70
0
  3
Dashed __ __ __ __ __
 72
65
 73
2
 40
0.75
 49
0.5
 49
-0.25
  0
LTYPE
  5
43B
  2
DOTTED
 70
0
  3
Dotted .  .  .  .
 72
65
 73
2
 40
0.2
 49
0.0
 49
-0.2
  0
ENDTAB
  0
TABLE
  2
STYLE
  70
4
  0
STYLE
  2
KICAD
  70
0
  40
0
  41
1
  42
1
  50
0
  71
0
  3
isocp.shx
  0
STYLE
  2
KICADB
  70
0
  40
0
  41
1
  42
1
  50
0
  71
0
  3
isocp.shx
  0
STYLE
  2
KICADI
  70
0
  40
0
  41
1
  42
1
  50
15
  71
0
  3
isocp.shx
  0
STYLE
  2
KICADBI
  70
0
  40
0
  41
1
  42
1
  50
15
  71
0
  3
isocp.shx
  0
ENDTAB
  0
TABLE
  2
LAYER
  70
1
  0
LAYER
  2
BLACK
  70
0
  62
7
  6
CONTINUOUS
  0
ENDTAB
  0
ENDSEC
  0
SECTION
  2
ENTITIES
0
LINE
8
BLACK
6
CONTINUOUS
10
5.77352
20
-3.98766
11
5.78427
21
-3.99211
0
LINE
8
BLACK
6
CONTINUOUS
10
5.78427
20
-3.99211
11
5.79394
21
-3.99858
0
LINE
8
BLACK
6
CONTINUOUS
10
5.79394
20
-3.99858
11
5.80217
21
-4.0068
0
LINE
8
BLACK
6
CONTINUOUS
10
5.80217
20
-4.0068
11
5.80863
21
-4.01648
0
LINE
8
BLACK
6
CONTINUOUS
10
5.80863
20
-4.01648
11
5.81308
21
-4.02722
0
LINE
8
BLACK
6
CONTINUOUS
10
5.81308
20
-4.02722
11
5.81535
21
-4.03863
0
LINE
8
BLACK
6
CONTINUOUS
10
5.81535
20
-4.03863
11
5.81535
21
-4.05027
0
LINE
8
BLACK
6
CONTINUOUS
10
5.81535
20
-4.05027
11
5.81308
21
-4.06167
0
LINE
8
BLACK
6
CONTINUOUS
10
5.81308
20
-4.06167
11
5.80863
21
-4.07242
0
LINE
8
BLACK
6
CONTINUOUS
10
5.80863
20
-4.07242
11
5.80217
21
-4.08209
0
LINE
8
BLACK
6
CONTINUOUS
10
5.80217
20
-4.08209
11
5.79394
21
-4.09032
0
LINE
8
BLACK
6
CONTINUOUS
10
5.79394
20
-4.09032
11
5.78427
21
-4.09678
0
LINE
8
BLACK
6
CONTINUOUS
10
5.78427
20
-4.09678
11
5.77352
21
-4.10123
0
LINE
8
BLACK
6
CONTINUOUS
10
5.77352
20
-4.10123
11
5.76212
21
-4.1035
0
LINE
8
BLACK
6
CONTINUOUS
10
5.76212
20
-4.1035
11
5.75048
21
-4.1035
0
LINE
8
BLACK
6
CONTINUOUS
10
5.75048
20
-4.1035
11
5.73907
21
-4.10123
0
LINE
8
BLACK
6
CONTINUOUS
10
5.73907
20
-4.10123
11
5.72833
21
-4.09678
0
LINE
8
BLACK
6
CONTINUOUS
10
5.72833
20
-4.09678
11
5.71865
21
-4.09032
0
LINE
8
BLACK
6
CONTINUOUS
10
5.71865
20
-4.09032
11
5.71043
21
-4.08209
0
LINE
8
BLACK
6
CONTINUOUS
10
5.71043
20
-4.08209
11
5.70397
21
-4.07242
0
LINE
8
BLACK
6
CONTINUOUS
10
5.70397
20
-4.07242
11
5.69951
21
-4.06167
0
LINE
8
BLACK
6
CONTINUOUS
10
5.69951
20
-4.06167
11
5.69724
21
-4.05027
0
LINE
8
BLACK
6
CONTINUOUS
10
5.69724
20
-4.05027
11
5.69724
21
-4.03863
0
LINE
8
BLACK
6
CONTINUOUS
10
5.69724
20
-4.03863
11
5.69951
21
-4.02722
0
LINE
8
BLACK
6
CONTINUOUS
10
5.69951
20
-4.02722
11
5.70397
21
-4.01648
0
LINE
8
BLACK
6
CONTINUOUS
10
5.70397
20
-4.01648
11
5.71043
21
-4.0068
0
LINE
8
BLACK
6
CONTINUOUS
10
5.71043
20
-4.0068
11
5.71865
21
-3.99858
0
LINE
8
BLACK
6
CONTINUOUS
10
5.71865
20
-3.99858
11
5.72833
21
-3.99211
0
LINE
8
BLACK
6
CONTINUOUS
10
5.72833
20
-3.99211
11
5.73907
21
-3.98766
0
LINE
8
BLACK
6
CONTINUOUS
10
5.73907
20
-3.98766
11
5.75048
21
-3.98539
0
LINE
8
BLACK
6
CONTINUOUS
10
5.75048
20
-3.98539
11
5.76212
21
-3.98539
0
LINE
8
BLACK
6
CONTINUOUS
10
5.76212
20
-3.98539
11
5.77352
21
-3.98766
0
LINE
8
BLACK
6
CONTINUOUS
10
5.20966
20
-4.03085
11
5.20599
21
-4.03633
0
LINE
8
BLACK
6
CONTINUOUS
10
5.20599
20
-4.03633
11
5.20133
21
-4.04099
0
LINE
8
BLACK
6
CONTINUOUS
10
5.20133
20
-4.04099
11
5.19585
21
-4.04466
0
LINE
8
BLACK
6
CONTINUOUS
10
5.19585
20
-4.04466
11
5.18976
21
-4.04718
0
LINE
8
BLACK
6
CONTINUOUS
10
5.18976
20
-4.04718
11
5.1833
21
-4.04846
0
LINE
8
BLACK
6
CONTINUOUS
10
5.1833
20
-4.04846
11
5.1767
21
-4.04846
0
LINE
8
BLACK
6
CONTINUOUS
10
5.1767
20
-4.04846
11
5.17024
21
-4.04718
0
LINE
8
BLACK
6
CONTINUOUS
10
5.17024
20
-4.04718
11
5.16415
21
-4.04466
0
LINE
8
BLACK
6
CONTINUOUS
10
5.16415
20
-4.04466
11
5.15867
21
-4.04099
0
LINE
8
BLACK
6
CONTINUOUS
10
5.15867
20
-4.04099
11
5.15401
21
-4.03633
0
LINE
8
BLACK
6
CONTINUOUS
10
5.15401
20
-4.03633
11
5.15034
21
-4.03085
0
LINE
8
BLACK
6
CONTINUOUS
10
5.15034
20
-4.03085
11
5.14782
21
-4.02476
0
LINE
8
BLACK
6
CONTINUOUS
10
5.14782
20
-4.02476
11
5.14654
21
-4.0183
0
LINE
8
BLACK
6
CONTINUOUS
10
5.14654
20
-4.0183
11
5.14654
21
-4.0117
0
LINE
8
BLACK
6
CONTINUOUS
10
5.14654
20
-4.0117
11
5.14782
21
-4.00524
0
LINE
8
BLACK
6
CONTINUOUS
10
5.14782
20
-4.00524
11
5.15034
21
-3.99915
0
LINE
8
BLACK
6
CONTINUOUS
10
5.15034
20
-3.99915
11
5.15401
21
-3.99367
0
LINE
8
BLACK
6
CONTINUOUS
10
5.15401
20
-3.99367
11
5.15867
21
-3.98901
0
LINE
8
BLACK
6
CONTINUOUS
10
5.15867
20
-3.98901
11
5.16415
21
-3.98534
0
LINE
8
BLACK
6
CONTINUOUS
10
5.16415
20
-3.98534
11
5.17024
21
-3.98282
0
LINE
8
BLACK
6
CONTINUOUS
10
5.17024
20
-3.98282
11
5.1767
21
-3.98154
0
LINE
8
BLACK
6
CONTINUOUS
10
5.1767
20
-3.98154
11
5.1833
21
-3.98154
0
LINE
8
BLACK
6
CONTINUOUS
10
5.1833
20
-3.98154
11
5.18976
21
-3.98282
0
LINE
8
BLACK
6
CONTINUOUS
10
5.18976
20
-3.98282
11
5.19585
21
-3.98534
0
LINE
8
BLACK
6
CONTINUOUS
10
5.19585
20
-3.98534
11
5.20133
21
-3.98901
0
LINE
8
BLACK
6
CONTINUOUS
10
5.20133
20
-3.98901
11
5.20599
21
-3.99367
0
LINE
8
BLACK
6
CONTINUOUS
10
5.20599
20
-3.99367
11
5.20966
21
-3.99915
0
LINE
8
BLACK
6
CONTINUOUS
10
5.20966
20
-3.99915
11
5.21125
21
-4.003
0
LINE
8
BLACK
6
CONTINUOUS
10
5.21125
20
-4.003
11
5.55503
21
-4.003
0
LINE
8
BLACK
6
CONTINUOUS
10
5.55503
20
-4.003
11
5.578
21
-3.98003
0
LINE
8
BLACK
6
CONTINUOUS
10
5.578
20
-3.98003
11
5.578
21
-3.92997
0
LINE
8
BLACK
6
CONTINUOUS
10
5.578
20
-3.92997
11
5.55408
21
-3.90606
0
LINE
8
BLACK
6
CONTINUOUS
10
5.55408
20
-3.90606
11
5.51248
21
-3.90606
0
LINE
8
BLACK
6
CONTINUOUS
10
5.51248
20
-3.90606
11
5.51004
21
-3.90902
0
LINE
8
BLACK
6
CONTINUOUS
10
5.51004
20
-3.90902
11
5.50684
21
-3.91165
0
LINE
8
BLACK
6
CONTINUOUS
10
5.50684
20
-3.91165
11
5.50318
21
-3.91361
0
LINE
8
BLACK
6
CONTINUOUS
10
5.50318
20
-3.91361
11
5.49921
21
-3.91481
0
LINE
8
BLACK
6
CONTINUOUS
10
5.49921
20
-3.91481
11
5.49611
21
-3.91512
0
LINE
8
BLACK
6
CONTINUOUS
10
5.49611
20
-3.91512
11
5.4653
21
-3.91512
0
LINE
8
BLACK
6
CONTINUOUS
10
5.4653
20
-3.91512
11
5.46221
21
-3.91481
0
LINE
8
BLACK
6
CONTINUOUS
10
5.46221
20
-3.91481
11
5.45824
21
-3.91361
0
LINE
8
BLACK
6
CONTINUOUS
10
5.45824
20
-3.91361
11
5.45458
21
-3.91165
0
LINE
8
BLACK
6
CONTINUOUS
10
5.45458
20
-3.91165
11
5.45137
21
-3.90902
0
LINE
8
BLACK
6
CONTINUOUS
10
5.45137
20
-3.90902
11
5.44874
21
-3.90581
0
LINE
8
BLACK
6
CONTINUOUS
10
5.44874
20
-3.90581
11
5.44678
21
-3.90215
0
LINE
8
BLACK
6
CONTINUOUS
10
5.44678
20
-3.90215
11
5.44558
21
-3.89818
0
LINE
8
BLACK
6
CONTINUOUS
10
5.44558
20
-3.89818
11
5.44517
21
-3.89406
0
LINE
8
BLACK
6
CONTINUOUS
10
5.44517
20
-3.89406
11
5.44558
21
-3.88993
0
LINE
8
BLACK
6
CONTINUOUS
10
5.44558
20
-3.88993
11
5.44678
21
-3.88596
0
LINE
8
BLACK
6
CONTINUOUS
10
5.44678
20
-3.88596
11
5.44874
21
-3.8823
0
LINE
8
BLACK
6
CONTINUOUS
10
5.44874
20
-3.8823
11
5.45137
21
-3.87909
0
LINE
8
BLACK
6
CONTINUOUS
10
5.45137
20
-3.87909
11
5.45458
21
-3.87646
0
LINE
8
BLACK
6
CONTINUOUS
10
5.45458
20
-3.87646
11
5.45824
21
-3.8745
0
LINE
8
BLACK
6
CONTINUOUS
10
5.45824
20
-3.8745
11
5.46221
21
-3.8733
0
LINE
8
BLACK
6
CONTINUOUS
10
5.46221
20
-3.8733
11
5.4653
21
-3.87299
0
LINE
8
BLACK
6
CONTINUOUS
10
5.4653
20
-3.87299
11
5.49611
21
-3.87299
0
LINE
8
BLACK
6
CONTINUOUS
10
5.49611
20
-3.87299
11
5.49921
21
-3.8733
0
LINE
8
BLACK
6
CONTINUOUS
10
5.49921
20
-3.8733
11
5.50318
21
-3.8745
0
LINE
8
BLACK
6
CONTINUOUS
10
5.50318
20
-3.8745
11
5.50684
21
-3.87646
0
LINE
8
BLACK
6
CONTINUOUS
10
5.50684
20
-3.87646
11
5.51004
21
-3.87909
0
LINE
8
BLACK
6
CONTINUOUS
10
5.51004
20
-3.87909
11
5.51248
21
-3.88206
0
LINE
8
BLACK
6
CONTINUOUS
10
5.51248
20
-3.88206
11
5.55847
21
-3.88206
0
LINE
8
BLACK
6
CONTINUOUS
10
5.55847
20
-3.88206
11
5.55906
21
-3.882
0
LINE
8
BLACK
6
CONTINUOUS
10
5.55906
20
-3.882
11
5.55964
21
-3.88206
0
LINE
8
BLACK
6
CONTINUOUS
10
5.55964
20
-3.88206
11
5.55964
21
-3.88206
0
LINE
8
BLACK
6
CONTINUOUS
10
5.55964
20
-3.88206
11
5.56141
21
-3.88223
0
LINE
8
BLACK
6
CONTINUOUS
10
5.56141
20
-3.88223
11
5.56367
21
-3.88291
0
LINE
8
BLACK
6
CONTINUOUS
10
5.56367
20
-3.88291
11
5.56575
21
-3.88403
0
LINE
8
BLACK
6
CONTINUOUS
10
5.56575
20
-3.88403
11
5.56758
21
-3.88553
0
LINE
8
BLACK
6
CONTINUOUS
10
5.56758
20
-3.88553
11
5.56796
21
-3.88599
0
LINE
8
BLACK
6
CONTINUOUS
10
5.56796
20
-3.88599
11
5.59807
21
-3.9161
0
LINE
8
BLACK
6
CONTINUOUS
10
5.59807
20
-3.9161
11
5.59853
21
-3.91647
0
LINE
8
BLACK
6
CONTINUOUS
10
5.59853
20
-3.91647
11
5.60003
21
-3.9183
0
LINE
8
BLACK
6
CONTINUOUS
10
5.60003
20
-3.9183
11
5.60107
21
-3.92025
0
LINE
8
BLACK
6
CONTINUOUS
10
5.60107
20
-3.92025
11
5.60114
21
-3.92039
0
LINE
8
BLACK
6
CONTINUOUS
10
5.60114
20
-3.92039
11
5.60183
21
-3.92265
0
LINE
8
BLACK
6
CONTINUOUS
10
5.60183
20
-3.92265
11
5.60183
21
-3.9227
0
LINE
8
BLACK
6
CONTINUOUS
10
5.60183
20
-3.9227
11
5.602
21
-3.92441
0
LINE
8
BLACK
6
CONTINUOUS
10
5.602
20
-3.92441
11
5.602
21
-3.92441
0
LINE
8
BLACK
6
CONTINUOUS
10
5.602
20
-3.92441
11
5.60206
21
-3.925
0
LINE
8
BLACK
6
CONTINUOUS
10
5.60206
20
-3.925
11
5.602
21
-3.92559
0
LINE
8
BLACK
6
CONTINUOUS
10
5.602
20
-3.92559
11
5.602
21
-3.98441
0
LINE
8
BLACK
6
CONTINUOUS
10
5.602
20
-3.98441
11
5.60206
21
-3.985
0
LINE
8
BLACK
6
CONTINUOUS
10
5.60206
20
-3.985
11
5.602
21
-3.98559
0
LINE
8
BLACK
6
CONTINUOUS
10
5.602
20
-3.98559
11
5.602
21
-3.98559
0
LINE
8
BLACK
6
CONTINUOUS
10
5.602
20
-3.98559
11
5.60183
21
-3.98735
0
LINE
8
BLACK
6
CONTINUOUS
10
5.60183
20
-3.98735
11
5.60114
21
-3.98961
0
LINE
8
BLACK
6
CONTINUOUS
10
5.60114
20
-3.98961
11
5.60003
21
-3.9917
0
LINE
8
BLACK
6
CONTINUOUS
10
5.60003
20
-3.9917
11
5.59853
21
-3.99353
0
LINE
8
BLACK
6
CONTINUOUS
10
5.59853
20
-3.99353
11
5.59807
21
-3.9939
0
LINE
8
BLACK
6
CONTINUOUS
10
5.59807
20
-3.9939
11
5.5689
21
-4.02307
0
LINE
8
BLACK
6
CONTINUOUS
10
5.5689
20
-4.02307
11
5.56853
21
-4.02353
0
LINE
8
BLACK
6
CONTINUOUS
10
5.56853
20
-4.02353
11
5.5667
21
-4.02503
0
LINE
8
BLACK
6
CONTINUOUS
10
5.5667
20
-4.02503
11
5.56461
21
-4.02614
0
LINE
8
BLACK
6
CONTINUOUS
10
5.56461
20
-4.02614
11
5.56235
21
-4.02683
0
LINE
8
BLACK
6
CONTINUOUS
10
5.56235
20
-4.02683
11
5.56059
21
-4.027
0
LINE
8
BLACK
6
CONTINUOUS
10
5.56059
20
-4.027
11
5.56059
21
-4.027
0
LINE
8
BLACK
6
CONTINUOUS
10
5.56059
20
-4.027
11
5.56
21
-4.02706
0
LINE
8
BLACK
6
CONTINUOUS
10
5.56
20
-4.02706
11
5.55941
21
-4.027
0
LINE
8
BLACK
6
CONTINUOUS
10
5.55941
20
-4.027
11
5.21125
21
-4.027
0
LINE
8
BLACK
6
CONTINUOUS
10
5.21125
20
-4.027
11
5.20966
21
-4.03085
0
LINE
8
BLACK
6
CONTINUOUS
10
5.18976
20
-3.88282
11
5.19585
21
-3.88534
0
LINE
8
BLACK
6
CONTINUOUS
10
5.19585
20
-3.88534
11
5.20133
21
-3.88901
0
LINE
8
BLACK
6
CONTINUOUS
10
5.20133
20
-3.88901
11
5.20599
21
-3.89367
0
LINE
8
BLACK
6
CONTINUOUS
10
5.20599
20
-3.89367
11
5.20966
21
-3.89915
0
LINE
8
BLACK
6
CONTINUOUS
10
5.20966
20
-3.89915
11
5.21208
21
-3.905
0
LINE
8
BLACK
6
CONTINUOUS
10
5.21208
20
-3.905
11
5.30569
21
-3.905
0
LINE
8
BLACK
6
CONTINUOUS
10
5.30569
20
-3.905
11
5.30618
21
-3.90495
0
LINE
8
BLACK
6
CONTINUOUS
10
5.30618
20
-3.90495
11
5.30667
21
-3.905
0
LINE
8
BLACK
6
CONTINUOUS
10
5.30667
20
-3.905
11
5.30667
21
-3.905
0
LINE
8
BLACK
6
CONTINUOUS
10
5.30667
20
-3.905
11
5.30814
21
-3.90514
0
LINE
8
BLACK
6
CONTINUOUS
10
5.30814
20
-3.90514
11
5.31003
21
-3.90572
0
LINE
8
BLACK
6
CONTINUOUS
10
5.31003
20
-3.90572
11
5.31176
21
-3.90665
0
LINE
8
BLACK
6
CONTINUOUS
10
5.31176
20
-3.90665
11
5.31226
21
-3.90705
0
LINE
8
BLACK
6
CONTINUOUS
10
5.31226
20
-3.90705
11
5.31291
21
-3.90758
0
LINE
8
BLACK
6
CONTINUOUS
10
5.31291
20
-3.90758
11
5.31291
21
-3.90758
0
LINE
8
BLACK
6
CONTINUOUS
10
5.31291
20
-3.90758
11
5.31329
21
-3.90789
0
LINE
8
BLACK
6
CONTINUOUS
10
5.31329
20
-3.90789
11
5.3136
21
-3.90828
0
LINE
8
BLACK
6
CONTINUOUS
10
5.3136
20
-3.90828
11
5.32336
21
-3.91804
0
LINE
8
BLACK
6
CONTINUOUS
10
5.32336
20
-3.91804
11
5.32471
21
-3.91763
0
LINE
8
BLACK
6
CONTINUOUS
10
5.32471
20
-3.91763
11
5.32658
21
-3.91744
0
LINE
8
BLACK
6
CONTINUOUS
10
5.32658
20
-3.91744
11
5.34578
21
-3.91744
0
LINE
8
BLACK
6
CONTINUOUS
10
5.34578
20
-3.91744
11
5.34765
21
-3.91763
0
LINE
8
BLACK
6
CONTINUOUS
10
5.34765
20
-3.91763
11
5.34945
21
-3.91817
0
LINE
8
BLACK
6
CONTINUOUS
10
5.34945
20
-3.91817
11
5.35111
21
-3.91906
0
LINE
8
BLACK
6
CONTINUOUS
10
5.35111
20
-3.91906
11
5.35256
21
-3.92025
0
LINE
8
BLACK
6
CONTINUOUS
10
5.35256
20
-3.92025
11
5.35376
21
-3.92171
0
LINE
8
BLACK
6
CONTINUOUS
10
5.35376
20
-3.92171
11
5.35464
21
-3.92336
0
LINE
8
BLACK
6
CONTINUOUS
10
5.35464
20
-3.92336
11
5.35519
21
-3.92517
0
LINE
8
BLACK
6
CONTINUOUS
10
5.35519
20
-3.92517
11
5.35537
21
-3.92704
0
LINE
8
BLACK
6
CONTINUOUS
10
5.35537
20
-3.92704
11
5.35537
21
-3.96296
0
LINE
8
BLACK
6
CONTINUOUS
10
5.35537
20
-3.96296
11
5.35519
21
-3.96483
0
LINE
8
BLACK
6
CONTINUOUS
10
5.35519
20
-3.96483
11
5.35464
21
-3.96663
0
LINE
8
BLACK
6
CONTINUOUS
10
5.35464
20
-3.96663
11
5.35376
21
-3.96829
0
LINE
8
BLACK
6
CONTINUOUS
10
5.35376
20
-3.96829
11
5.35256
21
-3.96975
0
LINE
8
BLACK
6
CONTINUOUS
10
5.35256
20
-3.96975
11
5.35111
21
-3.97094
0
LINE
8
BLACK
6
CONTINUOUS
10
5.35111
20
-3.97094
11
5.34945
21
-3.97183
0
LINE
8
BLACK
6
CONTINUOUS
10
5.34945
20
-3.97183
11
5.34765
21
-3.97237
0
LINE
8
BLACK
6
CONTINUOUS
10
5.34765
20
-3.97237
11
5.34578
21
-3.97256
0
LINE
8
BLACK
6
CONTINUOUS
10
5.34578
20
-3.97256
11
5.32658
21
-3.97256
0
LINE
8
BLACK
6
CONTINUOUS
10
5.32658
20
-3.97256
11
5.32471
21
-3.97237
0
LINE
8
BLACK
6
CONTINUOUS
10
5.32471
20
-3.97237
11
5.32291
21
-3.97183
0
LINE
8
BLACK
6
CONTINUOUS
10
5.32291
20
-3.97183
11
5.32125
21
-3.97094
0
LINE
8
BLACK
6
CONTINUOUS
10
5.32125
20
-3.97094
11
5.3198
21
-3.96975
0
LINE
8
BLACK
6
CONTINUOUS
10
5.3198
20
-3.96975
11
5.31861
21
-3.96829
0
LINE
8
BLACK
6
CONTINUOUS
10
5.31861
20
-3.96829
11
5.31772
21
-3.96663
0
LINE
8
BLACK
6
CONTINUOUS
10
5.31772
20
-3.96663
11
5.31717
21
-3.96483
0
LINE
8
BLACK
6
CONTINUOUS
10
5.31717
20
-3.96483
11
5.31699
21
-3.96296
0
LINE
8
BLACK
6
CONTINUOUS
10
5.31699
20
-3.96296
11
5.31699
21
-3.93995
0
LINE
8
BLACK
6
CONTINUOUS
10
5.31699
20
-3.93995
11
5.30204
21
-3.925
0
LINE
8
BLACK
6
CONTINUOUS
10
5.30204
20
-3.925
11
5.21208
21
-3.925
0
LINE
8
BLACK
6
CONTINUOUS
10
5.21208
20
-3.925
11
5.20966
21
-3.93085
0
LINE
8
BLACK
6
CONTINUOUS
10
5.20966
20
-3.93085
11
5.20599
21
-3.93633
0
LINE
8
BLACK
6
CONTINUOUS
10
5.20599
20
-3.93633
11
5.20133
21
-3.94099
0
LINE
8
BLACK
6
CONTINUOUS
10
5.20133
20
-3.94099
11
5.19585
21
-3.94466
0
LINE
8
BLACK
6
CONTINUOUS
10
5.19585
20
-3.94466
11
5.18976
21
-3.94718
0
LINE
8
BLACK
6
CONTINUOUS
10
5.18976
20
-3.94718
11
5.1833
21
-3.94846
0
LINE
8
BLACK
6
CONTINUOUS
10
5.1833
20
-3.94846
11
5.1767
21
-3.94846
0
LINE
8
BLACK
6
CONTINUOUS
10
5.1767
20
-3.94846
11
5.17024
21
-3.94718
0
LINE
8
BLACK
6
CONTINUOUS
10
5.17024
20
-3.94718
11
5.16415
21
-3.94466
0
LINE
8
BLACK
6
CONTINUOUS
10
5.16415
20
-3.94466
11
5.15867
21
-3.94099
0
LINE
8
BLACK
6
CONTINUOUS
10
5.15867
20
-3.94099
11
5.15401
21
-3.93633
0
LINE
8
BLACK
6
CONTINUOUS
10
5.15401
20
-3.93633
11
5.15034
21
-3.93085
0
LINE
8
BLACK
6
CONTINUOUS
10
5.15034
20
-3.93085
11
5.14782
21
-3.92476
0
LINE
8
BLACK
6
CONTINUOUS
10
5.14782
20
-3.92476
11
5.14654
21
-3.9183
0
LINE
8
BLACK
6
CONTINUOUS
10
5.14654
20
-3.9183
11
5.14654
21
-3.9117
0
LINE
8
BLACK
6
CONTINUOUS
10
5.14654
20
-3.9117
11
5.14782
21
-3.90524
0
LINE
8
BLACK
6
CONTINUOUS
10
5.14782
20
-3.90524
11
5.15034
21
-3.89915
0
LINE
8
BLACK
6
CONTINUOUS
10
5.15034
20
-3.89915
11
5.15401
21
-3.89367
0
LINE
8
BLACK
6
CONTINUOUS
10
5.15401
20
-3.89367
11
5.15867
21
-3.88901
0
LINE
8
BLACK
6
CONTINUOUS
10
5.15867
20
-3.88901
11
5.16415
21
-3.88534
0
LINE
8
BLACK
6
CONTINUOUS
10
5.16415
20
-3.88534
11
5.17024
21
-3.88282
0
LINE
8
BLACK
6
CONTINUOUS
10
5.17024
20
-3.88282
11
5.1767
21
-3.88154
0
LINE
8
BLACK
6
CONTINUOUS
10
5.1767
20
-3.88154
11
5.1833
21
-3.88154
0
LINE
8
BLACK
6
CONTINUOUS
10
5.1833
20
-3.88154
11
5.18976
21
-3.88282
0
LINE
8
BLACK
6
CONTINUOUS
10
5.42147
20
-3.91763
11
5.42327
21
-3.91817
0
LINE
8
BLACK
6
CONTINUOUS
10
5.42327
20
-3.91817
11
5.42493
21
-3.91906
0
LINE
8
BLACK
6
CONTINUOUS
10
5.42493
20
-3.91906
11
5.42638
21
-3.92025
0
LINE
8
BLACK
6
CONTINUOUS
10
5.42638
20
-3.92025
11
5.42758
21
-3.92171
0
LINE
8
BLACK
6
CONTINUOUS
10
5.42758
20
-3.92171
11
5.42846
21
-3.92336
0
LINE
8
BLACK
6
CONTINUOUS
10
5.42846
20
-3.92336
11
5.42901
21
-3.92517
0
LINE
8
BLACK
6
CONTINUOUS
10
5.42901
20
-3.92517
11
5.42919
21
-3.92704
0
LINE
8
BLACK
6
CONTINUOUS
10
5.42919
20
-3.92704
11
5.42919
21
-3.935
0
LINE
8
BLACK
6
CONTINUOUS
10
5.42919
20
-3.935
11
5.44528
21
-3.935
0
LINE
8
BLACK
6
CONTINUOUS
10
5.44528
20
-3.935
11
5.44528
21
-3.92299
0
LINE
8
BLACK
6
CONTINUOUS
10
5.44528
20
-3.92299
11
5.51614
21
-3.92299
0
LINE
8
BLACK
6
CONTINUOUS
10
5.51614
20
-3.92299
11
5.51614
21
-3.96512
0
LINE
8
BLACK
6
CONTINUOUS
10
5.51614
20
-3.96512
11
5.44528
21
-3.96512
0
LINE
8
BLACK
6
CONTINUOUS
10
5.44528
20
-3.96512
11
5.44528
21
-3.955
0
LINE
8
BLACK
6
CONTINUOUS
10
5.44528
20
-3.955
11
5.42919
21
-3.955
0
LINE
8
BLACK
6
CONTINUOUS
10
5.42919
20
-3.955
11
5.42919
21
-3.96296
0
LINE
8
BLACK
6
CONTINUOUS
10
5.42919
20
-3.96296
11
5.42901
21
-3.96483
0
LINE
8
BLACK
6
CONTINUOUS
10
5.42901
20
-3.96483
11
5.42846
21
-3.96663
0
LINE
8
BLACK
6
CONTINUOUS
10
5.42846
20
-3.96663
11
5.42758
21
-3.96829
0
LINE
8
BLACK
6
CONTINUOUS
10
5.42758
20
-3.96829
11
5.42638
21
-3.96975
0
LINE
8
BLACK
6
CONTINUOUS
10
5.42638
20
-3.96975
11
5.42493
21
-3.97094
0
LINE
8
BLACK
6
CONTINUOUS
10
5.42493
20
-3.97094
11
5.42327
21
-3.97183
0
LINE
8
BLACK
6
CONTINUOUS
10
5.42327
20
-3.97183
11
5.42147
21
-3.97237
0
LINE
8
BLACK
6
CONTINUOUS
10
5.42147
20
-3.97237
11
5.4196
21
-3.97256
0
LINE
8
BLACK
6
CONTINUOUS
10
5.4196
20
-3.97256
11
5.4004
21
-3.97256
0
LINE
8
BLACK
6
CONTINUOUS
10
5.4004
20
-3.97256
11
5.39853
21
-3.97237
0
LINE
8
BLACK
6
CONTINUOUS
10
5.39853
20
-3.97237
11
5.39673
21
-3.97183
0
LINE
8
BLACK
6
CONTINUOUS
10
5.39673
20
-3.97183
11
5.39507
21
-3.97094
0
LINE
8
BLACK
6
CONTINUOUS
10
5.39507
20
-3.97094
11
5.39362
21
-3.96975
0
LINE
8
BLACK
6
CONTINUOUS
10
5.39362
20
-3.96975
11
5.39242
21
-3.96829
0
LINE
8
BLACK
6
CONTINUOUS
10
5.39242
20
-3.96829
11
5.39154
21
-3.96663
0
LINE
8
BLACK
6
CONTINUOUS
10
5.39154
20
-3.96663
11
5.39099
21
-3.96483
0
LINE
8
BLACK
6
CONTINUOUS
10
5.39099
20
-3.96483
11
5.39081
21
-3.96296
0
LINE
8
BLACK
6
CONTINUOUS
10
5.39081
20
-3.96296
11
5.39081
21
-3.92704
0
LINE
8
BLACK
6
CONTINUOUS
10
5.39081
20
-3.92704
11
5.39099
21
-3.92517
0
LINE
8
BLACK
6
CONTINUOUS
10
5.39099
20
-3.92517
11
5.39154
21
-3.92336
0
LINE
8
BLACK
6
CONTINUOUS
10
5.39154
20
-3.92336
11
5.39242
21
-3.92171
0
LINE
8
BLACK
6
CONTINUOUS
10
5.39242
20
-3.92171
11
5.39362
21
-3.92025
0
LINE
8
BLACK
6
CONTINUOUS
10
5.39362
20
-3.92025
11
5.39507
21
-3.91906
0
LINE
8
BLACK
6
CONTINUOUS
10
5.39507
20
-3.91906
11
5.39673
21
-3.91817
0
LINE
8
BLACK
6
CONTINUOUS
10
5.39673
20
-3.91817
11
5.39853
21
-3.91763
0
LINE
8
BLACK
6
CONTINUOUS
10
5.39853
20
-3.91763
11
5.4004
21
-3.91744
0
LINE
8
BLACK
6
CONTINUOUS
10
5.4004
20
-3.91744
11
5.4196
21
-3.91744
0
LINE
8
BLACK
6
CONTINUOUS
10
5.4196
20
-3.91744
11
5.42147
21
-3.91763
0
LINE
8
BLACK
6
CONTINUOUS
10
5.72721
20
-3.80605
11
5.72722
21
-3.80605
0
LINE
8
BLACK
6
CONTINUOUS
10
5.72722
20
-3.80605
11
5.72723
21
-3.80606
0
LINE
8
BLACK
6
CONTINUOUS
10
5.72723
20
-3.80606
11
5.72724
21
-3.80607
0
LINE
8
BLACK
6
CONTINUOUS
10
5.72724
20
-3.80607
11
5.72724
21
-3.80607
0
LINE
8
BLACK
6
CONTINUOUS
10
5.72724
20
-3.80607
11
5.72725
21
-3.80608
0
LINE
8
BLACK
6
CONTINUOUS
10
5.72725
20
-3.80608
11
5.72725
21
-3.80608
0
LINE
8
BLACK
6
CONTINUOUS
10
5.72725
20
-3.80608
11
5.72725
21
-3.80608
0
LINE
8
BLACK
6
CONTINUOUS
10
5.72725
20
-3.80608
11
5.72725
21
-3.80609
0
LINE
8
BLACK
6
CONTINUOUS
10
5.72725
20
-3.80609
11
5.72805
21
-3.81049
0
LINE
8
BLACK
6
CONTINUOUS
10
5.72805
20
-3.81049
11
5.72805
21
-3.81049
0
LINE
8
BLACK
6
CONTINUOUS
10
5.72805
20
-3.81049
11
5.72865
21
-3.81329
0
LINE
8
BLACK
6
CONTINUOUS
10
5.72865
20
-3.81329
11
5.72865
21
-3.81329
0
LINE
8
BLACK
6
CONTINUOUS
10
5.72865
20
-3.81329
11
5.72865
21
-3.81329
0
LINE
8
BLACK
6
CONTINUOUS
10
5.72865
20
-3.81329
11
5.72865
21
-3.81329
0
LINE
8
BLACK
6
CONTINUOUS
10
5.72865
20
-3.81329
11
5.72915
21
-3.81619
0
LINE
8
BLACK
6
CONTINUOUS
10
5.72915
20
-3.81619
11
5.72955
21
-3.81829
0
LINE
8
BLACK
6
CONTINUOUS
10
5.72955
20
-3.81829
11
5.73024
21
-3.82166
0
LINE
8
BLACK
6
CONTINUOUS
10
5.73024
20
-3.82166
11
5.73542
21
-3.82395
0
LINE
8
BLACK
6
CONTINUOUS
10
5.73542
20
-3.82395
11
5.73782
21
-3.82495
0
LINE
8
BLACK
6
CONTINUOUS
10
5.73782
20
-3.82495
11
5.73782
21
-3.82495
0
LINE
8
BLACK
6
CONTINUOUS
10
5.73782
20
-3.82495
11
5.73782
21
-3.82495
0
LINE
8
BLACK
6
CONTINUOUS
10
5.73782
20
-3.82495
11
5.73972
21
-3.82575
0
LINE
8
BLACK
6
CONTINUOUS
10
5.73972
20
-3.82575
11
5.74102
21
-3.82625
0
LINE
8
BLACK
6
CONTINUOUS
10
5.74102
20
-3.82625
11
5.74139
21
-3.82635
0
LINE
8
BLACK
6
CONTINUOUS
10
5.74139
20
-3.82635
11
5.74208
21
-3.82596
0
LINE
8
BLACK
6
CONTINUOUS
10
5.74208
20
-3.82596
11
5.74208
21
-3.82596
0
LINE
8
BLACK
6
CONTINUOUS
10
5.74208
20
-3.82596
11
5.74208
21
-3.82596
0
LINE
8
BLACK
6
CONTINUOUS
10
5.74208
20
-3.82596
11
5.74367
21
-3.82506
0
LINE
8
BLACK
6
CONTINUOUS
10
5.74367
20
-3.82506
11
5.74587
21
-3.82366
0
LINE
8
BLACK
6
CONTINUOUS
10
5.74587
20
-3.82366
11
5.74787
21
-3.82226
0
LINE
8
BLACK
6
CONTINUOUS
10
5.74787
20
-3.82226
11
5.74787
21
-3.82226
0
LINE
8
BLACK
6
CONTINUOUS
10
5.74787
20
-3.82226
11
5.74787
21
-3.82226
0
LINE
8
BLACK
6
CONTINUOUS
10
5.74787
20
-3.82226
11
5.75017
21
-3.82066
0
LINE
8
BLACK
6
CONTINUOUS
10
5.75017
20
-3.82066
11
5.75017
21
-3.82066
0
LINE
8
BLACK
6
CONTINUOUS
10
5.75017
20
-3.82066
11
5.75017
21
-3.82066
0
LINE
8
BLACK
6
CONTINUOUS
10
5.75017
20
-3.82066
11
5.75017
21
-3.82066
0
LINE
8
BLACK
6
CONTINUOUS
10
5.75017
20
-3.82066
11
5.75227
21
-3.81936
0
LINE
8
BLACK
6
CONTINUOUS
10
5.75227
20
-3.81936
11
5.75367
21
-3.81836
0
LINE
8
BLACK
6
CONTINUOUS
10
5.75367
20
-3.81836
11
5.75367
21
-3.81836
0
LINE
8
BLACK
6
CONTINUOUS
10
5.75367
20
-3.81836
11
5.75367
21
-3.81836
0
LINE
8
BLACK
6
CONTINUOUS
10
5.75367
20
-3.81836
11
5.75368
21
-3.81836
0
LINE
8
BLACK
6
CONTINUOUS
10
5.75368
20
-3.81836
11
5.75438
21
-3.81796
0
LINE
8
BLACK
6
CONTINUOUS
10
5.75438
20
-3.81796
11
5.75438
21
-3.81796
0
LINE
8
BLACK
6
CONTINUOUS
10
5.75438
20
-3.81796
11
5.75438
21
-3.81795
0
LINE
8
BLACK
6
CONTINUOUS
10
5.75438
20
-3.81795
11
5.75438
21
-3.81795
0
LINE
8
BLACK
6
CONTINUOUS
10
5.75438
20
-3.81795
11
5.75468
21
-3.81785
0
LINE
8
BLACK
6
CONTINUOUS
10
5.75468
20
-3.81785
11
5.75468
21
-3.81785
0
LINE
8
BLACK
6
CONTINUOUS
10
5.75468
20
-3.81785
11
5.75469
21
-3.81785
0
LINE
8
BLACK
6
CONTINUOUS
10
5.75469
20
-3.81785
11
5.75469
21
-3.81785
0
LINE
8
BLACK
6
CONTINUOUS
10
5.75469
20
-3.81785
11
5.75469
21
-3.81785
0
LINE
8
BLACK
6
CONTINUOUS
10
5.75469
20
-3.81785
11
5.75469
21
-3.81785
0
LINE
8
BLACK
6
CONTINUOUS
10
5.75469
20
-3.81785
11
5.7547
21
-3.81785
0
LINE
8
BLACK
6
CONTINUOUS
10
5.7547
20
-3.81785
11
5.7547
21
-3.81785
0
LINE
8
BLACK
6
CONTINUOUS
10
5.7547
20
-3.81785
11
5.7547
21
-3.81785
0
LINE
8
BLACK
6
CONTINUOUS
10
5.7547
20
-3.81785
11
5.7547
21
-3.81785
0
LINE
8
BLACK
6
CONTINUOUS
10
5.7547
20
-3.81785
11
5.75471
21
-3.81785
0
LINE
8
BLACK
6
CONTINUOUS
10
5.75471
20
-3.81785
11
5.75471
21
-3.81785
0
LINE
8
BLACK
6
CONTINUOUS
10
5.75471
20
-3.81785
11
5.75471
21
-3.81785
0
LINE
8
BLACK
6
CONTINUOUS
10
5.75471
20
-3.81785
11
5.75471
21
-3.81785
0
LINE
8
BLACK
6
CONTINUOUS
10
5.75471
20
-3.81785
11
5.75472
21
-3.81785
0
LINE
8
BLACK
6
CONTINUOUS
10
5.75472
20
-3.81785
11
5.75472
21
-3.81785
0
LINE
8
BLACK
6
CONTINUOUS
10
5.75472
20
-3.81785
11
5.75522
21
-3.81805
0
LINE
8
BLACK
6
CONTINUOUS
10
5.75522
20
-3.81805
11
5.75522
21
-3.81805
0
LINE
8
BLACK
6
CONTINUOUS
10
5.75522
20
-3.81805
11
5.75522
21
-3.81806
0
LINE
8
BLACK
6
CONTINUOUS
10
5.75522
20
-3.81806
11
5.75523
21
-3.81806
0
LINE
8
BLACK
6
CONTINUOUS
10
5.75523
20
-3.81806
11
5.75523
21
-3.81806
0
LINE
8
BLACK
6
CONTINUOUS
10
5.75523
20
-3.81806
11
5.75523
21
-3.81806
0
LINE
8
BLACK
6
CONTINUOUS
10
5.75523
20
-3.81806
11
5.75523
21
-3.81806
0
LINE
8
BLACK
6
CONTINUOUS
10
5.75523
20
-3.81806
11
5.75523
21
-3.81806
0
LINE
8
BLACK
6
CONTINUOUS
10
5.75523
20
-3.81806
11
5.75603
21
-3.81876
0
LINE
8
BLACK
6
CONTINUOUS
10
5.75603
20
-3.81876
11
5.75603
21
-3.81876
0
LINE
8
BLACK
6
CONTINUOUS
10
5.75603
20
-3.81876
11
5.75733
21
-3.81986
0
LINE
8
BLACK
6
CONTINUOUS
10
5.75733
20
-3.81986
11
5.75733
21
-3.81986
0
LINE
8
BLACK
6
CONTINUOUS
10
5.75733
20
-3.81986
11
5.75733
21
-3.81986
0
LINE
8
BLACK
6
CONTINUOUS
10
5.75733
20
-3.81986
11
5.75734
21
-3.81986
0
LINE
8
BLACK
6
CONTINUOUS
10
5.75734
20
-3.81986
11
5.76074
21
-3.82327
0
LINE
8
BLACK
6
CONTINUOUS
10
5.76074
20
-3.82327
11
5.76074
21
-3.82327
0
LINE
8
BLACK
6
CONTINUOUS
10
5.76074
20
-3.82327
11
5.76074
21
-3.82327
0
LINE
8
BLACK
6
CONTINUOUS
10
5.76074
20
-3.82327
11
5.76274
21
-3.82537
0
LINE
8
BLACK
6
CONTINUOUS
10
5.76274
20
-3.82537
11
5.76454
21
-3.82717
0
LINE
8
BLACK
6
CONTINUOUS
10
5.76454
20
-3.82717
11
5.76454
21
-3.82717
0
LINE
8
BLACK
6
CONTINUOUS
10
5.76454
20
-3.82717
11
5.76454
21
-3.82717
0
LINE
8
BLACK
6
CONTINUOUS
10
5.76454
20
-3.82717
11
5.76574
21
-3.82847
0
LINE
8
BLACK
6
CONTINUOUS
10
5.76574
20
-3.82847
11
5.76634
21
-3.82907
0
LINE
8
BLACK
6
CONTINUOUS
10
5.76634
20
-3.82907
11
5.76634
21
-3.82907
0
LINE
8
BLACK
6
CONTINUOUS
10
5.76634
20
-3.82907
11
5.76634
21
-3.82907
0
LINE
8
BLACK
6
CONTINUOUS
10
5.76634
20
-3.82907
11
5.76634
21
-3.82907
0
LINE
8
BLACK
6
CONTINUOUS
10
5.76634
20
-3.82907
11
5.76634
21
-3.82907
0
LINE
8
BLACK
6
CONTINUOUS
10
5.76634
20
-3.82907
11
5.76634
21
-3.82908
0
LINE
8
BLACK
6
CONTINUOUS
10
5.76634
20
-3.82908
11
5.76635
21
-3.82908
0
LINE
8
BLACK
6
CONTINUOUS
10
5.76635
20
-3.82908
11
5.76635
21
-3.82908
0
LINE
8
BLACK
6
CONTINUOUS
10
5.76635
20
-3.82908
11
5.76635
21
-3.82908
0
LINE
8
BLACK
6
CONTINUOUS
10
5.76635
20
-3.82908
11
5.76635
21
-3.82909
0
LINE
8
BLACK
6
CONTINUOUS
10
5.76635
20
-3.82909
11
5.76635
21
-3.82909
0
LINE
8
BLACK
6
CONTINUOUS
10
5.76635
20
-3.82909
11
5.76635
21
-3.82909
0
LINE
8
BLACK
6
CONTINUOUS
10
5.76635
20
-3.82909
11
5.76635
21
-3.82909
0
LINE
8
BLACK
6
CONTINUOUS
10
5.76635
20
-3.82909
11
5.76635
21
-3.8291
0
LINE
8
BLACK
6
CONTINUOUS
10
5.76635
20
-3.8291
11
5.76635
21
-3.8291
0
LINE
8
BLACK
6
CONTINUOUS
10
5.76635
20
-3.8291
11
5.76635
21
-3.8292
0
LINE
8
BLACK
6
CONTINUOUS
10
5.76635
20
-3.8292
11
5.76635
21
-3.8292
0
LINE
8
BLACK
6
CONTINUOUS
10
5.76635
20
-3.8292
11
5.76635
21
-3.82921
0
LINE
8
BLACK
6
CONTINUOUS
10
5.76635
20
-3.82921
11
5.76635
21
-3.82921
0
LINE
8
BLACK
6
CONTINUOUS
10
5.76635
20
-3.82921
11
5.76635
21
-3.82921
0
LINE
8
BLACK
6
CONTINUOUS
10
5.76635
20
-3.82921
11
5.76635
21
-3.82921
0
LINE
8
BLACK
6
CONTINUOUS
10
5.76635
20
-3.82921
11
5.76635
21
-3.82922
0
LINE
8
BLACK
6
CONTINUOUS
10
5.76635
20
-3.82922
11
5.76635
21
-3.82922
0
LINE
8
BLACK
6
CONTINUOUS
10
5.76635
20
-3.82922
11
5.76635
21
-3.82922
0
LINE
8
BLACK
6
CONTINUOUS
10
5.76635
20
-3.82922
11
5.76634
21
-3.82922
0
LINE
8
BLACK
6
CONTINUOUS
10
5.76634
20
-3.82922
11
5.76634
21
-3.82923
0
LINE
8
BLACK
6
CONTINUOUS
10
5.76634
20
-3.82923
11
5.76604
21
-3.82973
0
LINE
8
BLACK
6
CONTINUOUS
10
5.76604
20
-3.82973
11
5.76604
21
-3.82973
0
LINE
8
BLACK
6
CONTINUOUS
10
5.76604
20
-3.82973
11
5.76604
21
-3.82973
0
LINE
8
BLACK
6
CONTINUOUS
10
5.76604
20
-3.82973
11
5.76604
21
-3.82973
0
LINE
8
BLACK
6
CONTINUOUS
10
5.76604
20
-3.82973
11
5.76514
21
-3.83113
0
LINE
8
BLACK
6
CONTINUOUS
10
5.76514
20
-3.83113
11
5.76514
21
-3.83113
0
LINE
8
BLACK
6
CONTINUOUS
10
5.76514
20
-3.83113
11
5.76384
21
-3.83313
0
LINE
8
BLACK
6
CONTINUOUS
10
5.76384
20
-3.83313
11
5.76384
21
-3.83313
0
LINE
8
BLACK
6
CONTINUOUS
10
5.76384
20
-3.83313
11
5.76224
21
-3.83553
0
LINE
8
BLACK
6
CONTINUOUS
10
5.76224
20
-3.83553
11
5.76224
21
-3.83553
0
LINE
8
BLACK
6
CONTINUOUS
10
5.76224
20
-3.83553
11
5.76184
21
-3.83613
0
LINE
8
BLACK
6
CONTINUOUS
10
5.76184
20
-3.83613
11
5.76184
21
-3.83613
0
LINE
8
BLACK
6
CONTINUOUS
10
5.76184
20
-3.83613
11
5.76184
21
-3.83613
0
LINE
8
BLACK
6
CONTINUOUS
10
5.76184
20
-3.83613
11
5.76184
21
-3.83613
0
LINE
8
BLACK
6
CONTINUOUS
10
5.76184
20
-3.83613
11
5.75726
21
-3.84271
0
LINE
8
BLACK
6
CONTINUOUS
10
5.75726
20
-3.84271
11
5.75945
21
-3.84808
0
LINE
8
BLACK
6
CONTINUOUS
10
5.75945
20
-3.84808
11
5.76045
21
-3.85038
0
LINE
8
BLACK
6
CONTINUOUS
10
5.76045
20
-3.85038
11
5.76045
21
-3.85038
0
LINE
8
BLACK
6
CONTINUOUS
10
5.76045
20
-3.85038
11
5.76045
21
-3.85038
0
LINE
8
BLACK
6
CONTINUOUS
10
5.76045
20
-3.85038
11
5.76045
21
-3.85038
0
LINE
8
BLACK
6
CONTINUOUS
10
5.76045
20
-3.85038
11
5.76115
21
-3.85228
0
LINE
8
BLACK
6
CONTINUOUS
10
5.76115
20
-3.85228
11
5.76174
21
-3.85348
0
LINE
8
BLACK
6
CONTINUOUS
10
5.76174
20
-3.85348
11
5.76184
21
-3.85366
0
LINE
8
BLACK
6
CONTINUOUS
10
5.76184
20
-3.85366
11
5.76241
21
-3.85385
0
LINE
8
BLACK
6
CONTINUOUS
10
5.76241
20
-3.85385
11
5.76401
21
-3.85415
0
LINE
8
BLACK
6
CONTINUOUS
10
5.76401
20
-3.85415
11
5.76401
21
-3.85415
0
LINE
8
BLACK
6
CONTINUOUS
10
5.76401
20
-3.85415
11
5.76401
21
-3.85415
0
LINE
8
BLACK
6
CONTINUOUS
10
5.76401
20
-3.85415
11
5.76401
21
-3.85415
0
LINE
8
BLACK
6
CONTINUOUS
10
5.76401
20
-3.85415
11
5.76631
21
-3.85465
0
LINE
8
BLACK
6
CONTINUOUS
10
5.76631
20
-3.85465
11
5.76911
21
-3.85515
0
LINE
8
BLACK
6
CONTINUOUS
10
5.76911
20
-3.85515
11
5.76911
21
-3.85515
0
LINE
8
BLACK
6
CONTINUOUS
10
5.76911
20
-3.85515
11
5.76911
21
-3.85515
0
LINE
8
BLACK
6
CONTINUOUS
10
5.76911
20
-3.85515
11
5.76911
21
-3.85515
0
LINE
8
BLACK
6
CONTINUOUS
10
5.76911
20
-3.85515
11
5.76961
21
-3.85525
0
LINE
8
BLACK
6
CONTINUOUS
10
5.76961
20
-3.85525
11
5.76961
21
-3.85525
0
LINE
8
BLACK
6
CONTINUOUS
10
5.76961
20
-3.85525
11
5.76961
21
-3.85525
0
LINE
8
BLACK
6
CONTINUOUS
10
5.76961
20
-3.85525
11
5.77251
21
-3.85585
0
LINE
8
BLACK
6
CONTINUOUS
10
5.77251
20
-3.85585
11
5.77251
21
-3.85585
0
LINE
8
BLACK
6
CONTINUOUS
10
5.77251
20
-3.85585
11
5.77251
21
-3.85585
0
LINE
8
BLACK
6
CONTINUOUS
10
5.77251
20
-3.85585
11
5.77501
21
-3.85635
0
LINE
8
BLACK
6
CONTINUOUS
10
5.77501
20
-3.85635
11
5.77501
21
-3.85635
0
LINE
8
BLACK
6
CONTINUOUS
10
5.77501
20
-3.85635
11
5.77501
21
-3.85635
0
LINE
8
BLACK
6
CONTINUOUS
10
5.77501
20
-3.85635
11
5.77501
21
-3.85635
0
LINE
8
BLACK
6
CONTINUOUS
10
5.77501
20
-3.85635
11
5.77671
21
-3.85675
0
LINE
8
BLACK
6
CONTINUOUS
10
5.77671
20
-3.85675
11
5.77671
21
-3.85675
0
LINE
8
BLACK
6
CONTINUOUS
10
5.77671
20
-3.85675
11
5.77761
21
-3.85695
0
LINE
8
BLACK
6
CONTINUOUS
10
5.77761
20
-3.85695
11
5.77761
21
-3.85695
0
LINE
8
BLACK
6
CONTINUOUS
10
5.77761
20
-3.85695
11
5.77761
21
-3.85695
0
LINE
8
BLACK
6
CONTINUOUS
10
5.77761
20
-3.85695
11
5.77762
21
-3.85695
0
LINE
8
BLACK
6
CONTINUOUS
10
5.77762
20
-3.85695
11
5.77762
21
-3.85695
0
LINE
8
BLACK
6
CONTINUOUS
10
5.77762
20
-3.85695
11
5.77762
21
-3.85695
0
LINE
8
BLACK
6
CONTINUOUS
10
5.77762
20
-3.85695
11
5.77762
21
-3.85696
0
LINE
8
BLACK
6
CONTINUOUS
10
5.77762
20
-3.85696
11
5.77762
21
-3.85696
0
LINE
8
BLACK
6
CONTINUOUS
10
5.77762
20
-3.85696
11
5.77763
21
-3.85696
0
LINE
8
BLACK
6
CONTINUOUS
10
5.77763
20
-3.85696
11
5.77763
21
-3.85696
0
LINE
8
BLACK
6
CONTINUOUS
10
5.77763
20
-3.85696
11
5.77763
21
-3.85696
0
LINE
8
BLACK
6
CONTINUOUS
10
5.77763
20
-3.85696
11
5.77763
21
-3.85696
0
LINE
8
BLACK
6
CONTINUOUS
10
5.77763
20
-3.85696
11
5.77763
21
-3.85696
0
LINE
8
BLACK
6
CONTINUOUS
10
5.77763
20
-3.85696
11
5.77764
21
-3.85697
0
LINE
8
BLACK
6
CONTINUOUS
10
5.77764
20
-3.85697
11
5.77764
21
-3.85697
0
LINE
8
BLACK
6
CONTINUOUS
10
5.77764
20
-3.85697
11
5.77764
21
-3.85697
0
LINE
8
BLACK
6
CONTINUOUS
10
5.77764
20
-3.85697
11
5.77764
21
-3.85697
0
LINE
8
BLACK
6
CONTINUOUS
10
5.77764
20
-3.85697
11
5.77764
21
-3.85697
0
LINE
8
BLACK
6
CONTINUOUS
10
5.77764
20
-3.85697
11
5.77764
21
-3.85698
0
LINE
8
BLACK
6
CONTINUOUS
10
5.77764
20
-3.85698
11
5.77764
21
-3.85698
0
LINE
8
BLACK
6
CONTINUOUS
10
5.77764
20
-3.85698
11
5.77765
21
-3.85698
0
LINE
8
BLACK
6
CONTINUOUS
10
5.77765
20
-3.85698
11
5.77765
21
-3.85698
0
LINE
8
BLACK
6
CONTINUOUS
10
5.77765
20
-3.85698
11
5.77765
21
-3.85698
0
LINE
8
BLACK
6
CONTINUOUS
10
5.77765
20
-3.85698
11
5.77765
21
-3.85699
0
LINE
8
BLACK
6
CONTINUOUS
10
5.77765
20
-3.85699
11
5.77785
21
-3.85769
0
LINE
8
BLACK
6
CONTINUOUS
10
5.77785
20
-3.85769
11
5.77785
21
-3.85769
0
LINE
8
BLACK
6
CONTINUOUS
10
5.77785
20
-3.85769
11
5.77785
21
-3.85769
0
LINE
8
BLACK
6
CONTINUOUS
10
5.77785
20
-3.85769
11
5.77785
21
-3.85769
0
LINE
8
BLACK
6
CONTINUOUS
10
5.77785
20
-3.85769
11
5.77785
21
-3.8577
0
LINE
8
BLACK
6
CONTINUOUS
10
5.77785
20
-3.8577
11
5.77795
21
-3.8593
0
LINE
8
BLACK
6
CONTINUOUS
10
5.77795
20
-3.8593
11
5.77795
21
-3.8593
0
LINE
8
BLACK
6
CONTINUOUS
10
5.77795
20
-3.8593
11
5.77795
21
-3.8593
0
LINE
8
BLACK
6
CONTINUOUS
10
5.77795
20
-3.8593
11
5.77805
21
-3.8615
0
LINE
8
BLACK
6
CONTINUOUS
10
5.77805
20
-3.8615
11
5.77805
21
-3.8615
0
LINE
8
BLACK
6
CONTINUOUS
10
5.77805
20
-3.8615
11
5.77805
21
-3.8615
0
LINE
8
BLACK
6
CONTINUOUS
10
5.77805
20
-3.8615
11
5.77805
21
-3.8615
0
LINE
8
BLACK
6
CONTINUOUS
10
5.77805
20
-3.8615
11
5.77805
21
-3.8693
0
LINE
8
BLACK
6
CONTINUOUS
10
5.77805
20
-3.8693
11
5.77805
21
-3.8693
0
LINE
8
BLACK
6
CONTINUOUS
10
5.77805
20
-3.8693
11
5.77805
21
-3.8693
0
LINE
8
BLACK
6
CONTINUOUS
10
5.77805
20
-3.8693
11
5.77795
21
-3.8714
0
LINE
8
BLACK
6
CONTINUOUS
10
5.77795
20
-3.8714
11
5.77795
21
-3.8714
0
LINE
8
BLACK
6
CONTINUOUS
10
5.77795
20
-3.8714
11
5.77795
21
-3.8714
0
LINE
8
BLACK
6
CONTINUOUS
10
5.77795
20
-3.8714
11
5.77795
21
-3.8714
0
LINE
8
BLACK
6
CONTINUOUS
10
5.77795
20
-3.8714
11
5.77785
21
-3.8728
0
LINE
8
BLACK
6
CONTINUOUS
10
5.77785
20
-3.8728
11
5.77785
21
-3.8732
0
LINE
8
BLACK
6
CONTINUOUS
10
5.77785
20
-3.8732
11
5.77785
21
-3.8732
0
LINE
8
BLACK
6
CONTINUOUS
10
5.77785
20
-3.8732
11
5.77785
21
-3.8732
0
LINE
8
BLACK
6
CONTINUOUS
10
5.77785
20
-3.8732
11
5.77785
21
-3.87321
0
LINE
8
BLACK
6
CONTINUOUS
10
5.77785
20
-3.87321
11
5.77785
21
-3.87321
0
LINE
8
BLACK
6
CONTINUOUS
10
5.77785
20
-3.87321
11
5.77785
21
-3.87321
0
LINE
8
BLACK
6
CONTINUOUS
10
5.77785
20
-3.87321
11
5.77785
21
-3.87321
0
LINE
8
BLACK
6
CONTINUOUS
10
5.77785
20
-3.87321
11
5.77785
21
-3.87322
0
LINE
8
BLACK
6
CONTINUOUS
10
5.77785
20
-3.87322
11
5.77785
21
-3.87322
0
LINE
8
BLACK
6
CONTINUOUS
10
5.77785
20
-3.87322
11
5.77785
21
-3.87322
0
LINE
8
BLACK
6
CONTINUOUS
10
5.77785
20
-3.87322
11
5.77785
21
-3.87322
0
LINE
8
BLACK
6
CONTINUOUS
10
5.77785
20
-3.87322
11
5.77784
21
-3.87323
0
LINE
8
BLACK
6
CONTINUOUS
10
5.77784
20
-3.87323
11
5.77784
21
-3.87323
0
LINE
8
BLACK
6
CONTINUOUS
10
5.77784
20
-3.87323
11
5.77784
21
-3.87323
0
LINE
8
BLACK
6
CONTINUOUS
10
5.77784
20
-3.87323
11
5.77784
21
-3.87323
0
LINE
8
BLACK
6
CONTINUOUS
10
5.77784
20
-3.87323
11
5.77784
21
-3.87323
0
LINE
8
BLACK
6
CONTINUOUS
10
5.77784
20
-3.87323
11
5.77783
21
-3.87324
0
LINE
8
BLACK
6
CONTINUOUS
10
5.77783
20
-3.87324
11
5.77783
21
-3.87324
0
LINE
8
BLACK
6
CONTINUOUS
10
5.77783
20
-3.87324
11
5.77783
21
-3.87324
0
LINE
8
BLACK
6
CONTINUOUS
10
5.77783
20
-3.87324
11
5.77783
21
-3.87324
0
LINE
8
BLACK
6
CONTINUOUS
10
5.77783
20
-3.87324
11
5.77783
21
-3.87324
0
LINE
8
BLACK
6
CONTINUOUS
10
5.77783
20
-3.87324
11
5.77783
21
-3.87324
0
LINE
8
BLACK
6
CONTINUOUS
10
5.77783
20
-3.87324
11
5.77783
21
-3.87324
0
LINE
8
BLACK
6
CONTINUOUS
10
5.77783
20
-3.87324
11
5.77782
21
-3.87324
0
LINE
8
BLACK
6
CONTINUOUS
10
5.77782
20
-3.87324
11
5.77782
21
-3.87325
0
LINE
8
BLACK
6
CONTINUOUS
10
5.77782
20
-3.87325
11
5.77782
21
-3.87325
0
LINE
8
BLACK
6
CONTINUOUS
10
5.77782
20
-3.87325
11
5.77782
21
-3.87325
0
LINE
8
BLACK
6
CONTINUOUS
10
5.77782
20
-3.87325
11
5.77781
21
-3.87325
0
LINE
8
BLACK
6
CONTINUOUS
10
5.77781
20
-3.87325
11
5.77781
21
-3.87325
0
LINE
8
BLACK
6
CONTINUOUS
10
5.77781
20
-3.87325
11
5.77781
21
-3.87325
0
LINE
8
BLACK
6
CONTINUOUS
10
5.77781
20
-3.87325
11
5.77781
21
-3.87325
0
LINE
8
BLACK
6
CONTINUOUS
10
5.77781
20
-3.87325
11
5.77711
21
-3.87335
0
LINE
8
BLACK
6
CONTINUOUS
10
5.77711
20
-3.87335
11
5.77551
21
-3.87375
0
LINE
8
BLACK
6
CONTINUOUS
10
5.77551
20
-3.87375
11
5.77551
21
-3.87375
0
LINE
8
BLACK
6
CONTINUOUS
10
5.77551
20
-3.87375
11
5.77551
21
-3.87375
0
LINE
8
BLACK
6
CONTINUOUS
10
5.77551
20
-3.87375
11
5.77551
21
-3.87375
0
LINE
8
BLACK
6
CONTINUOUS
10
5.77551
20
-3.87375
11
5.77321
21
-3.87415
0
LINE
8
BLACK
6
CONTINUOUS
10
5.77321
20
-3.87415
11
5.77321
21
-3.87415
0
LINE
8
BLACK
6
CONTINUOUS
10
5.77321
20
-3.87415
11
5.77031
21
-3.87465
0
LINE
8
BLACK
6
CONTINUOUS
10
5.77031
20
-3.87465
11
5.76991
21
-3.87475
0
LINE
8
BLACK
6
CONTINUOUS
10
5.76991
20
-3.87475
11
5.76991
21
-3.87475
0
LINE
8
BLACK
6
CONTINUOUS
10
5.76991
20
-3.87475
11
5.76991
21
-3.87475
0
LINE
8
BLACK
6
CONTINUOUS
10
5.76991
20
-3.87475
11
5.76991
21
-3.87475
0
LINE
8
BLACK
6
CONTINUOUS
10
5.76991
20
-3.87475
11
5.76701
21
-3.87535
0
LINE
8
BLACK
6
CONTINUOUS
10
5.76701
20
-3.87535
11
5.76701
21
-3.87535
0
LINE
8
BLACK
6
CONTINUOUS
10
5.76701
20
-3.87535
11
5.76461
21
-3.87585
0
LINE
8
BLACK
6
CONTINUOUS
10
5.76461
20
-3.87585
11
5.76461
21
-3.87585
0
LINE
8
BLACK
6
CONTINUOUS
10
5.76461
20
-3.87585
11
5.76281
21
-3.87625
0
LINE
8
BLACK
6
CONTINUOUS
10
5.76281
20
-3.87625
11
5.76195
21
-3.87644
0
LINE
8
BLACK
6
CONTINUOUS
10
5.76195
20
-3.87644
11
5.76195
21
-3.8765
0
LINE
8
BLACK
6
CONTINUOUS
10
5.76195
20
-3.8765
11
5.76195
21
-3.8765
0
LINE
8
BLACK
6
CONTINUOUS
10
5.76195
20
-3.8765
11
5.76195
21
-3.87651
0
LINE
8
BLACK
6
CONTINUOUS
10
5.76195
20
-3.87651
11
5.76195
21
-3.87651
0
LINE
8
BLACK
6
CONTINUOUS
10
5.76195
20
-3.87651
11
5.76195
21
-3.87651
0
LINE
8
BLACK
6
CONTINUOUS
10
5.76195
20
-3.87651
11
5.76195
21
-3.87651
0
LINE
8
BLACK
6
CONTINUOUS
10
5.76195
20
-3.87651
11
5.76195
21
-3.87652
0
LINE
8
BLACK
6
CONTINUOUS
10
5.76195
20
-3.87652
11
5.76195
21
-3.87652
0
LINE
8
BLACK
6
CONTINUOUS
10
5.76195
20
-3.87652
11
5.76195
21
-3.87652
0
LINE
8
BLACK
6
CONTINUOUS
10
5.76195
20
-3.87652
11
5.76194
21
-3.87652
0
LINE
8
BLACK
6
CONTINUOUS
10
5.76194
20
-3.87652
11
5.76194
21
-3.87652
0
LINE
8
BLACK
6
CONTINUOUS
10
5.76194
20
-3.87652
11
5.76154
21
-3.87722
0
LINE
8
BLACK
6
CONTINUOUS
10
5.76154
20
-3.87722
11
5.76085
21
-3.87862
0
LINE
8
BLACK
6
CONTINUOUS
10
5.76085
20
-3.87862
11
5.76005
21
-3.88062
0
LINE
8
BLACK
6
CONTINUOUS
10
5.76005
20
-3.88062
11
5.76005
21
-3.88062
0
LINE
8
BLACK
6
CONTINUOUS
10
5.76005
20
-3.88062
11
5.75915
21
-3.88282
0
LINE
8
BLACK
6
CONTINUOUS
10
5.75915
20
-3.88282
11
5.75915
21
-3.88282
0
LINE
8
BLACK
6
CONTINUOUS
10
5.75915
20
-3.88282
11
5.75835
21
-3.88492
0
LINE
8
BLACK
6
CONTINUOUS
10
5.75835
20
-3.88492
11
5.75775
21
-3.88661
0
LINE
8
BLACK
6
CONTINUOUS
10
5.75775
20
-3.88661
11
5.75755
21
-3.88751
0
LINE
8
BLACK
6
CONTINUOUS
10
5.75755
20
-3.88751
11
5.75755
21
-3.88759
0
LINE
8
BLACK
6
CONTINUOUS
10
5.75755
20
-3.88759
11
5.75784
21
-3.88818
0
LINE
8
BLACK
6
CONTINUOUS
10
5.75784
20
-3.88818
11
5.75874
21
-3.88957
0
LINE
8
BLACK
6
CONTINUOUS
10
5.75874
20
-3.88957
11
5.76014
21
-3.89157
0
LINE
8
BLACK
6
CONTINUOUS
10
5.76014
20
-3.89157
11
5.76014
21
-3.89157
0
LINE
8
BLACK
6
CONTINUOUS
10
5.76014
20
-3.89157
11
5.76014
21
-3.89157
0
LINE
8
BLACK
6
CONTINUOUS
10
5.76014
20
-3.89157
11
5.76014
21
-3.89157
0
LINE
8
BLACK
6
CONTINUOUS
10
5.76014
20
-3.89157
11
5.76174
21
-3.89397
0
LINE
8
BLACK
6
CONTINUOUS
10
5.76174
20
-3.89397
11
5.76184
21
-3.89406
0
LINE
8
BLACK
6
CONTINUOUS
10
5.76184
20
-3.89406
11
5.76184
21
-3.89406
0
LINE
8
BLACK
6
CONTINUOUS
10
5.76184
20
-3.89406
11
5.76184
21
-3.89406
0
LINE
8
BLACK
6
CONTINUOUS
10
5.76184
20
-3.89406
11
5.76184
21
-3.89407
0
LINE
8
BLACK
6
CONTINUOUS
10
5.76184
20
-3.89407
11
5.76184
21
-3.89407
0
LINE
8
BLACK
6
CONTINUOUS
10
5.76184
20
-3.89407
11
5.76184
21
-3.89407
0
LINE
8
BLACK
6
CONTINUOUS
10
5.76184
20
-3.89407
11
5.76344
21
-3.89647
0
LINE
8
BLACK
6
CONTINUOUS
10
5.76344
20
-3.89647
11
5.76484
21
-3.89847
0
LINE
8
BLACK
6
CONTINUOUS
10
5.76484
20
-3.89847
11
5.76484
21
-3.89847
0
LINE
8
BLACK
6
CONTINUOUS
10
5.76484
20
-3.89847
11
5.76484
21
-3.89847
0
LINE
8
BLACK
6
CONTINUOUS
10
5.76484
20
-3.89847
11
5.76484
21
-3.89847
0
LINE
8
BLACK
6
CONTINUOUS
10
5.76484
20
-3.89847
11
5.76584
21
-3.89997
0
LINE
8
BLACK
6
CONTINUOUS
10
5.76584
20
-3.89997
11
5.76584
21
-3.89997
0
LINE
8
BLACK
6
CONTINUOUS
10
5.76584
20
-3.89997
11
5.76584
21
-3.89998
0
LINE
8
BLACK
6
CONTINUOUS
10
5.76584
20
-3.89998
11
5.76624
21
-3.90068
0
LINE
8
BLACK
6
CONTINUOUS
10
5.76624
20
-3.90068
11
5.76624
21
-3.90068
0
LINE
8
BLACK
6
CONTINUOUS
10
5.76624
20
-3.90068
11
5.76624
21
-3.90068
0
LINE
8
BLACK
6
CONTINUOUS
10
5.76624
20
-3.90068
11
5.76625
21
-3.90068
0
LINE
8
BLACK
6
CONTINUOUS
10
5.76625
20
-3.90068
11
5.76625
21
-3.90068
0
LINE
8
BLACK
6
CONTINUOUS
10
5.76625
20
-3.90068
11
5.76625
21
-3.90068
0
LINE
8
BLACK
6
CONTINUOUS
10
5.76625
20
-3.90068
11
5.76625
21
-3.90069
0
LINE
8
BLACK
6
CONTINUOUS
10
5.76625
20
-3.90069
11
5.76625
21
-3.90069
0
LINE
8
BLACK
6
CONTINUOUS
10
5.76625
20
-3.90069
11
5.76625
21
-3.90069
0
LINE
8
BLACK
6
CONTINUOUS
10
5.76625
20
-3.90069
11
5.76625
21
-3.90069
0
LINE
8
BLACK
6
CONTINUOUS
10
5.76625
20
-3.90069
11
5.76625
21
-3.9007
0
LINE
8
BLACK
6
CONTINUOUS
10
5.76625
20
-3.9007
11
5.76625
21
-3.9007
0
LINE
8
BLACK
6
CONTINUOUS
10
5.76625
20
-3.9007
11
5.76625
21
-3.9008
0
LINE
8
BLACK
6
CONTINUOUS
10
5.76625
20
-3.9008
11
5.76625
21
-3.9008
0
LINE
8
BLACK
6
CONTINUOUS
10
5.76625
20
-3.9008
11
5.76625
21
-3.9008
0
LINE
8
BLACK
6
CONTINUOUS
10
5.76625
20
-3.9008
11
5.76625
21
-3.90081
0
LINE
8
BLACK
6
CONTINUOUS
10
5.76625
20
-3.90081
11
5.76625
21
-3.90081
0
LINE
8
BLACK
6
CONTINUOUS
10
5.76625
20
-3.90081
11
5.76625
21
-3.90081
0
LINE
8
BLACK
6
CONTINUOUS
10
5.76625
20
-3.90081
11
5.76625
21
-3.90081
0
LINE
8
BLACK
6
CONTINUOUS
10
5.76625
20
-3.90081
11
5.76625
21
-3.90082
0
LINE
8
BLACK
6
CONTINUOUS
10
5.76625
20
-3.90082
11
5.76625
21
-3.90082
0
LINE
8
BLACK
6
CONTINUOUS
10
5.76625
20
-3.90082
11
5.76625
21
-3.90082
0
LINE
8
BLACK
6
CONTINUOUS
10
5.76625
20
-3.90082
11
5.76624
21
-3.90082
0
LINE
8
BLACK
6
CONTINUOUS
10
5.76624
20
-3.90082
11
5.76604
21
-3.90122
0
LINE
8
BLACK
6
CONTINUOUS
10
5.76604
20
-3.90122
11
5.76604
21
-3.90122
0
LINE
8
BLACK
6
CONTINUOUS
10
5.76604
20
-3.90122
11
5.76604
21
-3.90123
0
LINE
8
BLACK
6
CONTINUOUS
10
5.76604
20
-3.90123
11
5.76524
21
-3.90223
0
LINE
8
BLACK
6
CONTINUOUS
10
5.76524
20
-3.90223
11
5.76524
21
-3.90223
0
LINE
8
BLACK
6
CONTINUOUS
10
5.76524
20
-3.90223
11
5.76524
21
-3.90223
0
LINE
8
BLACK
6
CONTINUOUS
10
5.76524
20
-3.90223
11
5.76524
21
-3.90223
0
LINE
8
BLACK
6
CONTINUOUS
10
5.76524
20
-3.90223
11
5.76384
21
-3.90383
0
LINE
8
BLACK
6
CONTINUOUS
10
5.76384
20
-3.90383
11
5.76384
21
-3.90383
0
LINE
8
BLACK
6
CONTINUOUS
10
5.76384
20
-3.90383
11
5.76384
21
-3.90383
0
LINE
8
BLACK
6
CONTINUOUS
10
5.76384
20
-3.90383
11
5.76384
21
-3.90384
0
LINE
8
BLACK
6
CONTINUOUS
10
5.76384
20
-3.90384
11
5.76154
21
-3.90613
0
LINE
8
BLACK
6
CONTINUOUS
10
5.76154
20
-3.90613
11
5.76094
21
-3.90683
0
LINE
8
BLACK
6
CONTINUOUS
10
5.76094
20
-3.90683
11
5.76094
21
-3.90683
0
LINE
8
BLACK
6
CONTINUOUS
10
5.76094
20
-3.90683
11
5.76094
21
-3.90683
0
LINE
8
BLACK
6
CONTINUOUS
10
5.76094
20
-3.90683
11
5.76093
21
-3.90684
0
LINE
8
BLACK
6
CONTINUOUS
10
5.76093
20
-3.90684
11
5.75883
21
-3.90884
0
LINE
8
BLACK
6
CONTINUOUS
10
5.75883
20
-3.90884
11
5.75703
21
-3.91064
0
LINE
8
BLACK
6
CONTINUOUS
10
5.75703
20
-3.91064
11
5.75703
21
-3.91064
0
LINE
8
BLACK
6
CONTINUOUS
10
5.75703
20
-3.91064
11
5.75703
21
-3.91064
0
LINE
8
BLACK
6
CONTINUOUS
10
5.75703
20
-3.91064
11
5.75573
21
-3.91184
0
LINE
8
BLACK
6
CONTINUOUS
10
5.75573
20
-3.91184
11
5.75573
21
-3.91184
0
LINE
8
BLACK
6
CONTINUOUS
10
5.75573
20
-3.91184
11
5.75573
21
-3.91184
0
LINE
8
BLACK
6
CONTINUOUS
10
5.75573
20
-3.91184
11
5.75503
21
-3.91234
0
LINE
8
BLACK
6
CONTINUOUS
10
5.75503
20
-3.91234
11
5.75503
21
-3.91234
0
LINE
8
BLACK
6
CONTINUOUS
10
5.75503
20
-3.91234
11
5.75503
21
-3.91234
0
LINE
8
BLACK
6
CONTINUOUS
10
5.75503
20
-3.91234
11
5.75503
21
-3.91234
0
LINE
8
BLACK
6
CONTINUOUS
10
5.75503
20
-3.91234
11
5.75502
21
-3.91234
0
LINE
8
BLACK
6
CONTINUOUS
10
5.75502
20
-3.91234
11
5.75502
21
-3.91235
0
LINE
8
BLACK
6
CONTINUOUS
10
5.75502
20
-3.91235
11
5.75502
21
-3.91235
0
LINE
8
BLACK
6
CONTINUOUS
10
5.75502
20
-3.91235
11
5.75502
21
-3.91235
0
LINE
8
BLACK
6
CONTINUOUS
10
5.75502
20
-3.91235
11
5.75501
21
-3.91235
0
LINE
8
BLACK
6
CONTINUOUS
10
5.75501
20
-3.91235
11
5.75501
21
-3.91235
0
LINE
8
BLACK
6
CONTINUOUS
10
5.75501
20
-3.91235
11
5.75501
21
-3.91235
0
LINE
8
BLACK
6
CONTINUOUS
10
5.75501
20
-3.91235
11
5.75501
21
-3.91235
0
LINE
8
BLACK
6
CONTINUOUS
10
5.75501
20
-3.91235
11
5.755
21
-3.91235
0
LINE
8
BLACK
6
CONTINUOUS
10
5.755
20
-3.91235
11
5.755
21
-3.91235
0
LINE
8
BLACK
6
CONTINUOUS
10
5.755
20
-3.91235
11
5.755
21
-3.91235
0
LINE
8
BLACK
6
CONTINUOUS
10
5.755
20
-3.91235
11
5.755
21
-3.91235
0
LINE
8
BLACK
6
CONTINUOUS
10
5.755
20
-3.91235
11
5.7549
21
-3.91235
0
LINE
8
BLACK
6
CONTINUOUS
10
5.7549
20
-3.91235
11
5.7549
21
-3.91235
0
LINE
8
BLACK
6
CONTINUOUS
10
5.7549
20
-3.91235
11
5.7549
21
-3.91235
0
LINE
8
BLACK
6
CONTINUOUS
10
5.7549
20
-3.91235
11
5.75489
21
-3.91235
0
LINE
8
BLACK
6
CONTINUOUS
10
5.75489
20
-3.91235
11
5.75489
21
-3.91235
0
LINE
8
BLACK
6
CONTINUOUS
10
5.75489
20
-3.91235
11
5.75489
21
-3.91235
0
LINE
8
BLACK
6
CONTINUOUS
10
5.75489
20
-3.91235
11
5.75489
21
-3.91235
0
LINE
8
BLACK
6
CONTINUOUS
10
5.75489
20
-3.91235
11
5.75488
21
-3.91235
0
LINE
8
BLACK
6
CONTINUOUS
10
5.75488
20
-3.91235
11
5.75488
21
-3.91235
0
LINE
8
BLACK
6
CONTINUOUS
10
5.75488
20
-3.91235
11
5.75488
21
-3.91235
0
LINE
8
BLACK
6
CONTINUOUS
10
5.75488
20
-3.91235
11
5.75488
21
-3.91234
0
LINE
8
BLACK
6
CONTINUOUS
10
5.75488
20
-3.91234
11
5.75428
21
-3.91204
0
LINE
8
BLACK
6
CONTINUOUS
10
5.75428
20
-3.91204
11
5.75427
21
-3.91204
0
LINE
8
BLACK
6
CONTINUOUS
10
5.75427
20
-3.91204
11
5.75427
21
-3.91204
0
LINE
8
BLACK
6
CONTINUOUS
10
5.75427
20
-3.91204
11
5.75287
21
-3.91114
0
LINE
8
BLACK
6
CONTINUOUS
10
5.75287
20
-3.91114
11
5.75287
21
-3.91114
0
LINE
8
BLACK
6
CONTINUOUS
10
5.75287
20
-3.91114
11
5.75087
21
-3.90984
0
LINE
8
BLACK
6
CONTINUOUS
10
5.75087
20
-3.90984
11
5.74847
21
-3.90824
0
LINE
8
BLACK
6
CONTINUOUS
10
5.74847
20
-3.90824
11
5.74828
21
-3.90814
0
LINE
8
BLACK
6
CONTINUOUS
10
5.74828
20
-3.90814
11
5.74827
21
-3.90814
0
LINE
8
BLACK
6
CONTINUOUS
10
5.74827
20
-3.90814
11
5.74827
21
-3.90814
0
LINE
8
BLACK
6
CONTINUOUS
10
5.74827
20
-3.90814
11
5.74587
21
-3.90654
0
LINE
8
BLACK
6
CONTINUOUS
10
5.74587
20
-3.90654
11
5.74587
21
-3.90654
0
LINE
8
BLACK
6
CONTINUOUS
10
5.74587
20
-3.90654
11
5.74587
21
-3.90654
0
LINE
8
BLACK
6
CONTINUOUS
10
5.74587
20
-3.90654
11
5.74387
21
-3.90514
0
LINE
8
BLACK
6
CONTINUOUS
10
5.74387
20
-3.90514
11
5.74387
21
-3.90514
0
LINE
8
BLACK
6
CONTINUOUS
10
5.74387
20
-3.90514
11
5.74387
21
-3.90514
0
LINE
8
BLACK
6
CONTINUOUS
10
5.74387
20
-3.90514
11
5.74247
21
-3.90414
0
LINE
8
BLACK
6
CONTINUOUS
10
5.74247
20
-3.90414
11
5.74179
21
-3.90375
0
LINE
8
BLACK
6
CONTINUOUS
10
5.74179
20
-3.90375
11
5.74112
21
-3.90395
0
LINE
8
BLACK
6
CONTINUOUS
10
5.74112
20
-3.90395
11
5.73972
21
-3.90445
0
LINE
8
BLACK
6
CONTINUOUS
10
5.73972
20
-3.90445
11
5.73772
21
-3.90525
0
LINE
8
BLACK
6
CONTINUOUS
10
5.73772
20
-3.90525
11
5.73772
21
-3.90525
0
LINE
8
BLACK
6
CONTINUOUS
10
5.73772
20
-3.90525
11
5.73772
21
-3.90525
0
LINE
8
BLACK
6
CONTINUOUS
10
5.73772
20
-3.90525
11
5.73552
21
-3.90615
0
LINE
8
BLACK
6
CONTINUOUS
10
5.73552
20
-3.90615
11
5.73342
21
-3.90705
0
LINE
8
BLACK
6
CONTINUOUS
10
5.73342
20
-3.90705
11
5.73172
21
-3.90784
0
LINE
8
BLACK
6
CONTINUOUS
10
5.73172
20
-3.90784
11
5.73062
21
-3.90844
0
LINE
8
BLACK
6
CONTINUOUS
10
5.73062
20
-3.90844
11
5.73062
21
-3.90844
0
LINE
8
BLACK
6
CONTINUOUS
10
5.73062
20
-3.90844
11
5.73062
21
-3.90844
0
LINE
8
BLACK
6
CONTINUOUS
10
5.73062
20
-3.90844
11
5.73062
21
-3.90844
0
LINE
8
BLACK
6
CONTINUOUS
10
5.73062
20
-3.90844
11
5.73044
21
-3.90854
0
LINE
8
BLACK
6
CONTINUOUS
10
5.73044
20
-3.90854
11
5.73015
21
-3.90921
0
LINE
8
BLACK
6
CONTINUOUS
10
5.73015
20
-3.90921
11
5.72985
21
-3.91091
0
LINE
8
BLACK
6
CONTINUOUS
10
5.72985
20
-3.91091
11
5.72985
21
-3.91091
0
LINE
8
BLACK
6
CONTINUOUS
10
5.72985
20
-3.91091
11
5.72985
21
-3.91091
0
LINE
8
BLACK
6
CONTINUOUS
10
5.72985
20
-3.91091
11
5.72935
21
-3.91321
0
LINE
8
BLACK
6
CONTINUOUS
10
5.72935
20
-3.91321
11
5.72935
21
-3.91321
0
LINE
8
BLACK
6
CONTINUOUS
10
5.72935
20
-3.91321
11
5.72875
21
-3.91601
0
LINE
8
BLACK
6
CONTINUOUS
10
5.72875
20
-3.91601
11
5.72875
21
-3.9162
0
LINE
8
BLACK
6
CONTINUOUS
10
5.72875
20
-3.9162
11
5.72875
21
-3.9162
0
LINE
8
BLACK
6
CONTINUOUS
10
5.72875
20
-3.9162
11
5.72875
21
-3.91621
0
LINE
8
BLACK
6
CONTINUOUS
10
5.72875
20
-3.91621
11
5.72825
21
-3.91901
0
LINE
8
BLACK
6
CONTINUOUS
10
5.72825
20
-3.91901
11
5.72825
21
-3.91901
0
LINE
8
BLACK
6
CONTINUOUS
10
5.72825
20
-3.91901
11
5.72825
21
-3.91901
0
LINE
8
BLACK
6
CONTINUOUS
10
5.72825
20
-3.91901
11
5.72825
21
-3.91901
0
LINE
8
BLACK
6
CONTINUOUS
10
5.72825
20
-3.91901
11
5.72775
21
-3.92131
0
LINE
8
BLACK
6
CONTINUOUS
10
5.72775
20
-3.92131
11
5.72745
21
-3.92301
0
LINE
8
BLACK
6
CONTINUOUS
10
5.72745
20
-3.92301
11
5.72745
21
-3.92301
0
LINE
8
BLACK
6
CONTINUOUS
10
5.72745
20
-3.92301
11
5.72745
21
-3.92301
0
LINE
8
BLACK
6
CONTINUOUS
10
5.72745
20
-3.92301
11
5.72725
21
-3.92371
0
LINE
8
BLACK
6
CONTINUOUS
10
5.72725
20
-3.92371
11
5.72725
21
-3.92371
0
LINE
8
BLACK
6
CONTINUOUS
10
5.72725
20
-3.92371
11
5.72725
21
-3.92372
0
LINE
8
BLACK
6
CONTINUOUS
10
5.72725
20
-3.92372
11
5.72724
21
-3.92372
0
LINE
8
BLACK
6
CONTINUOUS
10
5.72724
20
-3.92372
11
5.72724
21
-3.92372
0
LINE
8
BLACK
6
CONTINUOUS
10
5.72724
20
-3.92372
11
5.72724
21
-3.92372
0
LINE
8
BLACK
6
CONTINUOUS
10
5.72724
20
-3.92372
11
5.72724
21
-3.92373
0
LINE
8
BLACK
6
CONTINUOUS
10
5.72724
20
-3.92373
11
5.72724
21
-3.92373
0
LINE
8
BLACK
6
CONTINUOUS
10
5.72724
20
-3.92373
11
5.72724
21
-3.92373
0
LINE
8
BLACK
6
CONTINUOUS
10
5.72724
20
-3.92373
11
5.72724
21
-3.92373
0
LINE
8
BLACK
6
CONTINUOUS
10
5.72724
20
-3.92373
11
5.72724
21
-3.92373
0
LINE
8
BLACK
6
CONTINUOUS
10
5.72724
20
-3.92373
11
5.72723
21
-3.92374
0
LINE
8
BLACK
6
CONTINUOUS
10
5.72723
20
-3.92374
11
5.72723
21
-3.92374
0
LINE
8
BLACK
6
CONTINUOUS
10
5.72723
20
-3.92374
11
5.72723
21
-3.92374
0
LINE
8
BLACK
6
CONTINUOUS
10
5.72723
20
-3.92374
11
5.72723
21
-3.92374
0
LINE
8
BLACK
6
CONTINUOUS
10
5.72723
20
-3.92374
11
5.72723
21
-3.92374
0
LINE
8
BLACK
6
CONTINUOUS
10
5.72723
20
-3.92374
11
5.72722
21
-3.92374
0
LINE
8
BLACK
6
CONTINUOUS
10
5.72722
20
-3.92374
11
5.72722
21
-3.92374
0
LINE
8
BLACK
6
CONTINUOUS
10
5.72722
20
-3.92374
11
5.72722
21
-3.92375
0
LINE
8
BLACK
6
CONTINUOUS
10
5.72722
20
-3.92375
11
5.72722
21
-3.92375
0
LINE
8
BLACK
6
CONTINUOUS
10
5.72722
20
-3.92375
11
5.72722
21
-3.92375
0
LINE
8
BLACK
6
CONTINUOUS
10
5.72722
20
-3.92375
11
5.72721
21
-3.92375
0
LINE
8
BLACK
6
CONTINUOUS
10
5.72721
20
-3.92375
11
5.72721
21
-3.92375
0
LINE
8
BLACK
6
CONTINUOUS
10
5.72721
20
-3.92375
11
5.72721
21
-3.92375
0
LINE
8
BLACK
6
CONTINUOUS
10
5.72721
20
-3.92375
11
5.72651
21
-3.92385
0
LINE
8
BLACK
6
CONTINUOUS
10
5.72651
20
-3.92385
11
5.72651
21
-3.92385
0
LINE
8
BLACK
6
CONTINUOUS
10
5.72651
20
-3.92385
11
5.7265
21
-3.92385
0
LINE
8
BLACK
6
CONTINUOUS
10
5.7265
20
-3.92385
11
5.7265
21
-3.92385
0
LINE
8
BLACK
6
CONTINUOUS
10
5.7265
20
-3.92385
11
5.725
21
-3.92395
0
LINE
8
BLACK
6
CONTINUOUS
10
5.725
20
-3.92395
11
5.725
21
-3.92395
0
LINE
8
BLACK
6
CONTINUOUS
10
5.725
20
-3.92395
11
5.725
21
-3.92395
0
LINE
8
BLACK
6
CONTINUOUS
10
5.725
20
-3.92395
11
5.725
21
-3.92395
0
LINE
8
BLACK
6
CONTINUOUS
10
5.725
20
-3.92395
11
5.7225
21
-3.92405
0
LINE
8
BLACK
6
CONTINUOUS
10
5.7225
20
-3.92405
11
5.7225
21
-3.92405
0
LINE
8
BLACK
6
CONTINUOUS
10
5.7225
20
-3.92405
11
5.7225
21
-3.92405
0
LINE
8
BLACK
6
CONTINUOUS
10
5.7225
20
-3.92405
11
5.7225
21
-3.92405
0
LINE
8
BLACK
6
CONTINUOUS
10
5.7225
20
-3.92405
11
5.7136
21
-3.92405
0
LINE
8
BLACK
6
CONTINUOUS
10
5.7136
20
-3.92405
11
5.7136
21
-3.92405
0
LINE
8
BLACK
6
CONTINUOUS
10
5.7136
20
-3.92405
11
5.7136
21
-3.92405
0
LINE
8
BLACK
6
CONTINUOUS
10
5.7136
20
-3.92405
11
5.7121
21
-3.92395
0
LINE
8
BLACK
6
CONTINUOUS
10
5.7121
20
-3.92395
11
5.7121
21
-3.92395
0
LINE
8
BLACK
6
CONTINUOUS
10
5.7121
20
-3.92395
11
5.71209
21
-3.92395
0
LINE
8
BLACK
6
CONTINUOUS
10
5.71209
20
-3.92395
11
5.71209
21
-3.92395
0
LINE
8
BLACK
6
CONTINUOUS
10
5.71209
20
-3.92395
11
5.71129
21
-3.92385
0
LINE
8
BLACK
6
CONTINUOUS
10
5.71129
20
-3.92385
11
5.71129
21
-3.92385
0
LINE
8
BLACK
6
CONTINUOUS
10
5.71129
20
-3.92385
11
5.71129
21
-3.92385
0
LINE
8
BLACK
6
CONTINUOUS
10
5.71129
20
-3.92385
11
5.71129
21
-3.92385
0
LINE
8
BLACK
6
CONTINUOUS
10
5.71129
20
-3.92385
11
5.71128
21
-3.92385
0
LINE
8
BLACK
6
CONTINUOUS
10
5.71128
20
-3.92385
11
5.71098
21
-3.92375
0
LINE
8
BLACK
6
CONTINUOUS
10
5.71098
20
-3.92375
11
5.71098
21
-3.92375
0
LINE
8
BLACK
6
CONTINUOUS
10
5.71098
20
-3.92375
11
5.71098
21
-3.92375
0
LINE
8
BLACK
6
CONTINUOUS
10
5.71098
20
-3.92375
11
5.71098
21
-3.92375
0
LINE
8
BLACK
6
CONTINUOUS
10
5.71098
20
-3.92375
11
5.71098
21
-3.92374
0
LINE
8
BLACK
6
CONTINUOUS
10
5.71098
20
-3.92374
11
5.71097
21
-3.92374
0
LINE
8
BLACK
6
CONTINUOUS
10
5.71097
20
-3.92374
11
5.71097
21
-3.92374
0
LINE
8
BLACK
6
CONTINUOUS
10
5.71097
20
-3.92374
11
5.71097
21
-3.92374
0
LINE
8
BLACK
6
CONTINUOUS
10
5.71097
20
-3.92374
11
5.71097
21
-3.92374
0
LINE
8
BLACK
6
CONTINUOUS
10
5.71097
20
-3.92374
11
5.71097
21
-3.92374
0
LINE
8
BLACK
6
CONTINUOUS
10
5.71097
20
-3.92374
11
5.71097
21
-3.92374
0
LINE
8
BLACK
6
CONTINUOUS
10
5.71097
20
-3.92374
11
5.71096
21
-3.92374
0
LINE
8
BLACK
6
CONTINUOUS
10
5.71096
20
-3.92374
11
5.71076
21
-3.92353
0
LINE
8
BLACK
6
CONTINUOUS
10
5.71076
20
-3.92353
11
5.71076
21
-3.92353
0
LINE
8
BLACK
6
CONTINUOUS
10
5.71076
20
-3.92353
11
5.71076
21
-3.92353
0
LINE
8
BLACK
6
CONTINUOUS
10
5.71076
20
-3.92353
11
5.71076
21
-3.92353
0
LINE
8
BLACK
6
CONTINUOUS
10
5.71076
20
-3.92353
11
5.71076
21
-3.92353
0
LINE
8
BLACK
6
CONTINUOUS
10
5.71076
20
-3.92353
11
5.71076
21
-3.92353
0
LINE
8
BLACK
6
CONTINUOUS
10
5.71076
20
-3.92353
11
5.71076
21
-3.92352
0
LINE
8
BLACK
6
CONTINUOUS
10
5.71076
20
-3.92352
11
5.71076
21
-3.92352
0
LINE
8
BLACK
6
CONTINUOUS
10
5.71076
20
-3.92352
11
5.71075
21
-3.92352
0
LINE
8
BLACK
6
CONTINUOUS
10
5.71075
20
-3.92352
11
5.71075
21
-3.92352
0
LINE
8
BLACK
6
CONTINUOUS
10
5.71075
20
-3.92352
11
5.71075
21
-3.92352
0
LINE
8
BLACK
6
CONTINUOUS
10
5.71075
20
-3.92352
11
5.71075
21
-3.92351
0
LINE
8
BLACK
6
CONTINUOUS
10
5.71075
20
-3.92351
11
5.71075
21
-3.92351
0
LINE
8
BLACK
6
CONTINUOUS
10
5.71075
20
-3.92351
11
5.71075
21
-3.92351
0
LINE
8
BLACK
6
CONTINUOUS
10
5.71075
20
-3.92351
11
5.71075
21
-3.92351
0
LINE
8
BLACK
6
CONTINUOUS
10
5.71075
20
-3.92351
11
5.71065
21
-3.92271
0
LINE
8
BLACK
6
CONTINUOUS
10
5.71065
20
-3.92271
11
5.71035
21
-3.92101
0
LINE
8
BLACK
6
CONTINUOUS
10
5.71035
20
-3.92101
11
5.70985
21
-3.91871
0
LINE
8
BLACK
6
CONTINUOUS
10
5.70985
20
-3.91871
11
5.70985
21
-3.91871
0
LINE
8
BLACK
6
CONTINUOUS
10
5.70985
20
-3.91871
11
5.70985
21
-3.91871
0
LINE
8
BLACK
6
CONTINUOUS
10
5.70985
20
-3.91871
11
5.70985
21
-3.91871
0
LINE
8
BLACK
6
CONTINUOUS
10
5.70985
20
-3.91871
11
5.70935
21
-3.91611
0
LINE
8
BLACK
6
CONTINUOUS
10
5.70935
20
-3.91611
11
5.70935
21
-3.91611
0
LINE
8
BLACK
6
CONTINUOUS
10
5.70935
20
-3.91611
11
5.70935
21
-3.91611
0
LINE
8
BLACK
6
CONTINUOUS
10
5.70935
20
-3.91611
11
5.70885
21
-3.91331
0
LINE
8
BLACK
6
CONTINUOUS
10
5.70885
20
-3.91331
11
5.70885
21
-3.91331
0
LINE
8
BLACK
6
CONTINUOUS
10
5.70885
20
-3.91331
11
5.70845
21
-3.91101
0
LINE
8
BLACK
6
CONTINUOUS
10
5.70845
20
-3.91101
11
5.70805
21
-3.90951
0
LINE
8
BLACK
6
CONTINUOUS
10
5.70805
20
-3.90951
11
5.70805
21
-3.90951
0
LINE
8
BLACK
6
CONTINUOUS
10
5.70805
20
-3.90951
11
5.70805
21
-3.90951
0
LINE
8
BLACK
6
CONTINUOUS
10
5.70805
20
-3.90951
11
5.70786
21
-3.90884
0
LINE
8
BLACK
6
CONTINUOUS
10
5.70786
20
-3.90884
11
5.70718
21
-3.90855
0
LINE
8
BLACK
6
CONTINUOUS
10
5.70718
20
-3.90855
11
5.70718
21
-3.90855
0
LINE
8
BLACK
6
CONTINUOUS
10
5.70718
20
-3.90855
11
5.70718
21
-3.90855
0
LINE
8
BLACK
6
CONTINUOUS
10
5.70718
20
-3.90855
11
5.70718
21
-3.90855
0
LINE
8
BLACK
6
CONTINUOUS
10
5.70718
20
-3.90855
11
5.70568
21
-3.90785
0
LINE
8
BLACK
6
CONTINUOUS
10
5.70568
20
-3.90785
11
5.70348
21
-3.90695
0
LINE
8
BLACK
6
CONTINUOUS
10
5.70348
20
-3.90695
11
5.70348
21
-3.90695
0
LINE
8
BLACK
6
CONTINUOUS
10
5.70348
20
-3.90695
11
5.70168
21
-3.90625
0
LINE
8
BLACK
6
CONTINUOUS
10
5.70168
20
-3.90625
11
5.70168
21
-3.90625
0
LINE
8
BLACK
6
CONTINUOUS
10
5.70168
20
-3.90625
11
5.69601
21
-3.90396
0
LINE
8
BLACK
6
CONTINUOUS
10
5.69601
20
-3.90396
11
5.68993
21
-3.90814
0
LINE
8
BLACK
6
CONTINUOUS
10
5.68993
20
-3.90814
11
5.68993
21
-3.90814
0
LINE
8
BLACK
6
CONTINUOUS
10
5.68993
20
-3.90814
11
5.68993
21
-3.90814
0
LINE
8
BLACK
6
CONTINUOUS
10
5.68993
20
-3.90814
11
5.68753
21
-3.90974
0
LINE
8
BLACK
6
CONTINUOUS
10
5.68753
20
-3.90974
11
5.68753
21
-3.90974
0
LINE
8
BLACK
6
CONTINUOUS
10
5.68753
20
-3.90974
11
5.68553
21
-3.91104
0
LINE
8
BLACK
6
CONTINUOUS
10
5.68553
20
-3.91104
11
5.68553
21
-3.91104
0
LINE
8
BLACK
6
CONTINUOUS
10
5.68553
20
-3.91104
11
5.68553
21
-3.91104
0
LINE
8
BLACK
6
CONTINUOUS
10
5.68553
20
-3.91104
11
5.68553
21
-3.91104
0
LINE
8
BLACK
6
CONTINUOUS
10
5.68553
20
-3.91104
11
5.68403
21
-3.91194
0
LINE
8
BLACK
6
CONTINUOUS
10
5.68403
20
-3.91194
11
5.68403
21
-3.91194
0
LINE
8
BLACK
6
CONTINUOUS
10
5.68403
20
-3.91194
11
5.68403
21
-3.91194
0
LINE
8
BLACK
6
CONTINUOUS
10
5.68403
20
-3.91194
11
5.68402
21
-3.91194
0
LINE
8
BLACK
6
CONTINUOUS
10
5.68402
20
-3.91194
11
5.68332
21
-3.91234
0
LINE
8
BLACK
6
CONTINUOUS
10
5.68332
20
-3.91234
11
5.68332
21
-3.91234
0
LINE
8
BLACK
6
CONTINUOUS
10
5.68332
20
-3.91234
11
5.68332
21
-3.91234
0
LINE
8
BLACK
6
CONTINUOUS
10
5.68332
20
-3.91234
11
5.68332
21
-3.91234
0
LINE
8
BLACK
6
CONTINUOUS
10
5.68332
20
-3.91234
11
5.68332
21
-3.91235
0
LINE
8
BLACK
6
CONTINUOUS
10
5.68332
20
-3.91235
11
5.68332
21
-3.91235
0
LINE
8
BLACK
6
CONTINUOUS
10
5.68332
20
-3.91235
11
5.68332
21
-3.91235
0
LINE
8
BLACK
6
CONTINUOUS
10
5.68332
20
-3.91235
11
5.68331
21
-3.91235
0
LINE
8
BLACK
6
CONTINUOUS
10
5.68331
20
-3.91235
11
5.68331
21
-3.91235
0
LINE
8
BLACK
6
CONTINUOUS
10
5.68331
20
-3.91235
11
5.6833
21
-3.91235
0
LINE
8
BLACK
6
CONTINUOUS
10
5.6833
20
-3.91235
11
5.6833
21
-3.91235
0
LINE
8
BLACK
6
CONTINUOUS
10
5.6833
20
-3.91235
11
5.6833
21
-3.91235
0
LINE
8
BLACK
6
CONTINUOUS
10
5.6833
20
-3.91235
11
5.6833
21
-3.91235
0
LINE
8
BLACK
6
CONTINUOUS
10
5.6833
20
-3.91235
11
5.68329
21
-3.91235
0
LINE
8
BLACK
6
CONTINUOUS
10
5.68329
20
-3.91235
11
5.68329
21
-3.91235
0
LINE
8
BLACK
6
CONTINUOUS
10
5.68329
20
-3.91235
11
5.68329
21
-3.91235
0
LINE
8
BLACK
6
CONTINUOUS
10
5.68329
20
-3.91235
11
5.68329
21
-3.91235
0
LINE
8
BLACK
6
CONTINUOUS
10
5.68329
20
-3.91235
11
5.68328
21
-3.91235
0
LINE
8
BLACK
6
CONTINUOUS
10
5.68328
20
-3.91235
11
5.68328
21
-3.91234
0
LINE
8
BLACK
6
CONTINUOUS
10
5.68328
20
-3.91234
11
5.68328
21
-3.91234
0
LINE
8
BLACK
6
CONTINUOUS
10
5.68328
20
-3.91234
11
5.68328
21
-3.91234
0
LINE
8
BLACK
6
CONTINUOUS
10
5.68328
20
-3.91234
11
5.68328
21
-3.91234
0
LINE
8
BLACK
6
CONTINUOUS
10
5.68328
20
-3.91234
11
5.68327
21
-3.91234
0
LINE
8
BLACK
6
CONTINUOUS
10
5.68327
20
-3.91234
11
5.68327
21
-3.91234
0
LINE
8
BLACK
6
CONTINUOUS
10
5.68327
20
-3.91234
11
5.68277
21
-3.91194
0
LINE
8
BLACK
6
CONTINUOUS
10
5.68277
20
-3.91194
11
5.68277
21
-3.91194
0
LINE
8
BLACK
6
CONTINUOUS
10
5.68277
20
-3.91194
11
5.68277
21
-3.91194
0
LINE
8
BLACK
6
CONTINUOUS
10
5.68277
20
-3.91194
11
5.68277
21
-3.91194
0
LINE
8
BLACK
6
CONTINUOUS
10
5.68277
20
-3.91194
11
5.68157
21
-3.91084
0
LINE
8
BLACK
6
CONTINUOUS
10
5.68157
20
-3.91084
11
5.67977
21
-3.90924
0
LINE
8
BLACK
6
CONTINUOUS
10
5.67977
20
-3.90924
11
5.67977
21
-3.90924
0
LINE
8
BLACK
6
CONTINUOUS
10
5.67977
20
-3.90924
11
5.67977
21
-3.90924
0
LINE
8
BLACK
6
CONTINUOUS
10
5.67977
20
-3.90924
11
5.67976
21
-3.90924
0
LINE
8
BLACK
6
CONTINUOUS
10
5.67976
20
-3.90924
11
5.67736
21
-3.90683
0
LINE
8
BLACK
6
CONTINUOUS
10
5.67736
20
-3.90683
11
5.67496
21
-3.90433
0
LINE
8
BLACK
6
CONTINUOUS
10
5.67496
20
-3.90433
11
5.67496
21
-3.90433
0
LINE
8
BLACK
6
CONTINUOUS
10
5.67496
20
-3.90433
11
5.67496
21
-3.90433
0
LINE
8
BLACK
6
CONTINUOUS
10
5.67496
20
-3.90433
11
5.67336
21
-3.90263
0
LINE
8
BLACK
6
CONTINUOUS
10
5.67336
20
-3.90263
11
5.67336
21
-3.90263
0
LINE
8
BLACK
6
CONTINUOUS
10
5.67336
20
-3.90263
11
5.67336
21
-3.90263
0
LINE
8
BLACK
6
CONTINUOUS
10
5.67336
20
-3.90263
11
5.67236
21
-3.90153
0
LINE
8
BLACK
6
CONTINUOUS
10
5.67236
20
-3.90153
11
5.67236
21
-3.90153
0
LINE
8
BLACK
6
CONTINUOUS
10
5.67236
20
-3.90153
11
5.67236
21
-3.90153
0
LINE
8
BLACK
6
CONTINUOUS
10
5.67236
20
-3.90153
11
5.67236
21
-3.90153
0
LINE
8
BLACK
6
CONTINUOUS
10
5.67236
20
-3.90153
11
5.67236
21
-3.90153
0
LINE
8
BLACK
6
CONTINUOUS
10
5.67236
20
-3.90153
11
5.67236
21
-3.90153
0
LINE
8
BLACK
6
CONTINUOUS
10
5.67236
20
-3.90153
11
5.67236
21
-3.90152
0
LINE
8
BLACK
6
CONTINUOUS
10
5.67236
20
-3.90152
11
5.67235
21
-3.90152
0
LINE
8
BLACK
6
CONTINUOUS
10
5.67235
20
-3.90152
11
5.67205
21
-3.90082
0
LINE
8
BLACK
6
CONTINUOUS
10
5.67205
20
-3.90082
11
5.67205
21
-3.90082
0
LINE
8
BLACK
6
CONTINUOUS
10
5.67205
20
-3.90082
11
5.67205
21
-3.90081
0
LINE
8
BLACK
6
CONTINUOUS
10
5.67205
20
-3.90081
11
5.67205
21
-3.9008
0
LINE
8
BLACK
6
CONTINUOUS
10
5.67205
20
-3.9008
11
5.67205
21
-3.9007
0
LINE
8
BLACK
6
CONTINUOUS
10
5.67205
20
-3.9007
11
5.67205
21
-3.90069
0
LINE
8
BLACK
6
CONTINUOUS
10
5.67205
20
-3.90069
11
5.67205
21
-3.90069
0
LINE
8
BLACK
6
CONTINUOUS
10
5.67205
20
-3.90069
11
5.67205
21
-3.90068
0
LINE
8
BLACK
6
CONTINUOUS
10
5.67205
20
-3.90068
11
5.67235
21
-3.89998
0
LINE
8
BLACK
6
CONTINUOUS
10
5.67235
20
-3.89998
11
5.67235
21
-3.89998
0
LINE
8
BLACK
6
CONTINUOUS
10
5.67235
20
-3.89998
11
5.67236
21
-3.89997
0
LINE
8
BLACK
6
CONTINUOUS
10
5.67236
20
-3.89997
11
5.67236
21
-3.89997
0
LINE
8
BLACK
6
CONTINUOUS
10
5.67236
20
-3.89997
11
5.67336
21
-3.89857
0
LINE
8
BLACK
6
CONTINUOUS
10
5.67336
20
-3.89857
11
5.67466
21
-3.89657
0
LINE
8
BLACK
6
CONTINUOUS
10
5.67466
20
-3.89657
11
5.67466
21
-3.89657
0
LINE
8
BLACK
6
CONTINUOUS
10
5.67466
20
-3.89657
11
5.67466
21
-3.89657
0
LINE
8
BLACK
6
CONTINUOUS
10
5.67466
20
-3.89657
11
5.67466
21
-3.89657
0
LINE
8
BLACK
6
CONTINUOUS
10
5.67466
20
-3.89657
11
5.67616
21
-3.89437
0
LINE
8
BLACK
6
CONTINUOUS
10
5.67616
20
-3.89437
11
5.67766
21
-3.89207
0
LINE
8
BLACK
6
CONTINUOUS
10
5.67766
20
-3.89207
11
5.67766
21
-3.89207
0
LINE
8
BLACK
6
CONTINUOUS
10
5.67766
20
-3.89207
11
5.67766
21
-3.89207
0
LINE
8
BLACK
6
CONTINUOUS
10
5.67766
20
-3.89207
11
5.67766
21
-3.89207
0
LINE
8
BLACK
6
CONTINUOUS
10
5.67766
20
-3.89207
11
5.67896
21
-3.89027
0
LINE
8
BLACK
6
CONTINUOUS
10
5.67896
20
-3.89027
11
5.67976
21
-3.88898
0
LINE
8
BLACK
6
CONTINUOUS
10
5.67976
20
-3.88898
11
5.68004
21
-3.8884
0
LINE
8
BLACK
6
CONTINUOUS
10
5.68004
20
-3.8884
11
5.67975
21
-3.88782
0
LINE
8
BLACK
6
CONTINUOUS
10
5.67975
20
-3.88782
11
5.67975
21
-3.88782
0
LINE
8
BLACK
6
CONTINUOUS
10
5.67975
20
-3.88782
11
5.67975
21
-3.88782
0
LINE
8
BLACK
6
CONTINUOUS
10
5.67975
20
-3.88782
11
5.67916
21
-3.88652
0
LINE
8
BLACK
6
CONTINUOUS
10
5.67916
20
-3.88652
11
5.67765
21
-3.88352
0
LINE
8
BLACK
6
CONTINUOUS
10
5.67765
20
-3.88352
11
5.67765
21
-3.88352
0
LINE
8
BLACK
6
CONTINUOUS
10
5.67765
20
-3.88352
11
5.67765
21
-3.88352
0
LINE
8
BLACK
6
CONTINUOUS
10
5.67765
20
-3.88352
11
5.67735
21
-3.88262
0
LINE
8
BLACK
6
CONTINUOUS
10
5.67735
20
-3.88262
11
5.67735
21
-3.88262
0
LINE
8
BLACK
6
CONTINUOUS
10
5.67735
20
-3.88262
11
5.67735
21
-3.88261
0
LINE
8
BLACK
6
CONTINUOUS
10
5.67735
20
-3.88261
11
5.67735
21
-3.88261
0
LINE
8
BLACK
6
CONTINUOUS
10
5.67735
20
-3.88261
11
5.67735
21
-3.88261
0
LINE
8
BLACK
6
CONTINUOUS
10
5.67735
20
-3.88261
11
5.67735
21
-3.88261
0
LINE
8
BLACK
6
CONTINUOUS
10
5.67735
20
-3.88261
11
5.67735
21
-3.8826
0
LINE
8
BLACK
6
CONTINUOUS
10
5.67735
20
-3.8826
11
5.67735
21
-3.8826
0
LINE
8
BLACK
6
CONTINUOUS
10
5.67735
20
-3.8826
11
5.67735
21
-3.8826
0
LINE
8
BLACK
6
CONTINUOUS
10
5.67735
20
-3.8826
11
5.67735
21
-3.8826
0
LINE
8
BLACK
6
CONTINUOUS
10
5.67735
20
-3.8826
11
5.67735
21
-3.88259
0
LINE
8
BLACK
6
CONTINUOUS
10
5.67735
20
-3.88259
11
5.67735
21
-3.88259
0
LINE
8
BLACK
6
CONTINUOUS
10
5.67735
20
-3.88259
11
5.67745
21
-3.88209
0
LINE
8
BLACK
6
CONTINUOUS
10
5.67745
20
-3.88209
11
5.67745
21
-3.88209
0
LINE
8
BLACK
6
CONTINUOUS
10
5.67745
20
-3.88209
11
5.67745
21
-3.88209
0
LINE
8
BLACK
6
CONTINUOUS
10
5.67745
20
-3.88209
11
5.67745
21
-3.88208
0
LINE
8
BLACK
6
CONTINUOUS
10
5.67745
20
-3.88208
11
5.67745
21
-3.88208
0
LINE
8
BLACK
6
CONTINUOUS
10
5.67745
20
-3.88208
11
5.67745
21
-3.88208
0
LINE
8
BLACK
6
CONTINUOUS
10
5.67745
20
-3.88208
11
5.67746
21
-3.88208
0
LINE
8
BLACK
6
CONTINUOUS
10
5.67746
20
-3.88208
11
5.67746
21
-3.88208
0
LINE
8
BLACK
6
CONTINUOUS
10
5.67746
20
-3.88208
11
5.67746
21
-3.88207
0
LINE
8
BLACK
6
CONTINUOUS
10
5.67746
20
-3.88207
11
5.67746
21
-3.88207
0
LINE
8
BLACK
6
CONTINUOUS
10
5.67746
20
-3.88207
11
5.67746
21
-3.88207
0
LINE
8
BLACK
6
CONTINUOUS
10
5.67746
20
-3.88207
11
5.67746
21
-3.88207
0
LINE
8
BLACK
6
CONTINUOUS
10
5.67746
20
-3.88207
11
5.67746
21
-3.88207
0
LINE
8
BLACK
6
CONTINUOUS
10
5.67746
20
-3.88207
11
5.67747
21
-3.88206
0
LINE
8
BLACK
6
CONTINUOUS
10
5.67747
20
-3.88206
11
5.67747
21
-3.88206
0
LINE
8
BLACK
6
CONTINUOUS
10
5.67747
20
-3.88206
11
5.67747
21
-3.88206
0
LINE
8
BLACK
6
CONTINUOUS
10
5.67747
20
-3.88206
11
5.67747
21
-3.88206
0
LINE
8
BLACK
6
CONTINUOUS
10
5.67747
20
-3.88206
11
5.67747
21
-3.88206
0
LINE
8
BLACK
6
CONTINUOUS
10
5.67747
20
-3.88206
11
5.67748
21
-3.88206
0
LINE
8
BLACK
6
CONTINUOUS
10
5.67748
20
-3.88206
11
5.67748
21
-3.88206
0
LINE
8
BLACK
6
CONTINUOUS
10
5.67748
20
-3.88206
11
5.67808
21
-3.88175
0
LINE
8
BLACK
6
CONTINUOUS
10
5.67808
20
-3.88175
11
5.67808
21
-3.88175
0
LINE
8
BLACK
6
CONTINUOUS
10
5.67808
20
-3.88175
11
5.67808
21
-3.88175
0
LINE
8
BLACK
6
CONTINUOUS
10
5.67808
20
-3.88175
11
5.67968
21
-3.88105
0
LINE
8
BLACK
6
CONTINUOUS
10
5.67968
20
-3.88105
11
5.67968
21
-3.88105
0
LINE
8
BLACK
6
CONTINUOUS
10
5.67968
20
-3.88105
11
5.68208
21
-3.87995
0
LINE
8
BLACK
6
CONTINUOUS
10
5.68208
20
-3.87995
11
5.68208
21
-3.87995
0
LINE
8
BLACK
6
CONTINUOUS
10
5.68208
20
-3.87995
11
5.68208
21
-3.87995
0
LINE
8
BLACK
6
CONTINUOUS
10
5.68208
20
-3.87995
11
5.68208
21
-3.87995
0
LINE
8
BLACK
6
CONTINUOUS
10
5.68208
20
-3.87995
11
5.68508
21
-3.87875
0
LINE
8
BLACK
6
CONTINUOUS
10
5.68508
20
-3.87875
11
5.68858
21
-3.87725
0
LINE
8
BLACK
6
CONTINUOUS
10
5.68858
20
-3.87725
11
5.68858
21
-3.87725
0
LINE
8
BLACK
6
CONTINUOUS
10
5.68858
20
-3.87725
11
5.68858
21
-3.87725
0
LINE
8
BLACK
6
CONTINUOUS
10
5.68858
20
-3.87725
11
5.68858
21
-3.87725
0
LINE
8
BLACK
6
CONTINUOUS
10
5.68858
20
-3.87725
11
5.69058
21
-3.87645
0
LINE
8
BLACK
6
CONTINUOUS
10
5.69058
20
-3.87645
11
5.69058
21
-3.87645
0
LINE
8
BLACK
6
CONTINUOUS
10
5.69058
20
-3.87645
11
5.69058
21
-3.87645
0
LINE
8
BLACK
6
CONTINUOUS
10
5.69058
20
-3.87645
11
5.70328
21
-3.87115
0
LINE
8
BLACK
6
CONTINUOUS
10
5.70328
20
-3.87115
11
5.70328
21
-3.87115
0
LINE
8
BLACK
6
CONTINUOUS
10
5.70328
20
-3.87115
11
5.70328
21
-3.87115
0
LINE
8
BLACK
6
CONTINUOUS
10
5.70328
20
-3.87115
11
5.70328
21
-3.87115
0
LINE
8
BLACK
6
CONTINUOUS
10
5.70328
20
-3.87115
11
5.70329
21
-3.87115
0
LINE
8
BLACK
6
CONTINUOUS
10
5.70329
20
-3.87115
11
5.70329
21
-3.87115
0
LINE
8
BLACK
6
CONTINUOUS
10
5.70329
20
-3.87115
11
5.70329
21
-3.87115
0
LINE
8
BLACK
6
CONTINUOUS
10
5.70329
20
-3.87115
11
5.70329
21
-3.87115
0
LINE
8
BLACK
6
CONTINUOUS
10
5.70329
20
-3.87115
11
5.7033
21
-3.87115
0
LINE
8
BLACK
6
CONTINUOUS
10
5.7033
20
-3.87115
11
5.7033
21
-3.87115
0
LINE
8
BLACK
6
CONTINUOUS
10
5.7033
20
-3.87115
11
5.7033
21
-3.87115
0
LINE
8
BLACK
6
CONTINUOUS
10
5.7033
20
-3.87115
11
5.7033
21
-3.87115
0
LINE
8
BLACK
6
CONTINUOUS
10
5.7033
20
-3.87115
11
5.70331
21
-3.87115
0
LINE
8
BLACK
6
CONTINUOUS
10
5.70331
20
-3.87115
11
5.70331
21
-3.87115
0
LINE
8
BLACK
6
CONTINUOUS
10
5.70331
20
-3.87115
11
5.70331
21
-3.87115
0
LINE
8
BLACK
6
CONTINUOUS
10
5.70331
20
-3.87115
11
5.70331
21
-3.87115
0
LINE
8
BLACK
6
CONTINUOUS
10
5.70331
20
-3.87115
11
5.70332
21
-3.87115
0
LINE
8
BLACK
6
CONTINUOUS
10
5.70332
20
-3.87115
11
5.70332
21
-3.87115
0
LINE
8
BLACK
6
CONTINUOUS
10
5.70332
20
-3.87115
11
5.70332
21
-3.87115
0
LINE
8
BLACK
6
CONTINUOUS
10
5.70332
20
-3.87115
11
5.70332
21
-3.87116
0
LINE
8
BLACK
6
CONTINUOUS
10
5.70332
20
-3.87116
11
5.70333
21
-3.87116
0
LINE
8
BLACK
6
CONTINUOUS
10
5.70333
20
-3.87116
11
5.70333
21
-3.87116
0
LINE
8
BLACK
6
CONTINUOUS
10
5.70333
20
-3.87116
11
5.70333
21
-3.87116
0
LINE
8
BLACK
6
CONTINUOUS
10
5.70333
20
-3.87116
11
5.70333
21
-3.87116
0
LINE
8
BLACK
6
CONTINUOUS
10
5.70333
20
-3.87116
11
5.70333
21
-3.87116
0
LINE
8
BLACK
6
CONTINUOUS
10
5.70333
20
-3.87116
11
5.70334
21
-3.87116
0
LINE
8
BLACK
6
CONTINUOUS
10
5.70334
20
-3.87116
11
5.70334
21
-3.87117
0
LINE
8
BLACK
6
CONTINUOUS
10
5.70334
20
-3.87117
11
5.70334
21
-3.87117
0
LINE
8
BLACK
6
CONTINUOUS
10
5.70334
20
-3.87117
11
5.70394
21
-3.87187
0
LINE
8
BLACK
6
CONTINUOUS
10
5.70394
20
-3.87187
11
5.70394
21
-3.87187
0
LINE
8
BLACK
6
CONTINUOUS
10
5.70394
20
-3.87187
11
5.70394
21
-3.87187
0
LINE
8
BLACK
6
CONTINUOUS
10
5.70394
20
-3.87187
11
5.70394
21
-3.87187
0
LINE
8
BLACK
6
CONTINUOUS
10
5.70394
20
-3.87187
11
5.70464
21
-3.87287
0
LINE
8
BLACK
6
CONTINUOUS
10
5.70464
20
-3.87287
11
5.70574
21
-3.87427
0
LINE
8
BLACK
6
CONTINUOUS
10
5.70574
20
-3.87427
11
5.70574
21
-3.87427
0
LINE
8
BLACK
6
CONTINUOUS
10
5.70574
20
-3.87427
11
5.70574
21
-3.87427
0
LINE
8
BLACK
6
CONTINUOUS
10
5.70574
20
-3.87427
11
5.70574
21
-3.87427
0
LINE
8
BLACK
6
CONTINUOUS
10
5.70574
20
-3.87427
11
5.70604
21
-3.87467
0
LINE
8
BLACK
6
CONTINUOUS
10
5.70604
20
-3.87467
11
5.70893
21
-3.87766
0
LINE
8
BLACK
6
CONTINUOUS
10
5.70893
20
-3.87766
11
5.71242
21
-3.87985
0
LINE
8
BLACK
6
CONTINUOUS
10
5.71242
20
-3.87985
11
5.71641
21
-3.88105
0
LINE
8
BLACK
6
CONTINUOUS
10
5.71641
20
-3.88105
11
5.7206
21
-3.88125
0
LINE
8
BLACK
6
CONTINUOUS
10
5.7206
20
-3.88125
11
5.72149
21
-3.88115
0
LINE
8
BLACK
6
CONTINUOUS
10
5.72149
20
-3.88115
11
5.72518
21
-3.87995
0
LINE
8
BLACK
6
CONTINUOUS
10
5.72518
20
-3.87995
11
5.72877
21
-3.87796
0
LINE
8
BLACK
6
CONTINUOUS
10
5.72877
20
-3.87796
11
5.73046
21
-3.87647
0
LINE
8
BLACK
6
CONTINUOUS
10
5.73046
20
-3.87647
11
5.73306
21
-3.87298
0
LINE
8
BLACK
6
CONTINUOUS
10
5.73306
20
-3.87298
11
5.73465
21
-3.86909
0
LINE
8
BLACK
6
CONTINUOUS
10
5.73465
20
-3.86909
11
5.73505
21
-3.865
0
LINE
8
BLACK
6
CONTINUOUS
10
5.73505
20
-3.865
11
5.73455
21
-3.86071
0
LINE
8
BLACK
6
CONTINUOUS
10
5.73455
20
-3.86071
11
5.73296
21
-3.85693
0
LINE
8
BLACK
6
CONTINUOUS
10
5.73296
20
-3.85693
11
5.73036
21
-3.85364
0
LINE
8
BLACK
6
CONTINUOUS
10
5.73036
20
-3.85364
11
5.72687
21
-3.85094
0
LINE
8
BLACK
6
CONTINUOUS
10
5.72687
20
-3.85094
11
5.72309
21
-3.84935
0
LINE
8
BLACK
6
CONTINUOUS
10
5.72309
20
-3.84935
11
5.7191
21
-3.84895
0
LINE
8
BLACK
6
CONTINUOUS
10
5.7191
20
-3.84895
11
5.71471
21
-3.84945
0
LINE
8
BLACK
6
CONTINUOUS
10
5.71471
20
-3.84945
11
5.71083
21
-3.85114
0
LINE
8
BLACK
6
CONTINUOUS
10
5.71083
20
-3.85114
11
5.70744
21
-3.85394
0
LINE
8
BLACK
6
CONTINUOUS
10
5.70744
20
-3.85394
11
5.70514
21
-3.85673
0
LINE
8
BLACK
6
CONTINUOUS
10
5.70514
20
-3.85673
11
5.70414
21
-3.85803
0
LINE
8
BLACK
6
CONTINUOUS
10
5.70414
20
-3.85803
11
5.70414
21
-3.85803
0
LINE
8
BLACK
6
CONTINUOUS
10
5.70414
20
-3.85803
11
5.70414
21
-3.85803
0
LINE
8
BLACK
6
CONTINUOUS
10
5.70414
20
-3.85803
11
5.70414
21
-3.85804
0
LINE
8
BLACK
6
CONTINUOUS
10
5.70414
20
-3.85804
11
5.70333
21
-3.85884
0
LINE
8
BLACK
6
CONTINUOUS
10
5.70333
20
-3.85884
11
5.70333
21
-3.85884
0
LINE
8
BLACK
6
CONTINUOUS
10
5.70333
20
-3.85884
11
5.70333
21
-3.85884
0
LINE
8
BLACK
6
CONTINUOUS
10
5.70333
20
-3.85884
11
5.70332
21
-3.85885
0
LINE
8
BLACK
6
CONTINUOUS
10
5.70332
20
-3.85885
11
5.70331
21
-3.85885
0
LINE
8
BLACK
6
CONTINUOUS
10
5.70331
20
-3.85885
11
5.70331
21
-3.85885
0
LINE
8
BLACK
6
CONTINUOUS
10
5.70331
20
-3.85885
11
5.7033
21
-3.85885
0
LINE
8
BLACK
6
CONTINUOUS
10
5.7033
20
-3.85885
11
5.7033
21
-3.85885
0
LINE
8
BLACK
6
CONTINUOUS
10
5.7033
20
-3.85885
11
5.70329
21
-3.85885
0
LINE
8
BLACK
6
CONTINUOUS
10
5.70329
20
-3.85885
11
5.70329
21
-3.85885
0
LINE
8
BLACK
6
CONTINUOUS
10
5.70329
20
-3.85885
11
5.70328
21
-3.85885
0
LINE
8
BLACK
6
CONTINUOUS
10
5.70328
20
-3.85885
11
5.70328
21
-3.85885
0
LINE
8
BLACK
6
CONTINUOUS
10
5.70328
20
-3.85885
11
5.70258
21
-3.85855
0
LINE
8
BLACK
6
CONTINUOUS
10
5.70258
20
-3.85855
11
5.70098
21
-3.85795
0
LINE
8
BLACK
6
CONTINUOUS
10
5.70098
20
-3.85795
11
5.70098
21
-3.85795
0
LINE
8
BLACK
6
CONTINUOUS
10
5.70098
20
-3.85795
11
5.69868
21
-3.85705
0
LINE
8
BLACK
6
CONTINUOUS
10
5.69868
20
-3.85705
11
5.69868
21
-3.85705
0
LINE
8
BLACK
6
CONTINUOUS
10
5.69868
20
-3.85705
11
5.69868
21
-3.85705
0
LINE
8
BLACK
6
CONTINUOUS
10
5.69868
20
-3.85705
11
5.69578
21
-3.85585
0
LINE
8
BLACK
6
CONTINUOUS
10
5.69578
20
-3.85585
11
5.69578
21
-3.85585
0
LINE
8
BLACK
6
CONTINUOUS
10
5.69578
20
-3.85585
11
5.69578
21
-3.85585
0
LINE
8
BLACK
6
CONTINUOUS
10
5.69578
20
-3.85585
11
5.69268
21
-3.85455
0
LINE
8
BLACK
6
CONTINUOUS
10
5.69268
20
-3.85455
11
5.68938
21
-3.85325
0
LINE
8
BLACK
6
CONTINUOUS
10
5.68938
20
-3.85325
11
5.68938
21
-3.85325
0
LINE
8
BLACK
6
CONTINUOUS
10
5.68938
20
-3.85325
11
5.68938
21
-3.85325
0
LINE
8
BLACK
6
CONTINUOUS
10
5.68938
20
-3.85325
11
5.68938
21
-3.85325
0
LINE
8
BLACK
6
CONTINUOUS
10
5.68938
20
-3.85325
11
5.68618
21
-3.85185
0
LINE
8
BLACK
6
CONTINUOUS
10
5.68618
20
-3.85185
11
5.68618
21
-3.85185
0
LINE
8
BLACK
6
CONTINUOUS
10
5.68618
20
-3.85185
11
5.68618
21
-3.85185
0
LINE
8
BLACK
6
CONTINUOUS
10
5.68618
20
-3.85185
11
5.68318
21
-3.85055
0
LINE
8
BLACK
6
CONTINUOUS
10
5.68318
20
-3.85055
11
5.68318
21
-3.85055
0
LINE
8
BLACK
6
CONTINUOUS
10
5.68318
20
-3.85055
11
5.68058
21
-3.84945
0
LINE
8
BLACK
6
CONTINUOUS
10
5.68058
20
-3.84945
11
5.68058
21
-3.84945
0
LINE
8
BLACK
6
CONTINUOUS
10
5.68058
20
-3.84945
11
5.68058
21
-3.84945
0
LINE
8
BLACK
6
CONTINUOUS
10
5.68058
20
-3.84945
11
5.67868
21
-3.84865
0
LINE
8
BLACK
6
CONTINUOUS
10
5.67868
20
-3.84865
11
5.67868
21
-3.84865
0
LINE
8
BLACK
6
CONTINUOUS
10
5.67868
20
-3.84865
11
5.67868
21
-3.84865
0
LINE
8
BLACK
6
CONTINUOUS
10
5.67868
20
-3.84865
11
5.67868
21
-3.84864
0
LINE
8
BLACK
6
CONTINUOUS
10
5.67868
20
-3.84864
11
5.67728
21
-3.84794
0
LINE
8
BLACK
6
CONTINUOUS
10
5.67728
20
-3.84794
11
5.67727
21
-3.84794
0
LINE
8
BLACK
6
CONTINUOUS
10
5.67727
20
-3.84794
11
5.67727
21
-3.84794
0
LINE
8
BLACK
6
CONTINUOUS
10
5.67727
20
-3.84794
11
5.67726
21
-3.84793
0
LINE
8
BLACK
6
CONTINUOUS
10
5.67726
20
-3.84793
11
5.67726
21
-3.84793
0
LINE
8
BLACK
6
CONTINUOUS
10
5.67726
20
-3.84793
11
5.67726
21
-3.84792
0
LINE
8
BLACK
6
CONTINUOUS
10
5.67726
20
-3.84792
11
5.67725
21
-3.84792
0
LINE
8
BLACK
6
CONTINUOUS
10
5.67725
20
-3.84792
11
5.67725
21
-3.84791
0
LINE
8
BLACK
6
CONTINUOUS
10
5.67725
20
-3.84791
11
5.67725
21
-3.8479
0
LINE
8
BLACK
6
CONTINUOUS
10
5.67725
20
-3.8479
11
5.67725
21
-3.84789
0
LINE
8
BLACK
6
CONTINUOUS
10
5.67725
20
-3.84789
11
5.67725
21
-3.84789
0
LINE
8
BLACK
6
CONTINUOUS
10
5.67725
20
-3.84789
11
5.67745
21
-3.84719
0
LINE
8
BLACK
6
CONTINUOUS
10
5.67745
20
-3.84719
11
5.67745
21
-3.84719
0
LINE
8
BLACK
6
CONTINUOUS
10
5.67745
20
-3.84719
11
5.67745
21
-3.84718
0
LINE
8
BLACK
6
CONTINUOUS
10
5.67745
20
-3.84718
11
5.67745
21
-3.84718
0
LINE
8
BLACK
6
CONTINUOUS
10
5.67745
20
-3.84718
11
5.67805
21
-3.84568
0
LINE
8
BLACK
6
CONTINUOUS
10
5.67805
20
-3.84568
11
5.67805
21
-3.84568
0
LINE
8
BLACK
6
CONTINUOUS
10
5.67805
20
-3.84568
11
5.67805
21
-3.84568
0
LINE
8
BLACK
6
CONTINUOUS
10
5.67805
20
-3.84568
11
5.67806
21
-3.84568
0
LINE
8
BLACK
6
CONTINUOUS
10
5.67806
20
-3.84568
11
5.67936
21
-3.84308
0
LINE
8
BLACK
6
CONTINUOUS
10
5.67936
20
-3.84308
11
5.67936
21
-3.84308
0
LINE
8
BLACK
6
CONTINUOUS
10
5.67936
20
-3.84308
11
5.67936
21
-3.84308
0
LINE
8
BLACK
6
CONTINUOUS
10
5.67936
20
-3.84308
11
5.67995
21
-3.84198
0
LINE
8
BLACK
6
CONTINUOUS
10
5.67995
20
-3.84198
11
5.68005
21
-3.84171
0
LINE
8
BLACK
6
CONTINUOUS
10
5.68005
20
-3.84171
11
5.67976
21
-3.84123
0
LINE
8
BLACK
6
CONTINUOUS
10
5.67976
20
-3.84123
11
5.67886
21
-3.83983
0
LINE
8
BLACK
6
CONTINUOUS
10
5.67886
20
-3.83983
11
5.67756
21
-3.83793
0
LINE
8
BLACK
6
CONTINUOUS
10
5.67756
20
-3.83793
11
5.67756
21
-3.83793
0
LINE
8
BLACK
6
CONTINUOUS
10
5.67756
20
-3.83793
11
5.67756
21
-3.83793
0
LINE
8
BLACK
6
CONTINUOUS
10
5.67756
20
-3.83793
11
5.67596
21
-3.83553
0
LINE
8
BLACK
6
CONTINUOUS
10
5.67596
20
-3.83553
11
5.67596
21
-3.83553
0
LINE
8
BLACK
6
CONTINUOUS
10
5.67596
20
-3.83553
11
5.67446
21
-3.83323
0
LINE
8
BLACK
6
CONTINUOUS
10
5.67446
20
-3.83323
11
5.67446
21
-3.83323
0
LINE
8
BLACK
6
CONTINUOUS
10
5.67446
20
-3.83323
11
5.67446
21
-3.83323
0
LINE
8
BLACK
6
CONTINUOUS
10
5.67446
20
-3.83323
11
5.67316
21
-3.83123
0
LINE
8
BLACK
6
CONTINUOUS
10
5.67316
20
-3.83123
11
5.67226
21
-3.82993
0
LINE
8
BLACK
6
CONTINUOUS
10
5.67226
20
-3.82993
11
5.67226
21
-3.82993
0
LINE
8
BLACK
6
CONTINUOUS
10
5.67226
20
-3.82993
11
5.67226
21
-3.82993
0
LINE
8
BLACK
6
CONTINUOUS
10
5.67226
20
-3.82993
11
5.67226
21
-3.82993
0
LINE
8
BLACK
6
CONTINUOUS
10
5.67226
20
-3.82993
11
5.67226
21
-3.82993
0
LINE
8
BLACK
6
CONTINUOUS
10
5.67226
20
-3.82993
11
5.67226
21
-3.82993
0
LINE
8
BLACK
6
CONTINUOUS
10
5.67226
20
-3.82993
11
5.67225
21
-3.82992
0
LINE
8
BLACK
6
CONTINUOUS
10
5.67225
20
-3.82992
11
5.67195
21
-3.82922
0
LINE
8
BLACK
6
CONTINUOUS
10
5.67195
20
-3.82922
11
5.67195
21
-3.82922
0
LINE
8
BLACK
6
CONTINUOUS
10
5.67195
20
-3.82922
11
5.67195
21
-3.82922
0
LINE
8
BLACK
6
CONTINUOUS
10
5.67195
20
-3.82922
11
5.67195
21
-3.82921
0
LINE
8
BLACK
6
CONTINUOUS
10
5.67195
20
-3.82921
11
5.67195
21
-3.82921
0
LINE
8
BLACK
6
CONTINUOUS
10
5.67195
20
-3.82921
11
5.67195
21
-3.82921
0
LINE
8
BLACK
6
CONTINUOUS
10
5.67195
20
-3.82921
11
5.67195
21
-3.82921
0
LINE
8
BLACK
6
CONTINUOUS
10
5.67195
20
-3.82921
11
5.67195
21
-3.82921
0
LINE
8
BLACK
6
CONTINUOUS
10
5.67195
20
-3.82921
11
5.67195
21
-3.8292
0
LINE
8
BLACK
6
CONTINUOUS
10
5.67195
20
-3.8292
11
5.67195
21
-3.8292
0
LINE
8
BLACK
6
CONTINUOUS
10
5.67195
20
-3.8292
11
5.67195
21
-3.8292
0
LINE
8
BLACK
6
CONTINUOUS
10
5.67195
20
-3.8292
11
5.67195
21
-3.8292
0
LINE
8
BLACK
6
CONTINUOUS
10
5.67195
20
-3.8292
11
5.67195
21
-3.82919
0
LINE
8
BLACK
6
CONTINUOUS
10
5.67195
20
-3.82919
11
5.67195
21
-3.82919
0
LINE
8
BLACK
6
CONTINUOUS
10
5.67195
20
-3.82919
11
5.67195
21
-3.82919
0
LINE
8
BLACK
6
CONTINUOUS
10
5.67195
20
-3.82919
11
5.67195
21
-3.82919
0
LINE
8
BLACK
6
CONTINUOUS
10
5.67195
20
-3.82919
11
5.67195
21
-3.82918
0
LINE
8
BLACK
6
CONTINUOUS
10
5.67195
20
-3.82918
11
5.67195
21
-3.82918
0
LINE
8
BLACK
6
CONTINUOUS
10
5.67195
20
-3.82918
11
5.67195
21
-3.82918
0
LINE
8
BLACK
6
CONTINUOUS
10
5.67195
20
-3.82918
11
5.67196
21
-3.82918
0
LINE
8
BLACK
6
CONTINUOUS
10
5.67196
20
-3.82918
11
5.67196
21
-3.82917
0
LINE
8
BLACK
6
CONTINUOUS
10
5.67196
20
-3.82917
11
5.67196
21
-3.82917
0
LINE
8
BLACK
6
CONTINUOUS
10
5.67196
20
-3.82917
11
5.67196
21
-3.82917
0
LINE
8
BLACK
6
CONTINUOUS
10
5.67196
20
-3.82917
11
5.67196
21
-3.82917
0
LINE
8
BLACK
6
CONTINUOUS
10
5.67196
20
-3.82917
11
5.67236
21
-3.82867
0
LINE
8
BLACK
6
CONTINUOUS
10
5.67236
20
-3.82867
11
5.67236
21
-3.82867
0
LINE
8
BLACK
6
CONTINUOUS
10
5.67236
20
-3.82867
11
5.67236
21
-3.82867
0
LINE
8
BLACK
6
CONTINUOUS
10
5.67236
20
-3.82867
11
5.67236
21
-3.82867
0
LINE
8
BLACK
6
CONTINUOUS
10
5.67236
20
-3.82867
11
5.67346
21
-3.82747
0
LINE
8
BLACK
6
CONTINUOUS
10
5.67346
20
-3.82747
11
5.67506
21
-3.82567
0
LINE
8
BLACK
6
CONTINUOUS
10
5.67506
20
-3.82567
11
5.67506
21
-3.82567
0
LINE
8
BLACK
6
CONTINUOUS
10
5.67506
20
-3.82567
11
5.67506
21
-3.82567
0
LINE
8
BLACK
6
CONTINUOUS
10
5.67506
20
-3.82567
11
5.67506
21
-3.82566
0
LINE
8
BLACK
6
CONTINUOUS
10
5.67506
20
-3.82566
11
5.67706
21
-3.82367
0
LINE
8
BLACK
6
CONTINUOUS
10
5.67706
20
-3.82367
11
5.67746
21
-3.82317
0
LINE
8
BLACK
6
CONTINUOUS
10
5.67746
20
-3.82317
11
5.67746
21
-3.82317
0
LINE
8
BLACK
6
CONTINUOUS
10
5.67746
20
-3.82317
11
5.67746
21
-3.82317
0
LINE
8
BLACK
6
CONTINUOUS
10
5.67746
20
-3.82317
11
5.67746
21
-3.82316
0
LINE
8
BLACK
6
CONTINUOUS
10
5.67746
20
-3.82316
11
5.68007
21
-3.82056
0
LINE
8
BLACK
6
CONTINUOUS
10
5.68007
20
-3.82056
11
5.68007
21
-3.82056
0
LINE
8
BLACK
6
CONTINUOUS
10
5.68007
20
-3.82056
11
5.68007
21
-3.82056
0
LINE
8
BLACK
6
CONTINUOUS
10
5.68007
20
-3.82056
11
5.68187
21
-3.81886
0
LINE
8
BLACK
6
CONTINUOUS
10
5.68187
20
-3.81886
11
5.68187
21
-3.81886
0
LINE
8
BLACK
6
CONTINUOUS
10
5.68187
20
-3.81886
11
5.68187
21
-3.81886
0
LINE
8
BLACK
6
CONTINUOUS
10
5.68187
20
-3.81886
11
5.68187
21
-3.81886
0
LINE
8
BLACK
6
CONTINUOUS
10
5.68187
20
-3.81886
11
5.68297
21
-3.81796
0
LINE
8
BLACK
6
CONTINUOUS
10
5.68297
20
-3.81796
11
5.68297
21
-3.81796
0
LINE
8
BLACK
6
CONTINUOUS
10
5.68297
20
-3.81796
11
5.68297
21
-3.81796
0
LINE
8
BLACK
6
CONTINUOUS
10
5.68297
20
-3.81796
11
5.68297
21
-3.81796
0
LINE
8
BLACK
6
CONTINUOUS
10
5.68297
20
-3.81796
11
5.68298
21
-3.81796
0
LINE
8
BLACK
6
CONTINUOUS
10
5.68298
20
-3.81796
11
5.68298
21
-3.81796
0
LINE
8
BLACK
6
CONTINUOUS
10
5.68298
20
-3.81796
11
5.68298
21
-3.81796
0
LINE
8
BLACK
6
CONTINUOUS
10
5.68298
20
-3.81796
11
5.68298
21
-3.81796
0
LINE
8
BLACK
6
CONTINUOUS
10
5.68298
20
-3.81796
11
5.68338
21
-3.81775
0
LINE
8
BLACK
6
CONTINUOUS
10
5.68338
20
-3.81775
11
5.68338
21
-3.81775
0
LINE
8
BLACK
6
CONTINUOUS
10
5.68338
20
-3.81775
11
5.68338
21
-3.81775
0
LINE
8
BLACK
6
CONTINUOUS
10
5.68338
20
-3.81775
11
5.68338
21
-3.81775
0
LINE
8
BLACK
6
CONTINUOUS
10
5.68338
20
-3.81775
11
5.68339
21
-3.81775
0
LINE
8
BLACK
6
CONTINUOUS
10
5.68339
20
-3.81775
11
5.68339
21
-3.81775
0
LINE
8
BLACK
6
CONTINUOUS
10
5.68339
20
-3.81775
11
5.68339
21
-3.81775
0
LINE
8
BLACK
6
CONTINUOUS
10
5.68339
20
-3.81775
11
5.68339
21
-3.81775
0
LINE
8
BLACK
6
CONTINUOUS
10
5.68339
20
-3.81775
11
5.6834
21
-3.81775
0
LINE
8
BLACK
6
CONTINUOUS
10
5.6834
20
-3.81775
11
5.6834
21
-3.81775
0
LINE
8
BLACK
6
CONTINUOUS
10
5.6834
20
-3.81775
11
5.6834
21
-3.81775
0
LINE
8
BLACK
6
CONTINUOUS
10
5.6834
20
-3.81775
11
5.6834
21
-3.81775
0
LINE
8
BLACK
6
CONTINUOUS
10
5.6834
20
-3.81775
11
5.68341
21
-3.81775
0
LINE
8
BLACK
6
CONTINUOUS
10
5.68341
20
-3.81775
11
5.68341
21
-3.81775
0
LINE
8
BLACK
6
CONTINUOUS
10
5.68341
20
-3.81775
11
5.68341
21
-3.81775
0
LINE
8
BLACK
6
CONTINUOUS
10
5.68341
20
-3.81775
11
5.68341
21
-3.81775
0
LINE
8
BLACK
6
CONTINUOUS
10
5.68341
20
-3.81775
11
5.68342
21
-3.81775
0
LINE
8
BLACK
6
CONTINUOUS
10
5.68342
20
-3.81775
11
5.68342
21
-3.81775
0
LINE
8
BLACK
6
CONTINUOUS
10
5.68342
20
-3.81775
11
5.68342
21
-3.81775
0
LINE
8
BLACK
6
CONTINUOUS
10
5.68342
20
-3.81775
11
5.68412
21
-3.81805
0
LINE
8
BLACK
6
CONTINUOUS
10
5.68412
20
-3.81805
11
5.68412
21
-3.81805
0
LINE
8
BLACK
6
CONTINUOUS
10
5.68412
20
-3.81805
11
5.68412
21
-3.81805
0
LINE
8
BLACK
6
CONTINUOUS
10
5.68412
20
-3.81805
11
5.68412
21
-3.81806
0
LINE
8
BLACK
6
CONTINUOUS
10
5.68412
20
-3.81806
11
5.68413
21
-3.81806
0
LINE
8
BLACK
6
CONTINUOUS
10
5.68413
20
-3.81806
11
5.68413
21
-3.81806
0
LINE
8
BLACK
6
CONTINUOUS
10
5.68413
20
-3.81806
11
5.68413
21
-3.81806
0
LINE
8
BLACK
6
CONTINUOUS
10
5.68413
20
-3.81806
11
5.68553
21
-3.81906
0
LINE
8
BLACK
6
CONTINUOUS
10
5.68553
20
-3.81906
11
5.68753
21
-3.82036
0
LINE
8
BLACK
6
CONTINUOUS
10
5.68753
20
-3.82036
11
5.68753
21
-3.82036
0
LINE
8
BLACK
6
CONTINUOUS
10
5.68753
20
-3.82036
11
5.68753
21
-3.82036
0
LINE
8
BLACK
6
CONTINUOUS
10
5.68753
20
-3.82036
11
5.68753
21
-3.82036
0
LINE
8
BLACK
6
CONTINUOUS
10
5.68753
20
-3.82036
11
5.68983
21
-3.82196
0
LINE
8
BLACK
6
CONTINUOUS
10
5.68983
20
-3.82196
11
5.69213
21
-3.82356
0
LINE
8
BLACK
6
CONTINUOUS
10
5.69213
20
-3.82356
11
5.69413
21
-3.82486
0
LINE
8
BLACK
6
CONTINUOUS
10
5.69413
20
-3.82486
11
5.69552
21
-3.82576
0
LINE
8
BLACK
6
CONTINUOUS
10
5.69552
20
-3.82576
11
5.69611
21
-3.82605
0
LINE
8
BLACK
6
CONTINUOUS
10
5.69611
20
-3.82605
11
5.69689
21
-3.82585
0
LINE
8
BLACK
6
CONTINUOUS
10
5.69689
20
-3.82585
11
5.69848
21
-3.82525
0
LINE
8
BLACK
6
CONTINUOUS
10
5.69848
20
-3.82525
11
5.70048
21
-3.82445
0
LINE
8
BLACK
6
CONTINUOUS
10
5.70048
20
-3.82445
11
5.70278
21
-3.82345
0
LINE
8
BLACK
6
CONTINUOUS
10
5.70278
20
-3.82345
11
5.70278
21
-3.82345
0
LINE
8
BLACK
6
CONTINUOUS
10
5.70278
20
-3.82345
11
5.70278
21
-3.82345
0
LINE
8
BLACK
6
CONTINUOUS
10
5.70278
20
-3.82345
11
5.70488
21
-3.82255
0
LINE
8
BLACK
6
CONTINUOUS
10
5.70488
20
-3.82255
11
5.70488
21
-3.82255
0
LINE
8
BLACK
6
CONTINUOUS
10
5.70488
20
-3.82255
11
5.70668
21
-3.82175
0
LINE
8
BLACK
6
CONTINUOUS
10
5.70668
20
-3.82175
11
5.70787
21
-3.82116
0
LINE
8
BLACK
6
CONTINUOUS
10
5.70787
20
-3.82116
11
5.70806
21
-3.82097
0
LINE
8
BLACK
6
CONTINUOUS
10
5.70806
20
-3.82097
11
5.70825
21
-3.82029
0
LINE
8
BLACK
6
CONTINUOUS
10
5.70825
20
-3.82029
11
5.70855
21
-3.81859
0
LINE
8
BLACK
6
CONTINUOUS
10
5.70855
20
-3.81859
11
5.70855
21
-3.81859
0
LINE
8
BLACK
6
CONTINUOUS
10
5.70855
20
-3.81859
11
5.70895
21
-3.81629
0
LINE
8
BLACK
6
CONTINUOUS
10
5.70895
20
-3.81629
11
5.70895
21
-3.81629
0
LINE
8
BLACK
6
CONTINUOUS
10
5.70895
20
-3.81629
11
5.70895
21
-3.81629
0
LINE
8
BLACK
6
CONTINUOUS
10
5.70895
20
-3.81629
11
5.70895
21
-3.81629
0
LINE
8
BLACK
6
CONTINUOUS
10
5.70895
20
-3.81629
11
5.70945
21
-3.81389
0
LINE
8
BLACK
6
CONTINUOUS
10
5.70945
20
-3.81389
11
5.70995
21
-3.81119
0
LINE
8
BLACK
6
CONTINUOUS
10
5.70995
20
-3.81119
11
5.70995
21
-3.81119
0
LINE
8
BLACK
6
CONTINUOUS
10
5.70995
20
-3.81119
11
5.71035
21
-3.80889
0
LINE
8
BLACK
6
CONTINUOUS
10
5.71035
20
-3.80889
11
5.71035
21
-3.80889
0
LINE
8
BLACK
6
CONTINUOUS
10
5.71035
20
-3.80889
11
5.71035
21
-3.80889
0
LINE
8
BLACK
6
CONTINUOUS
10
5.71035
20
-3.80889
11
5.71035
21
-3.80889
0
LINE
8
BLACK
6
CONTINUOUS
10
5.71035
20
-3.80889
11
5.71075
21
-3.80729
0
LINE
8
BLACK
6
CONTINUOUS
10
5.71075
20
-3.80729
11
5.71075
21
-3.80729
0
LINE
8
BLACK
6
CONTINUOUS
10
5.71075
20
-3.80729
11
5.71075
21
-3.80729
0
LINE
8
BLACK
6
CONTINUOUS
10
5.71075
20
-3.80729
11
5.71075
21
-3.80728
0
LINE
8
BLACK
6
CONTINUOUS
10
5.71075
20
-3.80728
11
5.71095
21
-3.80668
0
LINE
8
BLACK
6
CONTINUOUS
10
5.71095
20
-3.80668
11
5.71095
21
-3.80668
0
LINE
8
BLACK
6
CONTINUOUS
10
5.71095
20
-3.80668
11
5.71095
21
-3.80668
0
LINE
8
BLACK
6
CONTINUOUS
10
5.71095
20
-3.80668
11
5.71095
21
-3.80668
0
LINE
8
BLACK
6
CONTINUOUS
10
5.71095
20
-3.80668
11
5.71125
21
-3.80598
0
LINE
8
BLACK
6
CONTINUOUS
10
5.71125
20
-3.80598
11
5.71125
21
-3.80598
0
LINE
8
BLACK
6
CONTINUOUS
10
5.71125
20
-3.80598
11
5.71125
21
-3.80598
0
LINE
8
BLACK
6
CONTINUOUS
10
5.71125
20
-3.80598
11
5.71125
21
-3.80598
0
LINE
8
BLACK
6
CONTINUOUS
10
5.71125
20
-3.80598
11
5.71126
21
-3.80598
0
LINE
8
BLACK
6
CONTINUOUS
10
5.71126
20
-3.80598
11
5.71126
21
-3.80597
0
LINE
8
BLACK
6
CONTINUOUS
10
5.71126
20
-3.80597
11
5.71126
21
-3.80597
0
LINE
8
BLACK
6
CONTINUOUS
10
5.71126
20
-3.80597
11
5.71126
21
-3.80597
0
LINE
8
BLACK
6
CONTINUOUS
10
5.71126
20
-3.80597
11
5.71126
21
-3.80597
0
LINE
8
BLACK
6
CONTINUOUS
10
5.71126
20
-3.80597
11
5.71127
21
-3.80596
0
LINE
8
BLACK
6
CONTINUOUS
10
5.71127
20
-3.80596
11
5.71127
21
-3.80596
0
LINE
8
BLACK
6
CONTINUOUS
10
5.71127
20
-3.80596
11
5.71127
21
-3.80596
0
LINE
8
BLACK
6
CONTINUOUS
10
5.71127
20
-3.80596
11
5.71127
21
-3.80596
0
LINE
8
BLACK
6
CONTINUOUS
10
5.71127
20
-3.80596
11
5.71127
21
-3.80596
0
LINE
8
BLACK
6
CONTINUOUS
10
5.71127
20
-3.80596
11
5.71127
21
-3.80596
0
LINE
8
BLACK
6
CONTINUOUS
10
5.71127
20
-3.80596
11
5.71127
21
-3.80596
0
LINE
8
BLACK
6
CONTINUOUS
10
5.71127
20
-3.80596
11
5.71128
21
-3.80596
0
LINE
8
BLACK
6
CONTINUOUS
10
5.71128
20
-3.80596
11
5.71128
21
-3.80595
0
LINE
8
BLACK
6
CONTINUOUS
10
5.71128
20
-3.80595
11
5.71128
21
-3.80595
0
LINE
8
BLACK
6
CONTINUOUS
10
5.71128
20
-3.80595
11
5.71128
21
-3.80595
0
LINE
8
BLACK
6
CONTINUOUS
10
5.71128
20
-3.80595
11
5.71129
21
-3.80595
0
LINE
8
BLACK
6
CONTINUOUS
10
5.71129
20
-3.80595
11
5.71129
21
-3.80595
0
LINE
8
BLACK
6
CONTINUOUS
10
5.71129
20
-3.80595
11
5.71129
21
-3.80595
0
LINE
8
BLACK
6
CONTINUOUS
10
5.71129
20
-3.80595
11
5.71129
21
-3.80595
0
LINE
8
BLACK
6
CONTINUOUS
10
5.71129
20
-3.80595
11
5.7113
21
-3.80595
0
LINE
8
BLACK
6
CONTINUOUS
10
5.7113
20
-3.80595
11
5.7113
21
-3.80595
0
LINE
8
BLACK
6
CONTINUOUS
10
5.7113
20
-3.80595
11
5.7113
21
-3.80595
0
LINE
8
BLACK
6
CONTINUOUS
10
5.7113
20
-3.80595
11
5.7272
21
-3.80605
0
LINE
8
BLACK
6
CONTINUOUS
10
5.7272
20
-3.80605
11
5.7272
21
-3.80605
0
LINE
8
BLACK
6
CONTINUOUS
10
5.7272
20
-3.80605
11
5.72721
21
-3.80605
0
LINE
8
BLACK
6
CONTINUOUS
10
5.18976
20
-3.78282
11
5.19585
21
-3.78534
0
LINE
8
BLACK
6
CONTINUOUS
10
5.19585
20
-3.78534
11
5.20133
21
-3.78901
0
LINE
8
BLACK
6
CONTINUOUS
10
5.20133
20
-3.78901
11
5.20599
21
-3.79367
0
LINE
8
BLACK
6
CONTINUOUS
10
5.20599
20
-3.79367
11
5.20966
21
-3.79915
0
LINE
8
BLACK
6
CONTINUOUS
10
5.20966
20
-3.79915
11
5.21208
21
-3.805
0
LINE
8
BLACK
6
CONTINUOUS
10
5.21208
20
-3.805
11
5.30569
21
-3.805
0
LINE
8
BLACK
6
CONTINUOUS
10
5.30569
20
-3.805
11
5.30618
21
-3.80495
0
LINE
8
BLACK
6
CONTINUOUS
10
5.30618
20
-3.80495
11
5.30667
21
-3.805
0
LINE
8
BLACK
6
CONTINUOUS
10
5.30667
20
-3.805
11
5.30667
21
-3.805
0
LINE
8
BLACK
6
CONTINUOUS
10
5.30667
20
-3.805
11
5.30814
21
-3.80514
0
LINE
8
BLACK
6
CONTINUOUS
10
5.30814
20
-3.80514
11
5.31003
21
-3.80572
0
LINE
8
BLACK
6
CONTINUOUS
10
5.31003
20
-3.80572
11
5.31176
21
-3.80665
0
LINE
8
BLACK
6
CONTINUOUS
10
5.31176
20
-3.80665
11
5.31241
21
-3.80718
0
LINE
8
BLACK
6
CONTINUOUS
10
5.31241
20
-3.80718
11
5.31291
21
-3.80758
0
LINE
8
BLACK
6
CONTINUOUS
10
5.31291
20
-3.80758
11
5.31291
21
-3.80758
0
LINE
8
BLACK
6
CONTINUOUS
10
5.31291
20
-3.80758
11
5.31329
21
-3.80789
0
LINE
8
BLACK
6
CONTINUOUS
10
5.31329
20
-3.80789
11
5.3136
21
-3.80828
0
LINE
8
BLACK
6
CONTINUOUS
10
5.3136
20
-3.80828
11
5.32336
21
-3.81804
0
LINE
8
BLACK
6
CONTINUOUS
10
5.32336
20
-3.81804
11
5.32471
21
-3.81763
0
LINE
8
BLACK
6
CONTINUOUS
10
5.32471
20
-3.81763
11
5.32658
21
-3.81744
0
LINE
8
BLACK
6
CONTINUOUS
10
5.32658
20
-3.81744
11
5.34578
21
-3.81744
0
LINE
8
BLACK
6
CONTINUOUS
10
5.34578
20
-3.81744
11
5.34765
21
-3.81763
0
LINE
8
BLACK
6
CONTINUOUS
10
5.34765
20
-3.81763
11
5.34945
21
-3.81817
0
LINE
8
BLACK
6
CONTINUOUS
10
5.34945
20
-3.81817
11
5.35111
21
-3.81906
0
LINE
8
BLACK
6
CONTINUOUS
10
5.35111
20
-3.81906
11
5.35256
21
-3.82025
0
LINE
8
BLACK
6
CONTINUOUS
10
5.35256
20
-3.82025
11
5.35376
21
-3.82171
0
LINE
8
BLACK
6
CONTINUOUS
10
5.35376
20
-3.82171
11
5.35464
21
-3.82336
0
LINE
8
BLACK
6
CONTINUOUS
10
5.35464
20
-3.82336
11
5.35519
21
-3.82517
0
LINE
8
BLACK
6
CONTINUOUS
10
5.35519
20
-3.82517
11
5.35537
21
-3.82704
0
LINE
8
BLACK
6
CONTINUOUS
10
5.35537
20
-3.82704
11
5.35537
21
-3.86296
0
LINE
8
BLACK
6
CONTINUOUS
10
5.35537
20
-3.86296
11
5.35519
21
-3.86483
0
LINE
8
BLACK
6
CONTINUOUS
10
5.35519
20
-3.86483
11
5.35464
21
-3.86664
0
LINE
8
BLACK
6
CONTINUOUS
10
5.35464
20
-3.86664
11
5.35376
21
-3.86829
0
LINE
8
BLACK
6
CONTINUOUS
10
5.35376
20
-3.86829
11
5.35256
21
-3.86975
0
LINE
8
BLACK
6
CONTINUOUS
10
5.35256
20
-3.86975
11
5.35111
21
-3.87094
0
LINE
8
BLACK
6
CONTINUOUS
10
5.35111
20
-3.87094
11
5.34945
21
-3.87183
0
LINE
8
BLACK
6
CONTINUOUS
10
5.34945
20
-3.87183
11
5.34765
21
-3.87237
0
LINE
8
BLACK
6
CONTINUOUS
10
5.34765
20
-3.87237
11
5.34578
21
-3.87256
0
LINE
8
BLACK
6
CONTINUOUS
10
5.34578
20
-3.87256
11
5.32658
21
-3.87256
0
LINE
8
BLACK
6
CONTINUOUS
10
5.32658
20
-3.87256
11
5.32471
21
-3.87237
0
LINE
8
BLACK
6
CONTINUOUS
10
5.32471
20
-3.87237
11
5.32291
21
-3.87183
0
LINE
8
BLACK
6
CONTINUOUS
10
5.32291
20
-3.87183
11
5.32125
21
-3.87094
0
LINE
8
BLACK
6
CONTINUOUS
10
5.32125
20
-3.87094
11
5.3198
21
-3.86975
0
LINE
8
BLACK
6
CONTINUOUS
10
5.3198
20
-3.86975
11
5.31861
21
-3.86829
0
LINE
8
BLACK
6
CONTINUOUS
10
5.31861
20
-3.86829
11
5.31772
21
-3.86664
0
LINE
8
BLACK
6
CONTINUOUS
10
5.31772
20
-3.86664
11
5.31717
21
-3.86483
0
LINE
8
BLACK
6
CONTINUOUS
10
5.31717
20
-3.86483
11
5.31699
21
-3.86296
0
LINE
8
BLACK
6
CONTINUOUS
10
5.31699
20
-3.86296
11
5.31699
21
-3.83995
0
LINE
8
BLACK
6
CONTINUOUS
10
5.31699
20
-3.83995
11
5.30204
21
-3.825
0
LINE
8
BLACK
6
CONTINUOUS
10
5.30204
20
-3.825
11
5.21208
21
-3.825
0
LINE
8
BLACK
6
CONTINUOUS
10
5.21208
20
-3.825
11
5.20966
21
-3.83085
0
LINE
8
BLACK
6
CONTINUOUS
10
5.20966
20
-3.83085
11
5.20599
21
-3.83633
0
LINE
8
BLACK
6
CONTINUOUS
10
5.20599
20
-3.83633
11
5.20133
21
-3.84099
0
LINE
8
BLACK
6
CONTINUOUS
10
5.20133
20
-3.84099
11
5.19585
21
-3.84466
0
LINE
8
BLACK
6
CONTINUOUS
10
5.19585
20
-3.84466
11
5.18976
21
-3.84718
0
LINE
8
BLACK
6
CONTINUOUS
10
5.18976
20
-3.84718
11
5.1833
21
-3.84846
0
LINE
8
BLACK
6
CONTINUOUS
10
5.1833
20
-3.84846
11
5.1767
21
-3.84846
0
LINE
8
BLACK
6
CONTINUOUS
10
5.1767
20
-3.84846
11
5.17024
21
-3.84718
0
LINE
8
BLACK
6
CONTINUOUS
10
5.17024
20
-3.84718
11
5.16415
21
-3.84466
0
LINE
8
BLACK
6
CONTINUOUS
10
5.16415
20
-3.84466
11
5.15867
21
-3.84099
0
LINE
8
BLACK
6
CONTINUOUS
10
5.15867
20
-3.84099
11
5.15401
21
-3.83633
0
LINE
8
BLACK
6
CONTINUOUS
10
5.15401
20
-3.83633
11
5.15034
21
-3.83085
0
LINE
8
BLACK
6
CONTINUOUS
10
5.15034
20
-3.83085
11
5.14782
21
-3.82476
0
LINE
8
BLACK
6
CONTINUOUS
10
5.14782
20
-3.82476
11
5.14654
21
-3.8183
0
LINE
8
BLACK
6
CONTINUOUS
10
5.14654
20
-3.8183
11
5.14654
21
-3.8117
0
LINE
8
BLACK
6
CONTINUOUS
10
5.14654
20
-3.8117
11
5.14782
21
-3.80524
0
LINE
8
BLACK
6
CONTINUOUS
10
5.14782
20
-3.80524
11
5.15034
21
-3.79915
0
LINE
8
BLACK
6
CONTINUOUS
10
5.15034
20
-3.79915
11
5.15401
21
-3.79367
0
LINE
8
BLACK
6
CONTINUOUS
10
5.15401
20
-3.79367
11
5.15867
21
-3.78901
0
LINE
8
BLACK
6
CONTINUOUS
10
5.15867
20
-3.78901
11
5.16415
21
-3.78534
0
LINE
8
BLACK
6
CONTINUOUS
10
5.16415
20
-3.78534
11
5.17024
21
-3.78282
0
LINE
8
BLACK
6
CONTINUOUS
10
5.17024
20
-3.78282
11
5.1767
21
-3.78154
0
LINE
8
BLACK
6
CONTINUOUS
10
5.1767
20
-3.78154
11
5.1833
21
-3.78154
0
LINE
8
BLACK
6
CONTINUOUS
10
5.1833
20
-3.78154
11
5.18976
21
-3.78282
0
LINE
8
BLACK
6
CONTINUOUS
10
5.42147
20
-3.81763
11
5.42327
21
-3.81817
0
LINE
8
BLACK
6
CONTINUOUS
10
5.42327
20
-3.81817
11
5.42493
21
-3.81906
0
LINE
8
BLACK
6
CONTINUOUS
10
5.42493
20
-3.81906
11
5.42638
21
-3.82025
0
LINE
8
BLACK
6
CONTINUOUS
10
5.42638
20
-3.82025
11
5.42758
21
-3.82171
0
LINE
8
BLACK
6
CONTINUOUS
10
5.42758
20
-3.82171
11
5.42846
21
-3.82336
0
LINE
8
BLACK
6
CONTINUOUS
10
5.42846
20
-3.82336
11
5.42901
21
-3.82517
0
LINE
8
BLACK
6
CONTINUOUS
10
5.42901
20
-3.82517
11
5.42919
21
-3.82704
0
LINE
8
BLACK
6
CONTINUOUS
10
5.42919
20
-3.82704
11
5.42919
21
-3.835
0
LINE
8
BLACK
6
CONTINUOUS
10
5.42919
20
-3.835
11
5.4473
21
-3.835
0
LINE
8
BLACK
6
CONTINUOUS
10
5.4473
20
-3.835
11
5.44874
21
-3.8323
0
LINE
8
BLACK
6
CONTINUOUS
10
5.44874
20
-3.8323
11
5.45137
21
-3.82909
0
LINE
8
BLACK
6
CONTINUOUS
10
5.45137
20
-3.82909
11
5.45458
21
-3.82646
0
LINE
8
BLACK
6
CONTINUOUS
10
5.45458
20
-3.82646
11
5.45824
21
-3.8245
0
LINE
8
BLACK
6
CONTINUOUS
10
5.45824
20
-3.8245
11
5.46221
21
-3.8233
0
LINE
8
BLACK
6
CONTINUOUS
10
5.46221
20
-3.8233
11
5.4653
21
-3.82299
0
LINE
8
BLACK
6
CONTINUOUS
10
5.4653
20
-3.82299
11
5.49611
21
-3.82299
0
LINE
8
BLACK
6
CONTINUOUS
10
5.49611
20
-3.82299
11
5.49921
21
-3.8233
0
LINE
8
BLACK
6
CONTINUOUS
10
5.49921
20
-3.8233
11
5.50318
21
-3.8245
0
LINE
8
BLACK
6
CONTINUOUS
10
5.50318
20
-3.8245
11
5.50684
21
-3.82646
0
LINE
8
BLACK
6
CONTINUOUS
10
5.50684
20
-3.82646
11
5.51004
21
-3.82909
0
LINE
8
BLACK
6
CONTINUOUS
10
5.51004
20
-3.82909
11
5.51268
21
-3.8323
0
LINE
8
BLACK
6
CONTINUOUS
10
5.51268
20
-3.8323
11
5.51463
21
-3.83596
0
LINE
8
BLACK
6
CONTINUOUS
10
5.51463
20
-3.83596
11
5.51584
21
-3.83993
0
LINE
8
BLACK
6
CONTINUOUS
10
5.51584
20
-3.83993
11
5.51624
21
-3.84406
0
LINE
8
BLACK
6
CONTINUOUS
10
5.51624
20
-3.84406
11
5.51584
21
-3.84818
0
LINE
8
BLACK
6
CONTINUOUS
10
5.51584
20
-3.84818
11
5.51463
21
-3.85215
0
LINE
8
BLACK
6
CONTINUOUS
10
5.51463
20
-3.85215
11
5.51268
21
-3.85581
0
LINE
8
BLACK
6
CONTINUOUS
10
5.51268
20
-3.85581
11
5.51004
21
-3.85902
0
LINE
8
BLACK
6
CONTINUOUS
10
5.51004
20
-3.85902
11
5.50684
21
-3.86165
0
LINE
8
BLACK
6
CONTINUOUS
10
5.50684
20
-3.86165
11
5.50318
21
-3.86361
0
LINE
8
BLACK
6
CONTINUOUS
10
5.50318
20
-3.86361
11
5.49921
21
-3.86481
0
LINE
8
BLACK
6
CONTINUOUS
10
5.49921
20
-3.86481
11
5.49611
21
-3.86512
0
LINE
8
BLACK
6
CONTINUOUS
10
5.49611
20
-3.86512
11
5.4653
21
-3.86512
0
LINE
8
BLACK
6
CONTINUOUS
10
5.4653
20
-3.86512
11
5.46221
21
-3.86481
0
LINE
8
BLACK
6
CONTINUOUS
10
5.46221
20
-3.86481
11
5.45824
21
-3.86361
0
LINE
8
BLACK
6
CONTINUOUS
10
5.45824
20
-3.86361
11
5.45458
21
-3.86165
0
LINE
8
BLACK
6
CONTINUOUS
10
5.45458
20
-3.86165
11
5.45137
21
-3.85902
0
LINE
8
BLACK
6
CONTINUOUS
10
5.45137
20
-3.85902
11
5.44874
21
-3.85581
0
LINE
8
BLACK
6
CONTINUOUS
10
5.44874
20
-3.85581
11
5.44831
21
-3.855
0
LINE
8
BLACK
6
CONTINUOUS
10
5.44831
20
-3.855
11
5.42919
21
-3.855
0
LINE
8
BLACK
6
CONTINUOUS
10
5.42919
20
-3.855
11
5.42919
21
-3.86296
0
LINE
8
BLACK
6
CONTINUOUS
10
5.42919
20
-3.86296
11
5.42901
21
-3.86483
0
LINE
8
BLACK
6
CONTINUOUS
10
5.42901
20
-3.86483
11
5.42846
21
-3.86664
0
LINE
8
BLACK
6
CONTINUOUS
10
5.42846
20
-3.86664
11
5.42758
21
-3.86829
0
LINE
8
BLACK
6
CONTINUOUS
10
5.42758
20
-3.86829
11
5.42638
21
-3.86975
0
LINE
8
BLACK
6
CONTINUOUS
10
5.42638
20
-3.86975
11
5.42493
21
-3.87094
0
LINE
8
BLACK
6
CONTINUOUS
10
5.42493
20
-3.87094
11
5.42327
21
-3.87183
0
LINE
8
BLACK
6
CONTINUOUS
10
5.42327
20
-3.87183
11
5.42147
21
-3.87237
0
LINE
8
BLACK
6
CONTINUOUS
10
5.42147
20
-3.87237
11
5.4196
21
-3.87256
0
LINE
8
BLACK
6
CONTINUOUS
10
5.4196
20
-3.87256
11
5.4004
21
-3.87256
0
LINE
8
BLACK
6
CONTINUOUS
10
5.4004
20
-3.87256
11
5.39853
21
-3.87237
0
LINE
8
BLACK
6
CONTINUOUS
10
5.39853
20
-3.87237
11
5.39673
21
-3.87183
0
LINE
8
BLACK
6
CONTINUOUS
10
5.39673
20
-3.87183
11
5.39507
21
-3.87094
0
LINE
8
BLACK
6
CONTINUOUS
10
5.39507
20
-3.87094
11
5.39362
21
-3.86975
0
LINE
8
BLACK
6
CONTINUOUS
10
5.39362
20
-3.86975
11
5.39242
21
-3.86829
0
LINE
8
BLACK
6
CONTINUOUS
10
5.39242
20
-3.86829
11
5.39154
21
-3.86664
0
LINE
8
BLACK
6
CONTINUOUS
10
5.39154
20
-3.86664
11
5.39099
21
-3.86483
0
LINE
8
BLACK
6
CONTINUOUS
10
5.39099
20
-3.86483
11
5.39081
21
-3.86296
0
LINE
8
BLACK
6
CONTINUOUS
10
5.39081
20
-3.86296
11
5.39081
21
-3.82704
0
LINE
8
BLACK
6
CONTINUOUS
10
5.39081
20
-3.82704
11
5.39099
21
-3.82517
0
LINE
8
BLACK
6
CONTINUOUS
10
5.39099
20
-3.82517
11
5.39154
21
-3.82336
0
LINE
8
BLACK
6
CONTINUOUS
10
5.39154
20
-3.82336
11
5.39242
21
-3.82171
0
LINE
8
BLACK
6
CONTINUOUS
10
5.39242
20
-3.82171
11
5.39362
21
-3.82025
0
LINE
8
BLACK
6
CONTINUOUS
10
5.39362
20
-3.82025
11
5.39507
21
-3.81906
0
LINE
8
BLACK
6
CONTINUOUS
10
5.39507
20
-3.81906
11
5.39673
21
-3.81817
0
LINE
8
BLACK
6
CONTINUOUS
10
5.39673
20
-3.81817
11
5.39853
21
-3.81763
0
LINE
8
BLACK
6
CONTINUOUS
10
5.39853
20
-3.81763
11
5.4004
21
-3.81744
0
LINE
8
BLACK
6
CONTINUOUS
10
5.4004
20
-3.81744
11
5.4196
21
-3.81744
0
LINE
8
BLACK
6
CONTINUOUS
10
5.4196
20
-3.81744
11
5.42147
21
-3.81763
0
LINE
8
BLACK
6
CONTINUOUS
10
5.42147
20
-3.68763
11
5.42327
21
-3.68817
0
LINE
8
BLACK
6
CONTINUOUS
10
5.42327
20
-3.68817
11
5.42493
21
-3.68906
0
LINE
8
BLACK
6
CONTINUOUS
10
5.42493
20
-3.68906
11
5.42638
21
-3.69025
0
LINE
8
BLACK
6
CONTINUOUS
10
5.42638
20
-3.69025
11
5.42758
21
-3.69171
0
LINE
8
BLACK
6
CONTINUOUS
10
5.42758
20
-3.69171
11
5.42846
21
-3.69337
0
LINE
8
BLACK
6
CONTINUOUS
10
5.42846
20
-3.69337
11
5.42901
21
-3.69517
0
LINE
8
BLACK
6
CONTINUOUS
10
5.42901
20
-3.69517
11
5.42919
21
-3.69704
0
LINE
8
BLACK
6
CONTINUOUS
10
5.42919
20
-3.69704
11
5.42919
21
-3.705
0
LINE
8
BLACK
6
CONTINUOUS
10
5.42919
20
-3.705
11
5.45951
21
-3.705
0
LINE
8
BLACK
6
CONTINUOUS
10
5.45951
20
-3.705
11
5.46
21
-3.70495
0
LINE
8
BLACK
6
CONTINUOUS
10
5.46
20
-3.70495
11
5.46049
21
-3.705
0
LINE
8
BLACK
6
CONTINUOUS
10
5.46049
20
-3.705
11
5.46049
21
-3.705
0
LINE
8
BLACK
6
CONTINUOUS
10
5.46049
20
-3.705
11
5.46196
21
-3.70514
0
LINE
8
BLACK
6
CONTINUOUS
10
5.46196
20
-3.70514
11
5.46385
21
-3.70572
0
LINE
8
BLACK
6
CONTINUOUS
10
5.46385
20
-3.70572
11
5.46558
21
-3.70665
0
LINE
8
BLACK
6
CONTINUOUS
10
5.46558
20
-3.70665
11
5.46623
21
-3.70718
0
LINE
8
BLACK
6
CONTINUOUS
10
5.46623
20
-3.70718
11
5.46672
21
-3.70758
0
LINE
8
BLACK
6
CONTINUOUS
10
5.46672
20
-3.70758
11
5.46672
21
-3.70758
0
LINE
8
BLACK
6
CONTINUOUS
10
5.46672
20
-3.70758
11
5.46711
21
-3.70789
0
LINE
8
BLACK
6
CONTINUOUS
10
5.46711
20
-3.70789
11
5.46742
21
-3.70828
0
LINE
8
BLACK
6
CONTINUOUS
10
5.46742
20
-3.70828
11
5.48743
21
-3.72829
0
LINE
8
BLACK
6
CONTINUOUS
10
5.48743
20
-3.72829
11
5.48781
21
-3.7286
0
LINE
8
BLACK
6
CONTINUOUS
10
5.48781
20
-3.7286
11
5.48813
21
-3.72898
0
LINE
8
BLACK
6
CONTINUOUS
10
5.48813
20
-3.72898
11
5.48813
21
-3.72898
0
LINE
8
BLACK
6
CONTINUOUS
10
5.48813
20
-3.72898
11
5.48906
21
-3.73013
0
LINE
8
BLACK
6
CONTINUOUS
10
5.48906
20
-3.73013
11
5.48999
21
-3.73186
0
LINE
8
BLACK
6
CONTINUOUS
10
5.48999
20
-3.73186
11
5.49056
21
-3.73375
0
LINE
8
BLACK
6
CONTINUOUS
10
5.49056
20
-3.73375
11
5.49071
21
-3.73522
0
LINE
8
BLACK
6
CONTINUOUS
10
5.49071
20
-3.73522
11
5.49071
21
-3.73522
0
LINE
8
BLACK
6
CONTINUOUS
10
5.49071
20
-3.73522
11
5.49076
21
-3.73571
0
LINE
8
BLACK
6
CONTINUOUS
10
5.49076
20
-3.73571
11
5.49071
21
-3.7362
0
LINE
8
BLACK
6
CONTINUOUS
10
5.49071
20
-3.7362
11
5.49071
21
-3.77299
0
LINE
8
BLACK
6
CONTINUOUS
10
5.49071
20
-3.77299
11
5.49611
21
-3.77299
0
LINE
8
BLACK
6
CONTINUOUS
10
5.49611
20
-3.77299
11
5.49921
21
-3.7733
0
LINE
8
BLACK
6
CONTINUOUS
10
5.49921
20
-3.7733
11
5.50318
21
-3.7745
0
LINE
8
BLACK
6
CONTINUOUS
10
5.50318
20
-3.7745
11
5.50684
21
-3.77646
0
LINE
8
BLACK
6
CONTINUOUS
10
5.50684
20
-3.77646
11
5.51004
21
-3.77909
0
LINE
8
BLACK
6
CONTINUOUS
10
5.51004
20
-3.77909
11
5.51268
21
-3.7823
0
LINE
8
BLACK
6
CONTINUOUS
10
5.51268
20
-3.7823
11
5.51463
21
-3.78596
0
LINE
8
BLACK
6
CONTINUOUS
10
5.51463
20
-3.78596
11
5.51584
21
-3.78993
0
LINE
8
BLACK
6
CONTINUOUS
10
5.51584
20
-3.78993
11
5.51624
21
-3.79406
0
LINE
8
BLACK
6
CONTINUOUS
10
5.51624
20
-3.79406
11
5.51584
21
-3.79818
0
LINE
8
BLACK
6
CONTINUOUS
10
5.51584
20
-3.79818
11
5.51463
21
-3.80215
0
LINE
8
BLACK
6
CONTINUOUS
10
5.51463
20
-3.80215
11
5.51268
21
-3.80581
0
LINE
8
BLACK
6
CONTINUOUS
10
5.51268
20
-3.80581
11
5.51004
21
-3.80902
0
LINE
8
BLACK
6
CONTINUOUS
10
5.51004
20
-3.80902
11
5.50684
21
-3.81165
0
LINE
8
BLACK
6
CONTINUOUS
10
5.50684
20
-3.81165
11
5.50318
21
-3.81361
0
LINE
8
BLACK
6
CONTINUOUS
10
5.50318
20
-3.81361
11
5.49921
21
-3.81481
0
LINE
8
BLACK
6
CONTINUOUS
10
5.49921
20
-3.81481
11
5.49611
21
-3.81512
0
LINE
8
BLACK
6
CONTINUOUS
10
5.49611
20
-3.81512
11
5.4653
21
-3.81512
0
LINE
8
BLACK
6
CONTINUOUS
10
5.4653
20
-3.81512
11
5.46221
21
-3.81481
0
LINE
8
BLACK
6
CONTINUOUS
10
5.46221
20
-3.81481
11
5.45824
21
-3.81361
0
LINE
8
BLACK
6
CONTINUOUS
10
5.45824
20
-3.81361
11
5.45458
21
-3.81165
0
LINE
8
BLACK
6
CONTINUOUS
10
5.45458
20
-3.81165
11
5.45137
21
-3.80902
0
LINE
8
BLACK
6
CONTINUOUS
10
5.45137
20
-3.80902
11
5.44874
21
-3.80581
0
LINE
8
BLACK
6
CONTINUOUS
10
5.44874
20
-3.80581
11
5.44678
21
-3.80215
0
LINE
8
BLACK
6
CONTINUOUS
10
5.44678
20
-3.80215
11
5.44558
21
-3.79818
0
LINE
8
BLACK
6
CONTINUOUS
10
5.44558
20
-3.79818
11
5.44517
21
-3.79406
0
LINE
8
BLACK
6
CONTINUOUS
10
5.44517
20
-3.79406
11
5.44558
21
-3.78993
0
LINE
8
BLACK
6
CONTINUOUS
10
5.44558
20
-3.78993
11
5.44678
21
-3.78596
0
LINE
8
BLACK
6
CONTINUOUS
10
5.44678
20
-3.78596
11
5.44874
21
-3.7823
0
LINE
8
BLACK
6
CONTINUOUS
10
5.44874
20
-3.7823
11
5.45137
21
-3.77909
0
LINE
8
BLACK
6
CONTINUOUS
10
5.45137
20
-3.77909
11
5.45458
21
-3.77646
0
LINE
8
BLACK
6
CONTINUOUS
10
5.45458
20
-3.77646
11
5.45824
21
-3.7745
0
LINE
8
BLACK
6
CONTINUOUS
10
5.45824
20
-3.7745
11
5.46221
21
-3.7733
0
LINE
8
BLACK
6
CONTINUOUS
10
5.46221
20
-3.7733
11
5.4653
21
-3.77299
0
LINE
8
BLACK
6
CONTINUOUS
10
5.4653
20
-3.77299
11
5.47071
21
-3.77299
0
LINE
8
BLACK
6
CONTINUOUS
10
5.47071
20
-3.77299
11
5.47071
21
-3.73985
0
LINE
8
BLACK
6
CONTINUOUS
10
5.47071
20
-3.73985
11
5.45586
21
-3.725
0
LINE
8
BLACK
6
CONTINUOUS
10
5.45586
20
-3.725
11
5.42919
21
-3.725
0
LINE
8
BLACK
6
CONTINUOUS
10
5.42919
20
-3.725
11
5.42919
21
-3.73296
0
LINE
8
BLACK
6
CONTINUOUS
10
5.42919
20
-3.73296
11
5.42901
21
-3.73483
0
LINE
8
BLACK
6
CONTINUOUS
10
5.42901
20
-3.73483
11
5.42846
21
-3.73663
0
LINE
8
BLACK
6
CONTINUOUS
10
5.42846
20
-3.73663
11
5.42758
21
-3.73829
0
LINE
8
BLACK
6
CONTINUOUS
10
5.42758
20
-3.73829
11
5.42638
21
-3.73975
0
LINE
8
BLACK
6
CONTINUOUS
10
5.42638
20
-3.73975
11
5.42493
21
-3.74094
0
LINE
8
BLACK
6
CONTINUOUS
10
5.42493
20
-3.74094
11
5.42327
21
-3.74183
0
LINE
8
BLACK
6
CONTINUOUS
10
5.42327
20
-3.74183
11
5.42147
21
-3.74237
0
LINE
8
BLACK
6
CONTINUOUS
10
5.42147
20
-3.74237
11
5.4196
21
-3.74256
0
LINE
8
BLACK
6
CONTINUOUS
10
5.4196
20
-3.74256
11
5.4004
21
-3.74256
0
LINE
8
BLACK
6
CONTINUOUS
10
5.4004
20
-3.74256
11
5.39853
21
-3.74237
0
LINE
8
BLACK
6
CONTINUOUS
10
5.39853
20
-3.74237
11
5.39673
21
-3.74183
0
LINE
8
BLACK
6
CONTINUOUS
10
5.39673
20
-3.74183
11
5.39507
21
-3.74094
0
LINE
8
BLACK
6
CONTINUOUS
10
5.39507
20
-3.74094
11
5.39362
21
-3.73975
0
LINE
8
BLACK
6
CONTINUOUS
10
5.39362
20
-3.73975
11
5.39242
21
-3.73829
0
LINE
8
BLACK
6
CONTINUOUS
10
5.39242
20
-3.73829
11
5.39154
21
-3.73663
0
LINE
8
BLACK
6
CONTINUOUS
10
5.39154
20
-3.73663
11
5.39099
21
-3.73483
0
LINE
8
BLACK
6
CONTINUOUS
10
5.39099
20
-3.73483
11
5.39081
21
-3.73296
0
LINE
8
BLACK
6
CONTINUOUS
10
5.39081
20
-3.73296
11
5.39081
21
-3.69704
0
LINE
8
BLACK
6
CONTINUOUS
10
5.39081
20
-3.69704
11
5.39099
21
-3.69517
0
LINE
8
BLACK
6
CONTINUOUS
10
5.39099
20
-3.69517
11
5.39154
21
-3.69337
0
LINE
8
BLACK
6
CONTINUOUS
10
5.39154
20
-3.69337
11
5.39242
21
-3.69171
0
LINE
8
BLACK
6
CONTINUOUS
10
5.39242
20
-3.69171
11
5.39362
21
-3.69025
0
LINE
8
BLACK
6
CONTINUOUS
10
5.39362
20
-3.69025
11
5.39507
21
-3.68906
0
LINE
8
BLACK
6
CONTINUOUS
10
5.39507
20
-3.68906
11
5.39673
21
-3.68817
0
LINE
8
BLACK
6
CONTINUOUS
10
5.39673
20
-3.68817
11
5.39853
21
-3.68763
0
LINE
8
BLACK
6
CONTINUOUS
10
5.39853
20
-3.68763
11
5.4004
21
-3.68744
0
LINE
8
BLACK
6
CONTINUOUS
10
5.4004
20
-3.68744
11
5.4196
21
-3.68744
0
LINE
8
BLACK
6
CONTINUOUS
10
5.4196
20
-3.68744
11
5.42147
21
-3.68763
0
LINE
8
BLACK
6
CONTINUOUS
10
5.77352
20
-3.63333
11
5.78427
21
-3.63778
0
LINE
8
BLACK
6
CONTINUOUS
10
5.78427
20
-3.63778
11
5.79394
21
-3.64425
0
LINE
8
BLACK
6
CONTINUOUS
10
5.79394
20
-3.64425
11
5.80217
21
-3.65247
0
LINE
8
BLACK
6
CONTINUOUS
10
5.80217
20
-3.65247
11
5.80863
21
-3.66214
0
LINE
8
BLACK
6
CONTINUOUS
10
5.80863
20
-3.66214
11
5.81308
21
-3.67289
0
LINE
8
BLACK
6
CONTINUOUS
10
5.81308
20
-3.67289
11
5.81535
21
-3.6843
0
LINE
8
BLACK
6
CONTINUOUS
10
5.81535
20
-3.6843
11
5.81535
21
-3.69593
0
LINE
8
BLACK
6
CONTINUOUS
10
5.81535
20
-3.69593
11
5.81308
21
-3.70734
0
LINE
8
BLACK
6
CONTINUOUS
10
5.81308
20
-3.70734
11
5.80863
21
-3.71809
0
LINE
8
BLACK
6
CONTINUOUS
10
5.80863
20
-3.71809
11
5.80217
21
-3.72776
0
LINE
8
BLACK
6
CONTINUOUS
10
5.80217
20
-3.72776
11
5.79394
21
-3.73599
0
LINE
8
BLACK
6
CONTINUOUS
10
5.79394
20
-3.73599
11
5.78427
21
-3.74245
0
LINE
8
BLACK
6
CONTINUOUS
10
5.78427
20
-3.74245
11
5.77352
21
-3.7469
0
LINE
8
BLACK
6
CONTINUOUS
10
5.77352
20
-3.7469
11
5.76212
21
-3.74917
0
LINE
8
BLACK
6
CONTINUOUS
10
5.76212
20
-3.74917
11
5.75048
21
-3.74917
0
LINE
8
BLACK
6
CONTINUOUS
10
5.75048
20
-3.74917
11
5.73907
21
-3.7469
0
LINE
8
BLACK
6
CONTINUOUS
10
5.73907
20
-3.7469
11
5.72833
21
-3.74245
0
LINE
8
BLACK
6
CONTINUOUS
10
5.72833
20
-3.74245
11
5.71865
21
-3.73599
0
LINE
8
BLACK
6
CONTINUOUS
10
5.71865
20
-3.73599
11
5.71043
21
-3.72776
0
LINE
8
BLACK
6
CONTINUOUS
10
5.71043
20
-3.72776
11
5.70397
21
-3.71809
0
LINE
8
BLACK
6
CONTINUOUS
10
5.70397
20
-3.71809
11
5.69951
21
-3.70734
0
LINE
8
BLACK
6
CONTINUOUS
10
5.69951
20
-3.70734
11
5.69724
21
-3.69593
0
LINE
8
BLACK
6
CONTINUOUS
10
5.69724
20
-3.69593
11
5.69724
21
-3.6843
0
LINE
8
BLACK
6
CONTINUOUS
10
5.69724
20
-3.6843
11
5.69951
21
-3.67289
0
LINE
8
BLACK
6
CONTINUOUS
10
5.69951
20
-3.67289
11
5.70397
21
-3.66214
0
LINE
8
BLACK
6
CONTINUOUS
10
5.70397
20
-3.66214
11
5.71043
21
-3.65247
0
LINE
8
BLACK
6
CONTINUOUS
10
5.71043
20
-3.65247
11
5.71865
21
-3.64425
0
LINE
8
BLACK
6
CONTINUOUS
10
5.71865
20
-3.64425
11
5.72833
21
-3.63778
0
LINE
8
BLACK
6
CONTINUOUS
10
5.72833
20
-3.63778
11
5.73907
21
-3.63333
0
LINE
8
BLACK
6
CONTINUOUS
10
5.73907
20
-3.63333
11
5.75048
21
-3.63106
0
LINE
8
BLACK
6
CONTINUOUS
10
5.75048
20
-3.63106
11
5.76212
21
-3.63106
0
LINE
8
BLACK
6
CONTINUOUS
10
5.76212
20
-3.63106
11
5.77352
21
-3.63333
0
LINE
8
BLACK
6
CONTINUOUS
10
5.21346
20
-3.705
11
5.31699
21
-3.705
0
LINE
8
BLACK
6
CONTINUOUS
10
5.31699
20
-3.705
11
5.31699
21
-3.69704
0
LINE
8
BLACK
6
CONTINUOUS
10
5.31699
20
-3.69704
11
5.31717
21
-3.69517
0
LINE
8
BLACK
6
CONTINUOUS
10
5.31717
20
-3.69517
11
5.31772
21
-3.69337
0
LINE
8
BLACK
6
CONTINUOUS
10
5.31772
20
-3.69337
11
5.31861
21
-3.69171
0
LINE
8
BLACK
6
CONTINUOUS
10
5.31861
20
-3.69171
11
5.3198
21
-3.69025
0
LINE
8
BLACK
6
CONTINUOUS
10
5.3198
20
-3.69025
11
5.32125
21
-3.68906
0
LINE
8
BLACK
6
CONTINUOUS
10
5.32125
20
-3.68906
11
5.32291
21
-3.68817
0
LINE
8
BLACK
6
CONTINUOUS
10
5.32291
20
-3.68817
11
5.32471
21
-3.68763
0
LINE
8
BLACK
6
CONTINUOUS
10
5.32471
20
-3.68763
11
5.32658
21
-3.68744
0
LINE
8
BLACK
6
CONTINUOUS
10
5.32658
20
-3.68744
11
5.34578
21
-3.68744
0
LINE
8
BLACK
6
CONTINUOUS
10
5.34578
20
-3.68744
11
5.34765
21
-3.68763
0
LINE
8
BLACK
6
CONTINUOUS
10
5.34765
20
-3.68763
11
5.34945
21
-3.68817
0
LINE
8
BLACK
6
CONTINUOUS
10
5.34945
20
-3.68817
11
5.35111
21
-3.68906
0
LINE
8
BLACK
6
CONTINUOUS
10
5.35111
20
-3.68906
11
5.35256
21
-3.69025
0
LINE
8
BLACK
6
CONTINUOUS
10
5.35256
20
-3.69025
11
5.35376
21
-3.69171
0
LINE
8
BLACK
6
CONTINUOUS
10
5.35376
20
-3.69171
11
5.35464
21
-3.69337
0
LINE
8
BLACK
6
CONTINUOUS
10
5.35464
20
-3.69337
11
5.35519
21
-3.69517
0
LINE
8
BLACK
6
CONTINUOUS
10
5.35519
20
-3.69517
11
5.35537
21
-3.69704
0
LINE
8
BLACK
6
CONTINUOUS
10
5.35537
20
-3.69704
11
5.35537
21
-3.73296
0
LINE
8
BLACK
6
CONTINUOUS
10
5.35537
20
-3.73296
11
5.35519
21
-3.73483
0
LINE
8
BLACK
6
CONTINUOUS
10
5.35519
20
-3.73483
11
5.35464
21
-3.73663
0
LINE
8
BLACK
6
CONTINUOUS
10
5.35464
20
-3.73663
11
5.35376
21
-3.73829
0
LINE
8
BLACK
6
CONTINUOUS
10
5.35376
20
-3.73829
11
5.35256
21
-3.73975
0
LINE
8
BLACK
6
CONTINUOUS
10
5.35256
20
-3.73975
11
5.35111
21
-3.74094
0
LINE
8
BLACK
6
CONTINUOUS
10
5.35111
20
-3.74094
11
5.34945
21
-3.74183
0
LINE
8
BLACK
6
CONTINUOUS
10
5.34945
20
-3.74183
11
5.34765
21
-3.74237
0
LINE
8
BLACK
6
CONTINUOUS
10
5.34765
20
-3.74237
11
5.34578
21
-3.74256
0
LINE
8
BLACK
6
CONTINUOUS
10
5.34578
20
-3.74256
11
5.32658
21
-3.74256
0
LINE
8
BLACK
6
CONTINUOUS
10
5.32658
20
-3.74256
11
5.32471
21
-3.74237
0
LINE
8
BLACK
6
CONTINUOUS
10
5.32471
20
-3.74237
11
5.32291
21
-3.74183
0
LINE
8
BLACK
6
CONTINUOUS
10
5.32291
20
-3.74183
11
5.32125
21
-3.74094
0
LINE
8
BLACK
6
CONTINUOUS
10
5.32125
20
-3.74094
11
5.3198
21
-3.73975
0
LINE
8
BLACK
6
CONTINUOUS
10
5.3198
20
-3.73975
11
5.31861
21
-3.73829
0
LINE
8
BLACK
6
CONTINUOUS
10
5.31861
20
-3.73829
11
5.31772
21
-3.73663
0
LINE
8
BLACK
6
CONTINUOUS
10
5.31772
20
-3.73663
11
5.31717
21
-3.73483
0
LINE
8
BLACK
6
CONTINUOUS
10
5.31717
20
-3.73483
11
5.31699
21
-3.73296
0
LINE
8
BLACK
6
CONTINUOUS
10
5.31699
20
-3.73296
11
5.31699
21
-3.725
0
LINE
8
BLACK
6
CONTINUOUS
10
5.31699
20
-3.725
11
5.21346
21
-3.725
0
LINE
8
BLACK
6
CONTINUOUS
10
5.21346
20
-3.725
11
5.21346
21
-3.74846
0
LINE
8
BLACK
6
CONTINUOUS
10
5.21346
20
-3.74846
11
5.14654
21
-3.74846
0
LINE
8
BLACK
6
CONTINUOUS
10
5.14654
20
-3.74846
11
5.14654
21
-3.68154
0
LINE
8
BLACK
6
CONTINUOUS
10
5.14654
20
-3.68154
11
5.21346
21
-3.68154
0
LINE
8
BLACK
6
CONTINUOUS
10
5.21346
20
-3.68154
11
5.21346
21
-3.705
  0
ENDSEC
  0
EOF
