  0
SECTION
  2
HEADER
  9
$ANGBASE
  50
0.0
  9
$ANGDIR
  70
1
  9
$MEASUREMENT
  70
0
  0
ENDSEC
  0
SECTION
  2
TABLES
  0
TABLE
  2
LTYPE
  70
4
  0
LTYPE
  5
40F
  2
CONTINUOUS
  70
0
  3
Solid line
  72
65
  73
0
  40
0.0
  0
LTYPE
  5
410
  2
DASHDOT
 70
0
  3
Dash Dot ____ _ ____ _
 72
65
 73
4
 40
2.0
 49
1.25
 49
-0.25
 49
0.25
 49
-0.25
  0
LTYPE
  5
411
  2
DASHED
 70
0
  3
Dashed __ __ __ __ __
 72
65
 73
2
 40
0.75
 49
0.5
 49
-0.25
  0
LTYPE
  5
43B
  2
DOTTED
 70
0
  3
Dotted .  .  .  .
 72
65
 73
2
 40
0.2
 49
0.0
 49
-0.2
  0
ENDTAB
  0
TABLE
  2
STYLE
  70
4
  0
STYLE
  2
KICAD
  70
0
  40
0
  41
1
  42
1
  50
0
  71
0
  3
isocp.shx
  0
STYLE
  2
KICADB
  70
0
  40
0
  41
1
  42
1
  50
0
  71
0
  3
isocp.shx
  0
STYLE
  2
KICADI
  70
0
  40
0
  41
1
  42
1
  50
15
  71
0
  3
isocp.shx
  0
STYLE
  2
KICADBI
  70
0
  40
0
  41
1
  42
1
  50
15
  71
0
  3
isocp.shx
  0
ENDTAB
  0
TABLE
  2
LAYER
  70
1
  0
LAYER
  2
BLACK
  70
0
  62
7
  6
CONTINUOUS
  0
ENDTAB
  0
ENDSEC
  0
SECTION
  2
ENTITIES
0
LINE
8
BLACK
6
CONTINUOUS
10
5.42147
20
-3.91763
11
5.42327
21
-3.91817
0
LINE
8
BLACK
6
CONTINUOUS
10
5.42327
20
-3.91817
11
5.42493
21
-3.91906
0
LINE
8
BLACK
6
CONTINUOUS
10
5.42493
20
-3.91906
11
5.42638
21
-3.92025
0
LINE
8
BLACK
6
CONTINUOUS
10
5.42638
20
-3.92025
11
5.42758
21
-3.92171
0
LINE
8
BLACK
6
CONTINUOUS
10
5.42758
20
-3.92171
11
5.42846
21
-3.92336
0
LINE
8
BLACK
6
CONTINUOUS
10
5.42846
20
-3.92336
11
5.42901
21
-3.92517
0
LINE
8
BLACK
6
CONTINUOUS
10
5.42901
20
-3.92517
11
5.42919
21
-3.92704
0
LINE
8
BLACK
6
CONTINUOUS
10
5.42919
20
-3.92704
11
5.42919
21
-3.96296
0
LINE
8
BLACK
6
CONTINUOUS
10
5.42919
20
-3.96296
11
5.42901
21
-3.96483
0
LINE
8
BLACK
6
CONTINUOUS
10
5.42901
20
-3.96483
11
5.42846
21
-3.96663
0
LINE
8
BLACK
6
CONTINUOUS
10
5.42846
20
-3.96663
11
5.42758
21
-3.96829
0
LINE
8
BLACK
6
CONTINUOUS
10
5.42758
20
-3.96829
11
5.42638
21
-3.96975
0
LINE
8
BLACK
6
CONTINUOUS
10
5.42638
20
-3.96975
11
5.42493
21
-3.97094
0
LINE
8
BLACK
6
CONTINUOUS
10
5.42493
20
-3.97094
11
5.42327
21
-3.97183
0
LINE
8
BLACK
6
CONTINUOUS
10
5.42327
20
-3.97183
11
5.42147
21
-3.97237
0
LINE
8
BLACK
6
CONTINUOUS
10
5.42147
20
-3.97237
11
5.4196
21
-3.97256
0
LINE
8
BLACK
6
CONTINUOUS
10
5.4196
20
-3.97256
11
5.4004
21
-3.97256
0
LINE
8
BLACK
6
CONTINUOUS
10
5.4004
20
-3.97256
11
5.39853
21
-3.97237
0
LINE
8
BLACK
6
CONTINUOUS
10
5.39853
20
-3.97237
11
5.39673
21
-3.97183
0
LINE
8
BLACK
6
CONTINUOUS
10
5.39673
20
-3.97183
11
5.39507
21
-3.97094
0
LINE
8
BLACK
6
CONTINUOUS
10
5.39507
20
-3.97094
11
5.39362
21
-3.96975
0
LINE
8
BLACK
6
CONTINUOUS
10
5.39362
20
-3.96975
11
5.39242
21
-3.96829
0
LINE
8
BLACK
6
CONTINUOUS
10
5.39242
20
-3.96829
11
5.39154
21
-3.96663
0
LINE
8
BLACK
6
CONTINUOUS
10
5.39154
20
-3.96663
11
5.39099
21
-3.96483
0
LINE
8
BLACK
6
CONTINUOUS
10
5.39099
20
-3.96483
11
5.39081
21
-3.96296
0
LINE
8
BLACK
6
CONTINUOUS
10
5.39081
20
-3.96296
11
5.39081
21
-3.92704
0
LINE
8
BLACK
6
CONTINUOUS
10
5.39081
20
-3.92704
11
5.39099
21
-3.92517
0
LINE
8
BLACK
6
CONTINUOUS
10
5.39099
20
-3.92517
11
5.39154
21
-3.92336
0
LINE
8
BLACK
6
CONTINUOUS
10
5.39154
20
-3.92336
11
5.39242
21
-3.92171
0
LINE
8
BLACK
6
CONTINUOUS
10
5.39242
20
-3.92171
11
5.39362
21
-3.92025
0
LINE
8
BLACK
6
CONTINUOUS
10
5.39362
20
-3.92025
11
5.39507
21
-3.91906
0
LINE
8
BLACK
6
CONTINUOUS
10
5.39507
20
-3.91906
11
5.39673
21
-3.91817
0
LINE
8
BLACK
6
CONTINUOUS
10
5.39673
20
-3.91817
11
5.39853
21
-3.91763
0
LINE
8
BLACK
6
CONTINUOUS
10
5.39853
20
-3.91763
11
5.4004
21
-3.91744
0
LINE
8
BLACK
6
CONTINUOUS
10
5.4004
20
-3.91744
11
5.4196
21
-3.91744
0
LINE
8
BLACK
6
CONTINUOUS
10
5.4196
20
-3.91744
11
5.42147
21
-3.91763
0
LINE
8
BLACK
6
CONTINUOUS
10
5.34765
20
-3.91763
11
5.34945
21
-3.91817
0
LINE
8
BLACK
6
CONTINUOUS
10
5.34945
20
-3.91817
11
5.35111
21
-3.91906
0
LINE
8
BLACK
6
CONTINUOUS
10
5.35111
20
-3.91906
11
5.35256
21
-3.92025
0
LINE
8
BLACK
6
CONTINUOUS
10
5.35256
20
-3.92025
11
5.35376
21
-3.92171
0
LINE
8
BLACK
6
CONTINUOUS
10
5.35376
20
-3.92171
11
5.35464
21
-3.92336
0
LINE
8
BLACK
6
CONTINUOUS
10
5.35464
20
-3.92336
11
5.35519
21
-3.92517
0
LINE
8
BLACK
6
CONTINUOUS
10
5.35519
20
-3.92517
11
5.35537
21
-3.92704
0
LINE
8
BLACK
6
CONTINUOUS
10
5.35537
20
-3.92704
11
5.35537
21
-3.96296
0
LINE
8
BLACK
6
CONTINUOUS
10
5.35537
20
-3.96296
11
5.35519
21
-3.96483
0
LINE
8
BLACK
6
CONTINUOUS
10
5.35519
20
-3.96483
11
5.35464
21
-3.96663
0
LINE
8
BLACK
6
CONTINUOUS
10
5.35464
20
-3.96663
11
5.35376
21
-3.96829
0
LINE
8
BLACK
6
CONTINUOUS
10
5.35376
20
-3.96829
11
5.35256
21
-3.96975
0
LINE
8
BLACK
6
CONTINUOUS
10
5.35256
20
-3.96975
11
5.35111
21
-3.97094
0
LINE
8
BLACK
6
CONTINUOUS
10
5.35111
20
-3.97094
11
5.34945
21
-3.97183
0
LINE
8
BLACK
6
CONTINUOUS
10
5.34945
20
-3.97183
11
5.34765
21
-3.97237
0
LINE
8
BLACK
6
CONTINUOUS
10
5.34765
20
-3.97237
11
5.34578
21
-3.97256
0
LINE
8
BLACK
6
CONTINUOUS
10
5.34578
20
-3.97256
11
5.32658
21
-3.97256
0
LINE
8
BLACK
6
CONTINUOUS
10
5.32658
20
-3.97256
11
5.32471
21
-3.97237
0
LINE
8
BLACK
6
CONTINUOUS
10
5.32471
20
-3.97237
11
5.32291
21
-3.97183
0
LINE
8
BLACK
6
CONTINUOUS
10
5.32291
20
-3.97183
11
5.32125
21
-3.97094
0
LINE
8
BLACK
6
CONTINUOUS
10
5.32125
20
-3.97094
11
5.3198
21
-3.96975
0
LINE
8
BLACK
6
CONTINUOUS
10
5.3198
20
-3.96975
11
5.31861
21
-3.96829
0
LINE
8
BLACK
6
CONTINUOUS
10
5.31861
20
-3.96829
11
5.31772
21
-3.96663
0
LINE
8
BLACK
6
CONTINUOUS
10
5.31772
20
-3.96663
11
5.31717
21
-3.96483
0
LINE
8
BLACK
6
CONTINUOUS
10
5.31717
20
-3.96483
11
5.31699
21
-3.96296
0
LINE
8
BLACK
6
CONTINUOUS
10
5.31699
20
-3.96296
11
5.31699
21
-3.92704
0
LINE
8
BLACK
6
CONTINUOUS
10
5.31699
20
-3.92704
11
5.31717
21
-3.92517
0
LINE
8
BLACK
6
CONTINUOUS
10
5.31717
20
-3.92517
11
5.31772
21
-3.92336
0
LINE
8
BLACK
6
CONTINUOUS
10
5.31772
20
-3.92336
11
5.31861
21
-3.92171
0
LINE
8
BLACK
6
CONTINUOUS
10
5.31861
20
-3.92171
11
5.3198
21
-3.92025
0
LINE
8
BLACK
6
CONTINUOUS
10
5.3198
20
-3.92025
11
5.32125
21
-3.91906
0
LINE
8
BLACK
6
CONTINUOUS
10
5.32125
20
-3.91906
11
5.32291
21
-3.91817
0
LINE
8
BLACK
6
CONTINUOUS
10
5.32291
20
-3.91817
11
5.32471
21
-3.91763
0
LINE
8
BLACK
6
CONTINUOUS
10
5.32471
20
-3.91763
11
5.32658
21
-3.91744
0
LINE
8
BLACK
6
CONTINUOUS
10
5.32658
20
-3.91744
11
5.34578
21
-3.91744
0
LINE
8
BLACK
6
CONTINUOUS
10
5.34578
20
-3.91744
11
5.34765
21
-3.91763
0
LINE
8
BLACK
6
CONTINUOUS
10
5.42147
20
-3.81763
11
5.42327
21
-3.81817
0
LINE
8
BLACK
6
CONTINUOUS
10
5.42327
20
-3.81817
11
5.42493
21
-3.81906
0
LINE
8
BLACK
6
CONTINUOUS
10
5.42493
20
-3.81906
11
5.42638
21
-3.82025
0
LINE
8
BLACK
6
CONTINUOUS
10
5.42638
20
-3.82025
11
5.42758
21
-3.82171
0
LINE
8
BLACK
6
CONTINUOUS
10
5.42758
20
-3.82171
11
5.42846
21
-3.82336
0
LINE
8
BLACK
6
CONTINUOUS
10
5.42846
20
-3.82336
11
5.42901
21
-3.82517
0
LINE
8
BLACK
6
CONTINUOUS
10
5.42901
20
-3.82517
11
5.42919
21
-3.82704
0
LINE
8
BLACK
6
CONTINUOUS
10
5.42919
20
-3.82704
11
5.42919
21
-3.86296
0
LINE
8
BLACK
6
CONTINUOUS
10
5.42919
20
-3.86296
11
5.42901
21
-3.86483
0
LINE
8
BLACK
6
CONTINUOUS
10
5.42901
20
-3.86483
11
5.42846
21
-3.86664
0
LINE
8
BLACK
6
CONTINUOUS
10
5.42846
20
-3.86664
11
5.42758
21
-3.86829
0
LINE
8
BLACK
6
CONTINUOUS
10
5.42758
20
-3.86829
11
5.42638
21
-3.86975
0
LINE
8
BLACK
6
CONTINUOUS
10
5.42638
20
-3.86975
11
5.42493
21
-3.87094
0
LINE
8
BLACK
6
CONTINUOUS
10
5.42493
20
-3.87094
11
5.42327
21
-3.87183
0
LINE
8
BLACK
6
CONTINUOUS
10
5.42327
20
-3.87183
11
5.42147
21
-3.87237
0
LINE
8
BLACK
6
CONTINUOUS
10
5.42147
20
-3.87237
11
5.4196
21
-3.87256
0
LINE
8
BLACK
6
CONTINUOUS
10
5.4196
20
-3.87256
11
5.4004
21
-3.87256
0
LINE
8
BLACK
6
CONTINUOUS
10
5.4004
20
-3.87256
11
5.39853
21
-3.87237
0
LINE
8
BLACK
6
CONTINUOUS
10
5.39853
20
-3.87237
11
5.39673
21
-3.87183
0
LINE
8
BLACK
6
CONTINUOUS
10
5.39673
20
-3.87183
11
5.39507
21
-3.87094
0
LINE
8
BLACK
6
CONTINUOUS
10
5.39507
20
-3.87094
11
5.39362
21
-3.86975
0
LINE
8
BLACK
6
CONTINUOUS
10
5.39362
20
-3.86975
11
5.39242
21
-3.86829
0
LINE
8
BLACK
6
CONTINUOUS
10
5.39242
20
-3.86829
11
5.39154
21
-3.86664
0
LINE
8
BLACK
6
CONTINUOUS
10
5.39154
20
-3.86664
11
5.39099
21
-3.86483
0
LINE
8
BLACK
6
CONTINUOUS
10
5.39099
20
-3.86483
11
5.39081
21
-3.86296
0
LINE
8
BLACK
6
CONTINUOUS
10
5.39081
20
-3.86296
11
5.39081
21
-3.82704
0
LINE
8
BLACK
6
CONTINUOUS
10
5.39081
20
-3.82704
11
5.39099
21
-3.82517
0
LINE
8
BLACK
6
CONTINUOUS
10
5.39099
20
-3.82517
11
5.39154
21
-3.82336
0
LINE
8
BLACK
6
CONTINUOUS
10
5.39154
20
-3.82336
11
5.39242
21
-3.82171
0
LINE
8
BLACK
6
CONTINUOUS
10
5.39242
20
-3.82171
11
5.39362
21
-3.82025
0
LINE
8
BLACK
6
CONTINUOUS
10
5.39362
20
-3.82025
11
5.39507
21
-3.81906
0
LINE
8
BLACK
6
CONTINUOUS
10
5.39507
20
-3.81906
11
5.39673
21
-3.81817
0
LINE
8
BLACK
6
CONTINUOUS
10
5.39673
20
-3.81817
11
5.39853
21
-3.81763
0
LINE
8
BLACK
6
CONTINUOUS
10
5.39853
20
-3.81763
11
5.4004
21
-3.81744
0
LINE
8
BLACK
6
CONTINUOUS
10
5.4004
20
-3.81744
11
5.4196
21
-3.81744
0
LINE
8
BLACK
6
CONTINUOUS
10
5.4196
20
-3.81744
11
5.42147
21
-3.81763
0
LINE
8
BLACK
6
CONTINUOUS
10
5.34765
20
-3.81763
11
5.34945
21
-3.81817
0
LINE
8
BLACK
6
CONTINUOUS
10
5.34945
20
-3.81817
11
5.35111
21
-3.81906
0
LINE
8
BLACK
6
CONTINUOUS
10
5.35111
20
-3.81906
11
5.35256
21
-3.82025
0
LINE
8
BLACK
6
CONTINUOUS
10
5.35256
20
-3.82025
11
5.35376
21
-3.82171
0
LINE
8
BLACK
6
CONTINUOUS
10
5.35376
20
-3.82171
11
5.35464
21
-3.82336
0
LINE
8
BLACK
6
CONTINUOUS
10
5.35464
20
-3.82336
11
5.35519
21
-3.82517
0
LINE
8
BLACK
6
CONTINUOUS
10
5.35519
20
-3.82517
11
5.35537
21
-3.82704
0
LINE
8
BLACK
6
CONTINUOUS
10
5.35537
20
-3.82704
11
5.35537
21
-3.86296
0
LINE
8
BLACK
6
CONTINUOUS
10
5.35537
20
-3.86296
11
5.35519
21
-3.86483
0
LINE
8
BLACK
6
CONTINUOUS
10
5.35519
20
-3.86483
11
5.35464
21
-3.86664
0
LINE
8
BLACK
6
CONTINUOUS
10
5.35464
20
-3.86664
11
5.35376
21
-3.86829
0
LINE
8
BLACK
6
CONTINUOUS
10
5.35376
20
-3.86829
11
5.35256
21
-3.86975
0
LINE
8
BLACK
6
CONTINUOUS
10
5.35256
20
-3.86975
11
5.35111
21
-3.87094
0
LINE
8
BLACK
6
CONTINUOUS
10
5.35111
20
-3.87094
11
5.34945
21
-3.87183
0
LINE
8
BLACK
6
CONTINUOUS
10
5.34945
20
-3.87183
11
5.34765
21
-3.87237
0
LINE
8
BLACK
6
CONTINUOUS
10
5.34765
20
-3.87237
11
5.34578
21
-3.87256
0
LINE
8
BLACK
6
CONTINUOUS
10
5.34578
20
-3.87256
11
5.32658
21
-3.87256
0
LINE
8
BLACK
6
CONTINUOUS
10
5.32658
20
-3.87256
11
5.32471
21
-3.87237
0
LINE
8
BLACK
6
CONTINUOUS
10
5.32471
20
-3.87237
11
5.32291
21
-3.87183
0
LINE
8
BLACK
6
CONTINUOUS
10
5.32291
20
-3.87183
11
5.32125
21
-3.87094
0
LINE
8
BLACK
6
CONTINUOUS
10
5.32125
20
-3.87094
11
5.3198
21
-3.86975
0
LINE
8
BLACK
6
CONTINUOUS
10
5.3198
20
-3.86975
11
5.31861
21
-3.86829
0
LINE
8
BLACK
6
CONTINUOUS
10
5.31861
20
-3.86829
11
5.31772
21
-3.86664
0
LINE
8
BLACK
6
CONTINUOUS
10
5.31772
20
-3.86664
11
5.31717
21
-3.86483
0
LINE
8
BLACK
6
CONTINUOUS
10
5.31717
20
-3.86483
11
5.31699
21
-3.86296
0
LINE
8
BLACK
6
CONTINUOUS
10
5.31699
20
-3.86296
11
5.31699
21
-3.82704
0
LINE
8
BLACK
6
CONTINUOUS
10
5.31699
20
-3.82704
11
5.31717
21
-3.82517
0
LINE
8
BLACK
6
CONTINUOUS
10
5.31717
20
-3.82517
11
5.31772
21
-3.82336
0
LINE
8
BLACK
6
CONTINUOUS
10
5.31772
20
-3.82336
11
5.31861
21
-3.82171
0
LINE
8
BLACK
6
CONTINUOUS
10
5.31861
20
-3.82171
11
5.3198
21
-3.82025
0
LINE
8
BLACK
6
CONTINUOUS
10
5.3198
20
-3.82025
11
5.32125
21
-3.81906
0
LINE
8
BLACK
6
CONTINUOUS
10
5.32125
20
-3.81906
11
5.32291
21
-3.81817
0
LINE
8
BLACK
6
CONTINUOUS
10
5.32291
20
-3.81817
11
5.32471
21
-3.81763
0
LINE
8
BLACK
6
CONTINUOUS
10
5.32471
20
-3.81763
11
5.32658
21
-3.81744
0
LINE
8
BLACK
6
CONTINUOUS
10
5.32658
20
-3.81744
11
5.34578
21
-3.81744
0
LINE
8
BLACK
6
CONTINUOUS
10
5.34578
20
-3.81744
11
5.34765
21
-3.81763
0
LINE
8
BLACK
6
CONTINUOUS
10
5.42147
20
-3.68763
11
5.42327
21
-3.68817
0
LINE
8
BLACK
6
CONTINUOUS
10
5.42327
20
-3.68817
11
5.42493
21
-3.68906
0
LINE
8
BLACK
6
CONTINUOUS
10
5.42493
20
-3.68906
11
5.42638
21
-3.69025
0
LINE
8
BLACK
6
CONTINUOUS
10
5.42638
20
-3.69025
11
5.42758
21
-3.69171
0
LINE
8
BLACK
6
CONTINUOUS
10
5.42758
20
-3.69171
11
5.42846
21
-3.69337
0
LINE
8
BLACK
6
CONTINUOUS
10
5.42846
20
-3.69337
11
5.42901
21
-3.69517
0
LINE
8
BLACK
6
CONTINUOUS
10
5.42901
20
-3.69517
11
5.42919
21
-3.69704
0
LINE
8
BLACK
6
CONTINUOUS
10
5.42919
20
-3.69704
11
5.42919
21
-3.73296
0
LINE
8
BLACK
6
CONTINUOUS
10
5.42919
20
-3.73296
11
5.42901
21
-3.73483
0
LINE
8
BLACK
6
CONTINUOUS
10
5.42901
20
-3.73483
11
5.42846
21
-3.73663
0
LINE
8
BLACK
6
CONTINUOUS
10
5.42846
20
-3.73663
11
5.42758
21
-3.73829
0
LINE
8
BLACK
6
CONTINUOUS
10
5.42758
20
-3.73829
11
5.42638
21
-3.73975
0
LINE
8
BLACK
6
CONTINUOUS
10
5.42638
20
-3.73975
11
5.42493
21
-3.74094
0
LINE
8
BLACK
6
CONTINUOUS
10
5.42493
20
-3.74094
11
5.42327
21
-3.74183
0
LINE
8
BLACK
6
CONTINUOUS
10
5.42327
20
-3.74183
11
5.42147
21
-3.74237
0
LINE
8
BLACK
6
CONTINUOUS
10
5.42147
20
-3.74237
11
5.4196
21
-3.74256
0
LINE
8
BLACK
6
CONTINUOUS
10
5.4196
20
-3.74256
11
5.4004
21
-3.74256
0
LINE
8
BLACK
6
CONTINUOUS
10
5.4004
20
-3.74256
11
5.39853
21
-3.74237
0
LINE
8
BLACK
6
CONTINUOUS
10
5.39853
20
-3.74237
11
5.39673
21
-3.74183
0
LINE
8
BLACK
6
CONTINUOUS
10
5.39673
20
-3.74183
11
5.39507
21
-3.74094
0
LINE
8
BLACK
6
CONTINUOUS
10
5.39507
20
-3.74094
11
5.39362
21
-3.73975
0
LINE
8
BLACK
6
CONTINUOUS
10
5.39362
20
-3.73975
11
5.39242
21
-3.73829
0
LINE
8
BLACK
6
CONTINUOUS
10
5.39242
20
-3.73829
11
5.39154
21
-3.73663
0
LINE
8
BLACK
6
CONTINUOUS
10
5.39154
20
-3.73663
11
5.39099
21
-3.73483
0
LINE
8
BLACK
6
CONTINUOUS
10
5.39099
20
-3.73483
11
5.39081
21
-3.73296
0
LINE
8
BLACK
6
CONTINUOUS
10
5.39081
20
-3.73296
11
5.39081
21
-3.69704
0
LINE
8
BLACK
6
CONTINUOUS
10
5.39081
20
-3.69704
11
5.39099
21
-3.69517
0
LINE
8
BLACK
6
CONTINUOUS
10
5.39099
20
-3.69517
11
5.39154
21
-3.69337
0
LINE
8
BLACK
6
CONTINUOUS
10
5.39154
20
-3.69337
11
5.39242
21
-3.69171
0
LINE
8
BLACK
6
CONTINUOUS
10
5.39242
20
-3.69171
11
5.39362
21
-3.69025
0
LINE
8
BLACK
6
CONTINUOUS
10
5.39362
20
-3.69025
11
5.39507
21
-3.68906
0
LINE
8
BLACK
6
CONTINUOUS
10
5.39507
20
-3.68906
11
5.39673
21
-3.68817
0
LINE
8
BLACK
6
CONTINUOUS
10
5.39673
20
-3.68817
11
5.39853
21
-3.68763
0
LINE
8
BLACK
6
CONTINUOUS
10
5.39853
20
-3.68763
11
5.4004
21
-3.68744
0
LINE
8
BLACK
6
CONTINUOUS
10
5.4004
20
-3.68744
11
5.4196
21
-3.68744
0
LINE
8
BLACK
6
CONTINUOUS
10
5.4196
20
-3.68744
11
5.42147
21
-3.68763
0
LINE
8
BLACK
6
CONTINUOUS
10
5.34765
20
-3.68763
11
5.34945
21
-3.68817
0
LINE
8
BLACK
6
CONTINUOUS
10
5.34945
20
-3.68817
11
5.35111
21
-3.68906
0
LINE
8
BLACK
6
CONTINUOUS
10
5.35111
20
-3.68906
11
5.35256
21
-3.69025
0
LINE
8
BLACK
6
CONTINUOUS
10
5.35256
20
-3.69025
11
5.35376
21
-3.69171
0
LINE
8
BLACK
6
CONTINUOUS
10
5.35376
20
-3.69171
11
5.35464
21
-3.69337
0
LINE
8
BLACK
6
CONTINUOUS
10
5.35464
20
-3.69337
11
5.35519
21
-3.69517
0
LINE
8
BLACK
6
CONTINUOUS
10
5.35519
20
-3.69517
11
5.35537
21
-3.69704
0
LINE
8
BLACK
6
CONTINUOUS
10
5.35537
20
-3.69704
11
5.35537
21
-3.73296
0
LINE
8
BLACK
6
CONTINUOUS
10
5.35537
20
-3.73296
11
5.35519
21
-3.73483
0
LINE
8
BLACK
6
CONTINUOUS
10
5.35519
20
-3.73483
11
5.35464
21
-3.73663
0
LINE
8
BLACK
6
CONTINUOUS
10
5.35464
20
-3.73663
11
5.35376
21
-3.73829
0
LINE
8
BLACK
6
CONTINUOUS
10
5.35376
20
-3.73829
11
5.35256
21
-3.73975
0
LINE
8
BLACK
6
CONTINUOUS
10
5.35256
20
-3.73975
11
5.35111
21
-3.74094
0
LINE
8
BLACK
6
CONTINUOUS
10
5.35111
20
-3.74094
11
5.34945
21
-3.74183
0
LINE
8
BLACK
6
CONTINUOUS
10
5.34945
20
-3.74183
11
5.34765
21
-3.74237
0
LINE
8
BLACK
6
CONTINUOUS
10
5.34765
20
-3.74237
11
5.34578
21
-3.74256
0
LINE
8
BLACK
6
CONTINUOUS
10
5.34578
20
-3.74256
11
5.32658
21
-3.74256
0
LINE
8
BLACK
6
CONTINUOUS
10
5.32658
20
-3.74256
11
5.32471
21
-3.74237
0
LINE
8
BLACK
6
CONTINUOUS
10
5.32471
20
-3.74237
11
5.32291
21
-3.74183
0
LINE
8
BLACK
6
CONTINUOUS
10
5.32291
20
-3.74183
11
5.32125
21
-3.74094
0
LINE
8
BLACK
6
CONTINUOUS
10
5.32125
20
-3.74094
11
5.3198
21
-3.73975
0
LINE
8
BLACK
6
CONTINUOUS
10
5.3198
20
-3.73975
11
5.31861
21
-3.73829
0
LINE
8
BLACK
6
CONTINUOUS
10
5.31861
20
-3.73829
11
5.31772
21
-3.73663
0
LINE
8
BLACK
6
CONTINUOUS
10
5.31772
20
-3.73663
11
5.31717
21
-3.73483
0
LINE
8
BLACK
6
CONTINUOUS
10
5.31717
20
-3.73483
11
5.31699
21
-3.73296
0
LINE
8
BLACK
6
CONTINUOUS
10
5.31699
20
-3.73296
11
5.31699
21
-3.69704
0
LINE
8
BLACK
6
CONTINUOUS
10
5.31699
20
-3.69704
11
5.31717
21
-3.69517
0
LINE
8
BLACK
6
CONTINUOUS
10
5.31717
20
-3.69517
11
5.31772
21
-3.69337
0
LINE
8
BLACK
6
CONTINUOUS
10
5.31772
20
-3.69337
11
5.31861
21
-3.69171
0
LINE
8
BLACK
6
CONTINUOUS
10
5.31861
20
-3.69171
11
5.3198
21
-3.69025
0
LINE
8
BLACK
6
CONTINUOUS
10
5.3198
20
-3.69025
11
5.32125
21
-3.68906
0
LINE
8
BLACK
6
CONTINUOUS
10
5.32125
20
-3.68906
11
5.32291
21
-3.68817
0
LINE
8
BLACK
6
CONTINUOUS
10
5.32291
20
-3.68817
11
5.32471
21
-3.68763
0
LINE
8
BLACK
6
CONTINUOUS
10
5.32471
20
-3.68763
11
5.32658
21
-3.68744
0
LINE
8
BLACK
6
CONTINUOUS
10
5.32658
20
-3.68744
11
5.34578
21
-3.68744
0
LINE
8
BLACK
6
CONTINUOUS
10
5.34578
20
-3.68744
11
5.34765
21
-3.68763
  0
ENDSEC
  0
EOF
