  0
SECTION
  2
HEADER
  9
$ANGBASE
  50
0.0
  9
$ANGDIR
  70
1
  9
$MEASUREMENT
  70
0
  0
ENDSEC
  0
SECTION
  2
TABLES
  0
TABLE
  2
LTYPE
  70
4
  0
LTYPE
  5
40F
  2
CONTINUOUS
  70
0
  3
Solid line
  72
65
  73
0
  40
0.0
  0
LTYPE
  5
410
  2
DASHDOT
 70
0
  3
Dash Dot ____ _ ____ _
 72
65
 73
4
 40
2.0
 49
1.25
 49
-0.25
 49
0.25
 49
-0.25
  0
LTYPE
  5
411
  2
DASHED
 70
0
  3
Dashed __ __ __ __ __
 72
65
 73
2
 40
0.75
 49
0.5
 49
-0.25
  0
LTYPE
  5
43B
  2
DOTTED
 70
0
  3
Dotted .  .  .  .
 72
65
 73
2
 40
0.2
 49
0.0
 49
-0.2
  0
ENDTAB
  0
TABLE
  2
STYLE
  70
4
  0
STYLE
  2
KICAD
  70
0
  40
0
  41
1
  42
1
  50
0
  71
0
  3
isocp.shx
  0
STYLE
  2
KICADB
  70
0
  40
0
  41
1
  42
1
  50
0
  71
0
  3
isocp.shx
  0
STYLE
  2
KICADI
  70
0
  40
0
  41
1
  42
1
  50
15
  71
0
  3
isocp.shx
  0
STYLE
  2
KICADBI
  70
0
  40
0
  41
1
  42
1
  50
15
  71
0
  3
isocp.shx
  0
ENDTAB
  0
TABLE
  2
LAYER
  70
1
  0
LAYER
  2
BLACK
  70
0
  62
7
  6
CONTINUOUS
  0
ENDTAB
  0
ENDSEC
  0
SECTION
  2
ENTITIES
0
LINE
8
BLACK
6
CONTINUOUS
10
5.77352
20
-3.98766
11
5.78427
21
-3.99211
0
LINE
8
BLACK
6
CONTINUOUS
10
5.78427
20
-3.99211
11
5.79394
21
-3.99858
0
LINE
8
BLACK
6
CONTINUOUS
10
5.79394
20
-3.99858
11
5.80217
21
-4.0068
0
LINE
8
BLACK
6
CONTINUOUS
10
5.80217
20
-4.0068
11
5.80863
21
-4.01648
0
LINE
8
BLACK
6
CONTINUOUS
10
5.80863
20
-4.01648
11
5.81308
21
-4.02722
0
LINE
8
BLACK
6
CONTINUOUS
10
5.81308
20
-4.02722
11
5.81535
21
-4.03863
0
LINE
8
BLACK
6
CONTINUOUS
10
5.81535
20
-4.03863
11
5.81535
21
-4.05027
0
LINE
8
BLACK
6
CONTINUOUS
10
5.81535
20
-4.05027
11
5.81308
21
-4.06167
0
LINE
8
BLACK
6
CONTINUOUS
10
5.81308
20
-4.06167
11
5.80863
21
-4.07242
0
LINE
8
BLACK
6
CONTINUOUS
10
5.80863
20
-4.07242
11
5.80217
21
-4.08209
0
LINE
8
BLACK
6
CONTINUOUS
10
5.80217
20
-4.08209
11
5.79394
21
-4.09032
0
LINE
8
BLACK
6
CONTINUOUS
10
5.79394
20
-4.09032
11
5.78427
21
-4.09678
0
LINE
8
BLACK
6
CONTINUOUS
10
5.78427
20
-4.09678
11
5.77352
21
-4.10123
0
LINE
8
BLACK
6
CONTINUOUS
10
5.77352
20
-4.10123
11
5.76212
21
-4.1035
0
LINE
8
BLACK
6
CONTINUOUS
10
5.76212
20
-4.1035
11
5.75048
21
-4.1035
0
LINE
8
BLACK
6
CONTINUOUS
10
5.75048
20
-4.1035
11
5.73907
21
-4.10123
0
LINE
8
BLACK
6
CONTINUOUS
10
5.73907
20
-4.10123
11
5.72833
21
-4.09678
0
LINE
8
BLACK
6
CONTINUOUS
10
5.72833
20
-4.09678
11
5.71865
21
-4.09032
0
LINE
8
BLACK
6
CONTINUOUS
10
5.71865
20
-4.09032
11
5.71043
21
-4.08209
0
LINE
8
BLACK
6
CONTINUOUS
10
5.71043
20
-4.08209
11
5.70397
21
-4.07242
0
LINE
8
BLACK
6
CONTINUOUS
10
5.70397
20
-4.07242
11
5.69951
21
-4.06167
0
LINE
8
BLACK
6
CONTINUOUS
10
5.69951
20
-4.06167
11
5.69724
21
-4.05027
0
LINE
8
BLACK
6
CONTINUOUS
10
5.69724
20
-4.05027
11
5.69724
21
-4.03863
0
LINE
8
BLACK
6
CONTINUOUS
10
5.69724
20
-4.03863
11
5.69951
21
-4.02722
0
LINE
8
BLACK
6
CONTINUOUS
10
5.69951
20
-4.02722
11
5.70397
21
-4.01648
0
LINE
8
BLACK
6
CONTINUOUS
10
5.70397
20
-4.01648
11
5.71043
21
-4.0068
0
LINE
8
BLACK
6
CONTINUOUS
10
5.71043
20
-4.0068
11
5.71865
21
-3.99858
0
LINE
8
BLACK
6
CONTINUOUS
10
5.71865
20
-3.99858
11
5.72833
21
-3.99211
0
LINE
8
BLACK
6
CONTINUOUS
10
5.72833
20
-3.99211
11
5.73907
21
-3.98766
0
LINE
8
BLACK
6
CONTINUOUS
10
5.73907
20
-3.98766
11
5.75048
21
-3.98539
0
LINE
8
BLACK
6
CONTINUOUS
10
5.75048
20
-3.98539
11
5.76212
21
-3.98539
0
LINE
8
BLACK
6
CONTINUOUS
10
5.76212
20
-3.98539
11
5.77352
21
-3.98766
0
LINE
8
BLACK
6
CONTINUOUS
10
5.18976
20
-3.98282
11
5.19585
21
-3.98534
0
LINE
8
BLACK
6
CONTINUOUS
10
5.19585
20
-3.98534
11
5.20133
21
-3.98901
0
LINE
8
BLACK
6
CONTINUOUS
10
5.20133
20
-3.98901
11
5.20599
21
-3.99367
0
LINE
8
BLACK
6
CONTINUOUS
10
5.20599
20
-3.99367
11
5.20966
21
-3.99915
0
LINE
8
BLACK
6
CONTINUOUS
10
5.20966
20
-3.99915
11
5.21218
21
-4.00524
0
LINE
8
BLACK
6
CONTINUOUS
10
5.21218
20
-4.00524
11
5.21346
21
-4.0117
0
LINE
8
BLACK
6
CONTINUOUS
10
5.21346
20
-4.0117
11
5.21346
21
-4.0183
0
LINE
8
BLACK
6
CONTINUOUS
10
5.21346
20
-4.0183
11
5.21218
21
-4.02476
0
LINE
8
BLACK
6
CONTINUOUS
10
5.21218
20
-4.02476
11
5.20966
21
-4.03085
0
LINE
8
BLACK
6
CONTINUOUS
10
5.20966
20
-4.03085
11
5.20599
21
-4.03633
0
LINE
8
BLACK
6
CONTINUOUS
10
5.20599
20
-4.03633
11
5.20133
21
-4.04099
0
LINE
8
BLACK
6
CONTINUOUS
10
5.20133
20
-4.04099
11
5.19585
21
-4.04466
0
LINE
8
BLACK
6
CONTINUOUS
10
5.19585
20
-4.04466
11
5.18976
21
-4.04718
0
LINE
8
BLACK
6
CONTINUOUS
10
5.18976
20
-4.04718
11
5.1833
21
-4.04846
0
LINE
8
BLACK
6
CONTINUOUS
10
5.1833
20
-4.04846
11
5.1767
21
-4.04846
0
LINE
8
BLACK
6
CONTINUOUS
10
5.1767
20
-4.04846
11
5.17024
21
-4.04718
0
LINE
8
BLACK
6
CONTINUOUS
10
5.17024
20
-4.04718
11
5.16415
21
-4.04466
0
LINE
8
BLACK
6
CONTINUOUS
10
5.16415
20
-4.04466
11
5.15867
21
-4.04099
0
LINE
8
BLACK
6
CONTINUOUS
10
5.15867
20
-4.04099
11
5.15401
21
-4.03633
0
LINE
8
BLACK
6
CONTINUOUS
10
5.15401
20
-4.03633
11
5.15034
21
-4.03085
0
LINE
8
BLACK
6
CONTINUOUS
10
5.15034
20
-4.03085
11
5.14782
21
-4.02476
0
LINE
8
BLACK
6
CONTINUOUS
10
5.14782
20
-4.02476
11
5.14654
21
-4.0183
0
LINE
8
BLACK
6
CONTINUOUS
10
5.14654
20
-4.0183
11
5.14654
21
-4.0117
0
LINE
8
BLACK
6
CONTINUOUS
10
5.14654
20
-4.0117
11
5.14782
21
-4.00524
0
LINE
8
BLACK
6
CONTINUOUS
10
5.14782
20
-4.00524
11
5.15034
21
-3.99915
0
LINE
8
BLACK
6
CONTINUOUS
10
5.15034
20
-3.99915
11
5.15401
21
-3.99367
0
LINE
8
BLACK
6
CONTINUOUS
10
5.15401
20
-3.99367
11
5.15867
21
-3.98901
0
LINE
8
BLACK
6
CONTINUOUS
10
5.15867
20
-3.98901
11
5.16415
21
-3.98534
0
LINE
8
BLACK
6
CONTINUOUS
10
5.16415
20
-3.98534
11
5.17024
21
-3.98282
0
LINE
8
BLACK
6
CONTINUOUS
10
5.17024
20
-3.98282
11
5.1767
21
-3.98154
0
LINE
8
BLACK
6
CONTINUOUS
10
5.1767
20
-3.98154
11
5.1833
21
-3.98154
0
LINE
8
BLACK
6
CONTINUOUS
10
5.1833
20
-3.98154
11
5.18976
21
-3.98282
0
LINE
8
BLACK
6
CONTINUOUS
10
5.51614
20
-3.96512
11
5.44528
21
-3.96512
0
LINE
8
BLACK
6
CONTINUOUS
10
5.44528
20
-3.96512
11
5.44528
21
-3.92299
0
LINE
8
BLACK
6
CONTINUOUS
10
5.44528
20
-3.92299
11
5.51614
21
-3.92299
0
LINE
8
BLACK
6
CONTINUOUS
10
5.51614
20
-3.92299
11
5.51614
21
-3.96512
0
LINE
8
BLACK
6
CONTINUOUS
10
5.18976
20
-3.88282
11
5.19585
21
-3.88534
0
LINE
8
BLACK
6
CONTINUOUS
10
5.19585
20
-3.88534
11
5.20133
21
-3.88901
0
LINE
8
BLACK
6
CONTINUOUS
10
5.20133
20
-3.88901
11
5.20599
21
-3.89367
0
LINE
8
BLACK
6
CONTINUOUS
10
5.20599
20
-3.89367
11
5.20966
21
-3.89915
0
LINE
8
BLACK
6
CONTINUOUS
10
5.20966
20
-3.89915
11
5.21218
21
-3.90524
0
LINE
8
BLACK
6
CONTINUOUS
10
5.21218
20
-3.90524
11
5.21346
21
-3.9117
0
LINE
8
BLACK
6
CONTINUOUS
10
5.21346
20
-3.9117
11
5.21346
21
-3.9183
0
LINE
8
BLACK
6
CONTINUOUS
10
5.21346
20
-3.9183
11
5.21218
21
-3.92476
0
LINE
8
BLACK
6
CONTINUOUS
10
5.21218
20
-3.92476
11
5.20966
21
-3.93085
0
LINE
8
BLACK
6
CONTINUOUS
10
5.20966
20
-3.93085
11
5.20599
21
-3.93633
0
LINE
8
BLACK
6
CONTINUOUS
10
5.20599
20
-3.93633
11
5.20133
21
-3.94099
0
LINE
8
BLACK
6
CONTINUOUS
10
5.20133
20
-3.94099
11
5.19585
21
-3.94466
0
LINE
8
BLACK
6
CONTINUOUS
10
5.19585
20
-3.94466
11
5.18976
21
-3.94718
0
LINE
8
BLACK
6
CONTINUOUS
10
5.18976
20
-3.94718
11
5.1833
21
-3.94846
0
LINE
8
BLACK
6
CONTINUOUS
10
5.1833
20
-3.94846
11
5.1767
21
-3.94846
0
LINE
8
BLACK
6
CONTINUOUS
10
5.1767
20
-3.94846
11
5.17024
21
-3.94718
0
LINE
8
BLACK
6
CONTINUOUS
10
5.17024
20
-3.94718
11
5.16415
21
-3.94466
0
LINE
8
BLACK
6
CONTINUOUS
10
5.16415
20
-3.94466
11
5.15867
21
-3.94099
0
LINE
8
BLACK
6
CONTINUOUS
10
5.15867
20
-3.94099
11
5.15401
21
-3.93633
0
LINE
8
BLACK
6
CONTINUOUS
10
5.15401
20
-3.93633
11
5.15034
21
-3.93085
0
LINE
8
BLACK
6
CONTINUOUS
10
5.15034
20
-3.93085
11
5.14782
21
-3.92476
0
LINE
8
BLACK
6
CONTINUOUS
10
5.14782
20
-3.92476
11
5.14654
21
-3.9183
0
LINE
8
BLACK
6
CONTINUOUS
10
5.14654
20
-3.9183
11
5.14654
21
-3.9117
0
LINE
8
BLACK
6
CONTINUOUS
10
5.14654
20
-3.9117
11
5.14782
21
-3.90524
0
LINE
8
BLACK
6
CONTINUOUS
10
5.14782
20
-3.90524
11
5.15034
21
-3.89915
0
LINE
8
BLACK
6
CONTINUOUS
10
5.15034
20
-3.89915
11
5.15401
21
-3.89367
0
LINE
8
BLACK
6
CONTINUOUS
10
5.15401
20
-3.89367
11
5.15867
21
-3.88901
0
LINE
8
BLACK
6
CONTINUOUS
10
5.15867
20
-3.88901
11
5.16415
21
-3.88534
0
LINE
8
BLACK
6
CONTINUOUS
10
5.16415
20
-3.88534
11
5.17024
21
-3.88282
0
LINE
8
BLACK
6
CONTINUOUS
10
5.17024
20
-3.88282
11
5.1767
21
-3.88154
0
LINE
8
BLACK
6
CONTINUOUS
10
5.1767
20
-3.88154
11
5.1833
21
-3.88154
0
LINE
8
BLACK
6
CONTINUOUS
10
5.1833
20
-3.88154
11
5.18976
21
-3.88282
0
LINE
8
BLACK
6
CONTINUOUS
10
5.49921
20
-3.8733
11
5.50318
21
-3.8745
0
LINE
8
BLACK
6
CONTINUOUS
10
5.50318
20
-3.8745
11
5.50684
21
-3.87646
0
LINE
8
BLACK
6
CONTINUOUS
10
5.50684
20
-3.87646
11
5.51004
21
-3.87909
0
LINE
8
BLACK
6
CONTINUOUS
10
5.51004
20
-3.87909
11
5.51268
21
-3.8823
0
LINE
8
BLACK
6
CONTINUOUS
10
5.51268
20
-3.8823
11
5.51463
21
-3.88596
0
LINE
8
BLACK
6
CONTINUOUS
10
5.51463
20
-3.88596
11
5.51584
21
-3.88993
0
LINE
8
BLACK
6
CONTINUOUS
10
5.51584
20
-3.88993
11
5.51624
21
-3.89406
0
LINE
8
BLACK
6
CONTINUOUS
10
5.51624
20
-3.89406
11
5.51584
21
-3.89818
0
LINE
8
BLACK
6
CONTINUOUS
10
5.51584
20
-3.89818
11
5.51463
21
-3.90215
0
LINE
8
BLACK
6
CONTINUOUS
10
5.51463
20
-3.90215
11
5.51268
21
-3.90581
0
LINE
8
BLACK
6
CONTINUOUS
10
5.51268
20
-3.90581
11
5.51004
21
-3.90902
0
LINE
8
BLACK
6
CONTINUOUS
10
5.51004
20
-3.90902
11
5.50684
21
-3.91165
0
LINE
8
BLACK
6
CONTINUOUS
10
5.50684
20
-3.91165
11
5.50318
21
-3.91361
0
LINE
8
BLACK
6
CONTINUOUS
10
5.50318
20
-3.91361
11
5.49921
21
-3.91481
0
LINE
8
BLACK
6
CONTINUOUS
10
5.49921
20
-3.91481
11
5.49611
21
-3.91512
0
LINE
8
BLACK
6
CONTINUOUS
10
5.49611
20
-3.91512
11
5.4653
21
-3.91512
0
LINE
8
BLACK
6
CONTINUOUS
10
5.4653
20
-3.91512
11
5.46221
21
-3.91481
0
LINE
8
BLACK
6
CONTINUOUS
10
5.46221
20
-3.91481
11
5.45824
21
-3.91361
0
LINE
8
BLACK
6
CONTINUOUS
10
5.45824
20
-3.91361
11
5.45458
21
-3.91165
0
LINE
8
BLACK
6
CONTINUOUS
10
5.45458
20
-3.91165
11
5.45137
21
-3.90902
0
LINE
8
BLACK
6
CONTINUOUS
10
5.45137
20
-3.90902
11
5.44874
21
-3.90581
0
LINE
8
BLACK
6
CONTINUOUS
10
5.44874
20
-3.90581
11
5.44678
21
-3.90215
0
LINE
8
BLACK
6
CONTINUOUS
10
5.44678
20
-3.90215
11
5.44558
21
-3.89818
0
LINE
8
BLACK
6
CONTINUOUS
10
5.44558
20
-3.89818
11
5.44517
21
-3.89406
0
LINE
8
BLACK
6
CONTINUOUS
10
5.44517
20
-3.89406
11
5.44558
21
-3.88993
0
LINE
8
BLACK
6
CONTINUOUS
10
5.44558
20
-3.88993
11
5.44678
21
-3.88596
0
LINE
8
BLACK
6
CONTINUOUS
10
5.44678
20
-3.88596
11
5.44874
21
-3.8823
0
LINE
8
BLACK
6
CONTINUOUS
10
5.44874
20
-3.8823
11
5.45137
21
-3.87909
0
LINE
8
BLACK
6
CONTINUOUS
10
5.45137
20
-3.87909
11
5.45458
21
-3.87646
0
LINE
8
BLACK
6
CONTINUOUS
10
5.45458
20
-3.87646
11
5.45824
21
-3.8745
0
LINE
8
BLACK
6
CONTINUOUS
10
5.45824
20
-3.8745
11
5.46221
21
-3.8733
0
LINE
8
BLACK
6
CONTINUOUS
10
5.46221
20
-3.8733
11
5.4653
21
-3.87299
0
LINE
8
BLACK
6
CONTINUOUS
10
5.4653
20
-3.87299
11
5.49611
21
-3.87299
0
LINE
8
BLACK
6
CONTINUOUS
10
5.49611
20
-3.87299
11
5.49921
21
-3.8733
0
LINE
8
BLACK
6
CONTINUOUS
10
5.49921
20
-3.8233
11
5.50318
21
-3.8245
0
LINE
8
BLACK
6
CONTINUOUS
10
5.50318
20
-3.8245
11
5.50684
21
-3.82646
0
LINE
8
BLACK
6
CONTINUOUS
10
5.50684
20
-3.82646
11
5.51004
21
-3.82909
0
LINE
8
BLACK
6
CONTINUOUS
10
5.51004
20
-3.82909
11
5.51268
21
-3.8323
0
LINE
8
BLACK
6
CONTINUOUS
10
5.51268
20
-3.8323
11
5.51463
21
-3.83596
0
LINE
8
BLACK
6
CONTINUOUS
10
5.51463
20
-3.83596
11
5.51584
21
-3.83993
0
LINE
8
BLACK
6
CONTINUOUS
10
5.51584
20
-3.83993
11
5.51624
21
-3.84406
0
LINE
8
BLACK
6
CONTINUOUS
10
5.51624
20
-3.84406
11
5.51584
21
-3.84818
0
LINE
8
BLACK
6
CONTINUOUS
10
5.51584
20
-3.84818
11
5.51463
21
-3.85215
0
LINE
8
BLACK
6
CONTINUOUS
10
5.51463
20
-3.85215
11
5.51268
21
-3.85581
0
LINE
8
BLACK
6
CONTINUOUS
10
5.51268
20
-3.85581
11
5.51004
21
-3.85902
0
LINE
8
BLACK
6
CONTINUOUS
10
5.51004
20
-3.85902
11
5.50684
21
-3.86165
0
LINE
8
BLACK
6
CONTINUOUS
10
5.50684
20
-3.86165
11
5.50318
21
-3.86361
0
LINE
8
BLACK
6
CONTINUOUS
10
5.50318
20
-3.86361
11
5.49921
21
-3.86481
0
LINE
8
BLACK
6
CONTINUOUS
10
5.49921
20
-3.86481
11
5.49611
21
-3.86512
0
LINE
8
BLACK
6
CONTINUOUS
10
5.49611
20
-3.86512
11
5.4653
21
-3.86512
0
LINE
8
BLACK
6
CONTINUOUS
10
5.4653
20
-3.86512
11
5.46221
21
-3.86481
0
LINE
8
BLACK
6
CONTINUOUS
10
5.46221
20
-3.86481
11
5.45824
21
-3.86361
0
LINE
8
BLACK
6
CONTINUOUS
10
5.45824
20
-3.86361
11
5.45458
21
-3.86165
0
LINE
8
BLACK
6
CONTINUOUS
10
5.45458
20
-3.86165
11
5.45137
21
-3.85902
0
LINE
8
BLACK
6
CONTINUOUS
10
5.45137
20
-3.85902
11
5.44874
21
-3.85581
0
LINE
8
BLACK
6
CONTINUOUS
10
5.44874
20
-3.85581
11
5.44678
21
-3.85215
0
LINE
8
BLACK
6
CONTINUOUS
10
5.44678
20
-3.85215
11
5.44558
21
-3.84818
0
LINE
8
BLACK
6
CONTINUOUS
10
5.44558
20
-3.84818
11
5.44517
21
-3.84406
0
LINE
8
BLACK
6
CONTINUOUS
10
5.44517
20
-3.84406
11
5.44558
21
-3.83993
0
LINE
8
BLACK
6
CONTINUOUS
10
5.44558
20
-3.83993
11
5.44678
21
-3.83596
0
LINE
8
BLACK
6
CONTINUOUS
10
5.44678
20
-3.83596
11
5.44874
21
-3.8323
0
LINE
8
BLACK
6
CONTINUOUS
10
5.44874
20
-3.8323
11
5.45137
21
-3.82909
0
LINE
8
BLACK
6
CONTINUOUS
10
5.45137
20
-3.82909
11
5.45458
21
-3.82646
0
LINE
8
BLACK
6
CONTINUOUS
10
5.45458
20
-3.82646
11
5.45824
21
-3.8245
0
LINE
8
BLACK
6
CONTINUOUS
10
5.45824
20
-3.8245
11
5.46221
21
-3.8233
0
LINE
8
BLACK
6
CONTINUOUS
10
5.46221
20
-3.8233
11
5.4653
21
-3.82299
0
LINE
8
BLACK
6
CONTINUOUS
10
5.4653
20
-3.82299
11
5.49611
21
-3.82299
0
LINE
8
BLACK
6
CONTINUOUS
10
5.49611
20
-3.82299
11
5.49921
21
-3.8233
0
LINE
8
BLACK
6
CONTINUOUS
10
5.18976
20
-3.78282
11
5.19585
21
-3.78534
0
LINE
8
BLACK
6
CONTINUOUS
10
5.19585
20
-3.78534
11
5.20133
21
-3.78901
0
LINE
8
BLACK
6
CONTINUOUS
10
5.20133
20
-3.78901
11
5.20599
21
-3.79367
0
LINE
8
BLACK
6
CONTINUOUS
10
5.20599
20
-3.79367
11
5.20966
21
-3.79915
0
LINE
8
BLACK
6
CONTINUOUS
10
5.20966
20
-3.79915
11
5.21218
21
-3.80524
0
LINE
8
BLACK
6
CONTINUOUS
10
5.21218
20
-3.80524
11
5.21346
21
-3.8117
0
LINE
8
BLACK
6
CONTINUOUS
10
5.21346
20
-3.8117
11
5.21346
21
-3.8183
0
LINE
8
BLACK
6
CONTINUOUS
10
5.21346
20
-3.8183
11
5.21218
21
-3.82476
0
LINE
8
BLACK
6
CONTINUOUS
10
5.21218
20
-3.82476
11
5.20966
21
-3.83085
0
LINE
8
BLACK
6
CONTINUOUS
10
5.20966
20
-3.83085
11
5.20599
21
-3.83633
0
LINE
8
BLACK
6
CONTINUOUS
10
5.20599
20
-3.83633
11
5.20133
21
-3.84099
0
LINE
8
BLACK
6
CONTINUOUS
10
5.20133
20
-3.84099
11
5.19585
21
-3.84466
0
LINE
8
BLACK
6
CONTINUOUS
10
5.19585
20
-3.84466
11
5.18976
21
-3.84718
0
LINE
8
BLACK
6
CONTINUOUS
10
5.18976
20
-3.84718
11
5.1833
21
-3.84846
0
LINE
8
BLACK
6
CONTINUOUS
10
5.1833
20
-3.84846
11
5.1767
21
-3.84846
0
LINE
8
BLACK
6
CONTINUOUS
10
5.1767
20
-3.84846
11
5.17024
21
-3.84718
0
LINE
8
BLACK
6
CONTINUOUS
10
5.17024
20
-3.84718
11
5.16415
21
-3.84466
0
LINE
8
BLACK
6
CONTINUOUS
10
5.16415
20
-3.84466
11
5.15867
21
-3.84099
0
LINE
8
BLACK
6
CONTINUOUS
10
5.15867
20
-3.84099
11
5.15401
21
-3.83633
0
LINE
8
BLACK
6
CONTINUOUS
10
5.15401
20
-3.83633
11
5.15034
21
-3.83085
0
LINE
8
BLACK
6
CONTINUOUS
10
5.15034
20
-3.83085
11
5.14782
21
-3.82476
0
LINE
8
BLACK
6
CONTINUOUS
10
5.14782
20
-3.82476
11
5.14654
21
-3.8183
0
LINE
8
BLACK
6
CONTINUOUS
10
5.14654
20
-3.8183
11
5.14654
21
-3.8117
0
LINE
8
BLACK
6
CONTINUOUS
10
5.14654
20
-3.8117
11
5.14782
21
-3.80524
0
LINE
8
BLACK
6
CONTINUOUS
10
5.14782
20
-3.80524
11
5.15034
21
-3.79915
0
LINE
8
BLACK
6
CONTINUOUS
10
5.15034
20
-3.79915
11
5.15401
21
-3.79367
0
LINE
8
BLACK
6
CONTINUOUS
10
5.15401
20
-3.79367
11
5.15867
21
-3.78901
0
LINE
8
BLACK
6
CONTINUOUS
10
5.15867
20
-3.78901
11
5.16415
21
-3.78534
0
LINE
8
BLACK
6
CONTINUOUS
10
5.16415
20
-3.78534
11
5.17024
21
-3.78282
0
LINE
8
BLACK
6
CONTINUOUS
10
5.17024
20
-3.78282
11
5.1767
21
-3.78154
0
LINE
8
BLACK
6
CONTINUOUS
10
5.1767
20
-3.78154
11
5.1833
21
-3.78154
0
LINE
8
BLACK
6
CONTINUOUS
10
5.1833
20
-3.78154
11
5.18976
21
-3.78282
0
LINE
8
BLACK
6
CONTINUOUS
10
5.49921
20
-3.7733
11
5.50318
21
-3.7745
0
LINE
8
BLACK
6
CONTINUOUS
10
5.50318
20
-3.7745
11
5.50684
21
-3.77646
0
LINE
8
BLACK
6
CONTINUOUS
10
5.50684
20
-3.77646
11
5.51004
21
-3.77909
0
LINE
8
BLACK
6
CONTINUOUS
10
5.51004
20
-3.77909
11
5.51268
21
-3.7823
0
LINE
8
BLACK
6
CONTINUOUS
10
5.51268
20
-3.7823
11
5.51463
21
-3.78596
0
LINE
8
BLACK
6
CONTINUOUS
10
5.51463
20
-3.78596
11
5.51584
21
-3.78993
0
LINE
8
BLACK
6
CONTINUOUS
10
5.51584
20
-3.78993
11
5.51624
21
-3.79406
0
LINE
8
BLACK
6
CONTINUOUS
10
5.51624
20
-3.79406
11
5.51584
21
-3.79818
0
LINE
8
BLACK
6
CONTINUOUS
10
5.51584
20
-3.79818
11
5.51463
21
-3.80215
0
LINE
8
BLACK
6
CONTINUOUS
10
5.51463
20
-3.80215
11
5.51268
21
-3.80581
0
LINE
8
BLACK
6
CONTINUOUS
10
5.51268
20
-3.80581
11
5.51004
21
-3.80902
0
LINE
8
BLACK
6
CONTINUOUS
10
5.51004
20
-3.80902
11
5.50684
21
-3.81165
0
LINE
8
BLACK
6
CONTINUOUS
10
5.50684
20
-3.81165
11
5.50318
21
-3.81361
0
LINE
8
BLACK
6
CONTINUOUS
10
5.50318
20
-3.81361
11
5.49921
21
-3.81481
0
LINE
8
BLACK
6
CONTINUOUS
10
5.49921
20
-3.81481
11
5.49611
21
-3.81512
0
LINE
8
BLACK
6
CONTINUOUS
10
5.49611
20
-3.81512
11
5.4653
21
-3.81512
0
LINE
8
BLACK
6
CONTINUOUS
10
5.4653
20
-3.81512
11
5.46221
21
-3.81481
0
LINE
8
BLACK
6
CONTINUOUS
10
5.46221
20
-3.81481
11
5.45824
21
-3.81361
0
LINE
8
BLACK
6
CONTINUOUS
10
5.45824
20
-3.81361
11
5.45458
21
-3.81165
0
LINE
8
BLACK
6
CONTINUOUS
10
5.45458
20
-3.81165
11
5.45137
21
-3.80902
0
LINE
8
BLACK
6
CONTINUOUS
10
5.45137
20
-3.80902
11
5.44874
21
-3.80581
0
LINE
8
BLACK
6
CONTINUOUS
10
5.44874
20
-3.80581
11
5.44678
21
-3.80215
0
LINE
8
BLACK
6
CONTINUOUS
10
5.44678
20
-3.80215
11
5.44558
21
-3.79818
0
LINE
8
BLACK
6
CONTINUOUS
10
5.44558
20
-3.79818
11
5.44517
21
-3.79406
0
LINE
8
BLACK
6
CONTINUOUS
10
5.44517
20
-3.79406
11
5.44558
21
-3.78993
0
LINE
8
BLACK
6
CONTINUOUS
10
5.44558
20
-3.78993
11
5.44678
21
-3.78596
0
LINE
8
BLACK
6
CONTINUOUS
10
5.44678
20
-3.78596
11
5.44874
21
-3.7823
0
LINE
8
BLACK
6
CONTINUOUS
10
5.44874
20
-3.7823
11
5.45137
21
-3.77909
0
LINE
8
BLACK
6
CONTINUOUS
10
5.45137
20
-3.77909
11
5.45458
21
-3.77646
0
LINE
8
BLACK
6
CONTINUOUS
10
5.45458
20
-3.77646
11
5.45824
21
-3.7745
0
LINE
8
BLACK
6
CONTINUOUS
10
5.45824
20
-3.7745
11
5.46221
21
-3.7733
0
LINE
8
BLACK
6
CONTINUOUS
10
5.46221
20
-3.7733
11
5.4653
21
-3.77299
0
LINE
8
BLACK
6
CONTINUOUS
10
5.4653
20
-3.77299
11
5.49611
21
-3.77299
0
LINE
8
BLACK
6
CONTINUOUS
10
5.49611
20
-3.77299
11
5.49921
21
-3.7733
0
LINE
8
BLACK
6
CONTINUOUS
10
5.77352
20
-3.63333
11
5.78427
21
-3.63778
0
LINE
8
BLACK
6
CONTINUOUS
10
5.78427
20
-3.63778
11
5.79394
21
-3.64425
0
LINE
8
BLACK
6
CONTINUOUS
10
5.79394
20
-3.64425
11
5.80217
21
-3.65247
0
LINE
8
BLACK
6
CONTINUOUS
10
5.80217
20
-3.65247
11
5.80863
21
-3.66214
0
LINE
8
BLACK
6
CONTINUOUS
10
5.80863
20
-3.66214
11
5.81308
21
-3.67289
0
LINE
8
BLACK
6
CONTINUOUS
10
5.81308
20
-3.67289
11
5.81535
21
-3.6843
0
LINE
8
BLACK
6
CONTINUOUS
10
5.81535
20
-3.6843
11
5.81535
21
-3.69593
0
LINE
8
BLACK
6
CONTINUOUS
10
5.81535
20
-3.69593
11
5.81308
21
-3.70734
0
LINE
8
BLACK
6
CONTINUOUS
10
5.81308
20
-3.70734
11
5.80863
21
-3.71809
0
LINE
8
BLACK
6
CONTINUOUS
10
5.80863
20
-3.71809
11
5.80217
21
-3.72776
0
LINE
8
BLACK
6
CONTINUOUS
10
5.80217
20
-3.72776
11
5.79394
21
-3.73599
0
LINE
8
BLACK
6
CONTINUOUS
10
5.79394
20
-3.73599
11
5.78427
21
-3.74245
0
LINE
8
BLACK
6
CONTINUOUS
10
5.78427
20
-3.74245
11
5.77352
21
-3.7469
0
LINE
8
BLACK
6
CONTINUOUS
10
5.77352
20
-3.7469
11
5.76212
21
-3.74917
0
LINE
8
BLACK
6
CONTINUOUS
10
5.76212
20
-3.74917
11
5.75048
21
-3.74917
0
LINE
8
BLACK
6
CONTINUOUS
10
5.75048
20
-3.74917
11
5.73907
21
-3.7469
0
LINE
8
BLACK
6
CONTINUOUS
10
5.73907
20
-3.7469
11
5.72833
21
-3.74245
0
LINE
8
BLACK
6
CONTINUOUS
10
5.72833
20
-3.74245
11
5.71865
21
-3.73599
0
LINE
8
BLACK
6
CONTINUOUS
10
5.71865
20
-3.73599
11
5.71043
21
-3.72776
0
LINE
8
BLACK
6
CONTINUOUS
10
5.71043
20
-3.72776
11
5.70397
21
-3.71809
0
LINE
8
BLACK
6
CONTINUOUS
10
5.70397
20
-3.71809
11
5.69951
21
-3.70734
0
LINE
8
BLACK
6
CONTINUOUS
10
5.69951
20
-3.70734
11
5.69724
21
-3.69593
0
LINE
8
BLACK
6
CONTINUOUS
10
5.69724
20
-3.69593
11
5.69724
21
-3.6843
0
LINE
8
BLACK
6
CONTINUOUS
10
5.69724
20
-3.6843
11
5.69951
21
-3.67289
0
LINE
8
BLACK
6
CONTINUOUS
10
5.69951
20
-3.67289
11
5.70397
21
-3.66214
0
LINE
8
BLACK
6
CONTINUOUS
10
5.70397
20
-3.66214
11
5.71043
21
-3.65247
0
LINE
8
BLACK
6
CONTINUOUS
10
5.71043
20
-3.65247
11
5.71865
21
-3.64425
0
LINE
8
BLACK
6
CONTINUOUS
10
5.71865
20
-3.64425
11
5.72833
21
-3.63778
0
LINE
8
BLACK
6
CONTINUOUS
10
5.72833
20
-3.63778
11
5.73907
21
-3.63333
0
LINE
8
BLACK
6
CONTINUOUS
10
5.73907
20
-3.63333
11
5.75048
21
-3.63106
0
LINE
8
BLACK
6
CONTINUOUS
10
5.75048
20
-3.63106
11
5.76212
21
-3.63106
0
LINE
8
BLACK
6
CONTINUOUS
10
5.76212
20
-3.63106
11
5.77352
21
-3.63333
0
LINE
8
BLACK
6
CONTINUOUS
10
5.21346
20
-3.74846
11
5.14654
21
-3.74846
0
LINE
8
BLACK
6
CONTINUOUS
10
5.14654
20
-3.74846
11
5.14654
21
-3.68154
0
LINE
8
BLACK
6
CONTINUOUS
10
5.14654
20
-3.68154
11
5.21346
21
-3.68154
0
LINE
8
BLACK
6
CONTINUOUS
10
5.21346
20
-3.68154
11
5.21346
21
-3.74846
  0
ENDSEC
  0
EOF
