G04 #@! TF.GenerationSoftware,KiCad,Pcbnew,5.1.5-52549c5~86~ubuntu16.04.1*
G04 #@! TF.CreationDate,2020-11-24T19:11:49+05:30*
G04 #@! TF.ProjectId,IR_Sensor_Module_555_V1.0_B,49525f53-656e-4736-9f72-5f4d6f64756c,V1.0*
G04 #@! TF.SameCoordinates,Original*
G04 #@! TF.FileFunction,Legend,Top*
G04 #@! TF.FilePolarity,Positive*
%FSLAX46Y46*%
G04 Gerber Fmt 4.6, Leading zero omitted, Abs format (unit mm)*
G04 Created by KiCad (PCBNEW 5.1.5-52549c5~86~ubuntu16.04.1) date 2020-11-24 19:11:49*
%MOMM*%
%LPD*%
G04 APERTURE LIST*
%ADD10C,0.500000*%
%ADD11C,0.254000*%
%ADD12C,0.300000*%
%ADD13C,0.177800*%
%ADD14C,0.100000*%
%ADD15C,0.120000*%
%ADD16C,0.150000*%
G04 APERTURE END LIST*
D10*
X145084800Y-115244428D02*
X145227657Y-115387285D01*
X145084800Y-115530142D01*
X144941942Y-115387285D01*
X145084800Y-115244428D01*
X145084800Y-115530142D01*
X138480800Y-112069428D02*
X138623657Y-112212285D01*
X138480800Y-112355142D01*
X138337942Y-112212285D01*
X138480800Y-112069428D01*
X138480800Y-112355142D01*
X138353800Y-99750428D02*
X138496657Y-99893285D01*
X138353800Y-100036142D01*
X138210942Y-99893285D01*
X138353800Y-99750428D01*
X138353800Y-100036142D01*
D11*
X133132285Y-118672428D02*
X133132285Y-117148428D01*
X134728857Y-118672428D02*
X134220857Y-117946714D01*
X133858000Y-118672428D02*
X133858000Y-117148428D01*
X134438571Y-117148428D01*
X134583714Y-117221000D01*
X134656285Y-117293571D01*
X134728857Y-117438714D01*
X134728857Y-117656428D01*
X134656285Y-117801571D01*
X134583714Y-117874142D01*
X134438571Y-117946714D01*
X133858000Y-117946714D01*
X137268857Y-117148428D02*
X136543142Y-117148428D01*
X136470571Y-117874142D01*
X136543142Y-117801571D01*
X136688285Y-117729000D01*
X137051142Y-117729000D01*
X137196285Y-117801571D01*
X137268857Y-117874142D01*
X137341428Y-118019285D01*
X137341428Y-118382142D01*
X137268857Y-118527285D01*
X137196285Y-118599857D01*
X137051142Y-118672428D01*
X136688285Y-118672428D01*
X136543142Y-118599857D01*
X136470571Y-118527285D01*
X138720285Y-117148428D02*
X137994571Y-117148428D01*
X137922000Y-117874142D01*
X137994571Y-117801571D01*
X138139714Y-117729000D01*
X138502571Y-117729000D01*
X138647714Y-117801571D01*
X138720285Y-117874142D01*
X138792857Y-118019285D01*
X138792857Y-118382142D01*
X138720285Y-118527285D01*
X138647714Y-118599857D01*
X138502571Y-118672428D01*
X138139714Y-118672428D01*
X137994571Y-118599857D01*
X137922000Y-118527285D01*
X140171714Y-117148428D02*
X139446000Y-117148428D01*
X139373428Y-117874142D01*
X139446000Y-117801571D01*
X139591142Y-117729000D01*
X139954000Y-117729000D01*
X140099142Y-117801571D01*
X140171714Y-117874142D01*
X140244285Y-118019285D01*
X140244285Y-118382142D01*
X140171714Y-118527285D01*
X140099142Y-118599857D01*
X139954000Y-118672428D01*
X139591142Y-118672428D01*
X139446000Y-118599857D01*
X139373428Y-118527285D01*
D12*
X120039428Y-118584571D02*
X119868000Y-118670285D01*
X119525142Y-118670285D01*
X119353714Y-118584571D01*
X119268000Y-118413142D01*
X119268000Y-117727428D01*
X119353714Y-117556000D01*
X119525142Y-117470285D01*
X119868000Y-117470285D01*
X120039428Y-117556000D01*
X120125142Y-117727428D01*
X120125142Y-117898857D01*
X119268000Y-118070285D01*
X121153714Y-118670285D02*
X120982285Y-118584571D01*
X120896571Y-118413142D01*
X120896571Y-116870285D01*
X122525142Y-118584571D02*
X122353714Y-118670285D01*
X122010857Y-118670285D01*
X121839428Y-118584571D01*
X121753714Y-118413142D01*
X121753714Y-117727428D01*
X121839428Y-117556000D01*
X122010857Y-117470285D01*
X122353714Y-117470285D01*
X122525142Y-117556000D01*
X122610857Y-117727428D01*
X122610857Y-117898857D01*
X121753714Y-118070285D01*
X123382285Y-118670285D02*
X123382285Y-117470285D01*
X123382285Y-117641714D02*
X123468000Y-117556000D01*
X123639428Y-117470285D01*
X123896571Y-117470285D01*
X124068000Y-117556000D01*
X124153714Y-117727428D01*
X124153714Y-118670285D01*
X124153714Y-117727428D02*
X124239428Y-117556000D01*
X124410857Y-117470285D01*
X124668000Y-117470285D01*
X124839428Y-117556000D01*
X124925142Y-117727428D01*
X124925142Y-118670285D01*
X126468000Y-118584571D02*
X126296571Y-118670285D01*
X125953714Y-118670285D01*
X125782285Y-118584571D01*
X125696571Y-118413142D01*
X125696571Y-117727428D01*
X125782285Y-117556000D01*
X125953714Y-117470285D01*
X126296571Y-117470285D01*
X126468000Y-117556000D01*
X126553714Y-117727428D01*
X126553714Y-117898857D01*
X125696571Y-118070285D01*
X127325142Y-117470285D02*
X127325142Y-118670285D01*
X127325142Y-117641714D02*
X127410857Y-117556000D01*
X127582285Y-117470285D01*
X127839428Y-117470285D01*
X128010857Y-117556000D01*
X128096571Y-117727428D01*
X128096571Y-118670285D01*
X128696571Y-117470285D02*
X129382285Y-117470285D01*
X128953714Y-116870285D02*
X128953714Y-118413142D01*
X129039428Y-118584571D01*
X129210857Y-118670285D01*
X129382285Y-118670285D01*
X129810857Y-117470285D02*
X130753714Y-117470285D01*
X129810857Y-118670285D01*
X130753714Y-118670285D01*
D10*
X125018800Y-103687428D02*
X125161657Y-103830285D01*
X125018800Y-103973142D01*
X124875942Y-103830285D01*
X125018800Y-103687428D01*
X125018800Y-103973142D01*
D13*
X105343476Y-106819095D02*
X105343476Y-106214333D01*
X104738714Y-106153857D01*
X104799190Y-106214333D01*
X104859666Y-106335285D01*
X104859666Y-106637666D01*
X104799190Y-106758619D01*
X104738714Y-106819095D01*
X104617761Y-106879571D01*
X104315380Y-106879571D01*
X104194428Y-106819095D01*
X104133952Y-106758619D01*
X104073476Y-106637666D01*
X104073476Y-106335285D01*
X104133952Y-106214333D01*
X104194428Y-106153857D01*
X105343476Y-107242428D02*
X104073476Y-107665761D01*
X105343476Y-108089095D01*
X105343476Y-109050666D02*
X105343476Y-109292571D01*
X105283000Y-109413523D01*
X105162047Y-109534476D01*
X104920142Y-109594952D01*
X104496809Y-109594952D01*
X104254904Y-109534476D01*
X104133952Y-109413523D01*
X104073476Y-109292571D01*
X104073476Y-109050666D01*
X104133952Y-108929714D01*
X104254904Y-108808761D01*
X104496809Y-108748285D01*
X104920142Y-108748285D01*
X105162047Y-108808761D01*
X105283000Y-108929714D01*
X105343476Y-109050666D01*
X104920142Y-110683523D02*
X104073476Y-110683523D01*
X104920142Y-110139238D02*
X104254904Y-110139238D01*
X104133952Y-110199714D01*
X104073476Y-110320666D01*
X104073476Y-110502095D01*
X104133952Y-110623047D01*
X104194428Y-110683523D01*
X104920142Y-111106857D02*
X104920142Y-111590666D01*
X105343476Y-111288285D02*
X104254904Y-111288285D01*
X104133952Y-111348761D01*
X104073476Y-111469714D01*
X104073476Y-111590666D01*
X105283000Y-104853619D02*
X105343476Y-104732666D01*
X105343476Y-104551238D01*
X105283000Y-104369809D01*
X105162047Y-104248857D01*
X105041095Y-104188380D01*
X104799190Y-104127904D01*
X104617761Y-104127904D01*
X104375857Y-104188380D01*
X104254904Y-104248857D01*
X104133952Y-104369809D01*
X104073476Y-104551238D01*
X104073476Y-104672190D01*
X104133952Y-104853619D01*
X104194428Y-104914095D01*
X104617761Y-104914095D01*
X104617761Y-104672190D01*
X104738714Y-112437333D02*
X104738714Y-112860666D01*
X104073476Y-113042095D02*
X104073476Y-112437333D01*
X105343476Y-112437333D01*
X105343476Y-113042095D01*
X104920142Y-113586380D02*
X104073476Y-113586380D01*
X104799190Y-113586380D02*
X104859666Y-113646857D01*
X104920142Y-113767809D01*
X104920142Y-113949238D01*
X104859666Y-114070190D01*
X104738714Y-114130666D01*
X104073476Y-114130666D01*
D14*
X146478800Y-100281600D02*
X146478800Y-100781600D01*
X146478800Y-100281600D02*
X146978800Y-100281600D01*
X146478800Y-108181600D02*
X146478800Y-107681600D01*
X146478800Y-108181600D02*
X146978800Y-108181600D01*
X149278800Y-108181600D02*
X148778800Y-108181600D01*
X149278800Y-108181600D02*
X149278800Y-107681600D01*
X149278800Y-100281600D02*
X149278800Y-100781600D01*
X149278800Y-100281600D02*
X148778800Y-100281600D01*
D15*
X149402800Y-102971600D02*
G75*
G02X149402800Y-105511600I0J-1270000D01*
G01*
X134965000Y-102680000D02*
X134965000Y-102836000D01*
X134965000Y-100364000D02*
X134965000Y-100520000D01*
X137566130Y-102679837D02*
G75*
G02X135484039Y-102680000I-1041130J1079837D01*
G01*
X137566130Y-100520163D02*
G75*
G03X135484039Y-100520000I-1041130J-1079837D01*
G01*
X138197335Y-102678608D02*
G75*
G02X134965000Y-102835516I-1672335J1078608D01*
G01*
X138197335Y-100521392D02*
G75*
G03X134965000Y-100364484I-1672335J-1078608D01*
G01*
X134965000Y-114872000D02*
X134965000Y-115028000D01*
X134965000Y-112556000D02*
X134965000Y-112712000D01*
X137566130Y-114871837D02*
G75*
G02X135484039Y-114872000I-1041130J1079837D01*
G01*
X137566130Y-112712163D02*
G75*
G03X135484039Y-112712000I-1041130J-1079837D01*
G01*
X138197335Y-114870608D02*
G75*
G02X134965000Y-115027516I-1672335J1078608D01*
G01*
X138197335Y-112713392D02*
G75*
G03X134965000Y-112556484I-1672335J-1078608D01*
G01*
X125552400Y-101727000D02*
X126502400Y-101727000D01*
X131292400Y-101727000D02*
X130342400Y-101727000D01*
X126502400Y-102647000D02*
X130342400Y-102647000D01*
X126502400Y-100807000D02*
X126502400Y-102647000D01*
X130342400Y-100807000D02*
X126502400Y-100807000D01*
X130342400Y-102647000D02*
X130342400Y-100807000D01*
D14*
X125012400Y-114743400D02*
X125312400Y-114743400D01*
X125012400Y-114443400D02*
X125012400Y-114743400D01*
X131812400Y-114743400D02*
X131512400Y-114743400D01*
X131812400Y-114443400D02*
X131812400Y-114743400D01*
X131812400Y-104743400D02*
X131512400Y-104743400D01*
X131812400Y-105043400D02*
X131812400Y-104743400D01*
X125012400Y-104743400D02*
X125312400Y-104743400D01*
X125012400Y-105043400D02*
X125012400Y-104743400D01*
D15*
X142239800Y-105867200D02*
X141289800Y-105867200D01*
X136499800Y-105867200D02*
X137449800Y-105867200D01*
X141289800Y-104947200D02*
X137449800Y-104947200D01*
X141289800Y-106787200D02*
X141289800Y-104947200D01*
X137449800Y-106787200D02*
X141289800Y-106787200D01*
X137449800Y-104947200D02*
X137449800Y-106787200D01*
X142239800Y-108153200D02*
X141289800Y-108153200D01*
X136499800Y-108153200D02*
X137449800Y-108153200D01*
X141289800Y-107233200D02*
X137449800Y-107233200D01*
X141289800Y-109073200D02*
X141289800Y-107233200D01*
X137449800Y-109073200D02*
X141289800Y-109073200D01*
X137449800Y-107233200D02*
X137449800Y-109073200D01*
X121056200Y-110413800D02*
X120106200Y-110413800D01*
X115316200Y-110413800D02*
X116266200Y-110413800D01*
X120106200Y-109493800D02*
X116266200Y-109493800D01*
X120106200Y-111333800D02*
X120106200Y-109493800D01*
X116266200Y-111333800D02*
X120106200Y-111333800D01*
X116266200Y-109493800D02*
X116266200Y-111333800D01*
X139284400Y-103122400D02*
X139284400Y-100382400D01*
X144524400Y-103122400D02*
X144524400Y-100382400D01*
X144524400Y-100382400D02*
X139284400Y-100382400D01*
X144524400Y-103122400D02*
X139284400Y-103122400D01*
X119440000Y-100230000D02*
X119440000Y-102970000D01*
X114200000Y-100230000D02*
X114200000Y-102970000D01*
X114200000Y-102970000D02*
X119440000Y-102970000D01*
X114200000Y-100230000D02*
X119440000Y-100230000D01*
X100524000Y-103572000D02*
X101854000Y-103572000D01*
X100524000Y-104902000D02*
X100524000Y-103572000D01*
X100524000Y-106172000D02*
X103184000Y-106172000D01*
X103184000Y-106172000D02*
X103184000Y-113852000D01*
X100524000Y-106172000D02*
X100524000Y-113852000D01*
X100524000Y-113852000D02*
X103184000Y-113852000D01*
X121726000Y-112614400D02*
X121726000Y-113944400D01*
X120396000Y-112614400D02*
X121726000Y-112614400D01*
X119126000Y-112614400D02*
X119126000Y-115274400D01*
X119126000Y-115274400D02*
X116526000Y-115274400D01*
X119126000Y-112614400D02*
X116526000Y-112614400D01*
X116526000Y-112614400D02*
X116526000Y-115274400D01*
X144597800Y-110038200D02*
X141507800Y-110038200D01*
X145552800Y-112598200D02*
G75*
G03X145552800Y-112598200I-2500000J0D01*
G01*
X143053262Y-115588200D02*
G75*
G02X141507970Y-110038200I-462J2990000D01*
G01*
X143052338Y-115588200D02*
G75*
G03X144597630Y-110038200I462J2990000D01*
G01*
D16*
X145051180Y-101486930D02*
X145765466Y-101486930D01*
X145908323Y-101534549D01*
X146003561Y-101629787D01*
X146051180Y-101772644D01*
X146051180Y-101867882D01*
X145146419Y-101058358D02*
X145098800Y-101010739D01*
X145051180Y-100915501D01*
X145051180Y-100677406D01*
X145098800Y-100582168D01*
X145146419Y-100534549D01*
X145241657Y-100486930D01*
X145336895Y-100486930D01*
X145479752Y-100534549D01*
X146051180Y-101105977D01*
X146051180Y-100486930D01*
X134056380Y-104370095D02*
X133056380Y-104370095D01*
X133056380Y-104132000D01*
X133104000Y-103989142D01*
X133199238Y-103893904D01*
X133294476Y-103846285D01*
X133484952Y-103798666D01*
X133627809Y-103798666D01*
X133818285Y-103846285D01*
X133913523Y-103893904D01*
X134008761Y-103989142D01*
X134056380Y-104132000D01*
X134056380Y-104370095D01*
X133056380Y-103465333D02*
X133056380Y-102846285D01*
X133437333Y-103179619D01*
X133437333Y-103036761D01*
X133484952Y-102941523D01*
X133532571Y-102893904D01*
X133627809Y-102846285D01*
X133865904Y-102846285D01*
X133961142Y-102893904D01*
X134008761Y-102941523D01*
X134056380Y-103036761D01*
X134056380Y-103322476D01*
X134008761Y-103417714D01*
X133961142Y-103465333D01*
X135405904Y-111450380D02*
X135405904Y-110450380D01*
X135644000Y-110450380D01*
X135786857Y-110498000D01*
X135882095Y-110593238D01*
X135929714Y-110688476D01*
X135977333Y-110878952D01*
X135977333Y-111021809D01*
X135929714Y-111212285D01*
X135882095Y-111307523D01*
X135786857Y-111402761D01*
X135644000Y-111450380D01*
X135405904Y-111450380D01*
X136358285Y-110545619D02*
X136405904Y-110498000D01*
X136501142Y-110450380D01*
X136739238Y-110450380D01*
X136834476Y-110498000D01*
X136882095Y-110545619D01*
X136929714Y-110640857D01*
X136929714Y-110736095D01*
X136882095Y-110878952D01*
X136310666Y-111450380D01*
X136929714Y-111450380D01*
X108624761Y-116784380D02*
X108291428Y-116308190D01*
X108053333Y-116784380D02*
X108053333Y-115784380D01*
X108434285Y-115784380D01*
X108529523Y-115832000D01*
X108577142Y-115879619D01*
X108624761Y-115974857D01*
X108624761Y-116117714D01*
X108577142Y-116212952D01*
X108529523Y-116260571D01*
X108434285Y-116308190D01*
X108053333Y-116308190D01*
X108910476Y-115784380D02*
X109243809Y-116784380D01*
X109577142Y-115784380D01*
X110434285Y-116784380D02*
X109862857Y-116784380D01*
X110148571Y-116784380D02*
X110148571Y-115784380D01*
X110053333Y-115927238D01*
X109958095Y-116022476D01*
X109862857Y-116070095D01*
X128255733Y-100528380D02*
X127922400Y-100052190D01*
X127684304Y-100528380D02*
X127684304Y-99528380D01*
X128065257Y-99528380D01*
X128160495Y-99576000D01*
X128208114Y-99623619D01*
X128255733Y-99718857D01*
X128255733Y-99861714D01*
X128208114Y-99956952D01*
X128160495Y-100004571D01*
X128065257Y-100052190D01*
X127684304Y-100052190D01*
X128589066Y-99528380D02*
X129208114Y-99528380D01*
X128874780Y-99909333D01*
X129017638Y-99909333D01*
X129112876Y-99956952D01*
X129160495Y-100004571D01*
X129208114Y-100099809D01*
X129208114Y-100337904D01*
X129160495Y-100433142D01*
X129112876Y-100480761D01*
X129017638Y-100528380D01*
X128731923Y-100528380D01*
X128636685Y-100480761D01*
X128589066Y-100433142D01*
X127914495Y-103338380D02*
X127914495Y-104147904D01*
X127962114Y-104243142D01*
X128009733Y-104290761D01*
X128104971Y-104338380D01*
X128295447Y-104338380D01*
X128390685Y-104290761D01*
X128438304Y-104243142D01*
X128485923Y-104147904D01*
X128485923Y-103338380D01*
X129485923Y-104338380D02*
X128914495Y-104338380D01*
X129200209Y-104338380D02*
X129200209Y-103338380D01*
X129104971Y-103481238D01*
X129009733Y-103576476D01*
X128914495Y-103624095D01*
X145121333Y-106370380D02*
X144788000Y-105894190D01*
X144549904Y-106370380D02*
X144549904Y-105370380D01*
X144930857Y-105370380D01*
X145026095Y-105418000D01*
X145073714Y-105465619D01*
X145121333Y-105560857D01*
X145121333Y-105703714D01*
X145073714Y-105798952D01*
X145026095Y-105846571D01*
X144930857Y-105894190D01*
X144549904Y-105894190D01*
X145978476Y-105703714D02*
X145978476Y-106370380D01*
X145740380Y-105322761D02*
X145502285Y-106037047D01*
X146121333Y-106037047D01*
X145121333Y-108656380D02*
X144788000Y-108180190D01*
X144549904Y-108656380D02*
X144549904Y-107656380D01*
X144930857Y-107656380D01*
X145026095Y-107704000D01*
X145073714Y-107751619D01*
X145121333Y-107846857D01*
X145121333Y-107989714D01*
X145073714Y-108084952D01*
X145026095Y-108132571D01*
X144930857Y-108180190D01*
X144549904Y-108180190D01*
X145502285Y-107751619D02*
X145549904Y-107704000D01*
X145645142Y-107656380D01*
X145883238Y-107656380D01*
X145978476Y-107704000D01*
X146026095Y-107751619D01*
X146073714Y-107846857D01*
X146073714Y-107942095D01*
X146026095Y-108084952D01*
X145454666Y-108656380D01*
X146073714Y-108656380D01*
X118019533Y-108946180D02*
X117686200Y-108469990D01*
X117448104Y-108946180D02*
X117448104Y-107946180D01*
X117829057Y-107946180D01*
X117924295Y-107993800D01*
X117971914Y-108041419D01*
X118019533Y-108136657D01*
X118019533Y-108279514D01*
X117971914Y-108374752D01*
X117924295Y-108422371D01*
X117829057Y-108469990D01*
X117448104Y-108469990D01*
X118971914Y-108946180D02*
X118400485Y-108946180D01*
X118686200Y-108946180D02*
X118686200Y-107946180D01*
X118590961Y-108089038D01*
X118495723Y-108184276D01*
X118400485Y-108231895D01*
X141819333Y-104243142D02*
X141771714Y-104290761D01*
X141628857Y-104338380D01*
X141533619Y-104338380D01*
X141390761Y-104290761D01*
X141295523Y-104195523D01*
X141247904Y-104100285D01*
X141200285Y-103909809D01*
X141200285Y-103766952D01*
X141247904Y-103576476D01*
X141295523Y-103481238D01*
X141390761Y-103386000D01*
X141533619Y-103338380D01*
X141628857Y-103338380D01*
X141771714Y-103386000D01*
X141819333Y-103433619D01*
X142200285Y-103433619D02*
X142247904Y-103386000D01*
X142343142Y-103338380D01*
X142581238Y-103338380D01*
X142676476Y-103386000D01*
X142724095Y-103433619D01*
X142771714Y-103528857D01*
X142771714Y-103624095D01*
X142724095Y-103766952D01*
X142152666Y-104338380D01*
X142771714Y-104338380D01*
X115911333Y-104497142D02*
X115863714Y-104544761D01*
X115720857Y-104592380D01*
X115625619Y-104592380D01*
X115482761Y-104544761D01*
X115387523Y-104449523D01*
X115339904Y-104354285D01*
X115292285Y-104163809D01*
X115292285Y-104020952D01*
X115339904Y-103830476D01*
X115387523Y-103735238D01*
X115482761Y-103640000D01*
X115625619Y-103592380D01*
X115720857Y-103592380D01*
X115863714Y-103640000D01*
X115911333Y-103687619D01*
X116863714Y-104592380D02*
X116292285Y-104592380D01*
X116578000Y-104592380D02*
X116578000Y-103592380D01*
X116482761Y-103735238D01*
X116387523Y-103830476D01*
X116292285Y-103878095D01*
X107354761Y-100528380D02*
X107021428Y-100052190D01*
X106783333Y-100528380D02*
X106783333Y-99528380D01*
X107164285Y-99528380D01*
X107259523Y-99576000D01*
X107307142Y-99623619D01*
X107354761Y-99718857D01*
X107354761Y-99861714D01*
X107307142Y-99956952D01*
X107259523Y-100004571D01*
X107164285Y-100052190D01*
X106783333Y-100052190D01*
X107640476Y-99528380D02*
X107973809Y-100528380D01*
X108307142Y-99528380D01*
X108592857Y-99623619D02*
X108640476Y-99576000D01*
X108735714Y-99528380D01*
X108973809Y-99528380D01*
X109069047Y-99576000D01*
X109116666Y-99623619D01*
X109164285Y-99718857D01*
X109164285Y-99814095D01*
X109116666Y-99956952D01*
X108545238Y-100528380D01*
X109164285Y-100528380D01*
X99742666Y-102068380D02*
X99742666Y-102782666D01*
X99695047Y-102925523D01*
X99599809Y-103020761D01*
X99456952Y-103068380D01*
X99361714Y-103068380D01*
X100742666Y-103068380D02*
X100171238Y-103068380D01*
X100456952Y-103068380D02*
X100456952Y-102068380D01*
X100361714Y-102211238D01*
X100266476Y-102306476D01*
X100171238Y-102354095D01*
X116616266Y-115962180D02*
X116616266Y-116676466D01*
X116568647Y-116819323D01*
X116473409Y-116914561D01*
X116330552Y-116962180D01*
X116235314Y-116962180D01*
X117092457Y-116962180D02*
X117092457Y-115962180D01*
X117473409Y-115962180D01*
X117568647Y-116009800D01*
X117616266Y-116057419D01*
X117663885Y-116152657D01*
X117663885Y-116295514D01*
X117616266Y-116390752D01*
X117568647Y-116438371D01*
X117473409Y-116485990D01*
X117092457Y-116485990D01*
X118616266Y-116962180D02*
X118044838Y-116962180D01*
X118330552Y-116962180D02*
X118330552Y-115962180D01*
X118235314Y-116105038D01*
X118140076Y-116200276D01*
X118044838Y-116247895D01*
X146327904Y-113228380D02*
X146327904Y-112228380D01*
X146566000Y-112228380D01*
X146708857Y-112276000D01*
X146804095Y-112371238D01*
X146851714Y-112466476D01*
X146899333Y-112656952D01*
X146899333Y-112799809D01*
X146851714Y-112990285D01*
X146804095Y-113085523D01*
X146708857Y-113180761D01*
X146566000Y-113228380D01*
X146327904Y-113228380D01*
X147851714Y-113228380D02*
X147280285Y-113228380D01*
X147566000Y-113228380D02*
X147566000Y-112228380D01*
X147470761Y-112371238D01*
X147375523Y-112466476D01*
X147280285Y-112514095D01*
M02*
