M48
; DRILL file {KiCad 5.1.5-52549c5~86~ubuntu16.04.1} date Tue Nov 24 19:11:51 2020
; FORMAT={-:-/ absolute / inch / decimal}
; #@! TF.CreationDate,2020-11-24T19:11:51+05:30
; #@! TF.GenerationSoftware,Kicad,Pcbnew,5.1.5-52549c5~86~ubuntu16.04.1
FMAT,2
INCH
T1C0.0276
T2C0.0315
T3C0.0354
T4C0.0394
T5C0.0433
T6C0.1181
%
G90
G05
T1
X4.2031Y-4.1
X4.4Y-4.0031
X5.337Y-4.168
X5.637Y-4.168
X5.337Y-4.258
X5.637Y-4.258
X4.503Y-4.347
X4.803Y-4.347
X4.906Y-4.005
X5.206Y-4.005
X4.2031Y-4.4
X4.4Y-4.3031
X4.4Y-4.5
X4.4Y-4.2
T2
X5.5376Y-4.006
X5.636Y-4.006
X4.55Y-4.0
X4.6484Y-4.0
T3
X5.325Y-4.0
X5.425Y-4.0
X5.325Y-4.48
X5.425Y-4.48
X5.632Y-4.383
X5.632Y-4.483
T4
X4.47Y-4.45
X4.47Y-4.63
X4.499Y-4.201
X4.53Y-4.5
X4.53Y-4.6
X4.636Y-4.201
X4.821Y-4.171
X4.8216Y-4.0057
X5.1Y-4.17
X5.1Y-4.56
X4.01Y-4.13
X4.01Y-4.23
X4.01Y-4.33
X4.01Y-4.43
X4.906Y-4.171
X4.906Y-4.271
X4.906Y-4.371
X4.906Y-4.471
X5.206Y-4.171
X5.206Y-4.271
X5.206Y-4.371
X5.206Y-4.471
X4.64Y-4.486
X4.74Y-4.486
T5
X5.822Y-4.004
X5.822Y-4.104
X5.822Y-4.204
T6
X4.0157Y-3.97
X4.0257Y-4.6019
T0
M30
