G04 #@! TF.GenerationSoftware,KiCad,Pcbnew,5.1.5-52549c5~86~ubuntu16.04.1*
G04 #@! TF.CreationDate,2020-11-24T19:11:49+05:30*
G04 #@! TF.ProjectId,IR_Sensor_Module_555_V1.0_B,49525f53-656e-4736-9f72-5f4d6f64756c,V1.0*
G04 #@! TF.SameCoordinates,Original*
G04 #@! TF.FileFunction,Copper,L1,Top*
G04 #@! TF.FilePolarity,Positive*
%FSLAX46Y46*%
G04 Gerber Fmt 4.6, Leading zero omitted, Abs format (unit mm)*
G04 Created by KiCad (PCBNEW 5.1.5-52549c5~86~ubuntu16.04.1) date 2020-11-24 19:11:49*
%MOMM*%
%LPD*%
G04 APERTURE LIST*
%ADD10C,2.100000*%
%ADD11C,1.800000*%
%ADD12R,1.800000X1.800000*%
%ADD13C,1.750000*%
%ADD14O,1.400000X1.400000*%
%ADD15C,1.400000*%
%ADD16C,1.600000*%
%ADD17R,1.600000X1.600000*%
%ADD18O,1.700000X1.700000*%
%ADD19R,1.700000X1.700000*%
%ADD20C,0.406400*%
%ADD21C,0.508000*%
G04 APERTURE END LIST*
D10*
X147878800Y-101701600D03*
X147878800Y-104241600D03*
X147878800Y-106781600D03*
D11*
X137795000Y-101600000D03*
D12*
X135255000Y-101600000D03*
D11*
X137795000Y-113792000D03*
D12*
X135255000Y-113792000D03*
D13*
X111760000Y-114300000D03*
X106760000Y-111760000D03*
X111760000Y-109300000D03*
D14*
X124612400Y-101727000D03*
D15*
X132232400Y-101727000D03*
D16*
X132232400Y-105943400D03*
X132232400Y-108483400D03*
X132232400Y-111023400D03*
X132232400Y-113563400D03*
X124612400Y-113563400D03*
X124612400Y-111023400D03*
X124612400Y-108483400D03*
D17*
X124612400Y-105943400D03*
D14*
X143179800Y-105867200D03*
D15*
X135559800Y-105867200D03*
D14*
X143179800Y-108153200D03*
D15*
X135559800Y-108153200D03*
D14*
X121996200Y-110413800D03*
D15*
X114376200Y-110413800D03*
D16*
X140654400Y-101752400D03*
X143154400Y-101752400D03*
X118070000Y-101600000D03*
X115570000Y-101600000D03*
D13*
X111760000Y-106680000D03*
X106760000Y-104140000D03*
X111760000Y-101680000D03*
D18*
X101854000Y-112522000D03*
X101854000Y-109982000D03*
X101854000Y-107442000D03*
D19*
X101854000Y-104902000D03*
D18*
X117856000Y-113944400D03*
D19*
X120396000Y-113944400D03*
D11*
X143052800Y-113868200D03*
D12*
X143052800Y-111328200D03*
D15*
X122453400Y-105943400D03*
X122468336Y-101744975D03*
D16*
X129540000Y-105918000D03*
X129540000Y-115824000D03*
D15*
X115062000Y-114300000D03*
X115062000Y-116840000D03*
X113538000Y-117602000D03*
X113538000Y-113030000D03*
X114274600Y-106705400D03*
X117754400Y-106705400D03*
D20*
X122453400Y-101879400D02*
X122468336Y-101864464D01*
X122468336Y-101864464D02*
X122468336Y-101744975D01*
X122453400Y-105943400D02*
X122468336Y-101744975D01*
D21*
X129540000Y-105918000D02*
X129540000Y-115824000D01*
X115062000Y-114300000D02*
X115062000Y-116840000D01*
D20*
X113538000Y-113030000D02*
X113538000Y-117856000D01*
X114274600Y-106705400D02*
X117754400Y-106705400D01*
M02*
