M48
; DRILL file {KiCad 5.1.5-52549c5~86~ubuntu16.04.1} date Tue Jul 28 14:01:55 2020
; FORMAT={-:-/ absolute / inch / decimal}
; #@! TF.CreationDate,2020-07-28T14:01:55+05:30
; #@! TF.GenerationSoftware,Kicad,Pcbnew,5.1.5-52549c5~86~ubuntu16.04.1
FMAT,2
INCH
T1C0.0157
T2C0.0374
T3C0.0394
T4C0.0551
T5C0.0598
T6C0.0984
%
G90
G05
T1
X4.8555Y-3.9715
X4.889Y-4.019
X4.994Y-3.563
X4.994Y-3.825
X4.995Y-3.859
X4.996Y-3.984
X5.009Y-3.799
X5.025Y-3.825
X5.026Y-3.86
X5.048Y-3.984
X5.105Y-3.984
X5.175Y-3.981
X5.198Y-3.379
X5.198Y-3.431
X5.215Y-3.931
X5.251Y-3.38
X5.251Y-3.431
X5.262Y-3.895
X5.262Y-3.949
X5.316Y-3.95
X5.317Y-3.895
X5.321Y-3.373
X5.321Y-3.409
X5.323Y-3.196
X5.323Y-3.263
X5.324Y-3.231
X5.325Y-3.163
X5.354Y-3.407
X5.356Y-3.372
X5.359Y-3.164
X5.359Y-3.198
X5.36Y-3.231
X5.36Y-3.263
X5.378Y-3.894
X5.38Y-3.95
X5.438Y-3.949
X5.439Y-3.896
X5.533Y-3.117
X5.533Y-3.883
X5.533Y-4.161
X5.534Y-4.203
X5.576Y-2.838
X5.578Y-2.915
X5.593Y-4.366
X5.593Y-4.434
X5.627Y-2.913
X5.628Y-2.837
X5.636Y-4.363
X5.639Y-4.438
X5.708Y-2.84
X5.708Y-2.913
X5.737Y-4.442
X5.738Y-4.361
X5.754Y-2.84
X5.754Y-2.911
X5.776Y-4.438
X5.782Y-4.362
X5.835Y-3.115
X5.836Y-2.841
X5.836Y-2.911
X5.854Y-4.44
X5.856Y-4.363
X5.86Y-4.171
X5.86Y-4.208
X5.882Y-2.839
X5.883Y-2.913
X5.897Y-4.172
X5.898Y-4.207
X5.905Y-4.36
X5.913Y-4.442
X5.962Y-2.917
X5.963Y-2.84
X5.979Y-4.357
X5.989Y-4.442
X6.001Y-4.201
X6.0014Y-4.2376
X6.003Y-4.277
X6.013Y-2.841
X6.018Y-2.912
X6.035Y-4.441
X6.037Y-4.36
T2
X5.712Y-3.283
X5.712Y-3.383
X5.712Y-3.483
X5.712Y-3.583
X5.712Y-3.683
X5.712Y-3.783
X5.712Y-3.883
X5.712Y-3.983
X5.912Y-3.333
X5.912Y-3.433
X5.912Y-3.533
X5.912Y-3.633
X5.912Y-3.733
X5.912Y-3.833
X5.912Y-3.933
T3
X4.786Y-3.669
X4.886Y-3.669
X4.786Y-4.232
X4.886Y-4.232
X4.785Y-3.803
X4.785Y-3.903
X4.785Y-4.003
X4.785Y-4.103
X5.106Y-3.171
X5.106Y-3.271
T4
X6.1509Y-3.1812
X6.1509Y-4.0868
T5
X5.123Y-2.944
X5.323Y-2.944
X4.829Y-3.082
X4.829Y-3.282
X4.829Y-3.482
X5.116Y-4.33
X5.316Y-4.33
T6
X6.2705Y-4.3855
X4.7744Y-2.8894
X6.2705Y-2.8894
X4.7744Y-4.3855
T0
M30
