G04 #@! TF.GenerationSoftware,KiCad,Pcbnew,5.1.5-52549c5~86~ubuntu16.04.1*
G04 #@! TF.CreationDate,2020-07-28T14:01:40+05:30*
G04 #@! TF.ProjectId,L298N_Motor_Driver_V1.0,4c323938-4e5f-44d6-9f74-6f725f447269,V1.0*
G04 #@! TF.SameCoordinates,Original*
G04 #@! TF.FileFunction,Copper,L2,Bot*
G04 #@! TF.FilePolarity,Positive*
%FSLAX46Y46*%
G04 Gerber Fmt 4.6, Leading zero omitted, Abs format (unit mm)*
G04 Created by KiCad (PCBNEW 5.1.5-52549c5~86~ubuntu16.04.1) date 2020-07-28 14:01:40*
%MOMM*%
%LPD*%
G04 APERTURE LIST*
%ADD10C,0.300000*%
%ADD11C,0.002540*%
%ADD12C,1.950000*%
%ADD13C,2.800000*%
%ADD14C,3.000000*%
%ADD15R,3.000000X3.000000*%
%ADD16O,1.700000X1.700000*%
%ADD17R,1.700000X1.700000*%
%ADD18C,0.800000*%
%ADD19C,0.400000*%
%ADD20C,1.400000*%
%ADD21C,1.000000*%
%ADD22C,0.900000*%
%ADD23C,0.254000*%
G04 APERTURE END LIST*
D10*
X140772200Y-111830657D02*
X140557914Y-111902085D01*
X140486485Y-111973514D01*
X140415057Y-112116371D01*
X140415057Y-112330657D01*
X140486485Y-112473514D01*
X140557914Y-112544942D01*
X140700771Y-112616371D01*
X141272200Y-112616371D01*
X141272200Y-111116371D01*
X140772200Y-111116371D01*
X140629342Y-111187800D01*
X140557914Y-111259228D01*
X140486485Y-111402085D01*
X140486485Y-111544942D01*
X140557914Y-111687800D01*
X140629342Y-111759228D01*
X140772200Y-111830657D01*
X141272200Y-111830657D01*
X139486485Y-111116371D02*
X139200771Y-111116371D01*
X139057914Y-111187800D01*
X138915057Y-111330657D01*
X138843628Y-111616371D01*
X138843628Y-112116371D01*
X138915057Y-112402085D01*
X139057914Y-112544942D01*
X139200771Y-112616371D01*
X139486485Y-112616371D01*
X139629342Y-112544942D01*
X139772200Y-112402085D01*
X139843628Y-112116371D01*
X139843628Y-111616371D01*
X139772200Y-111330657D01*
X139629342Y-111187800D01*
X139486485Y-111116371D01*
X138415057Y-111116371D02*
X137557914Y-111116371D01*
X137986485Y-112616371D02*
X137986485Y-111116371D01*
D11*
G36*
X155227020Y-88511380D02*
G01*
X155247340Y-88501220D01*
X155295600Y-88470740D01*
X155361640Y-88427560D01*
X155440380Y-88374220D01*
X155519120Y-88320880D01*
X155585160Y-88277700D01*
X155630880Y-88247220D01*
X155648660Y-88237060D01*
X155658820Y-88239600D01*
X155696920Y-88259920D01*
X155752800Y-88287860D01*
X155783280Y-88303100D01*
X155834080Y-88325960D01*
X155859480Y-88331040D01*
X155862020Y-88323420D01*
X155882340Y-88285320D01*
X155910280Y-88219280D01*
X155948380Y-88132920D01*
X155991560Y-88031320D01*
X156037280Y-87922100D01*
X156083000Y-87810340D01*
X156128720Y-87703660D01*
X156166820Y-87607140D01*
X156199840Y-87530940D01*
X156220160Y-87475060D01*
X156227780Y-87452200D01*
X156225240Y-87447120D01*
X156199840Y-87424260D01*
X156156660Y-87391240D01*
X156060140Y-87312500D01*
X155968700Y-87195660D01*
X155910280Y-87063580D01*
X155892500Y-86916260D01*
X155907740Y-86781640D01*
X155961080Y-86652100D01*
X156052520Y-86532720D01*
X156164280Y-86446360D01*
X156293820Y-86390480D01*
X156438600Y-86372700D01*
X156578300Y-86387940D01*
X156710380Y-86441280D01*
X156829760Y-86530180D01*
X156878020Y-86588600D01*
X156946600Y-86707980D01*
X156987240Y-86834980D01*
X156989780Y-86865460D01*
X156984700Y-87007700D01*
X156944060Y-87142320D01*
X156870400Y-87261700D01*
X156766260Y-87360760D01*
X156753560Y-87370920D01*
X156705300Y-87406480D01*
X156674820Y-87429340D01*
X156649420Y-87449660D01*
X156827220Y-87881460D01*
X156855160Y-87950040D01*
X156905960Y-88066880D01*
X156949140Y-88168480D01*
X156982160Y-88249760D01*
X157007560Y-88303100D01*
X157017720Y-88325960D01*
X157032960Y-88328500D01*
X157065980Y-88315800D01*
X157126940Y-88287860D01*
X157167580Y-88267540D01*
X157213300Y-88244680D01*
X157233620Y-88237060D01*
X157251400Y-88247220D01*
X157294580Y-88275160D01*
X157358080Y-88318340D01*
X157434280Y-88369140D01*
X157507940Y-88419940D01*
X157576520Y-88465660D01*
X157624780Y-88496140D01*
X157650180Y-88508840D01*
X157652720Y-88508840D01*
X157673040Y-88496140D01*
X157713680Y-88465660D01*
X157772100Y-88409780D01*
X157853380Y-88328500D01*
X157866080Y-88315800D01*
X157934660Y-88244680D01*
X157990540Y-88186260D01*
X158028640Y-88145620D01*
X158041340Y-88127840D01*
X158028640Y-88102440D01*
X157998160Y-88054180D01*
X157952440Y-87985600D01*
X157899100Y-87906860D01*
X157756860Y-87698580D01*
X157835600Y-87503000D01*
X157858460Y-87444580D01*
X157888940Y-87370920D01*
X157911800Y-87320120D01*
X157924500Y-87297260D01*
X157944820Y-87289640D01*
X157998160Y-87276940D01*
X158076900Y-87259160D01*
X158168340Y-87243920D01*
X158257240Y-87226140D01*
X158335980Y-87210900D01*
X158394400Y-87200740D01*
X158419800Y-87195660D01*
X158424880Y-87190580D01*
X158429960Y-87177880D01*
X158435040Y-87152480D01*
X158435040Y-87104220D01*
X158437580Y-87028020D01*
X158437580Y-86916260D01*
X158437580Y-86906100D01*
X158435040Y-86799420D01*
X158435040Y-86715600D01*
X158432500Y-86662260D01*
X158427420Y-86641940D01*
X158402020Y-86634320D01*
X158346140Y-86624160D01*
X158267400Y-86606380D01*
X158170880Y-86588600D01*
X158165800Y-86588600D01*
X158071820Y-86570820D01*
X157993080Y-86553040D01*
X157937200Y-86540340D01*
X157914340Y-86532720D01*
X157909260Y-86527640D01*
X157888940Y-86489540D01*
X157861000Y-86431120D01*
X157830520Y-86360000D01*
X157800040Y-86286340D01*
X157772100Y-86217760D01*
X157754320Y-86169500D01*
X157749240Y-86146640D01*
X157764480Y-86123780D01*
X157797500Y-86072980D01*
X157843220Y-86006940D01*
X157899100Y-85925660D01*
X157901640Y-85918040D01*
X157957520Y-85839300D01*
X158000700Y-85770720D01*
X158031180Y-85722460D01*
X158041340Y-85702140D01*
X158041340Y-85699600D01*
X158023560Y-85676740D01*
X157982920Y-85631020D01*
X157924500Y-85570060D01*
X157853380Y-85498940D01*
X157830520Y-85478620D01*
X157754320Y-85402420D01*
X157700980Y-85351620D01*
X157665420Y-85326220D01*
X157650180Y-85318600D01*
X157650180Y-85321140D01*
X157624780Y-85333840D01*
X157573980Y-85366860D01*
X157505400Y-85415120D01*
X157424120Y-85468460D01*
X157419040Y-85473540D01*
X157340300Y-85526880D01*
X157274260Y-85572600D01*
X157226000Y-85603080D01*
X157205680Y-85615780D01*
X157200600Y-85615780D01*
X157170120Y-85605620D01*
X157111700Y-85587840D01*
X157043120Y-85559900D01*
X156969460Y-85529420D01*
X156900880Y-85501480D01*
X156850080Y-85478620D01*
X156827220Y-85465920D01*
X156827220Y-85463380D01*
X156817060Y-85435440D01*
X156804360Y-85374480D01*
X156786580Y-85293200D01*
X156768800Y-85194140D01*
X156766260Y-85178900D01*
X156748480Y-85084920D01*
X156733240Y-85006180D01*
X156720540Y-84950300D01*
X156715460Y-84927440D01*
X156702760Y-84924900D01*
X156654500Y-84922360D01*
X156583380Y-84919820D01*
X156497020Y-84919820D01*
X156408120Y-84919820D01*
X156321760Y-84922360D01*
X156245560Y-84924900D01*
X156192220Y-84927440D01*
X156169360Y-84932520D01*
X156166820Y-84935060D01*
X156159200Y-84963000D01*
X156146500Y-85023960D01*
X156128720Y-85105240D01*
X156110940Y-85204300D01*
X156108400Y-85222080D01*
X156090620Y-85316060D01*
X156072840Y-85394800D01*
X156062680Y-85448140D01*
X156055060Y-85468460D01*
X156047440Y-85473540D01*
X156009340Y-85491320D01*
X155945840Y-85516720D01*
X155864560Y-85549740D01*
X155681680Y-85623400D01*
X155458160Y-85468460D01*
X155437840Y-85455760D01*
X155356560Y-85399880D01*
X155290520Y-85356700D01*
X155244800Y-85326220D01*
X155224480Y-85316060D01*
X155201620Y-85336380D01*
X155155900Y-85377020D01*
X155094940Y-85437980D01*
X155026360Y-85506560D01*
X154973020Y-85559900D01*
X154912060Y-85623400D01*
X154871420Y-85664040D01*
X154851100Y-85691980D01*
X154843480Y-85709760D01*
X154846020Y-85719920D01*
X154858720Y-85742780D01*
X154891740Y-85791040D01*
X154937460Y-85859620D01*
X154993340Y-85938360D01*
X155039060Y-86006940D01*
X155087320Y-86080600D01*
X155117800Y-86133940D01*
X155130500Y-86161880D01*
X155127960Y-86172040D01*
X155110180Y-86215220D01*
X155084780Y-86283800D01*
X155051760Y-86362540D01*
X154973020Y-86540340D01*
X154856180Y-86560660D01*
X154785060Y-86575900D01*
X154686000Y-86593680D01*
X154592020Y-86611460D01*
X154444700Y-86641940D01*
X154439620Y-87180420D01*
X154462480Y-87190580D01*
X154485340Y-87198200D01*
X154538680Y-87208360D01*
X154617420Y-87223600D01*
X154708860Y-87241380D01*
X154787600Y-87256620D01*
X154866340Y-87271860D01*
X154922220Y-87282020D01*
X154947620Y-87287100D01*
X154955240Y-87297260D01*
X154975560Y-87335360D01*
X155003500Y-87396320D01*
X155033980Y-87469980D01*
X155064460Y-87543640D01*
X155092400Y-87614760D01*
X155112720Y-87668100D01*
X155120340Y-87696040D01*
X155110180Y-87716360D01*
X155079700Y-87762080D01*
X155036520Y-87828120D01*
X154983180Y-87906860D01*
X154927300Y-87985600D01*
X154884120Y-88054180D01*
X154851100Y-88102440D01*
X154838400Y-88122760D01*
X154846020Y-88138000D01*
X154876500Y-88176100D01*
X154934920Y-88237060D01*
X155023820Y-88325960D01*
X155039060Y-88338660D01*
X155107640Y-88407240D01*
X155168600Y-88460580D01*
X155209240Y-88498680D01*
X155227020Y-88511380D01*
G37*
X155227020Y-88511380D02*
X155247340Y-88501220D01*
X155295600Y-88470740D01*
X155361640Y-88427560D01*
X155440380Y-88374220D01*
X155519120Y-88320880D01*
X155585160Y-88277700D01*
X155630880Y-88247220D01*
X155648660Y-88237060D01*
X155658820Y-88239600D01*
X155696920Y-88259920D01*
X155752800Y-88287860D01*
X155783280Y-88303100D01*
X155834080Y-88325960D01*
X155859480Y-88331040D01*
X155862020Y-88323420D01*
X155882340Y-88285320D01*
X155910280Y-88219280D01*
X155948380Y-88132920D01*
X155991560Y-88031320D01*
X156037280Y-87922100D01*
X156083000Y-87810340D01*
X156128720Y-87703660D01*
X156166820Y-87607140D01*
X156199840Y-87530940D01*
X156220160Y-87475060D01*
X156227780Y-87452200D01*
X156225240Y-87447120D01*
X156199840Y-87424260D01*
X156156660Y-87391240D01*
X156060140Y-87312500D01*
X155968700Y-87195660D01*
X155910280Y-87063580D01*
X155892500Y-86916260D01*
X155907740Y-86781640D01*
X155961080Y-86652100D01*
X156052520Y-86532720D01*
X156164280Y-86446360D01*
X156293820Y-86390480D01*
X156438600Y-86372700D01*
X156578300Y-86387940D01*
X156710380Y-86441280D01*
X156829760Y-86530180D01*
X156878020Y-86588600D01*
X156946600Y-86707980D01*
X156987240Y-86834980D01*
X156989780Y-86865460D01*
X156984700Y-87007700D01*
X156944060Y-87142320D01*
X156870400Y-87261700D01*
X156766260Y-87360760D01*
X156753560Y-87370920D01*
X156705300Y-87406480D01*
X156674820Y-87429340D01*
X156649420Y-87449660D01*
X156827220Y-87881460D01*
X156855160Y-87950040D01*
X156905960Y-88066880D01*
X156949140Y-88168480D01*
X156982160Y-88249760D01*
X157007560Y-88303100D01*
X157017720Y-88325960D01*
X157032960Y-88328500D01*
X157065980Y-88315800D01*
X157126940Y-88287860D01*
X157167580Y-88267540D01*
X157213300Y-88244680D01*
X157233620Y-88237060D01*
X157251400Y-88247220D01*
X157294580Y-88275160D01*
X157358080Y-88318340D01*
X157434280Y-88369140D01*
X157507940Y-88419940D01*
X157576520Y-88465660D01*
X157624780Y-88496140D01*
X157650180Y-88508840D01*
X157652720Y-88508840D01*
X157673040Y-88496140D01*
X157713680Y-88465660D01*
X157772100Y-88409780D01*
X157853380Y-88328500D01*
X157866080Y-88315800D01*
X157934660Y-88244680D01*
X157990540Y-88186260D01*
X158028640Y-88145620D01*
X158041340Y-88127840D01*
X158028640Y-88102440D01*
X157998160Y-88054180D01*
X157952440Y-87985600D01*
X157899100Y-87906860D01*
X157756860Y-87698580D01*
X157835600Y-87503000D01*
X157858460Y-87444580D01*
X157888940Y-87370920D01*
X157911800Y-87320120D01*
X157924500Y-87297260D01*
X157944820Y-87289640D01*
X157998160Y-87276940D01*
X158076900Y-87259160D01*
X158168340Y-87243920D01*
X158257240Y-87226140D01*
X158335980Y-87210900D01*
X158394400Y-87200740D01*
X158419800Y-87195660D01*
X158424880Y-87190580D01*
X158429960Y-87177880D01*
X158435040Y-87152480D01*
X158435040Y-87104220D01*
X158437580Y-87028020D01*
X158437580Y-86916260D01*
X158437580Y-86906100D01*
X158435040Y-86799420D01*
X158435040Y-86715600D01*
X158432500Y-86662260D01*
X158427420Y-86641940D01*
X158402020Y-86634320D01*
X158346140Y-86624160D01*
X158267400Y-86606380D01*
X158170880Y-86588600D01*
X158165800Y-86588600D01*
X158071820Y-86570820D01*
X157993080Y-86553040D01*
X157937200Y-86540340D01*
X157914340Y-86532720D01*
X157909260Y-86527640D01*
X157888940Y-86489540D01*
X157861000Y-86431120D01*
X157830520Y-86360000D01*
X157800040Y-86286340D01*
X157772100Y-86217760D01*
X157754320Y-86169500D01*
X157749240Y-86146640D01*
X157764480Y-86123780D01*
X157797500Y-86072980D01*
X157843220Y-86006940D01*
X157899100Y-85925660D01*
X157901640Y-85918040D01*
X157957520Y-85839300D01*
X158000700Y-85770720D01*
X158031180Y-85722460D01*
X158041340Y-85702140D01*
X158041340Y-85699600D01*
X158023560Y-85676740D01*
X157982920Y-85631020D01*
X157924500Y-85570060D01*
X157853380Y-85498940D01*
X157830520Y-85478620D01*
X157754320Y-85402420D01*
X157700980Y-85351620D01*
X157665420Y-85326220D01*
X157650180Y-85318600D01*
X157650180Y-85321140D01*
X157624780Y-85333840D01*
X157573980Y-85366860D01*
X157505400Y-85415120D01*
X157424120Y-85468460D01*
X157419040Y-85473540D01*
X157340300Y-85526880D01*
X157274260Y-85572600D01*
X157226000Y-85603080D01*
X157205680Y-85615780D01*
X157200600Y-85615780D01*
X157170120Y-85605620D01*
X157111700Y-85587840D01*
X157043120Y-85559900D01*
X156969460Y-85529420D01*
X156900880Y-85501480D01*
X156850080Y-85478620D01*
X156827220Y-85465920D01*
X156827220Y-85463380D01*
X156817060Y-85435440D01*
X156804360Y-85374480D01*
X156786580Y-85293200D01*
X156768800Y-85194140D01*
X156766260Y-85178900D01*
X156748480Y-85084920D01*
X156733240Y-85006180D01*
X156720540Y-84950300D01*
X156715460Y-84927440D01*
X156702760Y-84924900D01*
X156654500Y-84922360D01*
X156583380Y-84919820D01*
X156497020Y-84919820D01*
X156408120Y-84919820D01*
X156321760Y-84922360D01*
X156245560Y-84924900D01*
X156192220Y-84927440D01*
X156169360Y-84932520D01*
X156166820Y-84935060D01*
X156159200Y-84963000D01*
X156146500Y-85023960D01*
X156128720Y-85105240D01*
X156110940Y-85204300D01*
X156108400Y-85222080D01*
X156090620Y-85316060D01*
X156072840Y-85394800D01*
X156062680Y-85448140D01*
X156055060Y-85468460D01*
X156047440Y-85473540D01*
X156009340Y-85491320D01*
X155945840Y-85516720D01*
X155864560Y-85549740D01*
X155681680Y-85623400D01*
X155458160Y-85468460D01*
X155437840Y-85455760D01*
X155356560Y-85399880D01*
X155290520Y-85356700D01*
X155244800Y-85326220D01*
X155224480Y-85316060D01*
X155201620Y-85336380D01*
X155155900Y-85377020D01*
X155094940Y-85437980D01*
X155026360Y-85506560D01*
X154973020Y-85559900D01*
X154912060Y-85623400D01*
X154871420Y-85664040D01*
X154851100Y-85691980D01*
X154843480Y-85709760D01*
X154846020Y-85719920D01*
X154858720Y-85742780D01*
X154891740Y-85791040D01*
X154937460Y-85859620D01*
X154993340Y-85938360D01*
X155039060Y-86006940D01*
X155087320Y-86080600D01*
X155117800Y-86133940D01*
X155130500Y-86161880D01*
X155127960Y-86172040D01*
X155110180Y-86215220D01*
X155084780Y-86283800D01*
X155051760Y-86362540D01*
X154973020Y-86540340D01*
X154856180Y-86560660D01*
X154785060Y-86575900D01*
X154686000Y-86593680D01*
X154592020Y-86611460D01*
X154444700Y-86641940D01*
X154439620Y-87180420D01*
X154462480Y-87190580D01*
X154485340Y-87198200D01*
X154538680Y-87208360D01*
X154617420Y-87223600D01*
X154708860Y-87241380D01*
X154787600Y-87256620D01*
X154866340Y-87271860D01*
X154922220Y-87282020D01*
X154947620Y-87287100D01*
X154955240Y-87297260D01*
X154975560Y-87335360D01*
X155003500Y-87396320D01*
X155033980Y-87469980D01*
X155064460Y-87543640D01*
X155092400Y-87614760D01*
X155112720Y-87668100D01*
X155120340Y-87696040D01*
X155110180Y-87716360D01*
X155079700Y-87762080D01*
X155036520Y-87828120D01*
X154983180Y-87906860D01*
X154927300Y-87985600D01*
X154884120Y-88054180D01*
X154851100Y-88102440D01*
X154838400Y-88122760D01*
X154846020Y-88138000D01*
X154876500Y-88176100D01*
X154934920Y-88237060D01*
X155023820Y-88325960D01*
X155039060Y-88338660D01*
X155107640Y-88407240D01*
X155168600Y-88460580D01*
X155209240Y-88498680D01*
X155227020Y-88511380D01*
D12*
X145084800Y-101168200D03*
X150164800Y-99898200D03*
X145084800Y-98628200D03*
X150164800Y-97358200D03*
X145084800Y-96088200D03*
X150164800Y-94818200D03*
X145084800Y-93548200D03*
X150164800Y-92278200D03*
X145084800Y-91008200D03*
X150164800Y-89738200D03*
X145084800Y-88468200D03*
X150164800Y-87198200D03*
X145084800Y-85928200D03*
X150164800Y-84658200D03*
X145084800Y-83388200D03*
D13*
X156231600Y-80803600D03*
X156231600Y-103803600D03*
D14*
X130124200Y-74777600D03*
D15*
X135204200Y-74777600D03*
D16*
X129692400Y-83083400D03*
D17*
X129692400Y-80543400D03*
D14*
X122656600Y-88442800D03*
X122656600Y-83362800D03*
D15*
X122656600Y-78282800D03*
D16*
X124104400Y-107492800D03*
D17*
X121564400Y-107492800D03*
D14*
X135026400Y-109982000D03*
D15*
X129946400Y-109982000D03*
D16*
X121564400Y-93192600D03*
D17*
X124104400Y-93192600D03*
D16*
X121539000Y-104216200D03*
X121539000Y-101676200D03*
X121539000Y-99136200D03*
D17*
X121539000Y-96596200D03*
D18*
X126898400Y-101193600D03*
X138125200Y-100304600D03*
X136652000Y-100330000D03*
X135026400Y-100330000D03*
X133654800Y-100304600D03*
X138150600Y-98958400D03*
X136601200Y-98907600D03*
X135051800Y-98933000D03*
X133654800Y-98933000D03*
X135991600Y-86537800D03*
X135153400Y-86588600D03*
X136042400Y-85648800D03*
X135153400Y-85674200D03*
X152120600Y-112826800D03*
X153289000Y-112801400D03*
X153339800Y-110744000D03*
X151866600Y-110667800D03*
X148691600Y-112776000D03*
X150190200Y-112826800D03*
X149987000Y-110744000D03*
X148742400Y-110820200D03*
X145719800Y-112826800D03*
X146710400Y-112725200D03*
X146862800Y-110794800D03*
X145745200Y-110769400D03*
X143154400Y-110820200D03*
X142062200Y-110896400D03*
X143230600Y-112725200D03*
X142062200Y-112623600D03*
X126847600Y-90500200D03*
X128219200Y-101193600D03*
X129667000Y-101193600D03*
X131445000Y-101117400D03*
X132461000Y-99847400D03*
X132029200Y-85826600D03*
X133375400Y-85852000D03*
X132029200Y-87147400D03*
X133375400Y-87147400D03*
X124180600Y-102082600D03*
X126873000Y-98018600D03*
X127228600Y-96494600D03*
X126847600Y-97155000D03*
X127660400Y-98044000D03*
X127635000Y-97155000D03*
X152476200Y-108635800D03*
X152434800Y-107635800D03*
X152425400Y-106705400D03*
X149809200Y-106857800D03*
X148844000Y-106883200D03*
X140538198Y-79171800D03*
X148209000Y-79121000D03*
X140538200Y-105689400D03*
X140538200Y-98628200D03*
X148844000Y-105943400D03*
X149783800Y-105968800D03*
X140563600Y-106756200D03*
X123329370Y-100876190D03*
X136144000Y-82880200D03*
X135204200Y-82880200D03*
X136144000Y-82067400D03*
X135229600Y-82067400D03*
X136118600Y-81229200D03*
X136118600Y-80365600D03*
X135204200Y-81178400D03*
X151434800Y-74091800D03*
X152857200Y-73964800D03*
X152730200Y-72161400D03*
X151460200Y-72136000D03*
X149428200Y-73990200D03*
X148234400Y-73939400D03*
X149402800Y-72110600D03*
X148234400Y-72161400D03*
X144983200Y-73990200D03*
X146151600Y-73939400D03*
X146151600Y-72136000D03*
X144983200Y-72136000D03*
X141681200Y-74041000D03*
X142925800Y-73990200D03*
X142951200Y-72059800D03*
X141630400Y-72085200D03*
X135255000Y-80340200D03*
D19*
X126847600Y-90500200D02*
X126847600Y-85826600D01*
X125755400Y-85826600D02*
X123291600Y-83362800D01*
X126847600Y-85826600D02*
X125755400Y-85826600D01*
X121539000Y-104216200D02*
X150850600Y-104216200D01*
X151899258Y-97361400D02*
X152527000Y-97989142D01*
X150520400Y-97361400D02*
X151899258Y-97361400D01*
X152527000Y-102539800D02*
X150850600Y-104216200D01*
X152527000Y-97989142D02*
X152527000Y-102539800D01*
X149069400Y-94821400D02*
X150520400Y-94821400D01*
X148488400Y-95402400D02*
X149069400Y-94821400D01*
X148488400Y-102743000D02*
X148488400Y-95402400D01*
X147726400Y-103505000D02*
X148488400Y-102743000D01*
X123367800Y-103505000D02*
X147726400Y-103505000D01*
X121539000Y-101676200D02*
X123367800Y-103505000D01*
D10*
X144061542Y-91011400D02*
X145440400Y-91011400D01*
X129943200Y-91011400D02*
X144061542Y-91011400D01*
X121818400Y-99136200D02*
X129943200Y-91011400D01*
X121539000Y-99136200D02*
X121818400Y-99136200D01*
X144061542Y-88471400D02*
X145440400Y-88471400D01*
X131365600Y-88471400D02*
X144061542Y-88471400D01*
X123240800Y-96596200D02*
X131365600Y-88471400D01*
X121539000Y-96596200D02*
X123240800Y-96596200D01*
X124180600Y-102082600D02*
X124891800Y-102793800D01*
X124891800Y-102793800D02*
X146862800Y-102793800D01*
X146862800Y-102793800D02*
X147650200Y-102006400D01*
X147650200Y-102006400D02*
X147650200Y-90449400D01*
X148358200Y-89741400D02*
X150520400Y-89741400D01*
X147650200Y-90449400D02*
X148358200Y-89741400D01*
D20*
X148209000Y-79121000D02*
X140588998Y-79121000D01*
X140588998Y-79121000D02*
X140538198Y-79171800D01*
D21*
X145437200Y-98628200D02*
X145440400Y-98631400D01*
X140538200Y-98628200D02*
X145437200Y-98628200D01*
D19*
X123729369Y-100476191D02*
X123329370Y-100876190D01*
X124815360Y-99390200D02*
X123729369Y-100476191D01*
X129971800Y-99390200D02*
X124815360Y-99390200D01*
X133270600Y-96091400D02*
X129971800Y-99390200D01*
X145440400Y-96091400D02*
X133270600Y-96091400D01*
D22*
X150520400Y-87201400D02*
X151965000Y-87201400D01*
X152857200Y-86309200D02*
X152857200Y-73964800D01*
X151965000Y-87201400D02*
X152857200Y-86309200D01*
D23*
G36*
X155600400Y-74599800D02*
G01*
X140081000Y-74599800D01*
X140081000Y-71653400D01*
X155600400Y-71653400D01*
X155600400Y-74599800D01*
G37*
X155600400Y-74599800D02*
X140081000Y-74599800D01*
X140081000Y-71653400D01*
X155600400Y-71653400D01*
X155600400Y-74599800D01*
G36*
X157835417Y-108839000D02*
G01*
X155575000Y-108839000D01*
X155550224Y-108841440D01*
X155526399Y-108848667D01*
X155504443Y-108860403D01*
X155485197Y-108876197D01*
X155469403Y-108895443D01*
X155457667Y-108917399D01*
X155450440Y-108941224D01*
X155448000Y-108966000D01*
X155448000Y-113231400D01*
X142414343Y-113231400D01*
X142414343Y-110413800D01*
X153873200Y-110413800D01*
X153897976Y-110411360D01*
X153921801Y-110404133D01*
X153943757Y-110392397D01*
X153963003Y-110376603D01*
X153978797Y-110357357D01*
X153990533Y-110335401D01*
X153997760Y-110311576D01*
X154000200Y-110286989D01*
X154025600Y-93243589D01*
X154023197Y-93218809D01*
X154016005Y-93194974D01*
X154004302Y-93173000D01*
X153988536Y-93153731D01*
X153969315Y-93137909D01*
X153947376Y-93126140D01*
X153923562Y-93118877D01*
X153898600Y-93116400D01*
X149885400Y-93116400D01*
X149885400Y-91465400D01*
X157810383Y-91465400D01*
X157835417Y-108839000D01*
G37*
X157835417Y-108839000D02*
X155575000Y-108839000D01*
X155550224Y-108841440D01*
X155526399Y-108848667D01*
X155504443Y-108860403D01*
X155485197Y-108876197D01*
X155469403Y-108895443D01*
X155457667Y-108917399D01*
X155450440Y-108941224D01*
X155448000Y-108966000D01*
X155448000Y-113231400D01*
X142414343Y-113231400D01*
X142414343Y-110413800D01*
X153873200Y-110413800D01*
X153897976Y-110411360D01*
X153921801Y-110404133D01*
X153943757Y-110392397D01*
X153963003Y-110376603D01*
X153978797Y-110357357D01*
X153990533Y-110335401D01*
X153997760Y-110311576D01*
X154000200Y-110286989D01*
X154025600Y-93243589D01*
X154023197Y-93218809D01*
X154016005Y-93194974D01*
X154004302Y-93173000D01*
X153988536Y-93153731D01*
X153969315Y-93137909D01*
X153947376Y-93126140D01*
X153923562Y-93118877D01*
X153898600Y-93116400D01*
X149885400Y-93116400D01*
X149885400Y-91465400D01*
X157810383Y-91465400D01*
X157835417Y-108839000D01*
G36*
X153189104Y-107975321D02*
G01*
X153211070Y-109600799D01*
X137007798Y-109575600D01*
X136983017Y-109578002D01*
X136959182Y-109585192D01*
X136937207Y-109596894D01*
X136917937Y-109612658D01*
X136902113Y-109631878D01*
X136890343Y-109653817D01*
X136883079Y-109677630D01*
X136880604Y-109703604D01*
X136884114Y-110147800D01*
X136630057Y-110147800D01*
X136630057Y-112791020D01*
X133350000Y-112801013D01*
X133350000Y-107962780D01*
X153189104Y-107975321D01*
G37*
X153189104Y-107975321D02*
X153211070Y-109600799D01*
X137007798Y-109575600D01*
X136983017Y-109578002D01*
X136959182Y-109585192D01*
X136937207Y-109596894D01*
X136917937Y-109612658D01*
X136902113Y-109631878D01*
X136890343Y-109653817D01*
X136883079Y-109677630D01*
X136880604Y-109703604D01*
X136884114Y-110147800D01*
X136630057Y-110147800D01*
X136630057Y-112791020D01*
X133350000Y-112801013D01*
X133350000Y-107962780D01*
X153189104Y-107975321D01*
G36*
X150825200Y-105052738D02*
G01*
X150825200Y-107238657D01*
X132461143Y-107217995D01*
X132436364Y-107220407D01*
X132412531Y-107227608D01*
X132390561Y-107239319D01*
X132371299Y-107255091D01*
X132355483Y-107274319D01*
X132343722Y-107296262D01*
X132336468Y-107320078D01*
X132334000Y-107344995D01*
X132334000Y-112797406D01*
X126263400Y-112826196D01*
X126263400Y-112776000D01*
X126260960Y-112751224D01*
X126253733Y-112727399D01*
X126241997Y-112705443D01*
X126238000Y-112700572D01*
X126238000Y-105051200D01*
X150809582Y-105051200D01*
X150825200Y-105052738D01*
G37*
X150825200Y-105052738D02*
X150825200Y-107238657D01*
X132461143Y-107217995D01*
X132436364Y-107220407D01*
X132412531Y-107227608D01*
X132390561Y-107239319D01*
X132371299Y-107255091D01*
X132355483Y-107274319D01*
X132343722Y-107296262D01*
X132336468Y-107320078D01*
X132334000Y-107344995D01*
X132334000Y-112797406D01*
X126263400Y-112826196D01*
X126263400Y-112776000D01*
X126260960Y-112751224D01*
X126253733Y-112727399D01*
X126241997Y-112705443D01*
X126238000Y-112700572D01*
X126238000Y-105051200D01*
X150809582Y-105051200D01*
X150825200Y-105052738D01*
G36*
X153497705Y-87102155D02*
G01*
X152597376Y-87976760D01*
X148836795Y-87960388D01*
X147802600Y-87161238D01*
X147802600Y-81534000D01*
X147800160Y-81509224D01*
X147792933Y-81485399D01*
X147781197Y-81463443D01*
X147765403Y-81444197D01*
X147746157Y-81428403D01*
X147724201Y-81416667D01*
X147700376Y-81409440D01*
X147675600Y-81407000D01*
X128195606Y-81407000D01*
X126810403Y-80021797D01*
X126791157Y-80006003D01*
X126769201Y-79994267D01*
X126745376Y-79987040D01*
X126720600Y-79984600D01*
X120091200Y-79984600D01*
X120091200Y-76657200D01*
X127429994Y-76657200D01*
X129145397Y-78372603D01*
X129164643Y-78388397D01*
X129186599Y-78400133D01*
X129210424Y-78407360D01*
X129235200Y-78409800D01*
X138201400Y-78409800D01*
X138201400Y-80365600D01*
X138203840Y-80390376D01*
X138211067Y-80414201D01*
X138222803Y-80436157D01*
X138238597Y-80455403D01*
X138257843Y-80471197D01*
X138279799Y-80482933D01*
X138303624Y-80490160D01*
X138328400Y-80492600D01*
X140328446Y-80492600D01*
X140538198Y-80513259D01*
X140747950Y-80492600D01*
X148156394Y-80492600D01*
X148844000Y-81180206D01*
X148844000Y-83736994D01*
X148738037Y-83895579D01*
X148616671Y-84188580D01*
X148554800Y-84499629D01*
X148554800Y-84816771D01*
X148616671Y-85127820D01*
X148738037Y-85420821D01*
X148844000Y-85579406D01*
X148844000Y-86156800D01*
X148846440Y-86181576D01*
X148853667Y-86205401D01*
X148865403Y-86227357D01*
X148881197Y-86246603D01*
X148900443Y-86262397D01*
X148922399Y-86274133D01*
X148946224Y-86281360D01*
X148971000Y-86283800D01*
X152171400Y-86283800D01*
X152196176Y-86281360D01*
X152220001Y-86274133D01*
X152241957Y-86262397D01*
X152261203Y-86246603D01*
X152276997Y-86227357D01*
X152288733Y-86205401D01*
X152295960Y-86181576D01*
X152298400Y-86156545D01*
X152273255Y-73609200D01*
X153542577Y-73609200D01*
X153497705Y-87102155D01*
G37*
X153497705Y-87102155D02*
X152597376Y-87976760D01*
X148836795Y-87960388D01*
X147802600Y-87161238D01*
X147802600Y-81534000D01*
X147800160Y-81509224D01*
X147792933Y-81485399D01*
X147781197Y-81463443D01*
X147765403Y-81444197D01*
X147746157Y-81428403D01*
X147724201Y-81416667D01*
X147700376Y-81409440D01*
X147675600Y-81407000D01*
X128195606Y-81407000D01*
X126810403Y-80021797D01*
X126791157Y-80006003D01*
X126769201Y-79994267D01*
X126745376Y-79987040D01*
X126720600Y-79984600D01*
X120091200Y-79984600D01*
X120091200Y-76657200D01*
X127429994Y-76657200D01*
X129145397Y-78372603D01*
X129164643Y-78388397D01*
X129186599Y-78400133D01*
X129210424Y-78407360D01*
X129235200Y-78409800D01*
X138201400Y-78409800D01*
X138201400Y-80365600D01*
X138203840Y-80390376D01*
X138211067Y-80414201D01*
X138222803Y-80436157D01*
X138238597Y-80455403D01*
X138257843Y-80471197D01*
X138279799Y-80482933D01*
X138303624Y-80490160D01*
X138328400Y-80492600D01*
X140328446Y-80492600D01*
X140538198Y-80513259D01*
X140747950Y-80492600D01*
X148156394Y-80492600D01*
X148844000Y-81180206D01*
X148844000Y-83736994D01*
X148738037Y-83895579D01*
X148616671Y-84188580D01*
X148554800Y-84499629D01*
X148554800Y-84816771D01*
X148616671Y-85127820D01*
X148738037Y-85420821D01*
X148844000Y-85579406D01*
X148844000Y-86156800D01*
X148846440Y-86181576D01*
X148853667Y-86205401D01*
X148865403Y-86227357D01*
X148881197Y-86246603D01*
X148900443Y-86262397D01*
X148922399Y-86274133D01*
X148946224Y-86281360D01*
X148971000Y-86283800D01*
X152171400Y-86283800D01*
X152196176Y-86281360D01*
X152220001Y-86274133D01*
X152241957Y-86262397D01*
X152261203Y-86246603D01*
X152276997Y-86227357D01*
X152288733Y-86205401D01*
X152295960Y-86181576D01*
X152298400Y-86156545D01*
X152273255Y-73609200D01*
X153542577Y-73609200D01*
X153497705Y-87102155D01*
G36*
X127672197Y-84468603D02*
G01*
X127691443Y-84484397D01*
X127713399Y-84496133D01*
X127737224Y-84503360D01*
X127762468Y-84505799D01*
X129232795Y-84500377D01*
X129259242Y-84511332D01*
X129546140Y-84568400D01*
X129838660Y-84568400D01*
X130125558Y-84511332D01*
X130160261Y-84496957D01*
X140713424Y-84458044D01*
X140738192Y-84455513D01*
X140761989Y-84448198D01*
X140783902Y-84436381D01*
X140802775Y-84420831D01*
X142852058Y-82370790D01*
X146430622Y-82385443D01*
X146431378Y-84338776D01*
X145308614Y-84331178D01*
X145243371Y-84318200D01*
X144926229Y-84318200D01*
X144875714Y-84328248D01*
X144505139Y-84325740D01*
X144480347Y-84328012D01*
X144456474Y-84335078D01*
X144434439Y-84346665D01*
X144418767Y-84358841D01*
X144096938Y-84651937D01*
X144058485Y-84677631D01*
X143954017Y-84782099D01*
X141016476Y-87457382D01*
X126735283Y-87462456D01*
X124521653Y-85378529D01*
X124501940Y-85363323D01*
X124479639Y-85352255D01*
X124455608Y-85345750D01*
X124434600Y-85344000D01*
X120091200Y-85344000D01*
X120091200Y-81610200D01*
X124813794Y-81610200D01*
X127672197Y-84468603D01*
G37*
X127672197Y-84468603D02*
X127691443Y-84484397D01*
X127713399Y-84496133D01*
X127737224Y-84503360D01*
X127762468Y-84505799D01*
X129232795Y-84500377D01*
X129259242Y-84511332D01*
X129546140Y-84568400D01*
X129838660Y-84568400D01*
X130125558Y-84511332D01*
X130160261Y-84496957D01*
X140713424Y-84458044D01*
X140738192Y-84455513D01*
X140761989Y-84448198D01*
X140783902Y-84436381D01*
X140802775Y-84420831D01*
X142852058Y-82370790D01*
X146430622Y-82385443D01*
X146431378Y-84338776D01*
X145308614Y-84331178D01*
X145243371Y-84318200D01*
X144926229Y-84318200D01*
X144875714Y-84328248D01*
X144505139Y-84325740D01*
X144480347Y-84328012D01*
X144456474Y-84335078D01*
X144434439Y-84346665D01*
X144418767Y-84358841D01*
X144096938Y-84651937D01*
X144058485Y-84677631D01*
X143954017Y-84782099D01*
X141016476Y-87457382D01*
X126735283Y-87462456D01*
X124521653Y-85378529D01*
X124501940Y-85363323D01*
X124479639Y-85352255D01*
X124455608Y-85345750D01*
X124434600Y-85344000D01*
X120091200Y-85344000D01*
X120091200Y-81610200D01*
X124813794Y-81610200D01*
X127672197Y-84468603D01*
G36*
X137322298Y-72976875D02*
G01*
X139937870Y-75626872D01*
X139957012Y-75642791D01*
X139978891Y-75654670D01*
X140002668Y-75662053D01*
X140028234Y-75664658D01*
X150417021Y-75666590D01*
X151358600Y-76607255D01*
X151358600Y-85526371D01*
X149733000Y-85572909D01*
X149733000Y-78939204D01*
X149730560Y-78914428D01*
X149723333Y-78890603D01*
X149711597Y-78868647D01*
X149701139Y-78855076D01*
X149396388Y-78510438D01*
X149324382Y-78375725D01*
X149157555Y-78172445D01*
X148954275Y-78005618D01*
X148946156Y-78001278D01*
X148761339Y-77792272D01*
X148743098Y-77775328D01*
X148721903Y-77762268D01*
X148698566Y-77753594D01*
X148666200Y-77749400D01*
X138995865Y-77749400D01*
X138017835Y-76624665D01*
X137999736Y-76607570D01*
X137978649Y-76594334D01*
X137955386Y-76585467D01*
X137922000Y-76581000D01*
X133629400Y-76581000D01*
X133629400Y-72948800D01*
X137219214Y-72948800D01*
X137322298Y-72976875D01*
G37*
X137322298Y-72976875D02*
X139937870Y-75626872D01*
X139957012Y-75642791D01*
X139978891Y-75654670D01*
X140002668Y-75662053D01*
X140028234Y-75664658D01*
X150417021Y-75666590D01*
X151358600Y-76607255D01*
X151358600Y-85526371D01*
X149733000Y-85572909D01*
X149733000Y-78939204D01*
X149730560Y-78914428D01*
X149723333Y-78890603D01*
X149711597Y-78868647D01*
X149701139Y-78855076D01*
X149396388Y-78510438D01*
X149324382Y-78375725D01*
X149157555Y-78172445D01*
X148954275Y-78005618D01*
X148946156Y-78001278D01*
X148761339Y-77792272D01*
X148743098Y-77775328D01*
X148721903Y-77762268D01*
X148698566Y-77753594D01*
X148666200Y-77749400D01*
X138995865Y-77749400D01*
X138017835Y-76624665D01*
X137999736Y-76607570D01*
X137978649Y-76594334D01*
X137955386Y-76585467D01*
X137922000Y-76581000D01*
X133629400Y-76581000D01*
X133629400Y-72948800D01*
X137219214Y-72948800D01*
X137322298Y-72976875D01*
G36*
X146456400Y-94564200D02*
G01*
X145612672Y-94564200D01*
X145554420Y-94540071D01*
X145243371Y-94478200D01*
X144926229Y-94478200D01*
X144615180Y-94540071D01*
X144556928Y-94564200D01*
X133223000Y-94564200D01*
X133198224Y-94566640D01*
X133174399Y-94573867D01*
X133152443Y-94585603D01*
X133133197Y-94601397D01*
X129334994Y-98399600D01*
X126568200Y-98399600D01*
X126568200Y-95496558D01*
X126687758Y-95377000D01*
X128632595Y-95377000D01*
X128657371Y-95374560D01*
X128681196Y-95367333D01*
X128703152Y-95355597D01*
X128722097Y-95340102D01*
X131446556Y-92633800D01*
X146456400Y-92633800D01*
X146456400Y-94564200D01*
G37*
X146456400Y-94564200D02*
X145612672Y-94564200D01*
X145554420Y-94540071D01*
X145243371Y-94478200D01*
X144926229Y-94478200D01*
X144615180Y-94540071D01*
X144556928Y-94564200D01*
X133223000Y-94564200D01*
X133198224Y-94566640D01*
X133174399Y-94573867D01*
X133152443Y-94585603D01*
X133133197Y-94601397D01*
X129334994Y-98399600D01*
X126568200Y-98399600D01*
X126568200Y-95496558D01*
X126687758Y-95377000D01*
X128632595Y-95377000D01*
X128657371Y-95374560D01*
X128681196Y-95367333D01*
X128703152Y-95355597D01*
X128722097Y-95340102D01*
X131446556Y-92633800D01*
X146456400Y-92633800D01*
X146456400Y-94564200D01*
G36*
X138861800Y-102008800D02*
G01*
X126415800Y-102008800D01*
X126415800Y-100228400D01*
X129963272Y-100228400D01*
X129971800Y-100229240D01*
X129980328Y-100228400D01*
X130606800Y-100228400D01*
X130631576Y-100225960D01*
X130655401Y-100218733D01*
X130677357Y-100206997D01*
X130696603Y-100191203D01*
X133783606Y-97104200D01*
X138861800Y-97104200D01*
X138861800Y-102008800D01*
G37*
X138861800Y-102008800D02*
X126415800Y-102008800D01*
X126415800Y-100228400D01*
X129963272Y-100228400D01*
X129971800Y-100229240D01*
X129980328Y-100228400D01*
X130606800Y-100228400D01*
X130631576Y-100225960D01*
X130655401Y-100218733D01*
X130677357Y-100206997D01*
X130696603Y-100191203D01*
X133783606Y-97104200D01*
X138861800Y-97104200D01*
X138861800Y-102008800D01*
G36*
X139952118Y-83540676D02*
G01*
X131165600Y-83553399D01*
X131165600Y-83288982D01*
X131177400Y-83229660D01*
X131177400Y-82937140D01*
X131165600Y-82877818D01*
X131165600Y-81546278D01*
X141958454Y-81534340D01*
X139952118Y-83540676D01*
G37*
X139952118Y-83540676D02*
X131165600Y-83553399D01*
X131165600Y-83288982D01*
X131177400Y-83229660D01*
X131177400Y-82937140D01*
X131165600Y-82877818D01*
X131165600Y-81546278D01*
X141958454Y-81534340D01*
X139952118Y-83540676D01*
G36*
X153238200Y-109524800D02*
G01*
X151663400Y-109524800D01*
X151663400Y-105003600D01*
X153238200Y-105003600D01*
X153238200Y-109524800D01*
G37*
X153238200Y-109524800D02*
X151663400Y-109524800D01*
X151663400Y-105003600D01*
X153238200Y-105003600D01*
X153238200Y-109524800D01*
G36*
X147675600Y-82268794D02*
G01*
X146915406Y-81508600D01*
X147675600Y-81508600D01*
X147675600Y-82268794D01*
G37*
X147675600Y-82268794D02*
X146915406Y-81508600D01*
X147675600Y-81508600D01*
X147675600Y-82268794D01*
M02*
