G04 #@! TF.GenerationSoftware,KiCad,Pcbnew,5.1.5-52549c5~86~ubuntu16.04.1*
G04 #@! TF.CreationDate,2020-07-28T14:01:40+05:30*
G04 #@! TF.ProjectId,L298N_Motor_Driver_V1.0,4c323938-4e5f-44d6-9f74-6f725f447269,V1.0*
G04 #@! TF.SameCoordinates,Original*
G04 #@! TF.FileFunction,Soldermask,Bot*
G04 #@! TF.FilePolarity,Negative*
%FSLAX46Y46*%
G04 Gerber Fmt 4.6, Leading zero omitted, Abs format (unit mm)*
G04 Created by KiCad (PCBNEW 5.1.5-52549c5~86~ubuntu16.04.1) date 2020-07-28 14:01:40*
%MOMM*%
%LPD*%
G04 APERTURE LIST*
%ADD10C,0.100000*%
G04 APERTURE END LIST*
D10*
G36*
X159649887Y-110140396D02*
G01*
X159886653Y-110238468D01*
X159886655Y-110238469D01*
X160099739Y-110380847D01*
X160280953Y-110562061D01*
X160384261Y-110716672D01*
X160423332Y-110775147D01*
X160521404Y-111011913D01*
X160571400Y-111263261D01*
X160571400Y-111519539D01*
X160521404Y-111770887D01*
X160423332Y-112007653D01*
X160423331Y-112007655D01*
X160280953Y-112220739D01*
X160099739Y-112401953D01*
X159886655Y-112544331D01*
X159886654Y-112544332D01*
X159886653Y-112544332D01*
X159649887Y-112642404D01*
X159398539Y-112692400D01*
X159142261Y-112692400D01*
X158890913Y-112642404D01*
X158654147Y-112544332D01*
X158654146Y-112544332D01*
X158654145Y-112544331D01*
X158441061Y-112401953D01*
X158259847Y-112220739D01*
X158117469Y-112007655D01*
X158117468Y-112007653D01*
X158019396Y-111770887D01*
X157969400Y-111519539D01*
X157969400Y-111263261D01*
X158019396Y-111011913D01*
X158117468Y-110775147D01*
X158156540Y-110716672D01*
X158259847Y-110562061D01*
X158441061Y-110380847D01*
X158654145Y-110238469D01*
X158654147Y-110238468D01*
X158890913Y-110140396D01*
X159142261Y-110090400D01*
X159398539Y-110090400D01*
X159649887Y-110140396D01*
G37*
G36*
X121649887Y-110140396D02*
G01*
X121886653Y-110238468D01*
X121886655Y-110238469D01*
X122099739Y-110380847D01*
X122280953Y-110562061D01*
X122384261Y-110716672D01*
X122423332Y-110775147D01*
X122521404Y-111011913D01*
X122571400Y-111263261D01*
X122571400Y-111519539D01*
X122521404Y-111770887D01*
X122423332Y-112007653D01*
X122423331Y-112007655D01*
X122280953Y-112220739D01*
X122099739Y-112401953D01*
X121886655Y-112544331D01*
X121886654Y-112544332D01*
X121886653Y-112544332D01*
X121649887Y-112642404D01*
X121398539Y-112692400D01*
X121142261Y-112692400D01*
X120890913Y-112642404D01*
X120654147Y-112544332D01*
X120654146Y-112544332D01*
X120654145Y-112544331D01*
X120441061Y-112401953D01*
X120259847Y-112220739D01*
X120117469Y-112007655D01*
X120117468Y-112007653D01*
X120019396Y-111770887D01*
X119969400Y-111519539D01*
X119969400Y-111263261D01*
X120019396Y-111011913D01*
X120117468Y-110775147D01*
X120156540Y-110716672D01*
X120259847Y-110562061D01*
X120441061Y-110380847D01*
X120654145Y-110238469D01*
X120654147Y-110238468D01*
X120890913Y-110140396D01*
X121142261Y-110090400D01*
X121398539Y-110090400D01*
X121649887Y-110140396D01*
G37*
G36*
X135328985Y-108460802D02*
G01*
X135478810Y-108490604D01*
X135761074Y-108607521D01*
X136015105Y-108777259D01*
X136231141Y-108993295D01*
X136400879Y-109247326D01*
X136517796Y-109529590D01*
X136577400Y-109829240D01*
X136577400Y-110134760D01*
X136517796Y-110434410D01*
X136400879Y-110716674D01*
X136231141Y-110970705D01*
X136015105Y-111186741D01*
X135761074Y-111356479D01*
X135478810Y-111473396D01*
X135328985Y-111503198D01*
X135179161Y-111533000D01*
X134873639Y-111533000D01*
X134723815Y-111503198D01*
X134573990Y-111473396D01*
X134291726Y-111356479D01*
X134037695Y-111186741D01*
X133821659Y-110970705D01*
X133651921Y-110716674D01*
X133535004Y-110434410D01*
X133475400Y-110134760D01*
X133475400Y-109829240D01*
X133535004Y-109529590D01*
X133651921Y-109247326D01*
X133821659Y-108993295D01*
X134037695Y-108777259D01*
X134291726Y-108607521D01*
X134573990Y-108490604D01*
X134723815Y-108460802D01*
X134873639Y-108431000D01*
X135179161Y-108431000D01*
X135328985Y-108460802D01*
G37*
G36*
X131497400Y-111533000D02*
G01*
X128395400Y-111533000D01*
X128395400Y-108431000D01*
X131497400Y-108431000D01*
X131497400Y-111533000D01*
G37*
G36*
X124217912Y-106596727D02*
G01*
X124367212Y-106626424D01*
X124531184Y-106694344D01*
X124678754Y-106792947D01*
X124804253Y-106918446D01*
X124902856Y-107066016D01*
X124970776Y-107229988D01*
X125005400Y-107404059D01*
X125005400Y-107581541D01*
X124970776Y-107755612D01*
X124902856Y-107919584D01*
X124804253Y-108067154D01*
X124678754Y-108192653D01*
X124531184Y-108291256D01*
X124367212Y-108359176D01*
X124217912Y-108388873D01*
X124193142Y-108393800D01*
X124015658Y-108393800D01*
X123990888Y-108388873D01*
X123841588Y-108359176D01*
X123677616Y-108291256D01*
X123530046Y-108192653D01*
X123404547Y-108067154D01*
X123305944Y-107919584D01*
X123238024Y-107755612D01*
X123203400Y-107581541D01*
X123203400Y-107404059D01*
X123238024Y-107229988D01*
X123305944Y-107066016D01*
X123404547Y-106918446D01*
X123530046Y-106792947D01*
X123677616Y-106694344D01*
X123841588Y-106626424D01*
X123990888Y-106596727D01*
X124015658Y-106591800D01*
X124193142Y-106591800D01*
X124217912Y-106596727D01*
G37*
G36*
X122465400Y-108393800D02*
G01*
X120663400Y-108393800D01*
X120663400Y-106591800D01*
X122465400Y-106591800D01*
X122465400Y-108393800D01*
G37*
G36*
X156654841Y-102408360D02*
G01*
X156918905Y-102517739D01*
X157156558Y-102676534D01*
X157358666Y-102878642D01*
X157517461Y-103116295D01*
X157626840Y-103380359D01*
X157682600Y-103660688D01*
X157682600Y-103946512D01*
X157626840Y-104226841D01*
X157517461Y-104490905D01*
X157358666Y-104728558D01*
X157156558Y-104930666D01*
X156918905Y-105089461D01*
X156654841Y-105198840D01*
X156374512Y-105254600D01*
X156088688Y-105254600D01*
X155808359Y-105198840D01*
X155544295Y-105089461D01*
X155306642Y-104930666D01*
X155104534Y-104728558D01*
X154945739Y-104490905D01*
X154836360Y-104226841D01*
X154780600Y-103946512D01*
X154780600Y-103660688D01*
X154836360Y-103380359D01*
X154945739Y-103116295D01*
X155104534Y-102878642D01*
X155306642Y-102676534D01*
X155544295Y-102517739D01*
X155808359Y-102408360D01*
X156088688Y-102352600D01*
X156374512Y-102352600D01*
X156654841Y-102408360D01*
G37*
G36*
X121652512Y-103320127D02*
G01*
X121801812Y-103349824D01*
X121965784Y-103417744D01*
X122113354Y-103516347D01*
X122238853Y-103641846D01*
X122337456Y-103789416D01*
X122405376Y-103953388D01*
X122440000Y-104127459D01*
X122440000Y-104304941D01*
X122405376Y-104479012D01*
X122337456Y-104642984D01*
X122238853Y-104790554D01*
X122113354Y-104916053D01*
X121965784Y-105014656D01*
X121801812Y-105082576D01*
X121652512Y-105112273D01*
X121627742Y-105117200D01*
X121450258Y-105117200D01*
X121425488Y-105112273D01*
X121276188Y-105082576D01*
X121112216Y-105014656D01*
X120964646Y-104916053D01*
X120839147Y-104790554D01*
X120740544Y-104642984D01*
X120672624Y-104479012D01*
X120638000Y-104304941D01*
X120638000Y-104127459D01*
X120672624Y-103953388D01*
X120740544Y-103789416D01*
X120839147Y-103641846D01*
X120964646Y-103516347D01*
X121112216Y-103417744D01*
X121276188Y-103349824D01*
X121425488Y-103320127D01*
X121450258Y-103315200D01*
X121627742Y-103315200D01*
X121652512Y-103320127D01*
G37*
G36*
X121652512Y-100780127D02*
G01*
X121801812Y-100809824D01*
X121965784Y-100877744D01*
X122113354Y-100976347D01*
X122238853Y-101101846D01*
X122337456Y-101249416D01*
X122405376Y-101413388D01*
X122440000Y-101587459D01*
X122440000Y-101764941D01*
X122405376Y-101939012D01*
X122337456Y-102102984D01*
X122238853Y-102250554D01*
X122113354Y-102376053D01*
X121965784Y-102474656D01*
X121801812Y-102542576D01*
X121652512Y-102572273D01*
X121627742Y-102577200D01*
X121450258Y-102577200D01*
X121425488Y-102572273D01*
X121276188Y-102542576D01*
X121112216Y-102474656D01*
X120964646Y-102376053D01*
X120839147Y-102250554D01*
X120740544Y-102102984D01*
X120672624Y-101939012D01*
X120638000Y-101764941D01*
X120638000Y-101587459D01*
X120672624Y-101413388D01*
X120740544Y-101249416D01*
X120839147Y-101101846D01*
X120964646Y-100976347D01*
X121112216Y-100877744D01*
X121276188Y-100809824D01*
X121425488Y-100780127D01*
X121450258Y-100775200D01*
X121627742Y-100775200D01*
X121652512Y-100780127D01*
G37*
G36*
X145384072Y-100181628D02*
G01*
X145570791Y-100258970D01*
X145570793Y-100258971D01*
X145738837Y-100371254D01*
X145881746Y-100514163D01*
X145907185Y-100552236D01*
X145994030Y-100682209D01*
X146071372Y-100868928D01*
X146110800Y-101067147D01*
X146110800Y-101269253D01*
X146071372Y-101467472D01*
X146021672Y-101587458D01*
X145994029Y-101654193D01*
X145881746Y-101822237D01*
X145738837Y-101965146D01*
X145570793Y-102077429D01*
X145570792Y-102077430D01*
X145570791Y-102077430D01*
X145384072Y-102154772D01*
X145185853Y-102194200D01*
X144983747Y-102194200D01*
X144785528Y-102154772D01*
X144598809Y-102077430D01*
X144598808Y-102077430D01*
X144598807Y-102077429D01*
X144430763Y-101965146D01*
X144287854Y-101822237D01*
X144175571Y-101654193D01*
X144147928Y-101587458D01*
X144098228Y-101467472D01*
X144058800Y-101269253D01*
X144058800Y-101067147D01*
X144098228Y-100868928D01*
X144175570Y-100682209D01*
X144262415Y-100552236D01*
X144287854Y-100514163D01*
X144430763Y-100371254D01*
X144598807Y-100258971D01*
X144598809Y-100258970D01*
X144785528Y-100181628D01*
X144983747Y-100142200D01*
X145185853Y-100142200D01*
X145384072Y-100181628D01*
G37*
G36*
X150464072Y-98911628D02*
G01*
X150650791Y-98988970D01*
X150650793Y-98988971D01*
X150818837Y-99101254D01*
X150961746Y-99244163D01*
X151065212Y-99399012D01*
X151074030Y-99412209D01*
X151151372Y-99598928D01*
X151190800Y-99797147D01*
X151190800Y-99999253D01*
X151151372Y-100197472D01*
X151125898Y-100258971D01*
X151074029Y-100384193D01*
X150961746Y-100552237D01*
X150818837Y-100695146D01*
X150650793Y-100807429D01*
X150650792Y-100807430D01*
X150650791Y-100807430D01*
X150464072Y-100884772D01*
X150265853Y-100924200D01*
X150063747Y-100924200D01*
X149865528Y-100884772D01*
X149678809Y-100807430D01*
X149678808Y-100807430D01*
X149678807Y-100807429D01*
X149510763Y-100695146D01*
X149367854Y-100552237D01*
X149255571Y-100384193D01*
X149203702Y-100258971D01*
X149178228Y-100197472D01*
X149138800Y-99999253D01*
X149138800Y-99797147D01*
X149178228Y-99598928D01*
X149255570Y-99412209D01*
X149264388Y-99399012D01*
X149367854Y-99244163D01*
X149510763Y-99101254D01*
X149678807Y-98988971D01*
X149678809Y-98988970D01*
X149865528Y-98911628D01*
X150063747Y-98872200D01*
X150265853Y-98872200D01*
X150464072Y-98911628D01*
G37*
G36*
X121652512Y-98240127D02*
G01*
X121801812Y-98269824D01*
X121965784Y-98337744D01*
X122113354Y-98436347D01*
X122238853Y-98561846D01*
X122337456Y-98709416D01*
X122405376Y-98873388D01*
X122440000Y-99047459D01*
X122440000Y-99224941D01*
X122405376Y-99399012D01*
X122337456Y-99562984D01*
X122238853Y-99710554D01*
X122113354Y-99836053D01*
X121965784Y-99934656D01*
X121801812Y-100002576D01*
X121652512Y-100032273D01*
X121627742Y-100037200D01*
X121450258Y-100037200D01*
X121425488Y-100032273D01*
X121276188Y-100002576D01*
X121112216Y-99934656D01*
X120964646Y-99836053D01*
X120839147Y-99710554D01*
X120740544Y-99562984D01*
X120672624Y-99399012D01*
X120638000Y-99224941D01*
X120638000Y-99047459D01*
X120672624Y-98873388D01*
X120740544Y-98709416D01*
X120839147Y-98561846D01*
X120964646Y-98436347D01*
X121112216Y-98337744D01*
X121276188Y-98269824D01*
X121425488Y-98240127D01*
X121450258Y-98235200D01*
X121627742Y-98235200D01*
X121652512Y-98240127D01*
G37*
G36*
X145384072Y-97641628D02*
G01*
X145570791Y-97718970D01*
X145570793Y-97718971D01*
X145738837Y-97831254D01*
X145881746Y-97974163D01*
X145907185Y-98012236D01*
X145994030Y-98142209D01*
X146071372Y-98328928D01*
X146110800Y-98527147D01*
X146110800Y-98729253D01*
X146071372Y-98927472D01*
X146045898Y-98988971D01*
X145994029Y-99114193D01*
X145881746Y-99282237D01*
X145738837Y-99425146D01*
X145570793Y-99537429D01*
X145570792Y-99537430D01*
X145570791Y-99537430D01*
X145384072Y-99614772D01*
X145185853Y-99654200D01*
X144983747Y-99654200D01*
X144785528Y-99614772D01*
X144598809Y-99537430D01*
X144598808Y-99537430D01*
X144598807Y-99537429D01*
X144430763Y-99425146D01*
X144287854Y-99282237D01*
X144175571Y-99114193D01*
X144123702Y-98988971D01*
X144098228Y-98927472D01*
X144058800Y-98729253D01*
X144058800Y-98527147D01*
X144098228Y-98328928D01*
X144175570Y-98142209D01*
X144262415Y-98012236D01*
X144287854Y-97974163D01*
X144430763Y-97831254D01*
X144598807Y-97718971D01*
X144598809Y-97718970D01*
X144785528Y-97641628D01*
X144983747Y-97602200D01*
X145185853Y-97602200D01*
X145384072Y-97641628D01*
G37*
G36*
X150464072Y-96371628D02*
G01*
X150650791Y-96448970D01*
X150650793Y-96448971D01*
X150818837Y-96561254D01*
X150961746Y-96704163D01*
X150987185Y-96742236D01*
X151074030Y-96872209D01*
X151151372Y-97058928D01*
X151190800Y-97257147D01*
X151190800Y-97459253D01*
X151151372Y-97657472D01*
X151125898Y-97718971D01*
X151074029Y-97844193D01*
X150961746Y-98012237D01*
X150818837Y-98155146D01*
X150650793Y-98267429D01*
X150650792Y-98267430D01*
X150650791Y-98267430D01*
X150464072Y-98344772D01*
X150265853Y-98384200D01*
X150063747Y-98384200D01*
X149865528Y-98344772D01*
X149678809Y-98267430D01*
X149678808Y-98267430D01*
X149678807Y-98267429D01*
X149510763Y-98155146D01*
X149367854Y-98012237D01*
X149255571Y-97844193D01*
X149203702Y-97718971D01*
X149178228Y-97657472D01*
X149138800Y-97459253D01*
X149138800Y-97257147D01*
X149178228Y-97058928D01*
X149255570Y-96872209D01*
X149342415Y-96742236D01*
X149367854Y-96704163D01*
X149510763Y-96561254D01*
X149678807Y-96448971D01*
X149678809Y-96448970D01*
X149865528Y-96371628D01*
X150063747Y-96332200D01*
X150265853Y-96332200D01*
X150464072Y-96371628D01*
G37*
G36*
X122440000Y-97497200D02*
G01*
X120638000Y-97497200D01*
X120638000Y-95695200D01*
X122440000Y-95695200D01*
X122440000Y-97497200D01*
G37*
G36*
X145384072Y-95101628D02*
G01*
X145570791Y-95178970D01*
X145570793Y-95178971D01*
X145738837Y-95291254D01*
X145881746Y-95434163D01*
X145907185Y-95472236D01*
X145994030Y-95602209D01*
X146071372Y-95788928D01*
X146110800Y-95987147D01*
X146110800Y-96189253D01*
X146071372Y-96387472D01*
X146045898Y-96448971D01*
X145994029Y-96574193D01*
X145881746Y-96742237D01*
X145738837Y-96885146D01*
X145570793Y-96997429D01*
X145570792Y-96997430D01*
X145570791Y-96997430D01*
X145384072Y-97074772D01*
X145185853Y-97114200D01*
X144983747Y-97114200D01*
X144785528Y-97074772D01*
X144598809Y-96997430D01*
X144598808Y-96997430D01*
X144598807Y-96997429D01*
X144430763Y-96885146D01*
X144287854Y-96742237D01*
X144175571Y-96574193D01*
X144123702Y-96448971D01*
X144098228Y-96387472D01*
X144058800Y-96189253D01*
X144058800Y-95987147D01*
X144098228Y-95788928D01*
X144175570Y-95602209D01*
X144262415Y-95472236D01*
X144287854Y-95434163D01*
X144430763Y-95291254D01*
X144598807Y-95178971D01*
X144598809Y-95178970D01*
X144785528Y-95101628D01*
X144983747Y-95062200D01*
X145185853Y-95062200D01*
X145384072Y-95101628D01*
G37*
G36*
X150464072Y-93831628D02*
G01*
X150650791Y-93908970D01*
X150650793Y-93908971D01*
X150818837Y-94021254D01*
X150961746Y-94164163D01*
X150987185Y-94202236D01*
X151074030Y-94332209D01*
X151151372Y-94518928D01*
X151190800Y-94717147D01*
X151190800Y-94919253D01*
X151151372Y-95117472D01*
X151125898Y-95178971D01*
X151074029Y-95304193D01*
X150961746Y-95472237D01*
X150818837Y-95615146D01*
X150650793Y-95727429D01*
X150650792Y-95727430D01*
X150650791Y-95727430D01*
X150464072Y-95804772D01*
X150265853Y-95844200D01*
X150063747Y-95844200D01*
X149865528Y-95804772D01*
X149678809Y-95727430D01*
X149678808Y-95727430D01*
X149678807Y-95727429D01*
X149510763Y-95615146D01*
X149367854Y-95472237D01*
X149255571Y-95304193D01*
X149203702Y-95178971D01*
X149178228Y-95117472D01*
X149138800Y-94919253D01*
X149138800Y-94717147D01*
X149178228Y-94518928D01*
X149255570Y-94332209D01*
X149342415Y-94202236D01*
X149367854Y-94164163D01*
X149510763Y-94021254D01*
X149678807Y-93908971D01*
X149678809Y-93908970D01*
X149865528Y-93831628D01*
X150063747Y-93792200D01*
X150265853Y-93792200D01*
X150464072Y-93831628D01*
G37*
G36*
X145384072Y-92561628D02*
G01*
X145570791Y-92638970D01*
X145570793Y-92638971D01*
X145738837Y-92751254D01*
X145881746Y-92894163D01*
X145905550Y-92929789D01*
X145994030Y-93062209D01*
X146071372Y-93248928D01*
X146110800Y-93447147D01*
X146110800Y-93649253D01*
X146071372Y-93847472D01*
X146045898Y-93908971D01*
X145994029Y-94034193D01*
X145881746Y-94202237D01*
X145738837Y-94345146D01*
X145570793Y-94457429D01*
X145570792Y-94457430D01*
X145570791Y-94457430D01*
X145384072Y-94534772D01*
X145185853Y-94574200D01*
X144983747Y-94574200D01*
X144785528Y-94534772D01*
X144598809Y-94457430D01*
X144598808Y-94457430D01*
X144598807Y-94457429D01*
X144430763Y-94345146D01*
X144287854Y-94202237D01*
X144175571Y-94034193D01*
X144123702Y-93908971D01*
X144098228Y-93847472D01*
X144058800Y-93649253D01*
X144058800Y-93447147D01*
X144098228Y-93248928D01*
X144175570Y-93062209D01*
X144264050Y-92929789D01*
X144287854Y-92894163D01*
X144430763Y-92751254D01*
X144598807Y-92638971D01*
X144598809Y-92638970D01*
X144785528Y-92561628D01*
X144983747Y-92522200D01*
X145185853Y-92522200D01*
X145384072Y-92561628D01*
G37*
G36*
X125005400Y-94093600D02*
G01*
X123203400Y-94093600D01*
X123203400Y-92291600D01*
X125005400Y-92291600D01*
X125005400Y-94093600D01*
G37*
G36*
X121677912Y-92296527D02*
G01*
X121827212Y-92326224D01*
X121991184Y-92394144D01*
X122138754Y-92492747D01*
X122264253Y-92618246D01*
X122362856Y-92765816D01*
X122430776Y-92929788D01*
X122465400Y-93103859D01*
X122465400Y-93281341D01*
X122430776Y-93455412D01*
X122362856Y-93619384D01*
X122264253Y-93766954D01*
X122138754Y-93892453D01*
X121991184Y-93991056D01*
X121827212Y-94058976D01*
X121677912Y-94088673D01*
X121653142Y-94093600D01*
X121475658Y-94093600D01*
X121450888Y-94088673D01*
X121301588Y-94058976D01*
X121137616Y-93991056D01*
X120990046Y-93892453D01*
X120864547Y-93766954D01*
X120765944Y-93619384D01*
X120698024Y-93455412D01*
X120663400Y-93281341D01*
X120663400Y-93103859D01*
X120698024Y-92929788D01*
X120765944Y-92765816D01*
X120864547Y-92618246D01*
X120990046Y-92492747D01*
X121137616Y-92394144D01*
X121301588Y-92326224D01*
X121450888Y-92296527D01*
X121475658Y-92291600D01*
X121653142Y-92291600D01*
X121677912Y-92296527D01*
G37*
G36*
X150464072Y-91291628D02*
G01*
X150650791Y-91368970D01*
X150650793Y-91368971D01*
X150818837Y-91481254D01*
X150961746Y-91624163D01*
X150987185Y-91662236D01*
X151074030Y-91792209D01*
X151151372Y-91978928D01*
X151190800Y-92177147D01*
X151190800Y-92379253D01*
X151151372Y-92577472D01*
X151125898Y-92638971D01*
X151074029Y-92764193D01*
X150961746Y-92932237D01*
X150818837Y-93075146D01*
X150650793Y-93187429D01*
X150650792Y-93187430D01*
X150650791Y-93187430D01*
X150464072Y-93264772D01*
X150265853Y-93304200D01*
X150063747Y-93304200D01*
X149865528Y-93264772D01*
X149678809Y-93187430D01*
X149678808Y-93187430D01*
X149678807Y-93187429D01*
X149510763Y-93075146D01*
X149367854Y-92932237D01*
X149255571Y-92764193D01*
X149203702Y-92638971D01*
X149178228Y-92577472D01*
X149138800Y-92379253D01*
X149138800Y-92177147D01*
X149178228Y-91978928D01*
X149255570Y-91792209D01*
X149342415Y-91662236D01*
X149367854Y-91624163D01*
X149510763Y-91481254D01*
X149678807Y-91368971D01*
X149678809Y-91368970D01*
X149865528Y-91291628D01*
X150063747Y-91252200D01*
X150265853Y-91252200D01*
X150464072Y-91291628D01*
G37*
G36*
X145384072Y-90021628D02*
G01*
X145570791Y-90098970D01*
X145570793Y-90098971D01*
X145738837Y-90211254D01*
X145881746Y-90354163D01*
X145907185Y-90392236D01*
X145994030Y-90522209D01*
X146071372Y-90708928D01*
X146110800Y-90907147D01*
X146110800Y-91109253D01*
X146071372Y-91307472D01*
X146045898Y-91368971D01*
X145994029Y-91494193D01*
X145881746Y-91662237D01*
X145738837Y-91805146D01*
X145570793Y-91917429D01*
X145570792Y-91917430D01*
X145570791Y-91917430D01*
X145384072Y-91994772D01*
X145185853Y-92034200D01*
X144983747Y-92034200D01*
X144785528Y-91994772D01*
X144598809Y-91917430D01*
X144598808Y-91917430D01*
X144598807Y-91917429D01*
X144430763Y-91805146D01*
X144287854Y-91662237D01*
X144175571Y-91494193D01*
X144123702Y-91368971D01*
X144098228Y-91307472D01*
X144058800Y-91109253D01*
X144058800Y-90907147D01*
X144098228Y-90708928D01*
X144175570Y-90522209D01*
X144262415Y-90392236D01*
X144287854Y-90354163D01*
X144430763Y-90211254D01*
X144598807Y-90098971D01*
X144598809Y-90098970D01*
X144785528Y-90021628D01*
X144983747Y-89982200D01*
X145185853Y-89982200D01*
X145384072Y-90021628D01*
G37*
G36*
X150464072Y-88751628D02*
G01*
X150650791Y-88828970D01*
X150650793Y-88828971D01*
X150818837Y-88941254D01*
X150961746Y-89084163D01*
X151024094Y-89177474D01*
X151074030Y-89252209D01*
X151151372Y-89438928D01*
X151190800Y-89637147D01*
X151190800Y-89839253D01*
X151151372Y-90037472D01*
X151125898Y-90098971D01*
X151074029Y-90224193D01*
X150961746Y-90392237D01*
X150818837Y-90535146D01*
X150650793Y-90647429D01*
X150650792Y-90647430D01*
X150650791Y-90647430D01*
X150464072Y-90724772D01*
X150265853Y-90764200D01*
X150063747Y-90764200D01*
X149865528Y-90724772D01*
X149678809Y-90647430D01*
X149678808Y-90647430D01*
X149678807Y-90647429D01*
X149510763Y-90535146D01*
X149367854Y-90392237D01*
X149255571Y-90224193D01*
X149203702Y-90098971D01*
X149178228Y-90037472D01*
X149138800Y-89839253D01*
X149138800Y-89637147D01*
X149178228Y-89438928D01*
X149255570Y-89252209D01*
X149305506Y-89177474D01*
X149367854Y-89084163D01*
X149510763Y-88941254D01*
X149678807Y-88828971D01*
X149678809Y-88828970D01*
X149865528Y-88751628D01*
X150063747Y-88712200D01*
X150265853Y-88712200D01*
X150464072Y-88751628D01*
G37*
G36*
X122924843Y-86914771D02*
G01*
X123109010Y-86951404D01*
X123391274Y-87068321D01*
X123645305Y-87238059D01*
X123861341Y-87454095D01*
X124031079Y-87708126D01*
X124147996Y-87990390D01*
X124207600Y-88290040D01*
X124207600Y-88595560D01*
X124147996Y-88895210D01*
X124031079Y-89177474D01*
X123861341Y-89431505D01*
X123645305Y-89647541D01*
X123391274Y-89817279D01*
X123109010Y-89934196D01*
X122959185Y-89963998D01*
X122809361Y-89993800D01*
X122503839Y-89993800D01*
X122354015Y-89963998D01*
X122204190Y-89934196D01*
X121921926Y-89817279D01*
X121667895Y-89647541D01*
X121451859Y-89431505D01*
X121282121Y-89177474D01*
X121165204Y-88895210D01*
X121105600Y-88595560D01*
X121105600Y-88290040D01*
X121165204Y-87990390D01*
X121282121Y-87708126D01*
X121451859Y-87454095D01*
X121667895Y-87238059D01*
X121921926Y-87068321D01*
X122204190Y-86951404D01*
X122388357Y-86914771D01*
X122503839Y-86891800D01*
X122809361Y-86891800D01*
X122924843Y-86914771D01*
G37*
G36*
X145384072Y-87481628D02*
G01*
X145570791Y-87558970D01*
X145570793Y-87558971D01*
X145738837Y-87671254D01*
X145881746Y-87814163D01*
X145907185Y-87852236D01*
X145994030Y-87982209D01*
X146071372Y-88168928D01*
X146110800Y-88367147D01*
X146110800Y-88569253D01*
X146071372Y-88767472D01*
X146045898Y-88828971D01*
X145994029Y-88954193D01*
X145881746Y-89122237D01*
X145738837Y-89265146D01*
X145570793Y-89377429D01*
X145570792Y-89377430D01*
X145570791Y-89377430D01*
X145384072Y-89454772D01*
X145185853Y-89494200D01*
X144983747Y-89494200D01*
X144785528Y-89454772D01*
X144598809Y-89377430D01*
X144598808Y-89377430D01*
X144598807Y-89377429D01*
X144430763Y-89265146D01*
X144287854Y-89122237D01*
X144175571Y-88954193D01*
X144123702Y-88828971D01*
X144098228Y-88767472D01*
X144058800Y-88569253D01*
X144058800Y-88367147D01*
X144098228Y-88168928D01*
X144175570Y-87982209D01*
X144262415Y-87852236D01*
X144287854Y-87814163D01*
X144430763Y-87671254D01*
X144598807Y-87558971D01*
X144598809Y-87558970D01*
X144785528Y-87481628D01*
X144983747Y-87442200D01*
X145185853Y-87442200D01*
X145384072Y-87481628D01*
G37*
G36*
X150464072Y-86211628D02*
G01*
X150650791Y-86288970D01*
X150650793Y-86288971D01*
X150818837Y-86401254D01*
X150961746Y-86544163D01*
X150987185Y-86582236D01*
X151074030Y-86712209D01*
X151151372Y-86898928D01*
X151190800Y-87097147D01*
X151190800Y-87299253D01*
X151151372Y-87497472D01*
X151125898Y-87558971D01*
X151074029Y-87684193D01*
X150961746Y-87852237D01*
X150818837Y-87995146D01*
X150650793Y-88107429D01*
X150650792Y-88107430D01*
X150650791Y-88107430D01*
X150464072Y-88184772D01*
X150265853Y-88224200D01*
X150063747Y-88224200D01*
X149865528Y-88184772D01*
X149678809Y-88107430D01*
X149678808Y-88107430D01*
X149678807Y-88107429D01*
X149510763Y-87995146D01*
X149367854Y-87852237D01*
X149255571Y-87684193D01*
X149203702Y-87558971D01*
X149178228Y-87497472D01*
X149138800Y-87299253D01*
X149138800Y-87097147D01*
X149178228Y-86898928D01*
X149255570Y-86712209D01*
X149342415Y-86582236D01*
X149367854Y-86544163D01*
X149510763Y-86401254D01*
X149678807Y-86288971D01*
X149678809Y-86288970D01*
X149865528Y-86211628D01*
X150063747Y-86172200D01*
X150265853Y-86172200D01*
X150464072Y-86211628D01*
G37*
G36*
X145384072Y-84941628D02*
G01*
X145570791Y-85018970D01*
X145570793Y-85018971D01*
X145738837Y-85131254D01*
X145881746Y-85274163D01*
X145907185Y-85312236D01*
X145994030Y-85442209D01*
X146071372Y-85628928D01*
X146110800Y-85827147D01*
X146110800Y-86029253D01*
X146071372Y-86227472D01*
X146045898Y-86288971D01*
X145994029Y-86414193D01*
X145881746Y-86582237D01*
X145738837Y-86725146D01*
X145570793Y-86837429D01*
X145570792Y-86837430D01*
X145570791Y-86837430D01*
X145384072Y-86914772D01*
X145185853Y-86954200D01*
X144983747Y-86954200D01*
X144785528Y-86914772D01*
X144598809Y-86837430D01*
X144598808Y-86837430D01*
X144598807Y-86837429D01*
X144430763Y-86725146D01*
X144287854Y-86582237D01*
X144175571Y-86414193D01*
X144123702Y-86288971D01*
X144098228Y-86227472D01*
X144058800Y-86029253D01*
X144058800Y-85827147D01*
X144098228Y-85628928D01*
X144175570Y-85442209D01*
X144262415Y-85312236D01*
X144287854Y-85274163D01*
X144430763Y-85131254D01*
X144598807Y-85018971D01*
X144598809Y-85018970D01*
X144785528Y-84941628D01*
X144983747Y-84902200D01*
X145185853Y-84902200D01*
X145384072Y-84941628D01*
G37*
G36*
X150464072Y-83671628D02*
G01*
X150650791Y-83748970D01*
X150650793Y-83748971D01*
X150818837Y-83861254D01*
X150961746Y-84004163D01*
X151024094Y-84097474D01*
X151074030Y-84172209D01*
X151151372Y-84358928D01*
X151190800Y-84557147D01*
X151190800Y-84759253D01*
X151151372Y-84957472D01*
X151125898Y-85018971D01*
X151074029Y-85144193D01*
X150961746Y-85312237D01*
X150818837Y-85455146D01*
X150650793Y-85567429D01*
X150650792Y-85567430D01*
X150650791Y-85567430D01*
X150464072Y-85644772D01*
X150265853Y-85684200D01*
X150063747Y-85684200D01*
X149865528Y-85644772D01*
X149678809Y-85567430D01*
X149678808Y-85567430D01*
X149678807Y-85567429D01*
X149510763Y-85455146D01*
X149367854Y-85312237D01*
X149255571Y-85144193D01*
X149203702Y-85018971D01*
X149178228Y-84957472D01*
X149138800Y-84759253D01*
X149138800Y-84557147D01*
X149178228Y-84358928D01*
X149255570Y-84172209D01*
X149305506Y-84097474D01*
X149367854Y-84004163D01*
X149510763Y-83861254D01*
X149678807Y-83748971D01*
X149678809Y-83748970D01*
X149865528Y-83671628D01*
X150063747Y-83632200D01*
X150265853Y-83632200D01*
X150464072Y-83671628D01*
G37*
G36*
X122959185Y-81841602D02*
G01*
X123109010Y-81871404D01*
X123391274Y-81988321D01*
X123645305Y-82158059D01*
X123861341Y-82374095D01*
X124031079Y-82628126D01*
X124144607Y-82902209D01*
X124147996Y-82910391D01*
X124200062Y-83172141D01*
X124207600Y-83210040D01*
X124207600Y-83515560D01*
X124147996Y-83815210D01*
X124031079Y-84097474D01*
X123861341Y-84351505D01*
X123645305Y-84567541D01*
X123391274Y-84737279D01*
X123109010Y-84854196D01*
X122959185Y-84883998D01*
X122809361Y-84913800D01*
X122503839Y-84913800D01*
X122354015Y-84883998D01*
X122204190Y-84854196D01*
X121921926Y-84737279D01*
X121667895Y-84567541D01*
X121451859Y-84351505D01*
X121282121Y-84097474D01*
X121165204Y-83815210D01*
X121105600Y-83515560D01*
X121105600Y-83210040D01*
X121113139Y-83172141D01*
X121165204Y-82910391D01*
X121168593Y-82902209D01*
X121282121Y-82628126D01*
X121451859Y-82374095D01*
X121667895Y-82158059D01*
X121921926Y-81988321D01*
X122204190Y-81871404D01*
X122354015Y-81841602D01*
X122503839Y-81811800D01*
X122809361Y-81811800D01*
X122959185Y-81841602D01*
G37*
G36*
X145384072Y-82401628D02*
G01*
X145570791Y-82478970D01*
X145570793Y-82478971D01*
X145738837Y-82591254D01*
X145881746Y-82734163D01*
X145994029Y-82902207D01*
X145994030Y-82902209D01*
X146071372Y-83088928D01*
X146110800Y-83287147D01*
X146110800Y-83489253D01*
X146071372Y-83687472D01*
X146045898Y-83748971D01*
X145994029Y-83874193D01*
X145881746Y-84042237D01*
X145738837Y-84185146D01*
X145570793Y-84297429D01*
X145570792Y-84297430D01*
X145570791Y-84297430D01*
X145384072Y-84374772D01*
X145185853Y-84414200D01*
X144983747Y-84414200D01*
X144785528Y-84374772D01*
X144598809Y-84297430D01*
X144598808Y-84297430D01*
X144598807Y-84297429D01*
X144430763Y-84185146D01*
X144287854Y-84042237D01*
X144175571Y-83874193D01*
X144123702Y-83748971D01*
X144098228Y-83687472D01*
X144058800Y-83489253D01*
X144058800Y-83287147D01*
X144098228Y-83088928D01*
X144175570Y-82902209D01*
X144175571Y-82902207D01*
X144287854Y-82734163D01*
X144430763Y-82591254D01*
X144598807Y-82478971D01*
X144598809Y-82478970D01*
X144785528Y-82401628D01*
X144983747Y-82362200D01*
X145185853Y-82362200D01*
X145384072Y-82401628D01*
G37*
G36*
X129805912Y-82187327D02*
G01*
X129955212Y-82217024D01*
X130119184Y-82284944D01*
X130266754Y-82383547D01*
X130392253Y-82509046D01*
X130490856Y-82656616D01*
X130558776Y-82820588D01*
X130593400Y-82994659D01*
X130593400Y-83172141D01*
X130558776Y-83346212D01*
X130490856Y-83510184D01*
X130392253Y-83657754D01*
X130266754Y-83783253D01*
X130119184Y-83881856D01*
X129955212Y-83949776D01*
X129805912Y-83979473D01*
X129781142Y-83984400D01*
X129603658Y-83984400D01*
X129578888Y-83979473D01*
X129429588Y-83949776D01*
X129265616Y-83881856D01*
X129118046Y-83783253D01*
X128992547Y-83657754D01*
X128893944Y-83510184D01*
X128826024Y-83346212D01*
X128791400Y-83172141D01*
X128791400Y-82994659D01*
X128826024Y-82820588D01*
X128893944Y-82656616D01*
X128992547Y-82509046D01*
X129118046Y-82383547D01*
X129265616Y-82284944D01*
X129429588Y-82217024D01*
X129578888Y-82187327D01*
X129603658Y-82182400D01*
X129781142Y-82182400D01*
X129805912Y-82187327D01*
G37*
G36*
X156654841Y-79408360D02*
G01*
X156918905Y-79517739D01*
X157156558Y-79676534D01*
X157358666Y-79878642D01*
X157517461Y-80116295D01*
X157626840Y-80380359D01*
X157682600Y-80660688D01*
X157682600Y-80946512D01*
X157626840Y-81226841D01*
X157517461Y-81490905D01*
X157358666Y-81728558D01*
X157156558Y-81930666D01*
X156918905Y-82089461D01*
X156654841Y-82198840D01*
X156374512Y-82254600D01*
X156088688Y-82254600D01*
X155808359Y-82198840D01*
X155544295Y-82089461D01*
X155306642Y-81930666D01*
X155104534Y-81728558D01*
X154945739Y-81490905D01*
X154836360Y-81226841D01*
X154780600Y-80946512D01*
X154780600Y-80660688D01*
X154836360Y-80380359D01*
X154945739Y-80116295D01*
X155104534Y-79878642D01*
X155306642Y-79676534D01*
X155544295Y-79517739D01*
X155808359Y-79408360D01*
X156088688Y-79352600D01*
X156374512Y-79352600D01*
X156654841Y-79408360D01*
G37*
G36*
X130593400Y-81444400D02*
G01*
X128791400Y-81444400D01*
X128791400Y-79642400D01*
X130593400Y-79642400D01*
X130593400Y-81444400D01*
G37*
G36*
X124207600Y-79833800D02*
G01*
X121105600Y-79833800D01*
X121105600Y-76731800D01*
X124207600Y-76731800D01*
X124207600Y-79833800D01*
G37*
G36*
X130426785Y-73256402D02*
G01*
X130576610Y-73286204D01*
X130858874Y-73403121D01*
X131112905Y-73572859D01*
X131328941Y-73788895D01*
X131498679Y-74042926D01*
X131615596Y-74325190D01*
X131675200Y-74624840D01*
X131675200Y-74930360D01*
X131615596Y-75230010D01*
X131498679Y-75512274D01*
X131328941Y-75766305D01*
X131112905Y-75982341D01*
X130858874Y-76152079D01*
X130576610Y-76268996D01*
X130426785Y-76298798D01*
X130276961Y-76328600D01*
X129971439Y-76328600D01*
X129821615Y-76298798D01*
X129671790Y-76268996D01*
X129389526Y-76152079D01*
X129135495Y-75982341D01*
X128919459Y-75766305D01*
X128749721Y-75512274D01*
X128632804Y-75230010D01*
X128573200Y-74930360D01*
X128573200Y-74624840D01*
X128632804Y-74325190D01*
X128749721Y-74042926D01*
X128919459Y-73788895D01*
X129135495Y-73572859D01*
X129389526Y-73403121D01*
X129671790Y-73286204D01*
X129821615Y-73256402D01*
X129971439Y-73226600D01*
X130276961Y-73226600D01*
X130426785Y-73256402D01*
G37*
G36*
X136755200Y-76328600D02*
G01*
X133653200Y-76328600D01*
X133653200Y-73226600D01*
X136755200Y-73226600D01*
X136755200Y-76328600D01*
G37*
G36*
X121649887Y-72140396D02*
G01*
X121886653Y-72238468D01*
X121886655Y-72238469D01*
X122099739Y-72380847D01*
X122280953Y-72562061D01*
X122423332Y-72775147D01*
X122521404Y-73011913D01*
X122571400Y-73263261D01*
X122571400Y-73519539D01*
X122521404Y-73770887D01*
X122513944Y-73788896D01*
X122423331Y-74007655D01*
X122280953Y-74220739D01*
X122099739Y-74401953D01*
X121886655Y-74544331D01*
X121886654Y-74544332D01*
X121886653Y-74544332D01*
X121649887Y-74642404D01*
X121398539Y-74692400D01*
X121142261Y-74692400D01*
X120890913Y-74642404D01*
X120654147Y-74544332D01*
X120654146Y-74544332D01*
X120654145Y-74544331D01*
X120441061Y-74401953D01*
X120259847Y-74220739D01*
X120117469Y-74007655D01*
X120026856Y-73788896D01*
X120019396Y-73770887D01*
X119969400Y-73519539D01*
X119969400Y-73263261D01*
X120019396Y-73011913D01*
X120117468Y-72775147D01*
X120259847Y-72562061D01*
X120441061Y-72380847D01*
X120654145Y-72238469D01*
X120654147Y-72238468D01*
X120890913Y-72140396D01*
X121142261Y-72090400D01*
X121398539Y-72090400D01*
X121649887Y-72140396D01*
G37*
G36*
X159649887Y-72140396D02*
G01*
X159886653Y-72238468D01*
X159886655Y-72238469D01*
X160099739Y-72380847D01*
X160280953Y-72562061D01*
X160423332Y-72775147D01*
X160521404Y-73011913D01*
X160571400Y-73263261D01*
X160571400Y-73519539D01*
X160521404Y-73770887D01*
X160513944Y-73788896D01*
X160423331Y-74007655D01*
X160280953Y-74220739D01*
X160099739Y-74401953D01*
X159886655Y-74544331D01*
X159886654Y-74544332D01*
X159886653Y-74544332D01*
X159649887Y-74642404D01*
X159398539Y-74692400D01*
X159142261Y-74692400D01*
X158890913Y-74642404D01*
X158654147Y-74544332D01*
X158654146Y-74544332D01*
X158654145Y-74544331D01*
X158441061Y-74401953D01*
X158259847Y-74220739D01*
X158117469Y-74007655D01*
X158026856Y-73788896D01*
X158019396Y-73770887D01*
X157969400Y-73519539D01*
X157969400Y-73263261D01*
X158019396Y-73011913D01*
X158117468Y-72775147D01*
X158259847Y-72562061D01*
X158441061Y-72380847D01*
X158654145Y-72238469D01*
X158654147Y-72238468D01*
X158890913Y-72140396D01*
X159142261Y-72090400D01*
X159398539Y-72090400D01*
X159649887Y-72140396D01*
G37*
M02*
