G04 #@! TF.GenerationSoftware,KiCad,Pcbnew,5.1.5-52549c5~86~ubuntu16.04.1*
G04 #@! TF.CreationDate,2020-07-28T14:01:40+05:30*
G04 #@! TF.ProjectId,L298N_Motor_Driver_V1.0,4c323938-4e5f-44d6-9f74-6f725f447269,V1.0*
G04 #@! TF.SameCoordinates,Original*
G04 #@! TF.FileFunction,Legend,Bot*
G04 #@! TF.FilePolarity,Positive*
%FSLAX46Y46*%
G04 Gerber Fmt 4.6, Leading zero omitted, Abs format (unit mm)*
G04 Created by KiCad (PCBNEW 5.1.5-52549c5~86~ubuntu16.04.1) date 2020-07-28 14:01:40*
%MOMM*%
%LPD*%
G04 APERTURE LIST*
%ADD10C,0.250000*%
%ADD11C,0.010000*%
G04 APERTURE END LIST*
D10*
X142932657Y-95600780D02*
X143408847Y-95600780D01*
X143408847Y-94600780D01*
X142646942Y-94696019D02*
X142599323Y-94648400D01*
X142504085Y-94600780D01*
X142265990Y-94600780D01*
X142170752Y-94648400D01*
X142123133Y-94696019D01*
X142075514Y-94791257D01*
X142075514Y-94886495D01*
X142123133Y-95029352D01*
X142694561Y-95600780D01*
X142075514Y-95600780D01*
X141599323Y-95600780D02*
X141408847Y-95600780D01*
X141313609Y-95553161D01*
X141265990Y-95505542D01*
X141170752Y-95362685D01*
X141123133Y-95172209D01*
X141123133Y-94791257D01*
X141170752Y-94696019D01*
X141218371Y-94648400D01*
X141313609Y-94600780D01*
X141504085Y-94600780D01*
X141599323Y-94648400D01*
X141646942Y-94696019D01*
X141694561Y-94791257D01*
X141694561Y-95029352D01*
X141646942Y-95124590D01*
X141599323Y-95172209D01*
X141504085Y-95219828D01*
X141313609Y-95219828D01*
X141218371Y-95172209D01*
X141170752Y-95124590D01*
X141123133Y-95029352D01*
X140551704Y-95029352D02*
X140646942Y-94981733D01*
X140694561Y-94934114D01*
X140742180Y-94838876D01*
X140742180Y-94791257D01*
X140694561Y-94696019D01*
X140646942Y-94648400D01*
X140551704Y-94600780D01*
X140361228Y-94600780D01*
X140265990Y-94648400D01*
X140218371Y-94696019D01*
X140170752Y-94791257D01*
X140170752Y-94838876D01*
X140218371Y-94934114D01*
X140265990Y-94981733D01*
X140361228Y-95029352D01*
X140551704Y-95029352D01*
X140646942Y-95076971D01*
X140694561Y-95124590D01*
X140742180Y-95219828D01*
X140742180Y-95410304D01*
X140694561Y-95505542D01*
X140646942Y-95553161D01*
X140551704Y-95600780D01*
X140361228Y-95600780D01*
X140265990Y-95553161D01*
X140218371Y-95505542D01*
X140170752Y-95410304D01*
X140170752Y-95219828D01*
X140218371Y-95124590D01*
X140265990Y-95076971D01*
X140361228Y-95029352D01*
X139742180Y-95600780D02*
X139742180Y-94600780D01*
X139170752Y-95600780D01*
X139170752Y-94600780D01*
X137932657Y-95600780D02*
X137932657Y-94600780D01*
X137599323Y-95315066D01*
X137265990Y-94600780D01*
X137265990Y-95600780D01*
X136646942Y-95600780D02*
X136742180Y-95553161D01*
X136789800Y-95505542D01*
X136837419Y-95410304D01*
X136837419Y-95124590D01*
X136789800Y-95029352D01*
X136742180Y-94981733D01*
X136646942Y-94934114D01*
X136504085Y-94934114D01*
X136408847Y-94981733D01*
X136361228Y-95029352D01*
X136313609Y-95124590D01*
X136313609Y-95410304D01*
X136361228Y-95505542D01*
X136408847Y-95553161D01*
X136504085Y-95600780D01*
X136646942Y-95600780D01*
X136027895Y-94934114D02*
X135646942Y-94934114D01*
X135885038Y-94600780D02*
X135885038Y-95457923D01*
X135837419Y-95553161D01*
X135742180Y-95600780D01*
X135646942Y-95600780D01*
X135170752Y-95600780D02*
X135265990Y-95553161D01*
X135313609Y-95505542D01*
X135361228Y-95410304D01*
X135361228Y-95124590D01*
X135313609Y-95029352D01*
X135265990Y-94981733D01*
X135170752Y-94934114D01*
X135027895Y-94934114D01*
X134932657Y-94981733D01*
X134885038Y-95029352D01*
X134837419Y-95124590D01*
X134837419Y-95410304D01*
X134885038Y-95505542D01*
X134932657Y-95553161D01*
X135027895Y-95600780D01*
X135170752Y-95600780D01*
X134408847Y-95600780D02*
X134408847Y-94934114D01*
X134408847Y-95124590D02*
X134361228Y-95029352D01*
X134313609Y-94981733D01*
X134218371Y-94934114D01*
X134123133Y-94934114D01*
X133027895Y-95600780D02*
X133027895Y-94600780D01*
X132789800Y-94600780D01*
X132646942Y-94648400D01*
X132551704Y-94743638D01*
X132504085Y-94838876D01*
X132456466Y-95029352D01*
X132456466Y-95172209D01*
X132504085Y-95362685D01*
X132551704Y-95457923D01*
X132646942Y-95553161D01*
X132789800Y-95600780D01*
X133027895Y-95600780D01*
X132027895Y-95600780D02*
X132027895Y-94934114D01*
X132027895Y-95124590D02*
X131980276Y-95029352D01*
X131932657Y-94981733D01*
X131837419Y-94934114D01*
X131742180Y-94934114D01*
X131408847Y-95600780D02*
X131408847Y-94934114D01*
X131408847Y-94600780D02*
X131456466Y-94648400D01*
X131408847Y-94696019D01*
X131361228Y-94648400D01*
X131408847Y-94600780D01*
X131408847Y-94696019D01*
X131027895Y-94934114D02*
X130789800Y-95600780D01*
X130551704Y-94934114D01*
X129789800Y-95553161D02*
X129885038Y-95600780D01*
X130075514Y-95600780D01*
X130170752Y-95553161D01*
X130218371Y-95457923D01*
X130218371Y-95076971D01*
X130170752Y-94981733D01*
X130075514Y-94934114D01*
X129885038Y-94934114D01*
X129789800Y-94981733D01*
X129742180Y-95076971D01*
X129742180Y-95172209D01*
X130218371Y-95267447D01*
X129313609Y-95600780D02*
X129313609Y-94934114D01*
X129313609Y-95124590D02*
X129265990Y-95029352D01*
X129218371Y-94981733D01*
X129123133Y-94934114D01*
X129027895Y-94934114D01*
X128075514Y-94600780D02*
X127742180Y-95600780D01*
X127408847Y-94600780D01*
X126551704Y-95600780D02*
X127123133Y-95600780D01*
X126837419Y-95600780D02*
X126837419Y-94600780D01*
X126932657Y-94743638D01*
X127027895Y-94838876D01*
X127123133Y-94886495D01*
X126123133Y-95505542D02*
X126075514Y-95553161D01*
X126123133Y-95600780D01*
X126170752Y-95553161D01*
X126123133Y-95505542D01*
X126123133Y-95600780D01*
X125456466Y-94600780D02*
X125361228Y-94600780D01*
X125265990Y-94648400D01*
X125218371Y-94696019D01*
X125170752Y-94791257D01*
X125123133Y-94981733D01*
X125123133Y-95219828D01*
X125170752Y-95410304D01*
X125218371Y-95505542D01*
X125265990Y-95553161D01*
X125361228Y-95600780D01*
X125456466Y-95600780D01*
X125551704Y-95553161D01*
X125599323Y-95505542D01*
X125646942Y-95410304D01*
X125694561Y-95219828D01*
X125694561Y-94981733D01*
X125646942Y-94791257D01*
X125599323Y-94696019D01*
X125551704Y-94648400D01*
X125456466Y-94600780D01*
X135816790Y-112126780D02*
X135626314Y-112126780D01*
X135531076Y-112174400D01*
X135435838Y-112269638D01*
X135388219Y-112460114D01*
X135388219Y-112793447D01*
X135435838Y-112983923D01*
X135531076Y-113079161D01*
X135626314Y-113126780D01*
X135816790Y-113126780D01*
X135912028Y-113079161D01*
X136007266Y-112983923D01*
X136054885Y-112793447D01*
X136054885Y-112460114D01*
X136007266Y-112269638D01*
X135912028Y-112174400D01*
X135816790Y-112126780D01*
X134959647Y-112126780D02*
X134959647Y-112936304D01*
X134912028Y-113031542D01*
X134864409Y-113079161D01*
X134769171Y-113126780D01*
X134578695Y-113126780D01*
X134483457Y-113079161D01*
X134435838Y-113031542D01*
X134388219Y-112936304D01*
X134388219Y-112126780D01*
X134054885Y-112126780D02*
X133483457Y-112126780D01*
X133769171Y-113126780D02*
X133769171Y-112126780D01*
X132721552Y-112460114D02*
X132721552Y-113126780D01*
X132959647Y-112079161D02*
X133197742Y-112793447D01*
X132578695Y-112793447D01*
X130406590Y-112202980D02*
X130216114Y-112202980D01*
X130120876Y-112250600D01*
X130025638Y-112345838D01*
X129978019Y-112536314D01*
X129978019Y-112869647D01*
X130025638Y-113060123D01*
X130120876Y-113155361D01*
X130216114Y-113202980D01*
X130406590Y-113202980D01*
X130501828Y-113155361D01*
X130597066Y-113060123D01*
X130644685Y-112869647D01*
X130644685Y-112536314D01*
X130597066Y-112345838D01*
X130501828Y-112250600D01*
X130406590Y-112202980D01*
X129549447Y-112202980D02*
X129549447Y-113012504D01*
X129501828Y-113107742D01*
X129454209Y-113155361D01*
X129358971Y-113202980D01*
X129168495Y-113202980D01*
X129073257Y-113155361D01*
X129025638Y-113107742D01*
X128978019Y-113012504D01*
X128978019Y-112202980D01*
X128644685Y-112202980D02*
X128073257Y-112202980D01*
X128358971Y-113202980D02*
X128358971Y-112202980D01*
X127835161Y-112202980D02*
X127216114Y-112202980D01*
X127549447Y-112583933D01*
X127406590Y-112583933D01*
X127311352Y-112631552D01*
X127263733Y-112679171D01*
X127216114Y-112774409D01*
X127216114Y-113012504D01*
X127263733Y-113107742D01*
X127311352Y-113155361D01*
X127406590Y-113202980D01*
X127692304Y-113202980D01*
X127787542Y-113155361D01*
X127835161Y-113107742D01*
X120340428Y-87106285D02*
X120340428Y-87868190D01*
X120721380Y-87487238D02*
X119959476Y-87487238D01*
X119721380Y-88820571D02*
X119721380Y-88344380D01*
X120197571Y-88296761D01*
X120149952Y-88344380D01*
X120102333Y-88439619D01*
X120102333Y-88677714D01*
X120149952Y-88772952D01*
X120197571Y-88820571D01*
X120292809Y-88868190D01*
X120530904Y-88868190D01*
X120626142Y-88820571D01*
X120673761Y-88772952D01*
X120721380Y-88677714D01*
X120721380Y-88439619D01*
X120673761Y-88344380D01*
X120626142Y-88296761D01*
X119721380Y-89153904D02*
X120721380Y-89487238D01*
X119721380Y-89820571D01*
X119718200Y-82804095D02*
X119670580Y-82708857D01*
X119670580Y-82566000D01*
X119718200Y-82423142D01*
X119813438Y-82327904D01*
X119908676Y-82280285D01*
X120099152Y-82232666D01*
X120242009Y-82232666D01*
X120432485Y-82280285D01*
X120527723Y-82327904D01*
X120622961Y-82423142D01*
X120670580Y-82566000D01*
X120670580Y-82661238D01*
X120622961Y-82804095D01*
X120575342Y-82851714D01*
X120242009Y-82851714D01*
X120242009Y-82661238D01*
X120670580Y-83280285D02*
X119670580Y-83280285D01*
X120670580Y-83851714D01*
X119670580Y-83851714D01*
X120670580Y-84327904D02*
X119670580Y-84327904D01*
X119670580Y-84566000D01*
X119718200Y-84708857D01*
X119813438Y-84804095D01*
X119908676Y-84851714D01*
X120099152Y-84899333D01*
X120242009Y-84899333D01*
X120432485Y-84851714D01*
X120527723Y-84804095D01*
X120622961Y-84708857D01*
X120670580Y-84566000D01*
X120670580Y-84327904D01*
X120391228Y-76571695D02*
X120391228Y-77333600D01*
X120772180Y-76952647D02*
X120010276Y-76952647D01*
X120772180Y-78333600D02*
X120772180Y-77762171D01*
X120772180Y-78047885D02*
X119772180Y-78047885D01*
X119915038Y-77952647D01*
X120010276Y-77857409D01*
X120057895Y-77762171D01*
X119867419Y-78714552D02*
X119819800Y-78762171D01*
X119772180Y-78857409D01*
X119772180Y-79095504D01*
X119819800Y-79190742D01*
X119867419Y-79238361D01*
X119962657Y-79285980D01*
X120057895Y-79285980D01*
X120200752Y-79238361D01*
X120772180Y-78666933D01*
X120772180Y-79285980D01*
X119772180Y-79571695D02*
X120772180Y-79905028D01*
X119772180Y-80238361D01*
X131447990Y-71156580D02*
X131257514Y-71156580D01*
X131162276Y-71204200D01*
X131067038Y-71299438D01*
X131019419Y-71489914D01*
X131019419Y-71823247D01*
X131067038Y-72013723D01*
X131162276Y-72108961D01*
X131257514Y-72156580D01*
X131447990Y-72156580D01*
X131543228Y-72108961D01*
X131638466Y-72013723D01*
X131686085Y-71823247D01*
X131686085Y-71489914D01*
X131638466Y-71299438D01*
X131543228Y-71204200D01*
X131447990Y-71156580D01*
X130590847Y-71156580D02*
X130590847Y-71966104D01*
X130543228Y-72061342D01*
X130495609Y-72108961D01*
X130400371Y-72156580D01*
X130209895Y-72156580D01*
X130114657Y-72108961D01*
X130067038Y-72061342D01*
X130019419Y-71966104D01*
X130019419Y-71156580D01*
X129686085Y-71156580D02*
X129114657Y-71156580D01*
X129400371Y-72156580D02*
X129400371Y-71156580D01*
X128828942Y-71251819D02*
X128781323Y-71204200D01*
X128686085Y-71156580D01*
X128447990Y-71156580D01*
X128352752Y-71204200D01*
X128305133Y-71251819D01*
X128257514Y-71347057D01*
X128257514Y-71442295D01*
X128305133Y-71585152D01*
X128876561Y-72156580D01*
X128257514Y-72156580D01*
X136756590Y-71181980D02*
X136566114Y-71181980D01*
X136470876Y-71229600D01*
X136375638Y-71324838D01*
X136328019Y-71515314D01*
X136328019Y-71848647D01*
X136375638Y-72039123D01*
X136470876Y-72134361D01*
X136566114Y-72181980D01*
X136756590Y-72181980D01*
X136851828Y-72134361D01*
X136947066Y-72039123D01*
X136994685Y-71848647D01*
X136994685Y-71515314D01*
X136947066Y-71324838D01*
X136851828Y-71229600D01*
X136756590Y-71181980D01*
X135899447Y-71181980D02*
X135899447Y-71991504D01*
X135851828Y-72086742D01*
X135804209Y-72134361D01*
X135708971Y-72181980D01*
X135518495Y-72181980D01*
X135423257Y-72134361D01*
X135375638Y-72086742D01*
X135328019Y-71991504D01*
X135328019Y-71181980D01*
X134994685Y-71181980D02*
X134423257Y-71181980D01*
X134708971Y-72181980D02*
X134708971Y-71181980D01*
X133566114Y-72181980D02*
X134137542Y-72181980D01*
X133851828Y-72181980D02*
X133851828Y-71181980D01*
X133947066Y-71324838D01*
X134042304Y-71420076D01*
X134137542Y-71467695D01*
D11*
G36*
X139777375Y-87759479D02*
G01*
X139730082Y-87793435D01*
X139707284Y-87817495D01*
X139703049Y-87840277D01*
X139724706Y-87868146D01*
X139779585Y-87907464D01*
X139875016Y-87964596D01*
X140018329Y-88045904D01*
X140025606Y-88050000D01*
X140160835Y-88125372D01*
X140275600Y-88187964D01*
X140358893Y-88231872D01*
X140399705Y-88251192D01*
X140401517Y-88251607D01*
X140434959Y-88231331D01*
X140471626Y-88195705D01*
X140489739Y-88170175D01*
X140488204Y-88145282D01*
X140459336Y-88114454D01*
X140395448Y-88071120D01*
X140288854Y-88008710D01*
X140183797Y-87949643D01*
X140051000Y-87875717D01*
X139938036Y-87813365D01*
X139856632Y-87769025D01*
X139818519Y-87749132D01*
X139818164Y-87748979D01*
X139777375Y-87759479D01*
G37*
X139777375Y-87759479D02*
X139730082Y-87793435D01*
X139707284Y-87817495D01*
X139703049Y-87840277D01*
X139724706Y-87868146D01*
X139779585Y-87907464D01*
X139875016Y-87964596D01*
X140018329Y-88045904D01*
X140025606Y-88050000D01*
X140160835Y-88125372D01*
X140275600Y-88187964D01*
X140358893Y-88231872D01*
X140399705Y-88251192D01*
X140401517Y-88251607D01*
X140434959Y-88231331D01*
X140471626Y-88195705D01*
X140489739Y-88170175D01*
X140488204Y-88145282D01*
X140459336Y-88114454D01*
X140395448Y-88071120D01*
X140288854Y-88008710D01*
X140183797Y-87949643D01*
X140051000Y-87875717D01*
X139938036Y-87813365D01*
X139856632Y-87769025D01*
X139818519Y-87749132D01*
X139818164Y-87748979D01*
X139777375Y-87759479D01*
G36*
X140727804Y-87330627D02*
G01*
X140423603Y-87393985D01*
X140153097Y-87498815D01*
X140120440Y-87515824D01*
X140017005Y-87571562D01*
X140721253Y-87960632D01*
X140893568Y-87881743D01*
X141092242Y-87816282D01*
X141299204Y-87785209D01*
X141584230Y-87788879D01*
X141839268Y-87847094D01*
X142070394Y-87962135D01*
X142283683Y-88136280D01*
X142312287Y-88165321D01*
X142413997Y-88291175D01*
X142517092Y-88452555D01*
X142611151Y-88629544D01*
X142685756Y-88802222D01*
X142730486Y-88950673D01*
X142734394Y-88972221D01*
X142741472Y-89013816D01*
X142752280Y-89049246D01*
X142773078Y-89083011D01*
X142810131Y-89119609D01*
X142869698Y-89163542D01*
X142958044Y-89219307D01*
X143081429Y-89291405D01*
X143246116Y-89384336D01*
X143458368Y-89502598D01*
X143521069Y-89537468D01*
X143675012Y-89623086D01*
X143652319Y-89517130D01*
X143564421Y-89218058D01*
X143429705Y-88905496D01*
X143257334Y-88595915D01*
X143056477Y-88305792D01*
X142837759Y-88053088D01*
X142626299Y-87863529D01*
X142383568Y-87688549D01*
X142134273Y-87545120D01*
X142025011Y-87494753D01*
X141714305Y-87390804D01*
X141385983Y-87328895D01*
X141052874Y-87308883D01*
X140727804Y-87330627D01*
G37*
X140727804Y-87330627D02*
X140423603Y-87393985D01*
X140153097Y-87498815D01*
X140120440Y-87515824D01*
X140017005Y-87571562D01*
X140721253Y-87960632D01*
X140893568Y-87881743D01*
X141092242Y-87816282D01*
X141299204Y-87785209D01*
X141584230Y-87788879D01*
X141839268Y-87847094D01*
X142070394Y-87962135D01*
X142283683Y-88136280D01*
X142312287Y-88165321D01*
X142413997Y-88291175D01*
X142517092Y-88452555D01*
X142611151Y-88629544D01*
X142685756Y-88802222D01*
X142730486Y-88950673D01*
X142734394Y-88972221D01*
X142741472Y-89013816D01*
X142752280Y-89049246D01*
X142773078Y-89083011D01*
X142810131Y-89119609D01*
X142869698Y-89163542D01*
X142958044Y-89219307D01*
X143081429Y-89291405D01*
X143246116Y-89384336D01*
X143458368Y-89502598D01*
X143521069Y-89537468D01*
X143675012Y-89623086D01*
X143652319Y-89517130D01*
X143564421Y-89218058D01*
X143429705Y-88905496D01*
X143257334Y-88595915D01*
X143056477Y-88305792D01*
X142837759Y-88053088D01*
X142626299Y-87863529D01*
X142383568Y-87688549D01*
X142134273Y-87545120D01*
X142025011Y-87494753D01*
X141714305Y-87390804D01*
X141385983Y-87328895D01*
X141052874Y-87308883D01*
X140727804Y-87330627D01*
G36*
X139437155Y-88104061D02*
G01*
X139351953Y-88224024D01*
X139257662Y-88382248D01*
X139166011Y-88557001D01*
X139088731Y-88726554D01*
X139057236Y-88807925D01*
X139008746Y-88956269D01*
X138964897Y-89111826D01*
X138928496Y-89261680D01*
X138902348Y-89392914D01*
X138889259Y-89492610D01*
X138892033Y-89547854D01*
X138895386Y-89553076D01*
X138931932Y-89559151D01*
X139025140Y-89566527D01*
X139168190Y-89574883D01*
X139354265Y-89583899D01*
X139576547Y-89593256D01*
X139828217Y-89602634D01*
X140102457Y-89611714D01*
X140223875Y-89615395D01*
X140525295Y-89624421D01*
X140823801Y-89633617D01*
X141109577Y-89642661D01*
X141372806Y-89651233D01*
X141603671Y-89659012D01*
X141792355Y-89665678D01*
X141929042Y-89670910D01*
X141946313Y-89671630D01*
X142101339Y-89677008D01*
X142230618Y-89679207D01*
X142322495Y-89678203D01*
X142365316Y-89673971D01*
X142367000Y-89672525D01*
X142343657Y-89647930D01*
X142271936Y-89600329D01*
X142149300Y-89528188D01*
X141973211Y-89429974D01*
X141895408Y-89387483D01*
X141661941Y-89260535D01*
X140939360Y-89237254D01*
X140729894Y-89229503D01*
X140540701Y-89220598D01*
X140381365Y-89211146D01*
X140261467Y-89201751D01*
X140190589Y-89193020D01*
X140176411Y-89189024D01*
X140155693Y-89143658D01*
X140149077Y-89053988D01*
X140155127Y-88937279D01*
X140172405Y-88810794D01*
X140199476Y-88691800D01*
X140223600Y-88621930D01*
X140251223Y-88541651D01*
X140258440Y-88487619D01*
X140255115Y-88479055D01*
X140221446Y-88456544D01*
X140143355Y-88409203D01*
X140031685Y-88343475D01*
X139897281Y-88265800D01*
X139864318Y-88246936D01*
X139493625Y-88035198D01*
X139437155Y-88104061D01*
G37*
X139437155Y-88104061D02*
X139351953Y-88224024D01*
X139257662Y-88382248D01*
X139166011Y-88557001D01*
X139088731Y-88726554D01*
X139057236Y-88807925D01*
X139008746Y-88956269D01*
X138964897Y-89111826D01*
X138928496Y-89261680D01*
X138902348Y-89392914D01*
X138889259Y-89492610D01*
X138892033Y-89547854D01*
X138895386Y-89553076D01*
X138931932Y-89559151D01*
X139025140Y-89566527D01*
X139168190Y-89574883D01*
X139354265Y-89583899D01*
X139576547Y-89593256D01*
X139828217Y-89602634D01*
X140102457Y-89611714D01*
X140223875Y-89615395D01*
X140525295Y-89624421D01*
X140823801Y-89633617D01*
X141109577Y-89642661D01*
X141372806Y-89651233D01*
X141603671Y-89659012D01*
X141792355Y-89665678D01*
X141929042Y-89670910D01*
X141946313Y-89671630D01*
X142101339Y-89677008D01*
X142230618Y-89679207D01*
X142322495Y-89678203D01*
X142365316Y-89673971D01*
X142367000Y-89672525D01*
X142343657Y-89647930D01*
X142271936Y-89600329D01*
X142149300Y-89528188D01*
X141973211Y-89429974D01*
X141895408Y-89387483D01*
X141661941Y-89260535D01*
X140939360Y-89237254D01*
X140729894Y-89229503D01*
X140540701Y-89220598D01*
X140381365Y-89211146D01*
X140261467Y-89201751D01*
X140190589Y-89193020D01*
X140176411Y-89189024D01*
X140155693Y-89143658D01*
X140149077Y-89053988D01*
X140155127Y-88937279D01*
X140172405Y-88810794D01*
X140199476Y-88691800D01*
X140223600Y-88621930D01*
X140251223Y-88541651D01*
X140258440Y-88487619D01*
X140255115Y-88479055D01*
X140221446Y-88456544D01*
X140143355Y-88409203D01*
X140031685Y-88343475D01*
X139897281Y-88265800D01*
X139864318Y-88246936D01*
X139493625Y-88035198D01*
X139437155Y-88104061D01*
G36*
X142618582Y-89506425D02*
G01*
X142753083Y-89583218D01*
X142866299Y-89647053D01*
X142947660Y-89692028D01*
X142986598Y-89712244D01*
X142988320Y-89712800D01*
X143018874Y-89727407D01*
X143089044Y-89765689D01*
X143182862Y-89818912D01*
X143317496Y-89896006D01*
X143465226Y-89979954D01*
X143549688Y-90027617D01*
X143732250Y-90130210D01*
X143732251Y-90037065D01*
X143729235Y-90004089D01*
X143715501Y-89972990D01*
X143684022Y-89938674D01*
X143627767Y-89896049D01*
X143539708Y-89840022D01*
X143412816Y-89765502D01*
X143240061Y-89667394D01*
X143159354Y-89621985D01*
X142963325Y-89512532D01*
X142813003Y-89430939D01*
X142699185Y-89373183D01*
X142612663Y-89335240D01*
X142544231Y-89313086D01*
X142484683Y-89302698D01*
X142424814Y-89300051D01*
X142422791Y-89300050D01*
X142259123Y-89300050D01*
X142618582Y-89506425D01*
G37*
X142618582Y-89506425D02*
X142753083Y-89583218D01*
X142866299Y-89647053D01*
X142947660Y-89692028D01*
X142986598Y-89712244D01*
X142988320Y-89712800D01*
X143018874Y-89727407D01*
X143089044Y-89765689D01*
X143182862Y-89818912D01*
X143317496Y-89896006D01*
X143465226Y-89979954D01*
X143549688Y-90027617D01*
X143732250Y-90130210D01*
X143732251Y-90037065D01*
X143729235Y-90004089D01*
X143715501Y-89972990D01*
X143684022Y-89938674D01*
X143627767Y-89896049D01*
X143539708Y-89840022D01*
X143412816Y-89765502D01*
X143240061Y-89667394D01*
X143159354Y-89621985D01*
X142963325Y-89512532D01*
X142813003Y-89430939D01*
X142699185Y-89373183D01*
X142612663Y-89335240D01*
X142544231Y-89313086D01*
X142484683Y-89302698D01*
X142424814Y-89300051D01*
X142422791Y-89300050D01*
X142259123Y-89300050D01*
X142618582Y-89506425D01*
G36*
X129358667Y-89802688D02*
G01*
X129177313Y-89836382D01*
X129079625Y-89870196D01*
X128924705Y-89951452D01*
X128813826Y-90047581D01*
X128727612Y-90176713D01*
X128705880Y-90219944D01*
X128683650Y-90270613D01*
X128666530Y-90324093D01*
X128653684Y-90389610D01*
X128644276Y-90476393D01*
X128637470Y-90593671D01*
X128632430Y-90750671D01*
X128628320Y-90956622D01*
X128626047Y-91101200D01*
X128615040Y-91838725D01*
X128695077Y-91918762D01*
X128802378Y-91985218D01*
X128927605Y-91992991D01*
X129032000Y-91957766D01*
X129111375Y-91917668D01*
X129127250Y-91188223D01*
X129132533Y-90954635D01*
X129137528Y-90776081D01*
X129143190Y-90644108D01*
X129150475Y-90550261D01*
X129160335Y-90486087D01*
X129173727Y-90443133D01*
X129191603Y-90412944D01*
X129214918Y-90387067D01*
X129218052Y-90383924D01*
X129331117Y-90312751D01*
X129472629Y-90284372D01*
X129625126Y-90297712D01*
X129771148Y-90351693D01*
X129872458Y-90424252D01*
X129984500Y-90529922D01*
X129984500Y-91167617D01*
X129986405Y-91415546D01*
X129991962Y-91616731D01*
X130000931Y-91766390D01*
X130013076Y-91859739D01*
X130020121Y-91883490D01*
X130087328Y-91959199D01*
X130196232Y-91993797D01*
X130338325Y-91985054D01*
X130375241Y-91976566D01*
X130429354Y-91937577D01*
X130462553Y-91882932D01*
X130470275Y-91831614D01*
X130477258Y-91725653D01*
X130483236Y-91573905D01*
X130487942Y-91385227D01*
X130491108Y-91168472D01*
X130492468Y-90932499D01*
X130492500Y-90889764D01*
X130492316Y-90624274D01*
X130491434Y-90414803D01*
X130489361Y-90253870D01*
X130485604Y-90133996D01*
X130479670Y-90047699D01*
X130471066Y-89987498D01*
X130459297Y-89945914D01*
X130443872Y-89915466D01*
X130426696Y-89891706D01*
X130340597Y-89828164D01*
X130231000Y-89806321D01*
X130123595Y-89828450D01*
X130074386Y-89860529D01*
X130033834Y-89890508D01*
X129991488Y-89894410D01*
X129924749Y-89871302D01*
X129882397Y-89852592D01*
X129734516Y-89810282D01*
X129552171Y-89793817D01*
X129358667Y-89802688D01*
G37*
X129358667Y-89802688D02*
X129177313Y-89836382D01*
X129079625Y-89870196D01*
X128924705Y-89951452D01*
X128813826Y-90047581D01*
X128727612Y-90176713D01*
X128705880Y-90219944D01*
X128683650Y-90270613D01*
X128666530Y-90324093D01*
X128653684Y-90389610D01*
X128644276Y-90476393D01*
X128637470Y-90593671D01*
X128632430Y-90750671D01*
X128628320Y-90956622D01*
X128626047Y-91101200D01*
X128615040Y-91838725D01*
X128695077Y-91918762D01*
X128802378Y-91985218D01*
X128927605Y-91992991D01*
X129032000Y-91957766D01*
X129111375Y-91917668D01*
X129127250Y-91188223D01*
X129132533Y-90954635D01*
X129137528Y-90776081D01*
X129143190Y-90644108D01*
X129150475Y-90550261D01*
X129160335Y-90486087D01*
X129173727Y-90443133D01*
X129191603Y-90412944D01*
X129214918Y-90387067D01*
X129218052Y-90383924D01*
X129331117Y-90312751D01*
X129472629Y-90284372D01*
X129625126Y-90297712D01*
X129771148Y-90351693D01*
X129872458Y-90424252D01*
X129984500Y-90529922D01*
X129984500Y-91167617D01*
X129986405Y-91415546D01*
X129991962Y-91616731D01*
X130000931Y-91766390D01*
X130013076Y-91859739D01*
X130020121Y-91883490D01*
X130087328Y-91959199D01*
X130196232Y-91993797D01*
X130338325Y-91985054D01*
X130375241Y-91976566D01*
X130429354Y-91937577D01*
X130462553Y-91882932D01*
X130470275Y-91831614D01*
X130477258Y-91725653D01*
X130483236Y-91573905D01*
X130487942Y-91385227D01*
X130491108Y-91168472D01*
X130492468Y-90932499D01*
X130492500Y-90889764D01*
X130492316Y-90624274D01*
X130491434Y-90414803D01*
X130489361Y-90253870D01*
X130485604Y-90133996D01*
X130479670Y-90047699D01*
X130471066Y-89987498D01*
X130459297Y-89945914D01*
X130443872Y-89915466D01*
X130426696Y-89891706D01*
X130340597Y-89828164D01*
X130231000Y-89806321D01*
X130123595Y-89828450D01*
X130074386Y-89860529D01*
X130033834Y-89890508D01*
X129991488Y-89894410D01*
X129924749Y-89871302D01*
X129882397Y-89852592D01*
X129734516Y-89810282D01*
X129552171Y-89793817D01*
X129358667Y-89802688D01*
G36*
X133070241Y-89806294D02*
G01*
X132890534Y-89856532D01*
X132864048Y-89868562D01*
X132757466Y-89933621D01*
X132662473Y-90013634D01*
X132632086Y-90047993D01*
X132580056Y-90123632D01*
X132539541Y-90203768D01*
X132509164Y-90297318D01*
X132487548Y-90413200D01*
X132473316Y-90560332D01*
X132465094Y-90747632D01*
X132461504Y-90984018D01*
X132461000Y-91156484D01*
X132461261Y-91385811D01*
X132462545Y-91560273D01*
X132465612Y-91688502D01*
X132471219Y-91779132D01*
X132480122Y-91840797D01*
X132493078Y-91882130D01*
X132510846Y-91911764D01*
X132529101Y-91932923D01*
X132584771Y-91979234D01*
X132650741Y-91995193D01*
X132738237Y-91990124D01*
X132832779Y-91972519D01*
X132902212Y-91947245D01*
X132916199Y-91937380D01*
X132930625Y-91893046D01*
X132943123Y-91789990D01*
X132953779Y-91626980D01*
X132962674Y-91402785D01*
X132969000Y-91159161D01*
X132974499Y-90920948D01*
X132980010Y-90737989D01*
X132986313Y-90602041D01*
X132994186Y-90504862D01*
X133004409Y-90438210D01*
X133017761Y-90393843D01*
X133035019Y-90363518D01*
X133045359Y-90351044D01*
X133136785Y-90293418D01*
X133252814Y-90281516D01*
X133378381Y-90311472D01*
X133498422Y-90379425D01*
X133597873Y-90481509D01*
X133607243Y-90495161D01*
X133627560Y-90531454D01*
X133642732Y-90576287D01*
X133653499Y-90638865D01*
X133660599Y-90728396D01*
X133664772Y-90854085D01*
X133666757Y-91025139D01*
X133667291Y-91242937D01*
X133667583Y-91463068D01*
X133668878Y-91628380D01*
X133672047Y-91747554D01*
X133677958Y-91829273D01*
X133687482Y-91882215D01*
X133701489Y-91915064D01*
X133720848Y-91936500D01*
X133738065Y-91949374D01*
X133825634Y-91988022D01*
X133894218Y-91998800D01*
X133976588Y-91994598D01*
X134041201Y-91977462D01*
X134090189Y-91940592D01*
X134125680Y-91877189D01*
X134149806Y-91780455D01*
X134164697Y-91643590D01*
X134172482Y-91459796D01*
X134175291Y-91222275D01*
X134175500Y-91101036D01*
X134175698Y-90876844D01*
X134176864Y-90707397D01*
X134179858Y-90583943D01*
X134185541Y-90497726D01*
X134194774Y-90439993D01*
X134208416Y-90401990D01*
X134227329Y-90374963D01*
X134248984Y-90353334D01*
X134349684Y-90298623D01*
X134472756Y-90288401D01*
X134600361Y-90318009D01*
X134714663Y-90382788D01*
X134797823Y-90478080D01*
X134808756Y-90499524D01*
X134820384Y-90557300D01*
X134829955Y-90669914D01*
X134837049Y-90828728D01*
X134841250Y-91025102D01*
X134842250Y-91192756D01*
X134843486Y-91429277D01*
X134847956Y-91610625D01*
X134856806Y-91745093D01*
X134871180Y-91840975D01*
X134892224Y-91906563D01*
X134921083Y-91950149D01*
X134950191Y-91974501D01*
X135010497Y-91990616D01*
X135104636Y-91993483D01*
X135204297Y-91982897D01*
X135232991Y-91976566D01*
X135287104Y-91937577D01*
X135320303Y-91882932D01*
X135328025Y-91831614D01*
X135335008Y-91725653D01*
X135340986Y-91573905D01*
X135345692Y-91385227D01*
X135348858Y-91168472D01*
X135350218Y-90932499D01*
X135350250Y-90889764D01*
X135350066Y-90624274D01*
X135349184Y-90414803D01*
X135347111Y-90253870D01*
X135343354Y-90133996D01*
X135337420Y-90047699D01*
X135328816Y-89987498D01*
X135317047Y-89945914D01*
X135301622Y-89915466D01*
X135284446Y-89891706D01*
X135199461Y-89828830D01*
X135090976Y-89806150D01*
X134984858Y-89826162D01*
X134934950Y-89857983D01*
X134892519Y-89887889D01*
X134847950Y-89886566D01*
X134775457Y-89853082D01*
X134773700Y-89852159D01*
X134623397Y-89804385D01*
X134443975Y-89795308D01*
X134254490Y-89822261D01*
X134074002Y-89882575D01*
X133924813Y-89971008D01*
X133868320Y-90010837D01*
X133830620Y-90010502D01*
X133781405Y-89970027D01*
X133641425Y-89878446D01*
X133464018Y-89819278D01*
X133267513Y-89794552D01*
X133070241Y-89806294D01*
G37*
X133070241Y-89806294D02*
X132890534Y-89856532D01*
X132864048Y-89868562D01*
X132757466Y-89933621D01*
X132662473Y-90013634D01*
X132632086Y-90047993D01*
X132580056Y-90123632D01*
X132539541Y-90203768D01*
X132509164Y-90297318D01*
X132487548Y-90413200D01*
X132473316Y-90560332D01*
X132465094Y-90747632D01*
X132461504Y-90984018D01*
X132461000Y-91156484D01*
X132461261Y-91385811D01*
X132462545Y-91560273D01*
X132465612Y-91688502D01*
X132471219Y-91779132D01*
X132480122Y-91840797D01*
X132493078Y-91882130D01*
X132510846Y-91911764D01*
X132529101Y-91932923D01*
X132584771Y-91979234D01*
X132650741Y-91995193D01*
X132738237Y-91990124D01*
X132832779Y-91972519D01*
X132902212Y-91947245D01*
X132916199Y-91937380D01*
X132930625Y-91893046D01*
X132943123Y-91789990D01*
X132953779Y-91626980D01*
X132962674Y-91402785D01*
X132969000Y-91159161D01*
X132974499Y-90920948D01*
X132980010Y-90737989D01*
X132986313Y-90602041D01*
X132994186Y-90504862D01*
X133004409Y-90438210D01*
X133017761Y-90393843D01*
X133035019Y-90363518D01*
X133045359Y-90351044D01*
X133136785Y-90293418D01*
X133252814Y-90281516D01*
X133378381Y-90311472D01*
X133498422Y-90379425D01*
X133597873Y-90481509D01*
X133607243Y-90495161D01*
X133627560Y-90531454D01*
X133642732Y-90576287D01*
X133653499Y-90638865D01*
X133660599Y-90728396D01*
X133664772Y-90854085D01*
X133666757Y-91025139D01*
X133667291Y-91242937D01*
X133667583Y-91463068D01*
X133668878Y-91628380D01*
X133672047Y-91747554D01*
X133677958Y-91829273D01*
X133687482Y-91882215D01*
X133701489Y-91915064D01*
X133720848Y-91936500D01*
X133738065Y-91949374D01*
X133825634Y-91988022D01*
X133894218Y-91998800D01*
X133976588Y-91994598D01*
X134041201Y-91977462D01*
X134090189Y-91940592D01*
X134125680Y-91877189D01*
X134149806Y-91780455D01*
X134164697Y-91643590D01*
X134172482Y-91459796D01*
X134175291Y-91222275D01*
X134175500Y-91101036D01*
X134175698Y-90876844D01*
X134176864Y-90707397D01*
X134179858Y-90583943D01*
X134185541Y-90497726D01*
X134194774Y-90439993D01*
X134208416Y-90401990D01*
X134227329Y-90374963D01*
X134248984Y-90353334D01*
X134349684Y-90298623D01*
X134472756Y-90288401D01*
X134600361Y-90318009D01*
X134714663Y-90382788D01*
X134797823Y-90478080D01*
X134808756Y-90499524D01*
X134820384Y-90557300D01*
X134829955Y-90669914D01*
X134837049Y-90828728D01*
X134841250Y-91025102D01*
X134842250Y-91192756D01*
X134843486Y-91429277D01*
X134847956Y-91610625D01*
X134856806Y-91745093D01*
X134871180Y-91840975D01*
X134892224Y-91906563D01*
X134921083Y-91950149D01*
X134950191Y-91974501D01*
X135010497Y-91990616D01*
X135104636Y-91993483D01*
X135204297Y-91982897D01*
X135232991Y-91976566D01*
X135287104Y-91937577D01*
X135320303Y-91882932D01*
X135328025Y-91831614D01*
X135335008Y-91725653D01*
X135340986Y-91573905D01*
X135345692Y-91385227D01*
X135348858Y-91168472D01*
X135350218Y-90932499D01*
X135350250Y-90889764D01*
X135350066Y-90624274D01*
X135349184Y-90414803D01*
X135347111Y-90253870D01*
X135343354Y-90133996D01*
X135337420Y-90047699D01*
X135328816Y-89987498D01*
X135317047Y-89945914D01*
X135301622Y-89915466D01*
X135284446Y-89891706D01*
X135199461Y-89828830D01*
X135090976Y-89806150D01*
X134984858Y-89826162D01*
X134934950Y-89857983D01*
X134892519Y-89887889D01*
X134847950Y-89886566D01*
X134775457Y-89853082D01*
X134773700Y-89852159D01*
X134623397Y-89804385D01*
X134443975Y-89795308D01*
X134254490Y-89822261D01*
X134074002Y-89882575D01*
X133924813Y-89971008D01*
X133868320Y-90010837D01*
X133830620Y-90010502D01*
X133781405Y-89970027D01*
X133641425Y-89878446D01*
X133464018Y-89819278D01*
X133267513Y-89794552D01*
X133070241Y-89806294D01*
G36*
X127967363Y-89310660D02*
G01*
X127892657Y-89348787D01*
X127848685Y-89423869D01*
X127828748Y-89545346D01*
X127825500Y-89657996D01*
X127825500Y-89874812D01*
X127549871Y-89868738D01*
X127415724Y-89866940D01*
X127329026Y-89871172D01*
X127273772Y-89885078D01*
X127233955Y-89912300D01*
X127200621Y-89948252D01*
X127150773Y-90020710D01*
X127127642Y-90082972D01*
X127127434Y-90087632D01*
X127146429Y-90208216D01*
X127204883Y-90293980D01*
X127308365Y-90348484D01*
X127462443Y-90375284D01*
X127584337Y-90379550D01*
X127825500Y-90379550D01*
X127825500Y-90889637D01*
X127823449Y-91121931D01*
X127815122Y-91296538D01*
X127797257Y-91419200D01*
X127766593Y-91495658D01*
X127719870Y-91531653D01*
X127653827Y-91532928D01*
X127565201Y-91505223D01*
X127493487Y-91474186D01*
X127389404Y-91431291D01*
X127300356Y-91402729D01*
X127258339Y-91395550D01*
X127190923Y-91422369D01*
X127124043Y-91488168D01*
X127075989Y-91570959D01*
X127063305Y-91630019D01*
X127059403Y-91668132D01*
X127042916Y-91655323D01*
X127015868Y-91606595D01*
X126959925Y-91516731D01*
X126905721Y-91447845D01*
X126867953Y-91403208D01*
X126797869Y-91316893D01*
X126702185Y-91197307D01*
X126587617Y-91052859D01*
X126460880Y-90891958D01*
X126413853Y-90831987D01*
X125984890Y-90284300D01*
X126439899Y-90284300D01*
X126621999Y-90283445D01*
X126751336Y-90280063D01*
X126838635Y-90272926D01*
X126894622Y-90260809D01*
X126930020Y-90242484D01*
X126947455Y-90226237D01*
X126988674Y-90140227D01*
X126997208Y-90028406D01*
X126972799Y-89919561D01*
X126950575Y-89878614D01*
X126933477Y-89856595D01*
X126911660Y-89839711D01*
X126877200Y-89827279D01*
X126822174Y-89818619D01*
X126738656Y-89813049D01*
X126618723Y-89809888D01*
X126454451Y-89808453D01*
X126237916Y-89808065D01*
X126129996Y-89808050D01*
X125871684Y-89808369D01*
X125669893Y-89810657D01*
X125517645Y-89816910D01*
X125407962Y-89829125D01*
X125333863Y-89849297D01*
X125288372Y-89879422D01*
X125264508Y-89921497D01*
X125255295Y-89977518D01*
X125253752Y-90049480D01*
X125253750Y-90058680D01*
X125257487Y-90118877D01*
X125272956Y-90176311D01*
X125306550Y-90242349D01*
X125364660Y-90328361D01*
X125453675Y-90445718D01*
X125515688Y-90524663D01*
X125644585Y-90687787D01*
X125789002Y-90870563D01*
X125929146Y-91047940D01*
X126022049Y-91165533D01*
X126266473Y-91474925D01*
X125810935Y-91490800D01*
X125626270Y-91498291D01*
X125494136Y-91506878D01*
X125403565Y-91518165D01*
X125343589Y-91533754D01*
X125303241Y-91555251D01*
X125288699Y-91567158D01*
X125235905Y-91653270D01*
X125220989Y-91763910D01*
X125244181Y-91872467D01*
X125285500Y-91935300D01*
X125308332Y-91954985D01*
X125337827Y-91970127D01*
X125381948Y-91981319D01*
X125448659Y-91989155D01*
X125545923Y-91994227D01*
X125681703Y-91997129D01*
X125863964Y-91998454D01*
X126100667Y-91998796D01*
X126137830Y-91998800D01*
X126391009Y-91998658D01*
X126588410Y-91997166D01*
X126737757Y-91992724D01*
X126846770Y-91983729D01*
X126923172Y-91968580D01*
X126974686Y-91945678D01*
X127009032Y-91913420D01*
X127033934Y-91870207D01*
X127057113Y-91814436D01*
X127059816Y-91807647D01*
X127083262Y-91762883D01*
X127093097Y-91779378D01*
X127093238Y-91782325D01*
X127125664Y-91849238D01*
X127210533Y-91911795D01*
X127336814Y-91963857D01*
X127479006Y-91997032D01*
X127593936Y-92015296D01*
X127670429Y-92023882D01*
X127732814Y-92022729D01*
X127805423Y-92011775D01*
X127886789Y-91995999D01*
X128042049Y-91935732D01*
X128130484Y-91868545D01*
X128198313Y-91792269D01*
X128249757Y-91705752D01*
X128286866Y-91599419D01*
X128311693Y-91463694D01*
X128326291Y-91289002D01*
X128332711Y-91065768D01*
X128333500Y-90921271D01*
X128333789Y-90724304D01*
X128335376Y-90581972D01*
X128339339Y-90485409D01*
X128346757Y-90425751D01*
X128358710Y-90394132D01*
X128376278Y-90381687D01*
X128399443Y-90379550D01*
X128474011Y-90353622D01*
X128553615Y-90289361D01*
X128618868Y-90207046D01*
X128650382Y-90126960D01*
X128651000Y-90116399D01*
X128624870Y-90014254D01*
X128558303Y-89928210D01*
X128469037Y-89877606D01*
X128426446Y-89871550D01*
X128333500Y-89871550D01*
X128333500Y-89656364D01*
X128325873Y-89498721D01*
X128298508Y-89393800D01*
X128244684Y-89332172D01*
X128157679Y-89304406D01*
X128079500Y-89300050D01*
X127967363Y-89310660D01*
G37*
X127967363Y-89310660D02*
X127892657Y-89348787D01*
X127848685Y-89423869D01*
X127828748Y-89545346D01*
X127825500Y-89657996D01*
X127825500Y-89874812D01*
X127549871Y-89868738D01*
X127415724Y-89866940D01*
X127329026Y-89871172D01*
X127273772Y-89885078D01*
X127233955Y-89912300D01*
X127200621Y-89948252D01*
X127150773Y-90020710D01*
X127127642Y-90082972D01*
X127127434Y-90087632D01*
X127146429Y-90208216D01*
X127204883Y-90293980D01*
X127308365Y-90348484D01*
X127462443Y-90375284D01*
X127584337Y-90379550D01*
X127825500Y-90379550D01*
X127825500Y-90889637D01*
X127823449Y-91121931D01*
X127815122Y-91296538D01*
X127797257Y-91419200D01*
X127766593Y-91495658D01*
X127719870Y-91531653D01*
X127653827Y-91532928D01*
X127565201Y-91505223D01*
X127493487Y-91474186D01*
X127389404Y-91431291D01*
X127300356Y-91402729D01*
X127258339Y-91395550D01*
X127190923Y-91422369D01*
X127124043Y-91488168D01*
X127075989Y-91570959D01*
X127063305Y-91630019D01*
X127059403Y-91668132D01*
X127042916Y-91655323D01*
X127015868Y-91606595D01*
X126959925Y-91516731D01*
X126905721Y-91447845D01*
X126867953Y-91403208D01*
X126797869Y-91316893D01*
X126702185Y-91197307D01*
X126587617Y-91052859D01*
X126460880Y-90891958D01*
X126413853Y-90831987D01*
X125984890Y-90284300D01*
X126439899Y-90284300D01*
X126621999Y-90283445D01*
X126751336Y-90280063D01*
X126838635Y-90272926D01*
X126894622Y-90260809D01*
X126930020Y-90242484D01*
X126947455Y-90226237D01*
X126988674Y-90140227D01*
X126997208Y-90028406D01*
X126972799Y-89919561D01*
X126950575Y-89878614D01*
X126933477Y-89856595D01*
X126911660Y-89839711D01*
X126877200Y-89827279D01*
X126822174Y-89818619D01*
X126738656Y-89813049D01*
X126618723Y-89809888D01*
X126454451Y-89808453D01*
X126237916Y-89808065D01*
X126129996Y-89808050D01*
X125871684Y-89808369D01*
X125669893Y-89810657D01*
X125517645Y-89816910D01*
X125407962Y-89829125D01*
X125333863Y-89849297D01*
X125288372Y-89879422D01*
X125264508Y-89921497D01*
X125255295Y-89977518D01*
X125253752Y-90049480D01*
X125253750Y-90058680D01*
X125257487Y-90118877D01*
X125272956Y-90176311D01*
X125306550Y-90242349D01*
X125364660Y-90328361D01*
X125453675Y-90445718D01*
X125515688Y-90524663D01*
X125644585Y-90687787D01*
X125789002Y-90870563D01*
X125929146Y-91047940D01*
X126022049Y-91165533D01*
X126266473Y-91474925D01*
X125810935Y-91490800D01*
X125626270Y-91498291D01*
X125494136Y-91506878D01*
X125403565Y-91518165D01*
X125343589Y-91533754D01*
X125303241Y-91555251D01*
X125288699Y-91567158D01*
X125235905Y-91653270D01*
X125220989Y-91763910D01*
X125244181Y-91872467D01*
X125285500Y-91935300D01*
X125308332Y-91954985D01*
X125337827Y-91970127D01*
X125381948Y-91981319D01*
X125448659Y-91989155D01*
X125545923Y-91994227D01*
X125681703Y-91997129D01*
X125863964Y-91998454D01*
X126100667Y-91998796D01*
X126137830Y-91998800D01*
X126391009Y-91998658D01*
X126588410Y-91997166D01*
X126737757Y-91992724D01*
X126846770Y-91983729D01*
X126923172Y-91968580D01*
X126974686Y-91945678D01*
X127009032Y-91913420D01*
X127033934Y-91870207D01*
X127057113Y-91814436D01*
X127059816Y-91807647D01*
X127083262Y-91762883D01*
X127093097Y-91779378D01*
X127093238Y-91782325D01*
X127125664Y-91849238D01*
X127210533Y-91911795D01*
X127336814Y-91963857D01*
X127479006Y-91997032D01*
X127593936Y-92015296D01*
X127670429Y-92023882D01*
X127732814Y-92022729D01*
X127805423Y-92011775D01*
X127886789Y-91995999D01*
X128042049Y-91935732D01*
X128130484Y-91868545D01*
X128198313Y-91792269D01*
X128249757Y-91705752D01*
X128286866Y-91599419D01*
X128311693Y-91463694D01*
X128326291Y-91289002D01*
X128332711Y-91065768D01*
X128333500Y-90921271D01*
X128333789Y-90724304D01*
X128335376Y-90581972D01*
X128339339Y-90485409D01*
X128346757Y-90425751D01*
X128358710Y-90394132D01*
X128376278Y-90381687D01*
X128399443Y-90379550D01*
X128474011Y-90353622D01*
X128553615Y-90289361D01*
X128618868Y-90207046D01*
X128650382Y-90126960D01*
X128651000Y-90116399D01*
X128624870Y-90014254D01*
X128558303Y-89928210D01*
X128469037Y-89877606D01*
X128426446Y-89871550D01*
X128333500Y-89871550D01*
X128333500Y-89656364D01*
X128325873Y-89498721D01*
X128298508Y-89393800D01*
X128244684Y-89332172D01*
X128157679Y-89304406D01*
X128079500Y-89300050D01*
X127967363Y-89310660D01*
G36*
X131308895Y-89788528D02*
G01*
X131127626Y-89822054D01*
X131010916Y-89866236D01*
X130851430Y-89979906D01*
X130716199Y-90138116D01*
X130617527Y-90323041D01*
X130568943Y-90506550D01*
X130561148Y-90564591D01*
X130548148Y-90658584D01*
X130540453Y-90713499D01*
X130532547Y-90814887D01*
X130544512Y-90895468D01*
X130582319Y-90957611D01*
X130651943Y-91003686D01*
X130759358Y-91036061D01*
X130910538Y-91057105D01*
X131111455Y-91069188D01*
X131368083Y-91074678D01*
X131452938Y-91075370D01*
X131644943Y-91078900D01*
X131784051Y-91086622D01*
X131866581Y-91098236D01*
X131889500Y-91111064D01*
X131868541Y-91187567D01*
X131815567Y-91284505D01*
X131745433Y-91379469D01*
X131672996Y-91450053D01*
X131658032Y-91460203D01*
X131540033Y-91519096D01*
X131427855Y-91540718D01*
X131302067Y-91525592D01*
X131143241Y-91474241D01*
X131142808Y-91474076D01*
X130981080Y-91415198D01*
X130865435Y-91381380D01*
X130784300Y-91371077D01*
X130726100Y-91382745D01*
X130681748Y-91412558D01*
X130636191Y-91489878D01*
X130617362Y-91597746D01*
X130625474Y-91709802D01*
X130660742Y-91799686D01*
X130678452Y-91820058D01*
X130790064Y-91889687D01*
X130948005Y-91946263D01*
X131135876Y-91986610D01*
X131337278Y-92007556D01*
X131535813Y-92005926D01*
X131603750Y-91999160D01*
X131838933Y-91942902D01*
X132032519Y-91839436D01*
X132184764Y-91688401D01*
X132295922Y-91489432D01*
X132366249Y-91242168D01*
X132396001Y-90946246D01*
X132397131Y-90871675D01*
X132389634Y-90658490D01*
X132382486Y-90612111D01*
X131901167Y-90612111D01*
X131633396Y-90591271D01*
X131489036Y-90581295D01*
X131350763Y-90573867D01*
X131244735Y-90570352D01*
X131230688Y-90570240D01*
X131136938Y-90560659D01*
X131098561Y-90528769D01*
X131114089Y-90469337D01*
X131177948Y-90381986D01*
X131235467Y-90323171D01*
X131295497Y-90294118D01*
X131383733Y-90284774D01*
X131427666Y-90284300D01*
X131568284Y-90299582D01*
X131681239Y-90352097D01*
X131784153Y-90451848D01*
X131830649Y-90513078D01*
X131901167Y-90612111D01*
X132382486Y-90612111D01*
X132363076Y-90486173D01*
X132312077Y-90333585D01*
X132231260Y-90179584D01*
X132213801Y-90151155D01*
X132155489Y-90082573D01*
X132066474Y-90003291D01*
X131966618Y-89928510D01*
X131875781Y-89873435D01*
X131826000Y-89854297D01*
X131788583Y-89844455D01*
X131711932Y-89822992D01*
X131667250Y-89810238D01*
X131498258Y-89783780D01*
X131308895Y-89788528D01*
G37*
X131308895Y-89788528D02*
X131127626Y-89822054D01*
X131010916Y-89866236D01*
X130851430Y-89979906D01*
X130716199Y-90138116D01*
X130617527Y-90323041D01*
X130568943Y-90506550D01*
X130561148Y-90564591D01*
X130548148Y-90658584D01*
X130540453Y-90713499D01*
X130532547Y-90814887D01*
X130544512Y-90895468D01*
X130582319Y-90957611D01*
X130651943Y-91003686D01*
X130759358Y-91036061D01*
X130910538Y-91057105D01*
X131111455Y-91069188D01*
X131368083Y-91074678D01*
X131452938Y-91075370D01*
X131644943Y-91078900D01*
X131784051Y-91086622D01*
X131866581Y-91098236D01*
X131889500Y-91111064D01*
X131868541Y-91187567D01*
X131815567Y-91284505D01*
X131745433Y-91379469D01*
X131672996Y-91450053D01*
X131658032Y-91460203D01*
X131540033Y-91519096D01*
X131427855Y-91540718D01*
X131302067Y-91525592D01*
X131143241Y-91474241D01*
X131142808Y-91474076D01*
X130981080Y-91415198D01*
X130865435Y-91381380D01*
X130784300Y-91371077D01*
X130726100Y-91382745D01*
X130681748Y-91412558D01*
X130636191Y-91489878D01*
X130617362Y-91597746D01*
X130625474Y-91709802D01*
X130660742Y-91799686D01*
X130678452Y-91820058D01*
X130790064Y-91889687D01*
X130948005Y-91946263D01*
X131135876Y-91986610D01*
X131337278Y-92007556D01*
X131535813Y-92005926D01*
X131603750Y-91999160D01*
X131838933Y-91942902D01*
X132032519Y-91839436D01*
X132184764Y-91688401D01*
X132295922Y-91489432D01*
X132366249Y-91242168D01*
X132396001Y-90946246D01*
X132397131Y-90871675D01*
X132389634Y-90658490D01*
X132382486Y-90612111D01*
X131901167Y-90612111D01*
X131633396Y-90591271D01*
X131489036Y-90581295D01*
X131350763Y-90573867D01*
X131244735Y-90570352D01*
X131230688Y-90570240D01*
X131136938Y-90560659D01*
X131098561Y-90528769D01*
X131114089Y-90469337D01*
X131177948Y-90381986D01*
X131235467Y-90323171D01*
X131295497Y-90294118D01*
X131383733Y-90284774D01*
X131427666Y-90284300D01*
X131568284Y-90299582D01*
X131681239Y-90352097D01*
X131784153Y-90451848D01*
X131830649Y-90513078D01*
X131901167Y-90612111D01*
X132382486Y-90612111D01*
X132363076Y-90486173D01*
X132312077Y-90333585D01*
X132231260Y-90179584D01*
X132213801Y-90151155D01*
X132155489Y-90082573D01*
X132066474Y-90003291D01*
X131966618Y-89928510D01*
X131875781Y-89873435D01*
X131826000Y-89854297D01*
X131788583Y-89844455D01*
X131711932Y-89822992D01*
X131667250Y-89810238D01*
X131498258Y-89783780D01*
X131308895Y-89788528D01*
G36*
X136083822Y-89792849D02*
G01*
X135880530Y-89864189D01*
X135704384Y-89983769D01*
X135563126Y-90146782D01*
X135464499Y-90348423D01*
X135425510Y-90506550D01*
X135401769Y-90664739D01*
X135390266Y-90774022D01*
X135391365Y-90847875D01*
X135405429Y-90899770D01*
X135432822Y-90943183D01*
X135437439Y-90948978D01*
X135483315Y-90989316D01*
X135552559Y-91020445D01*
X135652654Y-91043448D01*
X135791078Y-91059408D01*
X135975312Y-91069406D01*
X136212837Y-91074526D01*
X136310688Y-91075370D01*
X136502693Y-91078900D01*
X136641801Y-91086622D01*
X136724331Y-91098236D01*
X136747250Y-91111064D01*
X136726291Y-91187567D01*
X136673317Y-91284505D01*
X136603183Y-91379469D01*
X136530746Y-91450053D01*
X136515782Y-91460203D01*
X136397783Y-91519096D01*
X136285605Y-91540718D01*
X136159817Y-91525592D01*
X136000991Y-91474241D01*
X136000558Y-91474076D01*
X135838830Y-91415198D01*
X135723185Y-91381380D01*
X135642050Y-91371077D01*
X135583850Y-91382745D01*
X135539498Y-91412558D01*
X135493941Y-91489878D01*
X135475112Y-91597746D01*
X135483224Y-91709802D01*
X135518492Y-91799686D01*
X135536202Y-91820058D01*
X135648782Y-91890224D01*
X135807974Y-91946739D01*
X135997774Y-91986525D01*
X136202181Y-92006504D01*
X136405190Y-92003598D01*
X136461500Y-91998037D01*
X136678680Y-91947412D01*
X136864795Y-91847625D01*
X136964272Y-91765057D01*
X137086613Y-91621565D01*
X137173504Y-91450500D01*
X137227865Y-91242884D01*
X137252615Y-90989743D01*
X137254881Y-90871675D01*
X137246984Y-90655419D01*
X137240113Y-90612111D01*
X136758917Y-90612111D01*
X136491146Y-90591271D01*
X136346786Y-90581295D01*
X136208513Y-90573867D01*
X136102485Y-90570352D01*
X136088438Y-90570240D01*
X135994688Y-90560659D01*
X135956311Y-90528769D01*
X135971839Y-90469337D01*
X136035698Y-90381986D01*
X136093217Y-90323171D01*
X136153247Y-90294118D01*
X136241483Y-90284774D01*
X136285416Y-90284300D01*
X136426034Y-90299582D01*
X136538989Y-90352097D01*
X136641903Y-90451848D01*
X136688399Y-90513078D01*
X136758917Y-90612111D01*
X137240113Y-90612111D01*
X137219363Y-90481347D01*
X137166856Y-90329837D01*
X137084299Y-90181264D01*
X137065914Y-90153415D01*
X137008572Y-90087356D01*
X136923737Y-90010259D01*
X136829372Y-89936215D01*
X136743439Y-89879313D01*
X136683899Y-89853645D01*
X136683750Y-89853626D01*
X136646046Y-89844144D01*
X136570898Y-89822899D01*
X136540875Y-89814115D01*
X136306518Y-89774556D01*
X136083822Y-89792849D01*
G37*
X136083822Y-89792849D02*
X135880530Y-89864189D01*
X135704384Y-89983769D01*
X135563126Y-90146782D01*
X135464499Y-90348423D01*
X135425510Y-90506550D01*
X135401769Y-90664739D01*
X135390266Y-90774022D01*
X135391365Y-90847875D01*
X135405429Y-90899770D01*
X135432822Y-90943183D01*
X135437439Y-90948978D01*
X135483315Y-90989316D01*
X135552559Y-91020445D01*
X135652654Y-91043448D01*
X135791078Y-91059408D01*
X135975312Y-91069406D01*
X136212837Y-91074526D01*
X136310688Y-91075370D01*
X136502693Y-91078900D01*
X136641801Y-91086622D01*
X136724331Y-91098236D01*
X136747250Y-91111064D01*
X136726291Y-91187567D01*
X136673317Y-91284505D01*
X136603183Y-91379469D01*
X136530746Y-91450053D01*
X136515782Y-91460203D01*
X136397783Y-91519096D01*
X136285605Y-91540718D01*
X136159817Y-91525592D01*
X136000991Y-91474241D01*
X136000558Y-91474076D01*
X135838830Y-91415198D01*
X135723185Y-91381380D01*
X135642050Y-91371077D01*
X135583850Y-91382745D01*
X135539498Y-91412558D01*
X135493941Y-91489878D01*
X135475112Y-91597746D01*
X135483224Y-91709802D01*
X135518492Y-91799686D01*
X135536202Y-91820058D01*
X135648782Y-91890224D01*
X135807974Y-91946739D01*
X135997774Y-91986525D01*
X136202181Y-92006504D01*
X136405190Y-92003598D01*
X136461500Y-91998037D01*
X136678680Y-91947412D01*
X136864795Y-91847625D01*
X136964272Y-91765057D01*
X137086613Y-91621565D01*
X137173504Y-91450500D01*
X137227865Y-91242884D01*
X137252615Y-90989743D01*
X137254881Y-90871675D01*
X137246984Y-90655419D01*
X137240113Y-90612111D01*
X136758917Y-90612111D01*
X136491146Y-90591271D01*
X136346786Y-90581295D01*
X136208513Y-90573867D01*
X136102485Y-90570352D01*
X136088438Y-90570240D01*
X135994688Y-90560659D01*
X135956311Y-90528769D01*
X135971839Y-90469337D01*
X136035698Y-90381986D01*
X136093217Y-90323171D01*
X136153247Y-90294118D01*
X136241483Y-90284774D01*
X136285416Y-90284300D01*
X136426034Y-90299582D01*
X136538989Y-90352097D01*
X136641903Y-90451848D01*
X136688399Y-90513078D01*
X136758917Y-90612111D01*
X137240113Y-90612111D01*
X137219363Y-90481347D01*
X137166856Y-90329837D01*
X137084299Y-90181264D01*
X137065914Y-90153415D01*
X137008572Y-90087356D01*
X136923737Y-90010259D01*
X136829372Y-89936215D01*
X136743439Y-89879313D01*
X136683899Y-89853645D01*
X136683750Y-89853626D01*
X136646046Y-89844144D01*
X136570898Y-89822899D01*
X136540875Y-89814115D01*
X136306518Y-89774556D01*
X136083822Y-89792849D01*
G36*
X138026799Y-88700031D02*
G01*
X137988751Y-88712490D01*
X137958696Y-88739663D01*
X137935605Y-88787161D01*
X137918448Y-88860598D01*
X137906196Y-88965587D01*
X137897821Y-89107741D01*
X137892293Y-89292673D01*
X137888582Y-89525997D01*
X137885659Y-89813324D01*
X137883563Y-90046175D01*
X137880298Y-90376318D01*
X137876654Y-90648986D01*
X137871949Y-90870203D01*
X137865498Y-91045993D01*
X137856618Y-91182381D01*
X137844627Y-91285389D01*
X137828841Y-91361043D01*
X137808578Y-91415366D01*
X137783153Y-91454383D01*
X137751884Y-91484117D01*
X137717762Y-91508194D01*
X137665077Y-91537674D01*
X137618042Y-91541745D01*
X137552562Y-91518758D01*
X137498281Y-91493174D01*
X137371581Y-91451713D01*
X137267762Y-91456951D01*
X137196696Y-91507478D01*
X137180206Y-91538589D01*
X137162676Y-91630187D01*
X137162902Y-91742609D01*
X137179726Y-91841770D01*
X137191507Y-91871344D01*
X137254031Y-91929107D01*
X137363295Y-91973793D01*
X137503293Y-92002061D01*
X137658015Y-92010568D01*
X137799075Y-91998159D01*
X137901359Y-91976280D01*
X137984695Y-91950534D01*
X138005450Y-91941216D01*
X138124518Y-91845987D01*
X138230648Y-91702311D01*
X138308625Y-91536318D01*
X138326042Y-91485452D01*
X138340356Y-91433493D01*
X138351961Y-91373618D01*
X138361251Y-91299005D01*
X138368620Y-91202831D01*
X138374462Y-91078273D01*
X138379170Y-90918510D01*
X138383140Y-90716717D01*
X138386764Y-90466074D01*
X138390437Y-90159758D01*
X138391004Y-90109675D01*
X138394469Y-89796917D01*
X138396945Y-89541370D01*
X138398171Y-89336747D01*
X138397884Y-89176761D01*
X138395822Y-89055128D01*
X138391724Y-88965561D01*
X138385329Y-88901775D01*
X138376373Y-88857482D01*
X138364596Y-88826399D01*
X138349736Y-88802238D01*
X138335804Y-88784112D01*
X138274516Y-88724824D01*
X138199092Y-88700167D01*
X138130992Y-88696800D01*
X138073870Y-88696672D01*
X138026799Y-88700031D01*
G37*
X138026799Y-88700031D02*
X137988751Y-88712490D01*
X137958696Y-88739663D01*
X137935605Y-88787161D01*
X137918448Y-88860598D01*
X137906196Y-88965587D01*
X137897821Y-89107741D01*
X137892293Y-89292673D01*
X137888582Y-89525997D01*
X137885659Y-89813324D01*
X137883563Y-90046175D01*
X137880298Y-90376318D01*
X137876654Y-90648986D01*
X137871949Y-90870203D01*
X137865498Y-91045993D01*
X137856618Y-91182381D01*
X137844627Y-91285389D01*
X137828841Y-91361043D01*
X137808578Y-91415366D01*
X137783153Y-91454383D01*
X137751884Y-91484117D01*
X137717762Y-91508194D01*
X137665077Y-91537674D01*
X137618042Y-91541745D01*
X137552562Y-91518758D01*
X137498281Y-91493174D01*
X137371581Y-91451713D01*
X137267762Y-91456951D01*
X137196696Y-91507478D01*
X137180206Y-91538589D01*
X137162676Y-91630187D01*
X137162902Y-91742609D01*
X137179726Y-91841770D01*
X137191507Y-91871344D01*
X137254031Y-91929107D01*
X137363295Y-91973793D01*
X137503293Y-92002061D01*
X137658015Y-92010568D01*
X137799075Y-91998159D01*
X137901359Y-91976280D01*
X137984695Y-91950534D01*
X138005450Y-91941216D01*
X138124518Y-91845987D01*
X138230648Y-91702311D01*
X138308625Y-91536318D01*
X138326042Y-91485452D01*
X138340356Y-91433493D01*
X138351961Y-91373618D01*
X138361251Y-91299005D01*
X138368620Y-91202831D01*
X138374462Y-91078273D01*
X138379170Y-90918510D01*
X138383140Y-90716717D01*
X138386764Y-90466074D01*
X138390437Y-90159758D01*
X138391004Y-90109675D01*
X138394469Y-89796917D01*
X138396945Y-89541370D01*
X138398171Y-89336747D01*
X138397884Y-89176761D01*
X138395822Y-89055128D01*
X138391724Y-88965561D01*
X138385329Y-88901775D01*
X138376373Y-88857482D01*
X138364596Y-88826399D01*
X138349736Y-88802238D01*
X138335804Y-88784112D01*
X138274516Y-88724824D01*
X138199092Y-88700167D01*
X138130992Y-88696800D01*
X138073870Y-88696672D01*
X138026799Y-88700031D01*
G36*
X142780430Y-90133950D02*
G01*
X142682192Y-90606776D01*
X142546539Y-91028300D01*
X142373466Y-91398528D01*
X142162972Y-91717465D01*
X141927829Y-91973422D01*
X141674101Y-92168086D01*
X141396774Y-92304667D01*
X141093974Y-92383781D01*
X140763827Y-92406044D01*
X140630424Y-92399697D01*
X140301959Y-92347947D01*
X139997456Y-92243257D01*
X139710357Y-92082458D01*
X139434108Y-91862379D01*
X139347166Y-91779151D01*
X139243062Y-91667635D01*
X139129981Y-91533716D01*
X139017619Y-91390368D01*
X138915673Y-91250561D01*
X138833839Y-91127269D01*
X138781815Y-91033464D01*
X138772607Y-91010495D01*
X138738034Y-90999420D01*
X138656296Y-91028588D01*
X138627964Y-91042492D01*
X138568791Y-91073371D01*
X138531779Y-91101832D01*
X138517918Y-91138629D01*
X138528195Y-91194517D01*
X138563600Y-91280251D01*
X138625121Y-91406584D01*
X138669616Y-91495603D01*
X138850226Y-91815972D01*
X139064716Y-92127509D01*
X139303042Y-92418539D01*
X139555159Y-92677389D01*
X139811024Y-92892385D01*
X139957802Y-92992773D01*
X140319508Y-93182089D01*
X140696371Y-93310539D01*
X141084972Y-93377393D01*
X141481887Y-93381921D01*
X141682876Y-93360515D01*
X142030461Y-93278538D01*
X142355368Y-93137318D01*
X142657198Y-92937075D01*
X142935554Y-92678029D01*
X142953470Y-92658450D01*
X143221257Y-92317090D01*
X143434917Y-91943512D01*
X143594851Y-91536806D01*
X143701457Y-91096062D01*
X143731900Y-90888382D01*
X143752676Y-90712732D01*
X143763028Y-90587756D01*
X143758436Y-90500906D01*
X143734380Y-90439630D01*
X143686337Y-90391379D01*
X143609787Y-90343602D01*
X143517492Y-90293208D01*
X143366521Y-90210407D01*
X143200370Y-90118585D01*
X143053328Y-90036693D01*
X143044479Y-90031733D01*
X142817082Y-89904226D01*
X142780430Y-90133950D01*
G37*
X142780430Y-90133950D02*
X142682192Y-90606776D01*
X142546539Y-91028300D01*
X142373466Y-91398528D01*
X142162972Y-91717465D01*
X141927829Y-91973422D01*
X141674101Y-92168086D01*
X141396774Y-92304667D01*
X141093974Y-92383781D01*
X140763827Y-92406044D01*
X140630424Y-92399697D01*
X140301959Y-92347947D01*
X139997456Y-92243257D01*
X139710357Y-92082458D01*
X139434108Y-91862379D01*
X139347166Y-91779151D01*
X139243062Y-91667635D01*
X139129981Y-91533716D01*
X139017619Y-91390368D01*
X138915673Y-91250561D01*
X138833839Y-91127269D01*
X138781815Y-91033464D01*
X138772607Y-91010495D01*
X138738034Y-90999420D01*
X138656296Y-91028588D01*
X138627964Y-91042492D01*
X138568791Y-91073371D01*
X138531779Y-91101832D01*
X138517918Y-91138629D01*
X138528195Y-91194517D01*
X138563600Y-91280251D01*
X138625121Y-91406584D01*
X138669616Y-91495603D01*
X138850226Y-91815972D01*
X139064716Y-92127509D01*
X139303042Y-92418539D01*
X139555159Y-92677389D01*
X139811024Y-92892385D01*
X139957802Y-92992773D01*
X140319508Y-93182089D01*
X140696371Y-93310539D01*
X141084972Y-93377393D01*
X141481887Y-93381921D01*
X141682876Y-93360515D01*
X142030461Y-93278538D01*
X142355368Y-93137318D01*
X142657198Y-92937075D01*
X142935554Y-92678029D01*
X142953470Y-92658450D01*
X143221257Y-92317090D01*
X143434917Y-91943512D01*
X143594851Y-91536806D01*
X143701457Y-91096062D01*
X143731900Y-90888382D01*
X143752676Y-90712732D01*
X143763028Y-90587756D01*
X143758436Y-90500906D01*
X143734380Y-90439630D01*
X143686337Y-90391379D01*
X143609787Y-90343602D01*
X143517492Y-90293208D01*
X143366521Y-90210407D01*
X143200370Y-90118585D01*
X143053328Y-90036693D01*
X143044479Y-90031733D01*
X142817082Y-89904226D01*
X142780430Y-90133950D01*
M02*
