G04 #@! TF.GenerationSoftware,KiCad,Pcbnew,5.1.5-52549c5~86~ubuntu16.04.1*
G04 #@! TF.CreationDate,2020-07-28T22:18:50+05:30*
G04 #@! TF.ProjectId,IRF520_MOSFET_Driver_V1.0,49524635-3230-45f4-9d4f-534645545f44,v1.0*
G04 #@! TF.SameCoordinates,Original*
G04 #@! TF.FileFunction,Paste,Top*
G04 #@! TF.FilePolarity,Positive*
%FSLAX46Y46*%
G04 Gerber Fmt 4.6, Leading zero omitted, Abs format (unit mm)*
G04 Created by KiCad (PCBNEW 5.1.5-52549c5~86~ubuntu16.04.1) date 2020-07-28 22:18:50*
%MOMM*%
%LPD*%
G04 APERTURE LIST*
%ADD10C,0.100000*%
G04 APERTURE END LIST*
D10*
G36*
X139674505Y-77141204D02*
G01*
X139698773Y-77144804D01*
X139722572Y-77150765D01*
X139745671Y-77159030D01*
X139767850Y-77169520D01*
X139788893Y-77182132D01*
X139808599Y-77196747D01*
X139826777Y-77213223D01*
X139843253Y-77231401D01*
X139857868Y-77251107D01*
X139870480Y-77272150D01*
X139880970Y-77294329D01*
X139889235Y-77317428D01*
X139895196Y-77341227D01*
X139898796Y-77365495D01*
X139900000Y-77389999D01*
X139900000Y-78040001D01*
X139898796Y-78064505D01*
X139895196Y-78088773D01*
X139889235Y-78112572D01*
X139880970Y-78135671D01*
X139870480Y-78157850D01*
X139857868Y-78178893D01*
X139843253Y-78198599D01*
X139826777Y-78216777D01*
X139808599Y-78233253D01*
X139788893Y-78247868D01*
X139767850Y-78260480D01*
X139745671Y-78270970D01*
X139722572Y-78279235D01*
X139698773Y-78285196D01*
X139674505Y-78288796D01*
X139650001Y-78290000D01*
X138749999Y-78290000D01*
X138725495Y-78288796D01*
X138701227Y-78285196D01*
X138677428Y-78279235D01*
X138654329Y-78270970D01*
X138632150Y-78260480D01*
X138611107Y-78247868D01*
X138591401Y-78233253D01*
X138573223Y-78216777D01*
X138556747Y-78198599D01*
X138542132Y-78178893D01*
X138529520Y-78157850D01*
X138519030Y-78135671D01*
X138510765Y-78112572D01*
X138504804Y-78088773D01*
X138501204Y-78064505D01*
X138500000Y-78040001D01*
X138500000Y-77389999D01*
X138501204Y-77365495D01*
X138504804Y-77341227D01*
X138510765Y-77317428D01*
X138519030Y-77294329D01*
X138529520Y-77272150D01*
X138542132Y-77251107D01*
X138556747Y-77231401D01*
X138573223Y-77213223D01*
X138591401Y-77196747D01*
X138611107Y-77182132D01*
X138632150Y-77169520D01*
X138654329Y-77159030D01*
X138677428Y-77150765D01*
X138701227Y-77144804D01*
X138725495Y-77141204D01*
X138749999Y-77140000D01*
X139650001Y-77140000D01*
X139674505Y-77141204D01*
G37*
G36*
X139674505Y-79191204D02*
G01*
X139698773Y-79194804D01*
X139722572Y-79200765D01*
X139745671Y-79209030D01*
X139767850Y-79219520D01*
X139788893Y-79232132D01*
X139808599Y-79246747D01*
X139826777Y-79263223D01*
X139843253Y-79281401D01*
X139857868Y-79301107D01*
X139870480Y-79322150D01*
X139880970Y-79344329D01*
X139889235Y-79367428D01*
X139895196Y-79391227D01*
X139898796Y-79415495D01*
X139900000Y-79439999D01*
X139900000Y-80090001D01*
X139898796Y-80114505D01*
X139895196Y-80138773D01*
X139889235Y-80162572D01*
X139880970Y-80185671D01*
X139870480Y-80207850D01*
X139857868Y-80228893D01*
X139843253Y-80248599D01*
X139826777Y-80266777D01*
X139808599Y-80283253D01*
X139788893Y-80297868D01*
X139767850Y-80310480D01*
X139745671Y-80320970D01*
X139722572Y-80329235D01*
X139698773Y-80335196D01*
X139674505Y-80338796D01*
X139650001Y-80340000D01*
X138749999Y-80340000D01*
X138725495Y-80338796D01*
X138701227Y-80335196D01*
X138677428Y-80329235D01*
X138654329Y-80320970D01*
X138632150Y-80310480D01*
X138611107Y-80297868D01*
X138591401Y-80283253D01*
X138573223Y-80266777D01*
X138556747Y-80248599D01*
X138542132Y-80228893D01*
X138529520Y-80207850D01*
X138519030Y-80185671D01*
X138510765Y-80162572D01*
X138504804Y-80138773D01*
X138501204Y-80114505D01*
X138500000Y-80090001D01*
X138500000Y-79439999D01*
X138501204Y-79415495D01*
X138504804Y-79391227D01*
X138510765Y-79367428D01*
X138519030Y-79344329D01*
X138529520Y-79322150D01*
X138542132Y-79301107D01*
X138556747Y-79281401D01*
X138573223Y-79263223D01*
X138591401Y-79246747D01*
X138611107Y-79232132D01*
X138632150Y-79219520D01*
X138654329Y-79209030D01*
X138677428Y-79200765D01*
X138701227Y-79194804D01*
X138725495Y-79191204D01*
X138749999Y-79190000D01*
X139650001Y-79190000D01*
X139674505Y-79191204D01*
G37*
G36*
X136474505Y-79191204D02*
G01*
X136498773Y-79194804D01*
X136522572Y-79200765D01*
X136545671Y-79209030D01*
X136567850Y-79219520D01*
X136588893Y-79232132D01*
X136608599Y-79246747D01*
X136626777Y-79263223D01*
X136643253Y-79281401D01*
X136657868Y-79301107D01*
X136670480Y-79322150D01*
X136680970Y-79344329D01*
X136689235Y-79367428D01*
X136695196Y-79391227D01*
X136698796Y-79415495D01*
X136700000Y-79439999D01*
X136700000Y-80090001D01*
X136698796Y-80114505D01*
X136695196Y-80138773D01*
X136689235Y-80162572D01*
X136680970Y-80185671D01*
X136670480Y-80207850D01*
X136657868Y-80228893D01*
X136643253Y-80248599D01*
X136626777Y-80266777D01*
X136608599Y-80283253D01*
X136588893Y-80297868D01*
X136567850Y-80310480D01*
X136545671Y-80320970D01*
X136522572Y-80329235D01*
X136498773Y-80335196D01*
X136474505Y-80338796D01*
X136450001Y-80340000D01*
X135549999Y-80340000D01*
X135525495Y-80338796D01*
X135501227Y-80335196D01*
X135477428Y-80329235D01*
X135454329Y-80320970D01*
X135432150Y-80310480D01*
X135411107Y-80297868D01*
X135391401Y-80283253D01*
X135373223Y-80266777D01*
X135356747Y-80248599D01*
X135342132Y-80228893D01*
X135329520Y-80207850D01*
X135319030Y-80185671D01*
X135310765Y-80162572D01*
X135304804Y-80138773D01*
X135301204Y-80114505D01*
X135300000Y-80090001D01*
X135300000Y-79439999D01*
X135301204Y-79415495D01*
X135304804Y-79391227D01*
X135310765Y-79367428D01*
X135319030Y-79344329D01*
X135329520Y-79322150D01*
X135342132Y-79301107D01*
X135356747Y-79281401D01*
X135373223Y-79263223D01*
X135391401Y-79246747D01*
X135411107Y-79232132D01*
X135432150Y-79219520D01*
X135454329Y-79209030D01*
X135477428Y-79200765D01*
X135501227Y-79194804D01*
X135525495Y-79191204D01*
X135549999Y-79190000D01*
X136450001Y-79190000D01*
X136474505Y-79191204D01*
G37*
G36*
X136474505Y-77141204D02*
G01*
X136498773Y-77144804D01*
X136522572Y-77150765D01*
X136545671Y-77159030D01*
X136567850Y-77169520D01*
X136588893Y-77182132D01*
X136608599Y-77196747D01*
X136626777Y-77213223D01*
X136643253Y-77231401D01*
X136657868Y-77251107D01*
X136670480Y-77272150D01*
X136680970Y-77294329D01*
X136689235Y-77317428D01*
X136695196Y-77341227D01*
X136698796Y-77365495D01*
X136700000Y-77389999D01*
X136700000Y-78040001D01*
X136698796Y-78064505D01*
X136695196Y-78088773D01*
X136689235Y-78112572D01*
X136680970Y-78135671D01*
X136670480Y-78157850D01*
X136657868Y-78178893D01*
X136643253Y-78198599D01*
X136626777Y-78216777D01*
X136608599Y-78233253D01*
X136588893Y-78247868D01*
X136567850Y-78260480D01*
X136545671Y-78270970D01*
X136522572Y-78279235D01*
X136498773Y-78285196D01*
X136474505Y-78288796D01*
X136450001Y-78290000D01*
X135549999Y-78290000D01*
X135525495Y-78288796D01*
X135501227Y-78285196D01*
X135477428Y-78279235D01*
X135454329Y-78270970D01*
X135432150Y-78260480D01*
X135411107Y-78247868D01*
X135391401Y-78233253D01*
X135373223Y-78216777D01*
X135356747Y-78198599D01*
X135342132Y-78178893D01*
X135329520Y-78157850D01*
X135319030Y-78135671D01*
X135310765Y-78112572D01*
X135304804Y-78088773D01*
X135301204Y-78064505D01*
X135300000Y-78040001D01*
X135300000Y-77389999D01*
X135301204Y-77365495D01*
X135304804Y-77341227D01*
X135310765Y-77317428D01*
X135319030Y-77294329D01*
X135329520Y-77272150D01*
X135342132Y-77251107D01*
X135356747Y-77231401D01*
X135373223Y-77213223D01*
X135391401Y-77196747D01*
X135411107Y-77182132D01*
X135432150Y-77169520D01*
X135454329Y-77159030D01*
X135477428Y-77150765D01*
X135501227Y-77144804D01*
X135525495Y-77141204D01*
X135549999Y-77140000D01*
X136450001Y-77140000D01*
X136474505Y-77141204D01*
G37*
G36*
X142714505Y-79191204D02*
G01*
X142738773Y-79194804D01*
X142762572Y-79200765D01*
X142785671Y-79209030D01*
X142807850Y-79219520D01*
X142828893Y-79232132D01*
X142848599Y-79246747D01*
X142866777Y-79263223D01*
X142883253Y-79281401D01*
X142897868Y-79301107D01*
X142910480Y-79322150D01*
X142920970Y-79344329D01*
X142929235Y-79367428D01*
X142935196Y-79391227D01*
X142938796Y-79415495D01*
X142940000Y-79439999D01*
X142940000Y-80090001D01*
X142938796Y-80114505D01*
X142935196Y-80138773D01*
X142929235Y-80162572D01*
X142920970Y-80185671D01*
X142910480Y-80207850D01*
X142897868Y-80228893D01*
X142883253Y-80248599D01*
X142866777Y-80266777D01*
X142848599Y-80283253D01*
X142828893Y-80297868D01*
X142807850Y-80310480D01*
X142785671Y-80320970D01*
X142762572Y-80329235D01*
X142738773Y-80335196D01*
X142714505Y-80338796D01*
X142690001Y-80340000D01*
X141789999Y-80340000D01*
X141765495Y-80338796D01*
X141741227Y-80335196D01*
X141717428Y-80329235D01*
X141694329Y-80320970D01*
X141672150Y-80310480D01*
X141651107Y-80297868D01*
X141631401Y-80283253D01*
X141613223Y-80266777D01*
X141596747Y-80248599D01*
X141582132Y-80228893D01*
X141569520Y-80207850D01*
X141559030Y-80185671D01*
X141550765Y-80162572D01*
X141544804Y-80138773D01*
X141541204Y-80114505D01*
X141540000Y-80090001D01*
X141540000Y-79439999D01*
X141541204Y-79415495D01*
X141544804Y-79391227D01*
X141550765Y-79367428D01*
X141559030Y-79344329D01*
X141569520Y-79322150D01*
X141582132Y-79301107D01*
X141596747Y-79281401D01*
X141613223Y-79263223D01*
X141631401Y-79246747D01*
X141651107Y-79232132D01*
X141672150Y-79219520D01*
X141694329Y-79209030D01*
X141717428Y-79200765D01*
X141741227Y-79194804D01*
X141765495Y-79191204D01*
X141789999Y-79190000D01*
X142690001Y-79190000D01*
X142714505Y-79191204D01*
G37*
G36*
X142714505Y-77141204D02*
G01*
X142738773Y-77144804D01*
X142762572Y-77150765D01*
X142785671Y-77159030D01*
X142807850Y-77169520D01*
X142828893Y-77182132D01*
X142848599Y-77196747D01*
X142866777Y-77213223D01*
X142883253Y-77231401D01*
X142897868Y-77251107D01*
X142910480Y-77272150D01*
X142920970Y-77294329D01*
X142929235Y-77317428D01*
X142935196Y-77341227D01*
X142938796Y-77365495D01*
X142940000Y-77389999D01*
X142940000Y-78040001D01*
X142938796Y-78064505D01*
X142935196Y-78088773D01*
X142929235Y-78112572D01*
X142920970Y-78135671D01*
X142910480Y-78157850D01*
X142897868Y-78178893D01*
X142883253Y-78198599D01*
X142866777Y-78216777D01*
X142848599Y-78233253D01*
X142828893Y-78247868D01*
X142807850Y-78260480D01*
X142785671Y-78270970D01*
X142762572Y-78279235D01*
X142738773Y-78285196D01*
X142714505Y-78288796D01*
X142690001Y-78290000D01*
X141789999Y-78290000D01*
X141765495Y-78288796D01*
X141741227Y-78285196D01*
X141717428Y-78279235D01*
X141694329Y-78270970D01*
X141672150Y-78260480D01*
X141651107Y-78247868D01*
X141631401Y-78233253D01*
X141613223Y-78216777D01*
X141596747Y-78198599D01*
X141582132Y-78178893D01*
X141569520Y-78157850D01*
X141559030Y-78135671D01*
X141550765Y-78112572D01*
X141544804Y-78088773D01*
X141541204Y-78064505D01*
X141540000Y-78040001D01*
X141540000Y-77389999D01*
X141541204Y-77365495D01*
X141544804Y-77341227D01*
X141550765Y-77317428D01*
X141559030Y-77294329D01*
X141569520Y-77272150D01*
X141582132Y-77251107D01*
X141596747Y-77231401D01*
X141613223Y-77213223D01*
X141631401Y-77196747D01*
X141651107Y-77182132D01*
X141672150Y-77169520D01*
X141694329Y-77159030D01*
X141717428Y-77150765D01*
X141741227Y-77144804D01*
X141765495Y-77141204D01*
X141789999Y-77140000D01*
X142690001Y-77140000D01*
X142714505Y-77141204D01*
G37*
M02*
