G04 #@! TF.GenerationSoftware,KiCad,Pcbnew,5.1.5-52549c5~86~ubuntu16.04.1*
G04 #@! TF.CreationDate,2020-07-28T22:18:50+05:30*
G04 #@! TF.ProjectId,IRF520_MOSFET_Driver_V1.0,49524635-3230-45f4-9d4f-534645545f44,v1.0*
G04 #@! TF.SameCoordinates,Original*
G04 #@! TF.FileFunction,Soldermask,Top*
G04 #@! TF.FilePolarity,Negative*
%FSLAX46Y46*%
G04 Gerber Fmt 4.6, Leading zero omitted, Abs format (unit mm)*
G04 Created by KiCad (PCBNEW 5.1.5-52549c5~86~ubuntu16.04.1) date 2020-07-28 22:18:50*
%MOMM*%
%LPD*%
G04 APERTURE LIST*
%ADD10C,0.100000*%
G04 APERTURE END LIST*
D10*
G36*
X139813512Y-85463927D02*
G01*
X139962812Y-85493624D01*
X140126784Y-85561544D01*
X140274354Y-85660147D01*
X140399853Y-85785646D01*
X140498456Y-85933216D01*
X140566376Y-86097188D01*
X140601000Y-86271259D01*
X140601000Y-86448741D01*
X140566376Y-86622812D01*
X140498456Y-86786784D01*
X140399853Y-86934354D01*
X140274354Y-87059853D01*
X140126784Y-87158456D01*
X139962812Y-87226376D01*
X139813512Y-87256073D01*
X139788742Y-87261000D01*
X139611258Y-87261000D01*
X139586488Y-87256073D01*
X139437188Y-87226376D01*
X139273216Y-87158456D01*
X139125646Y-87059853D01*
X139000147Y-86934354D01*
X138901544Y-86786784D01*
X138833624Y-86622812D01*
X138799000Y-86448741D01*
X138799000Y-86271259D01*
X138833624Y-86097188D01*
X138901544Y-85933216D01*
X139000147Y-85785646D01*
X139125646Y-85660147D01*
X139273216Y-85561544D01*
X139437188Y-85493624D01*
X139586488Y-85463927D01*
X139611258Y-85459000D01*
X139788742Y-85459000D01*
X139813512Y-85463927D01*
G37*
G36*
X142353512Y-85463927D02*
G01*
X142502812Y-85493624D01*
X142666784Y-85561544D01*
X142814354Y-85660147D01*
X142939853Y-85785646D01*
X143038456Y-85933216D01*
X143106376Y-86097188D01*
X143141000Y-86271259D01*
X143141000Y-86448741D01*
X143106376Y-86622812D01*
X143038456Y-86786784D01*
X142939853Y-86934354D01*
X142814354Y-87059853D01*
X142666784Y-87158456D01*
X142502812Y-87226376D01*
X142353512Y-87256073D01*
X142328742Y-87261000D01*
X142151258Y-87261000D01*
X142126488Y-87256073D01*
X141977188Y-87226376D01*
X141813216Y-87158456D01*
X141665646Y-87059853D01*
X141540147Y-86934354D01*
X141441544Y-86786784D01*
X141373624Y-86622812D01*
X141339000Y-86448741D01*
X141339000Y-86271259D01*
X141373624Y-86097188D01*
X141441544Y-85933216D01*
X141540147Y-85785646D01*
X141665646Y-85660147D01*
X141813216Y-85561544D01*
X141977188Y-85493624D01*
X142126488Y-85463927D01*
X142151258Y-85459000D01*
X142328742Y-85459000D01*
X142353512Y-85463927D01*
G37*
G36*
X138061000Y-87261000D02*
G01*
X136259000Y-87261000D01*
X136259000Y-85459000D01*
X138061000Y-85459000D01*
X138061000Y-87261000D01*
G37*
G36*
X125511000Y-81823000D02*
G01*
X123409000Y-81823000D01*
X123409000Y-79721000D01*
X125511000Y-79721000D01*
X125511000Y-81823000D01*
G37*
G36*
X127306564Y-79761389D02*
G01*
X127497833Y-79840615D01*
X127497835Y-79840616D01*
X127669973Y-79955635D01*
X127816365Y-80102027D01*
X127926174Y-80266367D01*
X127931385Y-80274167D01*
X128010611Y-80465436D01*
X128051000Y-80668484D01*
X128051000Y-80875516D01*
X128010611Y-81078564D01*
X127931385Y-81269833D01*
X127931384Y-81269835D01*
X127816365Y-81441973D01*
X127669973Y-81588365D01*
X127497835Y-81703384D01*
X127497834Y-81703385D01*
X127497833Y-81703385D01*
X127306564Y-81782611D01*
X127103516Y-81823000D01*
X126896484Y-81823000D01*
X126693436Y-81782611D01*
X126502167Y-81703385D01*
X126502166Y-81703385D01*
X126502165Y-81703384D01*
X126330027Y-81588365D01*
X126183635Y-81441973D01*
X126068616Y-81269835D01*
X126068615Y-81269833D01*
X125989389Y-81078564D01*
X125949000Y-80875516D01*
X125949000Y-80668484D01*
X125989389Y-80465436D01*
X126068615Y-80274167D01*
X126073827Y-80266367D01*
X126183635Y-80102027D01*
X126330027Y-79955635D01*
X126502165Y-79840616D01*
X126502167Y-79840615D01*
X126693436Y-79761389D01*
X126896484Y-79721000D01*
X127103516Y-79721000D01*
X127306564Y-79761389D01*
G37*
G36*
X129846564Y-79761389D02*
G01*
X130037833Y-79840615D01*
X130037835Y-79840616D01*
X130209973Y-79955635D01*
X130356365Y-80102027D01*
X130466174Y-80266367D01*
X130471385Y-80274167D01*
X130550611Y-80465436D01*
X130591000Y-80668484D01*
X130591000Y-80875516D01*
X130550611Y-81078564D01*
X130471385Y-81269833D01*
X130471384Y-81269835D01*
X130356365Y-81441973D01*
X130209973Y-81588365D01*
X130037835Y-81703384D01*
X130037834Y-81703385D01*
X130037833Y-81703385D01*
X129846564Y-81782611D01*
X129643516Y-81823000D01*
X129436484Y-81823000D01*
X129233436Y-81782611D01*
X129042167Y-81703385D01*
X129042166Y-81703385D01*
X129042165Y-81703384D01*
X128870027Y-81588365D01*
X128723635Y-81441973D01*
X128608616Y-81269835D01*
X128608615Y-81269833D01*
X128529389Y-81078564D01*
X128489000Y-80875516D01*
X128489000Y-80668484D01*
X128529389Y-80465436D01*
X128608615Y-80274167D01*
X128613827Y-80266367D01*
X128723635Y-80102027D01*
X128870027Y-79955635D01*
X129042165Y-79840616D01*
X129042167Y-79840615D01*
X129233436Y-79761389D01*
X129436484Y-79721000D01*
X129643516Y-79721000D01*
X129846564Y-79761389D01*
G37*
G36*
X142828674Y-79143465D02*
G01*
X142866367Y-79154899D01*
X142901103Y-79173466D01*
X142931548Y-79198452D01*
X142956534Y-79228897D01*
X142975101Y-79263633D01*
X142986535Y-79301326D01*
X142991000Y-79346661D01*
X142991000Y-80183339D01*
X142986535Y-80228674D01*
X142975101Y-80266367D01*
X142956534Y-80301103D01*
X142931548Y-80331548D01*
X142901103Y-80356534D01*
X142866367Y-80375101D01*
X142828674Y-80386535D01*
X142783339Y-80391000D01*
X141696661Y-80391000D01*
X141651326Y-80386535D01*
X141613633Y-80375101D01*
X141578897Y-80356534D01*
X141548452Y-80331548D01*
X141523466Y-80301103D01*
X141504899Y-80266367D01*
X141493465Y-80228674D01*
X141489000Y-80183339D01*
X141489000Y-79346661D01*
X141493465Y-79301326D01*
X141504899Y-79263633D01*
X141523466Y-79228897D01*
X141548452Y-79198452D01*
X141578897Y-79173466D01*
X141613633Y-79154899D01*
X141651326Y-79143465D01*
X141696661Y-79139000D01*
X142783339Y-79139000D01*
X142828674Y-79143465D01*
G37*
G36*
X139788674Y-79143465D02*
G01*
X139826367Y-79154899D01*
X139861103Y-79173466D01*
X139891548Y-79198452D01*
X139916534Y-79228897D01*
X139935101Y-79263633D01*
X139946535Y-79301326D01*
X139951000Y-79346661D01*
X139951000Y-80183339D01*
X139946535Y-80228674D01*
X139935101Y-80266367D01*
X139916534Y-80301103D01*
X139891548Y-80331548D01*
X139861103Y-80356534D01*
X139826367Y-80375101D01*
X139788674Y-80386535D01*
X139743339Y-80391000D01*
X138656661Y-80391000D01*
X138611326Y-80386535D01*
X138573633Y-80375101D01*
X138538897Y-80356534D01*
X138508452Y-80331548D01*
X138483466Y-80301103D01*
X138464899Y-80266367D01*
X138453465Y-80228674D01*
X138449000Y-80183339D01*
X138449000Y-79346661D01*
X138453465Y-79301326D01*
X138464899Y-79263633D01*
X138483466Y-79228897D01*
X138508452Y-79198452D01*
X138538897Y-79173466D01*
X138573633Y-79154899D01*
X138611326Y-79143465D01*
X138656661Y-79139000D01*
X139743339Y-79139000D01*
X139788674Y-79143465D01*
G37*
G36*
X136588674Y-79143465D02*
G01*
X136626367Y-79154899D01*
X136661103Y-79173466D01*
X136691548Y-79198452D01*
X136716534Y-79228897D01*
X136735101Y-79263633D01*
X136746535Y-79301326D01*
X136751000Y-79346661D01*
X136751000Y-80183339D01*
X136746535Y-80228674D01*
X136735101Y-80266367D01*
X136716534Y-80301103D01*
X136691548Y-80331548D01*
X136661103Y-80356534D01*
X136626367Y-80375101D01*
X136588674Y-80386535D01*
X136543339Y-80391000D01*
X135456661Y-80391000D01*
X135411326Y-80386535D01*
X135373633Y-80375101D01*
X135338897Y-80356534D01*
X135308452Y-80331548D01*
X135283466Y-80301103D01*
X135264899Y-80266367D01*
X135253465Y-80228674D01*
X135249000Y-80183339D01*
X135249000Y-79346661D01*
X135253465Y-79301326D01*
X135264899Y-79263633D01*
X135283466Y-79228897D01*
X135308452Y-79198452D01*
X135338897Y-79173466D01*
X135373633Y-79154899D01*
X135411326Y-79143465D01*
X135456661Y-79139000D01*
X136543339Y-79139000D01*
X136588674Y-79143465D01*
G37*
G36*
X136588674Y-77093465D02*
G01*
X136626367Y-77104899D01*
X136661103Y-77123466D01*
X136691548Y-77148452D01*
X136716534Y-77178897D01*
X136735101Y-77213633D01*
X136746535Y-77251326D01*
X136751000Y-77296661D01*
X136751000Y-78133339D01*
X136746535Y-78178674D01*
X136735101Y-78216367D01*
X136716534Y-78251103D01*
X136691548Y-78281548D01*
X136661103Y-78306534D01*
X136626367Y-78325101D01*
X136588674Y-78336535D01*
X136543339Y-78341000D01*
X135456661Y-78341000D01*
X135411326Y-78336535D01*
X135373633Y-78325101D01*
X135338897Y-78306534D01*
X135308452Y-78281548D01*
X135283466Y-78251103D01*
X135264899Y-78216367D01*
X135253465Y-78178674D01*
X135249000Y-78133339D01*
X135249000Y-77296661D01*
X135253465Y-77251326D01*
X135264899Y-77213633D01*
X135283466Y-77178897D01*
X135308452Y-77148452D01*
X135338897Y-77123466D01*
X135373633Y-77104899D01*
X135411326Y-77093465D01*
X135456661Y-77089000D01*
X136543339Y-77089000D01*
X136588674Y-77093465D01*
G37*
G36*
X139788674Y-77093465D02*
G01*
X139826367Y-77104899D01*
X139861103Y-77123466D01*
X139891548Y-77148452D01*
X139916534Y-77178897D01*
X139935101Y-77213633D01*
X139946535Y-77251326D01*
X139951000Y-77296661D01*
X139951000Y-78133339D01*
X139946535Y-78178674D01*
X139935101Y-78216367D01*
X139916534Y-78251103D01*
X139891548Y-78281548D01*
X139861103Y-78306534D01*
X139826367Y-78325101D01*
X139788674Y-78336535D01*
X139743339Y-78341000D01*
X138656661Y-78341000D01*
X138611326Y-78336535D01*
X138573633Y-78325101D01*
X138538897Y-78306534D01*
X138508452Y-78281548D01*
X138483466Y-78251103D01*
X138464899Y-78216367D01*
X138453465Y-78178674D01*
X138449000Y-78133339D01*
X138449000Y-77296661D01*
X138453465Y-77251326D01*
X138464899Y-77213633D01*
X138483466Y-77178897D01*
X138508452Y-77148452D01*
X138538897Y-77123466D01*
X138573633Y-77104899D01*
X138611326Y-77093465D01*
X138656661Y-77089000D01*
X139743339Y-77089000D01*
X139788674Y-77093465D01*
G37*
G36*
X142828674Y-77093465D02*
G01*
X142866367Y-77104899D01*
X142901103Y-77123466D01*
X142931548Y-77148452D01*
X142956534Y-77178897D01*
X142975101Y-77213633D01*
X142986535Y-77251326D01*
X142991000Y-77296661D01*
X142991000Y-78133339D01*
X142986535Y-78178674D01*
X142975101Y-78216367D01*
X142956534Y-78251103D01*
X142931548Y-78281548D01*
X142901103Y-78306534D01*
X142866367Y-78325101D01*
X142828674Y-78336535D01*
X142783339Y-78341000D01*
X141696661Y-78341000D01*
X141651326Y-78336535D01*
X141613633Y-78325101D01*
X141578897Y-78306534D01*
X141548452Y-78281548D01*
X141523466Y-78251103D01*
X141504899Y-78216367D01*
X141493465Y-78178674D01*
X141489000Y-78133339D01*
X141489000Y-77296661D01*
X141493465Y-77251326D01*
X141504899Y-77213633D01*
X141523466Y-77178897D01*
X141548452Y-77148452D01*
X141578897Y-77123466D01*
X141613633Y-77104899D01*
X141651326Y-77093465D01*
X141696661Y-77089000D01*
X142783339Y-77089000D01*
X142828674Y-77093465D01*
G37*
G36*
X136748318Y-68695153D02*
G01*
X136966885Y-68785687D01*
X136966887Y-68785688D01*
X137163593Y-68917122D01*
X137330878Y-69084407D01*
X137462312Y-69281113D01*
X137462313Y-69281115D01*
X137552847Y-69499682D01*
X137599000Y-69731710D01*
X137599000Y-69968290D01*
X137552847Y-70200318D01*
X137462313Y-70418885D01*
X137462312Y-70418887D01*
X137330878Y-70615593D01*
X137163593Y-70782878D01*
X136966887Y-70914312D01*
X136966886Y-70914313D01*
X136966885Y-70914313D01*
X136748318Y-71004847D01*
X136516290Y-71051000D01*
X136279710Y-71051000D01*
X136047682Y-71004847D01*
X135829115Y-70914313D01*
X135829114Y-70914313D01*
X135829113Y-70914312D01*
X135632407Y-70782878D01*
X135465122Y-70615593D01*
X135333688Y-70418887D01*
X135333687Y-70418885D01*
X135243153Y-70200318D01*
X135197000Y-69968290D01*
X135197000Y-69731710D01*
X135243153Y-69499682D01*
X135333687Y-69281115D01*
X135333688Y-69281113D01*
X135465122Y-69084407D01*
X135632407Y-68917122D01*
X135829113Y-68785688D01*
X135829115Y-68785687D01*
X136047682Y-68695153D01*
X136279710Y-68649000D01*
X136516290Y-68649000D01*
X136748318Y-68695153D01*
G37*
G36*
X124048318Y-68695153D02*
G01*
X124266885Y-68785687D01*
X124266887Y-68785688D01*
X124463593Y-68917122D01*
X124630878Y-69084407D01*
X124762312Y-69281113D01*
X124762313Y-69281115D01*
X124852847Y-69499682D01*
X124899000Y-69731710D01*
X124899000Y-69968290D01*
X124852847Y-70200318D01*
X124762313Y-70418885D01*
X124762312Y-70418887D01*
X124630878Y-70615593D01*
X124463593Y-70782878D01*
X124266887Y-70914312D01*
X124266886Y-70914313D01*
X124266885Y-70914313D01*
X124048318Y-71004847D01*
X123816290Y-71051000D01*
X123579710Y-71051000D01*
X123347682Y-71004847D01*
X123129115Y-70914313D01*
X123129114Y-70914313D01*
X123129113Y-70914312D01*
X122932407Y-70782878D01*
X122765122Y-70615593D01*
X122633688Y-70418887D01*
X122633687Y-70418885D01*
X122543153Y-70200318D01*
X122497000Y-69968290D01*
X122497000Y-69731710D01*
X122543153Y-69499682D01*
X122633687Y-69281115D01*
X122633688Y-69281113D01*
X122765122Y-69084407D01*
X122932407Y-68917122D01*
X123129113Y-68785688D01*
X123129115Y-68785687D01*
X123347682Y-68695153D01*
X123579710Y-68649000D01*
X123816290Y-68649000D01*
X124048318Y-68695153D01*
G37*
G36*
X142629000Y-71001000D02*
G01*
X140327000Y-71001000D01*
X140327000Y-68699000D01*
X142629000Y-68699000D01*
X142629000Y-71001000D01*
G37*
G36*
X129929000Y-71001000D02*
G01*
X127627000Y-71001000D01*
X127627000Y-68699000D01*
X129929000Y-68699000D01*
X129929000Y-71001000D01*
G37*
M02*
