G04 #@! TF.GenerationSoftware,KiCad,Pcbnew,5.1.5-52549c5~86~ubuntu16.04.1*
G04 #@! TF.CreationDate,2020-07-28T22:18:50+05:30*
G04 #@! TF.ProjectId,IRF520_MOSFET_Driver_V1.0,49524635-3230-45f4-9d4f-534645545f44,v1.0*
G04 #@! TF.SameCoordinates,Original*
G04 #@! TF.FileFunction,Copper,L1,Top*
G04 #@! TF.FilePolarity,Positive*
%FSLAX46Y46*%
G04 Gerber Fmt 4.6, Leading zero omitted, Abs format (unit mm)*
G04 Created by KiCad (PCBNEW 5.1.5-52549c5~86~ubuntu16.04.1) date 2020-07-28 22:18:50*
%MOMM*%
%LPD*%
G04 APERTURE LIST*
%ADD10C,2.300000*%
%ADD11R,2.200000X2.200000*%
%ADD12O,1.700000X1.700000*%
%ADD13R,1.700000X1.700000*%
%ADD14C,0.100000*%
%ADD15R,2.000000X2.000000*%
%ADD16C,2.000000*%
%ADD17C,4.318000*%
%ADD18C,0.762000*%
%ADD19C,0.508000*%
%ADD20C,0.254000*%
G04 APERTURE END LIST*
D10*
X123698000Y-69850000D03*
D11*
X128778000Y-69850000D03*
D10*
X136398000Y-69850000D03*
D11*
X141478000Y-69850000D03*
D12*
X142240000Y-86360000D03*
X139700000Y-86360000D03*
D13*
X137160000Y-86360000D03*
G04 #@! TA.AperFunction,SMDPad,CuDef*
D14*
G36*
X139674505Y-77141204D02*
G01*
X139698773Y-77144804D01*
X139722572Y-77150765D01*
X139745671Y-77159030D01*
X139767850Y-77169520D01*
X139788893Y-77182132D01*
X139808599Y-77196747D01*
X139826777Y-77213223D01*
X139843253Y-77231401D01*
X139857868Y-77251107D01*
X139870480Y-77272150D01*
X139880970Y-77294329D01*
X139889235Y-77317428D01*
X139895196Y-77341227D01*
X139898796Y-77365495D01*
X139900000Y-77389999D01*
X139900000Y-78040001D01*
X139898796Y-78064505D01*
X139895196Y-78088773D01*
X139889235Y-78112572D01*
X139880970Y-78135671D01*
X139870480Y-78157850D01*
X139857868Y-78178893D01*
X139843253Y-78198599D01*
X139826777Y-78216777D01*
X139808599Y-78233253D01*
X139788893Y-78247868D01*
X139767850Y-78260480D01*
X139745671Y-78270970D01*
X139722572Y-78279235D01*
X139698773Y-78285196D01*
X139674505Y-78288796D01*
X139650001Y-78290000D01*
X138749999Y-78290000D01*
X138725495Y-78288796D01*
X138701227Y-78285196D01*
X138677428Y-78279235D01*
X138654329Y-78270970D01*
X138632150Y-78260480D01*
X138611107Y-78247868D01*
X138591401Y-78233253D01*
X138573223Y-78216777D01*
X138556747Y-78198599D01*
X138542132Y-78178893D01*
X138529520Y-78157850D01*
X138519030Y-78135671D01*
X138510765Y-78112572D01*
X138504804Y-78088773D01*
X138501204Y-78064505D01*
X138500000Y-78040001D01*
X138500000Y-77389999D01*
X138501204Y-77365495D01*
X138504804Y-77341227D01*
X138510765Y-77317428D01*
X138519030Y-77294329D01*
X138529520Y-77272150D01*
X138542132Y-77251107D01*
X138556747Y-77231401D01*
X138573223Y-77213223D01*
X138591401Y-77196747D01*
X138611107Y-77182132D01*
X138632150Y-77169520D01*
X138654329Y-77159030D01*
X138677428Y-77150765D01*
X138701227Y-77144804D01*
X138725495Y-77141204D01*
X138749999Y-77140000D01*
X139650001Y-77140000D01*
X139674505Y-77141204D01*
G37*
G04 #@! TD.AperFunction*
G04 #@! TA.AperFunction,SMDPad,CuDef*
G36*
X139674505Y-79191204D02*
G01*
X139698773Y-79194804D01*
X139722572Y-79200765D01*
X139745671Y-79209030D01*
X139767850Y-79219520D01*
X139788893Y-79232132D01*
X139808599Y-79246747D01*
X139826777Y-79263223D01*
X139843253Y-79281401D01*
X139857868Y-79301107D01*
X139870480Y-79322150D01*
X139880970Y-79344329D01*
X139889235Y-79367428D01*
X139895196Y-79391227D01*
X139898796Y-79415495D01*
X139900000Y-79439999D01*
X139900000Y-80090001D01*
X139898796Y-80114505D01*
X139895196Y-80138773D01*
X139889235Y-80162572D01*
X139880970Y-80185671D01*
X139870480Y-80207850D01*
X139857868Y-80228893D01*
X139843253Y-80248599D01*
X139826777Y-80266777D01*
X139808599Y-80283253D01*
X139788893Y-80297868D01*
X139767850Y-80310480D01*
X139745671Y-80320970D01*
X139722572Y-80329235D01*
X139698773Y-80335196D01*
X139674505Y-80338796D01*
X139650001Y-80340000D01*
X138749999Y-80340000D01*
X138725495Y-80338796D01*
X138701227Y-80335196D01*
X138677428Y-80329235D01*
X138654329Y-80320970D01*
X138632150Y-80310480D01*
X138611107Y-80297868D01*
X138591401Y-80283253D01*
X138573223Y-80266777D01*
X138556747Y-80248599D01*
X138542132Y-80228893D01*
X138529520Y-80207850D01*
X138519030Y-80185671D01*
X138510765Y-80162572D01*
X138504804Y-80138773D01*
X138501204Y-80114505D01*
X138500000Y-80090001D01*
X138500000Y-79439999D01*
X138501204Y-79415495D01*
X138504804Y-79391227D01*
X138510765Y-79367428D01*
X138519030Y-79344329D01*
X138529520Y-79322150D01*
X138542132Y-79301107D01*
X138556747Y-79281401D01*
X138573223Y-79263223D01*
X138591401Y-79246747D01*
X138611107Y-79232132D01*
X138632150Y-79219520D01*
X138654329Y-79209030D01*
X138677428Y-79200765D01*
X138701227Y-79194804D01*
X138725495Y-79191204D01*
X138749999Y-79190000D01*
X139650001Y-79190000D01*
X139674505Y-79191204D01*
G37*
G04 #@! TD.AperFunction*
D15*
X124460000Y-80772000D03*
D16*
X127000000Y-80772000D03*
X129540000Y-80772000D03*
G04 #@! TA.AperFunction,SMDPad,CuDef*
D14*
G36*
X136474505Y-79191204D02*
G01*
X136498773Y-79194804D01*
X136522572Y-79200765D01*
X136545671Y-79209030D01*
X136567850Y-79219520D01*
X136588893Y-79232132D01*
X136608599Y-79246747D01*
X136626777Y-79263223D01*
X136643253Y-79281401D01*
X136657868Y-79301107D01*
X136670480Y-79322150D01*
X136680970Y-79344329D01*
X136689235Y-79367428D01*
X136695196Y-79391227D01*
X136698796Y-79415495D01*
X136700000Y-79439999D01*
X136700000Y-80090001D01*
X136698796Y-80114505D01*
X136695196Y-80138773D01*
X136689235Y-80162572D01*
X136680970Y-80185671D01*
X136670480Y-80207850D01*
X136657868Y-80228893D01*
X136643253Y-80248599D01*
X136626777Y-80266777D01*
X136608599Y-80283253D01*
X136588893Y-80297868D01*
X136567850Y-80310480D01*
X136545671Y-80320970D01*
X136522572Y-80329235D01*
X136498773Y-80335196D01*
X136474505Y-80338796D01*
X136450001Y-80340000D01*
X135549999Y-80340000D01*
X135525495Y-80338796D01*
X135501227Y-80335196D01*
X135477428Y-80329235D01*
X135454329Y-80320970D01*
X135432150Y-80310480D01*
X135411107Y-80297868D01*
X135391401Y-80283253D01*
X135373223Y-80266777D01*
X135356747Y-80248599D01*
X135342132Y-80228893D01*
X135329520Y-80207850D01*
X135319030Y-80185671D01*
X135310765Y-80162572D01*
X135304804Y-80138773D01*
X135301204Y-80114505D01*
X135300000Y-80090001D01*
X135300000Y-79439999D01*
X135301204Y-79415495D01*
X135304804Y-79391227D01*
X135310765Y-79367428D01*
X135319030Y-79344329D01*
X135329520Y-79322150D01*
X135342132Y-79301107D01*
X135356747Y-79281401D01*
X135373223Y-79263223D01*
X135391401Y-79246747D01*
X135411107Y-79232132D01*
X135432150Y-79219520D01*
X135454329Y-79209030D01*
X135477428Y-79200765D01*
X135501227Y-79194804D01*
X135525495Y-79191204D01*
X135549999Y-79190000D01*
X136450001Y-79190000D01*
X136474505Y-79191204D01*
G37*
G04 #@! TD.AperFunction*
G04 #@! TA.AperFunction,SMDPad,CuDef*
G36*
X136474505Y-77141204D02*
G01*
X136498773Y-77144804D01*
X136522572Y-77150765D01*
X136545671Y-77159030D01*
X136567850Y-77169520D01*
X136588893Y-77182132D01*
X136608599Y-77196747D01*
X136626777Y-77213223D01*
X136643253Y-77231401D01*
X136657868Y-77251107D01*
X136670480Y-77272150D01*
X136680970Y-77294329D01*
X136689235Y-77317428D01*
X136695196Y-77341227D01*
X136698796Y-77365495D01*
X136700000Y-77389999D01*
X136700000Y-78040001D01*
X136698796Y-78064505D01*
X136695196Y-78088773D01*
X136689235Y-78112572D01*
X136680970Y-78135671D01*
X136670480Y-78157850D01*
X136657868Y-78178893D01*
X136643253Y-78198599D01*
X136626777Y-78216777D01*
X136608599Y-78233253D01*
X136588893Y-78247868D01*
X136567850Y-78260480D01*
X136545671Y-78270970D01*
X136522572Y-78279235D01*
X136498773Y-78285196D01*
X136474505Y-78288796D01*
X136450001Y-78290000D01*
X135549999Y-78290000D01*
X135525495Y-78288796D01*
X135501227Y-78285196D01*
X135477428Y-78279235D01*
X135454329Y-78270970D01*
X135432150Y-78260480D01*
X135411107Y-78247868D01*
X135391401Y-78233253D01*
X135373223Y-78216777D01*
X135356747Y-78198599D01*
X135342132Y-78178893D01*
X135329520Y-78157850D01*
X135319030Y-78135671D01*
X135310765Y-78112572D01*
X135304804Y-78088773D01*
X135301204Y-78064505D01*
X135300000Y-78040001D01*
X135300000Y-77389999D01*
X135301204Y-77365495D01*
X135304804Y-77341227D01*
X135310765Y-77317428D01*
X135319030Y-77294329D01*
X135329520Y-77272150D01*
X135342132Y-77251107D01*
X135356747Y-77231401D01*
X135373223Y-77213223D01*
X135391401Y-77196747D01*
X135411107Y-77182132D01*
X135432150Y-77169520D01*
X135454329Y-77159030D01*
X135477428Y-77150765D01*
X135501227Y-77144804D01*
X135525495Y-77141204D01*
X135549999Y-77140000D01*
X136450001Y-77140000D01*
X136474505Y-77141204D01*
G37*
G04 #@! TD.AperFunction*
G04 #@! TA.AperFunction,SMDPad,CuDef*
G36*
X142714505Y-79191204D02*
G01*
X142738773Y-79194804D01*
X142762572Y-79200765D01*
X142785671Y-79209030D01*
X142807850Y-79219520D01*
X142828893Y-79232132D01*
X142848599Y-79246747D01*
X142866777Y-79263223D01*
X142883253Y-79281401D01*
X142897868Y-79301107D01*
X142910480Y-79322150D01*
X142920970Y-79344329D01*
X142929235Y-79367428D01*
X142935196Y-79391227D01*
X142938796Y-79415495D01*
X142940000Y-79439999D01*
X142940000Y-80090001D01*
X142938796Y-80114505D01*
X142935196Y-80138773D01*
X142929235Y-80162572D01*
X142920970Y-80185671D01*
X142910480Y-80207850D01*
X142897868Y-80228893D01*
X142883253Y-80248599D01*
X142866777Y-80266777D01*
X142848599Y-80283253D01*
X142828893Y-80297868D01*
X142807850Y-80310480D01*
X142785671Y-80320970D01*
X142762572Y-80329235D01*
X142738773Y-80335196D01*
X142714505Y-80338796D01*
X142690001Y-80340000D01*
X141789999Y-80340000D01*
X141765495Y-80338796D01*
X141741227Y-80335196D01*
X141717428Y-80329235D01*
X141694329Y-80320970D01*
X141672150Y-80310480D01*
X141651107Y-80297868D01*
X141631401Y-80283253D01*
X141613223Y-80266777D01*
X141596747Y-80248599D01*
X141582132Y-80228893D01*
X141569520Y-80207850D01*
X141559030Y-80185671D01*
X141550765Y-80162572D01*
X141544804Y-80138773D01*
X141541204Y-80114505D01*
X141540000Y-80090001D01*
X141540000Y-79439999D01*
X141541204Y-79415495D01*
X141544804Y-79391227D01*
X141550765Y-79367428D01*
X141559030Y-79344329D01*
X141569520Y-79322150D01*
X141582132Y-79301107D01*
X141596747Y-79281401D01*
X141613223Y-79263223D01*
X141631401Y-79246747D01*
X141651107Y-79232132D01*
X141672150Y-79219520D01*
X141694329Y-79209030D01*
X141717428Y-79200765D01*
X141741227Y-79194804D01*
X141765495Y-79191204D01*
X141789999Y-79190000D01*
X142690001Y-79190000D01*
X142714505Y-79191204D01*
G37*
G04 #@! TD.AperFunction*
G04 #@! TA.AperFunction,SMDPad,CuDef*
G36*
X142714505Y-77141204D02*
G01*
X142738773Y-77144804D01*
X142762572Y-77150765D01*
X142785671Y-77159030D01*
X142807850Y-77169520D01*
X142828893Y-77182132D01*
X142848599Y-77196747D01*
X142866777Y-77213223D01*
X142883253Y-77231401D01*
X142897868Y-77251107D01*
X142910480Y-77272150D01*
X142920970Y-77294329D01*
X142929235Y-77317428D01*
X142935196Y-77341227D01*
X142938796Y-77365495D01*
X142940000Y-77389999D01*
X142940000Y-78040001D01*
X142938796Y-78064505D01*
X142935196Y-78088773D01*
X142929235Y-78112572D01*
X142920970Y-78135671D01*
X142910480Y-78157850D01*
X142897868Y-78178893D01*
X142883253Y-78198599D01*
X142866777Y-78216777D01*
X142848599Y-78233253D01*
X142828893Y-78247868D01*
X142807850Y-78260480D01*
X142785671Y-78270970D01*
X142762572Y-78279235D01*
X142738773Y-78285196D01*
X142714505Y-78288796D01*
X142690001Y-78290000D01*
X141789999Y-78290000D01*
X141765495Y-78288796D01*
X141741227Y-78285196D01*
X141717428Y-78279235D01*
X141694329Y-78270970D01*
X141672150Y-78260480D01*
X141651107Y-78247868D01*
X141631401Y-78233253D01*
X141613223Y-78216777D01*
X141596747Y-78198599D01*
X141582132Y-78178893D01*
X141569520Y-78157850D01*
X141559030Y-78135671D01*
X141550765Y-78112572D01*
X141544804Y-78088773D01*
X141541204Y-78064505D01*
X141540000Y-78040001D01*
X141540000Y-77389999D01*
X141541204Y-77365495D01*
X141544804Y-77341227D01*
X141550765Y-77317428D01*
X141559030Y-77294329D01*
X141569520Y-77272150D01*
X141582132Y-77251107D01*
X141596747Y-77231401D01*
X141613223Y-77213223D01*
X141631401Y-77196747D01*
X141651107Y-77182132D01*
X141672150Y-77169520D01*
X141694329Y-77159030D01*
X141717428Y-77150765D01*
X141741227Y-77144804D01*
X141765495Y-77141204D01*
X141789999Y-77140000D01*
X142690001Y-77140000D01*
X142714505Y-77141204D01*
G37*
G04 #@! TD.AperFunction*
D17*
X146812000Y-76454000D03*
X118618000Y-76454000D03*
D18*
X139200000Y-77715000D02*
X142240000Y-77715000D01*
X136000000Y-85200000D02*
X137160000Y-86360000D01*
X136000000Y-79765000D02*
X136000000Y-85200000D01*
D19*
X136000000Y-79765000D02*
X136700000Y-79765000D01*
D18*
X136000000Y-79765000D02*
X139200000Y-79765000D01*
X124460000Y-80772000D02*
X124460000Y-82550000D01*
X124460000Y-82550000D02*
X124460000Y-83312000D01*
X124460000Y-83312000D02*
X125730000Y-84582000D01*
X125730000Y-84582000D02*
X130556000Y-84582000D01*
D19*
X130556000Y-84509000D02*
X130556000Y-84582000D01*
D18*
X135300000Y-79765000D02*
X130556000Y-84509000D01*
D19*
X136000000Y-79765000D02*
X135300000Y-79765000D01*
D18*
X128778000Y-71712000D02*
X127000000Y-73490000D01*
X128778000Y-69850000D02*
X128778000Y-71712000D01*
X127000000Y-80772000D02*
X127000000Y-74168000D01*
X127000000Y-73490000D02*
X127000000Y-74168000D01*
X136398000Y-68580000D02*
X136398000Y-69850000D01*
X123698000Y-69850000D02*
X123698000Y-68580000D01*
X124968000Y-67310000D02*
X135128000Y-67310000D01*
X123698000Y-68580000D02*
X124968000Y-67310000D01*
X135128000Y-67310000D02*
X136398000Y-68580000D01*
D20*
G36*
X148740001Y-74430688D02*
G01*
X148593071Y-74283758D01*
X148135455Y-73977989D01*
X147626980Y-73767372D01*
X147087185Y-73660000D01*
X146536815Y-73660000D01*
X145997020Y-73767372D01*
X145488545Y-73977989D01*
X145030929Y-74283758D01*
X144641758Y-74672929D01*
X144335989Y-75130545D01*
X144125372Y-75639020D01*
X144018000Y-76178815D01*
X144018000Y-76729185D01*
X144125372Y-77268980D01*
X144335989Y-77777455D01*
X144641758Y-78235071D01*
X145030929Y-78624242D01*
X145488545Y-78930011D01*
X145997020Y-79140628D01*
X146536815Y-79248000D01*
X147087185Y-79248000D01*
X147626980Y-79140628D01*
X148135455Y-78930011D01*
X148593071Y-78624242D01*
X148740000Y-78477313D01*
X148740000Y-87940000D01*
X116660000Y-87940000D01*
X116660000Y-78447313D01*
X116836929Y-78624242D01*
X117294545Y-78930011D01*
X117803020Y-79140628D01*
X118342815Y-79248000D01*
X118893185Y-79248000D01*
X119432980Y-79140628D01*
X119941455Y-78930011D01*
X120399071Y-78624242D01*
X120788242Y-78235071D01*
X121094011Y-77777455D01*
X121304628Y-77268980D01*
X121412000Y-76729185D01*
X121412000Y-76178815D01*
X121304628Y-75639020D01*
X121094011Y-75130545D01*
X120788242Y-74672929D01*
X120399071Y-74283758D01*
X119941455Y-73977989D01*
X119432980Y-73767372D01*
X118893185Y-73660000D01*
X118342815Y-73660000D01*
X117803020Y-73767372D01*
X117294545Y-73977989D01*
X116836929Y-74283758D01*
X116660000Y-74460687D01*
X116660000Y-69674193D01*
X121913000Y-69674193D01*
X121913000Y-70025807D01*
X121981596Y-70370665D01*
X122116153Y-70695515D01*
X122311500Y-70987871D01*
X122560129Y-71236500D01*
X122852485Y-71431847D01*
X123177335Y-71566404D01*
X123522193Y-71635000D01*
X123873807Y-71635000D01*
X124218665Y-71566404D01*
X124543515Y-71431847D01*
X124835871Y-71236500D01*
X125084500Y-70987871D01*
X125279847Y-70695515D01*
X125414404Y-70370665D01*
X125483000Y-70025807D01*
X125483000Y-69674193D01*
X125414404Y-69329335D01*
X125279847Y-69004485D01*
X125084500Y-68712129D01*
X125043606Y-68671235D01*
X125388841Y-68326000D01*
X127204505Y-68326000D01*
X127147463Y-68395506D01*
X127088498Y-68505820D01*
X127052188Y-68625518D01*
X127039928Y-68750000D01*
X127039928Y-70950000D01*
X127052188Y-71074482D01*
X127088498Y-71194180D01*
X127147463Y-71304494D01*
X127226815Y-71401185D01*
X127323506Y-71480537D01*
X127433820Y-71539502D01*
X127495076Y-71558084D01*
X126316872Y-72736288D01*
X126278104Y-72768104D01*
X126151140Y-72922810D01*
X126056798Y-73099314D01*
X126042307Y-73147085D01*
X125998702Y-73290830D01*
X125979085Y-73490000D01*
X125984000Y-73539902D01*
X125984000Y-74217902D01*
X125984001Y-74217912D01*
X125984000Y-79409541D01*
X125911185Y-79320815D01*
X125814494Y-79241463D01*
X125704180Y-79182498D01*
X125584482Y-79146188D01*
X125460000Y-79133928D01*
X123460000Y-79133928D01*
X123335518Y-79146188D01*
X123215820Y-79182498D01*
X123105506Y-79241463D01*
X123008815Y-79320815D01*
X122929463Y-79417506D01*
X122870498Y-79527820D01*
X122834188Y-79647518D01*
X122821928Y-79772000D01*
X122821928Y-81772000D01*
X122834188Y-81896482D01*
X122870498Y-82016180D01*
X122929463Y-82126494D01*
X123008815Y-82223185D01*
X123105506Y-82302537D01*
X123215820Y-82361502D01*
X123335518Y-82397812D01*
X123444001Y-82408496D01*
X123444001Y-82500089D01*
X123444000Y-82500099D01*
X123444000Y-83262098D01*
X123439085Y-83312000D01*
X123458702Y-83511170D01*
X123470875Y-83551298D01*
X123516799Y-83702687D01*
X123611141Y-83879190D01*
X123738105Y-84033896D01*
X123776868Y-84065708D01*
X124976292Y-85265133D01*
X125008104Y-85303896D01*
X125162810Y-85430860D01*
X125339313Y-85525202D01*
X125530829Y-85583298D01*
X125680098Y-85598000D01*
X125680105Y-85598000D01*
X125729999Y-85602914D01*
X125779893Y-85598000D01*
X130605902Y-85598000D01*
X130755171Y-85583298D01*
X130946687Y-85525202D01*
X131123190Y-85430860D01*
X131277896Y-85303896D01*
X131404860Y-85149190D01*
X131464810Y-85037030D01*
X134984000Y-81517840D01*
X134984001Y-85150088D01*
X134979085Y-85200000D01*
X134998702Y-85399170D01*
X135032413Y-85510298D01*
X135056799Y-85590687D01*
X135151141Y-85767190D01*
X135278105Y-85921896D01*
X135316868Y-85953708D01*
X135671928Y-86308768D01*
X135671928Y-87210000D01*
X135684188Y-87334482D01*
X135720498Y-87454180D01*
X135779463Y-87564494D01*
X135858815Y-87661185D01*
X135955506Y-87740537D01*
X136065820Y-87799502D01*
X136185518Y-87835812D01*
X136310000Y-87848072D01*
X138010000Y-87848072D01*
X138134482Y-87835812D01*
X138254180Y-87799502D01*
X138364494Y-87740537D01*
X138461185Y-87661185D01*
X138540537Y-87564494D01*
X138599502Y-87454180D01*
X138621513Y-87381620D01*
X138753368Y-87513475D01*
X138996589Y-87675990D01*
X139266842Y-87787932D01*
X139553740Y-87845000D01*
X139846260Y-87845000D01*
X140133158Y-87787932D01*
X140403411Y-87675990D01*
X140646632Y-87513475D01*
X140853475Y-87306632D01*
X140975195Y-87124466D01*
X141044822Y-87241355D01*
X141239731Y-87457588D01*
X141473080Y-87631641D01*
X141735901Y-87756825D01*
X141883110Y-87801476D01*
X142113000Y-87680155D01*
X142113000Y-86487000D01*
X142367000Y-86487000D01*
X142367000Y-87680155D01*
X142596890Y-87801476D01*
X142744099Y-87756825D01*
X143006920Y-87631641D01*
X143240269Y-87457588D01*
X143435178Y-87241355D01*
X143584157Y-86991252D01*
X143681481Y-86716891D01*
X143560814Y-86487000D01*
X142367000Y-86487000D01*
X142113000Y-86487000D01*
X142093000Y-86487000D01*
X142093000Y-86233000D01*
X142113000Y-86233000D01*
X142113000Y-85039845D01*
X142367000Y-85039845D01*
X142367000Y-86233000D01*
X143560814Y-86233000D01*
X143681481Y-86003109D01*
X143584157Y-85728748D01*
X143435178Y-85478645D01*
X143240269Y-85262412D01*
X143006920Y-85088359D01*
X142744099Y-84963175D01*
X142596890Y-84918524D01*
X142367000Y-85039845D01*
X142113000Y-85039845D01*
X141883110Y-84918524D01*
X141735901Y-84963175D01*
X141473080Y-85088359D01*
X141239731Y-85262412D01*
X141044822Y-85478645D01*
X140975195Y-85595534D01*
X140853475Y-85413368D01*
X140646632Y-85206525D01*
X140403411Y-85044010D01*
X140133158Y-84932068D01*
X139846260Y-84875000D01*
X139553740Y-84875000D01*
X139266842Y-84932068D01*
X138996589Y-85044010D01*
X138753368Y-85206525D01*
X138621513Y-85338380D01*
X138599502Y-85265820D01*
X138540537Y-85155506D01*
X138461185Y-85058815D01*
X138364494Y-84979463D01*
X138254180Y-84920498D01*
X138134482Y-84884188D01*
X138010000Y-84871928D01*
X137108768Y-84871928D01*
X137016000Y-84779160D01*
X137016000Y-80781000D01*
X138198850Y-80781000D01*
X138256613Y-80828405D01*
X138410149Y-80910472D01*
X138576745Y-80961008D01*
X138749999Y-80978072D01*
X139650001Y-80978072D01*
X139823255Y-80961008D01*
X139989851Y-80910472D01*
X140143387Y-80828405D01*
X140277962Y-80717962D01*
X140388405Y-80583387D01*
X140470472Y-80429851D01*
X140497727Y-80340000D01*
X140901928Y-80340000D01*
X140914188Y-80464482D01*
X140950498Y-80584180D01*
X141009463Y-80694494D01*
X141088815Y-80791185D01*
X141185506Y-80870537D01*
X141295820Y-80929502D01*
X141415518Y-80965812D01*
X141540000Y-80978072D01*
X141954250Y-80975000D01*
X142113000Y-80816250D01*
X142113000Y-79892000D01*
X142367000Y-79892000D01*
X142367000Y-80816250D01*
X142525750Y-80975000D01*
X142940000Y-80978072D01*
X143064482Y-80965812D01*
X143184180Y-80929502D01*
X143294494Y-80870537D01*
X143391185Y-80791185D01*
X143470537Y-80694494D01*
X143529502Y-80584180D01*
X143565812Y-80464482D01*
X143578072Y-80340000D01*
X143575000Y-80050750D01*
X143416250Y-79892000D01*
X142367000Y-79892000D01*
X142113000Y-79892000D01*
X141063750Y-79892000D01*
X140905000Y-80050750D01*
X140901928Y-80340000D01*
X140497727Y-80340000D01*
X140521008Y-80263255D01*
X140538072Y-80090001D01*
X140538072Y-79439999D01*
X140521008Y-79266745D01*
X140470472Y-79100149D01*
X140388405Y-78946613D01*
X140277962Y-78812038D01*
X140190184Y-78740000D01*
X140201150Y-78731000D01*
X141098338Y-78731000D01*
X141088815Y-78738815D01*
X141009463Y-78835506D01*
X140950498Y-78945820D01*
X140914188Y-79065518D01*
X140901928Y-79190000D01*
X140905000Y-79479250D01*
X141063750Y-79638000D01*
X142113000Y-79638000D01*
X142113000Y-79618000D01*
X142367000Y-79618000D01*
X142367000Y-79638000D01*
X143416250Y-79638000D01*
X143575000Y-79479250D01*
X143578072Y-79190000D01*
X143565812Y-79065518D01*
X143529502Y-78945820D01*
X143470537Y-78835506D01*
X143391185Y-78738815D01*
X143311406Y-78673342D01*
X143317962Y-78667962D01*
X143428405Y-78533387D01*
X143510472Y-78379851D01*
X143561008Y-78213255D01*
X143578072Y-78040001D01*
X143578072Y-77389999D01*
X143561008Y-77216745D01*
X143510472Y-77050149D01*
X143428405Y-76896613D01*
X143317962Y-76762038D01*
X143183387Y-76651595D01*
X143029851Y-76569528D01*
X142863255Y-76518992D01*
X142690001Y-76501928D01*
X141789999Y-76501928D01*
X141616745Y-76518992D01*
X141450149Y-76569528D01*
X141296613Y-76651595D01*
X141238850Y-76699000D01*
X140201150Y-76699000D01*
X140143387Y-76651595D01*
X139989851Y-76569528D01*
X139823255Y-76518992D01*
X139650001Y-76501928D01*
X138749999Y-76501928D01*
X138576745Y-76518992D01*
X138410149Y-76569528D01*
X138256613Y-76651595D01*
X138122038Y-76762038D01*
X138011595Y-76896613D01*
X137929528Y-77050149D01*
X137878992Y-77216745D01*
X137861928Y-77389999D01*
X137861928Y-78040001D01*
X137878992Y-78213255D01*
X137929528Y-78379851D01*
X138011595Y-78533387D01*
X138122038Y-78667962D01*
X138209816Y-78740000D01*
X138198850Y-78749000D01*
X137141662Y-78749000D01*
X137151185Y-78741185D01*
X137230537Y-78644494D01*
X137289502Y-78534180D01*
X137325812Y-78414482D01*
X137338072Y-78290000D01*
X137335000Y-78000750D01*
X137176250Y-77842000D01*
X136127000Y-77842000D01*
X136127000Y-77862000D01*
X135873000Y-77862000D01*
X135873000Y-77842000D01*
X134823750Y-77842000D01*
X134665000Y-78000750D01*
X134661928Y-78290000D01*
X134674188Y-78414482D01*
X134710498Y-78534180D01*
X134769463Y-78644494D01*
X134848815Y-78741185D01*
X134928594Y-78806658D01*
X134922038Y-78812038D01*
X134915590Y-78819894D01*
X134909312Y-78821799D01*
X134732810Y-78916141D01*
X134616865Y-79011294D01*
X130062160Y-83566000D01*
X126150841Y-83566000D01*
X125476000Y-82891160D01*
X125476000Y-82408496D01*
X125584482Y-82397812D01*
X125704180Y-82361502D01*
X125814494Y-82302537D01*
X125911185Y-82223185D01*
X125990537Y-82126494D01*
X126015191Y-82080370D01*
X126225537Y-82220918D01*
X126523088Y-82344168D01*
X126838967Y-82407000D01*
X127161033Y-82407000D01*
X127476912Y-82344168D01*
X127774463Y-82220918D01*
X128042252Y-82041987D01*
X128176826Y-81907413D01*
X128584192Y-81907413D01*
X128679956Y-82171814D01*
X128969571Y-82312704D01*
X129281108Y-82394384D01*
X129602595Y-82413718D01*
X129921675Y-82369961D01*
X130226088Y-82264795D01*
X130400044Y-82171814D01*
X130495808Y-81907413D01*
X129540000Y-80951605D01*
X128584192Y-81907413D01*
X128176826Y-81907413D01*
X128269987Y-81814252D01*
X128342720Y-81705400D01*
X128404587Y-81727808D01*
X129360395Y-80772000D01*
X129719605Y-80772000D01*
X130675413Y-81727808D01*
X130939814Y-81632044D01*
X131080704Y-81342429D01*
X131162384Y-81030892D01*
X131181718Y-80709405D01*
X131137961Y-80390325D01*
X131032795Y-80085912D01*
X130939814Y-79911956D01*
X130675413Y-79816192D01*
X129719605Y-80772000D01*
X129360395Y-80772000D01*
X128404587Y-79816192D01*
X128342720Y-79838600D01*
X128269987Y-79729748D01*
X128176826Y-79636587D01*
X128584192Y-79636587D01*
X129540000Y-80592395D01*
X130495808Y-79636587D01*
X130400044Y-79372186D01*
X130110429Y-79231296D01*
X129798892Y-79149616D01*
X129477405Y-79130282D01*
X129158325Y-79174039D01*
X128853912Y-79279205D01*
X128679956Y-79372186D01*
X128584192Y-79636587D01*
X128176826Y-79636587D01*
X128042252Y-79502013D01*
X128016000Y-79484472D01*
X128016000Y-77140000D01*
X134661928Y-77140000D01*
X134665000Y-77429250D01*
X134823750Y-77588000D01*
X135873000Y-77588000D01*
X135873000Y-76663750D01*
X136127000Y-76663750D01*
X136127000Y-77588000D01*
X137176250Y-77588000D01*
X137335000Y-77429250D01*
X137338072Y-77140000D01*
X137325812Y-77015518D01*
X137289502Y-76895820D01*
X137230537Y-76785506D01*
X137151185Y-76688815D01*
X137054494Y-76609463D01*
X136944180Y-76550498D01*
X136824482Y-76514188D01*
X136700000Y-76501928D01*
X136285750Y-76505000D01*
X136127000Y-76663750D01*
X135873000Y-76663750D01*
X135714250Y-76505000D01*
X135300000Y-76501928D01*
X135175518Y-76514188D01*
X135055820Y-76550498D01*
X134945506Y-76609463D01*
X134848815Y-76688815D01*
X134769463Y-76785506D01*
X134710498Y-76895820D01*
X134674188Y-77015518D01*
X134661928Y-77140000D01*
X128016000Y-77140000D01*
X128016000Y-73910840D01*
X129461133Y-72465708D01*
X129499896Y-72433896D01*
X129626860Y-72279190D01*
X129721202Y-72102687D01*
X129779298Y-71911171D01*
X129794000Y-71761902D01*
X129798915Y-71712000D01*
X129794000Y-71662098D01*
X129794000Y-71588072D01*
X129878000Y-71588072D01*
X130002482Y-71575812D01*
X130122180Y-71539502D01*
X130232494Y-71480537D01*
X130329185Y-71401185D01*
X130408537Y-71304494D01*
X130467502Y-71194180D01*
X130503812Y-71074482D01*
X130516072Y-70950000D01*
X130516072Y-68750000D01*
X130503812Y-68625518D01*
X130467502Y-68505820D01*
X130408537Y-68395506D01*
X130351495Y-68326000D01*
X134707160Y-68326000D01*
X135052394Y-68671235D01*
X135011500Y-68712129D01*
X134816153Y-69004485D01*
X134681596Y-69329335D01*
X134613000Y-69674193D01*
X134613000Y-70025807D01*
X134681596Y-70370665D01*
X134816153Y-70695515D01*
X135011500Y-70987871D01*
X135260129Y-71236500D01*
X135552485Y-71431847D01*
X135877335Y-71566404D01*
X136222193Y-71635000D01*
X136573807Y-71635000D01*
X136918665Y-71566404D01*
X137243515Y-71431847D01*
X137535871Y-71236500D01*
X137784500Y-70987871D01*
X137809804Y-70950000D01*
X139739928Y-70950000D01*
X139752188Y-71074482D01*
X139788498Y-71194180D01*
X139847463Y-71304494D01*
X139926815Y-71401185D01*
X140023506Y-71480537D01*
X140133820Y-71539502D01*
X140253518Y-71575812D01*
X140378000Y-71588072D01*
X141192250Y-71585000D01*
X141351000Y-71426250D01*
X141351000Y-69977000D01*
X141605000Y-69977000D01*
X141605000Y-71426250D01*
X141763750Y-71585000D01*
X142578000Y-71588072D01*
X142702482Y-71575812D01*
X142822180Y-71539502D01*
X142932494Y-71480537D01*
X143029185Y-71401185D01*
X143108537Y-71304494D01*
X143167502Y-71194180D01*
X143203812Y-71074482D01*
X143216072Y-70950000D01*
X143213000Y-70135750D01*
X143054250Y-69977000D01*
X141605000Y-69977000D01*
X141351000Y-69977000D01*
X139901750Y-69977000D01*
X139743000Y-70135750D01*
X139739928Y-70950000D01*
X137809804Y-70950000D01*
X137979847Y-70695515D01*
X138114404Y-70370665D01*
X138183000Y-70025807D01*
X138183000Y-69674193D01*
X138114404Y-69329335D01*
X137979847Y-69004485D01*
X137809805Y-68750000D01*
X139739928Y-68750000D01*
X139743000Y-69564250D01*
X139901750Y-69723000D01*
X141351000Y-69723000D01*
X141351000Y-68273750D01*
X141605000Y-68273750D01*
X141605000Y-69723000D01*
X143054250Y-69723000D01*
X143213000Y-69564250D01*
X143216072Y-68750000D01*
X143203812Y-68625518D01*
X143167502Y-68505820D01*
X143108537Y-68395506D01*
X143029185Y-68298815D01*
X142932494Y-68219463D01*
X142822180Y-68160498D01*
X142702482Y-68124188D01*
X142578000Y-68111928D01*
X141763750Y-68115000D01*
X141605000Y-68273750D01*
X141351000Y-68273750D01*
X141192250Y-68115000D01*
X140378000Y-68111928D01*
X140253518Y-68124188D01*
X140133820Y-68160498D01*
X140023506Y-68219463D01*
X139926815Y-68298815D01*
X139847463Y-68395506D01*
X139788498Y-68505820D01*
X139752188Y-68625518D01*
X139739928Y-68750000D01*
X137809805Y-68750000D01*
X137784500Y-68712129D01*
X137535871Y-68463500D01*
X137396032Y-68370062D01*
X137341202Y-68189313D01*
X137246860Y-68012810D01*
X137119896Y-67858104D01*
X137081133Y-67826292D01*
X135881712Y-66626872D01*
X135849896Y-66588104D01*
X135695190Y-66461140D01*
X135518687Y-66366798D01*
X135327171Y-66308702D01*
X135177902Y-66294000D01*
X135128000Y-66289085D01*
X135078098Y-66294000D01*
X125017893Y-66294000D01*
X124967999Y-66289086D01*
X124918105Y-66294000D01*
X124918098Y-66294000D01*
X124768829Y-66308702D01*
X124577313Y-66366798D01*
X124400810Y-66461140D01*
X124246104Y-66588104D01*
X124214292Y-66626867D01*
X123014868Y-67826292D01*
X122976105Y-67858104D01*
X122849141Y-68012810D01*
X122821245Y-68065000D01*
X122754799Y-68189313D01*
X122699969Y-68370062D01*
X122560129Y-68463500D01*
X122311500Y-68712129D01*
X122116153Y-69004485D01*
X121981596Y-69329335D01*
X121913000Y-69674193D01*
X116660000Y-69674193D01*
X116660000Y-63660000D01*
X148740001Y-63660000D01*
X148740001Y-74430688D01*
G37*
X148740001Y-74430688D02*
X148593071Y-74283758D01*
X148135455Y-73977989D01*
X147626980Y-73767372D01*
X147087185Y-73660000D01*
X146536815Y-73660000D01*
X145997020Y-73767372D01*
X145488545Y-73977989D01*
X145030929Y-74283758D01*
X144641758Y-74672929D01*
X144335989Y-75130545D01*
X144125372Y-75639020D01*
X144018000Y-76178815D01*
X144018000Y-76729185D01*
X144125372Y-77268980D01*
X144335989Y-77777455D01*
X144641758Y-78235071D01*
X145030929Y-78624242D01*
X145488545Y-78930011D01*
X145997020Y-79140628D01*
X146536815Y-79248000D01*
X147087185Y-79248000D01*
X147626980Y-79140628D01*
X148135455Y-78930011D01*
X148593071Y-78624242D01*
X148740000Y-78477313D01*
X148740000Y-87940000D01*
X116660000Y-87940000D01*
X116660000Y-78447313D01*
X116836929Y-78624242D01*
X117294545Y-78930011D01*
X117803020Y-79140628D01*
X118342815Y-79248000D01*
X118893185Y-79248000D01*
X119432980Y-79140628D01*
X119941455Y-78930011D01*
X120399071Y-78624242D01*
X120788242Y-78235071D01*
X121094011Y-77777455D01*
X121304628Y-77268980D01*
X121412000Y-76729185D01*
X121412000Y-76178815D01*
X121304628Y-75639020D01*
X121094011Y-75130545D01*
X120788242Y-74672929D01*
X120399071Y-74283758D01*
X119941455Y-73977989D01*
X119432980Y-73767372D01*
X118893185Y-73660000D01*
X118342815Y-73660000D01*
X117803020Y-73767372D01*
X117294545Y-73977989D01*
X116836929Y-74283758D01*
X116660000Y-74460687D01*
X116660000Y-69674193D01*
X121913000Y-69674193D01*
X121913000Y-70025807D01*
X121981596Y-70370665D01*
X122116153Y-70695515D01*
X122311500Y-70987871D01*
X122560129Y-71236500D01*
X122852485Y-71431847D01*
X123177335Y-71566404D01*
X123522193Y-71635000D01*
X123873807Y-71635000D01*
X124218665Y-71566404D01*
X124543515Y-71431847D01*
X124835871Y-71236500D01*
X125084500Y-70987871D01*
X125279847Y-70695515D01*
X125414404Y-70370665D01*
X125483000Y-70025807D01*
X125483000Y-69674193D01*
X125414404Y-69329335D01*
X125279847Y-69004485D01*
X125084500Y-68712129D01*
X125043606Y-68671235D01*
X125388841Y-68326000D01*
X127204505Y-68326000D01*
X127147463Y-68395506D01*
X127088498Y-68505820D01*
X127052188Y-68625518D01*
X127039928Y-68750000D01*
X127039928Y-70950000D01*
X127052188Y-71074482D01*
X127088498Y-71194180D01*
X127147463Y-71304494D01*
X127226815Y-71401185D01*
X127323506Y-71480537D01*
X127433820Y-71539502D01*
X127495076Y-71558084D01*
X126316872Y-72736288D01*
X126278104Y-72768104D01*
X126151140Y-72922810D01*
X126056798Y-73099314D01*
X126042307Y-73147085D01*
X125998702Y-73290830D01*
X125979085Y-73490000D01*
X125984000Y-73539902D01*
X125984000Y-74217902D01*
X125984001Y-74217912D01*
X125984000Y-79409541D01*
X125911185Y-79320815D01*
X125814494Y-79241463D01*
X125704180Y-79182498D01*
X125584482Y-79146188D01*
X125460000Y-79133928D01*
X123460000Y-79133928D01*
X123335518Y-79146188D01*
X123215820Y-79182498D01*
X123105506Y-79241463D01*
X123008815Y-79320815D01*
X122929463Y-79417506D01*
X122870498Y-79527820D01*
X122834188Y-79647518D01*
X122821928Y-79772000D01*
X122821928Y-81772000D01*
X122834188Y-81896482D01*
X122870498Y-82016180D01*
X122929463Y-82126494D01*
X123008815Y-82223185D01*
X123105506Y-82302537D01*
X123215820Y-82361502D01*
X123335518Y-82397812D01*
X123444001Y-82408496D01*
X123444001Y-82500089D01*
X123444000Y-82500099D01*
X123444000Y-83262098D01*
X123439085Y-83312000D01*
X123458702Y-83511170D01*
X123470875Y-83551298D01*
X123516799Y-83702687D01*
X123611141Y-83879190D01*
X123738105Y-84033896D01*
X123776868Y-84065708D01*
X124976292Y-85265133D01*
X125008104Y-85303896D01*
X125162810Y-85430860D01*
X125339313Y-85525202D01*
X125530829Y-85583298D01*
X125680098Y-85598000D01*
X125680105Y-85598000D01*
X125729999Y-85602914D01*
X125779893Y-85598000D01*
X130605902Y-85598000D01*
X130755171Y-85583298D01*
X130946687Y-85525202D01*
X131123190Y-85430860D01*
X131277896Y-85303896D01*
X131404860Y-85149190D01*
X131464810Y-85037030D01*
X134984000Y-81517840D01*
X134984001Y-85150088D01*
X134979085Y-85200000D01*
X134998702Y-85399170D01*
X135032413Y-85510298D01*
X135056799Y-85590687D01*
X135151141Y-85767190D01*
X135278105Y-85921896D01*
X135316868Y-85953708D01*
X135671928Y-86308768D01*
X135671928Y-87210000D01*
X135684188Y-87334482D01*
X135720498Y-87454180D01*
X135779463Y-87564494D01*
X135858815Y-87661185D01*
X135955506Y-87740537D01*
X136065820Y-87799502D01*
X136185518Y-87835812D01*
X136310000Y-87848072D01*
X138010000Y-87848072D01*
X138134482Y-87835812D01*
X138254180Y-87799502D01*
X138364494Y-87740537D01*
X138461185Y-87661185D01*
X138540537Y-87564494D01*
X138599502Y-87454180D01*
X138621513Y-87381620D01*
X138753368Y-87513475D01*
X138996589Y-87675990D01*
X139266842Y-87787932D01*
X139553740Y-87845000D01*
X139846260Y-87845000D01*
X140133158Y-87787932D01*
X140403411Y-87675990D01*
X140646632Y-87513475D01*
X140853475Y-87306632D01*
X140975195Y-87124466D01*
X141044822Y-87241355D01*
X141239731Y-87457588D01*
X141473080Y-87631641D01*
X141735901Y-87756825D01*
X141883110Y-87801476D01*
X142113000Y-87680155D01*
X142113000Y-86487000D01*
X142367000Y-86487000D01*
X142367000Y-87680155D01*
X142596890Y-87801476D01*
X142744099Y-87756825D01*
X143006920Y-87631641D01*
X143240269Y-87457588D01*
X143435178Y-87241355D01*
X143584157Y-86991252D01*
X143681481Y-86716891D01*
X143560814Y-86487000D01*
X142367000Y-86487000D01*
X142113000Y-86487000D01*
X142093000Y-86487000D01*
X142093000Y-86233000D01*
X142113000Y-86233000D01*
X142113000Y-85039845D01*
X142367000Y-85039845D01*
X142367000Y-86233000D01*
X143560814Y-86233000D01*
X143681481Y-86003109D01*
X143584157Y-85728748D01*
X143435178Y-85478645D01*
X143240269Y-85262412D01*
X143006920Y-85088359D01*
X142744099Y-84963175D01*
X142596890Y-84918524D01*
X142367000Y-85039845D01*
X142113000Y-85039845D01*
X141883110Y-84918524D01*
X141735901Y-84963175D01*
X141473080Y-85088359D01*
X141239731Y-85262412D01*
X141044822Y-85478645D01*
X140975195Y-85595534D01*
X140853475Y-85413368D01*
X140646632Y-85206525D01*
X140403411Y-85044010D01*
X140133158Y-84932068D01*
X139846260Y-84875000D01*
X139553740Y-84875000D01*
X139266842Y-84932068D01*
X138996589Y-85044010D01*
X138753368Y-85206525D01*
X138621513Y-85338380D01*
X138599502Y-85265820D01*
X138540537Y-85155506D01*
X138461185Y-85058815D01*
X138364494Y-84979463D01*
X138254180Y-84920498D01*
X138134482Y-84884188D01*
X138010000Y-84871928D01*
X137108768Y-84871928D01*
X137016000Y-84779160D01*
X137016000Y-80781000D01*
X138198850Y-80781000D01*
X138256613Y-80828405D01*
X138410149Y-80910472D01*
X138576745Y-80961008D01*
X138749999Y-80978072D01*
X139650001Y-80978072D01*
X139823255Y-80961008D01*
X139989851Y-80910472D01*
X140143387Y-80828405D01*
X140277962Y-80717962D01*
X140388405Y-80583387D01*
X140470472Y-80429851D01*
X140497727Y-80340000D01*
X140901928Y-80340000D01*
X140914188Y-80464482D01*
X140950498Y-80584180D01*
X141009463Y-80694494D01*
X141088815Y-80791185D01*
X141185506Y-80870537D01*
X141295820Y-80929502D01*
X141415518Y-80965812D01*
X141540000Y-80978072D01*
X141954250Y-80975000D01*
X142113000Y-80816250D01*
X142113000Y-79892000D01*
X142367000Y-79892000D01*
X142367000Y-80816250D01*
X142525750Y-80975000D01*
X142940000Y-80978072D01*
X143064482Y-80965812D01*
X143184180Y-80929502D01*
X143294494Y-80870537D01*
X143391185Y-80791185D01*
X143470537Y-80694494D01*
X143529502Y-80584180D01*
X143565812Y-80464482D01*
X143578072Y-80340000D01*
X143575000Y-80050750D01*
X143416250Y-79892000D01*
X142367000Y-79892000D01*
X142113000Y-79892000D01*
X141063750Y-79892000D01*
X140905000Y-80050750D01*
X140901928Y-80340000D01*
X140497727Y-80340000D01*
X140521008Y-80263255D01*
X140538072Y-80090001D01*
X140538072Y-79439999D01*
X140521008Y-79266745D01*
X140470472Y-79100149D01*
X140388405Y-78946613D01*
X140277962Y-78812038D01*
X140190184Y-78740000D01*
X140201150Y-78731000D01*
X141098338Y-78731000D01*
X141088815Y-78738815D01*
X141009463Y-78835506D01*
X140950498Y-78945820D01*
X140914188Y-79065518D01*
X140901928Y-79190000D01*
X140905000Y-79479250D01*
X141063750Y-79638000D01*
X142113000Y-79638000D01*
X142113000Y-79618000D01*
X142367000Y-79618000D01*
X142367000Y-79638000D01*
X143416250Y-79638000D01*
X143575000Y-79479250D01*
X143578072Y-79190000D01*
X143565812Y-79065518D01*
X143529502Y-78945820D01*
X143470537Y-78835506D01*
X143391185Y-78738815D01*
X143311406Y-78673342D01*
X143317962Y-78667962D01*
X143428405Y-78533387D01*
X143510472Y-78379851D01*
X143561008Y-78213255D01*
X143578072Y-78040001D01*
X143578072Y-77389999D01*
X143561008Y-77216745D01*
X143510472Y-77050149D01*
X143428405Y-76896613D01*
X143317962Y-76762038D01*
X143183387Y-76651595D01*
X143029851Y-76569528D01*
X142863255Y-76518992D01*
X142690001Y-76501928D01*
X141789999Y-76501928D01*
X141616745Y-76518992D01*
X141450149Y-76569528D01*
X141296613Y-76651595D01*
X141238850Y-76699000D01*
X140201150Y-76699000D01*
X140143387Y-76651595D01*
X139989851Y-76569528D01*
X139823255Y-76518992D01*
X139650001Y-76501928D01*
X138749999Y-76501928D01*
X138576745Y-76518992D01*
X138410149Y-76569528D01*
X138256613Y-76651595D01*
X138122038Y-76762038D01*
X138011595Y-76896613D01*
X137929528Y-77050149D01*
X137878992Y-77216745D01*
X137861928Y-77389999D01*
X137861928Y-78040001D01*
X137878992Y-78213255D01*
X137929528Y-78379851D01*
X138011595Y-78533387D01*
X138122038Y-78667962D01*
X138209816Y-78740000D01*
X138198850Y-78749000D01*
X137141662Y-78749000D01*
X137151185Y-78741185D01*
X137230537Y-78644494D01*
X137289502Y-78534180D01*
X137325812Y-78414482D01*
X137338072Y-78290000D01*
X137335000Y-78000750D01*
X137176250Y-77842000D01*
X136127000Y-77842000D01*
X136127000Y-77862000D01*
X135873000Y-77862000D01*
X135873000Y-77842000D01*
X134823750Y-77842000D01*
X134665000Y-78000750D01*
X134661928Y-78290000D01*
X134674188Y-78414482D01*
X134710498Y-78534180D01*
X134769463Y-78644494D01*
X134848815Y-78741185D01*
X134928594Y-78806658D01*
X134922038Y-78812038D01*
X134915590Y-78819894D01*
X134909312Y-78821799D01*
X134732810Y-78916141D01*
X134616865Y-79011294D01*
X130062160Y-83566000D01*
X126150841Y-83566000D01*
X125476000Y-82891160D01*
X125476000Y-82408496D01*
X125584482Y-82397812D01*
X125704180Y-82361502D01*
X125814494Y-82302537D01*
X125911185Y-82223185D01*
X125990537Y-82126494D01*
X126015191Y-82080370D01*
X126225537Y-82220918D01*
X126523088Y-82344168D01*
X126838967Y-82407000D01*
X127161033Y-82407000D01*
X127476912Y-82344168D01*
X127774463Y-82220918D01*
X128042252Y-82041987D01*
X128176826Y-81907413D01*
X128584192Y-81907413D01*
X128679956Y-82171814D01*
X128969571Y-82312704D01*
X129281108Y-82394384D01*
X129602595Y-82413718D01*
X129921675Y-82369961D01*
X130226088Y-82264795D01*
X130400044Y-82171814D01*
X130495808Y-81907413D01*
X129540000Y-80951605D01*
X128584192Y-81907413D01*
X128176826Y-81907413D01*
X128269987Y-81814252D01*
X128342720Y-81705400D01*
X128404587Y-81727808D01*
X129360395Y-80772000D01*
X129719605Y-80772000D01*
X130675413Y-81727808D01*
X130939814Y-81632044D01*
X131080704Y-81342429D01*
X131162384Y-81030892D01*
X131181718Y-80709405D01*
X131137961Y-80390325D01*
X131032795Y-80085912D01*
X130939814Y-79911956D01*
X130675413Y-79816192D01*
X129719605Y-80772000D01*
X129360395Y-80772000D01*
X128404587Y-79816192D01*
X128342720Y-79838600D01*
X128269987Y-79729748D01*
X128176826Y-79636587D01*
X128584192Y-79636587D01*
X129540000Y-80592395D01*
X130495808Y-79636587D01*
X130400044Y-79372186D01*
X130110429Y-79231296D01*
X129798892Y-79149616D01*
X129477405Y-79130282D01*
X129158325Y-79174039D01*
X128853912Y-79279205D01*
X128679956Y-79372186D01*
X128584192Y-79636587D01*
X128176826Y-79636587D01*
X128042252Y-79502013D01*
X128016000Y-79484472D01*
X128016000Y-77140000D01*
X134661928Y-77140000D01*
X134665000Y-77429250D01*
X134823750Y-77588000D01*
X135873000Y-77588000D01*
X135873000Y-76663750D01*
X136127000Y-76663750D01*
X136127000Y-77588000D01*
X137176250Y-77588000D01*
X137335000Y-77429250D01*
X137338072Y-77140000D01*
X137325812Y-77015518D01*
X137289502Y-76895820D01*
X137230537Y-76785506D01*
X137151185Y-76688815D01*
X137054494Y-76609463D01*
X136944180Y-76550498D01*
X136824482Y-76514188D01*
X136700000Y-76501928D01*
X136285750Y-76505000D01*
X136127000Y-76663750D01*
X135873000Y-76663750D01*
X135714250Y-76505000D01*
X135300000Y-76501928D01*
X135175518Y-76514188D01*
X135055820Y-76550498D01*
X134945506Y-76609463D01*
X134848815Y-76688815D01*
X134769463Y-76785506D01*
X134710498Y-76895820D01*
X134674188Y-77015518D01*
X134661928Y-77140000D01*
X128016000Y-77140000D01*
X128016000Y-73910840D01*
X129461133Y-72465708D01*
X129499896Y-72433896D01*
X129626860Y-72279190D01*
X129721202Y-72102687D01*
X129779298Y-71911171D01*
X129794000Y-71761902D01*
X129798915Y-71712000D01*
X129794000Y-71662098D01*
X129794000Y-71588072D01*
X129878000Y-71588072D01*
X130002482Y-71575812D01*
X130122180Y-71539502D01*
X130232494Y-71480537D01*
X130329185Y-71401185D01*
X130408537Y-71304494D01*
X130467502Y-71194180D01*
X130503812Y-71074482D01*
X130516072Y-70950000D01*
X130516072Y-68750000D01*
X130503812Y-68625518D01*
X130467502Y-68505820D01*
X130408537Y-68395506D01*
X130351495Y-68326000D01*
X134707160Y-68326000D01*
X135052394Y-68671235D01*
X135011500Y-68712129D01*
X134816153Y-69004485D01*
X134681596Y-69329335D01*
X134613000Y-69674193D01*
X134613000Y-70025807D01*
X134681596Y-70370665D01*
X134816153Y-70695515D01*
X135011500Y-70987871D01*
X135260129Y-71236500D01*
X135552485Y-71431847D01*
X135877335Y-71566404D01*
X136222193Y-71635000D01*
X136573807Y-71635000D01*
X136918665Y-71566404D01*
X137243515Y-71431847D01*
X137535871Y-71236500D01*
X137784500Y-70987871D01*
X137809804Y-70950000D01*
X139739928Y-70950000D01*
X139752188Y-71074482D01*
X139788498Y-71194180D01*
X139847463Y-71304494D01*
X139926815Y-71401185D01*
X140023506Y-71480537D01*
X140133820Y-71539502D01*
X140253518Y-71575812D01*
X140378000Y-71588072D01*
X141192250Y-71585000D01*
X141351000Y-71426250D01*
X141351000Y-69977000D01*
X141605000Y-69977000D01*
X141605000Y-71426250D01*
X141763750Y-71585000D01*
X142578000Y-71588072D01*
X142702482Y-71575812D01*
X142822180Y-71539502D01*
X142932494Y-71480537D01*
X143029185Y-71401185D01*
X143108537Y-71304494D01*
X143167502Y-71194180D01*
X143203812Y-71074482D01*
X143216072Y-70950000D01*
X143213000Y-70135750D01*
X143054250Y-69977000D01*
X141605000Y-69977000D01*
X141351000Y-69977000D01*
X139901750Y-69977000D01*
X139743000Y-70135750D01*
X139739928Y-70950000D01*
X137809804Y-70950000D01*
X137979847Y-70695515D01*
X138114404Y-70370665D01*
X138183000Y-70025807D01*
X138183000Y-69674193D01*
X138114404Y-69329335D01*
X137979847Y-69004485D01*
X137809805Y-68750000D01*
X139739928Y-68750000D01*
X139743000Y-69564250D01*
X139901750Y-69723000D01*
X141351000Y-69723000D01*
X141351000Y-68273750D01*
X141605000Y-68273750D01*
X141605000Y-69723000D01*
X143054250Y-69723000D01*
X143213000Y-69564250D01*
X143216072Y-68750000D01*
X143203812Y-68625518D01*
X143167502Y-68505820D01*
X143108537Y-68395506D01*
X143029185Y-68298815D01*
X142932494Y-68219463D01*
X142822180Y-68160498D01*
X142702482Y-68124188D01*
X142578000Y-68111928D01*
X141763750Y-68115000D01*
X141605000Y-68273750D01*
X141351000Y-68273750D01*
X141192250Y-68115000D01*
X140378000Y-68111928D01*
X140253518Y-68124188D01*
X140133820Y-68160498D01*
X140023506Y-68219463D01*
X139926815Y-68298815D01*
X139847463Y-68395506D01*
X139788498Y-68505820D01*
X139752188Y-68625518D01*
X139739928Y-68750000D01*
X137809805Y-68750000D01*
X137784500Y-68712129D01*
X137535871Y-68463500D01*
X137396032Y-68370062D01*
X137341202Y-68189313D01*
X137246860Y-68012810D01*
X137119896Y-67858104D01*
X137081133Y-67826292D01*
X135881712Y-66626872D01*
X135849896Y-66588104D01*
X135695190Y-66461140D01*
X135518687Y-66366798D01*
X135327171Y-66308702D01*
X135177902Y-66294000D01*
X135128000Y-66289085D01*
X135078098Y-66294000D01*
X125017893Y-66294000D01*
X124967999Y-66289086D01*
X124918105Y-66294000D01*
X124918098Y-66294000D01*
X124768829Y-66308702D01*
X124577313Y-66366798D01*
X124400810Y-66461140D01*
X124246104Y-66588104D01*
X124214292Y-66626867D01*
X123014868Y-67826292D01*
X122976105Y-67858104D01*
X122849141Y-68012810D01*
X122821245Y-68065000D01*
X122754799Y-68189313D01*
X122699969Y-68370062D01*
X122560129Y-68463500D01*
X122311500Y-68712129D01*
X122116153Y-69004485D01*
X121981596Y-69329335D01*
X121913000Y-69674193D01*
X116660000Y-69674193D01*
X116660000Y-63660000D01*
X148740001Y-63660000D01*
X148740001Y-74430688D01*
G36*
X148740001Y-74430688D02*
G01*
X148593071Y-74283758D01*
X148135455Y-73977989D01*
X147626980Y-73767372D01*
X147087185Y-73660000D01*
X146536815Y-73660000D01*
X145997020Y-73767372D01*
X145488545Y-73977989D01*
X145030929Y-74283758D01*
X144641758Y-74672929D01*
X144335989Y-75130545D01*
X144125372Y-75639020D01*
X144018000Y-76178815D01*
X144018000Y-76729185D01*
X144125372Y-77268980D01*
X144335989Y-77777455D01*
X144641758Y-78235071D01*
X145030929Y-78624242D01*
X145488545Y-78930011D01*
X145997020Y-79140628D01*
X146536815Y-79248000D01*
X147087185Y-79248000D01*
X147626980Y-79140628D01*
X148135455Y-78930011D01*
X148593071Y-78624242D01*
X148740000Y-78477313D01*
X148740000Y-87940000D01*
X116660000Y-87940000D01*
X116660000Y-78447313D01*
X116836929Y-78624242D01*
X117294545Y-78930011D01*
X117803020Y-79140628D01*
X118342815Y-79248000D01*
X118893185Y-79248000D01*
X119432980Y-79140628D01*
X119941455Y-78930011D01*
X120399071Y-78624242D01*
X120788242Y-78235071D01*
X121094011Y-77777455D01*
X121304628Y-77268980D01*
X121412000Y-76729185D01*
X121412000Y-76178815D01*
X121304628Y-75639020D01*
X121094011Y-75130545D01*
X120788242Y-74672929D01*
X120399071Y-74283758D01*
X119941455Y-73977989D01*
X119432980Y-73767372D01*
X118893185Y-73660000D01*
X118342815Y-73660000D01*
X117803020Y-73767372D01*
X117294545Y-73977989D01*
X116836929Y-74283758D01*
X116660000Y-74460687D01*
X116660000Y-69674193D01*
X121913000Y-69674193D01*
X121913000Y-70025807D01*
X121981596Y-70370665D01*
X122116153Y-70695515D01*
X122311500Y-70987871D01*
X122560129Y-71236500D01*
X122852485Y-71431847D01*
X123177335Y-71566404D01*
X123522193Y-71635000D01*
X123873807Y-71635000D01*
X124218665Y-71566404D01*
X124543515Y-71431847D01*
X124835871Y-71236500D01*
X125084500Y-70987871D01*
X125279847Y-70695515D01*
X125414404Y-70370665D01*
X125483000Y-70025807D01*
X125483000Y-69674193D01*
X125414404Y-69329335D01*
X125279847Y-69004485D01*
X125084500Y-68712129D01*
X125043606Y-68671235D01*
X125388841Y-68326000D01*
X127204505Y-68326000D01*
X127147463Y-68395506D01*
X127088498Y-68505820D01*
X127052188Y-68625518D01*
X127039928Y-68750000D01*
X127039928Y-70950000D01*
X127052188Y-71074482D01*
X127088498Y-71194180D01*
X127147463Y-71304494D01*
X127226815Y-71401185D01*
X127323506Y-71480537D01*
X127433820Y-71539502D01*
X127495076Y-71558084D01*
X126316872Y-72736288D01*
X126278104Y-72768104D01*
X126151140Y-72922810D01*
X126056798Y-73099314D01*
X126042307Y-73147085D01*
X125998702Y-73290830D01*
X125979085Y-73490000D01*
X125984000Y-73539902D01*
X125984000Y-74217902D01*
X125984001Y-74217912D01*
X125984000Y-79409541D01*
X125911185Y-79320815D01*
X125814494Y-79241463D01*
X125704180Y-79182498D01*
X125584482Y-79146188D01*
X125460000Y-79133928D01*
X123460000Y-79133928D01*
X123335518Y-79146188D01*
X123215820Y-79182498D01*
X123105506Y-79241463D01*
X123008815Y-79320815D01*
X122929463Y-79417506D01*
X122870498Y-79527820D01*
X122834188Y-79647518D01*
X122821928Y-79772000D01*
X122821928Y-81772000D01*
X122834188Y-81896482D01*
X122870498Y-82016180D01*
X122929463Y-82126494D01*
X123008815Y-82223185D01*
X123105506Y-82302537D01*
X123215820Y-82361502D01*
X123335518Y-82397812D01*
X123444001Y-82408496D01*
X123444001Y-82500089D01*
X123444000Y-82500099D01*
X123444000Y-83262098D01*
X123439085Y-83312000D01*
X123458702Y-83511170D01*
X123470875Y-83551298D01*
X123516799Y-83702687D01*
X123611141Y-83879190D01*
X123738105Y-84033896D01*
X123776868Y-84065708D01*
X124976292Y-85265133D01*
X125008104Y-85303896D01*
X125162810Y-85430860D01*
X125339313Y-85525202D01*
X125530829Y-85583298D01*
X125680098Y-85598000D01*
X125680105Y-85598000D01*
X125729999Y-85602914D01*
X125779893Y-85598000D01*
X130605902Y-85598000D01*
X130755171Y-85583298D01*
X130946687Y-85525202D01*
X131123190Y-85430860D01*
X131277896Y-85303896D01*
X131404860Y-85149190D01*
X131464810Y-85037030D01*
X134984000Y-81517840D01*
X134984001Y-85150088D01*
X134979085Y-85200000D01*
X134998702Y-85399170D01*
X135032413Y-85510298D01*
X135056799Y-85590687D01*
X135151141Y-85767190D01*
X135278105Y-85921896D01*
X135316868Y-85953708D01*
X135671928Y-86308768D01*
X135671928Y-87210000D01*
X135684188Y-87334482D01*
X135720498Y-87454180D01*
X135779463Y-87564494D01*
X135858815Y-87661185D01*
X135955506Y-87740537D01*
X136065820Y-87799502D01*
X136185518Y-87835812D01*
X136310000Y-87848072D01*
X138010000Y-87848072D01*
X138134482Y-87835812D01*
X138254180Y-87799502D01*
X138364494Y-87740537D01*
X138461185Y-87661185D01*
X138540537Y-87564494D01*
X138599502Y-87454180D01*
X138621513Y-87381620D01*
X138753368Y-87513475D01*
X138996589Y-87675990D01*
X139266842Y-87787932D01*
X139553740Y-87845000D01*
X139846260Y-87845000D01*
X140133158Y-87787932D01*
X140403411Y-87675990D01*
X140646632Y-87513475D01*
X140853475Y-87306632D01*
X140975195Y-87124466D01*
X141044822Y-87241355D01*
X141239731Y-87457588D01*
X141473080Y-87631641D01*
X141735901Y-87756825D01*
X141883110Y-87801476D01*
X142113000Y-87680155D01*
X142113000Y-86487000D01*
X142367000Y-86487000D01*
X142367000Y-87680155D01*
X142596890Y-87801476D01*
X142744099Y-87756825D01*
X143006920Y-87631641D01*
X143240269Y-87457588D01*
X143435178Y-87241355D01*
X143584157Y-86991252D01*
X143681481Y-86716891D01*
X143560814Y-86487000D01*
X142367000Y-86487000D01*
X142113000Y-86487000D01*
X142093000Y-86487000D01*
X142093000Y-86233000D01*
X142113000Y-86233000D01*
X142113000Y-85039845D01*
X142367000Y-85039845D01*
X142367000Y-86233000D01*
X143560814Y-86233000D01*
X143681481Y-86003109D01*
X143584157Y-85728748D01*
X143435178Y-85478645D01*
X143240269Y-85262412D01*
X143006920Y-85088359D01*
X142744099Y-84963175D01*
X142596890Y-84918524D01*
X142367000Y-85039845D01*
X142113000Y-85039845D01*
X141883110Y-84918524D01*
X141735901Y-84963175D01*
X141473080Y-85088359D01*
X141239731Y-85262412D01*
X141044822Y-85478645D01*
X140975195Y-85595534D01*
X140853475Y-85413368D01*
X140646632Y-85206525D01*
X140403411Y-85044010D01*
X140133158Y-84932068D01*
X139846260Y-84875000D01*
X139553740Y-84875000D01*
X139266842Y-84932068D01*
X138996589Y-85044010D01*
X138753368Y-85206525D01*
X138621513Y-85338380D01*
X138599502Y-85265820D01*
X138540537Y-85155506D01*
X138461185Y-85058815D01*
X138364494Y-84979463D01*
X138254180Y-84920498D01*
X138134482Y-84884188D01*
X138010000Y-84871928D01*
X137108768Y-84871928D01*
X137016000Y-84779160D01*
X137016000Y-80781000D01*
X138198850Y-80781000D01*
X138256613Y-80828405D01*
X138410149Y-80910472D01*
X138576745Y-80961008D01*
X138749999Y-80978072D01*
X139650001Y-80978072D01*
X139823255Y-80961008D01*
X139989851Y-80910472D01*
X140143387Y-80828405D01*
X140277962Y-80717962D01*
X140388405Y-80583387D01*
X140470472Y-80429851D01*
X140497727Y-80340000D01*
X140901928Y-80340000D01*
X140914188Y-80464482D01*
X140950498Y-80584180D01*
X141009463Y-80694494D01*
X141088815Y-80791185D01*
X141185506Y-80870537D01*
X141295820Y-80929502D01*
X141415518Y-80965812D01*
X141540000Y-80978072D01*
X141954250Y-80975000D01*
X142113000Y-80816250D01*
X142113000Y-79892000D01*
X142367000Y-79892000D01*
X142367000Y-80816250D01*
X142525750Y-80975000D01*
X142940000Y-80978072D01*
X143064482Y-80965812D01*
X143184180Y-80929502D01*
X143294494Y-80870537D01*
X143391185Y-80791185D01*
X143470537Y-80694494D01*
X143529502Y-80584180D01*
X143565812Y-80464482D01*
X143578072Y-80340000D01*
X143575000Y-80050750D01*
X143416250Y-79892000D01*
X142367000Y-79892000D01*
X142113000Y-79892000D01*
X141063750Y-79892000D01*
X140905000Y-80050750D01*
X140901928Y-80340000D01*
X140497727Y-80340000D01*
X140521008Y-80263255D01*
X140538072Y-80090001D01*
X140538072Y-79439999D01*
X140521008Y-79266745D01*
X140470472Y-79100149D01*
X140388405Y-78946613D01*
X140277962Y-78812038D01*
X140190184Y-78740000D01*
X140201150Y-78731000D01*
X141098338Y-78731000D01*
X141088815Y-78738815D01*
X141009463Y-78835506D01*
X140950498Y-78945820D01*
X140914188Y-79065518D01*
X140901928Y-79190000D01*
X140905000Y-79479250D01*
X141063750Y-79638000D01*
X142113000Y-79638000D01*
X142113000Y-79618000D01*
X142367000Y-79618000D01*
X142367000Y-79638000D01*
X143416250Y-79638000D01*
X143575000Y-79479250D01*
X143578072Y-79190000D01*
X143565812Y-79065518D01*
X143529502Y-78945820D01*
X143470537Y-78835506D01*
X143391185Y-78738815D01*
X143311406Y-78673342D01*
X143317962Y-78667962D01*
X143428405Y-78533387D01*
X143510472Y-78379851D01*
X143561008Y-78213255D01*
X143578072Y-78040001D01*
X143578072Y-77389999D01*
X143561008Y-77216745D01*
X143510472Y-77050149D01*
X143428405Y-76896613D01*
X143317962Y-76762038D01*
X143183387Y-76651595D01*
X143029851Y-76569528D01*
X142863255Y-76518992D01*
X142690001Y-76501928D01*
X141789999Y-76501928D01*
X141616745Y-76518992D01*
X141450149Y-76569528D01*
X141296613Y-76651595D01*
X141238850Y-76699000D01*
X140201150Y-76699000D01*
X140143387Y-76651595D01*
X139989851Y-76569528D01*
X139823255Y-76518992D01*
X139650001Y-76501928D01*
X138749999Y-76501928D01*
X138576745Y-76518992D01*
X138410149Y-76569528D01*
X138256613Y-76651595D01*
X138122038Y-76762038D01*
X138011595Y-76896613D01*
X137929528Y-77050149D01*
X137878992Y-77216745D01*
X137861928Y-77389999D01*
X137861928Y-78040001D01*
X137878992Y-78213255D01*
X137929528Y-78379851D01*
X138011595Y-78533387D01*
X138122038Y-78667962D01*
X138209816Y-78740000D01*
X138198850Y-78749000D01*
X137141662Y-78749000D01*
X137151185Y-78741185D01*
X137230537Y-78644494D01*
X137289502Y-78534180D01*
X137325812Y-78414482D01*
X137338072Y-78290000D01*
X137335000Y-78000750D01*
X137176250Y-77842000D01*
X136127000Y-77842000D01*
X136127000Y-77862000D01*
X135873000Y-77862000D01*
X135873000Y-77842000D01*
X134823750Y-77842000D01*
X134665000Y-78000750D01*
X134661928Y-78290000D01*
X134674188Y-78414482D01*
X134710498Y-78534180D01*
X134769463Y-78644494D01*
X134848815Y-78741185D01*
X134928594Y-78806658D01*
X134922038Y-78812038D01*
X134915590Y-78819894D01*
X134909312Y-78821799D01*
X134732810Y-78916141D01*
X134616865Y-79011294D01*
X130062160Y-83566000D01*
X126150841Y-83566000D01*
X125476000Y-82891160D01*
X125476000Y-82408496D01*
X125584482Y-82397812D01*
X125704180Y-82361502D01*
X125814494Y-82302537D01*
X125911185Y-82223185D01*
X125990537Y-82126494D01*
X126015191Y-82080370D01*
X126225537Y-82220918D01*
X126523088Y-82344168D01*
X126838967Y-82407000D01*
X127161033Y-82407000D01*
X127476912Y-82344168D01*
X127774463Y-82220918D01*
X128042252Y-82041987D01*
X128176826Y-81907413D01*
X128584192Y-81907413D01*
X128679956Y-82171814D01*
X128969571Y-82312704D01*
X129281108Y-82394384D01*
X129602595Y-82413718D01*
X129921675Y-82369961D01*
X130226088Y-82264795D01*
X130400044Y-82171814D01*
X130495808Y-81907413D01*
X129540000Y-80951605D01*
X128584192Y-81907413D01*
X128176826Y-81907413D01*
X128269987Y-81814252D01*
X128342720Y-81705400D01*
X128404587Y-81727808D01*
X129360395Y-80772000D01*
X129719605Y-80772000D01*
X130675413Y-81727808D01*
X130939814Y-81632044D01*
X131080704Y-81342429D01*
X131162384Y-81030892D01*
X131181718Y-80709405D01*
X131137961Y-80390325D01*
X131032795Y-80085912D01*
X130939814Y-79911956D01*
X130675413Y-79816192D01*
X129719605Y-80772000D01*
X129360395Y-80772000D01*
X128404587Y-79816192D01*
X128342720Y-79838600D01*
X128269987Y-79729748D01*
X128176826Y-79636587D01*
X128584192Y-79636587D01*
X129540000Y-80592395D01*
X130495808Y-79636587D01*
X130400044Y-79372186D01*
X130110429Y-79231296D01*
X129798892Y-79149616D01*
X129477405Y-79130282D01*
X129158325Y-79174039D01*
X128853912Y-79279205D01*
X128679956Y-79372186D01*
X128584192Y-79636587D01*
X128176826Y-79636587D01*
X128042252Y-79502013D01*
X128016000Y-79484472D01*
X128016000Y-77140000D01*
X134661928Y-77140000D01*
X134665000Y-77429250D01*
X134823750Y-77588000D01*
X135873000Y-77588000D01*
X135873000Y-76663750D01*
X136127000Y-76663750D01*
X136127000Y-77588000D01*
X137176250Y-77588000D01*
X137335000Y-77429250D01*
X137338072Y-77140000D01*
X137325812Y-77015518D01*
X137289502Y-76895820D01*
X137230537Y-76785506D01*
X137151185Y-76688815D01*
X137054494Y-76609463D01*
X136944180Y-76550498D01*
X136824482Y-76514188D01*
X136700000Y-76501928D01*
X136285750Y-76505000D01*
X136127000Y-76663750D01*
X135873000Y-76663750D01*
X135714250Y-76505000D01*
X135300000Y-76501928D01*
X135175518Y-76514188D01*
X135055820Y-76550498D01*
X134945506Y-76609463D01*
X134848815Y-76688815D01*
X134769463Y-76785506D01*
X134710498Y-76895820D01*
X134674188Y-77015518D01*
X134661928Y-77140000D01*
X128016000Y-77140000D01*
X128016000Y-73910840D01*
X129461133Y-72465708D01*
X129499896Y-72433896D01*
X129626860Y-72279190D01*
X129721202Y-72102687D01*
X129779298Y-71911171D01*
X129794000Y-71761902D01*
X129798915Y-71712000D01*
X129794000Y-71662098D01*
X129794000Y-71588072D01*
X129878000Y-71588072D01*
X130002482Y-71575812D01*
X130122180Y-71539502D01*
X130232494Y-71480537D01*
X130329185Y-71401185D01*
X130408537Y-71304494D01*
X130467502Y-71194180D01*
X130503812Y-71074482D01*
X130516072Y-70950000D01*
X130516072Y-68750000D01*
X130503812Y-68625518D01*
X130467502Y-68505820D01*
X130408537Y-68395506D01*
X130351495Y-68326000D01*
X134707160Y-68326000D01*
X135052394Y-68671235D01*
X135011500Y-68712129D01*
X134816153Y-69004485D01*
X134681596Y-69329335D01*
X134613000Y-69674193D01*
X134613000Y-70025807D01*
X134681596Y-70370665D01*
X134816153Y-70695515D01*
X135011500Y-70987871D01*
X135260129Y-71236500D01*
X135552485Y-71431847D01*
X135877335Y-71566404D01*
X136222193Y-71635000D01*
X136573807Y-71635000D01*
X136918665Y-71566404D01*
X137243515Y-71431847D01*
X137535871Y-71236500D01*
X137784500Y-70987871D01*
X137809804Y-70950000D01*
X139739928Y-70950000D01*
X139752188Y-71074482D01*
X139788498Y-71194180D01*
X139847463Y-71304494D01*
X139926815Y-71401185D01*
X140023506Y-71480537D01*
X140133820Y-71539502D01*
X140253518Y-71575812D01*
X140378000Y-71588072D01*
X141192250Y-71585000D01*
X141351000Y-71426250D01*
X141351000Y-69977000D01*
X141605000Y-69977000D01*
X141605000Y-71426250D01*
X141763750Y-71585000D01*
X142578000Y-71588072D01*
X142702482Y-71575812D01*
X142822180Y-71539502D01*
X142932494Y-71480537D01*
X143029185Y-71401185D01*
X143108537Y-71304494D01*
X143167502Y-71194180D01*
X143203812Y-71074482D01*
X143216072Y-70950000D01*
X143213000Y-70135750D01*
X143054250Y-69977000D01*
X141605000Y-69977000D01*
X141351000Y-69977000D01*
X139901750Y-69977000D01*
X139743000Y-70135750D01*
X139739928Y-70950000D01*
X137809804Y-70950000D01*
X137979847Y-70695515D01*
X138114404Y-70370665D01*
X138183000Y-70025807D01*
X138183000Y-69674193D01*
X138114404Y-69329335D01*
X137979847Y-69004485D01*
X137809805Y-68750000D01*
X139739928Y-68750000D01*
X139743000Y-69564250D01*
X139901750Y-69723000D01*
X141351000Y-69723000D01*
X141351000Y-68273750D01*
X141605000Y-68273750D01*
X141605000Y-69723000D01*
X143054250Y-69723000D01*
X143213000Y-69564250D01*
X143216072Y-68750000D01*
X143203812Y-68625518D01*
X143167502Y-68505820D01*
X143108537Y-68395506D01*
X143029185Y-68298815D01*
X142932494Y-68219463D01*
X142822180Y-68160498D01*
X142702482Y-68124188D01*
X142578000Y-68111928D01*
X141763750Y-68115000D01*
X141605000Y-68273750D01*
X141351000Y-68273750D01*
X141192250Y-68115000D01*
X140378000Y-68111928D01*
X140253518Y-68124188D01*
X140133820Y-68160498D01*
X140023506Y-68219463D01*
X139926815Y-68298815D01*
X139847463Y-68395506D01*
X139788498Y-68505820D01*
X139752188Y-68625518D01*
X139739928Y-68750000D01*
X137809805Y-68750000D01*
X137784500Y-68712129D01*
X137535871Y-68463500D01*
X137396032Y-68370062D01*
X137341202Y-68189313D01*
X137246860Y-68012810D01*
X137119896Y-67858104D01*
X137081133Y-67826292D01*
X135881712Y-66626872D01*
X135849896Y-66588104D01*
X135695190Y-66461140D01*
X135518687Y-66366798D01*
X135327171Y-66308702D01*
X135177902Y-66294000D01*
X135128000Y-66289085D01*
X135078098Y-66294000D01*
X125017893Y-66294000D01*
X124967999Y-66289086D01*
X124918105Y-66294000D01*
X124918098Y-66294000D01*
X124768829Y-66308702D01*
X124577313Y-66366798D01*
X124400810Y-66461140D01*
X124246104Y-66588104D01*
X124214292Y-66626867D01*
X123014868Y-67826292D01*
X122976105Y-67858104D01*
X122849141Y-68012810D01*
X122821245Y-68065000D01*
X122754799Y-68189313D01*
X122699969Y-68370062D01*
X122560129Y-68463500D01*
X122311500Y-68712129D01*
X122116153Y-69004485D01*
X121981596Y-69329335D01*
X121913000Y-69674193D01*
X116660000Y-69674193D01*
X116660000Y-63660000D01*
X148740001Y-63660000D01*
X148740001Y-74430688D01*
G37*
X148740001Y-74430688D02*
X148593071Y-74283758D01*
X148135455Y-73977989D01*
X147626980Y-73767372D01*
X147087185Y-73660000D01*
X146536815Y-73660000D01*
X145997020Y-73767372D01*
X145488545Y-73977989D01*
X145030929Y-74283758D01*
X144641758Y-74672929D01*
X144335989Y-75130545D01*
X144125372Y-75639020D01*
X144018000Y-76178815D01*
X144018000Y-76729185D01*
X144125372Y-77268980D01*
X144335989Y-77777455D01*
X144641758Y-78235071D01*
X145030929Y-78624242D01*
X145488545Y-78930011D01*
X145997020Y-79140628D01*
X146536815Y-79248000D01*
X147087185Y-79248000D01*
X147626980Y-79140628D01*
X148135455Y-78930011D01*
X148593071Y-78624242D01*
X148740000Y-78477313D01*
X148740000Y-87940000D01*
X116660000Y-87940000D01*
X116660000Y-78447313D01*
X116836929Y-78624242D01*
X117294545Y-78930011D01*
X117803020Y-79140628D01*
X118342815Y-79248000D01*
X118893185Y-79248000D01*
X119432980Y-79140628D01*
X119941455Y-78930011D01*
X120399071Y-78624242D01*
X120788242Y-78235071D01*
X121094011Y-77777455D01*
X121304628Y-77268980D01*
X121412000Y-76729185D01*
X121412000Y-76178815D01*
X121304628Y-75639020D01*
X121094011Y-75130545D01*
X120788242Y-74672929D01*
X120399071Y-74283758D01*
X119941455Y-73977989D01*
X119432980Y-73767372D01*
X118893185Y-73660000D01*
X118342815Y-73660000D01*
X117803020Y-73767372D01*
X117294545Y-73977989D01*
X116836929Y-74283758D01*
X116660000Y-74460687D01*
X116660000Y-69674193D01*
X121913000Y-69674193D01*
X121913000Y-70025807D01*
X121981596Y-70370665D01*
X122116153Y-70695515D01*
X122311500Y-70987871D01*
X122560129Y-71236500D01*
X122852485Y-71431847D01*
X123177335Y-71566404D01*
X123522193Y-71635000D01*
X123873807Y-71635000D01*
X124218665Y-71566404D01*
X124543515Y-71431847D01*
X124835871Y-71236500D01*
X125084500Y-70987871D01*
X125279847Y-70695515D01*
X125414404Y-70370665D01*
X125483000Y-70025807D01*
X125483000Y-69674193D01*
X125414404Y-69329335D01*
X125279847Y-69004485D01*
X125084500Y-68712129D01*
X125043606Y-68671235D01*
X125388841Y-68326000D01*
X127204505Y-68326000D01*
X127147463Y-68395506D01*
X127088498Y-68505820D01*
X127052188Y-68625518D01*
X127039928Y-68750000D01*
X127039928Y-70950000D01*
X127052188Y-71074482D01*
X127088498Y-71194180D01*
X127147463Y-71304494D01*
X127226815Y-71401185D01*
X127323506Y-71480537D01*
X127433820Y-71539502D01*
X127495076Y-71558084D01*
X126316872Y-72736288D01*
X126278104Y-72768104D01*
X126151140Y-72922810D01*
X126056798Y-73099314D01*
X126042307Y-73147085D01*
X125998702Y-73290830D01*
X125979085Y-73490000D01*
X125984000Y-73539902D01*
X125984000Y-74217902D01*
X125984001Y-74217912D01*
X125984000Y-79409541D01*
X125911185Y-79320815D01*
X125814494Y-79241463D01*
X125704180Y-79182498D01*
X125584482Y-79146188D01*
X125460000Y-79133928D01*
X123460000Y-79133928D01*
X123335518Y-79146188D01*
X123215820Y-79182498D01*
X123105506Y-79241463D01*
X123008815Y-79320815D01*
X122929463Y-79417506D01*
X122870498Y-79527820D01*
X122834188Y-79647518D01*
X122821928Y-79772000D01*
X122821928Y-81772000D01*
X122834188Y-81896482D01*
X122870498Y-82016180D01*
X122929463Y-82126494D01*
X123008815Y-82223185D01*
X123105506Y-82302537D01*
X123215820Y-82361502D01*
X123335518Y-82397812D01*
X123444001Y-82408496D01*
X123444001Y-82500089D01*
X123444000Y-82500099D01*
X123444000Y-83262098D01*
X123439085Y-83312000D01*
X123458702Y-83511170D01*
X123470875Y-83551298D01*
X123516799Y-83702687D01*
X123611141Y-83879190D01*
X123738105Y-84033896D01*
X123776868Y-84065708D01*
X124976292Y-85265133D01*
X125008104Y-85303896D01*
X125162810Y-85430860D01*
X125339313Y-85525202D01*
X125530829Y-85583298D01*
X125680098Y-85598000D01*
X125680105Y-85598000D01*
X125729999Y-85602914D01*
X125779893Y-85598000D01*
X130605902Y-85598000D01*
X130755171Y-85583298D01*
X130946687Y-85525202D01*
X131123190Y-85430860D01*
X131277896Y-85303896D01*
X131404860Y-85149190D01*
X131464810Y-85037030D01*
X134984000Y-81517840D01*
X134984001Y-85150088D01*
X134979085Y-85200000D01*
X134998702Y-85399170D01*
X135032413Y-85510298D01*
X135056799Y-85590687D01*
X135151141Y-85767190D01*
X135278105Y-85921896D01*
X135316868Y-85953708D01*
X135671928Y-86308768D01*
X135671928Y-87210000D01*
X135684188Y-87334482D01*
X135720498Y-87454180D01*
X135779463Y-87564494D01*
X135858815Y-87661185D01*
X135955506Y-87740537D01*
X136065820Y-87799502D01*
X136185518Y-87835812D01*
X136310000Y-87848072D01*
X138010000Y-87848072D01*
X138134482Y-87835812D01*
X138254180Y-87799502D01*
X138364494Y-87740537D01*
X138461185Y-87661185D01*
X138540537Y-87564494D01*
X138599502Y-87454180D01*
X138621513Y-87381620D01*
X138753368Y-87513475D01*
X138996589Y-87675990D01*
X139266842Y-87787932D01*
X139553740Y-87845000D01*
X139846260Y-87845000D01*
X140133158Y-87787932D01*
X140403411Y-87675990D01*
X140646632Y-87513475D01*
X140853475Y-87306632D01*
X140975195Y-87124466D01*
X141044822Y-87241355D01*
X141239731Y-87457588D01*
X141473080Y-87631641D01*
X141735901Y-87756825D01*
X141883110Y-87801476D01*
X142113000Y-87680155D01*
X142113000Y-86487000D01*
X142367000Y-86487000D01*
X142367000Y-87680155D01*
X142596890Y-87801476D01*
X142744099Y-87756825D01*
X143006920Y-87631641D01*
X143240269Y-87457588D01*
X143435178Y-87241355D01*
X143584157Y-86991252D01*
X143681481Y-86716891D01*
X143560814Y-86487000D01*
X142367000Y-86487000D01*
X142113000Y-86487000D01*
X142093000Y-86487000D01*
X142093000Y-86233000D01*
X142113000Y-86233000D01*
X142113000Y-85039845D01*
X142367000Y-85039845D01*
X142367000Y-86233000D01*
X143560814Y-86233000D01*
X143681481Y-86003109D01*
X143584157Y-85728748D01*
X143435178Y-85478645D01*
X143240269Y-85262412D01*
X143006920Y-85088359D01*
X142744099Y-84963175D01*
X142596890Y-84918524D01*
X142367000Y-85039845D01*
X142113000Y-85039845D01*
X141883110Y-84918524D01*
X141735901Y-84963175D01*
X141473080Y-85088359D01*
X141239731Y-85262412D01*
X141044822Y-85478645D01*
X140975195Y-85595534D01*
X140853475Y-85413368D01*
X140646632Y-85206525D01*
X140403411Y-85044010D01*
X140133158Y-84932068D01*
X139846260Y-84875000D01*
X139553740Y-84875000D01*
X139266842Y-84932068D01*
X138996589Y-85044010D01*
X138753368Y-85206525D01*
X138621513Y-85338380D01*
X138599502Y-85265820D01*
X138540537Y-85155506D01*
X138461185Y-85058815D01*
X138364494Y-84979463D01*
X138254180Y-84920498D01*
X138134482Y-84884188D01*
X138010000Y-84871928D01*
X137108768Y-84871928D01*
X137016000Y-84779160D01*
X137016000Y-80781000D01*
X138198850Y-80781000D01*
X138256613Y-80828405D01*
X138410149Y-80910472D01*
X138576745Y-80961008D01*
X138749999Y-80978072D01*
X139650001Y-80978072D01*
X139823255Y-80961008D01*
X139989851Y-80910472D01*
X140143387Y-80828405D01*
X140277962Y-80717962D01*
X140388405Y-80583387D01*
X140470472Y-80429851D01*
X140497727Y-80340000D01*
X140901928Y-80340000D01*
X140914188Y-80464482D01*
X140950498Y-80584180D01*
X141009463Y-80694494D01*
X141088815Y-80791185D01*
X141185506Y-80870537D01*
X141295820Y-80929502D01*
X141415518Y-80965812D01*
X141540000Y-80978072D01*
X141954250Y-80975000D01*
X142113000Y-80816250D01*
X142113000Y-79892000D01*
X142367000Y-79892000D01*
X142367000Y-80816250D01*
X142525750Y-80975000D01*
X142940000Y-80978072D01*
X143064482Y-80965812D01*
X143184180Y-80929502D01*
X143294494Y-80870537D01*
X143391185Y-80791185D01*
X143470537Y-80694494D01*
X143529502Y-80584180D01*
X143565812Y-80464482D01*
X143578072Y-80340000D01*
X143575000Y-80050750D01*
X143416250Y-79892000D01*
X142367000Y-79892000D01*
X142113000Y-79892000D01*
X141063750Y-79892000D01*
X140905000Y-80050750D01*
X140901928Y-80340000D01*
X140497727Y-80340000D01*
X140521008Y-80263255D01*
X140538072Y-80090001D01*
X140538072Y-79439999D01*
X140521008Y-79266745D01*
X140470472Y-79100149D01*
X140388405Y-78946613D01*
X140277962Y-78812038D01*
X140190184Y-78740000D01*
X140201150Y-78731000D01*
X141098338Y-78731000D01*
X141088815Y-78738815D01*
X141009463Y-78835506D01*
X140950498Y-78945820D01*
X140914188Y-79065518D01*
X140901928Y-79190000D01*
X140905000Y-79479250D01*
X141063750Y-79638000D01*
X142113000Y-79638000D01*
X142113000Y-79618000D01*
X142367000Y-79618000D01*
X142367000Y-79638000D01*
X143416250Y-79638000D01*
X143575000Y-79479250D01*
X143578072Y-79190000D01*
X143565812Y-79065518D01*
X143529502Y-78945820D01*
X143470537Y-78835506D01*
X143391185Y-78738815D01*
X143311406Y-78673342D01*
X143317962Y-78667962D01*
X143428405Y-78533387D01*
X143510472Y-78379851D01*
X143561008Y-78213255D01*
X143578072Y-78040001D01*
X143578072Y-77389999D01*
X143561008Y-77216745D01*
X143510472Y-77050149D01*
X143428405Y-76896613D01*
X143317962Y-76762038D01*
X143183387Y-76651595D01*
X143029851Y-76569528D01*
X142863255Y-76518992D01*
X142690001Y-76501928D01*
X141789999Y-76501928D01*
X141616745Y-76518992D01*
X141450149Y-76569528D01*
X141296613Y-76651595D01*
X141238850Y-76699000D01*
X140201150Y-76699000D01*
X140143387Y-76651595D01*
X139989851Y-76569528D01*
X139823255Y-76518992D01*
X139650001Y-76501928D01*
X138749999Y-76501928D01*
X138576745Y-76518992D01*
X138410149Y-76569528D01*
X138256613Y-76651595D01*
X138122038Y-76762038D01*
X138011595Y-76896613D01*
X137929528Y-77050149D01*
X137878992Y-77216745D01*
X137861928Y-77389999D01*
X137861928Y-78040001D01*
X137878992Y-78213255D01*
X137929528Y-78379851D01*
X138011595Y-78533387D01*
X138122038Y-78667962D01*
X138209816Y-78740000D01*
X138198850Y-78749000D01*
X137141662Y-78749000D01*
X137151185Y-78741185D01*
X137230537Y-78644494D01*
X137289502Y-78534180D01*
X137325812Y-78414482D01*
X137338072Y-78290000D01*
X137335000Y-78000750D01*
X137176250Y-77842000D01*
X136127000Y-77842000D01*
X136127000Y-77862000D01*
X135873000Y-77862000D01*
X135873000Y-77842000D01*
X134823750Y-77842000D01*
X134665000Y-78000750D01*
X134661928Y-78290000D01*
X134674188Y-78414482D01*
X134710498Y-78534180D01*
X134769463Y-78644494D01*
X134848815Y-78741185D01*
X134928594Y-78806658D01*
X134922038Y-78812038D01*
X134915590Y-78819894D01*
X134909312Y-78821799D01*
X134732810Y-78916141D01*
X134616865Y-79011294D01*
X130062160Y-83566000D01*
X126150841Y-83566000D01*
X125476000Y-82891160D01*
X125476000Y-82408496D01*
X125584482Y-82397812D01*
X125704180Y-82361502D01*
X125814494Y-82302537D01*
X125911185Y-82223185D01*
X125990537Y-82126494D01*
X126015191Y-82080370D01*
X126225537Y-82220918D01*
X126523088Y-82344168D01*
X126838967Y-82407000D01*
X127161033Y-82407000D01*
X127476912Y-82344168D01*
X127774463Y-82220918D01*
X128042252Y-82041987D01*
X128176826Y-81907413D01*
X128584192Y-81907413D01*
X128679956Y-82171814D01*
X128969571Y-82312704D01*
X129281108Y-82394384D01*
X129602595Y-82413718D01*
X129921675Y-82369961D01*
X130226088Y-82264795D01*
X130400044Y-82171814D01*
X130495808Y-81907413D01*
X129540000Y-80951605D01*
X128584192Y-81907413D01*
X128176826Y-81907413D01*
X128269987Y-81814252D01*
X128342720Y-81705400D01*
X128404587Y-81727808D01*
X129360395Y-80772000D01*
X129719605Y-80772000D01*
X130675413Y-81727808D01*
X130939814Y-81632044D01*
X131080704Y-81342429D01*
X131162384Y-81030892D01*
X131181718Y-80709405D01*
X131137961Y-80390325D01*
X131032795Y-80085912D01*
X130939814Y-79911956D01*
X130675413Y-79816192D01*
X129719605Y-80772000D01*
X129360395Y-80772000D01*
X128404587Y-79816192D01*
X128342720Y-79838600D01*
X128269987Y-79729748D01*
X128176826Y-79636587D01*
X128584192Y-79636587D01*
X129540000Y-80592395D01*
X130495808Y-79636587D01*
X130400044Y-79372186D01*
X130110429Y-79231296D01*
X129798892Y-79149616D01*
X129477405Y-79130282D01*
X129158325Y-79174039D01*
X128853912Y-79279205D01*
X128679956Y-79372186D01*
X128584192Y-79636587D01*
X128176826Y-79636587D01*
X128042252Y-79502013D01*
X128016000Y-79484472D01*
X128016000Y-77140000D01*
X134661928Y-77140000D01*
X134665000Y-77429250D01*
X134823750Y-77588000D01*
X135873000Y-77588000D01*
X135873000Y-76663750D01*
X136127000Y-76663750D01*
X136127000Y-77588000D01*
X137176250Y-77588000D01*
X137335000Y-77429250D01*
X137338072Y-77140000D01*
X137325812Y-77015518D01*
X137289502Y-76895820D01*
X137230537Y-76785506D01*
X137151185Y-76688815D01*
X137054494Y-76609463D01*
X136944180Y-76550498D01*
X136824482Y-76514188D01*
X136700000Y-76501928D01*
X136285750Y-76505000D01*
X136127000Y-76663750D01*
X135873000Y-76663750D01*
X135714250Y-76505000D01*
X135300000Y-76501928D01*
X135175518Y-76514188D01*
X135055820Y-76550498D01*
X134945506Y-76609463D01*
X134848815Y-76688815D01*
X134769463Y-76785506D01*
X134710498Y-76895820D01*
X134674188Y-77015518D01*
X134661928Y-77140000D01*
X128016000Y-77140000D01*
X128016000Y-73910840D01*
X129461133Y-72465708D01*
X129499896Y-72433896D01*
X129626860Y-72279190D01*
X129721202Y-72102687D01*
X129779298Y-71911171D01*
X129794000Y-71761902D01*
X129798915Y-71712000D01*
X129794000Y-71662098D01*
X129794000Y-71588072D01*
X129878000Y-71588072D01*
X130002482Y-71575812D01*
X130122180Y-71539502D01*
X130232494Y-71480537D01*
X130329185Y-71401185D01*
X130408537Y-71304494D01*
X130467502Y-71194180D01*
X130503812Y-71074482D01*
X130516072Y-70950000D01*
X130516072Y-68750000D01*
X130503812Y-68625518D01*
X130467502Y-68505820D01*
X130408537Y-68395506D01*
X130351495Y-68326000D01*
X134707160Y-68326000D01*
X135052394Y-68671235D01*
X135011500Y-68712129D01*
X134816153Y-69004485D01*
X134681596Y-69329335D01*
X134613000Y-69674193D01*
X134613000Y-70025807D01*
X134681596Y-70370665D01*
X134816153Y-70695515D01*
X135011500Y-70987871D01*
X135260129Y-71236500D01*
X135552485Y-71431847D01*
X135877335Y-71566404D01*
X136222193Y-71635000D01*
X136573807Y-71635000D01*
X136918665Y-71566404D01*
X137243515Y-71431847D01*
X137535871Y-71236500D01*
X137784500Y-70987871D01*
X137809804Y-70950000D01*
X139739928Y-70950000D01*
X139752188Y-71074482D01*
X139788498Y-71194180D01*
X139847463Y-71304494D01*
X139926815Y-71401185D01*
X140023506Y-71480537D01*
X140133820Y-71539502D01*
X140253518Y-71575812D01*
X140378000Y-71588072D01*
X141192250Y-71585000D01*
X141351000Y-71426250D01*
X141351000Y-69977000D01*
X141605000Y-69977000D01*
X141605000Y-71426250D01*
X141763750Y-71585000D01*
X142578000Y-71588072D01*
X142702482Y-71575812D01*
X142822180Y-71539502D01*
X142932494Y-71480537D01*
X143029185Y-71401185D01*
X143108537Y-71304494D01*
X143167502Y-71194180D01*
X143203812Y-71074482D01*
X143216072Y-70950000D01*
X143213000Y-70135750D01*
X143054250Y-69977000D01*
X141605000Y-69977000D01*
X141351000Y-69977000D01*
X139901750Y-69977000D01*
X139743000Y-70135750D01*
X139739928Y-70950000D01*
X137809804Y-70950000D01*
X137979847Y-70695515D01*
X138114404Y-70370665D01*
X138183000Y-70025807D01*
X138183000Y-69674193D01*
X138114404Y-69329335D01*
X137979847Y-69004485D01*
X137809805Y-68750000D01*
X139739928Y-68750000D01*
X139743000Y-69564250D01*
X139901750Y-69723000D01*
X141351000Y-69723000D01*
X141351000Y-68273750D01*
X141605000Y-68273750D01*
X141605000Y-69723000D01*
X143054250Y-69723000D01*
X143213000Y-69564250D01*
X143216072Y-68750000D01*
X143203812Y-68625518D01*
X143167502Y-68505820D01*
X143108537Y-68395506D01*
X143029185Y-68298815D01*
X142932494Y-68219463D01*
X142822180Y-68160498D01*
X142702482Y-68124188D01*
X142578000Y-68111928D01*
X141763750Y-68115000D01*
X141605000Y-68273750D01*
X141351000Y-68273750D01*
X141192250Y-68115000D01*
X140378000Y-68111928D01*
X140253518Y-68124188D01*
X140133820Y-68160498D01*
X140023506Y-68219463D01*
X139926815Y-68298815D01*
X139847463Y-68395506D01*
X139788498Y-68505820D01*
X139752188Y-68625518D01*
X139739928Y-68750000D01*
X137809805Y-68750000D01*
X137784500Y-68712129D01*
X137535871Y-68463500D01*
X137396032Y-68370062D01*
X137341202Y-68189313D01*
X137246860Y-68012810D01*
X137119896Y-67858104D01*
X137081133Y-67826292D01*
X135881712Y-66626872D01*
X135849896Y-66588104D01*
X135695190Y-66461140D01*
X135518687Y-66366798D01*
X135327171Y-66308702D01*
X135177902Y-66294000D01*
X135128000Y-66289085D01*
X135078098Y-66294000D01*
X125017893Y-66294000D01*
X124967999Y-66289086D01*
X124918105Y-66294000D01*
X124918098Y-66294000D01*
X124768829Y-66308702D01*
X124577313Y-66366798D01*
X124400810Y-66461140D01*
X124246104Y-66588104D01*
X124214292Y-66626867D01*
X123014868Y-67826292D01*
X122976105Y-67858104D01*
X122849141Y-68012810D01*
X122821245Y-68065000D01*
X122754799Y-68189313D01*
X122699969Y-68370062D01*
X122560129Y-68463500D01*
X122311500Y-68712129D01*
X122116153Y-69004485D01*
X121981596Y-69329335D01*
X121913000Y-69674193D01*
X116660000Y-69674193D01*
X116660000Y-63660000D01*
X148740001Y-63660000D01*
X148740001Y-74430688D01*
M02*
