G04 #@! TF.GenerationSoftware,KiCad,Pcbnew,5.1.5-52549c5~86~ubuntu16.04.1*
G04 #@! TF.CreationDate,2020-07-28T22:18:50+05:30*
G04 #@! TF.ProjectId,IRF520_MOSFET_Driver_V1.0,49524635-3230-45f4-9d4f-534645545f44,v1.0*
G04 #@! TF.SameCoordinates,Original*
G04 #@! TF.FileFunction,Copper,L2,Bot*
G04 #@! TF.FilePolarity,Positive*
%FSLAX46Y46*%
G04 Gerber Fmt 4.6, Leading zero omitted, Abs format (unit mm)*
G04 Created by KiCad (PCBNEW 5.1.5-52549c5~86~ubuntu16.04.1) date 2020-07-28 22:18:50*
%MOMM*%
%LPD*%
G04 APERTURE LIST*
%ADD10C,0.200000*%
%ADD11C,0.300000*%
%ADD12C,0.250000*%
%ADD13C,0.002540*%
%ADD14C,2.300000*%
%ADD15R,2.200000X2.200000*%
%ADD16O,1.700000X1.700000*%
%ADD17R,1.700000X1.700000*%
%ADD18R,2.000000X2.000000*%
%ADD19C,2.000000*%
%ADD20C,4.318000*%
%ADD21C,0.254000*%
G04 APERTURE END LIST*
D10*
X122631047Y-86175904D02*
X122364380Y-86975904D01*
X122097714Y-86175904D01*
X121412000Y-86975904D02*
X121869142Y-86975904D01*
X121640571Y-86975904D02*
X121640571Y-86175904D01*
X121716761Y-86290190D01*
X121792952Y-86366380D01*
X121869142Y-86404476D01*
X121069142Y-86899714D02*
X121031047Y-86937809D01*
X121069142Y-86975904D01*
X121107238Y-86937809D01*
X121069142Y-86899714D01*
X121069142Y-86975904D01*
X120535809Y-86175904D02*
X120459619Y-86175904D01*
X120383428Y-86214000D01*
X120345333Y-86252095D01*
X120307238Y-86328285D01*
X120269142Y-86480666D01*
X120269142Y-86671142D01*
X120307238Y-86823523D01*
X120345333Y-86899714D01*
X120383428Y-86937809D01*
X120459619Y-86975904D01*
X120535809Y-86975904D01*
X120612000Y-86937809D01*
X120650095Y-86899714D01*
X120688190Y-86823523D01*
X120726285Y-86671142D01*
X120726285Y-86480666D01*
X120688190Y-86328285D01*
X120650095Y-86252095D01*
X120612000Y-86214000D01*
X120535809Y-86175904D01*
D11*
X133139142Y-86967142D02*
X133282000Y-87038571D01*
X133567714Y-87038571D01*
X133710571Y-86967142D01*
X133782000Y-86824285D01*
X133782000Y-86252857D01*
X133710571Y-86110000D01*
X133567714Y-86038571D01*
X133282000Y-86038571D01*
X133139142Y-86110000D01*
X133067714Y-86252857D01*
X133067714Y-86395714D01*
X133782000Y-86538571D01*
X132210571Y-87038571D02*
X132353428Y-86967142D01*
X132424857Y-86824285D01*
X132424857Y-85538571D01*
X131067714Y-86967142D02*
X131210571Y-87038571D01*
X131496285Y-87038571D01*
X131639142Y-86967142D01*
X131710571Y-86824285D01*
X131710571Y-86252857D01*
X131639142Y-86110000D01*
X131496285Y-86038571D01*
X131210571Y-86038571D01*
X131067714Y-86110000D01*
X130996285Y-86252857D01*
X130996285Y-86395714D01*
X131710571Y-86538571D01*
X130353428Y-87038571D02*
X130353428Y-86038571D01*
X130353428Y-86181428D02*
X130282000Y-86110000D01*
X130139142Y-86038571D01*
X129924857Y-86038571D01*
X129782000Y-86110000D01*
X129710571Y-86252857D01*
X129710571Y-87038571D01*
X129710571Y-86252857D02*
X129639142Y-86110000D01*
X129496285Y-86038571D01*
X129282000Y-86038571D01*
X129139142Y-86110000D01*
X129067714Y-86252857D01*
X129067714Y-87038571D01*
X127782000Y-86967142D02*
X127924857Y-87038571D01*
X128210571Y-87038571D01*
X128353428Y-86967142D01*
X128424857Y-86824285D01*
X128424857Y-86252857D01*
X128353428Y-86110000D01*
X128210571Y-86038571D01*
X127924857Y-86038571D01*
X127782000Y-86110000D01*
X127710571Y-86252857D01*
X127710571Y-86395714D01*
X128424857Y-86538571D01*
X127067714Y-86038571D02*
X127067714Y-87038571D01*
X127067714Y-86181428D02*
X126996285Y-86110000D01*
X126853428Y-86038571D01*
X126639142Y-86038571D01*
X126496285Y-86110000D01*
X126424857Y-86252857D01*
X126424857Y-87038571D01*
X125924857Y-86038571D02*
X125353428Y-86038571D01*
X125710571Y-85538571D02*
X125710571Y-86824285D01*
X125639142Y-86967142D01*
X125496285Y-87038571D01*
X125353428Y-87038571D01*
X124996285Y-86038571D02*
X124210571Y-86038571D01*
X124996285Y-87038571D01*
X124210571Y-87038571D01*
D12*
X119451333Y-64684285D02*
X119308476Y-64741428D01*
X119260857Y-64798571D01*
X119213238Y-64912857D01*
X119213238Y-65084285D01*
X119260857Y-65198571D01*
X119308476Y-65255714D01*
X119403714Y-65312857D01*
X119784666Y-65312857D01*
X119784666Y-64112857D01*
X119451333Y-64112857D01*
X119356095Y-64170000D01*
X119308476Y-64227142D01*
X119260857Y-64341428D01*
X119260857Y-64455714D01*
X119308476Y-64570000D01*
X119356095Y-64627142D01*
X119451333Y-64684285D01*
X119784666Y-64684285D01*
X118594190Y-64112857D02*
X118403714Y-64112857D01*
X118308476Y-64170000D01*
X118213238Y-64284285D01*
X118165619Y-64512857D01*
X118165619Y-64912857D01*
X118213238Y-65141428D01*
X118308476Y-65255714D01*
X118403714Y-65312857D01*
X118594190Y-65312857D01*
X118689428Y-65255714D01*
X118784666Y-65141428D01*
X118832285Y-64912857D01*
X118832285Y-64512857D01*
X118784666Y-64284285D01*
X118689428Y-64170000D01*
X118594190Y-64112857D01*
X117879904Y-64112857D02*
X117308476Y-64112857D01*
X117594190Y-65312857D02*
X117594190Y-64112857D01*
D13*
G36*
X131932680Y-76276200D02*
G01*
X131950460Y-76268580D01*
X131983480Y-76245720D01*
X132034280Y-76212700D01*
X132092700Y-76174600D01*
X132153660Y-76133960D01*
X132201920Y-76100940D01*
X132237480Y-76078080D01*
X132250180Y-76070460D01*
X132257800Y-76073000D01*
X132285740Y-76088240D01*
X132326380Y-76108560D01*
X132351780Y-76121260D01*
X132389880Y-76136500D01*
X132407660Y-76141580D01*
X132410200Y-76136500D01*
X132425440Y-76106020D01*
X132445760Y-76057760D01*
X132473700Y-75991720D01*
X132506720Y-75915520D01*
X132542280Y-75834240D01*
X132575300Y-75750420D01*
X132608320Y-75671680D01*
X132638800Y-75598020D01*
X132661660Y-75539600D01*
X132676900Y-75498960D01*
X132684520Y-75481180D01*
X132681980Y-75478640D01*
X132664200Y-75460860D01*
X132631180Y-75435460D01*
X132560060Y-75377040D01*
X132488940Y-75290680D01*
X132445760Y-75191620D01*
X132433060Y-75079860D01*
X132443220Y-74978260D01*
X132483860Y-74881740D01*
X132552440Y-74792840D01*
X132636260Y-74726800D01*
X132732780Y-74686160D01*
X132842000Y-74673460D01*
X132946140Y-74683620D01*
X133045200Y-74724260D01*
X133134100Y-74790300D01*
X133172200Y-74833480D01*
X133223000Y-74924920D01*
X133253480Y-75018900D01*
X133256020Y-75041760D01*
X133250940Y-75148440D01*
X133220460Y-75250040D01*
X133164580Y-75338940D01*
X133088380Y-75412600D01*
X133078220Y-75420220D01*
X133042660Y-75448160D01*
X133017260Y-75465940D01*
X132999480Y-75481180D01*
X133134100Y-75803760D01*
X133154420Y-75854560D01*
X133192520Y-75943460D01*
X133223000Y-76019660D01*
X133250940Y-76080620D01*
X133268720Y-76121260D01*
X133276340Y-76136500D01*
X133289040Y-76139040D01*
X133311900Y-76131420D01*
X133357620Y-76108560D01*
X133388100Y-76093320D01*
X133421120Y-76078080D01*
X133436360Y-76070460D01*
X133451600Y-76078080D01*
X133484620Y-76098400D01*
X133530340Y-76131420D01*
X133588760Y-76169520D01*
X133644640Y-76207620D01*
X133695440Y-76240640D01*
X133731000Y-76266040D01*
X133748780Y-76273660D01*
X133751320Y-76273660D01*
X133769100Y-76266040D01*
X133797040Y-76240640D01*
X133840220Y-76200000D01*
X133903720Y-76139040D01*
X133913880Y-76128880D01*
X133964680Y-76078080D01*
X134005320Y-76032360D01*
X134033260Y-76001880D01*
X134043420Y-75989180D01*
X134033260Y-75971400D01*
X134010400Y-75933300D01*
X133977380Y-75882500D01*
X133936740Y-75821540D01*
X133830060Y-75666600D01*
X133888480Y-75521820D01*
X133906260Y-75476100D01*
X133929120Y-75420220D01*
X133946900Y-75382120D01*
X133954520Y-75364340D01*
X133972300Y-75359260D01*
X134010400Y-75349100D01*
X134068820Y-75338940D01*
X134139940Y-75326240D01*
X134205980Y-75313540D01*
X134264400Y-75300840D01*
X134307580Y-75293220D01*
X134327900Y-75290680D01*
X134332980Y-75285600D01*
X134335520Y-75277980D01*
X134338060Y-75257660D01*
X134340600Y-75219560D01*
X134340600Y-75163680D01*
X134340600Y-75079860D01*
X134340600Y-75072240D01*
X134340600Y-74993500D01*
X134338060Y-74930000D01*
X134335520Y-74891900D01*
X134332980Y-74874120D01*
X134315200Y-74869040D01*
X134272020Y-74861420D01*
X134213600Y-74848720D01*
X134142480Y-74836020D01*
X134137400Y-74836020D01*
X134066280Y-74820780D01*
X134007860Y-74808080D01*
X133964680Y-74800460D01*
X133946900Y-74792840D01*
X133944360Y-74787760D01*
X133929120Y-74759820D01*
X133908800Y-74716640D01*
X133885940Y-74663300D01*
X133863080Y-74607420D01*
X133842760Y-74556620D01*
X133830060Y-74521060D01*
X133824980Y-74503280D01*
X133835140Y-74485500D01*
X133860540Y-74449940D01*
X133896100Y-74399140D01*
X133936740Y-74338180D01*
X133939280Y-74333100D01*
X133979920Y-74272140D01*
X134012940Y-74221340D01*
X134035800Y-74185780D01*
X134043420Y-74170540D01*
X134043420Y-74168000D01*
X134030720Y-74150220D01*
X134000240Y-74117200D01*
X133954520Y-74071480D01*
X133903720Y-74018140D01*
X133885940Y-74002900D01*
X133827520Y-73944480D01*
X133786880Y-73908920D01*
X133761480Y-73888600D01*
X133751320Y-73883520D01*
X133748780Y-73883520D01*
X133731000Y-73893680D01*
X133692900Y-73919080D01*
X133642100Y-73954640D01*
X133581140Y-73995280D01*
X133578600Y-73997820D01*
X133517640Y-74038460D01*
X133466840Y-74074020D01*
X133431280Y-74096880D01*
X133416040Y-74104500D01*
X133413500Y-74104500D01*
X133390640Y-74099420D01*
X133347460Y-74084180D01*
X133294120Y-74063860D01*
X133238240Y-74041000D01*
X133187440Y-74020680D01*
X133151880Y-74002900D01*
X133134100Y-73992740D01*
X133131560Y-73992740D01*
X133126480Y-73969880D01*
X133116320Y-73924160D01*
X133103620Y-73863200D01*
X133088380Y-73789540D01*
X133085840Y-73779380D01*
X133073140Y-73705720D01*
X133062980Y-73647300D01*
X133052820Y-73606660D01*
X133050280Y-73588880D01*
X133040120Y-73588880D01*
X133004560Y-73586340D01*
X132951220Y-73583800D01*
X132885180Y-73583800D01*
X132819140Y-73583800D01*
X132753100Y-73583800D01*
X132697220Y-73586340D01*
X132656580Y-73588880D01*
X132638800Y-73593960D01*
X132633720Y-73616820D01*
X132623560Y-73660000D01*
X132610860Y-73723500D01*
X132595620Y-73797160D01*
X132593080Y-73809860D01*
X132580380Y-73880980D01*
X132567680Y-73939400D01*
X132560060Y-73980040D01*
X132554980Y-73995280D01*
X132549900Y-73997820D01*
X132519420Y-74013060D01*
X132471160Y-74030840D01*
X132412740Y-74056240D01*
X132275580Y-74112120D01*
X132107940Y-73995280D01*
X132092700Y-73985120D01*
X132031740Y-73944480D01*
X131980940Y-73911460D01*
X131945380Y-73888600D01*
X131932680Y-73880980D01*
X131930140Y-73880980D01*
X131914900Y-73896220D01*
X131881880Y-73926700D01*
X131836160Y-73972420D01*
X131782820Y-74023220D01*
X131742180Y-74063860D01*
X131696460Y-74109580D01*
X131668520Y-74142600D01*
X131650740Y-74162920D01*
X131645660Y-74175620D01*
X131648200Y-74183240D01*
X131658360Y-74201020D01*
X131683760Y-74236580D01*
X131716780Y-74289920D01*
X131757420Y-74348340D01*
X131792980Y-74399140D01*
X131828540Y-74455020D01*
X131851400Y-74495660D01*
X131861560Y-74513440D01*
X131859020Y-74523600D01*
X131846320Y-74556620D01*
X131826000Y-74604880D01*
X131800600Y-74665840D01*
X131742180Y-74797920D01*
X131655820Y-74815700D01*
X131602480Y-74825860D01*
X131528820Y-74838560D01*
X131457700Y-74853800D01*
X131345940Y-74874120D01*
X131343400Y-75277980D01*
X131361180Y-75285600D01*
X131376420Y-75290680D01*
X131417060Y-75300840D01*
X131475480Y-75311000D01*
X131544060Y-75323700D01*
X131605020Y-75336400D01*
X131663440Y-75346560D01*
X131706620Y-75354180D01*
X131724400Y-75359260D01*
X131729480Y-75364340D01*
X131744720Y-75394820D01*
X131765040Y-75440540D01*
X131787900Y-75493880D01*
X131813300Y-75552300D01*
X131833620Y-75603100D01*
X131848860Y-75643740D01*
X131853940Y-75664060D01*
X131846320Y-75679300D01*
X131823460Y-75714860D01*
X131790440Y-75765660D01*
X131749800Y-75824080D01*
X131709160Y-75882500D01*
X131676140Y-75933300D01*
X131650740Y-75968860D01*
X131643120Y-75986640D01*
X131648200Y-75996800D01*
X131671060Y-76024740D01*
X131714240Y-76070460D01*
X131780280Y-76136500D01*
X131792980Y-76146660D01*
X131843780Y-76197460D01*
X131889500Y-76238100D01*
X131919980Y-76266040D01*
X131932680Y-76276200D01*
G37*
X131932680Y-76276200D02*
X131950460Y-76268580D01*
X131983480Y-76245720D01*
X132034280Y-76212700D01*
X132092700Y-76174600D01*
X132153660Y-76133960D01*
X132201920Y-76100940D01*
X132237480Y-76078080D01*
X132250180Y-76070460D01*
X132257800Y-76073000D01*
X132285740Y-76088240D01*
X132326380Y-76108560D01*
X132351780Y-76121260D01*
X132389880Y-76136500D01*
X132407660Y-76141580D01*
X132410200Y-76136500D01*
X132425440Y-76106020D01*
X132445760Y-76057760D01*
X132473700Y-75991720D01*
X132506720Y-75915520D01*
X132542280Y-75834240D01*
X132575300Y-75750420D01*
X132608320Y-75671680D01*
X132638800Y-75598020D01*
X132661660Y-75539600D01*
X132676900Y-75498960D01*
X132684520Y-75481180D01*
X132681980Y-75478640D01*
X132664200Y-75460860D01*
X132631180Y-75435460D01*
X132560060Y-75377040D01*
X132488940Y-75290680D01*
X132445760Y-75191620D01*
X132433060Y-75079860D01*
X132443220Y-74978260D01*
X132483860Y-74881740D01*
X132552440Y-74792840D01*
X132636260Y-74726800D01*
X132732780Y-74686160D01*
X132842000Y-74673460D01*
X132946140Y-74683620D01*
X133045200Y-74724260D01*
X133134100Y-74790300D01*
X133172200Y-74833480D01*
X133223000Y-74924920D01*
X133253480Y-75018900D01*
X133256020Y-75041760D01*
X133250940Y-75148440D01*
X133220460Y-75250040D01*
X133164580Y-75338940D01*
X133088380Y-75412600D01*
X133078220Y-75420220D01*
X133042660Y-75448160D01*
X133017260Y-75465940D01*
X132999480Y-75481180D01*
X133134100Y-75803760D01*
X133154420Y-75854560D01*
X133192520Y-75943460D01*
X133223000Y-76019660D01*
X133250940Y-76080620D01*
X133268720Y-76121260D01*
X133276340Y-76136500D01*
X133289040Y-76139040D01*
X133311900Y-76131420D01*
X133357620Y-76108560D01*
X133388100Y-76093320D01*
X133421120Y-76078080D01*
X133436360Y-76070460D01*
X133451600Y-76078080D01*
X133484620Y-76098400D01*
X133530340Y-76131420D01*
X133588760Y-76169520D01*
X133644640Y-76207620D01*
X133695440Y-76240640D01*
X133731000Y-76266040D01*
X133748780Y-76273660D01*
X133751320Y-76273660D01*
X133769100Y-76266040D01*
X133797040Y-76240640D01*
X133840220Y-76200000D01*
X133903720Y-76139040D01*
X133913880Y-76128880D01*
X133964680Y-76078080D01*
X134005320Y-76032360D01*
X134033260Y-76001880D01*
X134043420Y-75989180D01*
X134033260Y-75971400D01*
X134010400Y-75933300D01*
X133977380Y-75882500D01*
X133936740Y-75821540D01*
X133830060Y-75666600D01*
X133888480Y-75521820D01*
X133906260Y-75476100D01*
X133929120Y-75420220D01*
X133946900Y-75382120D01*
X133954520Y-75364340D01*
X133972300Y-75359260D01*
X134010400Y-75349100D01*
X134068820Y-75338940D01*
X134139940Y-75326240D01*
X134205980Y-75313540D01*
X134264400Y-75300840D01*
X134307580Y-75293220D01*
X134327900Y-75290680D01*
X134332980Y-75285600D01*
X134335520Y-75277980D01*
X134338060Y-75257660D01*
X134340600Y-75219560D01*
X134340600Y-75163680D01*
X134340600Y-75079860D01*
X134340600Y-75072240D01*
X134340600Y-74993500D01*
X134338060Y-74930000D01*
X134335520Y-74891900D01*
X134332980Y-74874120D01*
X134315200Y-74869040D01*
X134272020Y-74861420D01*
X134213600Y-74848720D01*
X134142480Y-74836020D01*
X134137400Y-74836020D01*
X134066280Y-74820780D01*
X134007860Y-74808080D01*
X133964680Y-74800460D01*
X133946900Y-74792840D01*
X133944360Y-74787760D01*
X133929120Y-74759820D01*
X133908800Y-74716640D01*
X133885940Y-74663300D01*
X133863080Y-74607420D01*
X133842760Y-74556620D01*
X133830060Y-74521060D01*
X133824980Y-74503280D01*
X133835140Y-74485500D01*
X133860540Y-74449940D01*
X133896100Y-74399140D01*
X133936740Y-74338180D01*
X133939280Y-74333100D01*
X133979920Y-74272140D01*
X134012940Y-74221340D01*
X134035800Y-74185780D01*
X134043420Y-74170540D01*
X134043420Y-74168000D01*
X134030720Y-74150220D01*
X134000240Y-74117200D01*
X133954520Y-74071480D01*
X133903720Y-74018140D01*
X133885940Y-74002900D01*
X133827520Y-73944480D01*
X133786880Y-73908920D01*
X133761480Y-73888600D01*
X133751320Y-73883520D01*
X133748780Y-73883520D01*
X133731000Y-73893680D01*
X133692900Y-73919080D01*
X133642100Y-73954640D01*
X133581140Y-73995280D01*
X133578600Y-73997820D01*
X133517640Y-74038460D01*
X133466840Y-74074020D01*
X133431280Y-74096880D01*
X133416040Y-74104500D01*
X133413500Y-74104500D01*
X133390640Y-74099420D01*
X133347460Y-74084180D01*
X133294120Y-74063860D01*
X133238240Y-74041000D01*
X133187440Y-74020680D01*
X133151880Y-74002900D01*
X133134100Y-73992740D01*
X133131560Y-73992740D01*
X133126480Y-73969880D01*
X133116320Y-73924160D01*
X133103620Y-73863200D01*
X133088380Y-73789540D01*
X133085840Y-73779380D01*
X133073140Y-73705720D01*
X133062980Y-73647300D01*
X133052820Y-73606660D01*
X133050280Y-73588880D01*
X133040120Y-73588880D01*
X133004560Y-73586340D01*
X132951220Y-73583800D01*
X132885180Y-73583800D01*
X132819140Y-73583800D01*
X132753100Y-73583800D01*
X132697220Y-73586340D01*
X132656580Y-73588880D01*
X132638800Y-73593960D01*
X132633720Y-73616820D01*
X132623560Y-73660000D01*
X132610860Y-73723500D01*
X132595620Y-73797160D01*
X132593080Y-73809860D01*
X132580380Y-73880980D01*
X132567680Y-73939400D01*
X132560060Y-73980040D01*
X132554980Y-73995280D01*
X132549900Y-73997820D01*
X132519420Y-74013060D01*
X132471160Y-74030840D01*
X132412740Y-74056240D01*
X132275580Y-74112120D01*
X132107940Y-73995280D01*
X132092700Y-73985120D01*
X132031740Y-73944480D01*
X131980940Y-73911460D01*
X131945380Y-73888600D01*
X131932680Y-73880980D01*
X131930140Y-73880980D01*
X131914900Y-73896220D01*
X131881880Y-73926700D01*
X131836160Y-73972420D01*
X131782820Y-74023220D01*
X131742180Y-74063860D01*
X131696460Y-74109580D01*
X131668520Y-74142600D01*
X131650740Y-74162920D01*
X131645660Y-74175620D01*
X131648200Y-74183240D01*
X131658360Y-74201020D01*
X131683760Y-74236580D01*
X131716780Y-74289920D01*
X131757420Y-74348340D01*
X131792980Y-74399140D01*
X131828540Y-74455020D01*
X131851400Y-74495660D01*
X131861560Y-74513440D01*
X131859020Y-74523600D01*
X131846320Y-74556620D01*
X131826000Y-74604880D01*
X131800600Y-74665840D01*
X131742180Y-74797920D01*
X131655820Y-74815700D01*
X131602480Y-74825860D01*
X131528820Y-74838560D01*
X131457700Y-74853800D01*
X131345940Y-74874120D01*
X131343400Y-75277980D01*
X131361180Y-75285600D01*
X131376420Y-75290680D01*
X131417060Y-75300840D01*
X131475480Y-75311000D01*
X131544060Y-75323700D01*
X131605020Y-75336400D01*
X131663440Y-75346560D01*
X131706620Y-75354180D01*
X131724400Y-75359260D01*
X131729480Y-75364340D01*
X131744720Y-75394820D01*
X131765040Y-75440540D01*
X131787900Y-75493880D01*
X131813300Y-75552300D01*
X131833620Y-75603100D01*
X131848860Y-75643740D01*
X131853940Y-75664060D01*
X131846320Y-75679300D01*
X131823460Y-75714860D01*
X131790440Y-75765660D01*
X131749800Y-75824080D01*
X131709160Y-75882500D01*
X131676140Y-75933300D01*
X131650740Y-75968860D01*
X131643120Y-75986640D01*
X131648200Y-75996800D01*
X131671060Y-76024740D01*
X131714240Y-76070460D01*
X131780280Y-76136500D01*
X131792980Y-76146660D01*
X131843780Y-76197460D01*
X131889500Y-76238100D01*
X131919980Y-76266040D01*
X131932680Y-76276200D01*
D14*
X123698000Y-69850000D03*
D15*
X128778000Y-69850000D03*
D14*
X136398000Y-69850000D03*
D15*
X141478000Y-69850000D03*
D16*
X142240000Y-86360000D03*
X139700000Y-86360000D03*
D17*
X137160000Y-86360000D03*
D18*
X124460000Y-80772000D03*
D19*
X127000000Y-80772000D03*
X129540000Y-80772000D03*
D20*
X146812000Y-76454000D03*
X118618000Y-76454000D03*
D21*
G36*
X148740001Y-74430688D02*
G01*
X148593071Y-74283758D01*
X148135455Y-73977989D01*
X147626980Y-73767372D01*
X147087185Y-73660000D01*
X146536815Y-73660000D01*
X145997020Y-73767372D01*
X145488545Y-73977989D01*
X145030929Y-74283758D01*
X144641758Y-74672929D01*
X144335989Y-75130545D01*
X144125372Y-75639020D01*
X144018000Y-76178815D01*
X144018000Y-76729185D01*
X144125372Y-77268980D01*
X144335989Y-77777455D01*
X144641758Y-78235071D01*
X145030929Y-78624242D01*
X145488545Y-78930011D01*
X145997020Y-79140628D01*
X146536815Y-79248000D01*
X147087185Y-79248000D01*
X147626980Y-79140628D01*
X148135455Y-78930011D01*
X148593071Y-78624242D01*
X148740000Y-78477313D01*
X148740000Y-87940000D01*
X134852715Y-87940000D01*
X134852715Y-85510000D01*
X135671928Y-85510000D01*
X135671928Y-87210000D01*
X135684188Y-87334482D01*
X135720498Y-87454180D01*
X135779463Y-87564494D01*
X135858815Y-87661185D01*
X135955506Y-87740537D01*
X136065820Y-87799502D01*
X136185518Y-87835812D01*
X136310000Y-87848072D01*
X138010000Y-87848072D01*
X138134482Y-87835812D01*
X138254180Y-87799502D01*
X138364494Y-87740537D01*
X138461185Y-87661185D01*
X138540537Y-87564494D01*
X138599502Y-87454180D01*
X138621513Y-87381620D01*
X138753368Y-87513475D01*
X138996589Y-87675990D01*
X139266842Y-87787932D01*
X139553740Y-87845000D01*
X139846260Y-87845000D01*
X140133158Y-87787932D01*
X140403411Y-87675990D01*
X140646632Y-87513475D01*
X140853475Y-87306632D01*
X140975195Y-87124466D01*
X141044822Y-87241355D01*
X141239731Y-87457588D01*
X141473080Y-87631641D01*
X141735901Y-87756825D01*
X141883110Y-87801476D01*
X142113000Y-87680155D01*
X142113000Y-86487000D01*
X142367000Y-86487000D01*
X142367000Y-87680155D01*
X142596890Y-87801476D01*
X142744099Y-87756825D01*
X143006920Y-87631641D01*
X143240269Y-87457588D01*
X143435178Y-87241355D01*
X143584157Y-86991252D01*
X143681481Y-86716891D01*
X143560814Y-86487000D01*
X142367000Y-86487000D01*
X142113000Y-86487000D01*
X142093000Y-86487000D01*
X142093000Y-86233000D01*
X142113000Y-86233000D01*
X142113000Y-85039845D01*
X142367000Y-85039845D01*
X142367000Y-86233000D01*
X143560814Y-86233000D01*
X143681481Y-86003109D01*
X143584157Y-85728748D01*
X143435178Y-85478645D01*
X143240269Y-85262412D01*
X143006920Y-85088359D01*
X142744099Y-84963175D01*
X142596890Y-84918524D01*
X142367000Y-85039845D01*
X142113000Y-85039845D01*
X141883110Y-84918524D01*
X141735901Y-84963175D01*
X141473080Y-85088359D01*
X141239731Y-85262412D01*
X141044822Y-85478645D01*
X140975195Y-85595534D01*
X140853475Y-85413368D01*
X140646632Y-85206525D01*
X140403411Y-85044010D01*
X140133158Y-84932068D01*
X139846260Y-84875000D01*
X139553740Y-84875000D01*
X139266842Y-84932068D01*
X138996589Y-85044010D01*
X138753368Y-85206525D01*
X138621513Y-85338380D01*
X138599502Y-85265820D01*
X138540537Y-85155506D01*
X138461185Y-85058815D01*
X138364494Y-84979463D01*
X138254180Y-84920498D01*
X138134482Y-84884188D01*
X138010000Y-84871928D01*
X136310000Y-84871928D01*
X136185518Y-84884188D01*
X136065820Y-84920498D01*
X135955506Y-84979463D01*
X135858815Y-85058815D01*
X135779463Y-85155506D01*
X135720498Y-85265820D01*
X135684188Y-85385518D01*
X135671928Y-85510000D01*
X134852715Y-85510000D01*
X134852715Y-84570000D01*
X123211286Y-84570000D01*
X123211286Y-85353000D01*
X119381762Y-85353000D01*
X119381762Y-87940000D01*
X116660000Y-87940000D01*
X116660000Y-79772000D01*
X122821928Y-79772000D01*
X122821928Y-81772000D01*
X122834188Y-81896482D01*
X122870498Y-82016180D01*
X122929463Y-82126494D01*
X123008815Y-82223185D01*
X123105506Y-82302537D01*
X123215820Y-82361502D01*
X123335518Y-82397812D01*
X123460000Y-82410072D01*
X125460000Y-82410072D01*
X125584482Y-82397812D01*
X125704180Y-82361502D01*
X125814494Y-82302537D01*
X125911185Y-82223185D01*
X125990537Y-82126494D01*
X126015191Y-82080370D01*
X126225537Y-82220918D01*
X126523088Y-82344168D01*
X126838967Y-82407000D01*
X127161033Y-82407000D01*
X127476912Y-82344168D01*
X127774463Y-82220918D01*
X128042252Y-82041987D01*
X128176826Y-81907413D01*
X128584192Y-81907413D01*
X128679956Y-82171814D01*
X128969571Y-82312704D01*
X129281108Y-82394384D01*
X129602595Y-82413718D01*
X129921675Y-82369961D01*
X130226088Y-82264795D01*
X130400044Y-82171814D01*
X130495808Y-81907413D01*
X129540000Y-80951605D01*
X128584192Y-81907413D01*
X128176826Y-81907413D01*
X128269987Y-81814252D01*
X128342720Y-81705400D01*
X128404587Y-81727808D01*
X129360395Y-80772000D01*
X129719605Y-80772000D01*
X130675413Y-81727808D01*
X130939814Y-81632044D01*
X131080704Y-81342429D01*
X131162384Y-81030892D01*
X131181718Y-80709405D01*
X131137961Y-80390325D01*
X131032795Y-80085912D01*
X130939814Y-79911956D01*
X130675413Y-79816192D01*
X129719605Y-80772000D01*
X129360395Y-80772000D01*
X128404587Y-79816192D01*
X128342720Y-79838600D01*
X128269987Y-79729748D01*
X128176826Y-79636587D01*
X128584192Y-79636587D01*
X129540000Y-80592395D01*
X130495808Y-79636587D01*
X130400044Y-79372186D01*
X130110429Y-79231296D01*
X129798892Y-79149616D01*
X129477405Y-79130282D01*
X129158325Y-79174039D01*
X128853912Y-79279205D01*
X128679956Y-79372186D01*
X128584192Y-79636587D01*
X128176826Y-79636587D01*
X128042252Y-79502013D01*
X127774463Y-79323082D01*
X127476912Y-79199832D01*
X127161033Y-79137000D01*
X126838967Y-79137000D01*
X126523088Y-79199832D01*
X126225537Y-79323082D01*
X126015191Y-79463630D01*
X125990537Y-79417506D01*
X125911185Y-79320815D01*
X125814494Y-79241463D01*
X125704180Y-79182498D01*
X125584482Y-79146188D01*
X125460000Y-79133928D01*
X123460000Y-79133928D01*
X123335518Y-79146188D01*
X123215820Y-79182498D01*
X123105506Y-79241463D01*
X123008815Y-79320815D01*
X122929463Y-79417506D01*
X122870498Y-79527820D01*
X122834188Y-79647518D01*
X122821928Y-79772000D01*
X116660000Y-79772000D01*
X116660000Y-78447313D01*
X116836929Y-78624242D01*
X117294545Y-78930011D01*
X117803020Y-79140628D01*
X118342815Y-79248000D01*
X118893185Y-79248000D01*
X119432980Y-79140628D01*
X119941455Y-78930011D01*
X120399071Y-78624242D01*
X120788242Y-78235071D01*
X121094011Y-77777455D01*
X121304628Y-77268980D01*
X121412000Y-76729185D01*
X121412000Y-76178815D01*
X121304628Y-75639020D01*
X121153423Y-75273978D01*
X130707143Y-75273978D01*
X130712387Y-75331157D01*
X130716799Y-75388483D01*
X130718057Y-75392987D01*
X130718483Y-75397637D01*
X130734729Y-75452697D01*
X130750195Y-75508085D01*
X130752304Y-75512260D01*
X130753626Y-75516740D01*
X130780259Y-75567599D01*
X130806187Y-75618924D01*
X130809067Y-75622610D01*
X130811233Y-75626746D01*
X130847261Y-75671493D01*
X130882642Y-75716776D01*
X130886177Y-75719827D01*
X130889110Y-75723470D01*
X130933167Y-75760386D01*
X130976646Y-75797914D01*
X130980710Y-75800222D01*
X130984292Y-75803224D01*
X131029162Y-75827851D01*
X131020751Y-75854367D01*
X131018171Y-75877373D01*
X131012789Y-75899903D01*
X131011265Y-75938954D01*
X131006912Y-75977772D01*
X131008850Y-76000845D01*
X131007947Y-76023988D01*
X131014035Y-76062576D01*
X131017306Y-76101514D01*
X131023689Y-76123773D01*
X131027298Y-76146649D01*
X131036679Y-76172194D01*
X131036853Y-76173134D01*
X131039085Y-76178747D01*
X131040765Y-76183321D01*
X131051536Y-76220881D01*
X131062123Y-76241480D01*
X131070105Y-76263215D01*
X131074023Y-76271189D01*
X131079103Y-76281348D01*
X131081254Y-76284768D01*
X131082746Y-76288520D01*
X131100067Y-76315306D01*
X131108301Y-76331326D01*
X131119105Y-76344956D01*
X131145210Y-76386467D01*
X131147982Y-76389401D01*
X131150176Y-76392795D01*
X131155754Y-76399710D01*
X131178614Y-76427650D01*
X131191470Y-76440555D01*
X131202428Y-76455117D01*
X131208483Y-76461618D01*
X131251663Y-76507338D01*
X131255182Y-76510401D01*
X131258091Y-76514045D01*
X131264329Y-76520371D01*
X131330369Y-76586411D01*
X131344591Y-76598093D01*
X131393869Y-76647371D01*
X131404909Y-76656439D01*
X131414466Y-76667066D01*
X131421065Y-76673014D01*
X131463161Y-76710433D01*
X131490037Y-76735069D01*
X131503613Y-76745266D01*
X131515607Y-76757285D01*
X131522505Y-76762883D01*
X131535205Y-76773043D01*
X131558774Y-76788384D01*
X131580561Y-76806154D01*
X131610684Y-76822172D01*
X131639279Y-76840784D01*
X131665375Y-76851254D01*
X131690202Y-76864455D01*
X131722864Y-76874317D01*
X131754529Y-76887021D01*
X131782159Y-76892221D01*
X131809079Y-76900350D01*
X131843042Y-76903681D01*
X131876563Y-76909990D01*
X131904676Y-76909725D01*
X131932665Y-76912470D01*
X131966619Y-76909141D01*
X132000737Y-76908820D01*
X132028272Y-76903098D01*
X132056250Y-76900355D01*
X132088906Y-76890496D01*
X132122317Y-76883553D01*
X132148214Y-76872592D01*
X132175129Y-76864467D01*
X132183319Y-76861024D01*
X132201099Y-76853404D01*
X132226361Y-76839517D01*
X132236674Y-76835152D01*
X132246836Y-76828262D01*
X132253035Y-76824854D01*
X132305292Y-76796722D01*
X132309786Y-76793656D01*
X132309918Y-76793584D01*
X132310029Y-76793491D01*
X132312631Y-76791716D01*
X132337999Y-76774154D01*
X132339912Y-76772910D01*
X132355022Y-76775668D01*
X132356026Y-76775653D01*
X132357019Y-76775831D01*
X132418215Y-76774726D01*
X132479187Y-76773817D01*
X132480169Y-76773607D01*
X132481177Y-76773589D01*
X132541011Y-76760614D01*
X132600626Y-76747883D01*
X132601548Y-76747487D01*
X132602534Y-76747273D01*
X132658595Y-76722972D01*
X132714716Y-76698856D01*
X132715548Y-76698285D01*
X132716469Y-76697886D01*
X132766609Y-76663251D01*
X132817111Y-76628601D01*
X132817816Y-76627879D01*
X132818642Y-76627309D01*
X132844111Y-76601087D01*
X132858617Y-76616445D01*
X132888148Y-76637459D01*
X132915862Y-76660804D01*
X132938611Y-76673367D01*
X132959793Y-76688440D01*
X132992845Y-76703319D01*
X133024565Y-76720836D01*
X133049323Y-76728742D01*
X133073028Y-76739413D01*
X133102654Y-76746272D01*
X133114033Y-76750769D01*
X133124022Y-76752596D01*
X133142858Y-76758611D01*
X133151557Y-76760414D01*
X133164258Y-76762954D01*
X133182657Y-76764794D01*
X133194006Y-76767421D01*
X133207426Y-76767851D01*
X133236185Y-76773111D01*
X133262071Y-76772734D01*
X133287819Y-76775308D01*
X133324001Y-76771831D01*
X133344019Y-76771539D01*
X133361176Y-76783794D01*
X133362812Y-76784736D01*
X133364246Y-76785974D01*
X133416653Y-76815744D01*
X133468784Y-76845766D01*
X133470575Y-76846373D01*
X133472220Y-76847308D01*
X133480361Y-76850864D01*
X133498141Y-76858484D01*
X133508671Y-76861824D01*
X133508842Y-76861915D01*
X133511250Y-76862642D01*
X133545163Y-76873399D01*
X133616492Y-76896026D01*
X133616501Y-76896027D01*
X133616507Y-76896029D01*
X133624960Y-76896977D01*
X133627719Y-76897810D01*
X133664927Y-76901459D01*
X133667995Y-76901803D01*
X133739896Y-76909868D01*
X133748780Y-76909930D01*
X133751320Y-76909930D01*
X133811895Y-76903990D01*
X133823922Y-76902811D01*
X133863654Y-76899474D01*
X133866608Y-76898627D01*
X133874890Y-76897815D01*
X133874898Y-76897813D01*
X133874905Y-76897812D01*
X133935466Y-76879528D01*
X133970672Y-76868900D01*
X133977023Y-76867378D01*
X133979421Y-76866276D01*
X133983021Y-76865244D01*
X133983362Y-76865069D01*
X133993769Y-76861927D01*
X133993781Y-76861922D01*
X133993787Y-76861920D01*
X134001959Y-76858484D01*
X134019739Y-76850864D01*
X134054164Y-76831940D01*
X134089863Y-76815540D01*
X134108453Y-76802096D01*
X134128558Y-76791044D01*
X134158653Y-76765793D01*
X134190486Y-76742772D01*
X134197102Y-76736842D01*
X134225042Y-76711442D01*
X134225759Y-76710650D01*
X134226605Y-76710015D01*
X134233117Y-76703972D01*
X134276297Y-76663332D01*
X134276388Y-76663227D01*
X134280857Y-76658997D01*
X134344357Y-76598037D01*
X134345695Y-76596474D01*
X134347305Y-76595189D01*
X134353631Y-76588951D01*
X134414591Y-76527991D01*
X134423659Y-76516951D01*
X134434286Y-76507394D01*
X134440234Y-76500795D01*
X134477653Y-76458699D01*
X134502289Y-76431823D01*
X134512486Y-76418247D01*
X134524505Y-76406253D01*
X134530103Y-76399355D01*
X134540263Y-76386655D01*
X134541496Y-76384761D01*
X134543058Y-76383135D01*
X134567472Y-76345041D01*
X134576866Y-76332534D01*
X134580777Y-76324411D01*
X134608004Y-76282581D01*
X134608845Y-76280485D01*
X134610062Y-76278586D01*
X134631954Y-76222885D01*
X134654241Y-76167331D01*
X134654658Y-76165114D01*
X134655484Y-76163013D01*
X134666146Y-76104078D01*
X134677210Y-76045297D01*
X134677189Y-76043042D01*
X134677591Y-76040819D01*
X134676604Y-75980981D01*
X134676040Y-75921123D01*
X134675580Y-75918910D01*
X134675543Y-75916657D01*
X134662960Y-75858184D01*
X134657719Y-75832967D01*
X134674437Y-75824301D01*
X134703190Y-75801348D01*
X134717359Y-75792643D01*
X134725099Y-75785484D01*
X134743021Y-75772877D01*
X134756374Y-75758892D01*
X134771485Y-75746829D01*
X134777811Y-75740591D01*
X134782891Y-75735511D01*
X134794778Y-75721040D01*
X134808524Y-75708326D01*
X134820909Y-75691301D01*
X134828775Y-75683063D01*
X134838422Y-75667906D01*
X134861710Y-75639554D01*
X134870557Y-75623054D01*
X134881575Y-75607909D01*
X134894816Y-75579299D01*
X134895450Y-75578303D01*
X134896367Y-75575947D01*
X134899842Y-75568438D01*
X134920391Y-75530116D01*
X134925865Y-75512211D01*
X134933731Y-75495215D01*
X134936599Y-75486806D01*
X134939139Y-75479186D01*
X134948432Y-75438398D01*
X134956697Y-75411364D01*
X134958134Y-75397214D01*
X134965713Y-75365707D01*
X134966707Y-75358185D01*
X134966724Y-75358111D01*
X134966726Y-75358043D01*
X134966877Y-75356900D01*
X134969417Y-75336580D01*
X134969789Y-75322602D01*
X134972268Y-75308844D01*
X134972921Y-75299984D01*
X134975461Y-75261884D01*
X134974938Y-75245115D01*
X134976808Y-75228444D01*
X134976870Y-75219560D01*
X134976870Y-74993500D01*
X134976060Y-74985236D01*
X134976655Y-74976949D01*
X134976362Y-74968070D01*
X134973822Y-74904570D01*
X134973268Y-74900573D01*
X134973450Y-74896545D01*
X134972921Y-74887676D01*
X134970381Y-74849576D01*
X134967181Y-74830274D01*
X134966590Y-74810722D01*
X134965395Y-74801918D01*
X134962855Y-74784138D01*
X134952513Y-74741811D01*
X134950069Y-74727071D01*
X134948172Y-74722026D01*
X134940615Y-74685391D01*
X134936124Y-74674736D01*
X134933381Y-74663509D01*
X134912047Y-74617611D01*
X134892385Y-74570961D01*
X134885912Y-74561384D01*
X134881039Y-74550900D01*
X134851196Y-74510020D01*
X134822848Y-74468079D01*
X134814635Y-74459939D01*
X134807821Y-74450605D01*
X134770595Y-74416289D01*
X134734650Y-74380663D01*
X134725023Y-74374280D01*
X134716517Y-74366439D01*
X134673327Y-74340004D01*
X134658490Y-74330166D01*
X134660122Y-74320682D01*
X134665786Y-74302828D01*
X134667463Y-74287873D01*
X134669904Y-74279169D01*
X134672091Y-74251141D01*
X134678010Y-74216752D01*
X134677541Y-74198030D01*
X134679628Y-74179424D01*
X134679690Y-74170540D01*
X134679690Y-74168000D01*
X134679071Y-74161692D01*
X134679565Y-74155367D01*
X134675640Y-74122144D01*
X134674900Y-74092613D01*
X134670275Y-74071980D01*
X134667572Y-74044415D01*
X134665739Y-74038344D01*
X134664995Y-74032046D01*
X134653055Y-73995161D01*
X134647738Y-73971442D01*
X134640797Y-73955731D01*
X134631681Y-73925536D01*
X134628704Y-73919937D01*
X134626751Y-73913904D01*
X134605391Y-73875587D01*
X134597557Y-73857854D01*
X134589845Y-73846855D01*
X134573383Y-73815894D01*
X134569377Y-73810982D01*
X134566288Y-73805441D01*
X134561174Y-73798176D01*
X134548474Y-73780396D01*
X134525195Y-73753747D01*
X134504234Y-73725221D01*
X134498253Y-73718651D01*
X134467773Y-73685631D01*
X134461573Y-73680108D01*
X134456389Y-73673615D01*
X134450151Y-73667289D01*
X134409907Y-73627045D01*
X134364467Y-73579333D01*
X134343896Y-73561578D01*
X134342089Y-73559315D01*
X134335851Y-73552989D01*
X134335067Y-73552205D01*
X134324504Y-73540877D01*
X134318649Y-73535787D01*
X134277431Y-73494569D01*
X134264467Y-73483920D01*
X134253152Y-73471535D01*
X134246507Y-73465638D01*
X134205867Y-73430078D01*
X134198044Y-73424480D01*
X134191253Y-73417675D01*
X134184355Y-73412077D01*
X134158955Y-73391757D01*
X134158511Y-73391468D01*
X134158132Y-73391100D01*
X134120620Y-73366772D01*
X134110792Y-73358525D01*
X134092175Y-73348290D01*
X134054881Y-73324016D01*
X134054393Y-73323820D01*
X134053947Y-73323531D01*
X134046028Y-73319503D01*
X134035869Y-73314423D01*
X134018382Y-73307723D01*
X134001973Y-73298702D01*
X133960514Y-73285550D01*
X133919911Y-73269993D01*
X133901462Y-73266818D01*
X133883608Y-73261154D01*
X133840388Y-73256306D01*
X133809266Y-73250950D01*
X133800419Y-73249349D01*
X133800006Y-73249356D01*
X133797532Y-73248930D01*
X133778810Y-73249399D01*
X133760204Y-73247312D01*
X133751320Y-73247250D01*
X133748780Y-73247250D01*
X133712601Y-73250798D01*
X133676257Y-73251397D01*
X133650954Y-73256842D01*
X133625195Y-73259368D01*
X133599079Y-73267253D01*
X133598339Y-73265660D01*
X133589574Y-73253653D01*
X133582688Y-73240482D01*
X133553025Y-73203589D01*
X133525121Y-73165365D01*
X133514195Y-73155293D01*
X133504878Y-73143705D01*
X133468618Y-73113279D01*
X133433817Y-73081199D01*
X133421136Y-73073437D01*
X133409752Y-73063885D01*
X133368284Y-73041088D01*
X133327903Y-73016372D01*
X133313955Y-73011221D01*
X133300933Y-73004062D01*
X133255825Y-72989753D01*
X133211416Y-72973352D01*
X133196737Y-72971009D01*
X133182568Y-72966514D01*
X133135523Y-72961237D01*
X133088790Y-72953777D01*
X133082453Y-72954013D01*
X133049892Y-72951687D01*
X133046773Y-72951769D01*
X133043695Y-72951275D01*
X133034824Y-72950790D01*
X132981484Y-72948250D01*
X132970767Y-72948788D01*
X132960104Y-72947592D01*
X132951220Y-72947530D01*
X132753100Y-72947530D01*
X132743105Y-72948510D01*
X132733086Y-72947845D01*
X132724209Y-72948186D01*
X132668328Y-72950726D01*
X132667366Y-72950865D01*
X132666401Y-72950817D01*
X132657530Y-72951309D01*
X132616891Y-72953849D01*
X132614858Y-72954177D01*
X132612801Y-72954118D01*
X132553504Y-72964089D01*
X132543268Y-72965743D01*
X132534101Y-72966363D01*
X132526113Y-72968514D01*
X132494302Y-72973653D01*
X132492378Y-72974368D01*
X132490342Y-72974710D01*
X132481783Y-72977091D01*
X132464003Y-72982171D01*
X132439563Y-72991820D01*
X132414194Y-72998652D01*
X132381947Y-73014569D01*
X132348502Y-73027774D01*
X132326407Y-73041983D01*
X132302842Y-73053615D01*
X132274297Y-73075496D01*
X132244057Y-73094943D01*
X132225144Y-73113173D01*
X132204287Y-73129160D01*
X132180536Y-73156168D01*
X132154650Y-73181119D01*
X132139632Y-73202682D01*
X132122283Y-73222411D01*
X132104240Y-73253500D01*
X132094217Y-73267892D01*
X132064968Y-73258614D01*
X132045965Y-73256483D01*
X132027427Y-73251804D01*
X131984389Y-73249576D01*
X131941564Y-73244772D01*
X131932680Y-73244710D01*
X131930140Y-73244710D01*
X131916413Y-73246056D01*
X131903415Y-73245383D01*
X131863556Y-73251152D01*
X131813098Y-73255567D01*
X131809880Y-73256502D01*
X131806555Y-73256828D01*
X131790170Y-73261775D01*
X131780517Y-73263172D01*
X131750742Y-73273679D01*
X131750291Y-73273815D01*
X131693850Y-73290213D01*
X131690884Y-73291751D01*
X131687676Y-73292719D01*
X131669708Y-73302273D01*
X131663416Y-73304493D01*
X131644830Y-73315501D01*
X131635738Y-73320335D01*
X131583603Y-73347359D01*
X131580989Y-73349446D01*
X131578034Y-73351017D01*
X131559923Y-73365788D01*
X131556571Y-73367773D01*
X131547176Y-73376184D01*
X131532466Y-73388181D01*
X131486555Y-73424831D01*
X131481901Y-73429420D01*
X131481802Y-73429501D01*
X131481726Y-73429593D01*
X131480229Y-73431069D01*
X131473971Y-73437327D01*
X131450311Y-73459167D01*
X131444788Y-73465367D01*
X131438295Y-73470551D01*
X131431969Y-73476789D01*
X131391725Y-73517033D01*
X131344013Y-73562473D01*
X131341838Y-73564993D01*
X131339235Y-73567071D01*
X131332909Y-73573309D01*
X131246549Y-73659669D01*
X131232556Y-73676704D01*
X131216526Y-73691844D01*
X131210740Y-73698586D01*
X131186199Y-73727589D01*
X131171898Y-73743933D01*
X131148039Y-73777277D01*
X131122018Y-73808953D01*
X131111988Y-73827658D01*
X131099636Y-73844920D01*
X131085784Y-73875477D01*
X131079573Y-73885127D01*
X131075093Y-73896463D01*
X131063335Y-73918390D01*
X131059978Y-73926616D01*
X131054898Y-73939315D01*
X131051424Y-73951273D01*
X131048365Y-73958020D01*
X131044872Y-73972930D01*
X131033931Y-74000613D01*
X131028567Y-74029941D01*
X131020251Y-74058562D01*
X131017424Y-74090861D01*
X131011589Y-74122765D01*
X131012024Y-74152575D01*
X131009425Y-74182268D01*
X131012926Y-74214506D01*
X131013399Y-74246930D01*
X131019614Y-74276083D01*
X131022833Y-74305719D01*
X131028887Y-74325039D01*
X131002156Y-74338721D01*
X131001568Y-74339186D01*
X131000897Y-74339531D01*
X130952778Y-74377724D01*
X130904711Y-74415692D01*
X130904225Y-74416261D01*
X130903633Y-74416731D01*
X130863726Y-74463688D01*
X130824071Y-74510125D01*
X130823705Y-74510778D01*
X130823216Y-74511353D01*
X130793392Y-74564804D01*
X130763309Y-74618422D01*
X130763074Y-74619142D01*
X130762710Y-74619794D01*
X130743891Y-74677849D01*
X130724740Y-74736458D01*
X130724650Y-74737206D01*
X130724418Y-74737920D01*
X130717179Y-74798988D01*
X130709833Y-74859738D01*
X130709889Y-74860483D01*
X130709800Y-74861235D01*
X130709683Y-74870118D01*
X130707143Y-75273978D01*
X121153423Y-75273978D01*
X121094011Y-75130545D01*
X120788242Y-74672929D01*
X120399071Y-74283758D01*
X119941455Y-73977989D01*
X119432980Y-73767372D01*
X118893185Y-73660000D01*
X118342815Y-73660000D01*
X117803020Y-73767372D01*
X117294545Y-73977989D01*
X116836929Y-74283758D01*
X116660000Y-74460687D01*
X116660000Y-69674193D01*
X121913000Y-69674193D01*
X121913000Y-70025807D01*
X121981596Y-70370665D01*
X122116153Y-70695515D01*
X122311500Y-70987871D01*
X122560129Y-71236500D01*
X122852485Y-71431847D01*
X123177335Y-71566404D01*
X123522193Y-71635000D01*
X123873807Y-71635000D01*
X124218665Y-71566404D01*
X124543515Y-71431847D01*
X124835871Y-71236500D01*
X125084500Y-70987871D01*
X125279847Y-70695515D01*
X125414404Y-70370665D01*
X125483000Y-70025807D01*
X125483000Y-69674193D01*
X125414404Y-69329335D01*
X125279847Y-69004485D01*
X125109805Y-68750000D01*
X127039928Y-68750000D01*
X127039928Y-70950000D01*
X127052188Y-71074482D01*
X127088498Y-71194180D01*
X127147463Y-71304494D01*
X127226815Y-71401185D01*
X127323506Y-71480537D01*
X127433820Y-71539502D01*
X127553518Y-71575812D01*
X127678000Y-71588072D01*
X129878000Y-71588072D01*
X130002482Y-71575812D01*
X130122180Y-71539502D01*
X130232494Y-71480537D01*
X130329185Y-71401185D01*
X130408537Y-71304494D01*
X130467502Y-71194180D01*
X130503812Y-71074482D01*
X130516072Y-70950000D01*
X130516072Y-69674193D01*
X134613000Y-69674193D01*
X134613000Y-70025807D01*
X134681596Y-70370665D01*
X134816153Y-70695515D01*
X135011500Y-70987871D01*
X135260129Y-71236500D01*
X135552485Y-71431847D01*
X135877335Y-71566404D01*
X136222193Y-71635000D01*
X136573807Y-71635000D01*
X136918665Y-71566404D01*
X137243515Y-71431847D01*
X137535871Y-71236500D01*
X137784500Y-70987871D01*
X137809804Y-70950000D01*
X139739928Y-70950000D01*
X139752188Y-71074482D01*
X139788498Y-71194180D01*
X139847463Y-71304494D01*
X139926815Y-71401185D01*
X140023506Y-71480537D01*
X140133820Y-71539502D01*
X140253518Y-71575812D01*
X140378000Y-71588072D01*
X141192250Y-71585000D01*
X141351000Y-71426250D01*
X141351000Y-69977000D01*
X141605000Y-69977000D01*
X141605000Y-71426250D01*
X141763750Y-71585000D01*
X142578000Y-71588072D01*
X142702482Y-71575812D01*
X142822180Y-71539502D01*
X142932494Y-71480537D01*
X143029185Y-71401185D01*
X143108537Y-71304494D01*
X143167502Y-71194180D01*
X143203812Y-71074482D01*
X143216072Y-70950000D01*
X143213000Y-70135750D01*
X143054250Y-69977000D01*
X141605000Y-69977000D01*
X141351000Y-69977000D01*
X139901750Y-69977000D01*
X139743000Y-70135750D01*
X139739928Y-70950000D01*
X137809804Y-70950000D01*
X137979847Y-70695515D01*
X138114404Y-70370665D01*
X138183000Y-70025807D01*
X138183000Y-69674193D01*
X138114404Y-69329335D01*
X137979847Y-69004485D01*
X137809805Y-68750000D01*
X139739928Y-68750000D01*
X139743000Y-69564250D01*
X139901750Y-69723000D01*
X141351000Y-69723000D01*
X141351000Y-68273750D01*
X141605000Y-68273750D01*
X141605000Y-69723000D01*
X143054250Y-69723000D01*
X143213000Y-69564250D01*
X143216072Y-68750000D01*
X143203812Y-68625518D01*
X143167502Y-68505820D01*
X143108537Y-68395506D01*
X143029185Y-68298815D01*
X142932494Y-68219463D01*
X142822180Y-68160498D01*
X142702482Y-68124188D01*
X142578000Y-68111928D01*
X141763750Y-68115000D01*
X141605000Y-68273750D01*
X141351000Y-68273750D01*
X141192250Y-68115000D01*
X140378000Y-68111928D01*
X140253518Y-68124188D01*
X140133820Y-68160498D01*
X140023506Y-68219463D01*
X139926815Y-68298815D01*
X139847463Y-68395506D01*
X139788498Y-68505820D01*
X139752188Y-68625518D01*
X139739928Y-68750000D01*
X137809805Y-68750000D01*
X137784500Y-68712129D01*
X137535871Y-68463500D01*
X137243515Y-68268153D01*
X136918665Y-68133596D01*
X136573807Y-68065000D01*
X136222193Y-68065000D01*
X135877335Y-68133596D01*
X135552485Y-68268153D01*
X135260129Y-68463500D01*
X135011500Y-68712129D01*
X134816153Y-69004485D01*
X134681596Y-69329335D01*
X134613000Y-69674193D01*
X130516072Y-69674193D01*
X130516072Y-68750000D01*
X130503812Y-68625518D01*
X130467502Y-68505820D01*
X130408537Y-68395506D01*
X130329185Y-68298815D01*
X130232494Y-68219463D01*
X130122180Y-68160498D01*
X130002482Y-68124188D01*
X129878000Y-68111928D01*
X127678000Y-68111928D01*
X127553518Y-68124188D01*
X127433820Y-68160498D01*
X127323506Y-68219463D01*
X127226815Y-68298815D01*
X127147463Y-68395506D01*
X127088498Y-68505820D01*
X127052188Y-68625518D01*
X127039928Y-68750000D01*
X125109805Y-68750000D01*
X125084500Y-68712129D01*
X124835871Y-68463500D01*
X124543515Y-68268153D01*
X124218665Y-68133596D01*
X123873807Y-68065000D01*
X123522193Y-68065000D01*
X123177335Y-68133596D01*
X122852485Y-68268153D01*
X122560129Y-68463500D01*
X122311500Y-68712129D01*
X122116153Y-69004485D01*
X121981596Y-69329335D01*
X121913000Y-69674193D01*
X116660000Y-69674193D01*
X116660000Y-66528500D01*
X120782762Y-66528500D01*
X120782762Y-63660000D01*
X148740001Y-63660000D01*
X148740001Y-74430688D01*
G37*
X148740001Y-74430688D02*
X148593071Y-74283758D01*
X148135455Y-73977989D01*
X147626980Y-73767372D01*
X147087185Y-73660000D01*
X146536815Y-73660000D01*
X145997020Y-73767372D01*
X145488545Y-73977989D01*
X145030929Y-74283758D01*
X144641758Y-74672929D01*
X144335989Y-75130545D01*
X144125372Y-75639020D01*
X144018000Y-76178815D01*
X144018000Y-76729185D01*
X144125372Y-77268980D01*
X144335989Y-77777455D01*
X144641758Y-78235071D01*
X145030929Y-78624242D01*
X145488545Y-78930011D01*
X145997020Y-79140628D01*
X146536815Y-79248000D01*
X147087185Y-79248000D01*
X147626980Y-79140628D01*
X148135455Y-78930011D01*
X148593071Y-78624242D01*
X148740000Y-78477313D01*
X148740000Y-87940000D01*
X134852715Y-87940000D01*
X134852715Y-85510000D01*
X135671928Y-85510000D01*
X135671928Y-87210000D01*
X135684188Y-87334482D01*
X135720498Y-87454180D01*
X135779463Y-87564494D01*
X135858815Y-87661185D01*
X135955506Y-87740537D01*
X136065820Y-87799502D01*
X136185518Y-87835812D01*
X136310000Y-87848072D01*
X138010000Y-87848072D01*
X138134482Y-87835812D01*
X138254180Y-87799502D01*
X138364494Y-87740537D01*
X138461185Y-87661185D01*
X138540537Y-87564494D01*
X138599502Y-87454180D01*
X138621513Y-87381620D01*
X138753368Y-87513475D01*
X138996589Y-87675990D01*
X139266842Y-87787932D01*
X139553740Y-87845000D01*
X139846260Y-87845000D01*
X140133158Y-87787932D01*
X140403411Y-87675990D01*
X140646632Y-87513475D01*
X140853475Y-87306632D01*
X140975195Y-87124466D01*
X141044822Y-87241355D01*
X141239731Y-87457588D01*
X141473080Y-87631641D01*
X141735901Y-87756825D01*
X141883110Y-87801476D01*
X142113000Y-87680155D01*
X142113000Y-86487000D01*
X142367000Y-86487000D01*
X142367000Y-87680155D01*
X142596890Y-87801476D01*
X142744099Y-87756825D01*
X143006920Y-87631641D01*
X143240269Y-87457588D01*
X143435178Y-87241355D01*
X143584157Y-86991252D01*
X143681481Y-86716891D01*
X143560814Y-86487000D01*
X142367000Y-86487000D01*
X142113000Y-86487000D01*
X142093000Y-86487000D01*
X142093000Y-86233000D01*
X142113000Y-86233000D01*
X142113000Y-85039845D01*
X142367000Y-85039845D01*
X142367000Y-86233000D01*
X143560814Y-86233000D01*
X143681481Y-86003109D01*
X143584157Y-85728748D01*
X143435178Y-85478645D01*
X143240269Y-85262412D01*
X143006920Y-85088359D01*
X142744099Y-84963175D01*
X142596890Y-84918524D01*
X142367000Y-85039845D01*
X142113000Y-85039845D01*
X141883110Y-84918524D01*
X141735901Y-84963175D01*
X141473080Y-85088359D01*
X141239731Y-85262412D01*
X141044822Y-85478645D01*
X140975195Y-85595534D01*
X140853475Y-85413368D01*
X140646632Y-85206525D01*
X140403411Y-85044010D01*
X140133158Y-84932068D01*
X139846260Y-84875000D01*
X139553740Y-84875000D01*
X139266842Y-84932068D01*
X138996589Y-85044010D01*
X138753368Y-85206525D01*
X138621513Y-85338380D01*
X138599502Y-85265820D01*
X138540537Y-85155506D01*
X138461185Y-85058815D01*
X138364494Y-84979463D01*
X138254180Y-84920498D01*
X138134482Y-84884188D01*
X138010000Y-84871928D01*
X136310000Y-84871928D01*
X136185518Y-84884188D01*
X136065820Y-84920498D01*
X135955506Y-84979463D01*
X135858815Y-85058815D01*
X135779463Y-85155506D01*
X135720498Y-85265820D01*
X135684188Y-85385518D01*
X135671928Y-85510000D01*
X134852715Y-85510000D01*
X134852715Y-84570000D01*
X123211286Y-84570000D01*
X123211286Y-85353000D01*
X119381762Y-85353000D01*
X119381762Y-87940000D01*
X116660000Y-87940000D01*
X116660000Y-79772000D01*
X122821928Y-79772000D01*
X122821928Y-81772000D01*
X122834188Y-81896482D01*
X122870498Y-82016180D01*
X122929463Y-82126494D01*
X123008815Y-82223185D01*
X123105506Y-82302537D01*
X123215820Y-82361502D01*
X123335518Y-82397812D01*
X123460000Y-82410072D01*
X125460000Y-82410072D01*
X125584482Y-82397812D01*
X125704180Y-82361502D01*
X125814494Y-82302537D01*
X125911185Y-82223185D01*
X125990537Y-82126494D01*
X126015191Y-82080370D01*
X126225537Y-82220918D01*
X126523088Y-82344168D01*
X126838967Y-82407000D01*
X127161033Y-82407000D01*
X127476912Y-82344168D01*
X127774463Y-82220918D01*
X128042252Y-82041987D01*
X128176826Y-81907413D01*
X128584192Y-81907413D01*
X128679956Y-82171814D01*
X128969571Y-82312704D01*
X129281108Y-82394384D01*
X129602595Y-82413718D01*
X129921675Y-82369961D01*
X130226088Y-82264795D01*
X130400044Y-82171814D01*
X130495808Y-81907413D01*
X129540000Y-80951605D01*
X128584192Y-81907413D01*
X128176826Y-81907413D01*
X128269987Y-81814252D01*
X128342720Y-81705400D01*
X128404587Y-81727808D01*
X129360395Y-80772000D01*
X129719605Y-80772000D01*
X130675413Y-81727808D01*
X130939814Y-81632044D01*
X131080704Y-81342429D01*
X131162384Y-81030892D01*
X131181718Y-80709405D01*
X131137961Y-80390325D01*
X131032795Y-80085912D01*
X130939814Y-79911956D01*
X130675413Y-79816192D01*
X129719605Y-80772000D01*
X129360395Y-80772000D01*
X128404587Y-79816192D01*
X128342720Y-79838600D01*
X128269987Y-79729748D01*
X128176826Y-79636587D01*
X128584192Y-79636587D01*
X129540000Y-80592395D01*
X130495808Y-79636587D01*
X130400044Y-79372186D01*
X130110429Y-79231296D01*
X129798892Y-79149616D01*
X129477405Y-79130282D01*
X129158325Y-79174039D01*
X128853912Y-79279205D01*
X128679956Y-79372186D01*
X128584192Y-79636587D01*
X128176826Y-79636587D01*
X128042252Y-79502013D01*
X127774463Y-79323082D01*
X127476912Y-79199832D01*
X127161033Y-79137000D01*
X126838967Y-79137000D01*
X126523088Y-79199832D01*
X126225537Y-79323082D01*
X126015191Y-79463630D01*
X125990537Y-79417506D01*
X125911185Y-79320815D01*
X125814494Y-79241463D01*
X125704180Y-79182498D01*
X125584482Y-79146188D01*
X125460000Y-79133928D01*
X123460000Y-79133928D01*
X123335518Y-79146188D01*
X123215820Y-79182498D01*
X123105506Y-79241463D01*
X123008815Y-79320815D01*
X122929463Y-79417506D01*
X122870498Y-79527820D01*
X122834188Y-79647518D01*
X122821928Y-79772000D01*
X116660000Y-79772000D01*
X116660000Y-78447313D01*
X116836929Y-78624242D01*
X117294545Y-78930011D01*
X117803020Y-79140628D01*
X118342815Y-79248000D01*
X118893185Y-79248000D01*
X119432980Y-79140628D01*
X119941455Y-78930011D01*
X120399071Y-78624242D01*
X120788242Y-78235071D01*
X121094011Y-77777455D01*
X121304628Y-77268980D01*
X121412000Y-76729185D01*
X121412000Y-76178815D01*
X121304628Y-75639020D01*
X121153423Y-75273978D01*
X130707143Y-75273978D01*
X130712387Y-75331157D01*
X130716799Y-75388483D01*
X130718057Y-75392987D01*
X130718483Y-75397637D01*
X130734729Y-75452697D01*
X130750195Y-75508085D01*
X130752304Y-75512260D01*
X130753626Y-75516740D01*
X130780259Y-75567599D01*
X130806187Y-75618924D01*
X130809067Y-75622610D01*
X130811233Y-75626746D01*
X130847261Y-75671493D01*
X130882642Y-75716776D01*
X130886177Y-75719827D01*
X130889110Y-75723470D01*
X130933167Y-75760386D01*
X130976646Y-75797914D01*
X130980710Y-75800222D01*
X130984292Y-75803224D01*
X131029162Y-75827851D01*
X131020751Y-75854367D01*
X131018171Y-75877373D01*
X131012789Y-75899903D01*
X131011265Y-75938954D01*
X131006912Y-75977772D01*
X131008850Y-76000845D01*
X131007947Y-76023988D01*
X131014035Y-76062576D01*
X131017306Y-76101514D01*
X131023689Y-76123773D01*
X131027298Y-76146649D01*
X131036679Y-76172194D01*
X131036853Y-76173134D01*
X131039085Y-76178747D01*
X131040765Y-76183321D01*
X131051536Y-76220881D01*
X131062123Y-76241480D01*
X131070105Y-76263215D01*
X131074023Y-76271189D01*
X131079103Y-76281348D01*
X131081254Y-76284768D01*
X131082746Y-76288520D01*
X131100067Y-76315306D01*
X131108301Y-76331326D01*
X131119105Y-76344956D01*
X131145210Y-76386467D01*
X131147982Y-76389401D01*
X131150176Y-76392795D01*
X131155754Y-76399710D01*
X131178614Y-76427650D01*
X131191470Y-76440555D01*
X131202428Y-76455117D01*
X131208483Y-76461618D01*
X131251663Y-76507338D01*
X131255182Y-76510401D01*
X131258091Y-76514045D01*
X131264329Y-76520371D01*
X131330369Y-76586411D01*
X131344591Y-76598093D01*
X131393869Y-76647371D01*
X131404909Y-76656439D01*
X131414466Y-76667066D01*
X131421065Y-76673014D01*
X131463161Y-76710433D01*
X131490037Y-76735069D01*
X131503613Y-76745266D01*
X131515607Y-76757285D01*
X131522505Y-76762883D01*
X131535205Y-76773043D01*
X131558774Y-76788384D01*
X131580561Y-76806154D01*
X131610684Y-76822172D01*
X131639279Y-76840784D01*
X131665375Y-76851254D01*
X131690202Y-76864455D01*
X131722864Y-76874317D01*
X131754529Y-76887021D01*
X131782159Y-76892221D01*
X131809079Y-76900350D01*
X131843042Y-76903681D01*
X131876563Y-76909990D01*
X131904676Y-76909725D01*
X131932665Y-76912470D01*
X131966619Y-76909141D01*
X132000737Y-76908820D01*
X132028272Y-76903098D01*
X132056250Y-76900355D01*
X132088906Y-76890496D01*
X132122317Y-76883553D01*
X132148214Y-76872592D01*
X132175129Y-76864467D01*
X132183319Y-76861024D01*
X132201099Y-76853404D01*
X132226361Y-76839517D01*
X132236674Y-76835152D01*
X132246836Y-76828262D01*
X132253035Y-76824854D01*
X132305292Y-76796722D01*
X132309786Y-76793656D01*
X132309918Y-76793584D01*
X132310029Y-76793491D01*
X132312631Y-76791716D01*
X132337999Y-76774154D01*
X132339912Y-76772910D01*
X132355022Y-76775668D01*
X132356026Y-76775653D01*
X132357019Y-76775831D01*
X132418215Y-76774726D01*
X132479187Y-76773817D01*
X132480169Y-76773607D01*
X132481177Y-76773589D01*
X132541011Y-76760614D01*
X132600626Y-76747883D01*
X132601548Y-76747487D01*
X132602534Y-76747273D01*
X132658595Y-76722972D01*
X132714716Y-76698856D01*
X132715548Y-76698285D01*
X132716469Y-76697886D01*
X132766609Y-76663251D01*
X132817111Y-76628601D01*
X132817816Y-76627879D01*
X132818642Y-76627309D01*
X132844111Y-76601087D01*
X132858617Y-76616445D01*
X132888148Y-76637459D01*
X132915862Y-76660804D01*
X132938611Y-76673367D01*
X132959793Y-76688440D01*
X132992845Y-76703319D01*
X133024565Y-76720836D01*
X133049323Y-76728742D01*
X133073028Y-76739413D01*
X133102654Y-76746272D01*
X133114033Y-76750769D01*
X133124022Y-76752596D01*
X133142858Y-76758611D01*
X133151557Y-76760414D01*
X133164258Y-76762954D01*
X133182657Y-76764794D01*
X133194006Y-76767421D01*
X133207426Y-76767851D01*
X133236185Y-76773111D01*
X133262071Y-76772734D01*
X133287819Y-76775308D01*
X133324001Y-76771831D01*
X133344019Y-76771539D01*
X133361176Y-76783794D01*
X133362812Y-76784736D01*
X133364246Y-76785974D01*
X133416653Y-76815744D01*
X133468784Y-76845766D01*
X133470575Y-76846373D01*
X133472220Y-76847308D01*
X133480361Y-76850864D01*
X133498141Y-76858484D01*
X133508671Y-76861824D01*
X133508842Y-76861915D01*
X133511250Y-76862642D01*
X133545163Y-76873399D01*
X133616492Y-76896026D01*
X133616501Y-76896027D01*
X133616507Y-76896029D01*
X133624960Y-76896977D01*
X133627719Y-76897810D01*
X133664927Y-76901459D01*
X133667995Y-76901803D01*
X133739896Y-76909868D01*
X133748780Y-76909930D01*
X133751320Y-76909930D01*
X133811895Y-76903990D01*
X133823922Y-76902811D01*
X133863654Y-76899474D01*
X133866608Y-76898627D01*
X133874890Y-76897815D01*
X133874898Y-76897813D01*
X133874905Y-76897812D01*
X133935466Y-76879528D01*
X133970672Y-76868900D01*
X133977023Y-76867378D01*
X133979421Y-76866276D01*
X133983021Y-76865244D01*
X133983362Y-76865069D01*
X133993769Y-76861927D01*
X133993781Y-76861922D01*
X133993787Y-76861920D01*
X134001959Y-76858484D01*
X134019739Y-76850864D01*
X134054164Y-76831940D01*
X134089863Y-76815540D01*
X134108453Y-76802096D01*
X134128558Y-76791044D01*
X134158653Y-76765793D01*
X134190486Y-76742772D01*
X134197102Y-76736842D01*
X134225042Y-76711442D01*
X134225759Y-76710650D01*
X134226605Y-76710015D01*
X134233117Y-76703972D01*
X134276297Y-76663332D01*
X134276388Y-76663227D01*
X134280857Y-76658997D01*
X134344357Y-76598037D01*
X134345695Y-76596474D01*
X134347305Y-76595189D01*
X134353631Y-76588951D01*
X134414591Y-76527991D01*
X134423659Y-76516951D01*
X134434286Y-76507394D01*
X134440234Y-76500795D01*
X134477653Y-76458699D01*
X134502289Y-76431823D01*
X134512486Y-76418247D01*
X134524505Y-76406253D01*
X134530103Y-76399355D01*
X134540263Y-76386655D01*
X134541496Y-76384761D01*
X134543058Y-76383135D01*
X134567472Y-76345041D01*
X134576866Y-76332534D01*
X134580777Y-76324411D01*
X134608004Y-76282581D01*
X134608845Y-76280485D01*
X134610062Y-76278586D01*
X134631954Y-76222885D01*
X134654241Y-76167331D01*
X134654658Y-76165114D01*
X134655484Y-76163013D01*
X134666146Y-76104078D01*
X134677210Y-76045297D01*
X134677189Y-76043042D01*
X134677591Y-76040819D01*
X134676604Y-75980981D01*
X134676040Y-75921123D01*
X134675580Y-75918910D01*
X134675543Y-75916657D01*
X134662960Y-75858184D01*
X134657719Y-75832967D01*
X134674437Y-75824301D01*
X134703190Y-75801348D01*
X134717359Y-75792643D01*
X134725099Y-75785484D01*
X134743021Y-75772877D01*
X134756374Y-75758892D01*
X134771485Y-75746829D01*
X134777811Y-75740591D01*
X134782891Y-75735511D01*
X134794778Y-75721040D01*
X134808524Y-75708326D01*
X134820909Y-75691301D01*
X134828775Y-75683063D01*
X134838422Y-75667906D01*
X134861710Y-75639554D01*
X134870557Y-75623054D01*
X134881575Y-75607909D01*
X134894816Y-75579299D01*
X134895450Y-75578303D01*
X134896367Y-75575947D01*
X134899842Y-75568438D01*
X134920391Y-75530116D01*
X134925865Y-75512211D01*
X134933731Y-75495215D01*
X134936599Y-75486806D01*
X134939139Y-75479186D01*
X134948432Y-75438398D01*
X134956697Y-75411364D01*
X134958134Y-75397214D01*
X134965713Y-75365707D01*
X134966707Y-75358185D01*
X134966724Y-75358111D01*
X134966726Y-75358043D01*
X134966877Y-75356900D01*
X134969417Y-75336580D01*
X134969789Y-75322602D01*
X134972268Y-75308844D01*
X134972921Y-75299984D01*
X134975461Y-75261884D01*
X134974938Y-75245115D01*
X134976808Y-75228444D01*
X134976870Y-75219560D01*
X134976870Y-74993500D01*
X134976060Y-74985236D01*
X134976655Y-74976949D01*
X134976362Y-74968070D01*
X134973822Y-74904570D01*
X134973268Y-74900573D01*
X134973450Y-74896545D01*
X134972921Y-74887676D01*
X134970381Y-74849576D01*
X134967181Y-74830274D01*
X134966590Y-74810722D01*
X134965395Y-74801918D01*
X134962855Y-74784138D01*
X134952513Y-74741811D01*
X134950069Y-74727071D01*
X134948172Y-74722026D01*
X134940615Y-74685391D01*
X134936124Y-74674736D01*
X134933381Y-74663509D01*
X134912047Y-74617611D01*
X134892385Y-74570961D01*
X134885912Y-74561384D01*
X134881039Y-74550900D01*
X134851196Y-74510020D01*
X134822848Y-74468079D01*
X134814635Y-74459939D01*
X134807821Y-74450605D01*
X134770595Y-74416289D01*
X134734650Y-74380663D01*
X134725023Y-74374280D01*
X134716517Y-74366439D01*
X134673327Y-74340004D01*
X134658490Y-74330166D01*
X134660122Y-74320682D01*
X134665786Y-74302828D01*
X134667463Y-74287873D01*
X134669904Y-74279169D01*
X134672091Y-74251141D01*
X134678010Y-74216752D01*
X134677541Y-74198030D01*
X134679628Y-74179424D01*
X134679690Y-74170540D01*
X134679690Y-74168000D01*
X134679071Y-74161692D01*
X134679565Y-74155367D01*
X134675640Y-74122144D01*
X134674900Y-74092613D01*
X134670275Y-74071980D01*
X134667572Y-74044415D01*
X134665739Y-74038344D01*
X134664995Y-74032046D01*
X134653055Y-73995161D01*
X134647738Y-73971442D01*
X134640797Y-73955731D01*
X134631681Y-73925536D01*
X134628704Y-73919937D01*
X134626751Y-73913904D01*
X134605391Y-73875587D01*
X134597557Y-73857854D01*
X134589845Y-73846855D01*
X134573383Y-73815894D01*
X134569377Y-73810982D01*
X134566288Y-73805441D01*
X134561174Y-73798176D01*
X134548474Y-73780396D01*
X134525195Y-73753747D01*
X134504234Y-73725221D01*
X134498253Y-73718651D01*
X134467773Y-73685631D01*
X134461573Y-73680108D01*
X134456389Y-73673615D01*
X134450151Y-73667289D01*
X134409907Y-73627045D01*
X134364467Y-73579333D01*
X134343896Y-73561578D01*
X134342089Y-73559315D01*
X134335851Y-73552989D01*
X134335067Y-73552205D01*
X134324504Y-73540877D01*
X134318649Y-73535787D01*
X134277431Y-73494569D01*
X134264467Y-73483920D01*
X134253152Y-73471535D01*
X134246507Y-73465638D01*
X134205867Y-73430078D01*
X134198044Y-73424480D01*
X134191253Y-73417675D01*
X134184355Y-73412077D01*
X134158955Y-73391757D01*
X134158511Y-73391468D01*
X134158132Y-73391100D01*
X134120620Y-73366772D01*
X134110792Y-73358525D01*
X134092175Y-73348290D01*
X134054881Y-73324016D01*
X134054393Y-73323820D01*
X134053947Y-73323531D01*
X134046028Y-73319503D01*
X134035869Y-73314423D01*
X134018382Y-73307723D01*
X134001973Y-73298702D01*
X133960514Y-73285550D01*
X133919911Y-73269993D01*
X133901462Y-73266818D01*
X133883608Y-73261154D01*
X133840388Y-73256306D01*
X133809266Y-73250950D01*
X133800419Y-73249349D01*
X133800006Y-73249356D01*
X133797532Y-73248930D01*
X133778810Y-73249399D01*
X133760204Y-73247312D01*
X133751320Y-73247250D01*
X133748780Y-73247250D01*
X133712601Y-73250798D01*
X133676257Y-73251397D01*
X133650954Y-73256842D01*
X133625195Y-73259368D01*
X133599079Y-73267253D01*
X133598339Y-73265660D01*
X133589574Y-73253653D01*
X133582688Y-73240482D01*
X133553025Y-73203589D01*
X133525121Y-73165365D01*
X133514195Y-73155293D01*
X133504878Y-73143705D01*
X133468618Y-73113279D01*
X133433817Y-73081199D01*
X133421136Y-73073437D01*
X133409752Y-73063885D01*
X133368284Y-73041088D01*
X133327903Y-73016372D01*
X133313955Y-73011221D01*
X133300933Y-73004062D01*
X133255825Y-72989753D01*
X133211416Y-72973352D01*
X133196737Y-72971009D01*
X133182568Y-72966514D01*
X133135523Y-72961237D01*
X133088790Y-72953777D01*
X133082453Y-72954013D01*
X133049892Y-72951687D01*
X133046773Y-72951769D01*
X133043695Y-72951275D01*
X133034824Y-72950790D01*
X132981484Y-72948250D01*
X132970767Y-72948788D01*
X132960104Y-72947592D01*
X132951220Y-72947530D01*
X132753100Y-72947530D01*
X132743105Y-72948510D01*
X132733086Y-72947845D01*
X132724209Y-72948186D01*
X132668328Y-72950726D01*
X132667366Y-72950865D01*
X132666401Y-72950817D01*
X132657530Y-72951309D01*
X132616891Y-72953849D01*
X132614858Y-72954177D01*
X132612801Y-72954118D01*
X132553504Y-72964089D01*
X132543268Y-72965743D01*
X132534101Y-72966363D01*
X132526113Y-72968514D01*
X132494302Y-72973653D01*
X132492378Y-72974368D01*
X132490342Y-72974710D01*
X132481783Y-72977091D01*
X132464003Y-72982171D01*
X132439563Y-72991820D01*
X132414194Y-72998652D01*
X132381947Y-73014569D01*
X132348502Y-73027774D01*
X132326407Y-73041983D01*
X132302842Y-73053615D01*
X132274297Y-73075496D01*
X132244057Y-73094943D01*
X132225144Y-73113173D01*
X132204287Y-73129160D01*
X132180536Y-73156168D01*
X132154650Y-73181119D01*
X132139632Y-73202682D01*
X132122283Y-73222411D01*
X132104240Y-73253500D01*
X132094217Y-73267892D01*
X132064968Y-73258614D01*
X132045965Y-73256483D01*
X132027427Y-73251804D01*
X131984389Y-73249576D01*
X131941564Y-73244772D01*
X131932680Y-73244710D01*
X131930140Y-73244710D01*
X131916413Y-73246056D01*
X131903415Y-73245383D01*
X131863556Y-73251152D01*
X131813098Y-73255567D01*
X131809880Y-73256502D01*
X131806555Y-73256828D01*
X131790170Y-73261775D01*
X131780517Y-73263172D01*
X131750742Y-73273679D01*
X131750291Y-73273815D01*
X131693850Y-73290213D01*
X131690884Y-73291751D01*
X131687676Y-73292719D01*
X131669708Y-73302273D01*
X131663416Y-73304493D01*
X131644830Y-73315501D01*
X131635738Y-73320335D01*
X131583603Y-73347359D01*
X131580989Y-73349446D01*
X131578034Y-73351017D01*
X131559923Y-73365788D01*
X131556571Y-73367773D01*
X131547176Y-73376184D01*
X131532466Y-73388181D01*
X131486555Y-73424831D01*
X131481901Y-73429420D01*
X131481802Y-73429501D01*
X131481726Y-73429593D01*
X131480229Y-73431069D01*
X131473971Y-73437327D01*
X131450311Y-73459167D01*
X131444788Y-73465367D01*
X131438295Y-73470551D01*
X131431969Y-73476789D01*
X131391725Y-73517033D01*
X131344013Y-73562473D01*
X131341838Y-73564993D01*
X131339235Y-73567071D01*
X131332909Y-73573309D01*
X131246549Y-73659669D01*
X131232556Y-73676704D01*
X131216526Y-73691844D01*
X131210740Y-73698586D01*
X131186199Y-73727589D01*
X131171898Y-73743933D01*
X131148039Y-73777277D01*
X131122018Y-73808953D01*
X131111988Y-73827658D01*
X131099636Y-73844920D01*
X131085784Y-73875477D01*
X131079573Y-73885127D01*
X131075093Y-73896463D01*
X131063335Y-73918390D01*
X131059978Y-73926616D01*
X131054898Y-73939315D01*
X131051424Y-73951273D01*
X131048365Y-73958020D01*
X131044872Y-73972930D01*
X131033931Y-74000613D01*
X131028567Y-74029941D01*
X131020251Y-74058562D01*
X131017424Y-74090861D01*
X131011589Y-74122765D01*
X131012024Y-74152575D01*
X131009425Y-74182268D01*
X131012926Y-74214506D01*
X131013399Y-74246930D01*
X131019614Y-74276083D01*
X131022833Y-74305719D01*
X131028887Y-74325039D01*
X131002156Y-74338721D01*
X131001568Y-74339186D01*
X131000897Y-74339531D01*
X130952778Y-74377724D01*
X130904711Y-74415692D01*
X130904225Y-74416261D01*
X130903633Y-74416731D01*
X130863726Y-74463688D01*
X130824071Y-74510125D01*
X130823705Y-74510778D01*
X130823216Y-74511353D01*
X130793392Y-74564804D01*
X130763309Y-74618422D01*
X130763074Y-74619142D01*
X130762710Y-74619794D01*
X130743891Y-74677849D01*
X130724740Y-74736458D01*
X130724650Y-74737206D01*
X130724418Y-74737920D01*
X130717179Y-74798988D01*
X130709833Y-74859738D01*
X130709889Y-74860483D01*
X130709800Y-74861235D01*
X130709683Y-74870118D01*
X130707143Y-75273978D01*
X121153423Y-75273978D01*
X121094011Y-75130545D01*
X120788242Y-74672929D01*
X120399071Y-74283758D01*
X119941455Y-73977989D01*
X119432980Y-73767372D01*
X118893185Y-73660000D01*
X118342815Y-73660000D01*
X117803020Y-73767372D01*
X117294545Y-73977989D01*
X116836929Y-74283758D01*
X116660000Y-74460687D01*
X116660000Y-69674193D01*
X121913000Y-69674193D01*
X121913000Y-70025807D01*
X121981596Y-70370665D01*
X122116153Y-70695515D01*
X122311500Y-70987871D01*
X122560129Y-71236500D01*
X122852485Y-71431847D01*
X123177335Y-71566404D01*
X123522193Y-71635000D01*
X123873807Y-71635000D01*
X124218665Y-71566404D01*
X124543515Y-71431847D01*
X124835871Y-71236500D01*
X125084500Y-70987871D01*
X125279847Y-70695515D01*
X125414404Y-70370665D01*
X125483000Y-70025807D01*
X125483000Y-69674193D01*
X125414404Y-69329335D01*
X125279847Y-69004485D01*
X125109805Y-68750000D01*
X127039928Y-68750000D01*
X127039928Y-70950000D01*
X127052188Y-71074482D01*
X127088498Y-71194180D01*
X127147463Y-71304494D01*
X127226815Y-71401185D01*
X127323506Y-71480537D01*
X127433820Y-71539502D01*
X127553518Y-71575812D01*
X127678000Y-71588072D01*
X129878000Y-71588072D01*
X130002482Y-71575812D01*
X130122180Y-71539502D01*
X130232494Y-71480537D01*
X130329185Y-71401185D01*
X130408537Y-71304494D01*
X130467502Y-71194180D01*
X130503812Y-71074482D01*
X130516072Y-70950000D01*
X130516072Y-69674193D01*
X134613000Y-69674193D01*
X134613000Y-70025807D01*
X134681596Y-70370665D01*
X134816153Y-70695515D01*
X135011500Y-70987871D01*
X135260129Y-71236500D01*
X135552485Y-71431847D01*
X135877335Y-71566404D01*
X136222193Y-71635000D01*
X136573807Y-71635000D01*
X136918665Y-71566404D01*
X137243515Y-71431847D01*
X137535871Y-71236500D01*
X137784500Y-70987871D01*
X137809804Y-70950000D01*
X139739928Y-70950000D01*
X139752188Y-71074482D01*
X139788498Y-71194180D01*
X139847463Y-71304494D01*
X139926815Y-71401185D01*
X140023506Y-71480537D01*
X140133820Y-71539502D01*
X140253518Y-71575812D01*
X140378000Y-71588072D01*
X141192250Y-71585000D01*
X141351000Y-71426250D01*
X141351000Y-69977000D01*
X141605000Y-69977000D01*
X141605000Y-71426250D01*
X141763750Y-71585000D01*
X142578000Y-71588072D01*
X142702482Y-71575812D01*
X142822180Y-71539502D01*
X142932494Y-71480537D01*
X143029185Y-71401185D01*
X143108537Y-71304494D01*
X143167502Y-71194180D01*
X143203812Y-71074482D01*
X143216072Y-70950000D01*
X143213000Y-70135750D01*
X143054250Y-69977000D01*
X141605000Y-69977000D01*
X141351000Y-69977000D01*
X139901750Y-69977000D01*
X139743000Y-70135750D01*
X139739928Y-70950000D01*
X137809804Y-70950000D01*
X137979847Y-70695515D01*
X138114404Y-70370665D01*
X138183000Y-70025807D01*
X138183000Y-69674193D01*
X138114404Y-69329335D01*
X137979847Y-69004485D01*
X137809805Y-68750000D01*
X139739928Y-68750000D01*
X139743000Y-69564250D01*
X139901750Y-69723000D01*
X141351000Y-69723000D01*
X141351000Y-68273750D01*
X141605000Y-68273750D01*
X141605000Y-69723000D01*
X143054250Y-69723000D01*
X143213000Y-69564250D01*
X143216072Y-68750000D01*
X143203812Y-68625518D01*
X143167502Y-68505820D01*
X143108537Y-68395506D01*
X143029185Y-68298815D01*
X142932494Y-68219463D01*
X142822180Y-68160498D01*
X142702482Y-68124188D01*
X142578000Y-68111928D01*
X141763750Y-68115000D01*
X141605000Y-68273750D01*
X141351000Y-68273750D01*
X141192250Y-68115000D01*
X140378000Y-68111928D01*
X140253518Y-68124188D01*
X140133820Y-68160498D01*
X140023506Y-68219463D01*
X139926815Y-68298815D01*
X139847463Y-68395506D01*
X139788498Y-68505820D01*
X139752188Y-68625518D01*
X139739928Y-68750000D01*
X137809805Y-68750000D01*
X137784500Y-68712129D01*
X137535871Y-68463500D01*
X137243515Y-68268153D01*
X136918665Y-68133596D01*
X136573807Y-68065000D01*
X136222193Y-68065000D01*
X135877335Y-68133596D01*
X135552485Y-68268153D01*
X135260129Y-68463500D01*
X135011500Y-68712129D01*
X134816153Y-69004485D01*
X134681596Y-69329335D01*
X134613000Y-69674193D01*
X130516072Y-69674193D01*
X130516072Y-68750000D01*
X130503812Y-68625518D01*
X130467502Y-68505820D01*
X130408537Y-68395506D01*
X130329185Y-68298815D01*
X130232494Y-68219463D01*
X130122180Y-68160498D01*
X130002482Y-68124188D01*
X129878000Y-68111928D01*
X127678000Y-68111928D01*
X127553518Y-68124188D01*
X127433820Y-68160498D01*
X127323506Y-68219463D01*
X127226815Y-68298815D01*
X127147463Y-68395506D01*
X127088498Y-68505820D01*
X127052188Y-68625518D01*
X127039928Y-68750000D01*
X125109805Y-68750000D01*
X125084500Y-68712129D01*
X124835871Y-68463500D01*
X124543515Y-68268153D01*
X124218665Y-68133596D01*
X123873807Y-68065000D01*
X123522193Y-68065000D01*
X123177335Y-68133596D01*
X122852485Y-68268153D01*
X122560129Y-68463500D01*
X122311500Y-68712129D01*
X122116153Y-69004485D01*
X121981596Y-69329335D01*
X121913000Y-69674193D01*
X116660000Y-69674193D01*
X116660000Y-66528500D01*
X120782762Y-66528500D01*
X120782762Y-63660000D01*
X148740001Y-63660000D01*
X148740001Y-74430688D01*
M02*
