%TF.GenerationSoftware,KiCad,Pcbnew,5.1.5-52549c5~86~ubuntu16.04.1*%
%TF.CreationDate,2020-11-09T14:28:39+05:30*%
%TF.ProjectId,DIP_LED_Module_V1.0,4449505f-4c45-4445-9f4d-6f64756c655f,V1.0*%
%TF.SameCoordinates,Original*%
%TF.FileFunction,Copper,L2,Bot*%
%TF.FilePolarity,Positive*%
%FSLAX46Y46*%
G04 Gerber Fmt 4.6, Leading zero omitted, Abs format (unit mm)*
G04 Created by KiCad (PCBNEW 5.1.5-52549c5~86~ubuntu16.04.1) date 2020-11-09 14:28:39*
%MOMM*%
%LPD*%
G04 APERTURE LIST*
%TA.AperFunction,EtchedComponent*%
%ADD10C,0.002540*%
%TD*%
%TA.AperFunction,ComponentPad*%
%ADD11O,1.700000X1.700000*%
%TD*%
%TA.AperFunction,ComponentPad*%
%ADD12R,1.700000X1.700000*%
%TD*%
%TA.AperFunction,SMDPad,CuDef*%
%ADD13C,0.100000*%
%TD*%
%TA.AperFunction,ComponentPad*%
%ADD14R,1.800000X1.800000*%
%TD*%
%TA.AperFunction,ComponentPad*%
%ADD15C,1.800000*%
%TD*%
%TA.AperFunction,Conductor*%
%ADD16C,0.609600*%
%TD*%
G04 APERTURE END LIST*
D10*
%TO.C,G\002A\002A\002A*%
G36*
X143433800Y-97261680D02*
G01*
X143441420Y-97279460D01*
X143464280Y-97312480D01*
X143497300Y-97363280D01*
X143535400Y-97421700D01*
X143576040Y-97482660D01*
X143609060Y-97530920D01*
X143631920Y-97566480D01*
X143639540Y-97579180D01*
X143637000Y-97586800D01*
X143621760Y-97614740D01*
X143601440Y-97655380D01*
X143588740Y-97680780D01*
X143573500Y-97718880D01*
X143568420Y-97736660D01*
X143573500Y-97739200D01*
X143603980Y-97754440D01*
X143652240Y-97774760D01*
X143718280Y-97802700D01*
X143794480Y-97835720D01*
X143875760Y-97871280D01*
X143959580Y-97904300D01*
X144038320Y-97937320D01*
X144111980Y-97967800D01*
X144170400Y-97990660D01*
X144211040Y-98005900D01*
X144228820Y-98013520D01*
X144231360Y-98010980D01*
X144249140Y-97993200D01*
X144274540Y-97960180D01*
X144332960Y-97889060D01*
X144419320Y-97817940D01*
X144518380Y-97774760D01*
X144630140Y-97762060D01*
X144731740Y-97772220D01*
X144828260Y-97812860D01*
X144917160Y-97881440D01*
X144983200Y-97965260D01*
X145023840Y-98061780D01*
X145036540Y-98171000D01*
X145026380Y-98275140D01*
X144985740Y-98374200D01*
X144919700Y-98463100D01*
X144876520Y-98501200D01*
X144785080Y-98552000D01*
X144691100Y-98582480D01*
X144668240Y-98585020D01*
X144561560Y-98579940D01*
X144459960Y-98549460D01*
X144371060Y-98493580D01*
X144297400Y-98417380D01*
X144289780Y-98407220D01*
X144261840Y-98371660D01*
X144244060Y-98346260D01*
X144228820Y-98328480D01*
X143906240Y-98463100D01*
X143855440Y-98483420D01*
X143766540Y-98521520D01*
X143690340Y-98552000D01*
X143629380Y-98579940D01*
X143588740Y-98597720D01*
X143573500Y-98605340D01*
X143570960Y-98618040D01*
X143578580Y-98640900D01*
X143601440Y-98686620D01*
X143616680Y-98717100D01*
X143631920Y-98750120D01*
X143639540Y-98765360D01*
X143631920Y-98780600D01*
X143611600Y-98813620D01*
X143578580Y-98859340D01*
X143540480Y-98917760D01*
X143502380Y-98973640D01*
X143469360Y-99024440D01*
X143443960Y-99060000D01*
X143436340Y-99077780D01*
X143436340Y-99080320D01*
X143443960Y-99098100D01*
X143469360Y-99126040D01*
X143510000Y-99169220D01*
X143570960Y-99232720D01*
X143581120Y-99242880D01*
X143631920Y-99293680D01*
X143677640Y-99334320D01*
X143708120Y-99362260D01*
X143720820Y-99372420D01*
X143738600Y-99362260D01*
X143776700Y-99339400D01*
X143827500Y-99306380D01*
X143888460Y-99265740D01*
X144043400Y-99159060D01*
X144188180Y-99217480D01*
X144233900Y-99235260D01*
X144289780Y-99258120D01*
X144327880Y-99275900D01*
X144345660Y-99283520D01*
X144350740Y-99301300D01*
X144360900Y-99339400D01*
X144371060Y-99397820D01*
X144383760Y-99468940D01*
X144396460Y-99534980D01*
X144409160Y-99593400D01*
X144416780Y-99636580D01*
X144419320Y-99656900D01*
X144424400Y-99661980D01*
X144432020Y-99664520D01*
X144452340Y-99667060D01*
X144490440Y-99669600D01*
X144546320Y-99669600D01*
X144630140Y-99669600D01*
X144637760Y-99669600D01*
X144716500Y-99669600D01*
X144780000Y-99667060D01*
X144818100Y-99664520D01*
X144835880Y-99661980D01*
X144840960Y-99644200D01*
X144848580Y-99601020D01*
X144861280Y-99542600D01*
X144873980Y-99471480D01*
X144873980Y-99466400D01*
X144889220Y-99395280D01*
X144901920Y-99336860D01*
X144909540Y-99293680D01*
X144917160Y-99275900D01*
X144922240Y-99273360D01*
X144950180Y-99258120D01*
X144993360Y-99237800D01*
X145046700Y-99214940D01*
X145102580Y-99192080D01*
X145153380Y-99171760D01*
X145188940Y-99159060D01*
X145206720Y-99153980D01*
X145224500Y-99164140D01*
X145260060Y-99189540D01*
X145310860Y-99225100D01*
X145371820Y-99265740D01*
X145376900Y-99268280D01*
X145437860Y-99308920D01*
X145488660Y-99341940D01*
X145524220Y-99364800D01*
X145539460Y-99372420D01*
X145542000Y-99372420D01*
X145559780Y-99359720D01*
X145592800Y-99329240D01*
X145638520Y-99283520D01*
X145691860Y-99232720D01*
X145707100Y-99214940D01*
X145765520Y-99156520D01*
X145801080Y-99115880D01*
X145821400Y-99090480D01*
X145826480Y-99080320D01*
X145826480Y-99077780D01*
X145816320Y-99060000D01*
X145790920Y-99021900D01*
X145755360Y-98971100D01*
X145714720Y-98910140D01*
X145712180Y-98907600D01*
X145671540Y-98846640D01*
X145635980Y-98795840D01*
X145613120Y-98760280D01*
X145605500Y-98745040D01*
X145605500Y-98742500D01*
X145610580Y-98719640D01*
X145625820Y-98676460D01*
X145646140Y-98623120D01*
X145669000Y-98567240D01*
X145689320Y-98516440D01*
X145707100Y-98480880D01*
X145717260Y-98463100D01*
X145717260Y-98460560D01*
X145740120Y-98455480D01*
X145785840Y-98445320D01*
X145846800Y-98432620D01*
X145920460Y-98417380D01*
X145930620Y-98414840D01*
X146004280Y-98402140D01*
X146062700Y-98391980D01*
X146103340Y-98381820D01*
X146121120Y-98379280D01*
X146121120Y-98369120D01*
X146123660Y-98333560D01*
X146126200Y-98280220D01*
X146126200Y-98214180D01*
X146126200Y-98148140D01*
X146126200Y-98082100D01*
X146123660Y-98026220D01*
X146121120Y-97985580D01*
X146116040Y-97967800D01*
X146093180Y-97962720D01*
X146050000Y-97952560D01*
X145986500Y-97939860D01*
X145912840Y-97924620D01*
X145900140Y-97922080D01*
X145829020Y-97909380D01*
X145770600Y-97896680D01*
X145729960Y-97889060D01*
X145714720Y-97883980D01*
X145712180Y-97878900D01*
X145696940Y-97848420D01*
X145679160Y-97800160D01*
X145653760Y-97741740D01*
X145597880Y-97604580D01*
X145714720Y-97436940D01*
X145724880Y-97421700D01*
X145765520Y-97360740D01*
X145798540Y-97309940D01*
X145821400Y-97274380D01*
X145829020Y-97261680D01*
X145829020Y-97259140D01*
X145813780Y-97243900D01*
X145783300Y-97210880D01*
X145737580Y-97165160D01*
X145686780Y-97111820D01*
X145646140Y-97071180D01*
X145600420Y-97025460D01*
X145567400Y-96997520D01*
X145547080Y-96979740D01*
X145534380Y-96974660D01*
X145526760Y-96977200D01*
X145508980Y-96987360D01*
X145473420Y-97012760D01*
X145420080Y-97045780D01*
X145361660Y-97086420D01*
X145310860Y-97121980D01*
X145254980Y-97157540D01*
X145214340Y-97180400D01*
X145196560Y-97190560D01*
X145186400Y-97188020D01*
X145153380Y-97175320D01*
X145105120Y-97155000D01*
X145044160Y-97129600D01*
X144912080Y-97071180D01*
X144894300Y-96984820D01*
X144884140Y-96931480D01*
X144871440Y-96857820D01*
X144856200Y-96786700D01*
X144835880Y-96674940D01*
X144432020Y-96672400D01*
X144424400Y-96690180D01*
X144419320Y-96705420D01*
X144409160Y-96746060D01*
X144399000Y-96804480D01*
X144386300Y-96873060D01*
X144373600Y-96934020D01*
X144363440Y-96992440D01*
X144355820Y-97035620D01*
X144350740Y-97053400D01*
X144345660Y-97058480D01*
X144315180Y-97073720D01*
X144269460Y-97094040D01*
X144216120Y-97116900D01*
X144157700Y-97142300D01*
X144106900Y-97162620D01*
X144066260Y-97177860D01*
X144045940Y-97182940D01*
X144030700Y-97175320D01*
X143995140Y-97152460D01*
X143944340Y-97119440D01*
X143885920Y-97078800D01*
X143827500Y-97038160D01*
X143776700Y-97005140D01*
X143741140Y-96979740D01*
X143723360Y-96972120D01*
X143713200Y-96977200D01*
X143685260Y-97000060D01*
X143639540Y-97043240D01*
X143573500Y-97109280D01*
X143563340Y-97121980D01*
X143512540Y-97172780D01*
X143471900Y-97218500D01*
X143443960Y-97248980D01*
X143433800Y-97261680D01*
G37*
X143433800Y-97261680D02*
X143441420Y-97279460D01*
X143464280Y-97312480D01*
X143497300Y-97363280D01*
X143535400Y-97421700D01*
X143576040Y-97482660D01*
X143609060Y-97530920D01*
X143631920Y-97566480D01*
X143639540Y-97579180D01*
X143637000Y-97586800D01*
X143621760Y-97614740D01*
X143601440Y-97655380D01*
X143588740Y-97680780D01*
X143573500Y-97718880D01*
X143568420Y-97736660D01*
X143573500Y-97739200D01*
X143603980Y-97754440D01*
X143652240Y-97774760D01*
X143718280Y-97802700D01*
X143794480Y-97835720D01*
X143875760Y-97871280D01*
X143959580Y-97904300D01*
X144038320Y-97937320D01*
X144111980Y-97967800D01*
X144170400Y-97990660D01*
X144211040Y-98005900D01*
X144228820Y-98013520D01*
X144231360Y-98010980D01*
X144249140Y-97993200D01*
X144274540Y-97960180D01*
X144332960Y-97889060D01*
X144419320Y-97817940D01*
X144518380Y-97774760D01*
X144630140Y-97762060D01*
X144731740Y-97772220D01*
X144828260Y-97812860D01*
X144917160Y-97881440D01*
X144983200Y-97965260D01*
X145023840Y-98061780D01*
X145036540Y-98171000D01*
X145026380Y-98275140D01*
X144985740Y-98374200D01*
X144919700Y-98463100D01*
X144876520Y-98501200D01*
X144785080Y-98552000D01*
X144691100Y-98582480D01*
X144668240Y-98585020D01*
X144561560Y-98579940D01*
X144459960Y-98549460D01*
X144371060Y-98493580D01*
X144297400Y-98417380D01*
X144289780Y-98407220D01*
X144261840Y-98371660D01*
X144244060Y-98346260D01*
X144228820Y-98328480D01*
X143906240Y-98463100D01*
X143855440Y-98483420D01*
X143766540Y-98521520D01*
X143690340Y-98552000D01*
X143629380Y-98579940D01*
X143588740Y-98597720D01*
X143573500Y-98605340D01*
X143570960Y-98618040D01*
X143578580Y-98640900D01*
X143601440Y-98686620D01*
X143616680Y-98717100D01*
X143631920Y-98750120D01*
X143639540Y-98765360D01*
X143631920Y-98780600D01*
X143611600Y-98813620D01*
X143578580Y-98859340D01*
X143540480Y-98917760D01*
X143502380Y-98973640D01*
X143469360Y-99024440D01*
X143443960Y-99060000D01*
X143436340Y-99077780D01*
X143436340Y-99080320D01*
X143443960Y-99098100D01*
X143469360Y-99126040D01*
X143510000Y-99169220D01*
X143570960Y-99232720D01*
X143581120Y-99242880D01*
X143631920Y-99293680D01*
X143677640Y-99334320D01*
X143708120Y-99362260D01*
X143720820Y-99372420D01*
X143738600Y-99362260D01*
X143776700Y-99339400D01*
X143827500Y-99306380D01*
X143888460Y-99265740D01*
X144043400Y-99159060D01*
X144188180Y-99217480D01*
X144233900Y-99235260D01*
X144289780Y-99258120D01*
X144327880Y-99275900D01*
X144345660Y-99283520D01*
X144350740Y-99301300D01*
X144360900Y-99339400D01*
X144371060Y-99397820D01*
X144383760Y-99468940D01*
X144396460Y-99534980D01*
X144409160Y-99593400D01*
X144416780Y-99636580D01*
X144419320Y-99656900D01*
X144424400Y-99661980D01*
X144432020Y-99664520D01*
X144452340Y-99667060D01*
X144490440Y-99669600D01*
X144546320Y-99669600D01*
X144630140Y-99669600D01*
X144637760Y-99669600D01*
X144716500Y-99669600D01*
X144780000Y-99667060D01*
X144818100Y-99664520D01*
X144835880Y-99661980D01*
X144840960Y-99644200D01*
X144848580Y-99601020D01*
X144861280Y-99542600D01*
X144873980Y-99471480D01*
X144873980Y-99466400D01*
X144889220Y-99395280D01*
X144901920Y-99336860D01*
X144909540Y-99293680D01*
X144917160Y-99275900D01*
X144922240Y-99273360D01*
X144950180Y-99258120D01*
X144993360Y-99237800D01*
X145046700Y-99214940D01*
X145102580Y-99192080D01*
X145153380Y-99171760D01*
X145188940Y-99159060D01*
X145206720Y-99153980D01*
X145224500Y-99164140D01*
X145260060Y-99189540D01*
X145310860Y-99225100D01*
X145371820Y-99265740D01*
X145376900Y-99268280D01*
X145437860Y-99308920D01*
X145488660Y-99341940D01*
X145524220Y-99364800D01*
X145539460Y-99372420D01*
X145542000Y-99372420D01*
X145559780Y-99359720D01*
X145592800Y-99329240D01*
X145638520Y-99283520D01*
X145691860Y-99232720D01*
X145707100Y-99214940D01*
X145765520Y-99156520D01*
X145801080Y-99115880D01*
X145821400Y-99090480D01*
X145826480Y-99080320D01*
X145826480Y-99077780D01*
X145816320Y-99060000D01*
X145790920Y-99021900D01*
X145755360Y-98971100D01*
X145714720Y-98910140D01*
X145712180Y-98907600D01*
X145671540Y-98846640D01*
X145635980Y-98795840D01*
X145613120Y-98760280D01*
X145605500Y-98745040D01*
X145605500Y-98742500D01*
X145610580Y-98719640D01*
X145625820Y-98676460D01*
X145646140Y-98623120D01*
X145669000Y-98567240D01*
X145689320Y-98516440D01*
X145707100Y-98480880D01*
X145717260Y-98463100D01*
X145717260Y-98460560D01*
X145740120Y-98455480D01*
X145785840Y-98445320D01*
X145846800Y-98432620D01*
X145920460Y-98417380D01*
X145930620Y-98414840D01*
X146004280Y-98402140D01*
X146062700Y-98391980D01*
X146103340Y-98381820D01*
X146121120Y-98379280D01*
X146121120Y-98369120D01*
X146123660Y-98333560D01*
X146126200Y-98280220D01*
X146126200Y-98214180D01*
X146126200Y-98148140D01*
X146126200Y-98082100D01*
X146123660Y-98026220D01*
X146121120Y-97985580D01*
X146116040Y-97967800D01*
X146093180Y-97962720D01*
X146050000Y-97952560D01*
X145986500Y-97939860D01*
X145912840Y-97924620D01*
X145900140Y-97922080D01*
X145829020Y-97909380D01*
X145770600Y-97896680D01*
X145729960Y-97889060D01*
X145714720Y-97883980D01*
X145712180Y-97878900D01*
X145696940Y-97848420D01*
X145679160Y-97800160D01*
X145653760Y-97741740D01*
X145597880Y-97604580D01*
X145714720Y-97436940D01*
X145724880Y-97421700D01*
X145765520Y-97360740D01*
X145798540Y-97309940D01*
X145821400Y-97274380D01*
X145829020Y-97261680D01*
X145829020Y-97259140D01*
X145813780Y-97243900D01*
X145783300Y-97210880D01*
X145737580Y-97165160D01*
X145686780Y-97111820D01*
X145646140Y-97071180D01*
X145600420Y-97025460D01*
X145567400Y-96997520D01*
X145547080Y-96979740D01*
X145534380Y-96974660D01*
X145526760Y-96977200D01*
X145508980Y-96987360D01*
X145473420Y-97012760D01*
X145420080Y-97045780D01*
X145361660Y-97086420D01*
X145310860Y-97121980D01*
X145254980Y-97157540D01*
X145214340Y-97180400D01*
X145196560Y-97190560D01*
X145186400Y-97188020D01*
X145153380Y-97175320D01*
X145105120Y-97155000D01*
X145044160Y-97129600D01*
X144912080Y-97071180D01*
X144894300Y-96984820D01*
X144884140Y-96931480D01*
X144871440Y-96857820D01*
X144856200Y-96786700D01*
X144835880Y-96674940D01*
X144432020Y-96672400D01*
X144424400Y-96690180D01*
X144419320Y-96705420D01*
X144409160Y-96746060D01*
X144399000Y-96804480D01*
X144386300Y-96873060D01*
X144373600Y-96934020D01*
X144363440Y-96992440D01*
X144355820Y-97035620D01*
X144350740Y-97053400D01*
X144345660Y-97058480D01*
X144315180Y-97073720D01*
X144269460Y-97094040D01*
X144216120Y-97116900D01*
X144157700Y-97142300D01*
X144106900Y-97162620D01*
X144066260Y-97177860D01*
X144045940Y-97182940D01*
X144030700Y-97175320D01*
X143995140Y-97152460D01*
X143944340Y-97119440D01*
X143885920Y-97078800D01*
X143827500Y-97038160D01*
X143776700Y-97005140D01*
X143741140Y-96979740D01*
X143723360Y-96972120D01*
X143713200Y-96977200D01*
X143685260Y-97000060D01*
X143639540Y-97043240D01*
X143573500Y-97109280D01*
X143563340Y-97121980D01*
X143512540Y-97172780D01*
X143471900Y-97218500D01*
X143443960Y-97248980D01*
X143433800Y-97261680D01*
%TD*%
D11*
%TO.P,J1,2*%
%TO.N,GND*%
X131445000Y-99060000D03*
D12*
%TO.P,J1,1*%
%TO.N,Net-(J1-Pad1)*%
X131445000Y-96520000D03*
%TD*%
%TA.AperFunction,SMDPad,CuDef*%
D13*
%TO.P,R1,1*%
%TO.N,Net-(J1-Pad1)*%
G36*
X134585142Y-95821174D02*
G01*
X134608803Y-95824684D01*
X134632007Y-95830496D01*
X134654529Y-95838554D01*
X134676153Y-95848782D01*
X134696670Y-95861079D01*
X134715883Y-95875329D01*
X134733607Y-95891393D01*
X134749671Y-95909117D01*
X134763921Y-95928330D01*
X134776218Y-95948847D01*
X134786446Y-95970471D01*
X134794504Y-95992993D01*
X134800316Y-96016197D01*
X134803826Y-96039858D01*
X134805000Y-96063750D01*
X134805000Y-96976250D01*
X134803826Y-97000142D01*
X134800316Y-97023803D01*
X134794504Y-97047007D01*
X134786446Y-97069529D01*
X134776218Y-97091153D01*
X134763921Y-97111670D01*
X134749671Y-97130883D01*
X134733607Y-97148607D01*
X134715883Y-97164671D01*
X134696670Y-97178921D01*
X134676153Y-97191218D01*
X134654529Y-97201446D01*
X134632007Y-97209504D01*
X134608803Y-97215316D01*
X134585142Y-97218826D01*
X134561250Y-97220000D01*
X134073750Y-97220000D01*
X134049858Y-97218826D01*
X134026197Y-97215316D01*
X134002993Y-97209504D01*
X133980471Y-97201446D01*
X133958847Y-97191218D01*
X133938330Y-97178921D01*
X133919117Y-97164671D01*
X133901393Y-97148607D01*
X133885329Y-97130883D01*
X133871079Y-97111670D01*
X133858782Y-97091153D01*
X133848554Y-97069529D01*
X133840496Y-97047007D01*
X133834684Y-97023803D01*
X133831174Y-97000142D01*
X133830000Y-96976250D01*
X133830000Y-96063750D01*
X133831174Y-96039858D01*
X133834684Y-96016197D01*
X133840496Y-95992993D01*
X133848554Y-95970471D01*
X133858782Y-95948847D01*
X133871079Y-95928330D01*
X133885329Y-95909117D01*
X133901393Y-95891393D01*
X133919117Y-95875329D01*
X133938330Y-95861079D01*
X133958847Y-95848782D01*
X133980471Y-95838554D01*
X134002993Y-95830496D01*
X134026197Y-95824684D01*
X134049858Y-95821174D01*
X134073750Y-95820000D01*
X134561250Y-95820000D01*
X134585142Y-95821174D01*
G37*
%TD.AperFunction*%
%TA.AperFunction,SMDPad,CuDef*%
%TO.P,R1,2*%
%TO.N,Net-(D1-Pad2)*%
G36*
X136460142Y-95821174D02*
G01*
X136483803Y-95824684D01*
X136507007Y-95830496D01*
X136529529Y-95838554D01*
X136551153Y-95848782D01*
X136571670Y-95861079D01*
X136590883Y-95875329D01*
X136608607Y-95891393D01*
X136624671Y-95909117D01*
X136638921Y-95928330D01*
X136651218Y-95948847D01*
X136661446Y-95970471D01*
X136669504Y-95992993D01*
X136675316Y-96016197D01*
X136678826Y-96039858D01*
X136680000Y-96063750D01*
X136680000Y-96976250D01*
X136678826Y-97000142D01*
X136675316Y-97023803D01*
X136669504Y-97047007D01*
X136661446Y-97069529D01*
X136651218Y-97091153D01*
X136638921Y-97111670D01*
X136624671Y-97130883D01*
X136608607Y-97148607D01*
X136590883Y-97164671D01*
X136571670Y-97178921D01*
X136551153Y-97191218D01*
X136529529Y-97201446D01*
X136507007Y-97209504D01*
X136483803Y-97215316D01*
X136460142Y-97218826D01*
X136436250Y-97220000D01*
X135948750Y-97220000D01*
X135924858Y-97218826D01*
X135901197Y-97215316D01*
X135877993Y-97209504D01*
X135855471Y-97201446D01*
X135833847Y-97191218D01*
X135813330Y-97178921D01*
X135794117Y-97164671D01*
X135776393Y-97148607D01*
X135760329Y-97130883D01*
X135746079Y-97111670D01*
X135733782Y-97091153D01*
X135723554Y-97069529D01*
X135715496Y-97047007D01*
X135709684Y-97023803D01*
X135706174Y-97000142D01*
X135705000Y-96976250D01*
X135705000Y-96063750D01*
X135706174Y-96039858D01*
X135709684Y-96016197D01*
X135715496Y-95992993D01*
X135723554Y-95970471D01*
X135733782Y-95948847D01*
X135746079Y-95928330D01*
X135760329Y-95909117D01*
X135776393Y-95891393D01*
X135794117Y-95875329D01*
X135813330Y-95861079D01*
X135833847Y-95848782D01*
X135855471Y-95838554D01*
X135877993Y-95830496D01*
X135901197Y-95824684D01*
X135924858Y-95821174D01*
X135948750Y-95820000D01*
X136436250Y-95820000D01*
X136460142Y-95821174D01*
G37*
%TD.AperFunction*%
%TD*%
D14*
%TO.P,D1,1*%
%TO.N,GND*%
X139210000Y-99499000D03*
D15*
%TO.P,D1,2*%
%TO.N,Net-(D1-Pad2)*%
X139210000Y-96959000D03*
%TD*%
D16*
%TO.N,GND*%
X138771000Y-99060000D02*
X139210000Y-99499000D01*
X131445000Y-99060000D02*
X138771000Y-99060000D01*
%TO.N,Net-(D1-Pad2)*%
X138771000Y-96520000D02*
X139210000Y-96959000D01*
X136192500Y-96520000D02*
X138771000Y-96520000D01*
%TO.N,Net-(J1-Pad1)*%
X131445000Y-96520000D02*
X134317500Y-96520000D01*
%TD*%
M02*
