%TF.GenerationSoftware,KiCad,Pcbnew,5.1.5-52549c5~86~ubuntu16.04.1*%
%TF.CreationDate,2020-11-09T14:28:39+05:30*%
%TF.ProjectId,DIP_LED_Module_V1.0,4449505f-4c45-4445-9f4d-6f64756c655f,V1.0*%
%TF.SameCoordinates,Original*%
%TF.FileFunction,Paste,Bot*%
%TF.FilePolarity,Positive*%
%FSLAX46Y46*%
G04 Gerber Fmt 4.6, Leading zero omitted, Abs format (unit mm)*
G04 Created by KiCad (PCBNEW 5.1.5-52549c5~86~ubuntu16.04.1) date 2020-11-09 14:28:39*
%MOMM*%
%LPD*%
G04 APERTURE LIST*
%ADD10C,0.100000*%
G04 APERTURE END LIST*
D10*
%TO.C,R1*%
G36*
X134585142Y-95821174D02*
G01*
X134608803Y-95824684D01*
X134632007Y-95830496D01*
X134654529Y-95838554D01*
X134676153Y-95848782D01*
X134696670Y-95861079D01*
X134715883Y-95875329D01*
X134733607Y-95891393D01*
X134749671Y-95909117D01*
X134763921Y-95928330D01*
X134776218Y-95948847D01*
X134786446Y-95970471D01*
X134794504Y-95992993D01*
X134800316Y-96016197D01*
X134803826Y-96039858D01*
X134805000Y-96063750D01*
X134805000Y-96976250D01*
X134803826Y-97000142D01*
X134800316Y-97023803D01*
X134794504Y-97047007D01*
X134786446Y-97069529D01*
X134776218Y-97091153D01*
X134763921Y-97111670D01*
X134749671Y-97130883D01*
X134733607Y-97148607D01*
X134715883Y-97164671D01*
X134696670Y-97178921D01*
X134676153Y-97191218D01*
X134654529Y-97201446D01*
X134632007Y-97209504D01*
X134608803Y-97215316D01*
X134585142Y-97218826D01*
X134561250Y-97220000D01*
X134073750Y-97220000D01*
X134049858Y-97218826D01*
X134026197Y-97215316D01*
X134002993Y-97209504D01*
X133980471Y-97201446D01*
X133958847Y-97191218D01*
X133938330Y-97178921D01*
X133919117Y-97164671D01*
X133901393Y-97148607D01*
X133885329Y-97130883D01*
X133871079Y-97111670D01*
X133858782Y-97091153D01*
X133848554Y-97069529D01*
X133840496Y-97047007D01*
X133834684Y-97023803D01*
X133831174Y-97000142D01*
X133830000Y-96976250D01*
X133830000Y-96063750D01*
X133831174Y-96039858D01*
X133834684Y-96016197D01*
X133840496Y-95992993D01*
X133848554Y-95970471D01*
X133858782Y-95948847D01*
X133871079Y-95928330D01*
X133885329Y-95909117D01*
X133901393Y-95891393D01*
X133919117Y-95875329D01*
X133938330Y-95861079D01*
X133958847Y-95848782D01*
X133980471Y-95838554D01*
X134002993Y-95830496D01*
X134026197Y-95824684D01*
X134049858Y-95821174D01*
X134073750Y-95820000D01*
X134561250Y-95820000D01*
X134585142Y-95821174D01*
G37*
G36*
X136460142Y-95821174D02*
G01*
X136483803Y-95824684D01*
X136507007Y-95830496D01*
X136529529Y-95838554D01*
X136551153Y-95848782D01*
X136571670Y-95861079D01*
X136590883Y-95875329D01*
X136608607Y-95891393D01*
X136624671Y-95909117D01*
X136638921Y-95928330D01*
X136651218Y-95948847D01*
X136661446Y-95970471D01*
X136669504Y-95992993D01*
X136675316Y-96016197D01*
X136678826Y-96039858D01*
X136680000Y-96063750D01*
X136680000Y-96976250D01*
X136678826Y-97000142D01*
X136675316Y-97023803D01*
X136669504Y-97047007D01*
X136661446Y-97069529D01*
X136651218Y-97091153D01*
X136638921Y-97111670D01*
X136624671Y-97130883D01*
X136608607Y-97148607D01*
X136590883Y-97164671D01*
X136571670Y-97178921D01*
X136551153Y-97191218D01*
X136529529Y-97201446D01*
X136507007Y-97209504D01*
X136483803Y-97215316D01*
X136460142Y-97218826D01*
X136436250Y-97220000D01*
X135948750Y-97220000D01*
X135924858Y-97218826D01*
X135901197Y-97215316D01*
X135877993Y-97209504D01*
X135855471Y-97201446D01*
X135833847Y-97191218D01*
X135813330Y-97178921D01*
X135794117Y-97164671D01*
X135776393Y-97148607D01*
X135760329Y-97130883D01*
X135746079Y-97111670D01*
X135733782Y-97091153D01*
X135723554Y-97069529D01*
X135715496Y-97047007D01*
X135709684Y-97023803D01*
X135706174Y-97000142D01*
X135705000Y-96976250D01*
X135705000Y-96063750D01*
X135706174Y-96039858D01*
X135709684Y-96016197D01*
X135715496Y-95992993D01*
X135723554Y-95970471D01*
X135733782Y-95948847D01*
X135746079Y-95928330D01*
X135760329Y-95909117D01*
X135776393Y-95891393D01*
X135794117Y-95875329D01*
X135813330Y-95861079D01*
X135833847Y-95848782D01*
X135855471Y-95838554D01*
X135877993Y-95830496D01*
X135901197Y-95824684D01*
X135924858Y-95821174D01*
X135948750Y-95820000D01*
X136436250Y-95820000D01*
X136460142Y-95821174D01*
G37*
%TD*%
M02*
