%TF.GenerationSoftware,KiCad,Pcbnew,5.1.5-52549c5~86~ubuntu16.04.1*%
%TF.CreationDate,2020-10-09T17:32:45+05:30*%
%TF.ProjectId,DIP_3_color_LED_Module_V1.0,4449505f-335f-4636-9f6c-6f725f4c4544,V1.0*%
%TF.SameCoordinates,Original*%
%TF.FileFunction,Legend,Bot*%
%TF.FilePolarity,Positive*%
%FSLAX46Y46*%
G04 Gerber Fmt 4.6, Leading zero omitted, Abs format (unit mm)*
G04 Created by KiCad (PCBNEW 5.1.5-52549c5~86~ubuntu16.04.1) date 2020-10-09 17:32:45*
%MOMM*%
%LPD*%
G04 APERTURE LIST*
%ADD10C,0.220000*%
%ADD11C,0.200000*%
%ADD12C,0.010000*%
%ADD13C,0.120000*%
%ADD14C,0.150000*%
G04 APERTURE END LIST*
D10*
X134061142Y-101925428D02*
X133146857Y-101925428D01*
D11*
X133232571Y-100020380D02*
X133632571Y-99544190D01*
X133918285Y-100020380D02*
X133918285Y-99020380D01*
X133461142Y-99020380D01*
X133346857Y-99068000D01*
X133289714Y-99115619D01*
X133232571Y-99210857D01*
X133232571Y-99353714D01*
X133289714Y-99448952D01*
X133346857Y-99496571D01*
X133461142Y-99544190D01*
X133918285Y-99544190D01*
X133289714Y-96401000D02*
X133404000Y-96353380D01*
X133575428Y-96353380D01*
X133746857Y-96401000D01*
X133861142Y-96496238D01*
X133918285Y-96591476D01*
X133975428Y-96781952D01*
X133975428Y-96924809D01*
X133918285Y-97115285D01*
X133861142Y-97210523D01*
X133746857Y-97305761D01*
X133575428Y-97353380D01*
X133461142Y-97353380D01*
X133289714Y-97305761D01*
X133232571Y-97258142D01*
X133232571Y-96924809D01*
X133461142Y-96924809D01*
X133518285Y-94289571D02*
X133346857Y-94337190D01*
X133289714Y-94384809D01*
X133232571Y-94480047D01*
X133232571Y-94622904D01*
X133289714Y-94718142D01*
X133346857Y-94765761D01*
X133461142Y-94813380D01*
X133918285Y-94813380D01*
X133918285Y-93813380D01*
X133518285Y-93813380D01*
X133404000Y-93861000D01*
X133346857Y-93908619D01*
X133289714Y-94003857D01*
X133289714Y-94099095D01*
X133346857Y-94194333D01*
X133404000Y-94241952D01*
X133518285Y-94289571D01*
X133918285Y-94289571D01*
D12*
%TO.C,G\002A\002A\002A*%
G36*
X142274045Y-103748609D02*
G01*
X142241652Y-103744084D01*
X142195238Y-103738141D01*
X142163800Y-103734307D01*
X141920709Y-103694404D01*
X141691542Y-103634799D01*
X141477137Y-103555830D01*
X141278332Y-103457833D01*
X141095965Y-103341148D01*
X140997940Y-103264944D01*
X140890827Y-103160551D01*
X140795822Y-103037913D01*
X140716549Y-102902724D01*
X140656629Y-102760680D01*
X140637619Y-102698550D01*
X140620624Y-102611989D01*
X140610487Y-102508916D01*
X140607198Y-102397276D01*
X140610747Y-102285010D01*
X140621120Y-102180061D01*
X140638309Y-102090372D01*
X140638458Y-102089802D01*
X140695304Y-101916271D01*
X140772963Y-101753443D01*
X140872128Y-101600461D01*
X140993487Y-101456468D01*
X141137732Y-101320607D01*
X141305555Y-101192024D01*
X141426597Y-101112568D01*
X141567318Y-101025337D01*
X141520792Y-100941194D01*
X141498065Y-100900353D01*
X141480418Y-100869133D01*
X141471139Y-100853341D01*
X141470619Y-100852594D01*
X141458572Y-100856309D01*
X141427641Y-100869449D01*
X141381743Y-100890253D01*
X141324798Y-100916960D01*
X141284548Y-100936247D01*
X141083647Y-101040663D01*
X140903087Y-101150661D01*
X140737910Y-101269606D01*
X140583152Y-101400862D01*
X140539994Y-101441250D01*
X140384382Y-101603617D01*
X140253091Y-101770558D01*
X140145226Y-101943609D01*
X140059891Y-102124300D01*
X139996191Y-102314165D01*
X139972221Y-102412800D01*
X139964948Y-102458953D01*
X139958389Y-102522878D01*
X139952823Y-102598335D01*
X139948530Y-102679084D01*
X139945790Y-102758883D01*
X139944882Y-102831491D01*
X139946085Y-102890668D01*
X139949184Y-102927150D01*
X139984608Y-103109530D01*
X140033433Y-103273125D01*
X140097649Y-103421844D01*
X140179245Y-103559595D01*
X140280213Y-103690287D01*
X140402541Y-103817828D01*
X140402843Y-103818116D01*
X140573292Y-103964310D01*
X140754663Y-104088499D01*
X140948011Y-104191170D01*
X141154388Y-104272809D01*
X141374850Y-104333903D01*
X141608826Y-104374729D01*
X141678249Y-104382671D01*
X141748346Y-104389022D01*
X141809733Y-104393015D01*
X141844387Y-104394000D01*
X141930073Y-104394000D01*
X142109625Y-104073572D01*
X142155332Y-103991791D01*
X142196589Y-103917563D01*
X142231870Y-103853668D01*
X142259648Y-103802885D01*
X142278397Y-103767992D01*
X142286591Y-103751768D01*
X142286814Y-103750957D01*
X142274045Y-103748609D01*
G37*
X142274045Y-103748609D02*
X142241652Y-103744084D01*
X142195238Y-103738141D01*
X142163800Y-103734307D01*
X141920709Y-103694404D01*
X141691542Y-103634799D01*
X141477137Y-103555830D01*
X141278332Y-103457833D01*
X141095965Y-103341148D01*
X140997940Y-103264944D01*
X140890827Y-103160551D01*
X140795822Y-103037913D01*
X140716549Y-102902724D01*
X140656629Y-102760680D01*
X140637619Y-102698550D01*
X140620624Y-102611989D01*
X140610487Y-102508916D01*
X140607198Y-102397276D01*
X140610747Y-102285010D01*
X140621120Y-102180061D01*
X140638309Y-102090372D01*
X140638458Y-102089802D01*
X140695304Y-101916271D01*
X140772963Y-101753443D01*
X140872128Y-101600461D01*
X140993487Y-101456468D01*
X141137732Y-101320607D01*
X141305555Y-101192024D01*
X141426597Y-101112568D01*
X141567318Y-101025337D01*
X141520792Y-100941194D01*
X141498065Y-100900353D01*
X141480418Y-100869133D01*
X141471139Y-100853341D01*
X141470619Y-100852594D01*
X141458572Y-100856309D01*
X141427641Y-100869449D01*
X141381743Y-100890253D01*
X141324798Y-100916960D01*
X141284548Y-100936247D01*
X141083647Y-101040663D01*
X140903087Y-101150661D01*
X140737910Y-101269606D01*
X140583152Y-101400862D01*
X140539994Y-101441250D01*
X140384382Y-101603617D01*
X140253091Y-101770558D01*
X140145226Y-101943609D01*
X140059891Y-102124300D01*
X139996191Y-102314165D01*
X139972221Y-102412800D01*
X139964948Y-102458953D01*
X139958389Y-102522878D01*
X139952823Y-102598335D01*
X139948530Y-102679084D01*
X139945790Y-102758883D01*
X139944882Y-102831491D01*
X139946085Y-102890668D01*
X139949184Y-102927150D01*
X139984608Y-103109530D01*
X140033433Y-103273125D01*
X140097649Y-103421844D01*
X140179245Y-103559595D01*
X140280213Y-103690287D01*
X140402541Y-103817828D01*
X140402843Y-103818116D01*
X140573292Y-103964310D01*
X140754663Y-104088499D01*
X140948011Y-104191170D01*
X141154388Y-104272809D01*
X141374850Y-104333903D01*
X141608826Y-104374729D01*
X141678249Y-104382671D01*
X141748346Y-104389022D01*
X141809733Y-104393015D01*
X141844387Y-104394000D01*
X141930073Y-104394000D01*
X142109625Y-104073572D01*
X142155332Y-103991791D01*
X142196589Y-103917563D01*
X142231870Y-103853668D01*
X142259648Y-103802885D01*
X142278397Y-103767992D01*
X142286591Y-103751768D01*
X142286814Y-103750957D01*
X142274045Y-103748609D01*
G36*
X143096207Y-100560938D02*
G01*
X143091521Y-100529606D01*
X143080859Y-100507258D01*
X143062051Y-100485864D01*
X143026851Y-100450650D01*
X142211151Y-100443470D01*
X142041821Y-100441946D01*
X141895921Y-100440485D01*
X141771478Y-100438957D01*
X141666524Y-100437230D01*
X141579087Y-100435174D01*
X141507197Y-100432657D01*
X141448883Y-100429548D01*
X141402176Y-100425717D01*
X141365104Y-100421033D01*
X141335698Y-100415363D01*
X141311986Y-100408578D01*
X141291999Y-100400547D01*
X141273765Y-100391137D01*
X141255315Y-100380219D01*
X141254756Y-100379878D01*
X141215545Y-100344598D01*
X141191085Y-100299571D01*
X141185900Y-100268851D01*
X141192729Y-100245736D01*
X141209997Y-100212514D01*
X141220093Y-100196678D01*
X141246875Y-100141738D01*
X141256330Y-100085521D01*
X141248435Y-100034476D01*
X141223167Y-99995050D01*
X141220826Y-99992961D01*
X141171409Y-99965181D01*
X141110615Y-99952245D01*
X141046635Y-99953962D01*
X140987658Y-99970140D01*
X140942982Y-99999465D01*
X140912400Y-100044112D01*
X140888052Y-100107237D01*
X140871246Y-100182397D01*
X140863294Y-100263152D01*
X140865505Y-100343061D01*
X140868394Y-100366226D01*
X140884974Y-100445871D01*
X140910590Y-100509660D01*
X140950040Y-100566708D01*
X141002399Y-100620816D01*
X141052631Y-100664641D01*
X141096130Y-100694000D01*
X141141781Y-100714455D01*
X141163555Y-100721674D01*
X141201359Y-100733208D01*
X141235745Y-100743118D01*
X141268907Y-100751529D01*
X141303039Y-100758564D01*
X141340333Y-100764347D01*
X141382983Y-100769002D01*
X141433184Y-100772654D01*
X141493127Y-100775425D01*
X141565008Y-100777442D01*
X141651018Y-100778826D01*
X141753353Y-100779702D01*
X141874205Y-100780195D01*
X142015767Y-100780428D01*
X142180234Y-100780525D01*
X142204808Y-100780535D01*
X143014165Y-100780850D01*
X143055708Y-100739331D01*
X143077786Y-100715368D01*
X143090247Y-100693356D01*
X143095819Y-100664765D01*
X143097228Y-100621070D01*
X143097250Y-100609445D01*
X143096207Y-100560938D01*
G37*
X143096207Y-100560938D02*
X143091521Y-100529606D01*
X143080859Y-100507258D01*
X143062051Y-100485864D01*
X143026851Y-100450650D01*
X142211151Y-100443470D01*
X142041821Y-100441946D01*
X141895921Y-100440485D01*
X141771478Y-100438957D01*
X141666524Y-100437230D01*
X141579087Y-100435174D01*
X141507197Y-100432657D01*
X141448883Y-100429548D01*
X141402176Y-100425717D01*
X141365104Y-100421033D01*
X141335698Y-100415363D01*
X141311986Y-100408578D01*
X141291999Y-100400547D01*
X141273765Y-100391137D01*
X141255315Y-100380219D01*
X141254756Y-100379878D01*
X141215545Y-100344598D01*
X141191085Y-100299571D01*
X141185900Y-100268851D01*
X141192729Y-100245736D01*
X141209997Y-100212514D01*
X141220093Y-100196678D01*
X141246875Y-100141738D01*
X141256330Y-100085521D01*
X141248435Y-100034476D01*
X141223167Y-99995050D01*
X141220826Y-99992961D01*
X141171409Y-99965181D01*
X141110615Y-99952245D01*
X141046635Y-99953962D01*
X140987658Y-99970140D01*
X140942982Y-99999465D01*
X140912400Y-100044112D01*
X140888052Y-100107237D01*
X140871246Y-100182397D01*
X140863294Y-100263152D01*
X140865505Y-100343061D01*
X140868394Y-100366226D01*
X140884974Y-100445871D01*
X140910590Y-100509660D01*
X140950040Y-100566708D01*
X141002399Y-100620816D01*
X141052631Y-100664641D01*
X141096130Y-100694000D01*
X141141781Y-100714455D01*
X141163555Y-100721674D01*
X141201359Y-100733208D01*
X141235745Y-100743118D01*
X141268907Y-100751529D01*
X141303039Y-100758564D01*
X141340333Y-100764347D01*
X141382983Y-100769002D01*
X141433184Y-100772654D01*
X141493127Y-100775425D01*
X141565008Y-100777442D01*
X141651018Y-100778826D01*
X141753353Y-100779702D01*
X141874205Y-100780195D01*
X142015767Y-100780428D01*
X142180234Y-100780525D01*
X142204808Y-100780535D01*
X143014165Y-100780850D01*
X143055708Y-100739331D01*
X143077786Y-100715368D01*
X143090247Y-100693356D01*
X143095819Y-100664765D01*
X143097228Y-100621070D01*
X143097250Y-100609445D01*
X143096207Y-100560938D01*
G36*
X142356230Y-99235438D02*
G01*
X142334238Y-99140219D01*
X142301094Y-99059984D01*
X142297278Y-99053214D01*
X142259437Y-99001247D01*
X142207106Y-98946349D01*
X142148751Y-98896463D01*
X142092836Y-98859530D01*
X142088377Y-98857196D01*
X142022889Y-98829624D01*
X141945904Y-98806422D01*
X141863379Y-98788475D01*
X141781275Y-98776666D01*
X141705548Y-98771880D01*
X141642158Y-98774999D01*
X141601368Y-98784962D01*
X141579491Y-98795249D01*
X141561697Y-98807706D01*
X141547454Y-98824980D01*
X141536231Y-98849720D01*
X141527497Y-98884574D01*
X141520720Y-98932189D01*
X141515368Y-98995214D01*
X141510911Y-99076296D01*
X141506817Y-99178085D01*
X141503577Y-99272271D01*
X141500402Y-99368216D01*
X141497511Y-99456198D01*
X141495010Y-99532938D01*
X141493006Y-99595160D01*
X141491605Y-99639584D01*
X141490912Y-99662934D01*
X141490858Y-99665402D01*
X141480905Y-99674647D01*
X141454882Y-99672335D01*
X141418042Y-99660710D01*
X141375637Y-99642018D01*
X141332921Y-99618501D01*
X141295147Y-99592406D01*
X141273075Y-99572339D01*
X141233039Y-99522115D01*
X141208381Y-99470942D01*
X141196218Y-99410610D01*
X141193553Y-99345750D01*
X141195015Y-99292292D01*
X141200532Y-99249556D01*
X141212406Y-99207518D01*
X141232941Y-99156151D01*
X141241676Y-99136200D01*
X141271677Y-99067125D01*
X141291779Y-99016256D01*
X141303042Y-98978886D01*
X141306532Y-98950310D01*
X141303312Y-98925822D01*
X141294735Y-98901408D01*
X141263330Y-98857041D01*
X141213497Y-98830147D01*
X141145250Y-98820732D01*
X141105378Y-98822474D01*
X141048253Y-98832627D01*
X141006321Y-98854110D01*
X140973584Y-98891610D01*
X140944863Y-98947905D01*
X140901082Y-99076304D01*
X140873642Y-99215883D01*
X140863922Y-99357298D01*
X140869214Y-99460050D01*
X140894296Y-99588439D01*
X140939232Y-99701007D01*
X141003795Y-99797485D01*
X141087760Y-99877607D01*
X141190901Y-99941102D01*
X141312900Y-99987678D01*
X141383693Y-100003284D01*
X141469900Y-100014776D01*
X141564309Y-100021893D01*
X141659709Y-100024372D01*
X141748889Y-100021950D01*
X141818791Y-100014950D01*
X141818791Y-99671193D01*
X141827817Y-99406872D01*
X141830660Y-99327762D01*
X141833448Y-99257743D01*
X141836007Y-99200609D01*
X141838163Y-99160157D01*
X141839744Y-99140182D01*
X141840073Y-99138757D01*
X141856975Y-99136789D01*
X141887068Y-99148257D01*
X141924275Y-99170042D01*
X141962524Y-99199027D01*
X141969552Y-99205222D01*
X142002332Y-99236542D01*
X142020656Y-99261890D01*
X142029562Y-99291579D01*
X142034089Y-99335920D01*
X142034206Y-99337532D01*
X142029285Y-99427178D01*
X142002473Y-99508779D01*
X141955759Y-99578638D01*
X141891129Y-99633052D01*
X141868673Y-99645745D01*
X141818791Y-99671193D01*
X141818791Y-100014950D01*
X141824637Y-100014364D01*
X141859233Y-100007580D01*
X141988536Y-99965340D01*
X142097828Y-99907859D01*
X142188099Y-99834179D01*
X142260343Y-99743341D01*
X142315552Y-99634387D01*
X142347492Y-99535962D01*
X142363638Y-99440812D01*
X142366290Y-99338136D01*
X142356230Y-99235438D01*
G37*
X142356230Y-99235438D02*
X142334238Y-99140219D01*
X142301094Y-99059984D01*
X142297278Y-99053214D01*
X142259437Y-99001247D01*
X142207106Y-98946349D01*
X142148751Y-98896463D01*
X142092836Y-98859530D01*
X142088377Y-98857196D01*
X142022889Y-98829624D01*
X141945904Y-98806422D01*
X141863379Y-98788475D01*
X141781275Y-98776666D01*
X141705548Y-98771880D01*
X141642158Y-98774999D01*
X141601368Y-98784962D01*
X141579491Y-98795249D01*
X141561697Y-98807706D01*
X141547454Y-98824980D01*
X141536231Y-98849720D01*
X141527497Y-98884574D01*
X141520720Y-98932189D01*
X141515368Y-98995214D01*
X141510911Y-99076296D01*
X141506817Y-99178085D01*
X141503577Y-99272271D01*
X141500402Y-99368216D01*
X141497511Y-99456198D01*
X141495010Y-99532938D01*
X141493006Y-99595160D01*
X141491605Y-99639584D01*
X141490912Y-99662934D01*
X141490858Y-99665402D01*
X141480905Y-99674647D01*
X141454882Y-99672335D01*
X141418042Y-99660710D01*
X141375637Y-99642018D01*
X141332921Y-99618501D01*
X141295147Y-99592406D01*
X141273075Y-99572339D01*
X141233039Y-99522115D01*
X141208381Y-99470942D01*
X141196218Y-99410610D01*
X141193553Y-99345750D01*
X141195015Y-99292292D01*
X141200532Y-99249556D01*
X141212406Y-99207518D01*
X141232941Y-99156151D01*
X141241676Y-99136200D01*
X141271677Y-99067125D01*
X141291779Y-99016256D01*
X141303042Y-98978886D01*
X141306532Y-98950310D01*
X141303312Y-98925822D01*
X141294735Y-98901408D01*
X141263330Y-98857041D01*
X141213497Y-98830147D01*
X141145250Y-98820732D01*
X141105378Y-98822474D01*
X141048253Y-98832627D01*
X141006321Y-98854110D01*
X140973584Y-98891610D01*
X140944863Y-98947905D01*
X140901082Y-99076304D01*
X140873642Y-99215883D01*
X140863922Y-99357298D01*
X140869214Y-99460050D01*
X140894296Y-99588439D01*
X140939232Y-99701007D01*
X141003795Y-99797485D01*
X141087760Y-99877607D01*
X141190901Y-99941102D01*
X141312900Y-99987678D01*
X141383693Y-100003284D01*
X141469900Y-100014776D01*
X141564309Y-100021893D01*
X141659709Y-100024372D01*
X141748889Y-100021950D01*
X141818791Y-100014950D01*
X141818791Y-99671193D01*
X141827817Y-99406872D01*
X141830660Y-99327762D01*
X141833448Y-99257743D01*
X141836007Y-99200609D01*
X141838163Y-99160157D01*
X141839744Y-99140182D01*
X141840073Y-99138757D01*
X141856975Y-99136789D01*
X141887068Y-99148257D01*
X141924275Y-99170042D01*
X141962524Y-99199027D01*
X141969552Y-99205222D01*
X142002332Y-99236542D01*
X142020656Y-99261890D01*
X142029562Y-99291579D01*
X142034089Y-99335920D01*
X142034206Y-99337532D01*
X142029285Y-99427178D01*
X142002473Y-99508779D01*
X141955759Y-99578638D01*
X141891129Y-99633052D01*
X141868673Y-99645745D01*
X141818791Y-99671193D01*
X141818791Y-100014950D01*
X141824637Y-100014364D01*
X141859233Y-100007580D01*
X141988536Y-99965340D01*
X142097828Y-99907859D01*
X142188099Y-99834179D01*
X142260343Y-99743341D01*
X142315552Y-99634387D01*
X142347492Y-99535962D01*
X142363638Y-99440812D01*
X142366290Y-99338136D01*
X142356230Y-99235438D01*
G36*
X142356843Y-95969342D02*
G01*
X142326411Y-95857070D01*
X142275768Y-95760135D01*
X142204975Y-95678594D01*
X142114097Y-95612508D01*
X142003195Y-95561935D01*
X141872332Y-95526934D01*
X141744636Y-95509399D01*
X141684727Y-95506188D01*
X141640910Y-95509420D01*
X141604533Y-95519804D01*
X141601304Y-95521124D01*
X141579444Y-95531390D01*
X141561663Y-95543836D01*
X141547431Y-95561109D01*
X141536216Y-95585855D01*
X141527487Y-95620723D01*
X141520712Y-95668359D01*
X141515363Y-95731412D01*
X141510906Y-95812528D01*
X141506811Y-95914355D01*
X141503577Y-96008371D01*
X141500402Y-96104316D01*
X141497511Y-96192298D01*
X141495010Y-96269038D01*
X141493006Y-96331260D01*
X141491605Y-96375684D01*
X141490912Y-96399034D01*
X141490858Y-96401502D01*
X141480905Y-96410747D01*
X141454882Y-96408435D01*
X141418042Y-96396810D01*
X141375637Y-96378118D01*
X141332921Y-96354601D01*
X141295147Y-96328506D01*
X141273075Y-96308439D01*
X141224335Y-96240702D01*
X141196776Y-96164543D01*
X141190352Y-96078602D01*
X141205020Y-95981520D01*
X141240732Y-95871937D01*
X141257214Y-95832604D01*
X141286601Y-95755322D01*
X141299078Y-95693877D01*
X141294808Y-95645298D01*
X141273953Y-95606615D01*
X141269830Y-95601939D01*
X141229367Y-95574789D01*
X141174701Y-95559440D01*
X141114244Y-95556133D01*
X141056409Y-95565108D01*
X141009609Y-95586606D01*
X141000321Y-95594244D01*
X140965708Y-95639817D01*
X140934433Y-95705753D01*
X140907577Y-95787115D01*
X140886222Y-95878966D01*
X140871448Y-95976368D01*
X140864337Y-96074386D01*
X140865971Y-96168083D01*
X140868495Y-96196150D01*
X140893429Y-96324461D01*
X140938185Y-96436898D01*
X141002664Y-96533350D01*
X141086770Y-96613703D01*
X141190407Y-96677848D01*
X141313476Y-96725670D01*
X141331950Y-96730974D01*
X141393617Y-96743270D01*
X141472790Y-96752200D01*
X141562128Y-96757599D01*
X141654289Y-96759301D01*
X141741930Y-96757137D01*
X141817711Y-96750943D01*
X141818791Y-96750761D01*
X141818791Y-96407293D01*
X141827817Y-96142972D01*
X141830712Y-96063776D01*
X141833641Y-95993592D01*
X141836415Y-95936235D01*
X141838844Y-95895521D01*
X141840740Y-95875269D01*
X141841164Y-95873766D01*
X141855893Y-95874108D01*
X141884137Y-95885068D01*
X141918404Y-95902982D01*
X141951202Y-95924190D01*
X141962744Y-95933203D01*
X142006730Y-95982007D01*
X142030426Y-96039820D01*
X142036522Y-96103445D01*
X142024189Y-96189115D01*
X141989832Y-96267377D01*
X141936318Y-96333498D01*
X141867471Y-96382260D01*
X141818791Y-96407293D01*
X141818791Y-96750761D01*
X141864530Y-96743051D01*
X141990408Y-96701876D01*
X142100034Y-96641713D01*
X142192338Y-96563937D01*
X142266252Y-96469922D01*
X142320708Y-96361042D01*
X142354637Y-96238670D01*
X142366970Y-96104183D01*
X142367000Y-96096890D01*
X142356843Y-95969342D01*
G37*
X142356843Y-95969342D02*
X142326411Y-95857070D01*
X142275768Y-95760135D01*
X142204975Y-95678594D01*
X142114097Y-95612508D01*
X142003195Y-95561935D01*
X141872332Y-95526934D01*
X141744636Y-95509399D01*
X141684727Y-95506188D01*
X141640910Y-95509420D01*
X141604533Y-95519804D01*
X141601304Y-95521124D01*
X141579444Y-95531390D01*
X141561663Y-95543836D01*
X141547431Y-95561109D01*
X141536216Y-95585855D01*
X141527487Y-95620723D01*
X141520712Y-95668359D01*
X141515363Y-95731412D01*
X141510906Y-95812528D01*
X141506811Y-95914355D01*
X141503577Y-96008371D01*
X141500402Y-96104316D01*
X141497511Y-96192298D01*
X141495010Y-96269038D01*
X141493006Y-96331260D01*
X141491605Y-96375684D01*
X141490912Y-96399034D01*
X141490858Y-96401502D01*
X141480905Y-96410747D01*
X141454882Y-96408435D01*
X141418042Y-96396810D01*
X141375637Y-96378118D01*
X141332921Y-96354601D01*
X141295147Y-96328506D01*
X141273075Y-96308439D01*
X141224335Y-96240702D01*
X141196776Y-96164543D01*
X141190352Y-96078602D01*
X141205020Y-95981520D01*
X141240732Y-95871937D01*
X141257214Y-95832604D01*
X141286601Y-95755322D01*
X141299078Y-95693877D01*
X141294808Y-95645298D01*
X141273953Y-95606615D01*
X141269830Y-95601939D01*
X141229367Y-95574789D01*
X141174701Y-95559440D01*
X141114244Y-95556133D01*
X141056409Y-95565108D01*
X141009609Y-95586606D01*
X141000321Y-95594244D01*
X140965708Y-95639817D01*
X140934433Y-95705753D01*
X140907577Y-95787115D01*
X140886222Y-95878966D01*
X140871448Y-95976368D01*
X140864337Y-96074386D01*
X140865971Y-96168083D01*
X140868495Y-96196150D01*
X140893429Y-96324461D01*
X140938185Y-96436898D01*
X141002664Y-96533350D01*
X141086770Y-96613703D01*
X141190407Y-96677848D01*
X141313476Y-96725670D01*
X141331950Y-96730974D01*
X141393617Y-96743270D01*
X141472790Y-96752200D01*
X141562128Y-96757599D01*
X141654289Y-96759301D01*
X141741930Y-96757137D01*
X141817711Y-96750943D01*
X141818791Y-96750761D01*
X141818791Y-96407293D01*
X141827817Y-96142972D01*
X141830712Y-96063776D01*
X141833641Y-95993592D01*
X141836415Y-95936235D01*
X141838844Y-95895521D01*
X141840740Y-95875269D01*
X141841164Y-95873766D01*
X141855893Y-95874108D01*
X141884137Y-95885068D01*
X141918404Y-95902982D01*
X141951202Y-95924190D01*
X141962744Y-95933203D01*
X142006730Y-95982007D01*
X142030426Y-96039820D01*
X142036522Y-96103445D01*
X142024189Y-96189115D01*
X141989832Y-96267377D01*
X141936318Y-96333498D01*
X141867471Y-96382260D01*
X141818791Y-96407293D01*
X141818791Y-96750761D01*
X141864530Y-96743051D01*
X141990408Y-96701876D01*
X142100034Y-96641713D01*
X142192338Y-96563937D01*
X142266252Y-96469922D01*
X142320708Y-96361042D01*
X142354637Y-96238670D01*
X142366970Y-96104183D01*
X142367000Y-96096890D01*
X142356843Y-95969342D01*
G36*
X142689804Y-93804499D02*
G01*
X142685110Y-93773168D01*
X142674433Y-93750811D01*
X142655672Y-93729464D01*
X142639511Y-93714471D01*
X142623018Y-93704304D01*
X142600890Y-93697840D01*
X142567825Y-93693955D01*
X142518519Y-93691528D01*
X142469491Y-93690038D01*
X142318488Y-93685826D01*
X142314169Y-93496586D01*
X142309850Y-93307347D01*
X142268331Y-93265849D01*
X142243263Y-93243023D01*
X142220028Y-93230557D01*
X142189427Y-93225363D01*
X142144750Y-93224350D01*
X142098484Y-93225478D01*
X142068388Y-93230921D01*
X142045264Y-93243769D01*
X142021170Y-93265849D01*
X141979650Y-93307347D01*
X141975311Y-93497624D01*
X141970971Y-93687900D01*
X141645111Y-93687830D01*
X141530696Y-93687404D01*
X141438885Y-93685936D01*
X141366889Y-93683059D01*
X141311921Y-93678405D01*
X141271191Y-93671607D01*
X141241913Y-93662297D01*
X141221298Y-93650107D01*
X141206559Y-93634671D01*
X141202993Y-93629545D01*
X141191278Y-93597145D01*
X141194628Y-93555586D01*
X141213742Y-93501271D01*
X141237288Y-93452950D01*
X141254310Y-93409539D01*
X141267299Y-93356852D01*
X141270928Y-93331621D01*
X141273617Y-93288459D01*
X141269465Y-93260116D01*
X141256088Y-93236404D01*
X141245688Y-93223671D01*
X141228038Y-93204971D01*
X141210230Y-93193829D01*
X141185297Y-93188297D01*
X141146271Y-93186426D01*
X141111823Y-93186250D01*
X141059140Y-93187098D01*
X141024581Y-93190769D01*
X141000897Y-93198952D01*
X140980837Y-93213338D01*
X140975649Y-93218000D01*
X140940501Y-93260523D01*
X140912168Y-93318608D01*
X140889202Y-93395817D01*
X140875245Y-93464854D01*
X140865138Y-93525220D01*
X140859592Y-93569216D01*
X140858408Y-93605423D01*
X140861390Y-93642420D01*
X140868338Y-93688787D01*
X140869866Y-93698019D01*
X140889470Y-93775482D01*
X140922794Y-93840026D01*
X140968225Y-93895322D01*
X141000067Y-93926804D01*
X141031950Y-93952598D01*
X141066789Y-93973320D01*
X141107499Y-93989584D01*
X141156998Y-94002007D01*
X141218201Y-94011203D01*
X141294024Y-94017787D01*
X141387383Y-94022375D01*
X141501194Y-94025580D01*
X141594019Y-94027322D01*
X141970388Y-94033513D01*
X141978334Y-94093415D01*
X141991907Y-94145375D01*
X142020068Y-94185530D01*
X142025074Y-94190484D01*
X142049594Y-94211218D01*
X142074070Y-94222426D01*
X142107682Y-94226945D01*
X142145340Y-94227650D01*
X142191740Y-94226430D01*
X142221872Y-94220819D01*
X142244828Y-94207894D01*
X142265441Y-94189021D01*
X142293250Y-94153165D01*
X142308027Y-94109802D01*
X142311783Y-94085272D01*
X142319495Y-94020152D01*
X142469994Y-94015951D01*
X142534306Y-94013878D01*
X142578537Y-94011155D01*
X142608005Y-94006653D01*
X142628025Y-93999245D01*
X142643912Y-93987803D01*
X142655672Y-93976537D01*
X142674573Y-93954990D01*
X142685180Y-93932586D01*
X142689828Y-93901128D01*
X142690850Y-93853000D01*
X142689804Y-93804499D01*
G37*
X142689804Y-93804499D02*
X142685110Y-93773168D01*
X142674433Y-93750811D01*
X142655672Y-93729464D01*
X142639511Y-93714471D01*
X142623018Y-93704304D01*
X142600890Y-93697840D01*
X142567825Y-93693955D01*
X142518519Y-93691528D01*
X142469491Y-93690038D01*
X142318488Y-93685826D01*
X142314169Y-93496586D01*
X142309850Y-93307347D01*
X142268331Y-93265849D01*
X142243263Y-93243023D01*
X142220028Y-93230557D01*
X142189427Y-93225363D01*
X142144750Y-93224350D01*
X142098484Y-93225478D01*
X142068388Y-93230921D01*
X142045264Y-93243769D01*
X142021170Y-93265849D01*
X141979650Y-93307347D01*
X141975311Y-93497624D01*
X141970971Y-93687900D01*
X141645111Y-93687830D01*
X141530696Y-93687404D01*
X141438885Y-93685936D01*
X141366889Y-93683059D01*
X141311921Y-93678405D01*
X141271191Y-93671607D01*
X141241913Y-93662297D01*
X141221298Y-93650107D01*
X141206559Y-93634671D01*
X141202993Y-93629545D01*
X141191278Y-93597145D01*
X141194628Y-93555586D01*
X141213742Y-93501271D01*
X141237288Y-93452950D01*
X141254310Y-93409539D01*
X141267299Y-93356852D01*
X141270928Y-93331621D01*
X141273617Y-93288459D01*
X141269465Y-93260116D01*
X141256088Y-93236404D01*
X141245688Y-93223671D01*
X141228038Y-93204971D01*
X141210230Y-93193829D01*
X141185297Y-93188297D01*
X141146271Y-93186426D01*
X141111823Y-93186250D01*
X141059140Y-93187098D01*
X141024581Y-93190769D01*
X141000897Y-93198952D01*
X140980837Y-93213338D01*
X140975649Y-93218000D01*
X140940501Y-93260523D01*
X140912168Y-93318608D01*
X140889202Y-93395817D01*
X140875245Y-93464854D01*
X140865138Y-93525220D01*
X140859592Y-93569216D01*
X140858408Y-93605423D01*
X140861390Y-93642420D01*
X140868338Y-93688787D01*
X140869866Y-93698019D01*
X140889470Y-93775482D01*
X140922794Y-93840026D01*
X140968225Y-93895322D01*
X141000067Y-93926804D01*
X141031950Y-93952598D01*
X141066789Y-93973320D01*
X141107499Y-93989584D01*
X141156998Y-94002007D01*
X141218201Y-94011203D01*
X141294024Y-94017787D01*
X141387383Y-94022375D01*
X141501194Y-94025580D01*
X141594019Y-94027322D01*
X141970388Y-94033513D01*
X141978334Y-94093415D01*
X141991907Y-94145375D01*
X142020068Y-94185530D01*
X142025074Y-94190484D01*
X142049594Y-94211218D01*
X142074070Y-94222426D01*
X142107682Y-94226945D01*
X142145340Y-94227650D01*
X142191740Y-94226430D01*
X142221872Y-94220819D01*
X142244828Y-94207894D01*
X142265441Y-94189021D01*
X142293250Y-94153165D01*
X142308027Y-94109802D01*
X142311783Y-94085272D01*
X142319495Y-94020152D01*
X142469994Y-94015951D01*
X142534306Y-94013878D01*
X142578537Y-94011155D01*
X142608005Y-94006653D01*
X142628025Y-93999245D01*
X142643912Y-93987803D01*
X142655672Y-93976537D01*
X142674573Y-93954990D01*
X142685180Y-93932586D01*
X142689828Y-93901128D01*
X142690850Y-93853000D01*
X142689804Y-93804499D01*
G36*
X142341986Y-97163430D02*
G01*
X142303900Y-97059090D01*
X142247669Y-96971989D01*
X142172752Y-96901338D01*
X142078606Y-96846348D01*
X142053086Y-96835392D01*
X142034045Y-96827960D01*
X142015528Y-96821865D01*
X141994861Y-96816951D01*
X141969374Y-96813066D01*
X141936394Y-96810054D01*
X141893250Y-96807762D01*
X141837269Y-96806036D01*
X141765780Y-96804723D01*
X141676111Y-96803667D01*
X141565590Y-96802715D01*
X141474105Y-96802026D01*
X140968559Y-96798302D01*
X140924830Y-96842031D01*
X140899237Y-96870375D01*
X140886179Y-96896183D01*
X140881546Y-96930303D01*
X140881100Y-96957511D01*
X140884835Y-97007144D01*
X140894467Y-97051315D01*
X140900994Y-97067732D01*
X140911650Y-97086368D01*
X140924136Y-97101614D01*
X140940948Y-97113811D01*
X140964579Y-97123298D01*
X140997524Y-97130412D01*
X141042276Y-97135494D01*
X141101331Y-97138882D01*
X141177183Y-97140916D01*
X141272325Y-97141934D01*
X141389252Y-97142277D01*
X141449502Y-97142300D01*
X141567274Y-97142345D01*
X141662459Y-97142584D01*
X141737870Y-97143180D01*
X141796321Y-97144295D01*
X141840624Y-97146088D01*
X141873593Y-97148721D01*
X141898041Y-97152355D01*
X141916780Y-97157152D01*
X141932624Y-97163272D01*
X141948385Y-97170875D01*
X141988160Y-97195615D01*
X142011884Y-97224989D01*
X142022774Y-97250713D01*
X142033851Y-97319567D01*
X142023441Y-97391793D01*
X141993771Y-97461669D01*
X141947070Y-97523474D01*
X141901748Y-97561400D01*
X141854580Y-97593150D01*
X141404881Y-97599500D01*
X140955181Y-97605850D01*
X140918141Y-97647326D01*
X140895586Y-97676872D01*
X140884506Y-97706874D01*
X140881168Y-97748596D01*
X140881100Y-97759082D01*
X140884825Y-97807350D01*
X140894352Y-97851011D01*
X140900994Y-97867832D01*
X140911693Y-97886523D01*
X140924245Y-97901805D01*
X140941155Y-97914019D01*
X140964925Y-97923508D01*
X140998059Y-97930613D01*
X141043060Y-97935679D01*
X141102432Y-97939046D01*
X141178678Y-97941057D01*
X141274302Y-97942055D01*
X141391806Y-97942381D01*
X141446250Y-97942400D01*
X141570840Y-97942519D01*
X141672705Y-97943089D01*
X141754519Y-97944437D01*
X141818958Y-97946885D01*
X141868695Y-97950758D01*
X141906406Y-97956380D01*
X141934765Y-97964075D01*
X141956448Y-97974168D01*
X141974127Y-97986982D01*
X141990479Y-98002843D01*
X141996283Y-98009064D01*
X142020151Y-98049702D01*
X142032410Y-98109083D01*
X142032415Y-98109125D01*
X142034463Y-98153414D01*
X142028330Y-98189468D01*
X142011326Y-98229832D01*
X142003082Y-98245834D01*
X141974037Y-98291533D01*
X141938885Y-98334205D01*
X141918174Y-98353784D01*
X141869398Y-98393250D01*
X140955178Y-98405950D01*
X140918139Y-98447426D01*
X140896056Y-98476099D01*
X140884941Y-98504967D01*
X140881303Y-98544817D01*
X140881148Y-98561726D01*
X140887612Y-98628466D01*
X140905941Y-98675134D01*
X140944098Y-98714226D01*
X140978918Y-98729802D01*
X141002986Y-98733474D01*
X141047946Y-98736399D01*
X141114526Y-98738589D01*
X141203451Y-98740055D01*
X141315447Y-98740809D01*
X141451241Y-98740860D01*
X141611560Y-98740221D01*
X141645451Y-98740019D01*
X142263751Y-98736150D01*
X142302183Y-98699321D01*
X142331066Y-98657971D01*
X142347220Y-98606244D01*
X142350613Y-98551322D01*
X142341214Y-98500388D01*
X142318990Y-98460626D01*
X142303291Y-98447322D01*
X142289470Y-98436751D01*
X142287187Y-98423932D01*
X142296613Y-98400619D01*
X142304607Y-98384732D01*
X142344681Y-98279056D01*
X142361316Y-98167719D01*
X142354809Y-98054106D01*
X142325455Y-97941600D01*
X142273550Y-97833587D01*
X142253716Y-97802697D01*
X142227829Y-97763872D01*
X142214891Y-97739936D01*
X142213223Y-97725010D01*
X142221146Y-97713218D01*
X142226679Y-97708013D01*
X142264630Y-97661280D01*
X142299321Y-97595905D01*
X142328586Y-97518622D01*
X142350260Y-97436165D01*
X142362177Y-97355268D01*
X142362469Y-97285799D01*
X142341986Y-97163430D01*
G37*
X142341986Y-97163430D02*
X142303900Y-97059090D01*
X142247669Y-96971989D01*
X142172752Y-96901338D01*
X142078606Y-96846348D01*
X142053086Y-96835392D01*
X142034045Y-96827960D01*
X142015528Y-96821865D01*
X141994861Y-96816951D01*
X141969374Y-96813066D01*
X141936394Y-96810054D01*
X141893250Y-96807762D01*
X141837269Y-96806036D01*
X141765780Y-96804723D01*
X141676111Y-96803667D01*
X141565590Y-96802715D01*
X141474105Y-96802026D01*
X140968559Y-96798302D01*
X140924830Y-96842031D01*
X140899237Y-96870375D01*
X140886179Y-96896183D01*
X140881546Y-96930303D01*
X140881100Y-96957511D01*
X140884835Y-97007144D01*
X140894467Y-97051315D01*
X140900994Y-97067732D01*
X140911650Y-97086368D01*
X140924136Y-97101614D01*
X140940948Y-97113811D01*
X140964579Y-97123298D01*
X140997524Y-97130412D01*
X141042276Y-97135494D01*
X141101331Y-97138882D01*
X141177183Y-97140916D01*
X141272325Y-97141934D01*
X141389252Y-97142277D01*
X141449502Y-97142300D01*
X141567274Y-97142345D01*
X141662459Y-97142584D01*
X141737870Y-97143180D01*
X141796321Y-97144295D01*
X141840624Y-97146088D01*
X141873593Y-97148721D01*
X141898041Y-97152355D01*
X141916780Y-97157152D01*
X141932624Y-97163272D01*
X141948385Y-97170875D01*
X141988160Y-97195615D01*
X142011884Y-97224989D01*
X142022774Y-97250713D01*
X142033851Y-97319567D01*
X142023441Y-97391793D01*
X141993771Y-97461669D01*
X141947070Y-97523474D01*
X141901748Y-97561400D01*
X141854580Y-97593150D01*
X141404881Y-97599500D01*
X140955181Y-97605850D01*
X140918141Y-97647326D01*
X140895586Y-97676872D01*
X140884506Y-97706874D01*
X140881168Y-97748596D01*
X140881100Y-97759082D01*
X140884825Y-97807350D01*
X140894352Y-97851011D01*
X140900994Y-97867832D01*
X140911693Y-97886523D01*
X140924245Y-97901805D01*
X140941155Y-97914019D01*
X140964925Y-97923508D01*
X140998059Y-97930613D01*
X141043060Y-97935679D01*
X141102432Y-97939046D01*
X141178678Y-97941057D01*
X141274302Y-97942055D01*
X141391806Y-97942381D01*
X141446250Y-97942400D01*
X141570840Y-97942519D01*
X141672705Y-97943089D01*
X141754519Y-97944437D01*
X141818958Y-97946885D01*
X141868695Y-97950758D01*
X141906406Y-97956380D01*
X141934765Y-97964075D01*
X141956448Y-97974168D01*
X141974127Y-97986982D01*
X141990479Y-98002843D01*
X141996283Y-98009064D01*
X142020151Y-98049702D01*
X142032410Y-98109083D01*
X142032415Y-98109125D01*
X142034463Y-98153414D01*
X142028330Y-98189468D01*
X142011326Y-98229832D01*
X142003082Y-98245834D01*
X141974037Y-98291533D01*
X141938885Y-98334205D01*
X141918174Y-98353784D01*
X141869398Y-98393250D01*
X140955178Y-98405950D01*
X140918139Y-98447426D01*
X140896056Y-98476099D01*
X140884941Y-98504967D01*
X140881303Y-98544817D01*
X140881148Y-98561726D01*
X140887612Y-98628466D01*
X140905941Y-98675134D01*
X140944098Y-98714226D01*
X140978918Y-98729802D01*
X141002986Y-98733474D01*
X141047946Y-98736399D01*
X141114526Y-98738589D01*
X141203451Y-98740055D01*
X141315447Y-98740809D01*
X141451241Y-98740860D01*
X141611560Y-98740221D01*
X141645451Y-98740019D01*
X142263751Y-98736150D01*
X142302183Y-98699321D01*
X142331066Y-98657971D01*
X142347220Y-98606244D01*
X142350613Y-98551322D01*
X142341214Y-98500388D01*
X142318990Y-98460626D01*
X142303291Y-98447322D01*
X142289470Y-98436751D01*
X142287187Y-98423932D01*
X142296613Y-98400619D01*
X142304607Y-98384732D01*
X142344681Y-98279056D01*
X142361316Y-98167719D01*
X142354809Y-98054106D01*
X142325455Y-97941600D01*
X142273550Y-97833587D01*
X142253716Y-97802697D01*
X142227829Y-97763872D01*
X142214891Y-97739936D01*
X142213223Y-97725010D01*
X142221146Y-97713218D01*
X142226679Y-97708013D01*
X142264630Y-97661280D01*
X142299321Y-97595905D01*
X142328586Y-97518622D01*
X142350260Y-97436165D01*
X142362177Y-97355268D01*
X142362469Y-97285799D01*
X142341986Y-97163430D01*
G36*
X142354897Y-94697863D02*
G01*
X142324007Y-94569837D01*
X142283990Y-94475300D01*
X142230742Y-94393966D01*
X142161992Y-94329107D01*
X142074997Y-94278579D01*
X141993090Y-94247852D01*
X141968829Y-94240786D01*
X141944583Y-94235094D01*
X141917377Y-94230628D01*
X141884235Y-94227240D01*
X141842183Y-94224783D01*
X141788246Y-94223110D01*
X141719451Y-94222074D01*
X141632822Y-94221527D01*
X141525384Y-94221321D01*
X141457205Y-94221300D01*
X141328666Y-94221442D01*
X141223054Y-94222089D01*
X141137895Y-94223573D01*
X141070717Y-94226224D01*
X141019046Y-94230376D01*
X140980409Y-94236358D01*
X140952333Y-94244503D01*
X140932346Y-94255142D01*
X140917974Y-94268607D01*
X140906743Y-94285230D01*
X140900994Y-94295869D01*
X140883675Y-94349907D01*
X140881799Y-94408600D01*
X140893715Y-94465286D01*
X140917769Y-94513304D01*
X140952310Y-94545991D01*
X140964483Y-94551817D01*
X140985478Y-94554993D01*
X141029131Y-94557817D01*
X141092700Y-94560216D01*
X141173444Y-94562115D01*
X141268623Y-94563442D01*
X141375495Y-94564124D01*
X141427201Y-94564200D01*
X141557564Y-94564621D01*
X141668567Y-94565859D01*
X141758974Y-94567877D01*
X141827551Y-94570641D01*
X141873063Y-94574114D01*
X141893099Y-94577746D01*
X141954228Y-94613096D01*
X141997281Y-94666070D01*
X142022366Y-94736852D01*
X142029646Y-94811850D01*
X142018524Y-94907833D01*
X141984335Y-94995510D01*
X141928531Y-95071520D01*
X141909386Y-95090114D01*
X141858927Y-95135700D01*
X141427991Y-95135700D01*
X141316569Y-95136064D01*
X141215612Y-95137105D01*
X141127855Y-95138751D01*
X141056034Y-95140928D01*
X141002884Y-95143565D01*
X140971139Y-95146586D01*
X140964483Y-95148084D01*
X140926955Y-95174912D01*
X140899576Y-95218904D01*
X140883873Y-95273330D01*
X140881377Y-95331460D01*
X140893614Y-95386565D01*
X140905046Y-95409763D01*
X140932087Y-95441320D01*
X140964526Y-95463620D01*
X140965625Y-95464088D01*
X140981882Y-95467788D01*
X141012124Y-95470806D01*
X141057904Y-95473167D01*
X141120770Y-95474899D01*
X141202272Y-95476030D01*
X141303961Y-95476586D01*
X141427386Y-95476595D01*
X141574097Y-95476083D01*
X141633052Y-95475776D01*
X142263750Y-95472250D01*
X142302183Y-95435421D01*
X142331933Y-95392726D01*
X142348003Y-95339651D01*
X142350364Y-95283544D01*
X142338994Y-95231751D01*
X142313865Y-95191619D01*
X142303056Y-95182539D01*
X142290622Y-95172231D01*
X142286416Y-95159881D01*
X142290891Y-95138898D01*
X142304503Y-95102689D01*
X142309411Y-95090424D01*
X142347770Y-94962309D01*
X142362875Y-94830071D01*
X142354897Y-94697863D01*
G37*
X142354897Y-94697863D02*
X142324007Y-94569837D01*
X142283990Y-94475300D01*
X142230742Y-94393966D01*
X142161992Y-94329107D01*
X142074997Y-94278579D01*
X141993090Y-94247852D01*
X141968829Y-94240786D01*
X141944583Y-94235094D01*
X141917377Y-94230628D01*
X141884235Y-94227240D01*
X141842183Y-94224783D01*
X141788246Y-94223110D01*
X141719451Y-94222074D01*
X141632822Y-94221527D01*
X141525384Y-94221321D01*
X141457205Y-94221300D01*
X141328666Y-94221442D01*
X141223054Y-94222089D01*
X141137895Y-94223573D01*
X141070717Y-94226224D01*
X141019046Y-94230376D01*
X140980409Y-94236358D01*
X140952333Y-94244503D01*
X140932346Y-94255142D01*
X140917974Y-94268607D01*
X140906743Y-94285230D01*
X140900994Y-94295869D01*
X140883675Y-94349907D01*
X140881799Y-94408600D01*
X140893715Y-94465286D01*
X140917769Y-94513304D01*
X140952310Y-94545991D01*
X140964483Y-94551817D01*
X140985478Y-94554993D01*
X141029131Y-94557817D01*
X141092700Y-94560216D01*
X141173444Y-94562115D01*
X141268623Y-94563442D01*
X141375495Y-94564124D01*
X141427201Y-94564200D01*
X141557564Y-94564621D01*
X141668567Y-94565859D01*
X141758974Y-94567877D01*
X141827551Y-94570641D01*
X141873063Y-94574114D01*
X141893099Y-94577746D01*
X141954228Y-94613096D01*
X141997281Y-94666070D01*
X142022366Y-94736852D01*
X142029646Y-94811850D01*
X142018524Y-94907833D01*
X141984335Y-94995510D01*
X141928531Y-95071520D01*
X141909386Y-95090114D01*
X141858927Y-95135700D01*
X141427991Y-95135700D01*
X141316569Y-95136064D01*
X141215612Y-95137105D01*
X141127855Y-95138751D01*
X141056034Y-95140928D01*
X141002884Y-95143565D01*
X140971139Y-95146586D01*
X140964483Y-95148084D01*
X140926955Y-95174912D01*
X140899576Y-95218904D01*
X140883873Y-95273330D01*
X140881377Y-95331460D01*
X140893614Y-95386565D01*
X140905046Y-95409763D01*
X140932087Y-95441320D01*
X140964526Y-95463620D01*
X140965625Y-95464088D01*
X140981882Y-95467788D01*
X141012124Y-95470806D01*
X141057904Y-95473167D01*
X141120770Y-95474899D01*
X141202272Y-95476030D01*
X141303961Y-95476586D01*
X141427386Y-95476595D01*
X141574097Y-95476083D01*
X141633052Y-95475776D01*
X142263750Y-95472250D01*
X142302183Y-95435421D01*
X142331933Y-95392726D01*
X142348003Y-95339651D01*
X142350364Y-95283544D01*
X142338994Y-95231751D01*
X142313865Y-95191619D01*
X142303056Y-95182539D01*
X142290622Y-95172231D01*
X142286416Y-95159881D01*
X142290891Y-95138898D01*
X142304503Y-95102689D01*
X142309411Y-95090424D01*
X142347770Y-94962309D01*
X142362875Y-94830071D01*
X142354897Y-94697863D01*
G36*
X142304978Y-91983721D02*
G01*
X142279786Y-91963040D01*
X142257170Y-91952087D01*
X142228148Y-91948494D01*
X142183738Y-91949890D01*
X142177978Y-91950220D01*
X142093950Y-91955114D01*
X141217650Y-92644302D01*
X141211300Y-92326838D01*
X141204950Y-92009373D01*
X141161978Y-91971000D01*
X141137304Y-91950663D01*
X141115192Y-91939680D01*
X141086989Y-91935828D01*
X141044041Y-91936885D01*
X141031737Y-91937557D01*
X140979832Y-91942313D01*
X140945744Y-91950873D01*
X140921943Y-91965411D01*
X140915959Y-91970987D01*
X140887450Y-91999485D01*
X140883881Y-92538251D01*
X140880311Y-93077017D01*
X140915631Y-93116200D01*
X140963885Y-93151341D01*
X141025676Y-93166209D01*
X141089448Y-93161914D01*
X141107377Y-93154818D01*
X141136487Y-93137700D01*
X141178035Y-93109640D01*
X141233277Y-93069716D01*
X141303466Y-93017007D01*
X141389859Y-92950592D01*
X141493710Y-92869548D01*
X141575933Y-92804831D01*
X142017750Y-92456128D01*
X142030450Y-93067848D01*
X142066084Y-93098474D01*
X142091231Y-93116119D01*
X142120140Y-93125469D01*
X142161812Y-93128876D01*
X142183358Y-93129100D01*
X142230703Y-93127697D01*
X142262195Y-93121584D01*
X142287312Y-93107908D01*
X142306475Y-93092042D01*
X142347950Y-93054984D01*
X142347950Y-92022117D01*
X142304978Y-91983721D01*
G37*
X142304978Y-91983721D02*
X142279786Y-91963040D01*
X142257170Y-91952087D01*
X142228148Y-91948494D01*
X142183738Y-91949890D01*
X142177978Y-91950220D01*
X142093950Y-91955114D01*
X141217650Y-92644302D01*
X141211300Y-92326838D01*
X141204950Y-92009373D01*
X141161978Y-91971000D01*
X141137304Y-91950663D01*
X141115192Y-91939680D01*
X141086989Y-91935828D01*
X141044041Y-91936885D01*
X141031737Y-91937557D01*
X140979832Y-91942313D01*
X140945744Y-91950873D01*
X140921943Y-91965411D01*
X140915959Y-91970987D01*
X140887450Y-91999485D01*
X140883881Y-92538251D01*
X140880311Y-93077017D01*
X140915631Y-93116200D01*
X140963885Y-93151341D01*
X141025676Y-93166209D01*
X141089448Y-93161914D01*
X141107377Y-93154818D01*
X141136487Y-93137700D01*
X141178035Y-93109640D01*
X141233277Y-93069716D01*
X141303466Y-93017007D01*
X141389859Y-92950592D01*
X141493710Y-92869548D01*
X141575933Y-92804831D01*
X142017750Y-92456128D01*
X142030450Y-93067848D01*
X142066084Y-93098474D01*
X142091231Y-93116119D01*
X142120140Y-93125469D01*
X142161812Y-93128876D01*
X142183358Y-93129100D01*
X142230703Y-93127697D01*
X142262195Y-93121584D01*
X142287312Y-93107908D01*
X142306475Y-93092042D01*
X142347950Y-93054984D01*
X142347950Y-92022117D01*
X142304978Y-91983721D01*
G36*
X142696098Y-103444660D02*
G01*
X142693168Y-103409394D01*
X142688980Y-103391849D01*
X142687675Y-103390929D01*
X142680137Y-103401612D01*
X142661772Y-103431776D01*
X142634113Y-103478713D01*
X142598692Y-103539713D01*
X142557042Y-103612069D01*
X142510697Y-103693071D01*
X142461187Y-103780011D01*
X142410046Y-103870180D01*
X142358807Y-103960870D01*
X142309002Y-104049370D01*
X142262164Y-104132974D01*
X142219825Y-104208971D01*
X142183518Y-104274654D01*
X142154775Y-104327313D01*
X142135130Y-104364239D01*
X142126114Y-104382725D01*
X142125700Y-104384171D01*
X142137012Y-104386894D01*
X142165810Y-104386317D01*
X142186025Y-104384604D01*
X142224727Y-104378011D01*
X142253278Y-104368545D01*
X142260231Y-104363939D01*
X142269532Y-104349768D01*
X142289631Y-104316070D01*
X142318993Y-104265519D01*
X142356082Y-104200793D01*
X142399361Y-104124567D01*
X142447297Y-104039519D01*
X142485656Y-103971059D01*
X142697200Y-103592568D01*
X142697200Y-103491634D01*
X142696098Y-103444660D01*
G37*
X142696098Y-103444660D02*
X142693168Y-103409394D01*
X142688980Y-103391849D01*
X142687675Y-103390929D01*
X142680137Y-103401612D01*
X142661772Y-103431776D01*
X142634113Y-103478713D01*
X142598692Y-103539713D01*
X142557042Y-103612069D01*
X142510697Y-103693071D01*
X142461187Y-103780011D01*
X142410046Y-103870180D01*
X142358807Y-103960870D01*
X142309002Y-104049370D01*
X142262164Y-104132974D01*
X142219825Y-104208971D01*
X142183518Y-104274654D01*
X142154775Y-104327313D01*
X142135130Y-104364239D01*
X142126114Y-104382725D01*
X142125700Y-104384171D01*
X142137012Y-104386894D01*
X142165810Y-104386317D01*
X142186025Y-104384604D01*
X142224727Y-104378011D01*
X142253278Y-104368545D01*
X142260231Y-104363939D01*
X142269532Y-104349768D01*
X142289631Y-104316070D01*
X142318993Y-104265519D01*
X142356082Y-104200793D01*
X142399361Y-104124567D01*
X142447297Y-104039519D01*
X142485656Y-103971059D01*
X142697200Y-103592568D01*
X142697200Y-103491634D01*
X142696098Y-103444660D01*
G36*
X143517409Y-101501428D02*
G01*
X143488624Y-101479342D01*
X143449223Y-101450907D01*
X143430481Y-101437822D01*
X143287902Y-101350803D01*
X143126786Y-101272908D01*
X142953086Y-101206522D01*
X142772754Y-101154030D01*
X142661291Y-101129708D01*
X142604250Y-101119309D01*
X142557159Y-101111509D01*
X142525117Y-101107099D01*
X142513284Y-101106743D01*
X142512225Y-101119806D01*
X142510426Y-101156327D01*
X142507958Y-101214378D01*
X142504892Y-101292029D01*
X142501298Y-101387354D01*
X142497249Y-101498422D01*
X142492815Y-101623305D01*
X142488067Y-101760075D01*
X142483076Y-101906802D01*
X142477913Y-102061559D01*
X142476383Y-102108000D01*
X142471029Y-102270134D01*
X142465736Y-102428781D01*
X142460589Y-102581532D01*
X142455671Y-102725976D01*
X142451065Y-102859703D01*
X142446855Y-102980305D01*
X142443125Y-103085369D01*
X142439958Y-103172488D01*
X142437438Y-103239250D01*
X142435649Y-103283245D01*
X142435530Y-103285925D01*
X142433341Y-103351140D01*
X142432913Y-103405642D01*
X142434175Y-103445077D01*
X142437056Y-103465094D01*
X142438490Y-103466708D01*
X142447663Y-103456047D01*
X142467084Y-103426338D01*
X142494803Y-103380811D01*
X142528869Y-103322696D01*
X142567331Y-103255223D01*
X142582259Y-103228583D01*
X142714967Y-102990650D01*
X142731041Y-102514400D01*
X142734854Y-102405893D01*
X142738702Y-102304616D01*
X142742448Y-102213560D01*
X142745958Y-102135717D01*
X142749097Y-102074076D01*
X142751728Y-102031628D01*
X142753718Y-102011364D01*
X142753831Y-102010845D01*
X142770039Y-101986931D01*
X142795549Y-101971501D01*
X142835834Y-101965486D01*
X142893770Y-101967070D01*
X142963055Y-101975403D01*
X143037386Y-101989636D01*
X143110461Y-102008918D01*
X143136967Y-102017523D01*
X143241935Y-102053704D01*
X143389580Y-101789015D01*
X143430657Y-101714433D01*
X143466767Y-101647058D01*
X143496281Y-101590080D01*
X143517571Y-101546686D01*
X143529010Y-101520068D01*
X143530365Y-101513228D01*
X143517409Y-101501428D01*
G37*
X143517409Y-101501428D02*
X143488624Y-101479342D01*
X143449223Y-101450907D01*
X143430481Y-101437822D01*
X143287902Y-101350803D01*
X143126786Y-101272908D01*
X142953086Y-101206522D01*
X142772754Y-101154030D01*
X142661291Y-101129708D01*
X142604250Y-101119309D01*
X142557159Y-101111509D01*
X142525117Y-101107099D01*
X142513284Y-101106743D01*
X142512225Y-101119806D01*
X142510426Y-101156327D01*
X142507958Y-101214378D01*
X142504892Y-101292029D01*
X142501298Y-101387354D01*
X142497249Y-101498422D01*
X142492815Y-101623305D01*
X142488067Y-101760075D01*
X142483076Y-101906802D01*
X142477913Y-102061559D01*
X142476383Y-102108000D01*
X142471029Y-102270134D01*
X142465736Y-102428781D01*
X142460589Y-102581532D01*
X142455671Y-102725976D01*
X142451065Y-102859703D01*
X142446855Y-102980305D01*
X142443125Y-103085369D01*
X142439958Y-103172488D01*
X142437438Y-103239250D01*
X142435649Y-103283245D01*
X142435530Y-103285925D01*
X142433341Y-103351140D01*
X142432913Y-103405642D01*
X142434175Y-103445077D01*
X142437056Y-103465094D01*
X142438490Y-103466708D01*
X142447663Y-103456047D01*
X142467084Y-103426338D01*
X142494803Y-103380811D01*
X142528869Y-103322696D01*
X142567331Y-103255223D01*
X142582259Y-103228583D01*
X142714967Y-102990650D01*
X142731041Y-102514400D01*
X142734854Y-102405893D01*
X142738702Y-102304616D01*
X142742448Y-102213560D01*
X142745958Y-102135717D01*
X142749097Y-102074076D01*
X142751728Y-102031628D01*
X142753718Y-102011364D01*
X142753831Y-102010845D01*
X142770039Y-101986931D01*
X142795549Y-101971501D01*
X142835834Y-101965486D01*
X142893770Y-101967070D01*
X142963055Y-101975403D01*
X143037386Y-101989636D01*
X143110461Y-102008918D01*
X143136967Y-102017523D01*
X143241935Y-102053704D01*
X143389580Y-101789015D01*
X143430657Y-101714433D01*
X143466767Y-101647058D01*
X143496281Y-101590080D01*
X143517571Y-101546686D01*
X143529010Y-101520068D01*
X143530365Y-101513228D01*
X143517409Y-101501428D01*
G36*
X144027841Y-102407870D02*
G01*
X144024539Y-102354717D01*
X144019539Y-102323900D01*
X143981152Y-102195020D01*
X143945711Y-102086780D01*
X143913600Y-102000196D01*
X143885203Y-101936286D01*
X143860907Y-101896066D01*
X143855091Y-101889392D01*
X143846580Y-101897225D01*
X143827811Y-101924255D01*
X143800705Y-101967390D01*
X143767184Y-102023541D01*
X143729170Y-102089614D01*
X143715387Y-102114105D01*
X143584561Y-102347875D01*
X143628903Y-102440663D01*
X143678712Y-102572678D01*
X143705667Y-102709561D01*
X143710246Y-102847984D01*
X143692931Y-102984616D01*
X143654200Y-103116131D01*
X143594534Y-103239199D01*
X143514411Y-103350491D01*
X143494618Y-103372497D01*
X143388194Y-103469824D01*
X143263228Y-103555982D01*
X143125255Y-103627890D01*
X142979812Y-103682465D01*
X142899552Y-103703772D01*
X142812230Y-103723492D01*
X142643590Y-104022927D01*
X142591536Y-104115374D01*
X142550679Y-104188063D01*
X142519756Y-104243369D01*
X142497502Y-104283668D01*
X142482655Y-104311335D01*
X142473949Y-104328746D01*
X142470120Y-104338274D01*
X142469906Y-104342297D01*
X142472041Y-104343189D01*
X142473155Y-104343200D01*
X142487220Y-104339723D01*
X142520575Y-104330256D01*
X142568222Y-104316248D01*
X142624835Y-104299246D01*
X142850292Y-104218552D01*
X143061069Y-104117748D01*
X143256429Y-103997279D01*
X143435634Y-103857591D01*
X143573500Y-103725350D01*
X143701094Y-103575754D01*
X143807001Y-103417803D01*
X143892844Y-103248397D01*
X143960246Y-103064434D01*
X144001226Y-102908100D01*
X144009196Y-102859947D01*
X144016053Y-102795205D01*
X144021631Y-102719167D01*
X144025765Y-102637123D01*
X144028289Y-102554365D01*
X144029036Y-102476184D01*
X144027841Y-102407870D01*
G37*
X144027841Y-102407870D02*
X144024539Y-102354717D01*
X144019539Y-102323900D01*
X143981152Y-102195020D01*
X143945711Y-102086780D01*
X143913600Y-102000196D01*
X143885203Y-101936286D01*
X143860907Y-101896066D01*
X143855091Y-101889392D01*
X143846580Y-101897225D01*
X143827811Y-101924255D01*
X143800705Y-101967390D01*
X143767184Y-102023541D01*
X143729170Y-102089614D01*
X143715387Y-102114105D01*
X143584561Y-102347875D01*
X143628903Y-102440663D01*
X143678712Y-102572678D01*
X143705667Y-102709561D01*
X143710246Y-102847984D01*
X143692931Y-102984616D01*
X143654200Y-103116131D01*
X143594534Y-103239199D01*
X143514411Y-103350491D01*
X143494618Y-103372497D01*
X143388194Y-103469824D01*
X143263228Y-103555982D01*
X143125255Y-103627890D01*
X142979812Y-103682465D01*
X142899552Y-103703772D01*
X142812230Y-103723492D01*
X142643590Y-104022927D01*
X142591536Y-104115374D01*
X142550679Y-104188063D01*
X142519756Y-104243369D01*
X142497502Y-104283668D01*
X142482655Y-104311335D01*
X142473949Y-104328746D01*
X142470120Y-104338274D01*
X142469906Y-104342297D01*
X142472041Y-104343189D01*
X142473155Y-104343200D01*
X142487220Y-104339723D01*
X142520575Y-104330256D01*
X142568222Y-104316248D01*
X142624835Y-104299246D01*
X142850292Y-104218552D01*
X143061069Y-104117748D01*
X143256429Y-103997279D01*
X143435634Y-103857591D01*
X143573500Y-103725350D01*
X143701094Y-103575754D01*
X143807001Y-103417803D01*
X143892844Y-103248397D01*
X143960246Y-103064434D01*
X144001226Y-102908100D01*
X144009196Y-102859947D01*
X144016053Y-102795205D01*
X144021631Y-102719167D01*
X144025765Y-102637123D01*
X144028289Y-102554365D01*
X144029036Y-102476184D01*
X144027841Y-102407870D01*
G36*
X143731152Y-101713988D02*
G01*
X143712390Y-101688607D01*
X143702562Y-101676523D01*
X143666524Y-101633355D01*
X143592317Y-101765903D01*
X143553995Y-101834141D01*
X143511413Y-101909632D01*
X143470976Y-101981031D01*
X143450555Y-102016931D01*
X143423054Y-102065423D01*
X143400947Y-102104896D01*
X143386819Y-102130701D01*
X143383000Y-102138380D01*
X143391235Y-102148105D01*
X143411873Y-102168920D01*
X143421184Y-102177931D01*
X143450542Y-102201174D01*
X143469327Y-102203700D01*
X143472665Y-102201216D01*
X143482533Y-102186689D01*
X143502051Y-102154370D01*
X143528956Y-102108288D01*
X143560986Y-102052471D01*
X143595875Y-101990949D01*
X143631360Y-101927751D01*
X143665178Y-101866906D01*
X143695065Y-101812443D01*
X143718757Y-101768392D01*
X143733990Y-101738780D01*
X143738600Y-101727884D01*
X143731152Y-101713988D01*
G37*
X143731152Y-101713988D02*
X143712390Y-101688607D01*
X143702562Y-101676523D01*
X143666524Y-101633355D01*
X143592317Y-101765903D01*
X143553995Y-101834141D01*
X143511413Y-101909632D01*
X143470976Y-101981031D01*
X143450555Y-102016931D01*
X143423054Y-102065423D01*
X143400947Y-102104896D01*
X143386819Y-102130701D01*
X143383000Y-102138380D01*
X143391235Y-102148105D01*
X143411873Y-102168920D01*
X143421184Y-102177931D01*
X143450542Y-102201174D01*
X143469327Y-102203700D01*
X143472665Y-102201216D01*
X143482533Y-102186689D01*
X143502051Y-102154370D01*
X143528956Y-102108288D01*
X143560986Y-102052471D01*
X143595875Y-101990949D01*
X143631360Y-101927751D01*
X143665178Y-101866906D01*
X143695065Y-101812443D01*
X143718757Y-101768392D01*
X143733990Y-101738780D01*
X143738600Y-101727884D01*
X143731152Y-101713988D01*
D13*
%TO.C,R2*%
X136217922Y-96953000D02*
X136735078Y-96953000D01*
X136217922Y-98373000D02*
X136735078Y-98373000D01*
%TO.C,R3*%
X136217922Y-93651000D02*
X136735078Y-93651000D01*
X136217922Y-95071000D02*
X136735078Y-95071000D01*
%TO.C,R1*%
X136217922Y-99493000D02*
X136735078Y-99493000D01*
X136217922Y-100913000D02*
X136735078Y-100913000D01*
%TO.C,R2*%
D14*
X136644233Y-96640016D02*
X136977567Y-96163826D01*
X137215662Y-96640016D02*
X137215662Y-95640016D01*
X136834709Y-95640016D01*
X136739471Y-95687636D01*
X136691852Y-95735255D01*
X136644233Y-95830493D01*
X136644233Y-95973350D01*
X136691852Y-96068588D01*
X136739471Y-96116207D01*
X136834709Y-96163826D01*
X137215662Y-96163826D01*
X136263281Y-95735255D02*
X136215662Y-95687636D01*
X136120424Y-95640016D01*
X135882328Y-95640016D01*
X135787090Y-95687636D01*
X135739471Y-95735255D01*
X135691852Y-95830493D01*
X135691852Y-95925731D01*
X135739471Y-96068588D01*
X136310900Y-96640016D01*
X135691852Y-96640016D01*
%TO.C,R3*%
X136643166Y-93289380D02*
X136976500Y-92813190D01*
X137214595Y-93289380D02*
X137214595Y-92289380D01*
X136833642Y-92289380D01*
X136738404Y-92337000D01*
X136690785Y-92384619D01*
X136643166Y-92479857D01*
X136643166Y-92622714D01*
X136690785Y-92717952D01*
X136738404Y-92765571D01*
X136833642Y-92813190D01*
X137214595Y-92813190D01*
X136309833Y-92289380D02*
X135690785Y-92289380D01*
X136024119Y-92670333D01*
X135881261Y-92670333D01*
X135786023Y-92717952D01*
X135738404Y-92765571D01*
X135690785Y-92860809D01*
X135690785Y-93098904D01*
X135738404Y-93194142D01*
X135786023Y-93241761D01*
X135881261Y-93289380D01*
X136166976Y-93289380D01*
X136262214Y-93241761D01*
X136309833Y-93194142D01*
%TO.C,R1*%
X136643166Y-102305380D02*
X136976500Y-101829190D01*
X137214595Y-102305380D02*
X137214595Y-101305380D01*
X136833642Y-101305380D01*
X136738404Y-101353000D01*
X136690785Y-101400619D01*
X136643166Y-101495857D01*
X136643166Y-101638714D01*
X136690785Y-101733952D01*
X136738404Y-101781571D01*
X136833642Y-101829190D01*
X137214595Y-101829190D01*
X135690785Y-102305380D02*
X136262214Y-102305380D01*
X135976500Y-102305380D02*
X135976500Y-101305380D01*
X136071738Y-101448238D01*
X136166976Y-101543476D01*
X136262214Y-101591095D01*
%TD*%
M02*
