%TF.GenerationSoftware,KiCad,Pcbnew,5.1.5-52549c5~86~ubuntu16.04.1*%
%TF.CreationDate,2020-10-09T17:32:45+05:30*%
%TF.ProjectId,DIP_3_color_LED_Module_V1.0,4449505f-335f-4636-9f6c-6f725f4c4544,V1.0*%
%TF.SameCoordinates,Original*%
%TF.FileFunction,Copper,L2,Bot*%
%TF.FilePolarity,Positive*%
%FSLAX46Y46*%
G04 Gerber Fmt 4.6, Leading zero omitted, Abs format (unit mm)*
G04 Created by KiCad (PCBNEW 5.1.5-52549c5~86~ubuntu16.04.1) date 2020-10-09 17:32:45*
%MOMM*%
%LPD*%
G04 APERTURE LIST*
%TA.AperFunction,EtchedComponent*%
%ADD10C,0.002540*%
%TD*%
%TA.AperFunction,SMDPad,CuDef*%
%ADD11C,0.100000*%
%TD*%
%TA.AperFunction,ComponentPad*%
%ADD12O,1.700000X1.700000*%
%TD*%
%TA.AperFunction,ComponentPad*%
%ADD13R,1.700000X1.700000*%
%TD*%
%TA.AperFunction,ComponentPad*%
%ADD14O,1.800000X1.070000*%
%TD*%
%TA.AperFunction,ComponentPad*%
%ADD15R,1.800000X1.070000*%
%TD*%
%TA.AperFunction,Conductor*%
%ADD16C,0.508000*%
%TD*%
%TA.AperFunction,Conductor*%
%ADD17C,0.609600*%
%TD*%
G04 APERTURE END LIST*
D10*
%TO.C,G\002A\002A\002A*%
G36*
X144068800Y-97261680D02*
G01*
X144076420Y-97279460D01*
X144099280Y-97312480D01*
X144132300Y-97363280D01*
X144170400Y-97421700D01*
X144211040Y-97482660D01*
X144244060Y-97530920D01*
X144266920Y-97566480D01*
X144274540Y-97579180D01*
X144272000Y-97586800D01*
X144256760Y-97614740D01*
X144236440Y-97655380D01*
X144223740Y-97680780D01*
X144208500Y-97718880D01*
X144203420Y-97736660D01*
X144208500Y-97739200D01*
X144238980Y-97754440D01*
X144287240Y-97774760D01*
X144353280Y-97802700D01*
X144429480Y-97835720D01*
X144510760Y-97871280D01*
X144594580Y-97904300D01*
X144673320Y-97937320D01*
X144746980Y-97967800D01*
X144805400Y-97990660D01*
X144846040Y-98005900D01*
X144863820Y-98013520D01*
X144866360Y-98010980D01*
X144884140Y-97993200D01*
X144909540Y-97960180D01*
X144967960Y-97889060D01*
X145054320Y-97817940D01*
X145153380Y-97774760D01*
X145265140Y-97762060D01*
X145366740Y-97772220D01*
X145463260Y-97812860D01*
X145552160Y-97881440D01*
X145618200Y-97965260D01*
X145658840Y-98061780D01*
X145671540Y-98171000D01*
X145661380Y-98275140D01*
X145620740Y-98374200D01*
X145554700Y-98463100D01*
X145511520Y-98501200D01*
X145420080Y-98552000D01*
X145326100Y-98582480D01*
X145303240Y-98585020D01*
X145196560Y-98579940D01*
X145094960Y-98549460D01*
X145006060Y-98493580D01*
X144932400Y-98417380D01*
X144924780Y-98407220D01*
X144896840Y-98371660D01*
X144879060Y-98346260D01*
X144863820Y-98328480D01*
X144541240Y-98463100D01*
X144490440Y-98483420D01*
X144401540Y-98521520D01*
X144325340Y-98552000D01*
X144264380Y-98579940D01*
X144223740Y-98597720D01*
X144208500Y-98605340D01*
X144205960Y-98618040D01*
X144213580Y-98640900D01*
X144236440Y-98686620D01*
X144251680Y-98717100D01*
X144266920Y-98750120D01*
X144274540Y-98765360D01*
X144266920Y-98780600D01*
X144246600Y-98813620D01*
X144213580Y-98859340D01*
X144175480Y-98917760D01*
X144137380Y-98973640D01*
X144104360Y-99024440D01*
X144078960Y-99060000D01*
X144071340Y-99077780D01*
X144071340Y-99080320D01*
X144078960Y-99098100D01*
X144104360Y-99126040D01*
X144145000Y-99169220D01*
X144205960Y-99232720D01*
X144216120Y-99242880D01*
X144266920Y-99293680D01*
X144312640Y-99334320D01*
X144343120Y-99362260D01*
X144355820Y-99372420D01*
X144373600Y-99362260D01*
X144411700Y-99339400D01*
X144462500Y-99306380D01*
X144523460Y-99265740D01*
X144678400Y-99159060D01*
X144823180Y-99217480D01*
X144868900Y-99235260D01*
X144924780Y-99258120D01*
X144962880Y-99275900D01*
X144980660Y-99283520D01*
X144985740Y-99301300D01*
X144995900Y-99339400D01*
X145006060Y-99397820D01*
X145018760Y-99468940D01*
X145031460Y-99534980D01*
X145044160Y-99593400D01*
X145051780Y-99636580D01*
X145054320Y-99656900D01*
X145059400Y-99661980D01*
X145067020Y-99664520D01*
X145087340Y-99667060D01*
X145125440Y-99669600D01*
X145181320Y-99669600D01*
X145265140Y-99669600D01*
X145272760Y-99669600D01*
X145351500Y-99669600D01*
X145415000Y-99667060D01*
X145453100Y-99664520D01*
X145470880Y-99661980D01*
X145475960Y-99644200D01*
X145483580Y-99601020D01*
X145496280Y-99542600D01*
X145508980Y-99471480D01*
X145508980Y-99466400D01*
X145524220Y-99395280D01*
X145536920Y-99336860D01*
X145544540Y-99293680D01*
X145552160Y-99275900D01*
X145557240Y-99273360D01*
X145585180Y-99258120D01*
X145628360Y-99237800D01*
X145681700Y-99214940D01*
X145737580Y-99192080D01*
X145788380Y-99171760D01*
X145823940Y-99159060D01*
X145841720Y-99153980D01*
X145859500Y-99164140D01*
X145895060Y-99189540D01*
X145945860Y-99225100D01*
X146006820Y-99265740D01*
X146011900Y-99268280D01*
X146072860Y-99308920D01*
X146123660Y-99341940D01*
X146159220Y-99364800D01*
X146174460Y-99372420D01*
X146177000Y-99372420D01*
X146194780Y-99359720D01*
X146227800Y-99329240D01*
X146273520Y-99283520D01*
X146326860Y-99232720D01*
X146342100Y-99214940D01*
X146400520Y-99156520D01*
X146436080Y-99115880D01*
X146456400Y-99090480D01*
X146461480Y-99080320D01*
X146461480Y-99077780D01*
X146451320Y-99060000D01*
X146425920Y-99021900D01*
X146390360Y-98971100D01*
X146349720Y-98910140D01*
X146347180Y-98907600D01*
X146306540Y-98846640D01*
X146270980Y-98795840D01*
X146248120Y-98760280D01*
X146240500Y-98745040D01*
X146240500Y-98742500D01*
X146245580Y-98719640D01*
X146260820Y-98676460D01*
X146281140Y-98623120D01*
X146304000Y-98567240D01*
X146324320Y-98516440D01*
X146342100Y-98480880D01*
X146352260Y-98463100D01*
X146352260Y-98460560D01*
X146375120Y-98455480D01*
X146420840Y-98445320D01*
X146481800Y-98432620D01*
X146555460Y-98417380D01*
X146565620Y-98414840D01*
X146639280Y-98402140D01*
X146697700Y-98391980D01*
X146738340Y-98381820D01*
X146756120Y-98379280D01*
X146756120Y-98369120D01*
X146758660Y-98333560D01*
X146761200Y-98280220D01*
X146761200Y-98214180D01*
X146761200Y-98148140D01*
X146761200Y-98082100D01*
X146758660Y-98026220D01*
X146756120Y-97985580D01*
X146751040Y-97967800D01*
X146728180Y-97962720D01*
X146685000Y-97952560D01*
X146621500Y-97939860D01*
X146547840Y-97924620D01*
X146535140Y-97922080D01*
X146464020Y-97909380D01*
X146405600Y-97896680D01*
X146364960Y-97889060D01*
X146349720Y-97883980D01*
X146347180Y-97878900D01*
X146331940Y-97848420D01*
X146314160Y-97800160D01*
X146288760Y-97741740D01*
X146232880Y-97604580D01*
X146349720Y-97436940D01*
X146359880Y-97421700D01*
X146400520Y-97360740D01*
X146433540Y-97309940D01*
X146456400Y-97274380D01*
X146464020Y-97261680D01*
X146464020Y-97259140D01*
X146448780Y-97243900D01*
X146418300Y-97210880D01*
X146372580Y-97165160D01*
X146321780Y-97111820D01*
X146281140Y-97071180D01*
X146235420Y-97025460D01*
X146202400Y-96997520D01*
X146182080Y-96979740D01*
X146169380Y-96974660D01*
X146161760Y-96977200D01*
X146143980Y-96987360D01*
X146108420Y-97012760D01*
X146055080Y-97045780D01*
X145996660Y-97086420D01*
X145945860Y-97121980D01*
X145889980Y-97157540D01*
X145849340Y-97180400D01*
X145831560Y-97190560D01*
X145821400Y-97188020D01*
X145788380Y-97175320D01*
X145740120Y-97155000D01*
X145679160Y-97129600D01*
X145547080Y-97071180D01*
X145529300Y-96984820D01*
X145519140Y-96931480D01*
X145506440Y-96857820D01*
X145491200Y-96786700D01*
X145470880Y-96674940D01*
X145067020Y-96672400D01*
X145059400Y-96690180D01*
X145054320Y-96705420D01*
X145044160Y-96746060D01*
X145034000Y-96804480D01*
X145021300Y-96873060D01*
X145008600Y-96934020D01*
X144998440Y-96992440D01*
X144990820Y-97035620D01*
X144985740Y-97053400D01*
X144980660Y-97058480D01*
X144950180Y-97073720D01*
X144904460Y-97094040D01*
X144851120Y-97116900D01*
X144792700Y-97142300D01*
X144741900Y-97162620D01*
X144701260Y-97177860D01*
X144680940Y-97182940D01*
X144665700Y-97175320D01*
X144630140Y-97152460D01*
X144579340Y-97119440D01*
X144520920Y-97078800D01*
X144462500Y-97038160D01*
X144411700Y-97005140D01*
X144376140Y-96979740D01*
X144358360Y-96972120D01*
X144348200Y-96977200D01*
X144320260Y-97000060D01*
X144274540Y-97043240D01*
X144208500Y-97109280D01*
X144198340Y-97121980D01*
X144147540Y-97172780D01*
X144106900Y-97218500D01*
X144078960Y-97248980D01*
X144068800Y-97261680D01*
G37*
X144068800Y-97261680D02*
X144076420Y-97279460D01*
X144099280Y-97312480D01*
X144132300Y-97363280D01*
X144170400Y-97421700D01*
X144211040Y-97482660D01*
X144244060Y-97530920D01*
X144266920Y-97566480D01*
X144274540Y-97579180D01*
X144272000Y-97586800D01*
X144256760Y-97614740D01*
X144236440Y-97655380D01*
X144223740Y-97680780D01*
X144208500Y-97718880D01*
X144203420Y-97736660D01*
X144208500Y-97739200D01*
X144238980Y-97754440D01*
X144287240Y-97774760D01*
X144353280Y-97802700D01*
X144429480Y-97835720D01*
X144510760Y-97871280D01*
X144594580Y-97904300D01*
X144673320Y-97937320D01*
X144746980Y-97967800D01*
X144805400Y-97990660D01*
X144846040Y-98005900D01*
X144863820Y-98013520D01*
X144866360Y-98010980D01*
X144884140Y-97993200D01*
X144909540Y-97960180D01*
X144967960Y-97889060D01*
X145054320Y-97817940D01*
X145153380Y-97774760D01*
X145265140Y-97762060D01*
X145366740Y-97772220D01*
X145463260Y-97812860D01*
X145552160Y-97881440D01*
X145618200Y-97965260D01*
X145658840Y-98061780D01*
X145671540Y-98171000D01*
X145661380Y-98275140D01*
X145620740Y-98374200D01*
X145554700Y-98463100D01*
X145511520Y-98501200D01*
X145420080Y-98552000D01*
X145326100Y-98582480D01*
X145303240Y-98585020D01*
X145196560Y-98579940D01*
X145094960Y-98549460D01*
X145006060Y-98493580D01*
X144932400Y-98417380D01*
X144924780Y-98407220D01*
X144896840Y-98371660D01*
X144879060Y-98346260D01*
X144863820Y-98328480D01*
X144541240Y-98463100D01*
X144490440Y-98483420D01*
X144401540Y-98521520D01*
X144325340Y-98552000D01*
X144264380Y-98579940D01*
X144223740Y-98597720D01*
X144208500Y-98605340D01*
X144205960Y-98618040D01*
X144213580Y-98640900D01*
X144236440Y-98686620D01*
X144251680Y-98717100D01*
X144266920Y-98750120D01*
X144274540Y-98765360D01*
X144266920Y-98780600D01*
X144246600Y-98813620D01*
X144213580Y-98859340D01*
X144175480Y-98917760D01*
X144137380Y-98973640D01*
X144104360Y-99024440D01*
X144078960Y-99060000D01*
X144071340Y-99077780D01*
X144071340Y-99080320D01*
X144078960Y-99098100D01*
X144104360Y-99126040D01*
X144145000Y-99169220D01*
X144205960Y-99232720D01*
X144216120Y-99242880D01*
X144266920Y-99293680D01*
X144312640Y-99334320D01*
X144343120Y-99362260D01*
X144355820Y-99372420D01*
X144373600Y-99362260D01*
X144411700Y-99339400D01*
X144462500Y-99306380D01*
X144523460Y-99265740D01*
X144678400Y-99159060D01*
X144823180Y-99217480D01*
X144868900Y-99235260D01*
X144924780Y-99258120D01*
X144962880Y-99275900D01*
X144980660Y-99283520D01*
X144985740Y-99301300D01*
X144995900Y-99339400D01*
X145006060Y-99397820D01*
X145018760Y-99468940D01*
X145031460Y-99534980D01*
X145044160Y-99593400D01*
X145051780Y-99636580D01*
X145054320Y-99656900D01*
X145059400Y-99661980D01*
X145067020Y-99664520D01*
X145087340Y-99667060D01*
X145125440Y-99669600D01*
X145181320Y-99669600D01*
X145265140Y-99669600D01*
X145272760Y-99669600D01*
X145351500Y-99669600D01*
X145415000Y-99667060D01*
X145453100Y-99664520D01*
X145470880Y-99661980D01*
X145475960Y-99644200D01*
X145483580Y-99601020D01*
X145496280Y-99542600D01*
X145508980Y-99471480D01*
X145508980Y-99466400D01*
X145524220Y-99395280D01*
X145536920Y-99336860D01*
X145544540Y-99293680D01*
X145552160Y-99275900D01*
X145557240Y-99273360D01*
X145585180Y-99258120D01*
X145628360Y-99237800D01*
X145681700Y-99214940D01*
X145737580Y-99192080D01*
X145788380Y-99171760D01*
X145823940Y-99159060D01*
X145841720Y-99153980D01*
X145859500Y-99164140D01*
X145895060Y-99189540D01*
X145945860Y-99225100D01*
X146006820Y-99265740D01*
X146011900Y-99268280D01*
X146072860Y-99308920D01*
X146123660Y-99341940D01*
X146159220Y-99364800D01*
X146174460Y-99372420D01*
X146177000Y-99372420D01*
X146194780Y-99359720D01*
X146227800Y-99329240D01*
X146273520Y-99283520D01*
X146326860Y-99232720D01*
X146342100Y-99214940D01*
X146400520Y-99156520D01*
X146436080Y-99115880D01*
X146456400Y-99090480D01*
X146461480Y-99080320D01*
X146461480Y-99077780D01*
X146451320Y-99060000D01*
X146425920Y-99021900D01*
X146390360Y-98971100D01*
X146349720Y-98910140D01*
X146347180Y-98907600D01*
X146306540Y-98846640D01*
X146270980Y-98795840D01*
X146248120Y-98760280D01*
X146240500Y-98745040D01*
X146240500Y-98742500D01*
X146245580Y-98719640D01*
X146260820Y-98676460D01*
X146281140Y-98623120D01*
X146304000Y-98567240D01*
X146324320Y-98516440D01*
X146342100Y-98480880D01*
X146352260Y-98463100D01*
X146352260Y-98460560D01*
X146375120Y-98455480D01*
X146420840Y-98445320D01*
X146481800Y-98432620D01*
X146555460Y-98417380D01*
X146565620Y-98414840D01*
X146639280Y-98402140D01*
X146697700Y-98391980D01*
X146738340Y-98381820D01*
X146756120Y-98379280D01*
X146756120Y-98369120D01*
X146758660Y-98333560D01*
X146761200Y-98280220D01*
X146761200Y-98214180D01*
X146761200Y-98148140D01*
X146761200Y-98082100D01*
X146758660Y-98026220D01*
X146756120Y-97985580D01*
X146751040Y-97967800D01*
X146728180Y-97962720D01*
X146685000Y-97952560D01*
X146621500Y-97939860D01*
X146547840Y-97924620D01*
X146535140Y-97922080D01*
X146464020Y-97909380D01*
X146405600Y-97896680D01*
X146364960Y-97889060D01*
X146349720Y-97883980D01*
X146347180Y-97878900D01*
X146331940Y-97848420D01*
X146314160Y-97800160D01*
X146288760Y-97741740D01*
X146232880Y-97604580D01*
X146349720Y-97436940D01*
X146359880Y-97421700D01*
X146400520Y-97360740D01*
X146433540Y-97309940D01*
X146456400Y-97274380D01*
X146464020Y-97261680D01*
X146464020Y-97259140D01*
X146448780Y-97243900D01*
X146418300Y-97210880D01*
X146372580Y-97165160D01*
X146321780Y-97111820D01*
X146281140Y-97071180D01*
X146235420Y-97025460D01*
X146202400Y-96997520D01*
X146182080Y-96979740D01*
X146169380Y-96974660D01*
X146161760Y-96977200D01*
X146143980Y-96987360D01*
X146108420Y-97012760D01*
X146055080Y-97045780D01*
X145996660Y-97086420D01*
X145945860Y-97121980D01*
X145889980Y-97157540D01*
X145849340Y-97180400D01*
X145831560Y-97190560D01*
X145821400Y-97188020D01*
X145788380Y-97175320D01*
X145740120Y-97155000D01*
X145679160Y-97129600D01*
X145547080Y-97071180D01*
X145529300Y-96984820D01*
X145519140Y-96931480D01*
X145506440Y-96857820D01*
X145491200Y-96786700D01*
X145470880Y-96674940D01*
X145067020Y-96672400D01*
X145059400Y-96690180D01*
X145054320Y-96705420D01*
X145044160Y-96746060D01*
X145034000Y-96804480D01*
X145021300Y-96873060D01*
X145008600Y-96934020D01*
X144998440Y-96992440D01*
X144990820Y-97035620D01*
X144985740Y-97053400D01*
X144980660Y-97058480D01*
X144950180Y-97073720D01*
X144904460Y-97094040D01*
X144851120Y-97116900D01*
X144792700Y-97142300D01*
X144741900Y-97162620D01*
X144701260Y-97177860D01*
X144680940Y-97182940D01*
X144665700Y-97175320D01*
X144630140Y-97152460D01*
X144579340Y-97119440D01*
X144520920Y-97078800D01*
X144462500Y-97038160D01*
X144411700Y-97005140D01*
X144376140Y-96979740D01*
X144358360Y-96972120D01*
X144348200Y-96977200D01*
X144320260Y-97000060D01*
X144274540Y-97043240D01*
X144208500Y-97109280D01*
X144198340Y-97121980D01*
X144147540Y-97172780D01*
X144106900Y-97218500D01*
X144078960Y-97248980D01*
X144068800Y-97261680D01*
%TD*%
%TA.AperFunction,SMDPad,CuDef*%
D11*
%TO.P,R2,2*%
%TO.N,Net-(D1-Pad3)*%
G36*
X137681642Y-96964174D02*
G01*
X137705303Y-96967684D01*
X137728507Y-96973496D01*
X137751029Y-96981554D01*
X137772653Y-96991782D01*
X137793170Y-97004079D01*
X137812383Y-97018329D01*
X137830107Y-97034393D01*
X137846171Y-97052117D01*
X137860421Y-97071330D01*
X137872718Y-97091847D01*
X137882946Y-97113471D01*
X137891004Y-97135993D01*
X137896816Y-97159197D01*
X137900326Y-97182858D01*
X137901500Y-97206750D01*
X137901500Y-98119250D01*
X137900326Y-98143142D01*
X137896816Y-98166803D01*
X137891004Y-98190007D01*
X137882946Y-98212529D01*
X137872718Y-98234153D01*
X137860421Y-98254670D01*
X137846171Y-98273883D01*
X137830107Y-98291607D01*
X137812383Y-98307671D01*
X137793170Y-98321921D01*
X137772653Y-98334218D01*
X137751029Y-98344446D01*
X137728507Y-98352504D01*
X137705303Y-98358316D01*
X137681642Y-98361826D01*
X137657750Y-98363000D01*
X137170250Y-98363000D01*
X137146358Y-98361826D01*
X137122697Y-98358316D01*
X137099493Y-98352504D01*
X137076971Y-98344446D01*
X137055347Y-98334218D01*
X137034830Y-98321921D01*
X137015617Y-98307671D01*
X136997893Y-98291607D01*
X136981829Y-98273883D01*
X136967579Y-98254670D01*
X136955282Y-98234153D01*
X136945054Y-98212529D01*
X136936996Y-98190007D01*
X136931184Y-98166803D01*
X136927674Y-98143142D01*
X136926500Y-98119250D01*
X136926500Y-97206750D01*
X136927674Y-97182858D01*
X136931184Y-97159197D01*
X136936996Y-97135993D01*
X136945054Y-97113471D01*
X136955282Y-97091847D01*
X136967579Y-97071330D01*
X136981829Y-97052117D01*
X136997893Y-97034393D01*
X137015617Y-97018329D01*
X137034830Y-97004079D01*
X137055347Y-96991782D01*
X137076971Y-96981554D01*
X137099493Y-96973496D01*
X137122697Y-96967684D01*
X137146358Y-96964174D01*
X137170250Y-96963000D01*
X137657750Y-96963000D01*
X137681642Y-96964174D01*
G37*
%TD.AperFunction*%
%TA.AperFunction,SMDPad,CuDef*%
%TO.P,R2,1*%
%TO.N,/G*%
G36*
X135806642Y-96964174D02*
G01*
X135830303Y-96967684D01*
X135853507Y-96973496D01*
X135876029Y-96981554D01*
X135897653Y-96991782D01*
X135918170Y-97004079D01*
X135937383Y-97018329D01*
X135955107Y-97034393D01*
X135971171Y-97052117D01*
X135985421Y-97071330D01*
X135997718Y-97091847D01*
X136007946Y-97113471D01*
X136016004Y-97135993D01*
X136021816Y-97159197D01*
X136025326Y-97182858D01*
X136026500Y-97206750D01*
X136026500Y-98119250D01*
X136025326Y-98143142D01*
X136021816Y-98166803D01*
X136016004Y-98190007D01*
X136007946Y-98212529D01*
X135997718Y-98234153D01*
X135985421Y-98254670D01*
X135971171Y-98273883D01*
X135955107Y-98291607D01*
X135937383Y-98307671D01*
X135918170Y-98321921D01*
X135897653Y-98334218D01*
X135876029Y-98344446D01*
X135853507Y-98352504D01*
X135830303Y-98358316D01*
X135806642Y-98361826D01*
X135782750Y-98363000D01*
X135295250Y-98363000D01*
X135271358Y-98361826D01*
X135247697Y-98358316D01*
X135224493Y-98352504D01*
X135201971Y-98344446D01*
X135180347Y-98334218D01*
X135159830Y-98321921D01*
X135140617Y-98307671D01*
X135122893Y-98291607D01*
X135106829Y-98273883D01*
X135092579Y-98254670D01*
X135080282Y-98234153D01*
X135070054Y-98212529D01*
X135061996Y-98190007D01*
X135056184Y-98166803D01*
X135052674Y-98143142D01*
X135051500Y-98119250D01*
X135051500Y-97206750D01*
X135052674Y-97182858D01*
X135056184Y-97159197D01*
X135061996Y-97135993D01*
X135070054Y-97113471D01*
X135080282Y-97091847D01*
X135092579Y-97071330D01*
X135106829Y-97052117D01*
X135122893Y-97034393D01*
X135140617Y-97018329D01*
X135159830Y-97004079D01*
X135180347Y-96991782D01*
X135201971Y-96981554D01*
X135224493Y-96973496D01*
X135247697Y-96967684D01*
X135271358Y-96964174D01*
X135295250Y-96963000D01*
X135782750Y-96963000D01*
X135806642Y-96964174D01*
G37*
%TD.AperFunction*%
%TD*%
D12*
%TO.P,J1,4*%
%TO.N,GND*%
X131572000Y-101981000D03*
%TO.P,J1,3*%
%TO.N,/R*%
X131572000Y-99441000D03*
%TO.P,J1,2*%
%TO.N,/G*%
X131572000Y-96901000D03*
D13*
%TO.P,J1,1*%
%TO.N,/B*%
X131572000Y-94361000D03*
%TD*%
D14*
%TO.P,D1,4*%
%TO.N,Net-(D1-Pad4)*%
X139210000Y-96369000D03*
%TO.P,D1,3*%
%TO.N,Net-(D1-Pad3)*%
X139210000Y-97639000D03*
%TO.P,D1,2*%
%TO.N,GND*%
X139210000Y-98909000D03*
D15*
%TO.P,D1,1*%
%TO.N,Net-(D1-Pad1)*%
X139210000Y-100179000D03*
%TD*%
%TA.AperFunction,SMDPad,CuDef*%
D11*
%TO.P,R3,2*%
%TO.N,Net-(D1-Pad4)*%
G36*
X137681642Y-93662174D02*
G01*
X137705303Y-93665684D01*
X137728507Y-93671496D01*
X137751029Y-93679554D01*
X137772653Y-93689782D01*
X137793170Y-93702079D01*
X137812383Y-93716329D01*
X137830107Y-93732393D01*
X137846171Y-93750117D01*
X137860421Y-93769330D01*
X137872718Y-93789847D01*
X137882946Y-93811471D01*
X137891004Y-93833993D01*
X137896816Y-93857197D01*
X137900326Y-93880858D01*
X137901500Y-93904750D01*
X137901500Y-94817250D01*
X137900326Y-94841142D01*
X137896816Y-94864803D01*
X137891004Y-94888007D01*
X137882946Y-94910529D01*
X137872718Y-94932153D01*
X137860421Y-94952670D01*
X137846171Y-94971883D01*
X137830107Y-94989607D01*
X137812383Y-95005671D01*
X137793170Y-95019921D01*
X137772653Y-95032218D01*
X137751029Y-95042446D01*
X137728507Y-95050504D01*
X137705303Y-95056316D01*
X137681642Y-95059826D01*
X137657750Y-95061000D01*
X137170250Y-95061000D01*
X137146358Y-95059826D01*
X137122697Y-95056316D01*
X137099493Y-95050504D01*
X137076971Y-95042446D01*
X137055347Y-95032218D01*
X137034830Y-95019921D01*
X137015617Y-95005671D01*
X136997893Y-94989607D01*
X136981829Y-94971883D01*
X136967579Y-94952670D01*
X136955282Y-94932153D01*
X136945054Y-94910529D01*
X136936996Y-94888007D01*
X136931184Y-94864803D01*
X136927674Y-94841142D01*
X136926500Y-94817250D01*
X136926500Y-93904750D01*
X136927674Y-93880858D01*
X136931184Y-93857197D01*
X136936996Y-93833993D01*
X136945054Y-93811471D01*
X136955282Y-93789847D01*
X136967579Y-93769330D01*
X136981829Y-93750117D01*
X136997893Y-93732393D01*
X137015617Y-93716329D01*
X137034830Y-93702079D01*
X137055347Y-93689782D01*
X137076971Y-93679554D01*
X137099493Y-93671496D01*
X137122697Y-93665684D01*
X137146358Y-93662174D01*
X137170250Y-93661000D01*
X137657750Y-93661000D01*
X137681642Y-93662174D01*
G37*
%TD.AperFunction*%
%TA.AperFunction,SMDPad,CuDef*%
%TO.P,R3,1*%
%TO.N,/B*%
G36*
X135806642Y-93662174D02*
G01*
X135830303Y-93665684D01*
X135853507Y-93671496D01*
X135876029Y-93679554D01*
X135897653Y-93689782D01*
X135918170Y-93702079D01*
X135937383Y-93716329D01*
X135955107Y-93732393D01*
X135971171Y-93750117D01*
X135985421Y-93769330D01*
X135997718Y-93789847D01*
X136007946Y-93811471D01*
X136016004Y-93833993D01*
X136021816Y-93857197D01*
X136025326Y-93880858D01*
X136026500Y-93904750D01*
X136026500Y-94817250D01*
X136025326Y-94841142D01*
X136021816Y-94864803D01*
X136016004Y-94888007D01*
X136007946Y-94910529D01*
X135997718Y-94932153D01*
X135985421Y-94952670D01*
X135971171Y-94971883D01*
X135955107Y-94989607D01*
X135937383Y-95005671D01*
X135918170Y-95019921D01*
X135897653Y-95032218D01*
X135876029Y-95042446D01*
X135853507Y-95050504D01*
X135830303Y-95056316D01*
X135806642Y-95059826D01*
X135782750Y-95061000D01*
X135295250Y-95061000D01*
X135271358Y-95059826D01*
X135247697Y-95056316D01*
X135224493Y-95050504D01*
X135201971Y-95042446D01*
X135180347Y-95032218D01*
X135159830Y-95019921D01*
X135140617Y-95005671D01*
X135122893Y-94989607D01*
X135106829Y-94971883D01*
X135092579Y-94952670D01*
X135080282Y-94932153D01*
X135070054Y-94910529D01*
X135061996Y-94888007D01*
X135056184Y-94864803D01*
X135052674Y-94841142D01*
X135051500Y-94817250D01*
X135051500Y-93904750D01*
X135052674Y-93880858D01*
X135056184Y-93857197D01*
X135061996Y-93833993D01*
X135070054Y-93811471D01*
X135080282Y-93789847D01*
X135092579Y-93769330D01*
X135106829Y-93750117D01*
X135122893Y-93732393D01*
X135140617Y-93716329D01*
X135159830Y-93702079D01*
X135180347Y-93689782D01*
X135201971Y-93679554D01*
X135224493Y-93671496D01*
X135247697Y-93665684D01*
X135271358Y-93662174D01*
X135295250Y-93661000D01*
X135782750Y-93661000D01*
X135806642Y-93662174D01*
G37*
%TD.AperFunction*%
%TD*%
%TA.AperFunction,SMDPad,CuDef*%
%TO.P,R1,2*%
%TO.N,Net-(D1-Pad1)*%
G36*
X137681642Y-99504174D02*
G01*
X137705303Y-99507684D01*
X137728507Y-99513496D01*
X137751029Y-99521554D01*
X137772653Y-99531782D01*
X137793170Y-99544079D01*
X137812383Y-99558329D01*
X137830107Y-99574393D01*
X137846171Y-99592117D01*
X137860421Y-99611330D01*
X137872718Y-99631847D01*
X137882946Y-99653471D01*
X137891004Y-99675993D01*
X137896816Y-99699197D01*
X137900326Y-99722858D01*
X137901500Y-99746750D01*
X137901500Y-100659250D01*
X137900326Y-100683142D01*
X137896816Y-100706803D01*
X137891004Y-100730007D01*
X137882946Y-100752529D01*
X137872718Y-100774153D01*
X137860421Y-100794670D01*
X137846171Y-100813883D01*
X137830107Y-100831607D01*
X137812383Y-100847671D01*
X137793170Y-100861921D01*
X137772653Y-100874218D01*
X137751029Y-100884446D01*
X137728507Y-100892504D01*
X137705303Y-100898316D01*
X137681642Y-100901826D01*
X137657750Y-100903000D01*
X137170250Y-100903000D01*
X137146358Y-100901826D01*
X137122697Y-100898316D01*
X137099493Y-100892504D01*
X137076971Y-100884446D01*
X137055347Y-100874218D01*
X137034830Y-100861921D01*
X137015617Y-100847671D01*
X136997893Y-100831607D01*
X136981829Y-100813883D01*
X136967579Y-100794670D01*
X136955282Y-100774153D01*
X136945054Y-100752529D01*
X136936996Y-100730007D01*
X136931184Y-100706803D01*
X136927674Y-100683142D01*
X136926500Y-100659250D01*
X136926500Y-99746750D01*
X136927674Y-99722858D01*
X136931184Y-99699197D01*
X136936996Y-99675993D01*
X136945054Y-99653471D01*
X136955282Y-99631847D01*
X136967579Y-99611330D01*
X136981829Y-99592117D01*
X136997893Y-99574393D01*
X137015617Y-99558329D01*
X137034830Y-99544079D01*
X137055347Y-99531782D01*
X137076971Y-99521554D01*
X137099493Y-99513496D01*
X137122697Y-99507684D01*
X137146358Y-99504174D01*
X137170250Y-99503000D01*
X137657750Y-99503000D01*
X137681642Y-99504174D01*
G37*
%TD.AperFunction*%
%TA.AperFunction,SMDPad,CuDef*%
%TO.P,R1,1*%
%TO.N,/R*%
G36*
X135806642Y-99504174D02*
G01*
X135830303Y-99507684D01*
X135853507Y-99513496D01*
X135876029Y-99521554D01*
X135897653Y-99531782D01*
X135918170Y-99544079D01*
X135937383Y-99558329D01*
X135955107Y-99574393D01*
X135971171Y-99592117D01*
X135985421Y-99611330D01*
X135997718Y-99631847D01*
X136007946Y-99653471D01*
X136016004Y-99675993D01*
X136021816Y-99699197D01*
X136025326Y-99722858D01*
X136026500Y-99746750D01*
X136026500Y-100659250D01*
X136025326Y-100683142D01*
X136021816Y-100706803D01*
X136016004Y-100730007D01*
X136007946Y-100752529D01*
X135997718Y-100774153D01*
X135985421Y-100794670D01*
X135971171Y-100813883D01*
X135955107Y-100831607D01*
X135937383Y-100847671D01*
X135918170Y-100861921D01*
X135897653Y-100874218D01*
X135876029Y-100884446D01*
X135853507Y-100892504D01*
X135830303Y-100898316D01*
X135806642Y-100901826D01*
X135782750Y-100903000D01*
X135295250Y-100903000D01*
X135271358Y-100901826D01*
X135247697Y-100898316D01*
X135224493Y-100892504D01*
X135201971Y-100884446D01*
X135180347Y-100874218D01*
X135159830Y-100861921D01*
X135140617Y-100847671D01*
X135122893Y-100831607D01*
X135106829Y-100813883D01*
X135092579Y-100794670D01*
X135080282Y-100774153D01*
X135070054Y-100752529D01*
X135061996Y-100730007D01*
X135056184Y-100706803D01*
X135052674Y-100683142D01*
X135051500Y-100659250D01*
X135051500Y-99746750D01*
X135052674Y-99722858D01*
X135056184Y-99699197D01*
X135061996Y-99675993D01*
X135070054Y-99653471D01*
X135080282Y-99631847D01*
X135092579Y-99611330D01*
X135106829Y-99592117D01*
X135122893Y-99574393D01*
X135140617Y-99558329D01*
X135159830Y-99544079D01*
X135180347Y-99531782D01*
X135201971Y-99521554D01*
X135224493Y-99513496D01*
X135247697Y-99507684D01*
X135271358Y-99504174D01*
X135295250Y-99503000D01*
X135782750Y-99503000D01*
X135806642Y-99504174D01*
G37*
%TD.AperFunction*%
%TD*%
D16*
%TO.N,Net-(D1-Pad4)*%
X137414000Y-94361000D02*
X138684000Y-94361000D01*
X139210000Y-94887000D02*
X139210000Y-96369000D01*
X138684000Y-94361000D02*
X139210000Y-94887000D01*
%TO.N,Net-(D1-Pad3)*%
X137438000Y-97639000D02*
X137414000Y-97663000D01*
X139186000Y-97663000D02*
X139210000Y-97639000D01*
X137414000Y-97663000D02*
X139186000Y-97663000D01*
D17*
%TO.N,GND*%
X136398000Y-101981000D02*
X131572000Y-101981000D01*
X136398000Y-101981000D02*
X141224000Y-101981000D01*
X141224000Y-101981000D02*
X141986000Y-101219000D01*
X139210000Y-98909000D02*
X141200000Y-98909000D01*
X141986000Y-99695000D02*
X141986000Y-101219000D01*
X141200000Y-98909000D02*
X141986000Y-99695000D01*
D16*
%TO.N,Net-(D1-Pad1)*%
X139186000Y-100203000D02*
X139210000Y-100179000D01*
X137414000Y-100203000D02*
X139186000Y-100203000D01*
%TO.N,/R*%
X134777000Y-99441000D02*
X135539000Y-100203000D01*
X131572000Y-99441000D02*
X134777000Y-99441000D01*
%TO.N,/G*%
X134777000Y-96901000D02*
X135539000Y-97663000D01*
X131572000Y-96901000D02*
X134777000Y-96901000D01*
%TO.N,/B*%
X131572000Y-94361000D02*
X135539000Y-94361000D01*
%TD*%
M02*
