%TF.GenerationSoftware,KiCad,Pcbnew,5.1.5-52549c5~86~ubuntu16.04.1*%
%TF.CreationDate,2020-11-12T16:46:33+05:30*%
%TF.ProjectId,LDR Module V1.0,4c445220-4d6f-4647-956c-652056312e30,V1.0*%
%TF.SameCoordinates,Original*%
%TF.FileFunction,Legend,Top*%
%TF.FilePolarity,Positive*%
%FSLAX46Y46*%
G04 Gerber Fmt 4.6, Leading zero omitted, Abs format (unit mm)*
G04 Created by KiCad (PCBNEW 5.1.5-52549c5~86~ubuntu16.04.1) date 2020-11-12 16:46:33*
%MOMM*%
%LPD*%
G04 APERTURE LIST*
%ADD10C,0.300000*%
%ADD11C,0.200000*%
%ADD12C,0.120000*%
G04 APERTURE END LIST*
D10*
X147554285Y-89832571D02*
X146840000Y-89832571D01*
X146840000Y-88332571D01*
X148054285Y-89832571D02*
X148054285Y-88332571D01*
X148411428Y-88332571D01*
X148625714Y-88404000D01*
X148768571Y-88546857D01*
X148840000Y-88689714D01*
X148911428Y-88975428D01*
X148911428Y-89189714D01*
X148840000Y-89475428D01*
X148768571Y-89618285D01*
X148625714Y-89761142D01*
X148411428Y-89832571D01*
X148054285Y-89832571D01*
X150411428Y-89832571D02*
X149911428Y-89118285D01*
X149554285Y-89832571D02*
X149554285Y-88332571D01*
X150125714Y-88332571D01*
X150268571Y-88404000D01*
X150340000Y-88475428D01*
X150411428Y-88618285D01*
X150411428Y-88832571D01*
X150340000Y-88975428D01*
X150268571Y-89046857D01*
X150125714Y-89118285D01*
X149554285Y-89118285D01*
D11*
X138785714Y-91094000D02*
X138671428Y-91036857D01*
X138500000Y-91036857D01*
X138328571Y-91094000D01*
X138214285Y-91208285D01*
X138157142Y-91322571D01*
X138100000Y-91551142D01*
X138100000Y-91722571D01*
X138157142Y-91951142D01*
X138214285Y-92065428D01*
X138328571Y-92179714D01*
X138500000Y-92236857D01*
X138614285Y-92236857D01*
X138785714Y-92179714D01*
X138842857Y-92122571D01*
X138842857Y-91722571D01*
X138614285Y-91722571D01*
X139357142Y-92236857D02*
X139357142Y-91036857D01*
X140042857Y-92236857D01*
X140042857Y-91036857D01*
X140614285Y-92236857D02*
X140614285Y-91036857D01*
X140900000Y-91036857D01*
X141071428Y-91094000D01*
X141185714Y-91208285D01*
X141242857Y-91322571D01*
X141300000Y-91551142D01*
X141300000Y-91722571D01*
X141242857Y-91951142D01*
X141185714Y-92065428D01*
X141071428Y-92179714D01*
X140900000Y-92236857D01*
X140614285Y-92236857D01*
X138500000Y-88496857D02*
X138728571Y-88496857D01*
X138842857Y-88554000D01*
X138957142Y-88668285D01*
X139014285Y-88896857D01*
X139014285Y-89296857D01*
X138957142Y-89525428D01*
X138842857Y-89639714D01*
X138728571Y-89696857D01*
X138500000Y-89696857D01*
X138385714Y-89639714D01*
X138271428Y-89525428D01*
X138214285Y-89296857D01*
X138214285Y-88896857D01*
X138271428Y-88668285D01*
X138385714Y-88554000D01*
X138500000Y-88496857D01*
X139528571Y-88496857D02*
X139528571Y-89468285D01*
X139585714Y-89582571D01*
X139642857Y-89639714D01*
X139757142Y-89696857D01*
X139985714Y-89696857D01*
X140100000Y-89639714D01*
X140157142Y-89582571D01*
X140214285Y-89468285D01*
X140214285Y-88496857D01*
X140614285Y-88496857D02*
X141300000Y-88496857D01*
X140957142Y-89696857D02*
X140957142Y-88496857D01*
X138100000Y-85956857D02*
X138500000Y-87156857D01*
X138900000Y-85956857D01*
X139985714Y-87042571D02*
X139928571Y-87099714D01*
X139757142Y-87156857D01*
X139642857Y-87156857D01*
X139471428Y-87099714D01*
X139357142Y-86985428D01*
X139300000Y-86871142D01*
X139242857Y-86642571D01*
X139242857Y-86471142D01*
X139300000Y-86242571D01*
X139357142Y-86128285D01*
X139471428Y-86014000D01*
X139642857Y-85956857D01*
X139757142Y-85956857D01*
X139928571Y-86014000D01*
X139985714Y-86071142D01*
X141185714Y-87042571D02*
X141128571Y-87099714D01*
X140957142Y-87156857D01*
X140842857Y-87156857D01*
X140671428Y-87099714D01*
X140557142Y-86985428D01*
X140500000Y-86871142D01*
X140442857Y-86642571D01*
X140442857Y-86471142D01*
X140500000Y-86242571D01*
X140557142Y-86128285D01*
X140671428Y-86014000D01*
X140842857Y-85956857D01*
X140957142Y-85956857D01*
X141128571Y-86014000D01*
X141185714Y-86071142D01*
D12*
%TO.C,R2*%
X142185758Y-90430037D02*
G75*
G03X146395000Y-90444000I2109242J1386037D01*
G01*
X146404242Y-87657963D02*
G75*
G03X142195000Y-87644000I-2109242J-1386037D01*
G01*
X146395000Y-90444000D02*
X146395000Y-87644000D01*
X142195000Y-90444000D02*
X142195000Y-87644000D01*
%TO.C,J1*%
X135195000Y-93024000D02*
X137855000Y-93024000D01*
X135195000Y-87884000D02*
X135195000Y-93024000D01*
X137855000Y-87884000D02*
X137855000Y-93024000D01*
X135195000Y-87884000D02*
X137855000Y-87884000D01*
X135195000Y-86614000D02*
X135195000Y-85284000D01*
X135195000Y-85284000D02*
X136525000Y-85284000D01*
%TD*%
M02*
