%TF.GenerationSoftware,KiCad,Pcbnew,5.1.5-52549c5~86~ubuntu16.04.1*%
%TF.CreationDate,2020-11-12T16:46:33+05:30*%
%TF.ProjectId,LDR Module V1.0,4c445220-4d6f-4647-956c-652056312e30,V1.0*%
%TF.SameCoordinates,Original*%
%TF.FileFunction,Copper,L2,Bot*%
%TF.FilePolarity,Positive*%
%FSLAX46Y46*%
G04 Gerber Fmt 4.6, Leading zero omitted, Abs format (unit mm)*
G04 Created by KiCad (PCBNEW 5.1.5-52549c5~86~ubuntu16.04.1) date 2020-11-12 16:46:33*
%MOMM*%
%LPD*%
G04 APERTURE LIST*
%TA.AperFunction,EtchedComponent*%
%ADD10C,0.002540*%
%TD*%
%TA.AperFunction,ComponentPad*%
%ADD11C,1.600000*%
%TD*%
%TA.AperFunction,SMDPad,CuDef*%
%ADD12C,0.100000*%
%TD*%
%TA.AperFunction,ComponentPad*%
%ADD13O,1.700000X1.700000*%
%TD*%
%TA.AperFunction,ComponentPad*%
%ADD14R,1.700000X1.700000*%
%TD*%
%TA.AperFunction,Conductor*%
%ADD15C,0.812800*%
%TD*%
%TA.AperFunction,Conductor*%
%ADD16C,0.609600*%
%TD*%
G04 APERTURE END LIST*
D10*
%TO.C,G\002A\002A\002A*%
G36*
X144251680Y-86055200D02*
G01*
X144269460Y-86047580D01*
X144302480Y-86024720D01*
X144353280Y-85991700D01*
X144411700Y-85953600D01*
X144472660Y-85912960D01*
X144520920Y-85879940D01*
X144556480Y-85857080D01*
X144569180Y-85849460D01*
X144576800Y-85852000D01*
X144604740Y-85867240D01*
X144645380Y-85887560D01*
X144670780Y-85900260D01*
X144708880Y-85915500D01*
X144726660Y-85920580D01*
X144729200Y-85915500D01*
X144744440Y-85885020D01*
X144764760Y-85836760D01*
X144792700Y-85770720D01*
X144825720Y-85694520D01*
X144861280Y-85613240D01*
X144894300Y-85529420D01*
X144927320Y-85450680D01*
X144957800Y-85377020D01*
X144980660Y-85318600D01*
X144995900Y-85277960D01*
X145003520Y-85260180D01*
X145000980Y-85257640D01*
X144983200Y-85239860D01*
X144950180Y-85214460D01*
X144879060Y-85156040D01*
X144807940Y-85069680D01*
X144764760Y-84970620D01*
X144752060Y-84858860D01*
X144762220Y-84757260D01*
X144802860Y-84660740D01*
X144871440Y-84571840D01*
X144955260Y-84505800D01*
X145051780Y-84465160D01*
X145161000Y-84452460D01*
X145265140Y-84462620D01*
X145364200Y-84503260D01*
X145453100Y-84569300D01*
X145491200Y-84612480D01*
X145542000Y-84703920D01*
X145572480Y-84797900D01*
X145575020Y-84820760D01*
X145569940Y-84927440D01*
X145539460Y-85029040D01*
X145483580Y-85117940D01*
X145407380Y-85191600D01*
X145397220Y-85199220D01*
X145361660Y-85227160D01*
X145336260Y-85244940D01*
X145318480Y-85260180D01*
X145453100Y-85582760D01*
X145473420Y-85633560D01*
X145511520Y-85722460D01*
X145542000Y-85798660D01*
X145569940Y-85859620D01*
X145587720Y-85900260D01*
X145595340Y-85915500D01*
X145608040Y-85918040D01*
X145630900Y-85910420D01*
X145676620Y-85887560D01*
X145707100Y-85872320D01*
X145740120Y-85857080D01*
X145755360Y-85849460D01*
X145770600Y-85857080D01*
X145803620Y-85877400D01*
X145849340Y-85910420D01*
X145907760Y-85948520D01*
X145963640Y-85986620D01*
X146014440Y-86019640D01*
X146050000Y-86045040D01*
X146067780Y-86052660D01*
X146070320Y-86052660D01*
X146088100Y-86045040D01*
X146116040Y-86019640D01*
X146159220Y-85979000D01*
X146222720Y-85918040D01*
X146232880Y-85907880D01*
X146283680Y-85857080D01*
X146324320Y-85811360D01*
X146352260Y-85780880D01*
X146362420Y-85768180D01*
X146352260Y-85750400D01*
X146329400Y-85712300D01*
X146296380Y-85661500D01*
X146255740Y-85600540D01*
X146149060Y-85445600D01*
X146207480Y-85300820D01*
X146225260Y-85255100D01*
X146248120Y-85199220D01*
X146265900Y-85161120D01*
X146273520Y-85143340D01*
X146291300Y-85138260D01*
X146329400Y-85128100D01*
X146387820Y-85117940D01*
X146458940Y-85105240D01*
X146524980Y-85092540D01*
X146583400Y-85079840D01*
X146626580Y-85072220D01*
X146646900Y-85069680D01*
X146651980Y-85064600D01*
X146654520Y-85056980D01*
X146657060Y-85036660D01*
X146659600Y-84998560D01*
X146659600Y-84942680D01*
X146659600Y-84858860D01*
X146659600Y-84851240D01*
X146659600Y-84772500D01*
X146657060Y-84709000D01*
X146654520Y-84670900D01*
X146651980Y-84653120D01*
X146634200Y-84648040D01*
X146591020Y-84640420D01*
X146532600Y-84627720D01*
X146461480Y-84615020D01*
X146456400Y-84615020D01*
X146385280Y-84599780D01*
X146326860Y-84587080D01*
X146283680Y-84579460D01*
X146265900Y-84571840D01*
X146263360Y-84566760D01*
X146248120Y-84538820D01*
X146227800Y-84495640D01*
X146204940Y-84442300D01*
X146182080Y-84386420D01*
X146161760Y-84335620D01*
X146149060Y-84300060D01*
X146143980Y-84282280D01*
X146154140Y-84264500D01*
X146179540Y-84228940D01*
X146215100Y-84178140D01*
X146255740Y-84117180D01*
X146258280Y-84112100D01*
X146298920Y-84051140D01*
X146331940Y-84000340D01*
X146354800Y-83964780D01*
X146362420Y-83949540D01*
X146362420Y-83947000D01*
X146349720Y-83929220D01*
X146319240Y-83896200D01*
X146273520Y-83850480D01*
X146222720Y-83797140D01*
X146204940Y-83781900D01*
X146146520Y-83723480D01*
X146105880Y-83687920D01*
X146080480Y-83667600D01*
X146070320Y-83662520D01*
X146067780Y-83662520D01*
X146050000Y-83672680D01*
X146011900Y-83698080D01*
X145961100Y-83733640D01*
X145900140Y-83774280D01*
X145897600Y-83776820D01*
X145836640Y-83817460D01*
X145785840Y-83853020D01*
X145750280Y-83875880D01*
X145735040Y-83883500D01*
X145732500Y-83883500D01*
X145709640Y-83878420D01*
X145666460Y-83863180D01*
X145613120Y-83842860D01*
X145557240Y-83820000D01*
X145506440Y-83799680D01*
X145470880Y-83781900D01*
X145453100Y-83771740D01*
X145450560Y-83771740D01*
X145445480Y-83748880D01*
X145435320Y-83703160D01*
X145422620Y-83642200D01*
X145407380Y-83568540D01*
X145404840Y-83558380D01*
X145392140Y-83484720D01*
X145381980Y-83426300D01*
X145371820Y-83385660D01*
X145369280Y-83367880D01*
X145359120Y-83367880D01*
X145323560Y-83365340D01*
X145270220Y-83362800D01*
X145204180Y-83362800D01*
X145138140Y-83362800D01*
X145072100Y-83362800D01*
X145016220Y-83365340D01*
X144975580Y-83367880D01*
X144957800Y-83372960D01*
X144952720Y-83395820D01*
X144942560Y-83439000D01*
X144929860Y-83502500D01*
X144914620Y-83576160D01*
X144912080Y-83588860D01*
X144899380Y-83659980D01*
X144886680Y-83718400D01*
X144879060Y-83759040D01*
X144873980Y-83774280D01*
X144868900Y-83776820D01*
X144838420Y-83792060D01*
X144790160Y-83809840D01*
X144731740Y-83835240D01*
X144594580Y-83891120D01*
X144426940Y-83774280D01*
X144411700Y-83764120D01*
X144350740Y-83723480D01*
X144299940Y-83690460D01*
X144264380Y-83667600D01*
X144251680Y-83659980D01*
X144249140Y-83659980D01*
X144233900Y-83675220D01*
X144200880Y-83705700D01*
X144155160Y-83751420D01*
X144101820Y-83802220D01*
X144061180Y-83842860D01*
X144015460Y-83888580D01*
X143987520Y-83921600D01*
X143969740Y-83941920D01*
X143964660Y-83954620D01*
X143967200Y-83962240D01*
X143977360Y-83980020D01*
X144002760Y-84015580D01*
X144035780Y-84068920D01*
X144076420Y-84127340D01*
X144111980Y-84178140D01*
X144147540Y-84234020D01*
X144170400Y-84274660D01*
X144180560Y-84292440D01*
X144178020Y-84302600D01*
X144165320Y-84335620D01*
X144145000Y-84383880D01*
X144119600Y-84444840D01*
X144061180Y-84576920D01*
X143974820Y-84594700D01*
X143921480Y-84604860D01*
X143847820Y-84617560D01*
X143776700Y-84632800D01*
X143664940Y-84653120D01*
X143662400Y-85056980D01*
X143680180Y-85064600D01*
X143695420Y-85069680D01*
X143736060Y-85079840D01*
X143794480Y-85090000D01*
X143863060Y-85102700D01*
X143924020Y-85115400D01*
X143982440Y-85125560D01*
X144025620Y-85133180D01*
X144043400Y-85138260D01*
X144048480Y-85143340D01*
X144063720Y-85173820D01*
X144084040Y-85219540D01*
X144106900Y-85272880D01*
X144132300Y-85331300D01*
X144152620Y-85382100D01*
X144167860Y-85422740D01*
X144172940Y-85443060D01*
X144165320Y-85458300D01*
X144142460Y-85493860D01*
X144109440Y-85544660D01*
X144068800Y-85603080D01*
X144028160Y-85661500D01*
X143995140Y-85712300D01*
X143969740Y-85747860D01*
X143962120Y-85765640D01*
X143967200Y-85775800D01*
X143990060Y-85803740D01*
X144033240Y-85849460D01*
X144099280Y-85915500D01*
X144111980Y-85925660D01*
X144162780Y-85976460D01*
X144208500Y-86017100D01*
X144238980Y-86045040D01*
X144251680Y-86055200D01*
G37*
X144251680Y-86055200D02*
X144269460Y-86047580D01*
X144302480Y-86024720D01*
X144353280Y-85991700D01*
X144411700Y-85953600D01*
X144472660Y-85912960D01*
X144520920Y-85879940D01*
X144556480Y-85857080D01*
X144569180Y-85849460D01*
X144576800Y-85852000D01*
X144604740Y-85867240D01*
X144645380Y-85887560D01*
X144670780Y-85900260D01*
X144708880Y-85915500D01*
X144726660Y-85920580D01*
X144729200Y-85915500D01*
X144744440Y-85885020D01*
X144764760Y-85836760D01*
X144792700Y-85770720D01*
X144825720Y-85694520D01*
X144861280Y-85613240D01*
X144894300Y-85529420D01*
X144927320Y-85450680D01*
X144957800Y-85377020D01*
X144980660Y-85318600D01*
X144995900Y-85277960D01*
X145003520Y-85260180D01*
X145000980Y-85257640D01*
X144983200Y-85239860D01*
X144950180Y-85214460D01*
X144879060Y-85156040D01*
X144807940Y-85069680D01*
X144764760Y-84970620D01*
X144752060Y-84858860D01*
X144762220Y-84757260D01*
X144802860Y-84660740D01*
X144871440Y-84571840D01*
X144955260Y-84505800D01*
X145051780Y-84465160D01*
X145161000Y-84452460D01*
X145265140Y-84462620D01*
X145364200Y-84503260D01*
X145453100Y-84569300D01*
X145491200Y-84612480D01*
X145542000Y-84703920D01*
X145572480Y-84797900D01*
X145575020Y-84820760D01*
X145569940Y-84927440D01*
X145539460Y-85029040D01*
X145483580Y-85117940D01*
X145407380Y-85191600D01*
X145397220Y-85199220D01*
X145361660Y-85227160D01*
X145336260Y-85244940D01*
X145318480Y-85260180D01*
X145453100Y-85582760D01*
X145473420Y-85633560D01*
X145511520Y-85722460D01*
X145542000Y-85798660D01*
X145569940Y-85859620D01*
X145587720Y-85900260D01*
X145595340Y-85915500D01*
X145608040Y-85918040D01*
X145630900Y-85910420D01*
X145676620Y-85887560D01*
X145707100Y-85872320D01*
X145740120Y-85857080D01*
X145755360Y-85849460D01*
X145770600Y-85857080D01*
X145803620Y-85877400D01*
X145849340Y-85910420D01*
X145907760Y-85948520D01*
X145963640Y-85986620D01*
X146014440Y-86019640D01*
X146050000Y-86045040D01*
X146067780Y-86052660D01*
X146070320Y-86052660D01*
X146088100Y-86045040D01*
X146116040Y-86019640D01*
X146159220Y-85979000D01*
X146222720Y-85918040D01*
X146232880Y-85907880D01*
X146283680Y-85857080D01*
X146324320Y-85811360D01*
X146352260Y-85780880D01*
X146362420Y-85768180D01*
X146352260Y-85750400D01*
X146329400Y-85712300D01*
X146296380Y-85661500D01*
X146255740Y-85600540D01*
X146149060Y-85445600D01*
X146207480Y-85300820D01*
X146225260Y-85255100D01*
X146248120Y-85199220D01*
X146265900Y-85161120D01*
X146273520Y-85143340D01*
X146291300Y-85138260D01*
X146329400Y-85128100D01*
X146387820Y-85117940D01*
X146458940Y-85105240D01*
X146524980Y-85092540D01*
X146583400Y-85079840D01*
X146626580Y-85072220D01*
X146646900Y-85069680D01*
X146651980Y-85064600D01*
X146654520Y-85056980D01*
X146657060Y-85036660D01*
X146659600Y-84998560D01*
X146659600Y-84942680D01*
X146659600Y-84858860D01*
X146659600Y-84851240D01*
X146659600Y-84772500D01*
X146657060Y-84709000D01*
X146654520Y-84670900D01*
X146651980Y-84653120D01*
X146634200Y-84648040D01*
X146591020Y-84640420D01*
X146532600Y-84627720D01*
X146461480Y-84615020D01*
X146456400Y-84615020D01*
X146385280Y-84599780D01*
X146326860Y-84587080D01*
X146283680Y-84579460D01*
X146265900Y-84571840D01*
X146263360Y-84566760D01*
X146248120Y-84538820D01*
X146227800Y-84495640D01*
X146204940Y-84442300D01*
X146182080Y-84386420D01*
X146161760Y-84335620D01*
X146149060Y-84300060D01*
X146143980Y-84282280D01*
X146154140Y-84264500D01*
X146179540Y-84228940D01*
X146215100Y-84178140D01*
X146255740Y-84117180D01*
X146258280Y-84112100D01*
X146298920Y-84051140D01*
X146331940Y-84000340D01*
X146354800Y-83964780D01*
X146362420Y-83949540D01*
X146362420Y-83947000D01*
X146349720Y-83929220D01*
X146319240Y-83896200D01*
X146273520Y-83850480D01*
X146222720Y-83797140D01*
X146204940Y-83781900D01*
X146146520Y-83723480D01*
X146105880Y-83687920D01*
X146080480Y-83667600D01*
X146070320Y-83662520D01*
X146067780Y-83662520D01*
X146050000Y-83672680D01*
X146011900Y-83698080D01*
X145961100Y-83733640D01*
X145900140Y-83774280D01*
X145897600Y-83776820D01*
X145836640Y-83817460D01*
X145785840Y-83853020D01*
X145750280Y-83875880D01*
X145735040Y-83883500D01*
X145732500Y-83883500D01*
X145709640Y-83878420D01*
X145666460Y-83863180D01*
X145613120Y-83842860D01*
X145557240Y-83820000D01*
X145506440Y-83799680D01*
X145470880Y-83781900D01*
X145453100Y-83771740D01*
X145450560Y-83771740D01*
X145445480Y-83748880D01*
X145435320Y-83703160D01*
X145422620Y-83642200D01*
X145407380Y-83568540D01*
X145404840Y-83558380D01*
X145392140Y-83484720D01*
X145381980Y-83426300D01*
X145371820Y-83385660D01*
X145369280Y-83367880D01*
X145359120Y-83367880D01*
X145323560Y-83365340D01*
X145270220Y-83362800D01*
X145204180Y-83362800D01*
X145138140Y-83362800D01*
X145072100Y-83362800D01*
X145016220Y-83365340D01*
X144975580Y-83367880D01*
X144957800Y-83372960D01*
X144952720Y-83395820D01*
X144942560Y-83439000D01*
X144929860Y-83502500D01*
X144914620Y-83576160D01*
X144912080Y-83588860D01*
X144899380Y-83659980D01*
X144886680Y-83718400D01*
X144879060Y-83759040D01*
X144873980Y-83774280D01*
X144868900Y-83776820D01*
X144838420Y-83792060D01*
X144790160Y-83809840D01*
X144731740Y-83835240D01*
X144594580Y-83891120D01*
X144426940Y-83774280D01*
X144411700Y-83764120D01*
X144350740Y-83723480D01*
X144299940Y-83690460D01*
X144264380Y-83667600D01*
X144251680Y-83659980D01*
X144249140Y-83659980D01*
X144233900Y-83675220D01*
X144200880Y-83705700D01*
X144155160Y-83751420D01*
X144101820Y-83802220D01*
X144061180Y-83842860D01*
X144015460Y-83888580D01*
X143987520Y-83921600D01*
X143969740Y-83941920D01*
X143964660Y-83954620D01*
X143967200Y-83962240D01*
X143977360Y-83980020D01*
X144002760Y-84015580D01*
X144035780Y-84068920D01*
X144076420Y-84127340D01*
X144111980Y-84178140D01*
X144147540Y-84234020D01*
X144170400Y-84274660D01*
X144180560Y-84292440D01*
X144178020Y-84302600D01*
X144165320Y-84335620D01*
X144145000Y-84383880D01*
X144119600Y-84444840D01*
X144061180Y-84576920D01*
X143974820Y-84594700D01*
X143921480Y-84604860D01*
X143847820Y-84617560D01*
X143776700Y-84632800D01*
X143664940Y-84653120D01*
X143662400Y-85056980D01*
X143680180Y-85064600D01*
X143695420Y-85069680D01*
X143736060Y-85079840D01*
X143794480Y-85090000D01*
X143863060Y-85102700D01*
X143924020Y-85115400D01*
X143982440Y-85125560D01*
X144025620Y-85133180D01*
X144043400Y-85138260D01*
X144048480Y-85143340D01*
X144063720Y-85173820D01*
X144084040Y-85219540D01*
X144106900Y-85272880D01*
X144132300Y-85331300D01*
X144152620Y-85382100D01*
X144167860Y-85422740D01*
X144172940Y-85443060D01*
X144165320Y-85458300D01*
X144142460Y-85493860D01*
X144109440Y-85544660D01*
X144068800Y-85603080D01*
X144028160Y-85661500D01*
X143995140Y-85712300D01*
X143969740Y-85747860D01*
X143962120Y-85765640D01*
X143967200Y-85775800D01*
X143990060Y-85803740D01*
X144033240Y-85849460D01*
X144099280Y-85915500D01*
X144111980Y-85925660D01*
X144162780Y-85976460D01*
X144208500Y-86017100D01*
X144238980Y-86045040D01*
X144251680Y-86055200D01*
%TD*%
D11*
%TO.P,R2,2*%
%TO.N,/OUT*%
X144295000Y-87544000D03*
%TO.P,R2,1*%
%TO.N,GND*%
X144295000Y-90544000D03*
%TD*%
%TA.AperFunction,SMDPad,CuDef*%
D12*
%TO.P,R1,2*%
%TO.N,VCC*%
G36*
X140815142Y-86127674D02*
G01*
X140838803Y-86131184D01*
X140862007Y-86136996D01*
X140884529Y-86145054D01*
X140906153Y-86155282D01*
X140926670Y-86167579D01*
X140945883Y-86181829D01*
X140963607Y-86197893D01*
X140979671Y-86215617D01*
X140993921Y-86234830D01*
X141006218Y-86255347D01*
X141016446Y-86276971D01*
X141024504Y-86299493D01*
X141030316Y-86322697D01*
X141033826Y-86346358D01*
X141035000Y-86370250D01*
X141035000Y-86857750D01*
X141033826Y-86881642D01*
X141030316Y-86905303D01*
X141024504Y-86928507D01*
X141016446Y-86951029D01*
X141006218Y-86972653D01*
X140993921Y-86993170D01*
X140979671Y-87012383D01*
X140963607Y-87030107D01*
X140945883Y-87046171D01*
X140926670Y-87060421D01*
X140906153Y-87072718D01*
X140884529Y-87082946D01*
X140862007Y-87091004D01*
X140838803Y-87096816D01*
X140815142Y-87100326D01*
X140791250Y-87101500D01*
X139878750Y-87101500D01*
X139854858Y-87100326D01*
X139831197Y-87096816D01*
X139807993Y-87091004D01*
X139785471Y-87082946D01*
X139763847Y-87072718D01*
X139743330Y-87060421D01*
X139724117Y-87046171D01*
X139706393Y-87030107D01*
X139690329Y-87012383D01*
X139676079Y-86993170D01*
X139663782Y-86972653D01*
X139653554Y-86951029D01*
X139645496Y-86928507D01*
X139639684Y-86905303D01*
X139636174Y-86881642D01*
X139635000Y-86857750D01*
X139635000Y-86370250D01*
X139636174Y-86346358D01*
X139639684Y-86322697D01*
X139645496Y-86299493D01*
X139653554Y-86276971D01*
X139663782Y-86255347D01*
X139676079Y-86234830D01*
X139690329Y-86215617D01*
X139706393Y-86197893D01*
X139724117Y-86181829D01*
X139743330Y-86167579D01*
X139763847Y-86155282D01*
X139785471Y-86145054D01*
X139807993Y-86136996D01*
X139831197Y-86131184D01*
X139854858Y-86127674D01*
X139878750Y-86126500D01*
X140791250Y-86126500D01*
X140815142Y-86127674D01*
G37*
%TD.AperFunction*%
%TA.AperFunction,SMDPad,CuDef*%
%TO.P,R1,1*%
%TO.N,/OUT*%
G36*
X140815142Y-88002674D02*
G01*
X140838803Y-88006184D01*
X140862007Y-88011996D01*
X140884529Y-88020054D01*
X140906153Y-88030282D01*
X140926670Y-88042579D01*
X140945883Y-88056829D01*
X140963607Y-88072893D01*
X140979671Y-88090617D01*
X140993921Y-88109830D01*
X141006218Y-88130347D01*
X141016446Y-88151971D01*
X141024504Y-88174493D01*
X141030316Y-88197697D01*
X141033826Y-88221358D01*
X141035000Y-88245250D01*
X141035000Y-88732750D01*
X141033826Y-88756642D01*
X141030316Y-88780303D01*
X141024504Y-88803507D01*
X141016446Y-88826029D01*
X141006218Y-88847653D01*
X140993921Y-88868170D01*
X140979671Y-88887383D01*
X140963607Y-88905107D01*
X140945883Y-88921171D01*
X140926670Y-88935421D01*
X140906153Y-88947718D01*
X140884529Y-88957946D01*
X140862007Y-88966004D01*
X140838803Y-88971816D01*
X140815142Y-88975326D01*
X140791250Y-88976500D01*
X139878750Y-88976500D01*
X139854858Y-88975326D01*
X139831197Y-88971816D01*
X139807993Y-88966004D01*
X139785471Y-88957946D01*
X139763847Y-88947718D01*
X139743330Y-88935421D01*
X139724117Y-88921171D01*
X139706393Y-88905107D01*
X139690329Y-88887383D01*
X139676079Y-88868170D01*
X139663782Y-88847653D01*
X139653554Y-88826029D01*
X139645496Y-88803507D01*
X139639684Y-88780303D01*
X139636174Y-88756642D01*
X139635000Y-88732750D01*
X139635000Y-88245250D01*
X139636174Y-88221358D01*
X139639684Y-88197697D01*
X139645496Y-88174493D01*
X139653554Y-88151971D01*
X139663782Y-88130347D01*
X139676079Y-88109830D01*
X139690329Y-88090617D01*
X139706393Y-88072893D01*
X139724117Y-88056829D01*
X139743330Y-88042579D01*
X139763847Y-88030282D01*
X139785471Y-88020054D01*
X139807993Y-88011996D01*
X139831197Y-88006184D01*
X139854858Y-88002674D01*
X139878750Y-88001500D01*
X140791250Y-88001500D01*
X140815142Y-88002674D01*
G37*
%TD.AperFunction*%
%TD*%
D13*
%TO.P,J1,3*%
%TO.N,GND*%
X136525000Y-91694000D03*
%TO.P,J1,2*%
%TO.N,/OUT*%
X136525000Y-89154000D03*
D14*
%TO.P,J1,1*%
%TO.N,VCC*%
X136525000Y-86614000D03*
%TD*%
D15*
%TO.N,GND*%
X143145000Y-91694000D02*
X144295000Y-90544000D01*
X136525000Y-91694000D02*
X143145000Y-91694000D01*
D16*
%TO.N,/OUT*%
X137190000Y-88489000D02*
X136525000Y-89154000D01*
X140335000Y-88489000D02*
X137190000Y-88489000D01*
X143350000Y-88489000D02*
X144295000Y-87544000D01*
X140335000Y-88489000D02*
X143350000Y-88489000D01*
%TO.N,VCC*%
X136525000Y-86614000D02*
X140335000Y-86614000D01*
%TD*%
M02*
