%TF.GenerationSoftware,KiCad,Pcbnew,5.1.5-52549c5~86~ubuntu16.04.1*%
%TF.CreationDate,2020-11-12T16:46:33+05:30*%
%TF.ProjectId,LDR Module V1.0,4c445220-4d6f-4647-956c-652056312e30,V1.0*%
%TF.SameCoordinates,Original*%
%TF.FileFunction,Legend,Bot*%
%TF.FilePolarity,Positive*%
%FSLAX46Y46*%
G04 Gerber Fmt 4.6, Leading zero omitted, Abs format (unit mm)*
G04 Created by KiCad (PCBNEW 5.1.5-52549c5~86~ubuntu16.04.1) date 2020-11-12 16:46:33*
%MOMM*%
%LPD*%
G04 APERTURE LIST*
%ADD10C,0.010000*%
%ADD11C,0.120000*%
%ADD12C,0.150000*%
G04 APERTURE END LIST*
D10*
%TO.C,G\002A\002A\002A*%
G36*
X146599929Y-93130166D02*
G01*
X146596913Y-93151762D01*
X146592951Y-93182704D01*
X146590395Y-93203663D01*
X146563793Y-93365723D01*
X146524056Y-93518502D01*
X146471410Y-93661438D01*
X146406079Y-93793975D01*
X146328289Y-93915553D01*
X146277486Y-93980903D01*
X146207891Y-94052311D01*
X146126132Y-94115648D01*
X146036006Y-94168497D01*
X145941310Y-94208443D01*
X145899890Y-94221117D01*
X145842183Y-94232447D01*
X145773468Y-94239205D01*
X145699041Y-94241397D01*
X145624197Y-94239032D01*
X145554231Y-94232116D01*
X145494438Y-94220657D01*
X145494058Y-94220558D01*
X145378371Y-94182660D01*
X145269819Y-94130887D01*
X145167831Y-94064778D01*
X145071835Y-93983872D01*
X144981262Y-93887708D01*
X144895539Y-93775826D01*
X144842569Y-93695132D01*
X144784415Y-93601318D01*
X144728319Y-93632335D01*
X144701092Y-93647486D01*
X144680279Y-93659251D01*
X144669751Y-93665437D01*
X144669253Y-93665783D01*
X144671729Y-93673815D01*
X144680489Y-93694436D01*
X144694359Y-93725034D01*
X144712163Y-93762998D01*
X144725022Y-93789831D01*
X144794632Y-93923765D01*
X144867964Y-94044138D01*
X144947261Y-94154256D01*
X145034765Y-94257428D01*
X145061691Y-94286200D01*
X145169935Y-94389942D01*
X145281229Y-94477469D01*
X145396596Y-94549379D01*
X145517057Y-94606269D01*
X145643633Y-94648735D01*
X145709390Y-94664716D01*
X145740159Y-94669564D01*
X145782775Y-94673937D01*
X145833080Y-94677647D01*
X145886913Y-94680509D01*
X145940112Y-94682336D01*
X145988518Y-94682942D01*
X146027969Y-94682140D01*
X146052291Y-94680074D01*
X146173877Y-94656457D01*
X146282940Y-94623907D01*
X146382086Y-94581097D01*
X146473920Y-94526699D01*
X146561048Y-94459388D01*
X146646076Y-94377835D01*
X146646267Y-94377634D01*
X146743730Y-94264001D01*
X146826523Y-94143087D01*
X146894970Y-94014189D01*
X146949396Y-93876604D01*
X146990125Y-93729629D01*
X147017343Y-93573646D01*
X147022637Y-93527364D01*
X147026872Y-93480632D01*
X147029534Y-93439707D01*
X147030190Y-93416605D01*
X147030190Y-93359481D01*
X146816571Y-93239780D01*
X146762051Y-93209308D01*
X146712566Y-93181804D01*
X146669969Y-93158283D01*
X146636113Y-93139764D01*
X146612851Y-93127265D01*
X146602036Y-93121802D01*
X146601495Y-93121654D01*
X146599929Y-93130166D01*
G37*
X146599929Y-93130166D02*
X146596913Y-93151762D01*
X146592951Y-93182704D01*
X146590395Y-93203663D01*
X146563793Y-93365723D01*
X146524056Y-93518502D01*
X146471410Y-93661438D01*
X146406079Y-93793975D01*
X146328289Y-93915553D01*
X146277486Y-93980903D01*
X146207891Y-94052311D01*
X146126132Y-94115648D01*
X146036006Y-94168497D01*
X145941310Y-94208443D01*
X145899890Y-94221117D01*
X145842183Y-94232447D01*
X145773468Y-94239205D01*
X145699041Y-94241397D01*
X145624197Y-94239032D01*
X145554231Y-94232116D01*
X145494438Y-94220657D01*
X145494058Y-94220558D01*
X145378371Y-94182660D01*
X145269819Y-94130887D01*
X145167831Y-94064778D01*
X145071835Y-93983872D01*
X144981262Y-93887708D01*
X144895539Y-93775826D01*
X144842569Y-93695132D01*
X144784415Y-93601318D01*
X144728319Y-93632335D01*
X144701092Y-93647486D01*
X144680279Y-93659251D01*
X144669751Y-93665437D01*
X144669253Y-93665783D01*
X144671729Y-93673815D01*
X144680489Y-93694436D01*
X144694359Y-93725034D01*
X144712163Y-93762998D01*
X144725022Y-93789831D01*
X144794632Y-93923765D01*
X144867964Y-94044138D01*
X144947261Y-94154256D01*
X145034765Y-94257428D01*
X145061691Y-94286200D01*
X145169935Y-94389942D01*
X145281229Y-94477469D01*
X145396596Y-94549379D01*
X145517057Y-94606269D01*
X145643633Y-94648735D01*
X145709390Y-94664716D01*
X145740159Y-94669564D01*
X145782775Y-94673937D01*
X145833080Y-94677647D01*
X145886913Y-94680509D01*
X145940112Y-94682336D01*
X145988518Y-94682942D01*
X146027969Y-94682140D01*
X146052291Y-94680074D01*
X146173877Y-94656457D01*
X146282940Y-94623907D01*
X146382086Y-94581097D01*
X146473920Y-94526699D01*
X146561048Y-94459388D01*
X146646076Y-94377835D01*
X146646267Y-94377634D01*
X146743730Y-94264001D01*
X146826523Y-94143087D01*
X146894970Y-94014189D01*
X146949396Y-93876604D01*
X146990125Y-93729629D01*
X147017343Y-93573646D01*
X147022637Y-93527364D01*
X147026872Y-93480632D01*
X147029534Y-93439707D01*
X147030190Y-93416605D01*
X147030190Y-93359481D01*
X146816571Y-93239780D01*
X146762051Y-93209308D01*
X146712566Y-93181804D01*
X146669969Y-93158283D01*
X146636113Y-93139764D01*
X146612851Y-93127265D01*
X146602036Y-93121802D01*
X146601495Y-93121654D01*
X146599929Y-93130166D01*
G36*
X144474815Y-92582058D02*
G01*
X144453927Y-92585182D01*
X144439029Y-92592290D01*
X144424766Y-92604829D01*
X144401290Y-92628295D01*
X144396503Y-93172096D01*
X144395487Y-93284982D01*
X144394513Y-93382249D01*
X144393495Y-93465211D01*
X144392344Y-93535180D01*
X144390973Y-93593472D01*
X144389295Y-93641398D01*
X144387222Y-93680274D01*
X144384668Y-93711412D01*
X144381545Y-93736127D01*
X144377766Y-93755731D01*
X144373242Y-93771539D01*
X144367888Y-93784864D01*
X144361615Y-93797020D01*
X144354336Y-93809320D01*
X144354109Y-93809692D01*
X144330589Y-93835833D01*
X144300571Y-93852140D01*
X144280091Y-93855596D01*
X144264681Y-93851043D01*
X144242533Y-93839532D01*
X144231976Y-93832801D01*
X144195349Y-93814946D01*
X144157871Y-93808643D01*
X144123841Y-93813906D01*
X144097557Y-93830752D01*
X144096164Y-93832312D01*
X144077644Y-93865257D01*
X144069020Y-93905786D01*
X144070165Y-93948440D01*
X144080950Y-93987757D01*
X144100500Y-94017541D01*
X144130265Y-94037929D01*
X144172348Y-94054162D01*
X144222455Y-94065365D01*
X144276292Y-94070667D01*
X144329564Y-94069193D01*
X144345007Y-94067267D01*
X144398104Y-94056213D01*
X144440630Y-94039136D01*
X144478662Y-94012836D01*
X144514734Y-93977930D01*
X144543951Y-93944442D01*
X144563523Y-93915443D01*
X144577160Y-93885009D01*
X144581973Y-93870493D01*
X144589662Y-93845290D01*
X144596269Y-93822366D01*
X144601876Y-93800258D01*
X144606566Y-93777504D01*
X144610421Y-93752641D01*
X144613525Y-93724207D01*
X144615959Y-93690740D01*
X144617807Y-93650778D01*
X144619151Y-93602858D01*
X144620074Y-93545517D01*
X144620658Y-93477294D01*
X144620987Y-93396726D01*
X144621142Y-93302351D01*
X144621207Y-93192707D01*
X144621213Y-93176324D01*
X144621424Y-92636753D01*
X144593744Y-92609058D01*
X144577769Y-92594339D01*
X144563094Y-92586031D01*
X144544034Y-92582317D01*
X144514903Y-92581377D01*
X144507153Y-92581363D01*
X144474815Y-92582058D01*
G37*
X144474815Y-92582058D02*
X144453927Y-92585182D01*
X144439029Y-92592290D01*
X144424766Y-92604829D01*
X144401290Y-92628295D01*
X144396503Y-93172096D01*
X144395487Y-93284982D01*
X144394513Y-93382249D01*
X144393495Y-93465211D01*
X144392344Y-93535180D01*
X144390973Y-93593472D01*
X144389295Y-93641398D01*
X144387222Y-93680274D01*
X144384668Y-93711412D01*
X144381545Y-93736127D01*
X144377766Y-93755731D01*
X144373242Y-93771539D01*
X144367888Y-93784864D01*
X144361615Y-93797020D01*
X144354336Y-93809320D01*
X144354109Y-93809692D01*
X144330589Y-93835833D01*
X144300571Y-93852140D01*
X144280091Y-93855596D01*
X144264681Y-93851043D01*
X144242533Y-93839532D01*
X144231976Y-93832801D01*
X144195349Y-93814946D01*
X144157871Y-93808643D01*
X144123841Y-93813906D01*
X144097557Y-93830752D01*
X144096164Y-93832312D01*
X144077644Y-93865257D01*
X144069020Y-93905786D01*
X144070165Y-93948440D01*
X144080950Y-93987757D01*
X144100500Y-94017541D01*
X144130265Y-94037929D01*
X144172348Y-94054162D01*
X144222455Y-94065365D01*
X144276292Y-94070667D01*
X144329564Y-94069193D01*
X144345007Y-94067267D01*
X144398104Y-94056213D01*
X144440630Y-94039136D01*
X144478662Y-94012836D01*
X144514734Y-93977930D01*
X144543951Y-93944442D01*
X144563523Y-93915443D01*
X144577160Y-93885009D01*
X144581973Y-93870493D01*
X144589662Y-93845290D01*
X144596269Y-93822366D01*
X144601876Y-93800258D01*
X144606566Y-93777504D01*
X144610421Y-93752641D01*
X144613525Y-93724207D01*
X144615959Y-93690740D01*
X144617807Y-93650778D01*
X144619151Y-93602858D01*
X144620074Y-93545517D01*
X144620658Y-93477294D01*
X144620987Y-93396726D01*
X144621142Y-93302351D01*
X144621207Y-93192707D01*
X144621213Y-93176324D01*
X144621424Y-92636753D01*
X144593744Y-92609058D01*
X144577769Y-92594339D01*
X144563094Y-92586031D01*
X144544034Y-92582317D01*
X144514903Y-92581377D01*
X144507153Y-92581363D01*
X144474815Y-92582058D01*
G36*
X143591149Y-93075376D02*
G01*
X143527670Y-93090037D01*
X143474179Y-93112133D01*
X143469666Y-93114678D01*
X143435022Y-93139905D01*
X143398423Y-93174792D01*
X143365165Y-93213696D01*
X143340544Y-93250972D01*
X143338988Y-93253945D01*
X143320606Y-93297604D01*
X143305138Y-93348927D01*
X143293174Y-93403943D01*
X143285301Y-93458680D01*
X143282110Y-93509164D01*
X143284189Y-93551424D01*
X143290831Y-93578617D01*
X143297690Y-93593202D01*
X143305994Y-93605065D01*
X143317510Y-93614560D01*
X143334004Y-93622042D01*
X143357239Y-93627865D01*
X143388983Y-93632383D01*
X143430999Y-93635951D01*
X143485054Y-93638922D01*
X143552913Y-93641651D01*
X143615704Y-93643811D01*
X143679668Y-93645928D01*
X143738322Y-93647856D01*
X143789482Y-93649523D01*
X143830963Y-93650859D01*
X143860580Y-93651793D01*
X143876146Y-93652255D01*
X143877791Y-93652291D01*
X143883955Y-93658926D01*
X143882414Y-93676275D01*
X143874664Y-93700835D01*
X143862202Y-93729105D01*
X143846524Y-93757582D01*
X143829127Y-93782765D01*
X143815749Y-93797479D01*
X143782267Y-93824170D01*
X143748152Y-93840609D01*
X143707930Y-93848718D01*
X143664691Y-93850494D01*
X143629052Y-93849520D01*
X143600561Y-93845842D01*
X143572535Y-93837925D01*
X143538291Y-93824235D01*
X143524991Y-93818412D01*
X143478940Y-93798411D01*
X143445027Y-93785010D01*
X143420114Y-93777501D01*
X143401064Y-93775175D01*
X143384738Y-93777321D01*
X143368462Y-93783040D01*
X143338884Y-93803976D01*
X143320955Y-93837198D01*
X143314678Y-93882696D01*
X143315840Y-93909278D01*
X143322608Y-93947361D01*
X143336930Y-93975315D01*
X143361930Y-93997140D01*
X143399460Y-94016287D01*
X143485059Y-94045475D01*
X143578112Y-94063768D01*
X143672389Y-94070248D01*
X143740891Y-94066720D01*
X143826483Y-94049999D01*
X143901528Y-94020041D01*
X143965847Y-93976999D01*
X144019261Y-93921023D01*
X144061592Y-93852262D01*
X144092642Y-93770929D01*
X144103046Y-93723734D01*
X144110708Y-93666263D01*
X144115452Y-93603323D01*
X144117105Y-93539723D01*
X144115490Y-93480270D01*
X144110824Y-93433669D01*
X143881652Y-93433669D01*
X143705438Y-93427652D01*
X143652698Y-93425756D01*
X143606019Y-93423897D01*
X143567929Y-93422191D01*
X143540961Y-93420754D01*
X143527645Y-93419700D01*
X143526695Y-93419481D01*
X143525383Y-93408213D01*
X143533028Y-93388151D01*
X143547552Y-93363346D01*
X143566875Y-93337847D01*
X143571005Y-93333161D01*
X143591885Y-93311308D01*
X143608784Y-93299092D01*
X143628576Y-93293155D01*
X143658137Y-93290137D01*
X143659211Y-93290059D01*
X143718975Y-93293340D01*
X143773376Y-93311214D01*
X143819949Y-93342357D01*
X143856225Y-93385444D01*
X143864687Y-93400414D01*
X143881652Y-93433669D01*
X144110824Y-93433669D01*
X144110433Y-93429772D01*
X144105910Y-93406707D01*
X144077750Y-93320505D01*
X144039429Y-93247644D01*
X143990309Y-93187464D01*
X143929751Y-93139301D01*
X143857115Y-93102495D01*
X143791498Y-93081202D01*
X143728065Y-93070438D01*
X143659614Y-93068669D01*
X143591149Y-93075376D01*
G37*
X143591149Y-93075376D02*
X143527670Y-93090037D01*
X143474179Y-93112133D01*
X143469666Y-93114678D01*
X143435022Y-93139905D01*
X143398423Y-93174792D01*
X143365165Y-93213696D01*
X143340544Y-93250972D01*
X143338988Y-93253945D01*
X143320606Y-93297604D01*
X143305138Y-93348927D01*
X143293174Y-93403943D01*
X143285301Y-93458680D01*
X143282110Y-93509164D01*
X143284189Y-93551424D01*
X143290831Y-93578617D01*
X143297690Y-93593202D01*
X143305994Y-93605065D01*
X143317510Y-93614560D01*
X143334004Y-93622042D01*
X143357239Y-93627865D01*
X143388983Y-93632383D01*
X143430999Y-93635951D01*
X143485054Y-93638922D01*
X143552913Y-93641651D01*
X143615704Y-93643811D01*
X143679668Y-93645928D01*
X143738322Y-93647856D01*
X143789482Y-93649523D01*
X143830963Y-93650859D01*
X143860580Y-93651793D01*
X143876146Y-93652255D01*
X143877791Y-93652291D01*
X143883955Y-93658926D01*
X143882414Y-93676275D01*
X143874664Y-93700835D01*
X143862202Y-93729105D01*
X143846524Y-93757582D01*
X143829127Y-93782765D01*
X143815749Y-93797479D01*
X143782267Y-93824170D01*
X143748152Y-93840609D01*
X143707930Y-93848718D01*
X143664691Y-93850494D01*
X143629052Y-93849520D01*
X143600561Y-93845842D01*
X143572535Y-93837925D01*
X143538291Y-93824235D01*
X143524991Y-93818412D01*
X143478940Y-93798411D01*
X143445027Y-93785010D01*
X143420114Y-93777501D01*
X143401064Y-93775175D01*
X143384738Y-93777321D01*
X143368462Y-93783040D01*
X143338884Y-93803976D01*
X143320955Y-93837198D01*
X143314678Y-93882696D01*
X143315840Y-93909278D01*
X143322608Y-93947361D01*
X143336930Y-93975315D01*
X143361930Y-93997140D01*
X143399460Y-94016287D01*
X143485059Y-94045475D01*
X143578112Y-94063768D01*
X143672389Y-94070248D01*
X143740891Y-94066720D01*
X143826483Y-94049999D01*
X143901528Y-94020041D01*
X143965847Y-93976999D01*
X144019261Y-93921023D01*
X144061592Y-93852262D01*
X144092642Y-93770929D01*
X144103046Y-93723734D01*
X144110708Y-93666263D01*
X144115452Y-93603323D01*
X144117105Y-93539723D01*
X144115490Y-93480270D01*
X144110824Y-93433669D01*
X143881652Y-93433669D01*
X143705438Y-93427652D01*
X143652698Y-93425756D01*
X143606019Y-93423897D01*
X143567929Y-93422191D01*
X143540961Y-93420754D01*
X143527645Y-93419700D01*
X143526695Y-93419481D01*
X143525383Y-93408213D01*
X143533028Y-93388151D01*
X143547552Y-93363346D01*
X143566875Y-93337847D01*
X143571005Y-93333161D01*
X143591885Y-93311308D01*
X143608784Y-93299092D01*
X143628576Y-93293155D01*
X143658137Y-93290137D01*
X143659211Y-93290059D01*
X143718975Y-93293340D01*
X143773376Y-93311214D01*
X143819949Y-93342357D01*
X143856225Y-93385444D01*
X143864687Y-93400414D01*
X143881652Y-93433669D01*
X144110824Y-93433669D01*
X144110433Y-93429772D01*
X144105910Y-93406707D01*
X144077750Y-93320505D01*
X144039429Y-93247644D01*
X143990309Y-93187464D01*
X143929751Y-93139301D01*
X143857115Y-93102495D01*
X143791498Y-93081202D01*
X143728065Y-93070438D01*
X143659614Y-93068669D01*
X143591149Y-93075376D01*
G36*
X141413751Y-93074968D02*
G01*
X141338904Y-93095256D01*
X141274280Y-93129018D01*
X141219920Y-93176213D01*
X141175862Y-93236798D01*
X141142147Y-93310733D01*
X141118813Y-93397975D01*
X141107123Y-93483106D01*
X141104982Y-93523045D01*
X141107137Y-93552256D01*
X141114059Y-93576508D01*
X141114939Y-93578660D01*
X141121784Y-93593234D01*
X141130081Y-93605087D01*
X141141596Y-93614576D01*
X141158094Y-93622052D01*
X141181339Y-93627872D01*
X141213096Y-93632388D01*
X141255131Y-93635954D01*
X141309209Y-93638926D01*
X141377094Y-93641655D01*
X141439771Y-93643811D01*
X141503734Y-93645928D01*
X141562389Y-93647856D01*
X141613549Y-93649523D01*
X141655030Y-93650859D01*
X141684646Y-93651793D01*
X141700213Y-93652255D01*
X141701858Y-93652291D01*
X141708022Y-93658926D01*
X141706480Y-93676275D01*
X141698730Y-93700835D01*
X141686269Y-93729105D01*
X141670591Y-93757582D01*
X141653194Y-93782765D01*
X141639816Y-93797479D01*
X141594658Y-93829973D01*
X141543885Y-93848346D01*
X141486591Y-93852628D01*
X141421870Y-93842850D01*
X141348815Y-93819041D01*
X141322593Y-93808053D01*
X141271072Y-93788462D01*
X141230108Y-93780144D01*
X141197722Y-93782991D01*
X141171933Y-93796894D01*
X141168816Y-93799643D01*
X141150716Y-93826618D01*
X141140483Y-93863062D01*
X141138279Y-93903367D01*
X141144262Y-93941923D01*
X141158594Y-93973123D01*
X141163686Y-93979316D01*
X141194068Y-94002391D01*
X141238026Y-94023241D01*
X141292267Y-94041145D01*
X141353501Y-94055382D01*
X141418436Y-94065231D01*
X141483781Y-94069971D01*
X141546245Y-94068882D01*
X141564957Y-94067200D01*
X141650498Y-94050577D01*
X141725456Y-94020740D01*
X141789757Y-93977753D01*
X141843326Y-93921683D01*
X141886089Y-93852592D01*
X141917970Y-93770545D01*
X141921506Y-93758229D01*
X141929703Y-93717118D01*
X141935657Y-93664336D01*
X141939256Y-93604778D01*
X141940391Y-93543337D01*
X141938948Y-93484909D01*
X141934819Y-93434389D01*
X141934698Y-93433669D01*
X141705719Y-93433669D01*
X141529505Y-93427652D01*
X141476708Y-93425722D01*
X141429918Y-93423769D01*
X141391680Y-93421920D01*
X141364538Y-93420300D01*
X141351036Y-93419036D01*
X141350034Y-93418753D01*
X141350262Y-93408934D01*
X141357569Y-93390105D01*
X141369512Y-93367260D01*
X141383650Y-93345395D01*
X141389659Y-93337700D01*
X141422195Y-93308376D01*
X141460737Y-93292579D01*
X141503153Y-93288515D01*
X141560267Y-93296737D01*
X141612441Y-93319642D01*
X141656522Y-93355318D01*
X141689030Y-93401216D01*
X141705719Y-93433669D01*
X141934698Y-93433669D01*
X141929558Y-93403176D01*
X141902108Y-93319257D01*
X141861999Y-93246174D01*
X141810148Y-93184637D01*
X141747471Y-93135361D01*
X141674885Y-93099057D01*
X141593304Y-93076438D01*
X141503645Y-93068216D01*
X141498784Y-93068196D01*
X141413751Y-93074968D01*
G37*
X141413751Y-93074968D02*
X141338904Y-93095256D01*
X141274280Y-93129018D01*
X141219920Y-93176213D01*
X141175862Y-93236798D01*
X141142147Y-93310733D01*
X141118813Y-93397975D01*
X141107123Y-93483106D01*
X141104982Y-93523045D01*
X141107137Y-93552256D01*
X141114059Y-93576508D01*
X141114939Y-93578660D01*
X141121784Y-93593234D01*
X141130081Y-93605087D01*
X141141596Y-93614576D01*
X141158094Y-93622052D01*
X141181339Y-93627872D01*
X141213096Y-93632388D01*
X141255131Y-93635954D01*
X141309209Y-93638926D01*
X141377094Y-93641655D01*
X141439771Y-93643811D01*
X141503734Y-93645928D01*
X141562389Y-93647856D01*
X141613549Y-93649523D01*
X141655030Y-93650859D01*
X141684646Y-93651793D01*
X141700213Y-93652255D01*
X141701858Y-93652291D01*
X141708022Y-93658926D01*
X141706480Y-93676275D01*
X141698730Y-93700835D01*
X141686269Y-93729105D01*
X141670591Y-93757582D01*
X141653194Y-93782765D01*
X141639816Y-93797479D01*
X141594658Y-93829973D01*
X141543885Y-93848346D01*
X141486591Y-93852628D01*
X141421870Y-93842850D01*
X141348815Y-93819041D01*
X141322593Y-93808053D01*
X141271072Y-93788462D01*
X141230108Y-93780144D01*
X141197722Y-93782991D01*
X141171933Y-93796894D01*
X141168816Y-93799643D01*
X141150716Y-93826618D01*
X141140483Y-93863062D01*
X141138279Y-93903367D01*
X141144262Y-93941923D01*
X141158594Y-93973123D01*
X141163686Y-93979316D01*
X141194068Y-94002391D01*
X141238026Y-94023241D01*
X141292267Y-94041145D01*
X141353501Y-94055382D01*
X141418436Y-94065231D01*
X141483781Y-94069971D01*
X141546245Y-94068882D01*
X141564957Y-94067200D01*
X141650498Y-94050577D01*
X141725456Y-94020740D01*
X141789757Y-93977753D01*
X141843326Y-93921683D01*
X141886089Y-93852592D01*
X141917970Y-93770545D01*
X141921506Y-93758229D01*
X141929703Y-93717118D01*
X141935657Y-93664336D01*
X141939256Y-93604778D01*
X141940391Y-93543337D01*
X141938948Y-93484909D01*
X141934819Y-93434389D01*
X141934698Y-93433669D01*
X141705719Y-93433669D01*
X141529505Y-93427652D01*
X141476708Y-93425722D01*
X141429918Y-93423769D01*
X141391680Y-93421920D01*
X141364538Y-93420300D01*
X141351036Y-93419036D01*
X141350034Y-93418753D01*
X141350262Y-93408934D01*
X141357569Y-93390105D01*
X141369512Y-93367260D01*
X141383650Y-93345395D01*
X141389659Y-93337700D01*
X141422195Y-93308376D01*
X141460737Y-93292579D01*
X141503153Y-93288515D01*
X141560267Y-93296737D01*
X141612441Y-93319642D01*
X141656522Y-93355318D01*
X141689030Y-93401216D01*
X141705719Y-93433669D01*
X141934698Y-93433669D01*
X141929558Y-93403176D01*
X141902108Y-93319257D01*
X141861999Y-93246174D01*
X141810148Y-93184637D01*
X141747471Y-93135361D01*
X141674885Y-93099057D01*
X141593304Y-93076438D01*
X141503645Y-93068216D01*
X141498784Y-93068196D01*
X141413751Y-93074968D01*
G36*
X139970523Y-92852993D02*
G01*
X139949635Y-92856123D01*
X139934731Y-92863241D01*
X139920500Y-92875748D01*
X139910504Y-92886522D01*
X139903726Y-92897518D01*
X139899417Y-92912269D01*
X139896827Y-92934313D01*
X139895209Y-92967183D01*
X139894216Y-92999869D01*
X139891407Y-93100537D01*
X139765248Y-93103417D01*
X139639088Y-93106296D01*
X139611423Y-93133975D01*
X139596205Y-93150687D01*
X139587895Y-93166177D01*
X139584432Y-93186578D01*
X139583757Y-93216363D01*
X139584509Y-93247207D01*
X139588138Y-93267271D01*
X139596703Y-93282687D01*
X139611423Y-93298750D01*
X139639088Y-93326429D01*
X139765939Y-93329322D01*
X139892791Y-93332216D01*
X139892743Y-93549456D01*
X139892459Y-93625732D01*
X139891481Y-93686939D01*
X139889563Y-93734937D01*
X139886460Y-93771582D01*
X139881928Y-93798735D01*
X139875721Y-93818254D01*
X139867595Y-93831997D01*
X139857304Y-93841823D01*
X139853887Y-93844201D01*
X139832287Y-93852011D01*
X139804581Y-93849777D01*
X139768371Y-93837035D01*
X139736157Y-93821338D01*
X139707216Y-93809989D01*
X139672092Y-93801330D01*
X139655271Y-93798911D01*
X139626496Y-93797118D01*
X139607601Y-93799886D01*
X139591793Y-93808804D01*
X139583304Y-93815738D01*
X139570838Y-93827504D01*
X139563410Y-93839376D01*
X139559721Y-93855998D01*
X139558474Y-93882016D01*
X139558357Y-93904981D01*
X139558922Y-93940103D01*
X139561369Y-93963142D01*
X139566825Y-93978932D01*
X139576416Y-93992305D01*
X139579524Y-93995764D01*
X139607872Y-94019196D01*
X139646595Y-94038084D01*
X139698068Y-94053395D01*
X139744093Y-94062700D01*
X139784337Y-94069438D01*
X139813668Y-94073135D01*
X139837805Y-94073924D01*
X139862470Y-94071936D01*
X139893382Y-94067304D01*
X139899536Y-94066285D01*
X139951178Y-94053216D01*
X139994208Y-94031000D01*
X140031072Y-94000713D01*
X140052059Y-93979485D01*
X140069255Y-93958230D01*
X140083070Y-93935004D01*
X140093913Y-93907863D01*
X140102195Y-93874864D01*
X140108326Y-93834062D01*
X140112715Y-93783514D01*
X140115773Y-93721274D01*
X140117910Y-93645400D01*
X140119072Y-93583517D01*
X140123199Y-93332604D01*
X140163133Y-93327307D01*
X140197774Y-93318258D01*
X140224543Y-93299484D01*
X140227846Y-93296147D01*
X140241669Y-93279800D01*
X140249141Y-93263483D01*
X140252153Y-93241075D01*
X140252624Y-93215969D01*
X140251810Y-93185036D01*
X140248070Y-93164948D01*
X140239453Y-93149644D01*
X140226871Y-93135902D01*
X140202967Y-93117363D01*
X140174058Y-93107512D01*
X140157705Y-93105008D01*
X140114292Y-93099866D01*
X140111491Y-92999533D01*
X140110109Y-92956659D01*
X140108293Y-92927171D01*
X140105292Y-92907526D01*
X140100354Y-92894180D01*
X140092725Y-92883588D01*
X140085215Y-92875748D01*
X140070850Y-92863148D01*
X140055914Y-92856076D01*
X140034942Y-92852977D01*
X140002857Y-92852296D01*
X139970523Y-92852993D01*
G37*
X139970523Y-92852993D02*
X139949635Y-92856123D01*
X139934731Y-92863241D01*
X139920500Y-92875748D01*
X139910504Y-92886522D01*
X139903726Y-92897518D01*
X139899417Y-92912269D01*
X139896827Y-92934313D01*
X139895209Y-92967183D01*
X139894216Y-92999869D01*
X139891407Y-93100537D01*
X139765248Y-93103417D01*
X139639088Y-93106296D01*
X139611423Y-93133975D01*
X139596205Y-93150687D01*
X139587895Y-93166177D01*
X139584432Y-93186578D01*
X139583757Y-93216363D01*
X139584509Y-93247207D01*
X139588138Y-93267271D01*
X139596703Y-93282687D01*
X139611423Y-93298750D01*
X139639088Y-93326429D01*
X139765939Y-93329322D01*
X139892791Y-93332216D01*
X139892743Y-93549456D01*
X139892459Y-93625732D01*
X139891481Y-93686939D01*
X139889563Y-93734937D01*
X139886460Y-93771582D01*
X139881928Y-93798735D01*
X139875721Y-93818254D01*
X139867595Y-93831997D01*
X139857304Y-93841823D01*
X139853887Y-93844201D01*
X139832287Y-93852011D01*
X139804581Y-93849777D01*
X139768371Y-93837035D01*
X139736157Y-93821338D01*
X139707216Y-93809989D01*
X139672092Y-93801330D01*
X139655271Y-93798911D01*
X139626496Y-93797118D01*
X139607601Y-93799886D01*
X139591793Y-93808804D01*
X139583304Y-93815738D01*
X139570838Y-93827504D01*
X139563410Y-93839376D01*
X139559721Y-93855998D01*
X139558474Y-93882016D01*
X139558357Y-93904981D01*
X139558922Y-93940103D01*
X139561369Y-93963142D01*
X139566825Y-93978932D01*
X139576416Y-93992305D01*
X139579524Y-93995764D01*
X139607872Y-94019196D01*
X139646595Y-94038084D01*
X139698068Y-94053395D01*
X139744093Y-94062700D01*
X139784337Y-94069438D01*
X139813668Y-94073135D01*
X139837805Y-94073924D01*
X139862470Y-94071936D01*
X139893382Y-94067304D01*
X139899536Y-94066285D01*
X139951178Y-94053216D01*
X139994208Y-94031000D01*
X140031072Y-94000713D01*
X140052059Y-93979485D01*
X140069255Y-93958230D01*
X140083070Y-93935004D01*
X140093913Y-93907863D01*
X140102195Y-93874864D01*
X140108326Y-93834062D01*
X140112715Y-93783514D01*
X140115773Y-93721274D01*
X140117910Y-93645400D01*
X140119072Y-93583517D01*
X140123199Y-93332604D01*
X140163133Y-93327307D01*
X140197774Y-93318258D01*
X140224543Y-93299484D01*
X140227846Y-93296147D01*
X140241669Y-93279800D01*
X140249141Y-93263483D01*
X140252153Y-93241075D01*
X140252624Y-93215969D01*
X140251810Y-93185036D01*
X140248070Y-93164948D01*
X140239453Y-93149644D01*
X140226871Y-93135902D01*
X140202967Y-93117363D01*
X140174058Y-93107512D01*
X140157705Y-93105008D01*
X140114292Y-93099866D01*
X140111491Y-92999533D01*
X140110109Y-92956659D01*
X140108293Y-92927171D01*
X140105292Y-92907526D01*
X140100354Y-92894180D01*
X140092725Y-92883588D01*
X140085215Y-92875748D01*
X140070850Y-92863148D01*
X140055914Y-92856076D01*
X140034942Y-92852977D01*
X140002857Y-92852296D01*
X139970523Y-92852993D01*
G36*
X142209810Y-93084872D02*
G01*
X142140250Y-93110263D01*
X142082183Y-93147750D01*
X142035082Y-93197695D01*
X141998422Y-93260459D01*
X141991118Y-93277472D01*
X141986164Y-93290166D01*
X141982100Y-93302511D01*
X141978824Y-93316289D01*
X141976234Y-93333280D01*
X141974226Y-93355267D01*
X141972698Y-93384030D01*
X141971548Y-93421350D01*
X141970672Y-93469009D01*
X141969968Y-93528789D01*
X141969333Y-93602469D01*
X141968874Y-93663460D01*
X141966391Y-94000490D01*
X141995544Y-94029643D01*
X142014440Y-94046705D01*
X142031645Y-94055410D01*
X142054392Y-94058499D01*
X142072531Y-94058796D01*
X142105619Y-94056306D01*
X142135067Y-94049885D01*
X142146011Y-94045533D01*
X142158435Y-94038430D01*
X142168600Y-94030105D01*
X142176731Y-94018898D01*
X142183055Y-94003144D01*
X142187798Y-93981180D01*
X142191186Y-93951345D01*
X142193445Y-93911975D01*
X142194801Y-93861408D01*
X142195480Y-93797980D01*
X142195708Y-93720028D01*
X142195724Y-93679862D01*
X142195753Y-93601347D01*
X142195913Y-93537890D01*
X142196310Y-93487616D01*
X142197053Y-93448649D01*
X142198249Y-93419113D01*
X142200004Y-93397134D01*
X142202427Y-93380836D01*
X142205625Y-93368343D01*
X142209705Y-93357780D01*
X142214774Y-93347273D01*
X142231267Y-93320756D01*
X142250849Y-93304940D01*
X142267999Y-93297680D01*
X142313902Y-93290295D01*
X142362052Y-93297236D01*
X142408636Y-93317016D01*
X142449840Y-93348149D01*
X142475124Y-93378364D01*
X142496290Y-93409810D01*
X142500524Y-93709609D01*
X142504757Y-94009409D01*
X142532407Y-94034102D01*
X142552105Y-94049139D01*
X142572106Y-94056526D01*
X142599921Y-94058751D01*
X142606911Y-94058796D01*
X142639090Y-94056313D01*
X142668197Y-94049961D01*
X142679411Y-94045533D01*
X142691872Y-94038401D01*
X142702060Y-94030033D01*
X142710203Y-94018759D01*
X142716529Y-94002913D01*
X142721266Y-93980823D01*
X142724643Y-93950823D01*
X142726887Y-93911241D01*
X142728228Y-93860411D01*
X142728893Y-93796662D01*
X142729111Y-93718325D01*
X142729124Y-93682029D01*
X142729203Y-93598969D01*
X142729583Y-93531060D01*
X142730481Y-93476517D01*
X142732113Y-93433558D01*
X142734695Y-93400400D01*
X142738443Y-93375259D01*
X142743574Y-93356353D01*
X142750302Y-93341898D01*
X142758845Y-93330111D01*
X142769419Y-93319210D01*
X142773566Y-93315341D01*
X142800658Y-93299429D01*
X142840245Y-93291256D01*
X142840274Y-93291253D01*
X142869800Y-93289888D01*
X142893836Y-93293976D01*
X142920745Y-93305312D01*
X142931413Y-93310808D01*
X142961879Y-93330171D01*
X142990327Y-93353606D01*
X143003380Y-93367413D01*
X143029691Y-93399931D01*
X143038157Y-94009411D01*
X143065807Y-94034103D01*
X143084923Y-94048825D01*
X143104168Y-94056235D01*
X143130735Y-94058661D01*
X143142007Y-94058764D01*
X143186501Y-94054455D01*
X143217613Y-94042236D01*
X143243674Y-94016798D01*
X143254058Y-93993584D01*
X143256506Y-93977539D01*
X143258456Y-93947565D01*
X143259916Y-93903179D01*
X143260894Y-93843896D01*
X143261396Y-93769232D01*
X143261430Y-93678702D01*
X143261004Y-93571823D01*
X143260869Y-93549229D01*
X143258291Y-93137029D01*
X143233738Y-93111408D01*
X143206171Y-93092152D01*
X143171686Y-93081383D01*
X143135071Y-93079121D01*
X143101116Y-93085387D01*
X143074607Y-93100203D01*
X143065738Y-93110669D01*
X143058691Y-93119883D01*
X143050145Y-93121405D01*
X143034603Y-93115121D01*
X143024012Y-93109792D01*
X142953561Y-93083076D01*
X142879336Y-93071985D01*
X142803594Y-93076323D01*
X142728590Y-93095893D01*
X142656582Y-93130496D01*
X142635988Y-93143719D01*
X142610105Y-93160977D01*
X142594147Y-93169602D01*
X142584197Y-93170714D01*
X142576335Y-93165432D01*
X142572866Y-93161744D01*
X142541710Y-93136443D01*
X142498127Y-93113315D01*
X142446605Y-93093805D01*
X142391633Y-93079356D01*
X142337702Y-93071412D01*
X142291390Y-93071217D01*
X142209810Y-93084872D01*
G37*
X142209810Y-93084872D02*
X142140250Y-93110263D01*
X142082183Y-93147750D01*
X142035082Y-93197695D01*
X141998422Y-93260459D01*
X141991118Y-93277472D01*
X141986164Y-93290166D01*
X141982100Y-93302511D01*
X141978824Y-93316289D01*
X141976234Y-93333280D01*
X141974226Y-93355267D01*
X141972698Y-93384030D01*
X141971548Y-93421350D01*
X141970672Y-93469009D01*
X141969968Y-93528789D01*
X141969333Y-93602469D01*
X141968874Y-93663460D01*
X141966391Y-94000490D01*
X141995544Y-94029643D01*
X142014440Y-94046705D01*
X142031645Y-94055410D01*
X142054392Y-94058499D01*
X142072531Y-94058796D01*
X142105619Y-94056306D01*
X142135067Y-94049885D01*
X142146011Y-94045533D01*
X142158435Y-94038430D01*
X142168600Y-94030105D01*
X142176731Y-94018898D01*
X142183055Y-94003144D01*
X142187798Y-93981180D01*
X142191186Y-93951345D01*
X142193445Y-93911975D01*
X142194801Y-93861408D01*
X142195480Y-93797980D01*
X142195708Y-93720028D01*
X142195724Y-93679862D01*
X142195753Y-93601347D01*
X142195913Y-93537890D01*
X142196310Y-93487616D01*
X142197053Y-93448649D01*
X142198249Y-93419113D01*
X142200004Y-93397134D01*
X142202427Y-93380836D01*
X142205625Y-93368343D01*
X142209705Y-93357780D01*
X142214774Y-93347273D01*
X142231267Y-93320756D01*
X142250849Y-93304940D01*
X142267999Y-93297680D01*
X142313902Y-93290295D01*
X142362052Y-93297236D01*
X142408636Y-93317016D01*
X142449840Y-93348149D01*
X142475124Y-93378364D01*
X142496290Y-93409810D01*
X142500524Y-93709609D01*
X142504757Y-94009409D01*
X142532407Y-94034102D01*
X142552105Y-94049139D01*
X142572106Y-94056526D01*
X142599921Y-94058751D01*
X142606911Y-94058796D01*
X142639090Y-94056313D01*
X142668197Y-94049961D01*
X142679411Y-94045533D01*
X142691872Y-94038401D01*
X142702060Y-94030033D01*
X142710203Y-94018759D01*
X142716529Y-94002913D01*
X142721266Y-93980823D01*
X142724643Y-93950823D01*
X142726887Y-93911241D01*
X142728228Y-93860411D01*
X142728893Y-93796662D01*
X142729111Y-93718325D01*
X142729124Y-93682029D01*
X142729203Y-93598969D01*
X142729583Y-93531060D01*
X142730481Y-93476517D01*
X142732113Y-93433558D01*
X142734695Y-93400400D01*
X142738443Y-93375259D01*
X142743574Y-93356353D01*
X142750302Y-93341898D01*
X142758845Y-93330111D01*
X142769419Y-93319210D01*
X142773566Y-93315341D01*
X142800658Y-93299429D01*
X142840245Y-93291256D01*
X142840274Y-93291253D01*
X142869800Y-93289888D01*
X142893836Y-93293976D01*
X142920745Y-93305312D01*
X142931413Y-93310808D01*
X142961879Y-93330171D01*
X142990327Y-93353606D01*
X143003380Y-93367413D01*
X143029691Y-93399931D01*
X143038157Y-94009411D01*
X143065807Y-94034103D01*
X143084923Y-94048825D01*
X143104168Y-94056235D01*
X143130735Y-94058661D01*
X143142007Y-94058764D01*
X143186501Y-94054455D01*
X143217613Y-94042236D01*
X143243674Y-94016798D01*
X143254058Y-93993584D01*
X143256506Y-93977539D01*
X143258456Y-93947565D01*
X143259916Y-93903179D01*
X143260894Y-93843896D01*
X143261396Y-93769232D01*
X143261430Y-93678702D01*
X143261004Y-93571823D01*
X143260869Y-93549229D01*
X143258291Y-93137029D01*
X143233738Y-93111408D01*
X143206171Y-93092152D01*
X143171686Y-93081383D01*
X143135071Y-93079121D01*
X143101116Y-93085387D01*
X143074607Y-93100203D01*
X143065738Y-93110669D01*
X143058691Y-93119883D01*
X143050145Y-93121405D01*
X143034603Y-93115121D01*
X143024012Y-93109792D01*
X142953561Y-93083076D01*
X142879336Y-93071985D01*
X142803594Y-93076323D01*
X142728590Y-93095893D01*
X142656582Y-93130496D01*
X142635988Y-93143719D01*
X142610105Y-93160977D01*
X142594147Y-93169602D01*
X142584197Y-93170714D01*
X142576335Y-93165432D01*
X142572866Y-93161744D01*
X142541710Y-93136443D01*
X142498127Y-93113315D01*
X142446605Y-93093805D01*
X142391633Y-93079356D01*
X142337702Y-93071412D01*
X142291390Y-93071217D01*
X142209810Y-93084872D01*
G36*
X140566099Y-93076265D02*
G01*
X140480748Y-93096858D01*
X140417724Y-93123536D01*
X140363501Y-93159035D01*
X140320262Y-93204868D01*
X140286576Y-93262865D01*
X140266092Y-93317470D01*
X140261381Y-93333643D01*
X140257586Y-93349807D01*
X140254609Y-93367945D01*
X140252350Y-93390040D01*
X140250712Y-93418074D01*
X140249597Y-93454032D01*
X140248906Y-93499895D01*
X140248541Y-93557648D01*
X140248404Y-93629273D01*
X140248391Y-93674726D01*
X140248485Y-93760419D01*
X140248916Y-93830827D01*
X140249905Y-93887599D01*
X140251673Y-93932385D01*
X140254441Y-93966832D01*
X140258429Y-93992590D01*
X140263859Y-94011307D01*
X140270952Y-94024632D01*
X140279928Y-94034214D01*
X140291010Y-94041701D01*
X140298103Y-94045533D01*
X140334128Y-94057080D01*
X140373257Y-94058330D01*
X140411047Y-94050386D01*
X140443059Y-94034350D01*
X140464851Y-94011323D01*
X140468735Y-94003207D01*
X140470852Y-93989211D01*
X140472735Y-93960109D01*
X140474334Y-93917730D01*
X140475600Y-93863900D01*
X140476485Y-93800447D01*
X140476939Y-93729199D01*
X140476991Y-93694729D01*
X140477271Y-93607820D01*
X140478096Y-93533818D01*
X140479442Y-93473547D01*
X140481284Y-93427829D01*
X140483600Y-93397488D01*
X140486021Y-93384130D01*
X140509588Y-93343377D01*
X140544904Y-93314675D01*
X140592092Y-93297952D01*
X140642090Y-93293099D01*
X140706079Y-93300513D01*
X140764530Y-93323306D01*
X140815204Y-93360509D01*
X140827600Y-93373272D01*
X140857990Y-93406911D01*
X140857990Y-93694202D01*
X140858233Y-93768483D01*
X140858927Y-93835788D01*
X140860024Y-93894293D01*
X140861476Y-93942173D01*
X140863233Y-93977607D01*
X140865248Y-93998770D01*
X140866246Y-94003207D01*
X140884132Y-94028226D01*
X140913459Y-94046479D01*
X140949743Y-94056947D01*
X140988497Y-94058612D01*
X141025234Y-94050454D01*
X141040699Y-94042832D01*
X141061737Y-94024805D01*
X141076604Y-94003179D01*
X141076916Y-94002446D01*
X141079382Y-93991608D01*
X141081394Y-93971447D01*
X141082968Y-93940927D01*
X141084123Y-93899016D01*
X141084877Y-93844681D01*
X141085247Y-93776889D01*
X141085253Y-93694606D01*
X141084912Y-93596798D01*
X141084708Y-93557495D01*
X141082357Y-93137029D01*
X141057804Y-93111408D01*
X141029341Y-93091574D01*
X140993958Y-93080861D01*
X140956553Y-93079287D01*
X140922024Y-93086867D01*
X140895270Y-93103619D01*
X140889216Y-93110825D01*
X140882344Y-93119115D01*
X140874111Y-93121919D01*
X140860122Y-93118936D01*
X140835983Y-93109861D01*
X140827806Y-93106589D01*
X140742396Y-93081016D01*
X140654238Y-93070946D01*
X140566099Y-93076265D01*
G37*
X140566099Y-93076265D02*
X140480748Y-93096858D01*
X140417724Y-93123536D01*
X140363501Y-93159035D01*
X140320262Y-93204868D01*
X140286576Y-93262865D01*
X140266092Y-93317470D01*
X140261381Y-93333643D01*
X140257586Y-93349807D01*
X140254609Y-93367945D01*
X140252350Y-93390040D01*
X140250712Y-93418074D01*
X140249597Y-93454032D01*
X140248906Y-93499895D01*
X140248541Y-93557648D01*
X140248404Y-93629273D01*
X140248391Y-93674726D01*
X140248485Y-93760419D01*
X140248916Y-93830827D01*
X140249905Y-93887599D01*
X140251673Y-93932385D01*
X140254441Y-93966832D01*
X140258429Y-93992590D01*
X140263859Y-94011307D01*
X140270952Y-94024632D01*
X140279928Y-94034214D01*
X140291010Y-94041701D01*
X140298103Y-94045533D01*
X140334128Y-94057080D01*
X140373257Y-94058330D01*
X140411047Y-94050386D01*
X140443059Y-94034350D01*
X140464851Y-94011323D01*
X140468735Y-94003207D01*
X140470852Y-93989211D01*
X140472735Y-93960109D01*
X140474334Y-93917730D01*
X140475600Y-93863900D01*
X140476485Y-93800447D01*
X140476939Y-93729199D01*
X140476991Y-93694729D01*
X140477271Y-93607820D01*
X140478096Y-93533818D01*
X140479442Y-93473547D01*
X140481284Y-93427829D01*
X140483600Y-93397488D01*
X140486021Y-93384130D01*
X140509588Y-93343377D01*
X140544904Y-93314675D01*
X140592092Y-93297952D01*
X140642090Y-93293099D01*
X140706079Y-93300513D01*
X140764530Y-93323306D01*
X140815204Y-93360509D01*
X140827600Y-93373272D01*
X140857990Y-93406911D01*
X140857990Y-93694202D01*
X140858233Y-93768483D01*
X140858927Y-93835788D01*
X140860024Y-93894293D01*
X140861476Y-93942173D01*
X140863233Y-93977607D01*
X140865248Y-93998770D01*
X140866246Y-94003207D01*
X140884132Y-94028226D01*
X140913459Y-94046479D01*
X140949743Y-94056947D01*
X140988497Y-94058612D01*
X141025234Y-94050454D01*
X141040699Y-94042832D01*
X141061737Y-94024805D01*
X141076604Y-94003179D01*
X141076916Y-94002446D01*
X141079382Y-93991608D01*
X141081394Y-93971447D01*
X141082968Y-93940927D01*
X141084123Y-93899016D01*
X141084877Y-93844681D01*
X141085247Y-93776889D01*
X141085253Y-93694606D01*
X141084912Y-93596798D01*
X141084708Y-93557495D01*
X141082357Y-93137029D01*
X141057804Y-93111408D01*
X141029341Y-93091574D01*
X140993958Y-93080861D01*
X140956553Y-93079287D01*
X140922024Y-93086867D01*
X140895270Y-93103619D01*
X140889216Y-93110825D01*
X140882344Y-93119115D01*
X140874111Y-93121919D01*
X140860122Y-93118936D01*
X140835983Y-93109861D01*
X140827806Y-93106589D01*
X140742396Y-93081016D01*
X140654238Y-93070946D01*
X140566099Y-93076265D01*
G36*
X138756671Y-93109544D02*
G01*
X138742883Y-93126339D01*
X138735582Y-93141416D01*
X138733186Y-93160764D01*
X138734117Y-93190371D01*
X138734337Y-93194211D01*
X138737600Y-93250229D01*
X139197058Y-93834429D01*
X138985415Y-93838662D01*
X138773772Y-93842896D01*
X138748190Y-93871544D01*
X138734632Y-93887993D01*
X138727310Y-93902735D01*
X138724742Y-93921537D01*
X138725447Y-93950169D01*
X138725895Y-93958371D01*
X138729065Y-93992975D01*
X138734772Y-94015700D01*
X138744464Y-94031568D01*
X138748181Y-94035557D01*
X138767180Y-94054562D01*
X139126357Y-94056942D01*
X139485535Y-94059322D01*
X139511657Y-94035776D01*
X139535084Y-94003606D01*
X139544996Y-93962412D01*
X139542133Y-93919897D01*
X139537402Y-93907945D01*
X139525990Y-93888538D01*
X139507284Y-93860839D01*
X139480668Y-93824012D01*
X139445528Y-93777219D01*
X139401251Y-93719624D01*
X139347222Y-93650390D01*
X139304077Y-93595574D01*
X139071609Y-93301029D01*
X139275515Y-93296796D01*
X139479422Y-93292563D01*
X139499840Y-93268807D01*
X139511603Y-93252042D01*
X139517836Y-93232770D01*
X139520107Y-93204988D01*
X139520257Y-93190624D01*
X139519321Y-93159061D01*
X139515246Y-93138066D01*
X139506129Y-93121321D01*
X139495552Y-93108546D01*
X139470846Y-93080896D01*
X138782268Y-93080896D01*
X138756671Y-93109544D01*
G37*
X138756671Y-93109544D02*
X138742883Y-93126339D01*
X138735582Y-93141416D01*
X138733186Y-93160764D01*
X138734117Y-93190371D01*
X138734337Y-93194211D01*
X138737600Y-93250229D01*
X139197058Y-93834429D01*
X138985415Y-93838662D01*
X138773772Y-93842896D01*
X138748190Y-93871544D01*
X138734632Y-93887993D01*
X138727310Y-93902735D01*
X138724742Y-93921537D01*
X138725447Y-93950169D01*
X138725895Y-93958371D01*
X138729065Y-93992975D01*
X138734772Y-94015700D01*
X138744464Y-94031568D01*
X138748181Y-94035557D01*
X138767180Y-94054562D01*
X139126357Y-94056942D01*
X139485535Y-94059322D01*
X139511657Y-94035776D01*
X139535084Y-94003606D01*
X139544996Y-93962412D01*
X139542133Y-93919897D01*
X139537402Y-93907945D01*
X139525990Y-93888538D01*
X139507284Y-93860839D01*
X139480668Y-93824012D01*
X139445528Y-93777219D01*
X139401251Y-93719624D01*
X139347222Y-93650390D01*
X139304077Y-93595574D01*
X139071609Y-93301029D01*
X139275515Y-93296796D01*
X139479422Y-93292563D01*
X139499840Y-93268807D01*
X139511603Y-93252042D01*
X139517836Y-93232770D01*
X139520107Y-93204988D01*
X139520257Y-93190624D01*
X139519321Y-93159061D01*
X139515246Y-93138066D01*
X139506129Y-93121321D01*
X139495552Y-93108546D01*
X139470846Y-93080896D01*
X138782268Y-93080896D01*
X138756671Y-93109544D01*
G36*
X146397297Y-92848798D02*
G01*
X146373786Y-92850751D01*
X146362089Y-92853543D01*
X146361476Y-92854412D01*
X146368598Y-92859438D01*
X146388707Y-92871681D01*
X146419999Y-92890121D01*
X146460666Y-92913735D01*
X146508903Y-92941501D01*
X146562904Y-92972398D01*
X146620864Y-93005405D01*
X146680977Y-93039499D01*
X146741437Y-93073658D01*
X146800437Y-93106862D01*
X146856173Y-93138087D01*
X146906838Y-93166313D01*
X146950626Y-93190518D01*
X146985732Y-93209679D01*
X147010350Y-93222776D01*
X147022674Y-93228787D01*
X147023638Y-93229063D01*
X147025453Y-93221521D01*
X147025068Y-93202323D01*
X147023926Y-93188846D01*
X147019531Y-93163045D01*
X147013220Y-93144011D01*
X147010149Y-93139376D01*
X147000702Y-93133175D01*
X146978237Y-93119775D01*
X146944536Y-93100201D01*
X146901385Y-93075475D01*
X146850568Y-93046622D01*
X146793869Y-93014665D01*
X146748230Y-92989092D01*
X146495902Y-92848062D01*
X146428613Y-92848062D01*
X146397297Y-92848798D01*
G37*
X146397297Y-92848798D02*
X146373786Y-92850751D01*
X146362089Y-92853543D01*
X146361476Y-92854412D01*
X146368598Y-92859438D01*
X146388707Y-92871681D01*
X146419999Y-92890121D01*
X146460666Y-92913735D01*
X146508903Y-92941501D01*
X146562904Y-92972398D01*
X146620864Y-93005405D01*
X146680977Y-93039499D01*
X146741437Y-93073658D01*
X146800437Y-93106862D01*
X146856173Y-93138087D01*
X146906838Y-93166313D01*
X146950626Y-93190518D01*
X146985732Y-93209679D01*
X147010350Y-93222776D01*
X147022674Y-93228787D01*
X147023638Y-93229063D01*
X147025453Y-93221521D01*
X147025068Y-93202323D01*
X147023926Y-93188846D01*
X147019531Y-93163045D01*
X147013220Y-93144011D01*
X147010149Y-93139376D01*
X147000702Y-93133175D01*
X146978237Y-93119775D01*
X146944536Y-93100201D01*
X146901385Y-93075475D01*
X146850568Y-93046622D01*
X146793869Y-93014665D01*
X146748230Y-92989092D01*
X146495902Y-92848062D01*
X146428613Y-92848062D01*
X146397297Y-92848798D01*
G36*
X145101809Y-92301257D02*
G01*
X145087085Y-92320447D01*
X145068128Y-92346714D01*
X145059405Y-92359209D01*
X145001392Y-92454262D01*
X144949462Y-92561672D01*
X144905205Y-92677472D01*
X144870210Y-92797694D01*
X144853996Y-92872002D01*
X144847063Y-92910029D01*
X144841863Y-92941423D01*
X144838923Y-92962785D01*
X144838686Y-92970674D01*
X144847394Y-92971379D01*
X144871741Y-92972579D01*
X144910442Y-92974224D01*
X144962210Y-92976268D01*
X145025759Y-92978664D01*
X145099805Y-92981364D01*
X145183060Y-92984320D01*
X145274240Y-92987485D01*
X145372058Y-92990812D01*
X145475230Y-92994254D01*
X145506190Y-92995274D01*
X145614280Y-92998844D01*
X145720044Y-93002372D01*
X145821878Y-93005804D01*
X145918174Y-93009082D01*
X146007326Y-93012153D01*
X146087727Y-93014960D01*
X146157770Y-93017446D01*
X146215849Y-93019557D01*
X146260357Y-93021237D01*
X146289687Y-93022430D01*
X146291474Y-93022509D01*
X146334950Y-93023969D01*
X146371285Y-93024254D01*
X146397575Y-93023413D01*
X146410919Y-93021492D01*
X146411995Y-93020536D01*
X146404888Y-93014421D01*
X146385082Y-93001473D01*
X146354731Y-92982994D01*
X146315987Y-92960284D01*
X146271006Y-92934642D01*
X146253245Y-92924690D01*
X146094624Y-92836218D01*
X145777124Y-92825502D01*
X145704785Y-92822960D01*
X145637267Y-92820395D01*
X145576564Y-92817897D01*
X145524668Y-92815557D01*
X145483574Y-92813465D01*
X145455275Y-92811711D01*
X145441766Y-92810384D01*
X145441420Y-92810309D01*
X145425478Y-92799504D01*
X145415191Y-92782497D01*
X145411181Y-92755640D01*
X145412237Y-92717016D01*
X145417792Y-92670826D01*
X145427281Y-92621272D01*
X145440136Y-92572556D01*
X145445872Y-92554885D01*
X145469993Y-92484906D01*
X145293533Y-92386476D01*
X145243812Y-92359091D01*
X145198896Y-92335018D01*
X145160910Y-92315342D01*
X145131981Y-92301149D01*
X145114235Y-92293523D01*
X145109675Y-92292619D01*
X145101809Y-92301257D01*
G37*
X145101809Y-92301257D02*
X145087085Y-92320447D01*
X145068128Y-92346714D01*
X145059405Y-92359209D01*
X145001392Y-92454262D01*
X144949462Y-92561672D01*
X144905205Y-92677472D01*
X144870210Y-92797694D01*
X144853996Y-92872002D01*
X144847063Y-92910029D01*
X144841863Y-92941423D01*
X144838923Y-92962785D01*
X144838686Y-92970674D01*
X144847394Y-92971379D01*
X144871741Y-92972579D01*
X144910442Y-92974224D01*
X144962210Y-92976268D01*
X145025759Y-92978664D01*
X145099805Y-92981364D01*
X145183060Y-92984320D01*
X145274240Y-92987485D01*
X145372058Y-92990812D01*
X145475230Y-92994254D01*
X145506190Y-92995274D01*
X145614280Y-92998844D01*
X145720044Y-93002372D01*
X145821878Y-93005804D01*
X145918174Y-93009082D01*
X146007326Y-93012153D01*
X146087727Y-93014960D01*
X146157770Y-93017446D01*
X146215849Y-93019557D01*
X146260357Y-93021237D01*
X146289687Y-93022430D01*
X146291474Y-93022509D01*
X146334950Y-93023969D01*
X146371285Y-93024254D01*
X146397575Y-93023413D01*
X146410919Y-93021492D01*
X146411995Y-93020536D01*
X146404888Y-93014421D01*
X146385082Y-93001473D01*
X146354731Y-92982994D01*
X146315987Y-92960284D01*
X146271006Y-92934642D01*
X146253245Y-92924690D01*
X146094624Y-92836218D01*
X145777124Y-92825502D01*
X145704785Y-92822960D01*
X145637267Y-92820395D01*
X145576564Y-92817897D01*
X145524668Y-92815557D01*
X145483574Y-92813465D01*
X145455275Y-92811711D01*
X145441766Y-92810384D01*
X145441420Y-92810309D01*
X145425478Y-92799504D01*
X145415191Y-92782497D01*
X145411181Y-92755640D01*
X145412237Y-92717016D01*
X145417792Y-92670826D01*
X145427281Y-92621272D01*
X145440136Y-92572556D01*
X145445872Y-92554885D01*
X145469993Y-92484906D01*
X145293533Y-92386476D01*
X145243812Y-92359091D01*
X145198896Y-92335018D01*
X145160910Y-92315342D01*
X145131981Y-92301149D01*
X145114235Y-92293523D01*
X145109675Y-92292619D01*
X145101809Y-92301257D01*
G36*
X145706104Y-91960969D02*
G01*
X145670668Y-91963170D01*
X145650124Y-91966504D01*
X145564204Y-91992095D01*
X145492043Y-92015722D01*
X145434321Y-92037130D01*
X145391714Y-92056061D01*
X145364901Y-92072258D01*
X145360452Y-92076135D01*
X145365673Y-92081809D01*
X145383693Y-92094322D01*
X145412450Y-92112393D01*
X145449884Y-92134740D01*
X145493933Y-92160083D01*
X145510260Y-92169271D01*
X145666107Y-92256489D01*
X145727965Y-92226927D01*
X145815976Y-92193721D01*
X145907231Y-92175752D01*
X145999513Y-92172699D01*
X146090601Y-92184242D01*
X146178278Y-92210063D01*
X146260323Y-92249840D01*
X146334517Y-92303255D01*
X146349188Y-92316451D01*
X146414073Y-92387400D01*
X146471512Y-92470711D01*
X146519450Y-92562693D01*
X146555834Y-92659655D01*
X146570038Y-92713161D01*
X146583185Y-92771376D01*
X146782808Y-92883803D01*
X146844439Y-92918506D01*
X146892899Y-92945744D01*
X146929769Y-92966359D01*
X146956636Y-92981195D01*
X146975080Y-92991093D01*
X146986687Y-92996897D01*
X146993040Y-92999449D01*
X146995722Y-92999592D01*
X146996316Y-92998169D01*
X146996324Y-92997426D01*
X146994006Y-92988049D01*
X146987694Y-92965813D01*
X146978355Y-92934048D01*
X146967021Y-92896306D01*
X146913225Y-92746001D01*
X146846022Y-92605483D01*
X146765709Y-92475243D01*
X146672584Y-92355773D01*
X146584424Y-92263863D01*
X146484693Y-92178800D01*
X146379392Y-92108195D01*
X146266455Y-92050967D01*
X146143813Y-92006032D01*
X146039591Y-91978712D01*
X146007488Y-91973399D01*
X145964327Y-91968828D01*
X145913635Y-91965109D01*
X145858939Y-91962353D01*
X145803767Y-91960670D01*
X145751646Y-91960172D01*
X145706104Y-91960969D01*
G37*
X145706104Y-91960969D02*
X145670668Y-91963170D01*
X145650124Y-91966504D01*
X145564204Y-91992095D01*
X145492043Y-92015722D01*
X145434321Y-92037130D01*
X145391714Y-92056061D01*
X145364901Y-92072258D01*
X145360452Y-92076135D01*
X145365673Y-92081809D01*
X145383693Y-92094322D01*
X145412450Y-92112393D01*
X145449884Y-92134740D01*
X145493933Y-92160083D01*
X145510260Y-92169271D01*
X145666107Y-92256489D01*
X145727965Y-92226927D01*
X145815976Y-92193721D01*
X145907231Y-92175752D01*
X145999513Y-92172699D01*
X146090601Y-92184242D01*
X146178278Y-92210063D01*
X146260323Y-92249840D01*
X146334517Y-92303255D01*
X146349188Y-92316451D01*
X146414073Y-92387400D01*
X146471512Y-92470711D01*
X146519450Y-92562693D01*
X146555834Y-92659655D01*
X146570038Y-92713161D01*
X146583185Y-92771376D01*
X146782808Y-92883803D01*
X146844439Y-92918506D01*
X146892899Y-92945744D01*
X146929769Y-92966359D01*
X146956636Y-92981195D01*
X146975080Y-92991093D01*
X146986687Y-92996897D01*
X146993040Y-92999449D01*
X146995722Y-92999592D01*
X146996316Y-92998169D01*
X146996324Y-92997426D01*
X146994006Y-92988049D01*
X146987694Y-92965813D01*
X146978355Y-92934048D01*
X146967021Y-92896306D01*
X146913225Y-92746001D01*
X146846022Y-92605483D01*
X146765709Y-92475243D01*
X146672584Y-92355773D01*
X146584424Y-92263863D01*
X146484693Y-92178800D01*
X146379392Y-92108195D01*
X146266455Y-92050967D01*
X146143813Y-92006032D01*
X146039591Y-91978712D01*
X146007488Y-91973399D01*
X145964327Y-91968828D01*
X145913635Y-91965109D01*
X145858939Y-91962353D01*
X145803767Y-91960670D01*
X145751646Y-91960172D01*
X145706104Y-91960969D01*
G36*
X145243516Y-92158762D02*
G01*
X145226595Y-92171269D01*
X145218539Y-92177821D01*
X145189760Y-92201847D01*
X145278125Y-92251318D01*
X145323618Y-92276866D01*
X145373945Y-92305254D01*
X145421544Y-92332212D01*
X145445478Y-92345826D01*
X145477805Y-92364160D01*
X145504121Y-92378898D01*
X145521324Y-92388317D01*
X145526444Y-92390862D01*
X145532927Y-92385373D01*
X145546804Y-92371614D01*
X145552811Y-92365407D01*
X145568306Y-92345835D01*
X145569990Y-92333311D01*
X145568334Y-92331086D01*
X145558650Y-92324508D01*
X145537104Y-92311496D01*
X145506382Y-92293559D01*
X145469171Y-92272206D01*
X145428156Y-92248946D01*
X145386024Y-92225289D01*
X145345461Y-92202744D01*
X145309152Y-92182820D01*
X145279785Y-92167025D01*
X145260044Y-92156870D01*
X145252779Y-92153796D01*
X145243516Y-92158762D01*
G37*
X145243516Y-92158762D02*
X145226595Y-92171269D01*
X145218539Y-92177821D01*
X145189760Y-92201847D01*
X145278125Y-92251318D01*
X145323618Y-92276866D01*
X145373945Y-92305254D01*
X145421544Y-92332212D01*
X145445478Y-92345826D01*
X145477805Y-92364160D01*
X145504121Y-92378898D01*
X145521324Y-92388317D01*
X145526444Y-92390862D01*
X145532927Y-92385373D01*
X145546804Y-92371614D01*
X145552811Y-92365407D01*
X145568306Y-92345835D01*
X145569990Y-92333311D01*
X145568334Y-92331086D01*
X145558650Y-92324508D01*
X145537104Y-92311496D01*
X145506382Y-92293559D01*
X145469171Y-92272206D01*
X145428156Y-92248946D01*
X145386024Y-92225289D01*
X145345461Y-92202744D01*
X145309152Y-92182820D01*
X145279785Y-92167025D01*
X145260044Y-92156870D01*
X145252779Y-92153796D01*
X145243516Y-92158762D01*
D11*
%TO.C,R1*%
X141045000Y-87810078D02*
X141045000Y-87292922D01*
X139625000Y-87810078D02*
X139625000Y-87292922D01*
D12*
X140787380Y-84542333D02*
X140311190Y-84209000D01*
X140787380Y-83970904D02*
X139787380Y-83970904D01*
X139787380Y-84351857D01*
X139835000Y-84447095D01*
X139882619Y-84494714D01*
X139977857Y-84542333D01*
X140120714Y-84542333D01*
X140215952Y-84494714D01*
X140263571Y-84447095D01*
X140311190Y-84351857D01*
X140311190Y-83970904D01*
X140787380Y-85494714D02*
X140787380Y-84923285D01*
X140787380Y-85209000D02*
X139787380Y-85209000D01*
X139930238Y-85113761D01*
X140025476Y-85018523D01*
X140073095Y-84923285D01*
%TD*%
M02*
