G04 #@! TF.GenerationSoftware,KiCad,Pcbnew,5.1.5-52549c5~86~ubuntu16.04.1*
G04 #@! TF.CreationDate,2020-11-24T20:56:35+05:30*
G04 #@! TF.ProjectId,DC-DC 12V to 3.3V 5V Multi Output Voltage Conversion V1.0,44432d44-4320-4313-9256-20746f20332e,V1.0*
G04 #@! TF.SameCoordinates,Original*
G04 #@! TF.FileFunction,Copper,L1,Top*
G04 #@! TF.FilePolarity,Positive*
%FSLAX46Y46*%
G04 Gerber Fmt 4.6, Leading zero omitted, Abs format (unit mm)*
G04 Created by KiCad (PCBNEW 5.1.5-52549c5~86~ubuntu16.04.1) date 2020-11-24 20:56:35*
%MOMM*%
%LPD*%
G04 APERTURE LIST*
%ADD10C,0.100000*%
%ADD11R,3.500000X3.500000*%
%ADD12C,1.400000*%
%ADD13R,1.500000X2.000000*%
%ADD14R,3.800000X2.000000*%
%ADD15O,1.700000X1.700000*%
%ADD16R,1.700000X1.700000*%
%ADD17C,0.800000*%
%ADD18C,1.000000*%
%ADD19C,2.000000*%
%ADD20C,0.500000*%
%ADD21C,0.254000*%
G04 APERTURE END LIST*
G04 #@! TA.AperFunction,ComponentPad*
D10*
G36*
X154557365Y-76917013D02*
G01*
X154642304Y-76929613D01*
X154725599Y-76950477D01*
X154806448Y-76979405D01*
X154884072Y-77016119D01*
X154957724Y-77060264D01*
X155026694Y-77111416D01*
X155090318Y-77169082D01*
X155147984Y-77232706D01*
X155199136Y-77301676D01*
X155243281Y-77375328D01*
X155279995Y-77452952D01*
X155308923Y-77533801D01*
X155329787Y-77617096D01*
X155342387Y-77702035D01*
X155346600Y-77787800D01*
X155346600Y-79537800D01*
X155342387Y-79623565D01*
X155329787Y-79708504D01*
X155308923Y-79791799D01*
X155279995Y-79872648D01*
X155243281Y-79950272D01*
X155199136Y-80023924D01*
X155147984Y-80092894D01*
X155090318Y-80156518D01*
X155026694Y-80214184D01*
X154957724Y-80265336D01*
X154884072Y-80309481D01*
X154806448Y-80346195D01*
X154725599Y-80375123D01*
X154642304Y-80395987D01*
X154557365Y-80408587D01*
X154471600Y-80412800D01*
X152721600Y-80412800D01*
X152635835Y-80408587D01*
X152550896Y-80395987D01*
X152467601Y-80375123D01*
X152386752Y-80346195D01*
X152309128Y-80309481D01*
X152235476Y-80265336D01*
X152166506Y-80214184D01*
X152102882Y-80156518D01*
X152045216Y-80092894D01*
X151994064Y-80023924D01*
X151949919Y-79950272D01*
X151913205Y-79872648D01*
X151884277Y-79791799D01*
X151863413Y-79708504D01*
X151850813Y-79623565D01*
X151846600Y-79537800D01*
X151846600Y-77787800D01*
X151850813Y-77702035D01*
X151863413Y-77617096D01*
X151884277Y-77533801D01*
X151913205Y-77452952D01*
X151949919Y-77375328D01*
X151994064Y-77301676D01*
X152045216Y-77232706D01*
X152102882Y-77169082D01*
X152166506Y-77111416D01*
X152235476Y-77060264D01*
X152309128Y-77016119D01*
X152386752Y-76979405D01*
X152467601Y-76950477D01*
X152550896Y-76929613D01*
X152635835Y-76917013D01*
X152721600Y-76912800D01*
X154471600Y-76912800D01*
X154557365Y-76917013D01*
G37*
G04 #@! TD.AperFunction*
G04 #@! TA.AperFunction,ComponentPad*
G36*
X157420113Y-81616411D02*
G01*
X157492918Y-81627211D01*
X157564314Y-81645095D01*
X157633613Y-81669890D01*
X157700148Y-81701359D01*
X157763278Y-81739198D01*
X157822395Y-81783042D01*
X157876930Y-81832470D01*
X157926358Y-81887005D01*
X157970202Y-81946122D01*
X158008041Y-82009252D01*
X158039510Y-82075787D01*
X158064305Y-82145086D01*
X158082189Y-82216482D01*
X158092989Y-82289287D01*
X158096600Y-82362800D01*
X158096600Y-84362800D01*
X158092989Y-84436313D01*
X158082189Y-84509118D01*
X158064305Y-84580514D01*
X158039510Y-84649813D01*
X158008041Y-84716348D01*
X157970202Y-84779478D01*
X157926358Y-84838595D01*
X157876930Y-84893130D01*
X157822395Y-84942558D01*
X157763278Y-84986402D01*
X157700148Y-85024241D01*
X157633613Y-85055710D01*
X157564314Y-85080505D01*
X157492918Y-85098389D01*
X157420113Y-85109189D01*
X157346600Y-85112800D01*
X155846600Y-85112800D01*
X155773087Y-85109189D01*
X155700282Y-85098389D01*
X155628886Y-85080505D01*
X155559587Y-85055710D01*
X155493052Y-85024241D01*
X155429922Y-84986402D01*
X155370805Y-84942558D01*
X155316270Y-84893130D01*
X155266842Y-84838595D01*
X155222998Y-84779478D01*
X155185159Y-84716348D01*
X155153690Y-84649813D01*
X155128895Y-84580514D01*
X155111011Y-84509118D01*
X155100211Y-84436313D01*
X155096600Y-84362800D01*
X155096600Y-82362800D01*
X155100211Y-82289287D01*
X155111011Y-82216482D01*
X155128895Y-82145086D01*
X155153690Y-82075787D01*
X155185159Y-82009252D01*
X155222998Y-81946122D01*
X155266842Y-81887005D01*
X155316270Y-81832470D01*
X155370805Y-81783042D01*
X155429922Y-81739198D01*
X155493052Y-81701359D01*
X155559587Y-81669890D01*
X155628886Y-81645095D01*
X155700282Y-81627211D01*
X155773087Y-81616411D01*
X155846600Y-81612800D01*
X157346600Y-81612800D01*
X157420113Y-81616411D01*
G37*
G04 #@! TD.AperFunction*
D11*
X150596600Y-83362800D03*
D12*
X157536400Y-95728800D03*
X157536400Y-93228800D03*
X157536400Y-90728800D03*
X151536400Y-95728800D03*
X151536400Y-93228800D03*
X151536400Y-90728800D03*
D13*
X141972000Y-91973800D03*
X146572000Y-91973800D03*
X144272000Y-91973800D03*
D14*
X144272000Y-85673800D03*
D13*
X132828000Y-91910300D03*
X137428000Y-91910300D03*
X135128000Y-91910300D03*
D14*
X135128000Y-85610300D03*
G04 #@! TA.AperFunction,SMDPad,CuDef*
D10*
G36*
X145326042Y-78422174D02*
G01*
X145349703Y-78425684D01*
X145372907Y-78431496D01*
X145395429Y-78439554D01*
X145417053Y-78449782D01*
X145437570Y-78462079D01*
X145456783Y-78476329D01*
X145474507Y-78492393D01*
X145490571Y-78510117D01*
X145504821Y-78529330D01*
X145517118Y-78549847D01*
X145527346Y-78571471D01*
X145535404Y-78593993D01*
X145541216Y-78617197D01*
X145544726Y-78640858D01*
X145545900Y-78664750D01*
X145545900Y-79577250D01*
X145544726Y-79601142D01*
X145541216Y-79624803D01*
X145535404Y-79648007D01*
X145527346Y-79670529D01*
X145517118Y-79692153D01*
X145504821Y-79712670D01*
X145490571Y-79731883D01*
X145474507Y-79749607D01*
X145456783Y-79765671D01*
X145437570Y-79779921D01*
X145417053Y-79792218D01*
X145395429Y-79802446D01*
X145372907Y-79810504D01*
X145349703Y-79816316D01*
X145326042Y-79819826D01*
X145302150Y-79821000D01*
X144814650Y-79821000D01*
X144790758Y-79819826D01*
X144767097Y-79816316D01*
X144743893Y-79810504D01*
X144721371Y-79802446D01*
X144699747Y-79792218D01*
X144679230Y-79779921D01*
X144660017Y-79765671D01*
X144642293Y-79749607D01*
X144626229Y-79731883D01*
X144611979Y-79712670D01*
X144599682Y-79692153D01*
X144589454Y-79670529D01*
X144581396Y-79648007D01*
X144575584Y-79624803D01*
X144572074Y-79601142D01*
X144570900Y-79577250D01*
X144570900Y-78664750D01*
X144572074Y-78640858D01*
X144575584Y-78617197D01*
X144581396Y-78593993D01*
X144589454Y-78571471D01*
X144599682Y-78549847D01*
X144611979Y-78529330D01*
X144626229Y-78510117D01*
X144642293Y-78492393D01*
X144660017Y-78476329D01*
X144679230Y-78462079D01*
X144699747Y-78449782D01*
X144721371Y-78439554D01*
X144743893Y-78431496D01*
X144767097Y-78425684D01*
X144790758Y-78422174D01*
X144814650Y-78421000D01*
X145302150Y-78421000D01*
X145326042Y-78422174D01*
G37*
G04 #@! TD.AperFunction*
G04 #@! TA.AperFunction,SMDPad,CuDef*
G36*
X143451042Y-78422174D02*
G01*
X143474703Y-78425684D01*
X143497907Y-78431496D01*
X143520429Y-78439554D01*
X143542053Y-78449782D01*
X143562570Y-78462079D01*
X143581783Y-78476329D01*
X143599507Y-78492393D01*
X143615571Y-78510117D01*
X143629821Y-78529330D01*
X143642118Y-78549847D01*
X143652346Y-78571471D01*
X143660404Y-78593993D01*
X143666216Y-78617197D01*
X143669726Y-78640858D01*
X143670900Y-78664750D01*
X143670900Y-79577250D01*
X143669726Y-79601142D01*
X143666216Y-79624803D01*
X143660404Y-79648007D01*
X143652346Y-79670529D01*
X143642118Y-79692153D01*
X143629821Y-79712670D01*
X143615571Y-79731883D01*
X143599507Y-79749607D01*
X143581783Y-79765671D01*
X143562570Y-79779921D01*
X143542053Y-79792218D01*
X143520429Y-79802446D01*
X143497907Y-79810504D01*
X143474703Y-79816316D01*
X143451042Y-79819826D01*
X143427150Y-79821000D01*
X142939650Y-79821000D01*
X142915758Y-79819826D01*
X142892097Y-79816316D01*
X142868893Y-79810504D01*
X142846371Y-79802446D01*
X142824747Y-79792218D01*
X142804230Y-79779921D01*
X142785017Y-79765671D01*
X142767293Y-79749607D01*
X142751229Y-79731883D01*
X142736979Y-79712670D01*
X142724682Y-79692153D01*
X142714454Y-79670529D01*
X142706396Y-79648007D01*
X142700584Y-79624803D01*
X142697074Y-79601142D01*
X142695900Y-79577250D01*
X142695900Y-78664750D01*
X142697074Y-78640858D01*
X142700584Y-78617197D01*
X142706396Y-78593993D01*
X142714454Y-78571471D01*
X142724682Y-78549847D01*
X142736979Y-78529330D01*
X142751229Y-78510117D01*
X142767293Y-78492393D01*
X142785017Y-78476329D01*
X142804230Y-78462079D01*
X142824747Y-78449782D01*
X142846371Y-78439554D01*
X142868893Y-78431496D01*
X142892097Y-78425684D01*
X142915758Y-78422174D01*
X142939650Y-78421000D01*
X143427150Y-78421000D01*
X143451042Y-78422174D01*
G37*
G04 #@! TD.AperFunction*
D15*
X147239000Y-100772300D03*
X147239000Y-103312300D03*
X144699000Y-100772300D03*
X144699000Y-103312300D03*
X142159000Y-100772300D03*
D16*
X142159000Y-103312300D03*
D15*
X137239000Y-100772300D03*
X137239000Y-103312300D03*
X134699000Y-100772300D03*
X134699000Y-103312300D03*
X132159000Y-100772300D03*
D16*
X132159000Y-103312300D03*
D15*
X157239000Y-100772300D03*
X157239000Y-103312300D03*
X154699000Y-100772300D03*
X154699000Y-103312300D03*
X152159000Y-100772300D03*
D16*
X152159000Y-103312300D03*
G04 #@! TA.AperFunction,SMDPad,CuDef*
D10*
G36*
X136326042Y-78434874D02*
G01*
X136349703Y-78438384D01*
X136372907Y-78444196D01*
X136395429Y-78452254D01*
X136417053Y-78462482D01*
X136437570Y-78474779D01*
X136456783Y-78489029D01*
X136474507Y-78505093D01*
X136490571Y-78522817D01*
X136504821Y-78542030D01*
X136517118Y-78562547D01*
X136527346Y-78584171D01*
X136535404Y-78606693D01*
X136541216Y-78629897D01*
X136544726Y-78653558D01*
X136545900Y-78677450D01*
X136545900Y-79589950D01*
X136544726Y-79613842D01*
X136541216Y-79637503D01*
X136535404Y-79660707D01*
X136527346Y-79683229D01*
X136517118Y-79704853D01*
X136504821Y-79725370D01*
X136490571Y-79744583D01*
X136474507Y-79762307D01*
X136456783Y-79778371D01*
X136437570Y-79792621D01*
X136417053Y-79804918D01*
X136395429Y-79815146D01*
X136372907Y-79823204D01*
X136349703Y-79829016D01*
X136326042Y-79832526D01*
X136302150Y-79833700D01*
X135814650Y-79833700D01*
X135790758Y-79832526D01*
X135767097Y-79829016D01*
X135743893Y-79823204D01*
X135721371Y-79815146D01*
X135699747Y-79804918D01*
X135679230Y-79792621D01*
X135660017Y-79778371D01*
X135642293Y-79762307D01*
X135626229Y-79744583D01*
X135611979Y-79725370D01*
X135599682Y-79704853D01*
X135589454Y-79683229D01*
X135581396Y-79660707D01*
X135575584Y-79637503D01*
X135572074Y-79613842D01*
X135570900Y-79589950D01*
X135570900Y-78677450D01*
X135572074Y-78653558D01*
X135575584Y-78629897D01*
X135581396Y-78606693D01*
X135589454Y-78584171D01*
X135599682Y-78562547D01*
X135611979Y-78542030D01*
X135626229Y-78522817D01*
X135642293Y-78505093D01*
X135660017Y-78489029D01*
X135679230Y-78474779D01*
X135699747Y-78462482D01*
X135721371Y-78452254D01*
X135743893Y-78444196D01*
X135767097Y-78438384D01*
X135790758Y-78434874D01*
X135814650Y-78433700D01*
X136302150Y-78433700D01*
X136326042Y-78434874D01*
G37*
G04 #@! TD.AperFunction*
G04 #@! TA.AperFunction,SMDPad,CuDef*
G36*
X134451042Y-78434874D02*
G01*
X134474703Y-78438384D01*
X134497907Y-78444196D01*
X134520429Y-78452254D01*
X134542053Y-78462482D01*
X134562570Y-78474779D01*
X134581783Y-78489029D01*
X134599507Y-78505093D01*
X134615571Y-78522817D01*
X134629821Y-78542030D01*
X134642118Y-78562547D01*
X134652346Y-78584171D01*
X134660404Y-78606693D01*
X134666216Y-78629897D01*
X134669726Y-78653558D01*
X134670900Y-78677450D01*
X134670900Y-79589950D01*
X134669726Y-79613842D01*
X134666216Y-79637503D01*
X134660404Y-79660707D01*
X134652346Y-79683229D01*
X134642118Y-79704853D01*
X134629821Y-79725370D01*
X134615571Y-79744583D01*
X134599507Y-79762307D01*
X134581783Y-79778371D01*
X134562570Y-79792621D01*
X134542053Y-79804918D01*
X134520429Y-79815146D01*
X134497907Y-79823204D01*
X134474703Y-79829016D01*
X134451042Y-79832526D01*
X134427150Y-79833700D01*
X133939650Y-79833700D01*
X133915758Y-79832526D01*
X133892097Y-79829016D01*
X133868893Y-79823204D01*
X133846371Y-79815146D01*
X133824747Y-79804918D01*
X133804230Y-79792621D01*
X133785017Y-79778371D01*
X133767293Y-79762307D01*
X133751229Y-79744583D01*
X133736979Y-79725370D01*
X133724682Y-79704853D01*
X133714454Y-79683229D01*
X133706396Y-79660707D01*
X133700584Y-79637503D01*
X133697074Y-79613842D01*
X133695900Y-79589950D01*
X133695900Y-78677450D01*
X133697074Y-78653558D01*
X133700584Y-78629897D01*
X133706396Y-78606693D01*
X133714454Y-78584171D01*
X133724682Y-78562547D01*
X133736979Y-78542030D01*
X133751229Y-78522817D01*
X133767293Y-78505093D01*
X133785017Y-78489029D01*
X133804230Y-78474779D01*
X133824747Y-78462482D01*
X133846371Y-78452254D01*
X133868893Y-78444196D01*
X133892097Y-78438384D01*
X133915758Y-78434874D01*
X133939650Y-78433700D01*
X134427150Y-78433700D01*
X134451042Y-78434874D01*
G37*
G04 #@! TD.AperFunction*
G04 #@! TA.AperFunction,SMDPad,CuDef*
G36*
X147139742Y-94426674D02*
G01*
X147163403Y-94430184D01*
X147186607Y-94435996D01*
X147209129Y-94444054D01*
X147230753Y-94454282D01*
X147251270Y-94466579D01*
X147270483Y-94480829D01*
X147288207Y-94496893D01*
X147304271Y-94514617D01*
X147318521Y-94533830D01*
X147330818Y-94554347D01*
X147341046Y-94575971D01*
X147349104Y-94598493D01*
X147354916Y-94621697D01*
X147358426Y-94645358D01*
X147359600Y-94669250D01*
X147359600Y-95156750D01*
X147358426Y-95180642D01*
X147354916Y-95204303D01*
X147349104Y-95227507D01*
X147341046Y-95250029D01*
X147330818Y-95271653D01*
X147318521Y-95292170D01*
X147304271Y-95311383D01*
X147288207Y-95329107D01*
X147270483Y-95345171D01*
X147251270Y-95359421D01*
X147230753Y-95371718D01*
X147209129Y-95381946D01*
X147186607Y-95390004D01*
X147163403Y-95395816D01*
X147139742Y-95399326D01*
X147115850Y-95400500D01*
X146203350Y-95400500D01*
X146179458Y-95399326D01*
X146155797Y-95395816D01*
X146132593Y-95390004D01*
X146110071Y-95381946D01*
X146088447Y-95371718D01*
X146067930Y-95359421D01*
X146048717Y-95345171D01*
X146030993Y-95329107D01*
X146014929Y-95311383D01*
X146000679Y-95292170D01*
X145988382Y-95271653D01*
X145978154Y-95250029D01*
X145970096Y-95227507D01*
X145964284Y-95204303D01*
X145960774Y-95180642D01*
X145959600Y-95156750D01*
X145959600Y-94669250D01*
X145960774Y-94645358D01*
X145964284Y-94621697D01*
X145970096Y-94598493D01*
X145978154Y-94575971D01*
X145988382Y-94554347D01*
X146000679Y-94533830D01*
X146014929Y-94514617D01*
X146030993Y-94496893D01*
X146048717Y-94480829D01*
X146067930Y-94466579D01*
X146088447Y-94454282D01*
X146110071Y-94444054D01*
X146132593Y-94435996D01*
X146155797Y-94430184D01*
X146179458Y-94426674D01*
X146203350Y-94425500D01*
X147115850Y-94425500D01*
X147139742Y-94426674D01*
G37*
G04 #@! TD.AperFunction*
G04 #@! TA.AperFunction,SMDPad,CuDef*
G36*
X147139742Y-96301674D02*
G01*
X147163403Y-96305184D01*
X147186607Y-96310996D01*
X147209129Y-96319054D01*
X147230753Y-96329282D01*
X147251270Y-96341579D01*
X147270483Y-96355829D01*
X147288207Y-96371893D01*
X147304271Y-96389617D01*
X147318521Y-96408830D01*
X147330818Y-96429347D01*
X147341046Y-96450971D01*
X147349104Y-96473493D01*
X147354916Y-96496697D01*
X147358426Y-96520358D01*
X147359600Y-96544250D01*
X147359600Y-97031750D01*
X147358426Y-97055642D01*
X147354916Y-97079303D01*
X147349104Y-97102507D01*
X147341046Y-97125029D01*
X147330818Y-97146653D01*
X147318521Y-97167170D01*
X147304271Y-97186383D01*
X147288207Y-97204107D01*
X147270483Y-97220171D01*
X147251270Y-97234421D01*
X147230753Y-97246718D01*
X147209129Y-97256946D01*
X147186607Y-97265004D01*
X147163403Y-97270816D01*
X147139742Y-97274326D01*
X147115850Y-97275500D01*
X146203350Y-97275500D01*
X146179458Y-97274326D01*
X146155797Y-97270816D01*
X146132593Y-97265004D01*
X146110071Y-97256946D01*
X146088447Y-97246718D01*
X146067930Y-97234421D01*
X146048717Y-97220171D01*
X146030993Y-97204107D01*
X146014929Y-97186383D01*
X146000679Y-97167170D01*
X145988382Y-97146653D01*
X145978154Y-97125029D01*
X145970096Y-97102507D01*
X145964284Y-97079303D01*
X145960774Y-97055642D01*
X145959600Y-97031750D01*
X145959600Y-96544250D01*
X145960774Y-96520358D01*
X145964284Y-96496697D01*
X145970096Y-96473493D01*
X145978154Y-96450971D01*
X145988382Y-96429347D01*
X146000679Y-96408830D01*
X146014929Y-96389617D01*
X146030993Y-96371893D01*
X146048717Y-96355829D01*
X146067930Y-96341579D01*
X146088447Y-96329282D01*
X146110071Y-96319054D01*
X146132593Y-96310996D01*
X146155797Y-96305184D01*
X146179458Y-96301674D01*
X146203350Y-96300500D01*
X147115850Y-96300500D01*
X147139742Y-96301674D01*
G37*
G04 #@! TD.AperFunction*
G04 #@! TA.AperFunction,SMDPad,CuDef*
G36*
X142288342Y-94426674D02*
G01*
X142312003Y-94430184D01*
X142335207Y-94435996D01*
X142357729Y-94444054D01*
X142379353Y-94454282D01*
X142399870Y-94466579D01*
X142419083Y-94480829D01*
X142436807Y-94496893D01*
X142452871Y-94514617D01*
X142467121Y-94533830D01*
X142479418Y-94554347D01*
X142489646Y-94575971D01*
X142497704Y-94598493D01*
X142503516Y-94621697D01*
X142507026Y-94645358D01*
X142508200Y-94669250D01*
X142508200Y-95156750D01*
X142507026Y-95180642D01*
X142503516Y-95204303D01*
X142497704Y-95227507D01*
X142489646Y-95250029D01*
X142479418Y-95271653D01*
X142467121Y-95292170D01*
X142452871Y-95311383D01*
X142436807Y-95329107D01*
X142419083Y-95345171D01*
X142399870Y-95359421D01*
X142379353Y-95371718D01*
X142357729Y-95381946D01*
X142335207Y-95390004D01*
X142312003Y-95395816D01*
X142288342Y-95399326D01*
X142264450Y-95400500D01*
X141351950Y-95400500D01*
X141328058Y-95399326D01*
X141304397Y-95395816D01*
X141281193Y-95390004D01*
X141258671Y-95381946D01*
X141237047Y-95371718D01*
X141216530Y-95359421D01*
X141197317Y-95345171D01*
X141179593Y-95329107D01*
X141163529Y-95311383D01*
X141149279Y-95292170D01*
X141136982Y-95271653D01*
X141126754Y-95250029D01*
X141118696Y-95227507D01*
X141112884Y-95204303D01*
X141109374Y-95180642D01*
X141108200Y-95156750D01*
X141108200Y-94669250D01*
X141109374Y-94645358D01*
X141112884Y-94621697D01*
X141118696Y-94598493D01*
X141126754Y-94575971D01*
X141136982Y-94554347D01*
X141149279Y-94533830D01*
X141163529Y-94514617D01*
X141179593Y-94496893D01*
X141197317Y-94480829D01*
X141216530Y-94466579D01*
X141237047Y-94454282D01*
X141258671Y-94444054D01*
X141281193Y-94435996D01*
X141304397Y-94430184D01*
X141328058Y-94426674D01*
X141351950Y-94425500D01*
X142264450Y-94425500D01*
X142288342Y-94426674D01*
G37*
G04 #@! TD.AperFunction*
G04 #@! TA.AperFunction,SMDPad,CuDef*
G36*
X142288342Y-96301674D02*
G01*
X142312003Y-96305184D01*
X142335207Y-96310996D01*
X142357729Y-96319054D01*
X142379353Y-96329282D01*
X142399870Y-96341579D01*
X142419083Y-96355829D01*
X142436807Y-96371893D01*
X142452871Y-96389617D01*
X142467121Y-96408830D01*
X142479418Y-96429347D01*
X142489646Y-96450971D01*
X142497704Y-96473493D01*
X142503516Y-96496697D01*
X142507026Y-96520358D01*
X142508200Y-96544250D01*
X142508200Y-97031750D01*
X142507026Y-97055642D01*
X142503516Y-97079303D01*
X142497704Y-97102507D01*
X142489646Y-97125029D01*
X142479418Y-97146653D01*
X142467121Y-97167170D01*
X142452871Y-97186383D01*
X142436807Y-97204107D01*
X142419083Y-97220171D01*
X142399870Y-97234421D01*
X142379353Y-97246718D01*
X142357729Y-97256946D01*
X142335207Y-97265004D01*
X142312003Y-97270816D01*
X142288342Y-97274326D01*
X142264450Y-97275500D01*
X141351950Y-97275500D01*
X141328058Y-97274326D01*
X141304397Y-97270816D01*
X141281193Y-97265004D01*
X141258671Y-97256946D01*
X141237047Y-97246718D01*
X141216530Y-97234421D01*
X141197317Y-97220171D01*
X141179593Y-97204107D01*
X141163529Y-97186383D01*
X141149279Y-97167170D01*
X141136982Y-97146653D01*
X141126754Y-97125029D01*
X141118696Y-97102507D01*
X141112884Y-97079303D01*
X141109374Y-97055642D01*
X141108200Y-97031750D01*
X141108200Y-96544250D01*
X141109374Y-96520358D01*
X141112884Y-96496697D01*
X141118696Y-96473493D01*
X141126754Y-96450971D01*
X141136982Y-96429347D01*
X141149279Y-96408830D01*
X141163529Y-96389617D01*
X141179593Y-96371893D01*
X141197317Y-96355829D01*
X141216530Y-96341579D01*
X141237047Y-96329282D01*
X141258671Y-96319054D01*
X141281193Y-96310996D01*
X141304397Y-96305184D01*
X141328058Y-96301674D01*
X141351950Y-96300500D01*
X142264450Y-96300500D01*
X142288342Y-96301674D01*
G37*
G04 #@! TD.AperFunction*
G04 #@! TA.AperFunction,SMDPad,CuDef*
G36*
X133157042Y-94426674D02*
G01*
X133180703Y-94430184D01*
X133203907Y-94435996D01*
X133226429Y-94444054D01*
X133248053Y-94454282D01*
X133268570Y-94466579D01*
X133287783Y-94480829D01*
X133305507Y-94496893D01*
X133321571Y-94514617D01*
X133335821Y-94533830D01*
X133348118Y-94554347D01*
X133358346Y-94575971D01*
X133366404Y-94598493D01*
X133372216Y-94621697D01*
X133375726Y-94645358D01*
X133376900Y-94669250D01*
X133376900Y-95156750D01*
X133375726Y-95180642D01*
X133372216Y-95204303D01*
X133366404Y-95227507D01*
X133358346Y-95250029D01*
X133348118Y-95271653D01*
X133335821Y-95292170D01*
X133321571Y-95311383D01*
X133305507Y-95329107D01*
X133287783Y-95345171D01*
X133268570Y-95359421D01*
X133248053Y-95371718D01*
X133226429Y-95381946D01*
X133203907Y-95390004D01*
X133180703Y-95395816D01*
X133157042Y-95399326D01*
X133133150Y-95400500D01*
X132220650Y-95400500D01*
X132196758Y-95399326D01*
X132173097Y-95395816D01*
X132149893Y-95390004D01*
X132127371Y-95381946D01*
X132105747Y-95371718D01*
X132085230Y-95359421D01*
X132066017Y-95345171D01*
X132048293Y-95329107D01*
X132032229Y-95311383D01*
X132017979Y-95292170D01*
X132005682Y-95271653D01*
X131995454Y-95250029D01*
X131987396Y-95227507D01*
X131981584Y-95204303D01*
X131978074Y-95180642D01*
X131976900Y-95156750D01*
X131976900Y-94669250D01*
X131978074Y-94645358D01*
X131981584Y-94621697D01*
X131987396Y-94598493D01*
X131995454Y-94575971D01*
X132005682Y-94554347D01*
X132017979Y-94533830D01*
X132032229Y-94514617D01*
X132048293Y-94496893D01*
X132066017Y-94480829D01*
X132085230Y-94466579D01*
X132105747Y-94454282D01*
X132127371Y-94444054D01*
X132149893Y-94435996D01*
X132173097Y-94430184D01*
X132196758Y-94426674D01*
X132220650Y-94425500D01*
X133133150Y-94425500D01*
X133157042Y-94426674D01*
G37*
G04 #@! TD.AperFunction*
G04 #@! TA.AperFunction,SMDPad,CuDef*
G36*
X133157042Y-96301674D02*
G01*
X133180703Y-96305184D01*
X133203907Y-96310996D01*
X133226429Y-96319054D01*
X133248053Y-96329282D01*
X133268570Y-96341579D01*
X133287783Y-96355829D01*
X133305507Y-96371893D01*
X133321571Y-96389617D01*
X133335821Y-96408830D01*
X133348118Y-96429347D01*
X133358346Y-96450971D01*
X133366404Y-96473493D01*
X133372216Y-96496697D01*
X133375726Y-96520358D01*
X133376900Y-96544250D01*
X133376900Y-97031750D01*
X133375726Y-97055642D01*
X133372216Y-97079303D01*
X133366404Y-97102507D01*
X133358346Y-97125029D01*
X133348118Y-97146653D01*
X133335821Y-97167170D01*
X133321571Y-97186383D01*
X133305507Y-97204107D01*
X133287783Y-97220171D01*
X133268570Y-97234421D01*
X133248053Y-97246718D01*
X133226429Y-97256946D01*
X133203907Y-97265004D01*
X133180703Y-97270816D01*
X133157042Y-97274326D01*
X133133150Y-97275500D01*
X132220650Y-97275500D01*
X132196758Y-97274326D01*
X132173097Y-97270816D01*
X132149893Y-97265004D01*
X132127371Y-97256946D01*
X132105747Y-97246718D01*
X132085230Y-97234421D01*
X132066017Y-97220171D01*
X132048293Y-97204107D01*
X132032229Y-97186383D01*
X132017979Y-97167170D01*
X132005682Y-97146653D01*
X131995454Y-97125029D01*
X131987396Y-97102507D01*
X131981584Y-97079303D01*
X131978074Y-97055642D01*
X131976900Y-97031750D01*
X131976900Y-96544250D01*
X131978074Y-96520358D01*
X131981584Y-96496697D01*
X131987396Y-96473493D01*
X131995454Y-96450971D01*
X132005682Y-96429347D01*
X132017979Y-96408830D01*
X132032229Y-96389617D01*
X132048293Y-96371893D01*
X132066017Y-96355829D01*
X132085230Y-96341579D01*
X132105747Y-96329282D01*
X132127371Y-96319054D01*
X132149893Y-96310996D01*
X132173097Y-96305184D01*
X132196758Y-96301674D01*
X132220650Y-96300500D01*
X133133150Y-96300500D01*
X133157042Y-96301674D01*
G37*
G04 #@! TD.AperFunction*
G04 #@! TA.AperFunction,SMDPad,CuDef*
G36*
X137881442Y-94426674D02*
G01*
X137905103Y-94430184D01*
X137928307Y-94435996D01*
X137950829Y-94444054D01*
X137972453Y-94454282D01*
X137992970Y-94466579D01*
X138012183Y-94480829D01*
X138029907Y-94496893D01*
X138045971Y-94514617D01*
X138060221Y-94533830D01*
X138072518Y-94554347D01*
X138082746Y-94575971D01*
X138090804Y-94598493D01*
X138096616Y-94621697D01*
X138100126Y-94645358D01*
X138101300Y-94669250D01*
X138101300Y-95156750D01*
X138100126Y-95180642D01*
X138096616Y-95204303D01*
X138090804Y-95227507D01*
X138082746Y-95250029D01*
X138072518Y-95271653D01*
X138060221Y-95292170D01*
X138045971Y-95311383D01*
X138029907Y-95329107D01*
X138012183Y-95345171D01*
X137992970Y-95359421D01*
X137972453Y-95371718D01*
X137950829Y-95381946D01*
X137928307Y-95390004D01*
X137905103Y-95395816D01*
X137881442Y-95399326D01*
X137857550Y-95400500D01*
X136945050Y-95400500D01*
X136921158Y-95399326D01*
X136897497Y-95395816D01*
X136874293Y-95390004D01*
X136851771Y-95381946D01*
X136830147Y-95371718D01*
X136809630Y-95359421D01*
X136790417Y-95345171D01*
X136772693Y-95329107D01*
X136756629Y-95311383D01*
X136742379Y-95292170D01*
X136730082Y-95271653D01*
X136719854Y-95250029D01*
X136711796Y-95227507D01*
X136705984Y-95204303D01*
X136702474Y-95180642D01*
X136701300Y-95156750D01*
X136701300Y-94669250D01*
X136702474Y-94645358D01*
X136705984Y-94621697D01*
X136711796Y-94598493D01*
X136719854Y-94575971D01*
X136730082Y-94554347D01*
X136742379Y-94533830D01*
X136756629Y-94514617D01*
X136772693Y-94496893D01*
X136790417Y-94480829D01*
X136809630Y-94466579D01*
X136830147Y-94454282D01*
X136851771Y-94444054D01*
X136874293Y-94435996D01*
X136897497Y-94430184D01*
X136921158Y-94426674D01*
X136945050Y-94425500D01*
X137857550Y-94425500D01*
X137881442Y-94426674D01*
G37*
G04 #@! TD.AperFunction*
G04 #@! TA.AperFunction,SMDPad,CuDef*
G36*
X137881442Y-96301674D02*
G01*
X137905103Y-96305184D01*
X137928307Y-96310996D01*
X137950829Y-96319054D01*
X137972453Y-96329282D01*
X137992970Y-96341579D01*
X138012183Y-96355829D01*
X138029907Y-96371893D01*
X138045971Y-96389617D01*
X138060221Y-96408830D01*
X138072518Y-96429347D01*
X138082746Y-96450971D01*
X138090804Y-96473493D01*
X138096616Y-96496697D01*
X138100126Y-96520358D01*
X138101300Y-96544250D01*
X138101300Y-97031750D01*
X138100126Y-97055642D01*
X138096616Y-97079303D01*
X138090804Y-97102507D01*
X138082746Y-97125029D01*
X138072518Y-97146653D01*
X138060221Y-97167170D01*
X138045971Y-97186383D01*
X138029907Y-97204107D01*
X138012183Y-97220171D01*
X137992970Y-97234421D01*
X137972453Y-97246718D01*
X137950829Y-97256946D01*
X137928307Y-97265004D01*
X137905103Y-97270816D01*
X137881442Y-97274326D01*
X137857550Y-97275500D01*
X136945050Y-97275500D01*
X136921158Y-97274326D01*
X136897497Y-97270816D01*
X136874293Y-97265004D01*
X136851771Y-97256946D01*
X136830147Y-97246718D01*
X136809630Y-97234421D01*
X136790417Y-97220171D01*
X136772693Y-97204107D01*
X136756629Y-97186383D01*
X136742379Y-97167170D01*
X136730082Y-97146653D01*
X136719854Y-97125029D01*
X136711796Y-97102507D01*
X136705984Y-97079303D01*
X136702474Y-97055642D01*
X136701300Y-97031750D01*
X136701300Y-96544250D01*
X136702474Y-96520358D01*
X136705984Y-96496697D01*
X136711796Y-96473493D01*
X136719854Y-96450971D01*
X136730082Y-96429347D01*
X136742379Y-96408830D01*
X136756629Y-96389617D01*
X136772693Y-96371893D01*
X136790417Y-96355829D01*
X136809630Y-96341579D01*
X136830147Y-96329282D01*
X136851771Y-96319054D01*
X136874293Y-96310996D01*
X136897497Y-96305184D01*
X136921158Y-96301674D01*
X136945050Y-96300500D01*
X137857550Y-96300500D01*
X137881442Y-96301674D01*
G37*
G04 #@! TD.AperFunction*
G04 #@! TA.AperFunction,SMDPad,CuDef*
G36*
X134451042Y-81328074D02*
G01*
X134474703Y-81331584D01*
X134497907Y-81337396D01*
X134520429Y-81345454D01*
X134542053Y-81355682D01*
X134562570Y-81367979D01*
X134581783Y-81382229D01*
X134599507Y-81398293D01*
X134615571Y-81416017D01*
X134629821Y-81435230D01*
X134642118Y-81455747D01*
X134652346Y-81477371D01*
X134660404Y-81499893D01*
X134666216Y-81523097D01*
X134669726Y-81546758D01*
X134670900Y-81570650D01*
X134670900Y-82483150D01*
X134669726Y-82507042D01*
X134666216Y-82530703D01*
X134660404Y-82553907D01*
X134652346Y-82576429D01*
X134642118Y-82598053D01*
X134629821Y-82618570D01*
X134615571Y-82637783D01*
X134599507Y-82655507D01*
X134581783Y-82671571D01*
X134562570Y-82685821D01*
X134542053Y-82698118D01*
X134520429Y-82708346D01*
X134497907Y-82716404D01*
X134474703Y-82722216D01*
X134451042Y-82725726D01*
X134427150Y-82726900D01*
X133939650Y-82726900D01*
X133915758Y-82725726D01*
X133892097Y-82722216D01*
X133868893Y-82716404D01*
X133846371Y-82708346D01*
X133824747Y-82698118D01*
X133804230Y-82685821D01*
X133785017Y-82671571D01*
X133767293Y-82655507D01*
X133751229Y-82637783D01*
X133736979Y-82618570D01*
X133724682Y-82598053D01*
X133714454Y-82576429D01*
X133706396Y-82553907D01*
X133700584Y-82530703D01*
X133697074Y-82507042D01*
X133695900Y-82483150D01*
X133695900Y-81570650D01*
X133697074Y-81546758D01*
X133700584Y-81523097D01*
X133706396Y-81499893D01*
X133714454Y-81477371D01*
X133724682Y-81455747D01*
X133736979Y-81435230D01*
X133751229Y-81416017D01*
X133767293Y-81398293D01*
X133785017Y-81382229D01*
X133804230Y-81367979D01*
X133824747Y-81355682D01*
X133846371Y-81345454D01*
X133868893Y-81337396D01*
X133892097Y-81331584D01*
X133915758Y-81328074D01*
X133939650Y-81326900D01*
X134427150Y-81326900D01*
X134451042Y-81328074D01*
G37*
G04 #@! TD.AperFunction*
G04 #@! TA.AperFunction,SMDPad,CuDef*
G36*
X136326042Y-81328074D02*
G01*
X136349703Y-81331584D01*
X136372907Y-81337396D01*
X136395429Y-81345454D01*
X136417053Y-81355682D01*
X136437570Y-81367979D01*
X136456783Y-81382229D01*
X136474507Y-81398293D01*
X136490571Y-81416017D01*
X136504821Y-81435230D01*
X136517118Y-81455747D01*
X136527346Y-81477371D01*
X136535404Y-81499893D01*
X136541216Y-81523097D01*
X136544726Y-81546758D01*
X136545900Y-81570650D01*
X136545900Y-82483150D01*
X136544726Y-82507042D01*
X136541216Y-82530703D01*
X136535404Y-82553907D01*
X136527346Y-82576429D01*
X136517118Y-82598053D01*
X136504821Y-82618570D01*
X136490571Y-82637783D01*
X136474507Y-82655507D01*
X136456783Y-82671571D01*
X136437570Y-82685821D01*
X136417053Y-82698118D01*
X136395429Y-82708346D01*
X136372907Y-82716404D01*
X136349703Y-82722216D01*
X136326042Y-82725726D01*
X136302150Y-82726900D01*
X135814650Y-82726900D01*
X135790758Y-82725726D01*
X135767097Y-82722216D01*
X135743893Y-82716404D01*
X135721371Y-82708346D01*
X135699747Y-82698118D01*
X135679230Y-82685821D01*
X135660017Y-82671571D01*
X135642293Y-82655507D01*
X135626229Y-82637783D01*
X135611979Y-82618570D01*
X135599682Y-82598053D01*
X135589454Y-82576429D01*
X135581396Y-82553907D01*
X135575584Y-82530703D01*
X135572074Y-82507042D01*
X135570900Y-82483150D01*
X135570900Y-81570650D01*
X135572074Y-81546758D01*
X135575584Y-81523097D01*
X135581396Y-81499893D01*
X135589454Y-81477371D01*
X135599682Y-81455747D01*
X135611979Y-81435230D01*
X135626229Y-81416017D01*
X135642293Y-81398293D01*
X135660017Y-81382229D01*
X135679230Y-81367979D01*
X135699747Y-81355682D01*
X135721371Y-81345454D01*
X135743893Y-81337396D01*
X135767097Y-81331584D01*
X135790758Y-81328074D01*
X135814650Y-81326900D01*
X136302150Y-81326900D01*
X136326042Y-81328074D01*
G37*
G04 #@! TD.AperFunction*
G04 #@! TA.AperFunction,SMDPad,CuDef*
G36*
X143451042Y-81328074D02*
G01*
X143474703Y-81331584D01*
X143497907Y-81337396D01*
X143520429Y-81345454D01*
X143542053Y-81355682D01*
X143562570Y-81367979D01*
X143581783Y-81382229D01*
X143599507Y-81398293D01*
X143615571Y-81416017D01*
X143629821Y-81435230D01*
X143642118Y-81455747D01*
X143652346Y-81477371D01*
X143660404Y-81499893D01*
X143666216Y-81523097D01*
X143669726Y-81546758D01*
X143670900Y-81570650D01*
X143670900Y-82483150D01*
X143669726Y-82507042D01*
X143666216Y-82530703D01*
X143660404Y-82553907D01*
X143652346Y-82576429D01*
X143642118Y-82598053D01*
X143629821Y-82618570D01*
X143615571Y-82637783D01*
X143599507Y-82655507D01*
X143581783Y-82671571D01*
X143562570Y-82685821D01*
X143542053Y-82698118D01*
X143520429Y-82708346D01*
X143497907Y-82716404D01*
X143474703Y-82722216D01*
X143451042Y-82725726D01*
X143427150Y-82726900D01*
X142939650Y-82726900D01*
X142915758Y-82725726D01*
X142892097Y-82722216D01*
X142868893Y-82716404D01*
X142846371Y-82708346D01*
X142824747Y-82698118D01*
X142804230Y-82685821D01*
X142785017Y-82671571D01*
X142767293Y-82655507D01*
X142751229Y-82637783D01*
X142736979Y-82618570D01*
X142724682Y-82598053D01*
X142714454Y-82576429D01*
X142706396Y-82553907D01*
X142700584Y-82530703D01*
X142697074Y-82507042D01*
X142695900Y-82483150D01*
X142695900Y-81570650D01*
X142697074Y-81546758D01*
X142700584Y-81523097D01*
X142706396Y-81499893D01*
X142714454Y-81477371D01*
X142724682Y-81455747D01*
X142736979Y-81435230D01*
X142751229Y-81416017D01*
X142767293Y-81398293D01*
X142785017Y-81382229D01*
X142804230Y-81367979D01*
X142824747Y-81355682D01*
X142846371Y-81345454D01*
X142868893Y-81337396D01*
X142892097Y-81331584D01*
X142915758Y-81328074D01*
X142939650Y-81326900D01*
X143427150Y-81326900D01*
X143451042Y-81328074D01*
G37*
G04 #@! TD.AperFunction*
G04 #@! TA.AperFunction,SMDPad,CuDef*
G36*
X145326042Y-81328074D02*
G01*
X145349703Y-81331584D01*
X145372907Y-81337396D01*
X145395429Y-81345454D01*
X145417053Y-81355682D01*
X145437570Y-81367979D01*
X145456783Y-81382229D01*
X145474507Y-81398293D01*
X145490571Y-81416017D01*
X145504821Y-81435230D01*
X145517118Y-81455747D01*
X145527346Y-81477371D01*
X145535404Y-81499893D01*
X145541216Y-81523097D01*
X145544726Y-81546758D01*
X145545900Y-81570650D01*
X145545900Y-82483150D01*
X145544726Y-82507042D01*
X145541216Y-82530703D01*
X145535404Y-82553907D01*
X145527346Y-82576429D01*
X145517118Y-82598053D01*
X145504821Y-82618570D01*
X145490571Y-82637783D01*
X145474507Y-82655507D01*
X145456783Y-82671571D01*
X145437570Y-82685821D01*
X145417053Y-82698118D01*
X145395429Y-82708346D01*
X145372907Y-82716404D01*
X145349703Y-82722216D01*
X145326042Y-82725726D01*
X145302150Y-82726900D01*
X144814650Y-82726900D01*
X144790758Y-82725726D01*
X144767097Y-82722216D01*
X144743893Y-82716404D01*
X144721371Y-82708346D01*
X144699747Y-82698118D01*
X144679230Y-82685821D01*
X144660017Y-82671571D01*
X144642293Y-82655507D01*
X144626229Y-82637783D01*
X144611979Y-82618570D01*
X144599682Y-82598053D01*
X144589454Y-82576429D01*
X144581396Y-82553907D01*
X144575584Y-82530703D01*
X144572074Y-82507042D01*
X144570900Y-82483150D01*
X144570900Y-81570650D01*
X144572074Y-81546758D01*
X144575584Y-81523097D01*
X144581396Y-81499893D01*
X144589454Y-81477371D01*
X144599682Y-81455747D01*
X144611979Y-81435230D01*
X144626229Y-81416017D01*
X144642293Y-81398293D01*
X144660017Y-81382229D01*
X144679230Y-81367979D01*
X144699747Y-81355682D01*
X144721371Y-81345454D01*
X144743893Y-81337396D01*
X144767097Y-81331584D01*
X144790758Y-81328074D01*
X144814650Y-81326900D01*
X145302150Y-81326900D01*
X145326042Y-81328074D01*
G37*
G04 #@! TD.AperFunction*
D17*
X135128000Y-92544900D03*
X135128000Y-85610300D03*
X135128000Y-89485000D03*
X135128000Y-87485000D03*
X135128000Y-90985000D03*
X135128000Y-88485000D03*
X135976900Y-85636100D03*
X136740900Y-85636100D03*
X134276900Y-85636100D03*
X133553200Y-85636100D03*
X135128000Y-86585000D03*
X144272000Y-85673800D03*
X144272000Y-91973800D03*
X144272000Y-87341000D03*
X144272000Y-89341000D03*
X144272000Y-90591000D03*
X144272000Y-88341000D03*
X145201500Y-85661500D03*
X145846800Y-85648800D03*
X143451500Y-85661500D03*
X142748000Y-85661500D03*
X144272000Y-86541000D03*
D18*
X145058400Y-79121000D02*
X145058400Y-80809100D01*
X145058400Y-80809100D02*
X145058400Y-82026900D01*
X144876190Y-80626890D02*
X145058400Y-80809100D01*
X139337110Y-80626890D02*
X144876190Y-80626890D01*
X136058400Y-82026900D02*
X137937100Y-82026900D01*
X137937100Y-82026900D02*
X138322050Y-81641950D01*
X138322050Y-81641950D02*
X139337110Y-80626890D01*
X137428000Y-89910300D02*
X137428000Y-91910300D01*
X138322050Y-89016250D02*
X137428000Y-89910300D01*
X138322050Y-81641950D02*
X138322050Y-89016250D01*
X147599400Y-83362800D02*
X146263500Y-82026900D01*
X146263500Y-82026900D02*
X145058400Y-82026900D01*
X147599400Y-90946400D02*
X147599400Y-83362800D01*
X146572000Y-91973800D02*
X147599400Y-90946400D01*
X150986500Y-95728800D02*
X151536400Y-95728800D01*
X147231500Y-91973800D02*
X150986500Y-95728800D01*
X146572000Y-91973800D02*
X147231500Y-91973800D01*
X135128000Y-100343300D02*
X134699000Y-100772300D01*
X135205500Y-96788000D02*
X137401300Y-96788000D01*
X135128000Y-96710500D02*
X135205500Y-96788000D01*
D19*
X135128000Y-91910300D02*
X135128000Y-92544900D01*
X135128000Y-96710500D02*
X135128000Y-100343300D01*
D18*
X135050500Y-96788000D02*
X132676900Y-96788000D01*
X135128000Y-96710500D02*
X135050500Y-96788000D01*
D19*
X135128000Y-85610300D02*
X135128000Y-85610300D01*
D18*
X134699000Y-100772300D02*
X137239000Y-100772300D01*
X134699000Y-100772300D02*
X132159000Y-100772300D01*
D19*
X135128000Y-92544900D02*
X135128000Y-96710500D01*
X135128000Y-85610300D02*
X135128000Y-91910300D01*
D20*
X143245600Y-79133700D02*
X143258300Y-79121000D01*
D18*
X143170700Y-79133700D02*
X143183400Y-79121000D01*
X136058400Y-79133700D02*
X143170700Y-79133700D01*
X152159000Y-100772300D02*
X157239000Y-100772300D01*
X154699000Y-99570219D02*
X154699000Y-100772300D01*
X150596600Y-86112800D02*
X154699000Y-90215200D01*
X150596600Y-83362800D02*
X150596600Y-86112800D01*
X154699000Y-93904100D02*
X154699000Y-99570219D01*
X154671400Y-93228800D02*
X151536400Y-93228800D01*
X154699000Y-93256400D02*
X154671400Y-93228800D01*
X154699000Y-90215200D02*
X154699000Y-93256400D01*
X154699000Y-93256400D02*
X154699000Y-93904100D01*
X144272000Y-100345300D02*
X144699000Y-100772300D01*
X144272000Y-96812100D02*
X144247900Y-96788000D01*
X144247900Y-96788000D02*
X141808200Y-96788000D01*
D19*
X144272000Y-91973800D02*
X144272000Y-91973800D01*
X144272000Y-96812100D02*
X144272000Y-100345300D01*
D18*
X144296100Y-96788000D02*
X146659600Y-96788000D01*
X144272000Y-96812100D02*
X144296100Y-96788000D01*
D19*
X144272000Y-85673800D02*
X144272000Y-85673800D01*
D18*
X142159000Y-100772300D02*
X144699000Y-100772300D01*
X144699000Y-100772300D02*
X147239000Y-100772300D01*
D19*
X144272000Y-91973800D02*
X144272000Y-96812100D01*
X144272000Y-91973800D02*
X144272000Y-85673800D01*
D21*
G36*
X151220788Y-76788318D02*
G01*
X151208528Y-76912800D01*
X151211600Y-78377050D01*
X151370350Y-78535800D01*
X153469600Y-78535800D01*
X153469600Y-78515800D01*
X153723600Y-78515800D01*
X153723600Y-78535800D01*
X155822850Y-78535800D01*
X155981600Y-78377050D01*
X155984672Y-76912800D01*
X155972412Y-76788318D01*
X155970799Y-76783000D01*
X158830000Y-76783000D01*
X158830000Y-90389187D01*
X158820096Y-90339395D01*
X158719461Y-90096441D01*
X158573362Y-89877787D01*
X158387413Y-89691838D01*
X158168759Y-89545739D01*
X157925805Y-89445104D01*
X157667886Y-89393800D01*
X157404914Y-89393800D01*
X157146995Y-89445104D01*
X156904041Y-89545739D01*
X156685387Y-89691838D01*
X156499438Y-89877787D01*
X156353339Y-90096441D01*
X156252704Y-90339395D01*
X156201400Y-90597314D01*
X156201400Y-90860286D01*
X156252704Y-91118205D01*
X156353339Y-91361159D01*
X156499438Y-91579813D01*
X156685387Y-91765762D01*
X156904041Y-91911861D01*
X157065646Y-91978800D01*
X156904041Y-92045739D01*
X156685387Y-92191838D01*
X156499438Y-92377787D01*
X156353339Y-92596441D01*
X156252704Y-92839395D01*
X156201400Y-93097314D01*
X156201400Y-93360286D01*
X156252704Y-93618205D01*
X156353339Y-93861159D01*
X156499438Y-94079813D01*
X156685387Y-94265762D01*
X156904041Y-94411861D01*
X157065646Y-94478800D01*
X156904041Y-94545739D01*
X156685387Y-94691838D01*
X156499438Y-94877787D01*
X156353339Y-95096441D01*
X156252704Y-95339395D01*
X156201400Y-95597314D01*
X156201400Y-95860286D01*
X156252704Y-96118205D01*
X156353339Y-96361159D01*
X156499438Y-96579813D01*
X156685387Y-96765762D01*
X156904041Y-96911861D01*
X157146995Y-97012496D01*
X157404914Y-97063800D01*
X157667886Y-97063800D01*
X157925805Y-97012496D01*
X158168759Y-96911861D01*
X158387413Y-96765762D01*
X158573362Y-96579813D01*
X158719461Y-96361159D01*
X158820096Y-96118205D01*
X158830001Y-96068412D01*
X158830001Y-105363000D01*
X130250000Y-105363000D01*
X130250000Y-104162300D01*
X130670928Y-104162300D01*
X130683188Y-104286782D01*
X130719498Y-104406480D01*
X130778463Y-104516794D01*
X130857815Y-104613485D01*
X130954506Y-104692837D01*
X131064820Y-104751802D01*
X131184518Y-104788112D01*
X131309000Y-104800372D01*
X131873250Y-104797300D01*
X132032000Y-104638550D01*
X132032000Y-103439300D01*
X132286000Y-103439300D01*
X132286000Y-104638550D01*
X132444750Y-104797300D01*
X133009000Y-104800372D01*
X133133482Y-104788112D01*
X133253180Y-104751802D01*
X133363494Y-104692837D01*
X133460185Y-104613485D01*
X133539537Y-104516794D01*
X133598502Y-104406480D01*
X133622966Y-104325834D01*
X133698731Y-104409888D01*
X133932080Y-104583941D01*
X134194901Y-104709125D01*
X134342110Y-104753776D01*
X134572000Y-104632455D01*
X134572000Y-103439300D01*
X134826000Y-103439300D01*
X134826000Y-104632455D01*
X135055890Y-104753776D01*
X135203099Y-104709125D01*
X135465920Y-104583941D01*
X135699269Y-104409888D01*
X135894178Y-104193655D01*
X135969000Y-104068045D01*
X136043822Y-104193655D01*
X136238731Y-104409888D01*
X136472080Y-104583941D01*
X136734901Y-104709125D01*
X136882110Y-104753776D01*
X137112000Y-104632455D01*
X137112000Y-103439300D01*
X137366000Y-103439300D01*
X137366000Y-104632455D01*
X137595890Y-104753776D01*
X137743099Y-104709125D01*
X138005920Y-104583941D01*
X138239269Y-104409888D01*
X138434178Y-104193655D01*
X138452855Y-104162300D01*
X140670928Y-104162300D01*
X140683188Y-104286782D01*
X140719498Y-104406480D01*
X140778463Y-104516794D01*
X140857815Y-104613485D01*
X140954506Y-104692837D01*
X141064820Y-104751802D01*
X141184518Y-104788112D01*
X141309000Y-104800372D01*
X141873250Y-104797300D01*
X142032000Y-104638550D01*
X142032000Y-103439300D01*
X142286000Y-103439300D01*
X142286000Y-104638550D01*
X142444750Y-104797300D01*
X143009000Y-104800372D01*
X143133482Y-104788112D01*
X143253180Y-104751802D01*
X143363494Y-104692837D01*
X143460185Y-104613485D01*
X143539537Y-104516794D01*
X143598502Y-104406480D01*
X143622966Y-104325834D01*
X143698731Y-104409888D01*
X143932080Y-104583941D01*
X144194901Y-104709125D01*
X144342110Y-104753776D01*
X144572000Y-104632455D01*
X144572000Y-103439300D01*
X144826000Y-103439300D01*
X144826000Y-104632455D01*
X145055890Y-104753776D01*
X145203099Y-104709125D01*
X145465920Y-104583941D01*
X145699269Y-104409888D01*
X145894178Y-104193655D01*
X145969000Y-104068045D01*
X146043822Y-104193655D01*
X146238731Y-104409888D01*
X146472080Y-104583941D01*
X146734901Y-104709125D01*
X146882110Y-104753776D01*
X147112000Y-104632455D01*
X147112000Y-103439300D01*
X147366000Y-103439300D01*
X147366000Y-104632455D01*
X147595890Y-104753776D01*
X147743099Y-104709125D01*
X148005920Y-104583941D01*
X148239269Y-104409888D01*
X148434178Y-104193655D01*
X148452855Y-104162300D01*
X150670928Y-104162300D01*
X150683188Y-104286782D01*
X150719498Y-104406480D01*
X150778463Y-104516794D01*
X150857815Y-104613485D01*
X150954506Y-104692837D01*
X151064820Y-104751802D01*
X151184518Y-104788112D01*
X151309000Y-104800372D01*
X151873250Y-104797300D01*
X152032000Y-104638550D01*
X152032000Y-103439300D01*
X152286000Y-103439300D01*
X152286000Y-104638550D01*
X152444750Y-104797300D01*
X153009000Y-104800372D01*
X153133482Y-104788112D01*
X153253180Y-104751802D01*
X153363494Y-104692837D01*
X153460185Y-104613485D01*
X153539537Y-104516794D01*
X153598502Y-104406480D01*
X153622966Y-104325834D01*
X153698731Y-104409888D01*
X153932080Y-104583941D01*
X154194901Y-104709125D01*
X154342110Y-104753776D01*
X154572000Y-104632455D01*
X154572000Y-103439300D01*
X154826000Y-103439300D01*
X154826000Y-104632455D01*
X155055890Y-104753776D01*
X155203099Y-104709125D01*
X155465920Y-104583941D01*
X155699269Y-104409888D01*
X155894178Y-104193655D01*
X155969000Y-104068045D01*
X156043822Y-104193655D01*
X156238731Y-104409888D01*
X156472080Y-104583941D01*
X156734901Y-104709125D01*
X156882110Y-104753776D01*
X157112000Y-104632455D01*
X157112000Y-103439300D01*
X157366000Y-103439300D01*
X157366000Y-104632455D01*
X157595890Y-104753776D01*
X157743099Y-104709125D01*
X158005920Y-104583941D01*
X158239269Y-104409888D01*
X158434178Y-104193655D01*
X158583157Y-103943552D01*
X158680481Y-103669191D01*
X158559814Y-103439300D01*
X157366000Y-103439300D01*
X157112000Y-103439300D01*
X154826000Y-103439300D01*
X154572000Y-103439300D01*
X152286000Y-103439300D01*
X152032000Y-103439300D01*
X150832750Y-103439300D01*
X150674000Y-103598050D01*
X150670928Y-104162300D01*
X148452855Y-104162300D01*
X148583157Y-103943552D01*
X148680481Y-103669191D01*
X148559814Y-103439300D01*
X147366000Y-103439300D01*
X147112000Y-103439300D01*
X144826000Y-103439300D01*
X144572000Y-103439300D01*
X142286000Y-103439300D01*
X142032000Y-103439300D01*
X140832750Y-103439300D01*
X140674000Y-103598050D01*
X140670928Y-104162300D01*
X138452855Y-104162300D01*
X138583157Y-103943552D01*
X138680481Y-103669191D01*
X138559814Y-103439300D01*
X137366000Y-103439300D01*
X137112000Y-103439300D01*
X134826000Y-103439300D01*
X134572000Y-103439300D01*
X132286000Y-103439300D01*
X132032000Y-103439300D01*
X130832750Y-103439300D01*
X130674000Y-103598050D01*
X130670928Y-104162300D01*
X130250000Y-104162300D01*
X130250000Y-102462300D01*
X130670928Y-102462300D01*
X130674000Y-103026550D01*
X130832750Y-103185300D01*
X132032000Y-103185300D01*
X132032000Y-103165300D01*
X132286000Y-103165300D01*
X132286000Y-103185300D01*
X134572000Y-103185300D01*
X134572000Y-103165300D01*
X134826000Y-103165300D01*
X134826000Y-103185300D01*
X137112000Y-103185300D01*
X137112000Y-103165300D01*
X137366000Y-103165300D01*
X137366000Y-103185300D01*
X138559814Y-103185300D01*
X138680481Y-102955409D01*
X138583157Y-102681048D01*
X138434178Y-102430945D01*
X138239269Y-102214712D01*
X138009594Y-102043400D01*
X138185632Y-101925775D01*
X138392475Y-101718932D01*
X138554990Y-101475711D01*
X138666932Y-101205458D01*
X138724000Y-100918560D01*
X138724000Y-100626040D01*
X138666932Y-100339142D01*
X138554990Y-100068889D01*
X138392475Y-99825668D01*
X138185632Y-99618825D01*
X137942411Y-99456310D01*
X137672158Y-99344368D01*
X137385260Y-99287300D01*
X137092740Y-99287300D01*
X136805842Y-99344368D01*
X136763000Y-99362114D01*
X136763000Y-97923000D01*
X137457052Y-97923000D01*
X137552777Y-97913572D01*
X137857550Y-97913572D01*
X138029585Y-97896628D01*
X138195009Y-97846447D01*
X138347464Y-97764958D01*
X138481092Y-97655292D01*
X138590758Y-97521664D01*
X138672247Y-97369209D01*
X138722428Y-97203785D01*
X138739372Y-97031750D01*
X138739372Y-96544250D01*
X138722428Y-96372215D01*
X138672247Y-96206791D01*
X138590758Y-96054336D01*
X138481092Y-95920708D01*
X138474736Y-95915492D01*
X138552485Y-95851685D01*
X138631837Y-95754994D01*
X138690802Y-95644680D01*
X138727112Y-95524982D01*
X138739372Y-95400500D01*
X138736300Y-95198750D01*
X138577550Y-95040000D01*
X137528300Y-95040000D01*
X137528300Y-95060000D01*
X137274300Y-95060000D01*
X137274300Y-95040000D01*
X137254300Y-95040000D01*
X137254300Y-94786000D01*
X137274300Y-94786000D01*
X137274300Y-93949250D01*
X137528300Y-93949250D01*
X137528300Y-94786000D01*
X138577550Y-94786000D01*
X138736300Y-94627250D01*
X138739372Y-94425500D01*
X140470128Y-94425500D01*
X140473200Y-94627250D01*
X140631950Y-94786000D01*
X141681200Y-94786000D01*
X141681200Y-93949250D01*
X141522450Y-93790500D01*
X141108200Y-93787428D01*
X140983718Y-93799688D01*
X140864020Y-93835998D01*
X140753706Y-93894963D01*
X140657015Y-93974315D01*
X140577663Y-94071006D01*
X140518698Y-94181320D01*
X140482388Y-94301018D01*
X140470128Y-94425500D01*
X138739372Y-94425500D01*
X138727112Y-94301018D01*
X138690802Y-94181320D01*
X138631837Y-94071006D01*
X138552485Y-93974315D01*
X138455794Y-93894963D01*
X138345480Y-93835998D01*
X138225782Y-93799688D01*
X138101300Y-93787428D01*
X137687050Y-93790500D01*
X137528300Y-93949250D01*
X137274300Y-93949250D01*
X137115550Y-93790500D01*
X136763000Y-93787886D01*
X136763000Y-93548372D01*
X138178000Y-93548372D01*
X138302482Y-93536112D01*
X138422180Y-93499802D01*
X138532494Y-93440837D01*
X138629185Y-93361485D01*
X138708537Y-93264794D01*
X138767502Y-93154480D01*
X138803812Y-93034782D01*
X138809818Y-92973800D01*
X140583928Y-92973800D01*
X140596188Y-93098282D01*
X140632498Y-93217980D01*
X140691463Y-93328294D01*
X140770815Y-93424985D01*
X140867506Y-93504337D01*
X140977820Y-93563302D01*
X141097518Y-93599612D01*
X141222000Y-93611872D01*
X141686250Y-93608800D01*
X141845000Y-93450050D01*
X141845000Y-92100800D01*
X140745750Y-92100800D01*
X140587000Y-92259550D01*
X140583928Y-92973800D01*
X138809818Y-92973800D01*
X138816072Y-92910300D01*
X138816072Y-90973800D01*
X140583928Y-90973800D01*
X140587000Y-91688050D01*
X140745750Y-91846800D01*
X141845000Y-91846800D01*
X141845000Y-90497550D01*
X141686250Y-90338800D01*
X141222000Y-90335728D01*
X141097518Y-90347988D01*
X140977820Y-90384298D01*
X140867506Y-90443263D01*
X140770815Y-90522615D01*
X140691463Y-90619306D01*
X140632498Y-90729620D01*
X140596188Y-90849318D01*
X140583928Y-90973800D01*
X138816072Y-90973800D01*
X138816072Y-90910300D01*
X138803812Y-90785818D01*
X138767502Y-90666120D01*
X138708537Y-90555806D01*
X138629185Y-90459115D01*
X138563000Y-90404799D01*
X138563000Y-90380432D01*
X139085195Y-89858237D01*
X139128499Y-89822699D01*
X139239207Y-89687802D01*
X139270334Y-89649873D01*
X139375726Y-89452697D01*
X139440627Y-89238749D01*
X139462541Y-89016250D01*
X139457050Y-88960498D01*
X139457050Y-82726900D01*
X142057828Y-82726900D01*
X142070088Y-82851382D01*
X142106398Y-82971080D01*
X142165363Y-83081394D01*
X142244715Y-83178085D01*
X142341406Y-83257437D01*
X142451720Y-83316402D01*
X142571418Y-83352712D01*
X142695900Y-83364972D01*
X142897650Y-83361900D01*
X143056400Y-83203150D01*
X143056400Y-82153900D01*
X142219650Y-82153900D01*
X142060900Y-82312650D01*
X142057828Y-82726900D01*
X139457050Y-82726900D01*
X139457050Y-82112082D01*
X139807242Y-81761890D01*
X142081640Y-81761890D01*
X142219650Y-81899900D01*
X143056400Y-81899900D01*
X143056400Y-81879900D01*
X143310400Y-81879900D01*
X143310400Y-81899900D01*
X143330400Y-81899900D01*
X143330400Y-82153900D01*
X143310400Y-82153900D01*
X143310400Y-83203150D01*
X143469150Y-83361900D01*
X143670900Y-83364972D01*
X143795382Y-83352712D01*
X143915080Y-83316402D01*
X144025394Y-83257437D01*
X144122085Y-83178085D01*
X144185892Y-83100336D01*
X144191108Y-83106692D01*
X144324736Y-83216358D01*
X144477191Y-83297847D01*
X144642615Y-83348028D01*
X144814650Y-83364972D01*
X145302150Y-83364972D01*
X145474185Y-83348028D01*
X145639609Y-83297847D01*
X145792064Y-83216358D01*
X145822691Y-83191223D01*
X146464401Y-83832933D01*
X146464401Y-84110073D01*
X146416180Y-84084298D01*
X146296482Y-84047988D01*
X146172000Y-84035728D01*
X144321131Y-84035728D01*
X144272000Y-84030889D01*
X144222869Y-84035728D01*
X142372000Y-84035728D01*
X142247518Y-84047988D01*
X142127820Y-84084298D01*
X142017506Y-84143263D01*
X141920815Y-84222615D01*
X141841463Y-84319306D01*
X141782498Y-84429620D01*
X141746188Y-84549318D01*
X141733928Y-84673800D01*
X141733928Y-85454348D01*
X141713000Y-85559561D01*
X141713000Y-85763439D01*
X141733928Y-85868652D01*
X141733928Y-86673800D01*
X141746188Y-86798282D01*
X141782498Y-86917980D01*
X141841463Y-87028294D01*
X141920815Y-87124985D01*
X142017506Y-87204337D01*
X142127820Y-87263302D01*
X142247518Y-87299612D01*
X142372000Y-87311872D01*
X142637001Y-87311872D01*
X142637000Y-90336290D01*
X142257750Y-90338800D01*
X142099000Y-90497550D01*
X142099000Y-91846800D01*
X142119000Y-91846800D01*
X142119000Y-92100800D01*
X142099000Y-92100800D01*
X142099000Y-93450050D01*
X142257750Y-93608800D01*
X142637000Y-93611310D01*
X142637000Y-93800998D01*
X142632682Y-93799688D01*
X142508200Y-93787428D01*
X142093950Y-93790500D01*
X141935200Y-93949250D01*
X141935200Y-94786000D01*
X141955200Y-94786000D01*
X141955200Y-95040000D01*
X141935200Y-95040000D01*
X141935200Y-95060000D01*
X141681200Y-95060000D01*
X141681200Y-95040000D01*
X140631950Y-95040000D01*
X140473200Y-95198750D01*
X140470128Y-95400500D01*
X140482388Y-95524982D01*
X140518698Y-95644680D01*
X140577663Y-95754994D01*
X140657015Y-95851685D01*
X140734764Y-95915492D01*
X140728408Y-95920708D01*
X140618742Y-96054336D01*
X140537253Y-96206791D01*
X140487072Y-96372215D01*
X140470128Y-96544250D01*
X140470128Y-97031750D01*
X140487072Y-97203785D01*
X140537253Y-97369209D01*
X140618742Y-97521664D01*
X140728408Y-97655292D01*
X140862036Y-97764958D01*
X141014491Y-97846447D01*
X141179915Y-97896628D01*
X141351950Y-97913572D01*
X141656723Y-97913572D01*
X141752448Y-97923000D01*
X142637000Y-97923000D01*
X142637001Y-99362942D01*
X142592158Y-99344368D01*
X142305260Y-99287300D01*
X142012740Y-99287300D01*
X141725842Y-99344368D01*
X141455589Y-99456310D01*
X141212368Y-99618825D01*
X141005525Y-99825668D01*
X140843010Y-100068889D01*
X140731068Y-100339142D01*
X140674000Y-100626040D01*
X140674000Y-100918560D01*
X140731068Y-101205458D01*
X140843010Y-101475711D01*
X141005525Y-101718932D01*
X141137380Y-101850787D01*
X141064820Y-101872798D01*
X140954506Y-101931763D01*
X140857815Y-102011115D01*
X140778463Y-102107806D01*
X140719498Y-102218120D01*
X140683188Y-102337818D01*
X140670928Y-102462300D01*
X140674000Y-103026550D01*
X140832750Y-103185300D01*
X142032000Y-103185300D01*
X142032000Y-103165300D01*
X142286000Y-103165300D01*
X142286000Y-103185300D01*
X144572000Y-103185300D01*
X144572000Y-103165300D01*
X144826000Y-103165300D01*
X144826000Y-103185300D01*
X147112000Y-103185300D01*
X147112000Y-103165300D01*
X147366000Y-103165300D01*
X147366000Y-103185300D01*
X148559814Y-103185300D01*
X148680481Y-102955409D01*
X148583157Y-102681048D01*
X148434178Y-102430945D01*
X148239269Y-102214712D01*
X148009594Y-102043400D01*
X148185632Y-101925775D01*
X148392475Y-101718932D01*
X148554990Y-101475711D01*
X148666932Y-101205458D01*
X148724000Y-100918560D01*
X148724000Y-100626040D01*
X148666932Y-100339142D01*
X148554990Y-100068889D01*
X148392475Y-99825668D01*
X148185632Y-99618825D01*
X147942411Y-99456310D01*
X147672158Y-99344368D01*
X147385260Y-99287300D01*
X147092740Y-99287300D01*
X146805842Y-99344368D01*
X146535589Y-99456310D01*
X146292368Y-99618825D01*
X146273893Y-99637300D01*
X145907000Y-99637300D01*
X145907000Y-97923000D01*
X146715352Y-97923000D01*
X146811077Y-97913572D01*
X147115850Y-97913572D01*
X147287885Y-97896628D01*
X147453309Y-97846447D01*
X147605764Y-97764958D01*
X147739392Y-97655292D01*
X147849058Y-97521664D01*
X147930547Y-97369209D01*
X147980728Y-97203785D01*
X147997672Y-97031750D01*
X147997672Y-96544250D01*
X147980728Y-96372215D01*
X147930547Y-96206791D01*
X147849058Y-96054336D01*
X147739392Y-95920708D01*
X147733036Y-95915492D01*
X147810785Y-95851685D01*
X147890137Y-95754994D01*
X147949102Y-95644680D01*
X147985412Y-95524982D01*
X147997672Y-95400500D01*
X147994600Y-95198750D01*
X147835850Y-95040000D01*
X146786600Y-95040000D01*
X146786600Y-95060000D01*
X146532600Y-95060000D01*
X146532600Y-95040000D01*
X146512600Y-95040000D01*
X146512600Y-94786000D01*
X146532600Y-94786000D01*
X146532600Y-93949250D01*
X146373850Y-93790500D01*
X145959600Y-93787428D01*
X145907000Y-93792608D01*
X145907000Y-93611872D01*
X147264441Y-93611872D01*
X147448780Y-93796211D01*
X147359600Y-93787428D01*
X146945350Y-93790500D01*
X146786600Y-93949250D01*
X146786600Y-94786000D01*
X147835850Y-94786000D01*
X147994600Y-94627250D01*
X147997672Y-94425500D01*
X147988889Y-94336320D01*
X150144509Y-96491941D01*
X150180051Y-96535249D01*
X150352877Y-96677084D01*
X150518783Y-96765762D01*
X150550053Y-96782476D01*
X150764001Y-96847377D01*
X150815059Y-96852406D01*
X150904041Y-96911861D01*
X151146995Y-97012496D01*
X151404914Y-97063800D01*
X151667886Y-97063800D01*
X151925805Y-97012496D01*
X152168759Y-96911861D01*
X152387413Y-96765762D01*
X152573362Y-96579813D01*
X152719461Y-96361159D01*
X152820096Y-96118205D01*
X152871400Y-95860286D01*
X152871400Y-95597314D01*
X152820096Y-95339395D01*
X152719461Y-95096441D01*
X152573362Y-94877787D01*
X152387413Y-94691838D01*
X152168759Y-94545739D01*
X152007154Y-94478800D01*
X152168759Y-94411861D01*
X152240688Y-94363800D01*
X153564000Y-94363800D01*
X153564001Y-99514458D01*
X153564000Y-99514468D01*
X153564000Y-99637300D01*
X153124107Y-99637300D01*
X153105632Y-99618825D01*
X152862411Y-99456310D01*
X152592158Y-99344368D01*
X152305260Y-99287300D01*
X152012740Y-99287300D01*
X151725842Y-99344368D01*
X151455589Y-99456310D01*
X151212368Y-99618825D01*
X151005525Y-99825668D01*
X150843010Y-100068889D01*
X150731068Y-100339142D01*
X150674000Y-100626040D01*
X150674000Y-100918560D01*
X150731068Y-101205458D01*
X150843010Y-101475711D01*
X151005525Y-101718932D01*
X151137380Y-101850787D01*
X151064820Y-101872798D01*
X150954506Y-101931763D01*
X150857815Y-102011115D01*
X150778463Y-102107806D01*
X150719498Y-102218120D01*
X150683188Y-102337818D01*
X150670928Y-102462300D01*
X150674000Y-103026550D01*
X150832750Y-103185300D01*
X152032000Y-103185300D01*
X152032000Y-103165300D01*
X152286000Y-103165300D01*
X152286000Y-103185300D01*
X154572000Y-103185300D01*
X154572000Y-103165300D01*
X154826000Y-103165300D01*
X154826000Y-103185300D01*
X157112000Y-103185300D01*
X157112000Y-103165300D01*
X157366000Y-103165300D01*
X157366000Y-103185300D01*
X158559814Y-103185300D01*
X158680481Y-102955409D01*
X158583157Y-102681048D01*
X158434178Y-102430945D01*
X158239269Y-102214712D01*
X158009594Y-102043400D01*
X158185632Y-101925775D01*
X158392475Y-101718932D01*
X158554990Y-101475711D01*
X158666932Y-101205458D01*
X158724000Y-100918560D01*
X158724000Y-100626040D01*
X158666932Y-100339142D01*
X158554990Y-100068889D01*
X158392475Y-99825668D01*
X158185632Y-99618825D01*
X157942411Y-99456310D01*
X157672158Y-99344368D01*
X157385260Y-99287300D01*
X157092740Y-99287300D01*
X156805842Y-99344368D01*
X156535589Y-99456310D01*
X156292368Y-99618825D01*
X156273893Y-99637300D01*
X155834000Y-99637300D01*
X155834000Y-93312141D01*
X155839490Y-93256399D01*
X155834000Y-93200658D01*
X155834000Y-90270952D01*
X155839491Y-90215200D01*
X155817577Y-89992701D01*
X155752676Y-89778753D01*
X155647284Y-89581577D01*
X155540989Y-89452056D01*
X155540987Y-89452054D01*
X155505449Y-89408751D01*
X155462146Y-89373213D01*
X151839803Y-85750872D01*
X152346600Y-85750872D01*
X152471082Y-85738612D01*
X152590780Y-85702302D01*
X152701094Y-85643337D01*
X152797785Y-85563985D01*
X152877137Y-85467294D01*
X152936102Y-85356980D01*
X152972412Y-85237282D01*
X152984672Y-85112800D01*
X154458528Y-85112800D01*
X154470788Y-85237282D01*
X154507098Y-85356980D01*
X154566063Y-85467294D01*
X154645415Y-85563985D01*
X154742106Y-85643337D01*
X154852420Y-85702302D01*
X154972118Y-85738612D01*
X155096600Y-85750872D01*
X156310850Y-85747800D01*
X156469600Y-85589050D01*
X156469600Y-83489800D01*
X156723600Y-83489800D01*
X156723600Y-85589050D01*
X156882350Y-85747800D01*
X158096600Y-85750872D01*
X158221082Y-85738612D01*
X158340780Y-85702302D01*
X158451094Y-85643337D01*
X158547785Y-85563985D01*
X158627137Y-85467294D01*
X158686102Y-85356980D01*
X158722412Y-85237282D01*
X158734672Y-85112800D01*
X158731600Y-83648550D01*
X158572850Y-83489800D01*
X156723600Y-83489800D01*
X156469600Y-83489800D01*
X154620350Y-83489800D01*
X154461600Y-83648550D01*
X154458528Y-85112800D01*
X152984672Y-85112800D01*
X152984672Y-81612800D01*
X152972412Y-81488318D01*
X152936102Y-81368620D01*
X152877137Y-81258306D01*
X152797785Y-81161615D01*
X152701094Y-81082263D01*
X152639255Y-81049209D01*
X153310850Y-81047800D01*
X153469600Y-80889050D01*
X153469600Y-78789800D01*
X153723600Y-78789800D01*
X153723600Y-80889050D01*
X153882350Y-81047800D01*
X154802967Y-81049731D01*
X154742106Y-81082263D01*
X154645415Y-81161615D01*
X154566063Y-81258306D01*
X154507098Y-81368620D01*
X154470788Y-81488318D01*
X154458528Y-81612800D01*
X154461600Y-83077050D01*
X154620350Y-83235800D01*
X156469600Y-83235800D01*
X156469600Y-81136550D01*
X156723600Y-81136550D01*
X156723600Y-83235800D01*
X158572850Y-83235800D01*
X158731600Y-83077050D01*
X158734672Y-81612800D01*
X158722412Y-81488318D01*
X158686102Y-81368620D01*
X158627137Y-81258306D01*
X158547785Y-81161615D01*
X158451094Y-81082263D01*
X158340780Y-81023298D01*
X158221082Y-80986988D01*
X158096600Y-80974728D01*
X156882350Y-80977800D01*
X156723600Y-81136550D01*
X156469600Y-81136550D01*
X156310850Y-80977800D01*
X155639795Y-80976102D01*
X155701094Y-80943337D01*
X155797785Y-80863985D01*
X155877137Y-80767294D01*
X155936102Y-80656980D01*
X155972412Y-80537282D01*
X155984672Y-80412800D01*
X155981600Y-78948550D01*
X155822850Y-78789800D01*
X153723600Y-78789800D01*
X153469600Y-78789800D01*
X151370350Y-78789800D01*
X151211600Y-78948550D01*
X151208528Y-80412800D01*
X151220788Y-80537282D01*
X151257098Y-80656980D01*
X151316063Y-80767294D01*
X151395415Y-80863985D01*
X151492106Y-80943337D01*
X151550833Y-80974728D01*
X148846600Y-80974728D01*
X148722118Y-80986988D01*
X148602420Y-81023298D01*
X148492106Y-81082263D01*
X148395415Y-81161615D01*
X148316063Y-81258306D01*
X148257098Y-81368620D01*
X148220788Y-81488318D01*
X148208528Y-81612800D01*
X148208528Y-82366796D01*
X147105496Y-81263765D01*
X147069949Y-81220451D01*
X146897123Y-81078616D01*
X146699947Y-80973224D01*
X146485999Y-80908323D01*
X146319252Y-80891900D01*
X146319251Y-80891900D01*
X146263500Y-80886409D01*
X146207749Y-80891900D01*
X146193400Y-80891900D01*
X146193400Y-80864852D01*
X146198891Y-80809100D01*
X146193400Y-80753348D01*
X146193400Y-79065248D01*
X146183972Y-78969523D01*
X146183972Y-78664750D01*
X146167028Y-78492715D01*
X146116847Y-78327291D01*
X146035358Y-78174836D01*
X145925692Y-78041208D01*
X145792064Y-77931542D01*
X145639609Y-77850053D01*
X145474185Y-77799872D01*
X145302150Y-77782928D01*
X144814650Y-77782928D01*
X144642615Y-77799872D01*
X144477191Y-77850053D01*
X144324736Y-77931542D01*
X144191108Y-78041208D01*
X144120900Y-78126756D01*
X144050692Y-78041208D01*
X143917064Y-77931542D01*
X143764609Y-77850053D01*
X143599185Y-77799872D01*
X143427150Y-77782928D01*
X142939650Y-77782928D01*
X142767615Y-77799872D01*
X142602191Y-77850053D01*
X142449736Y-77931542D01*
X142367904Y-77998700D01*
X136858421Y-77998700D01*
X136792064Y-77944242D01*
X136639609Y-77862753D01*
X136474185Y-77812572D01*
X136302150Y-77795628D01*
X135814650Y-77795628D01*
X135642615Y-77812572D01*
X135477191Y-77862753D01*
X135324736Y-77944242D01*
X135191108Y-78053908D01*
X135185892Y-78060264D01*
X135122085Y-77982515D01*
X135025394Y-77903163D01*
X134915080Y-77844198D01*
X134795382Y-77807888D01*
X134670900Y-77795628D01*
X134469150Y-77798700D01*
X134310400Y-77957450D01*
X134310400Y-79006700D01*
X134330400Y-79006700D01*
X134330400Y-79260700D01*
X134310400Y-79260700D01*
X134310400Y-80309950D01*
X134469150Y-80468700D01*
X134670900Y-80471772D01*
X134795382Y-80459512D01*
X134915080Y-80423202D01*
X135025394Y-80364237D01*
X135122085Y-80284885D01*
X135185892Y-80207136D01*
X135191108Y-80213492D01*
X135324736Y-80323158D01*
X135477191Y-80404647D01*
X135642615Y-80454828D01*
X135814650Y-80471772D01*
X136302150Y-80471772D01*
X136474185Y-80454828D01*
X136639609Y-80404647D01*
X136792064Y-80323158D01*
X136858421Y-80268700D01*
X138090168Y-80268700D01*
X137558914Y-80799955D01*
X137515601Y-80835501D01*
X137480061Y-80878807D01*
X137466968Y-80891900D01*
X136858421Y-80891900D01*
X136792064Y-80837442D01*
X136639609Y-80755953D01*
X136474185Y-80705772D01*
X136302150Y-80688828D01*
X135814650Y-80688828D01*
X135642615Y-80705772D01*
X135477191Y-80755953D01*
X135324736Y-80837442D01*
X135191108Y-80947108D01*
X135185892Y-80953464D01*
X135122085Y-80875715D01*
X135025394Y-80796363D01*
X134915080Y-80737398D01*
X134795382Y-80701088D01*
X134670900Y-80688828D01*
X134469150Y-80691900D01*
X134310400Y-80850650D01*
X134310400Y-81899900D01*
X134330400Y-81899900D01*
X134330400Y-82153900D01*
X134310400Y-82153900D01*
X134310400Y-83203150D01*
X134469150Y-83361900D01*
X134670900Y-83364972D01*
X134795382Y-83352712D01*
X134915080Y-83316402D01*
X135025394Y-83257437D01*
X135122085Y-83178085D01*
X135185892Y-83100336D01*
X135191108Y-83106692D01*
X135324736Y-83216358D01*
X135477191Y-83297847D01*
X135642615Y-83348028D01*
X135814650Y-83364972D01*
X136302150Y-83364972D01*
X136474185Y-83348028D01*
X136639609Y-83297847D01*
X136792064Y-83216358D01*
X136858421Y-83161900D01*
X137187050Y-83161900D01*
X137187050Y-83994974D01*
X137152482Y-83984488D01*
X137028000Y-83972228D01*
X135177131Y-83972228D01*
X135128000Y-83967389D01*
X135078869Y-83972228D01*
X133228000Y-83972228D01*
X133103518Y-83984488D01*
X132983820Y-84020798D01*
X132873506Y-84079763D01*
X132776815Y-84159115D01*
X132697463Y-84255806D01*
X132638498Y-84366120D01*
X132602188Y-84485818D01*
X132589928Y-84610300D01*
X132589928Y-85257059D01*
X132557974Y-85334202D01*
X132518200Y-85534161D01*
X132518200Y-85738039D01*
X132557974Y-85937998D01*
X132589928Y-86015141D01*
X132589928Y-86610300D01*
X132602188Y-86734782D01*
X132638498Y-86854480D01*
X132697463Y-86964794D01*
X132776815Y-87061485D01*
X132873506Y-87140837D01*
X132983820Y-87199802D01*
X133103518Y-87236112D01*
X133228000Y-87248372D01*
X133493000Y-87248372D01*
X133493001Y-90272790D01*
X133113750Y-90275300D01*
X132955000Y-90434050D01*
X132955000Y-91783300D01*
X132975000Y-91783300D01*
X132975000Y-92037300D01*
X132955000Y-92037300D01*
X132955000Y-93386550D01*
X133113750Y-93545300D01*
X133493000Y-93547810D01*
X133493000Y-93798863D01*
X133376900Y-93787428D01*
X132962650Y-93790500D01*
X132803900Y-93949250D01*
X132803900Y-94786000D01*
X132823900Y-94786000D01*
X132823900Y-95040000D01*
X132803900Y-95040000D01*
X132803900Y-95060000D01*
X132549900Y-95060000D01*
X132549900Y-95040000D01*
X131500650Y-95040000D01*
X131341900Y-95198750D01*
X131338828Y-95400500D01*
X131351088Y-95524982D01*
X131387398Y-95644680D01*
X131446363Y-95754994D01*
X131525715Y-95851685D01*
X131603464Y-95915492D01*
X131597108Y-95920708D01*
X131487442Y-96054336D01*
X131405953Y-96206791D01*
X131355772Y-96372215D01*
X131338828Y-96544250D01*
X131338828Y-97031750D01*
X131355772Y-97203785D01*
X131405953Y-97369209D01*
X131487442Y-97521664D01*
X131597108Y-97655292D01*
X131730736Y-97764958D01*
X131883191Y-97846447D01*
X132048615Y-97896628D01*
X132220650Y-97913572D01*
X132525423Y-97913572D01*
X132621148Y-97923000D01*
X133493000Y-97923000D01*
X133493001Y-99637300D01*
X133124107Y-99637300D01*
X133105632Y-99618825D01*
X132862411Y-99456310D01*
X132592158Y-99344368D01*
X132305260Y-99287300D01*
X132012740Y-99287300D01*
X131725842Y-99344368D01*
X131455589Y-99456310D01*
X131212368Y-99618825D01*
X131005525Y-99825668D01*
X130843010Y-100068889D01*
X130731068Y-100339142D01*
X130674000Y-100626040D01*
X130674000Y-100918560D01*
X130731068Y-101205458D01*
X130843010Y-101475711D01*
X131005525Y-101718932D01*
X131137380Y-101850787D01*
X131064820Y-101872798D01*
X130954506Y-101931763D01*
X130857815Y-102011115D01*
X130778463Y-102107806D01*
X130719498Y-102218120D01*
X130683188Y-102337818D01*
X130670928Y-102462300D01*
X130250000Y-102462300D01*
X130250000Y-94425500D01*
X131338828Y-94425500D01*
X131341900Y-94627250D01*
X131500650Y-94786000D01*
X132549900Y-94786000D01*
X132549900Y-93949250D01*
X132391150Y-93790500D01*
X131976900Y-93787428D01*
X131852418Y-93799688D01*
X131732720Y-93835998D01*
X131622406Y-93894963D01*
X131525715Y-93974315D01*
X131446363Y-94071006D01*
X131387398Y-94181320D01*
X131351088Y-94301018D01*
X131338828Y-94425500D01*
X130250000Y-94425500D01*
X130250000Y-92910300D01*
X131439928Y-92910300D01*
X131452188Y-93034782D01*
X131488498Y-93154480D01*
X131547463Y-93264794D01*
X131626815Y-93361485D01*
X131723506Y-93440837D01*
X131833820Y-93499802D01*
X131953518Y-93536112D01*
X132078000Y-93548372D01*
X132542250Y-93545300D01*
X132701000Y-93386550D01*
X132701000Y-92037300D01*
X131601750Y-92037300D01*
X131443000Y-92196050D01*
X131439928Y-92910300D01*
X130250000Y-92910300D01*
X130250000Y-90910300D01*
X131439928Y-90910300D01*
X131443000Y-91624550D01*
X131601750Y-91783300D01*
X132701000Y-91783300D01*
X132701000Y-90434050D01*
X132542250Y-90275300D01*
X132078000Y-90272228D01*
X131953518Y-90284488D01*
X131833820Y-90320798D01*
X131723506Y-90379763D01*
X131626815Y-90459115D01*
X131547463Y-90555806D01*
X131488498Y-90666120D01*
X131452188Y-90785818D01*
X131439928Y-90910300D01*
X130250000Y-90910300D01*
X130250000Y-82726900D01*
X133057828Y-82726900D01*
X133070088Y-82851382D01*
X133106398Y-82971080D01*
X133165363Y-83081394D01*
X133244715Y-83178085D01*
X133341406Y-83257437D01*
X133451720Y-83316402D01*
X133571418Y-83352712D01*
X133695900Y-83364972D01*
X133897650Y-83361900D01*
X134056400Y-83203150D01*
X134056400Y-82153900D01*
X133219650Y-82153900D01*
X133060900Y-82312650D01*
X133057828Y-82726900D01*
X130250000Y-82726900D01*
X130250000Y-81326900D01*
X133057828Y-81326900D01*
X133060900Y-81741150D01*
X133219650Y-81899900D01*
X134056400Y-81899900D01*
X134056400Y-80850650D01*
X133897650Y-80691900D01*
X133695900Y-80688828D01*
X133571418Y-80701088D01*
X133451720Y-80737398D01*
X133341406Y-80796363D01*
X133244715Y-80875715D01*
X133165363Y-80972406D01*
X133106398Y-81082720D01*
X133070088Y-81202418D01*
X133057828Y-81326900D01*
X130250000Y-81326900D01*
X130250000Y-79833700D01*
X133057828Y-79833700D01*
X133070088Y-79958182D01*
X133106398Y-80077880D01*
X133165363Y-80188194D01*
X133244715Y-80284885D01*
X133341406Y-80364237D01*
X133451720Y-80423202D01*
X133571418Y-80459512D01*
X133695900Y-80471772D01*
X133897650Y-80468700D01*
X134056400Y-80309950D01*
X134056400Y-79260700D01*
X133219650Y-79260700D01*
X133060900Y-79419450D01*
X133057828Y-79833700D01*
X130250000Y-79833700D01*
X130250000Y-78433700D01*
X133057828Y-78433700D01*
X133060900Y-78847950D01*
X133219650Y-79006700D01*
X134056400Y-79006700D01*
X134056400Y-77957450D01*
X133897650Y-77798700D01*
X133695900Y-77795628D01*
X133571418Y-77807888D01*
X133451720Y-77844198D01*
X133341406Y-77903163D01*
X133244715Y-77982515D01*
X133165363Y-78079206D01*
X133106398Y-78189520D01*
X133070088Y-78309218D01*
X133057828Y-78433700D01*
X130250000Y-78433700D01*
X130250000Y-76783000D01*
X151222401Y-76783000D01*
X151220788Y-76788318D01*
G37*
X151220788Y-76788318D02*
X151208528Y-76912800D01*
X151211600Y-78377050D01*
X151370350Y-78535800D01*
X153469600Y-78535800D01*
X153469600Y-78515800D01*
X153723600Y-78515800D01*
X153723600Y-78535800D01*
X155822850Y-78535800D01*
X155981600Y-78377050D01*
X155984672Y-76912800D01*
X155972412Y-76788318D01*
X155970799Y-76783000D01*
X158830000Y-76783000D01*
X158830000Y-90389187D01*
X158820096Y-90339395D01*
X158719461Y-90096441D01*
X158573362Y-89877787D01*
X158387413Y-89691838D01*
X158168759Y-89545739D01*
X157925805Y-89445104D01*
X157667886Y-89393800D01*
X157404914Y-89393800D01*
X157146995Y-89445104D01*
X156904041Y-89545739D01*
X156685387Y-89691838D01*
X156499438Y-89877787D01*
X156353339Y-90096441D01*
X156252704Y-90339395D01*
X156201400Y-90597314D01*
X156201400Y-90860286D01*
X156252704Y-91118205D01*
X156353339Y-91361159D01*
X156499438Y-91579813D01*
X156685387Y-91765762D01*
X156904041Y-91911861D01*
X157065646Y-91978800D01*
X156904041Y-92045739D01*
X156685387Y-92191838D01*
X156499438Y-92377787D01*
X156353339Y-92596441D01*
X156252704Y-92839395D01*
X156201400Y-93097314D01*
X156201400Y-93360286D01*
X156252704Y-93618205D01*
X156353339Y-93861159D01*
X156499438Y-94079813D01*
X156685387Y-94265762D01*
X156904041Y-94411861D01*
X157065646Y-94478800D01*
X156904041Y-94545739D01*
X156685387Y-94691838D01*
X156499438Y-94877787D01*
X156353339Y-95096441D01*
X156252704Y-95339395D01*
X156201400Y-95597314D01*
X156201400Y-95860286D01*
X156252704Y-96118205D01*
X156353339Y-96361159D01*
X156499438Y-96579813D01*
X156685387Y-96765762D01*
X156904041Y-96911861D01*
X157146995Y-97012496D01*
X157404914Y-97063800D01*
X157667886Y-97063800D01*
X157925805Y-97012496D01*
X158168759Y-96911861D01*
X158387413Y-96765762D01*
X158573362Y-96579813D01*
X158719461Y-96361159D01*
X158820096Y-96118205D01*
X158830001Y-96068412D01*
X158830001Y-105363000D01*
X130250000Y-105363000D01*
X130250000Y-104162300D01*
X130670928Y-104162300D01*
X130683188Y-104286782D01*
X130719498Y-104406480D01*
X130778463Y-104516794D01*
X130857815Y-104613485D01*
X130954506Y-104692837D01*
X131064820Y-104751802D01*
X131184518Y-104788112D01*
X131309000Y-104800372D01*
X131873250Y-104797300D01*
X132032000Y-104638550D01*
X132032000Y-103439300D01*
X132286000Y-103439300D01*
X132286000Y-104638550D01*
X132444750Y-104797300D01*
X133009000Y-104800372D01*
X133133482Y-104788112D01*
X133253180Y-104751802D01*
X133363494Y-104692837D01*
X133460185Y-104613485D01*
X133539537Y-104516794D01*
X133598502Y-104406480D01*
X133622966Y-104325834D01*
X133698731Y-104409888D01*
X133932080Y-104583941D01*
X134194901Y-104709125D01*
X134342110Y-104753776D01*
X134572000Y-104632455D01*
X134572000Y-103439300D01*
X134826000Y-103439300D01*
X134826000Y-104632455D01*
X135055890Y-104753776D01*
X135203099Y-104709125D01*
X135465920Y-104583941D01*
X135699269Y-104409888D01*
X135894178Y-104193655D01*
X135969000Y-104068045D01*
X136043822Y-104193655D01*
X136238731Y-104409888D01*
X136472080Y-104583941D01*
X136734901Y-104709125D01*
X136882110Y-104753776D01*
X137112000Y-104632455D01*
X137112000Y-103439300D01*
X137366000Y-103439300D01*
X137366000Y-104632455D01*
X137595890Y-104753776D01*
X137743099Y-104709125D01*
X138005920Y-104583941D01*
X138239269Y-104409888D01*
X138434178Y-104193655D01*
X138452855Y-104162300D01*
X140670928Y-104162300D01*
X140683188Y-104286782D01*
X140719498Y-104406480D01*
X140778463Y-104516794D01*
X140857815Y-104613485D01*
X140954506Y-104692837D01*
X141064820Y-104751802D01*
X141184518Y-104788112D01*
X141309000Y-104800372D01*
X141873250Y-104797300D01*
X142032000Y-104638550D01*
X142032000Y-103439300D01*
X142286000Y-103439300D01*
X142286000Y-104638550D01*
X142444750Y-104797300D01*
X143009000Y-104800372D01*
X143133482Y-104788112D01*
X143253180Y-104751802D01*
X143363494Y-104692837D01*
X143460185Y-104613485D01*
X143539537Y-104516794D01*
X143598502Y-104406480D01*
X143622966Y-104325834D01*
X143698731Y-104409888D01*
X143932080Y-104583941D01*
X144194901Y-104709125D01*
X144342110Y-104753776D01*
X144572000Y-104632455D01*
X144572000Y-103439300D01*
X144826000Y-103439300D01*
X144826000Y-104632455D01*
X145055890Y-104753776D01*
X145203099Y-104709125D01*
X145465920Y-104583941D01*
X145699269Y-104409888D01*
X145894178Y-104193655D01*
X145969000Y-104068045D01*
X146043822Y-104193655D01*
X146238731Y-104409888D01*
X146472080Y-104583941D01*
X146734901Y-104709125D01*
X146882110Y-104753776D01*
X147112000Y-104632455D01*
X147112000Y-103439300D01*
X147366000Y-103439300D01*
X147366000Y-104632455D01*
X147595890Y-104753776D01*
X147743099Y-104709125D01*
X148005920Y-104583941D01*
X148239269Y-104409888D01*
X148434178Y-104193655D01*
X148452855Y-104162300D01*
X150670928Y-104162300D01*
X150683188Y-104286782D01*
X150719498Y-104406480D01*
X150778463Y-104516794D01*
X150857815Y-104613485D01*
X150954506Y-104692837D01*
X151064820Y-104751802D01*
X151184518Y-104788112D01*
X151309000Y-104800372D01*
X151873250Y-104797300D01*
X152032000Y-104638550D01*
X152032000Y-103439300D01*
X152286000Y-103439300D01*
X152286000Y-104638550D01*
X152444750Y-104797300D01*
X153009000Y-104800372D01*
X153133482Y-104788112D01*
X153253180Y-104751802D01*
X153363494Y-104692837D01*
X153460185Y-104613485D01*
X153539537Y-104516794D01*
X153598502Y-104406480D01*
X153622966Y-104325834D01*
X153698731Y-104409888D01*
X153932080Y-104583941D01*
X154194901Y-104709125D01*
X154342110Y-104753776D01*
X154572000Y-104632455D01*
X154572000Y-103439300D01*
X154826000Y-103439300D01*
X154826000Y-104632455D01*
X155055890Y-104753776D01*
X155203099Y-104709125D01*
X155465920Y-104583941D01*
X155699269Y-104409888D01*
X155894178Y-104193655D01*
X155969000Y-104068045D01*
X156043822Y-104193655D01*
X156238731Y-104409888D01*
X156472080Y-104583941D01*
X156734901Y-104709125D01*
X156882110Y-104753776D01*
X157112000Y-104632455D01*
X157112000Y-103439300D01*
X157366000Y-103439300D01*
X157366000Y-104632455D01*
X157595890Y-104753776D01*
X157743099Y-104709125D01*
X158005920Y-104583941D01*
X158239269Y-104409888D01*
X158434178Y-104193655D01*
X158583157Y-103943552D01*
X158680481Y-103669191D01*
X158559814Y-103439300D01*
X157366000Y-103439300D01*
X157112000Y-103439300D01*
X154826000Y-103439300D01*
X154572000Y-103439300D01*
X152286000Y-103439300D01*
X152032000Y-103439300D01*
X150832750Y-103439300D01*
X150674000Y-103598050D01*
X150670928Y-104162300D01*
X148452855Y-104162300D01*
X148583157Y-103943552D01*
X148680481Y-103669191D01*
X148559814Y-103439300D01*
X147366000Y-103439300D01*
X147112000Y-103439300D01*
X144826000Y-103439300D01*
X144572000Y-103439300D01*
X142286000Y-103439300D01*
X142032000Y-103439300D01*
X140832750Y-103439300D01*
X140674000Y-103598050D01*
X140670928Y-104162300D01*
X138452855Y-104162300D01*
X138583157Y-103943552D01*
X138680481Y-103669191D01*
X138559814Y-103439300D01*
X137366000Y-103439300D01*
X137112000Y-103439300D01*
X134826000Y-103439300D01*
X134572000Y-103439300D01*
X132286000Y-103439300D01*
X132032000Y-103439300D01*
X130832750Y-103439300D01*
X130674000Y-103598050D01*
X130670928Y-104162300D01*
X130250000Y-104162300D01*
X130250000Y-102462300D01*
X130670928Y-102462300D01*
X130674000Y-103026550D01*
X130832750Y-103185300D01*
X132032000Y-103185300D01*
X132032000Y-103165300D01*
X132286000Y-103165300D01*
X132286000Y-103185300D01*
X134572000Y-103185300D01*
X134572000Y-103165300D01*
X134826000Y-103165300D01*
X134826000Y-103185300D01*
X137112000Y-103185300D01*
X137112000Y-103165300D01*
X137366000Y-103165300D01*
X137366000Y-103185300D01*
X138559814Y-103185300D01*
X138680481Y-102955409D01*
X138583157Y-102681048D01*
X138434178Y-102430945D01*
X138239269Y-102214712D01*
X138009594Y-102043400D01*
X138185632Y-101925775D01*
X138392475Y-101718932D01*
X138554990Y-101475711D01*
X138666932Y-101205458D01*
X138724000Y-100918560D01*
X138724000Y-100626040D01*
X138666932Y-100339142D01*
X138554990Y-100068889D01*
X138392475Y-99825668D01*
X138185632Y-99618825D01*
X137942411Y-99456310D01*
X137672158Y-99344368D01*
X137385260Y-99287300D01*
X137092740Y-99287300D01*
X136805842Y-99344368D01*
X136763000Y-99362114D01*
X136763000Y-97923000D01*
X137457052Y-97923000D01*
X137552777Y-97913572D01*
X137857550Y-97913572D01*
X138029585Y-97896628D01*
X138195009Y-97846447D01*
X138347464Y-97764958D01*
X138481092Y-97655292D01*
X138590758Y-97521664D01*
X138672247Y-97369209D01*
X138722428Y-97203785D01*
X138739372Y-97031750D01*
X138739372Y-96544250D01*
X138722428Y-96372215D01*
X138672247Y-96206791D01*
X138590758Y-96054336D01*
X138481092Y-95920708D01*
X138474736Y-95915492D01*
X138552485Y-95851685D01*
X138631837Y-95754994D01*
X138690802Y-95644680D01*
X138727112Y-95524982D01*
X138739372Y-95400500D01*
X138736300Y-95198750D01*
X138577550Y-95040000D01*
X137528300Y-95040000D01*
X137528300Y-95060000D01*
X137274300Y-95060000D01*
X137274300Y-95040000D01*
X137254300Y-95040000D01*
X137254300Y-94786000D01*
X137274300Y-94786000D01*
X137274300Y-93949250D01*
X137528300Y-93949250D01*
X137528300Y-94786000D01*
X138577550Y-94786000D01*
X138736300Y-94627250D01*
X138739372Y-94425500D01*
X140470128Y-94425500D01*
X140473200Y-94627250D01*
X140631950Y-94786000D01*
X141681200Y-94786000D01*
X141681200Y-93949250D01*
X141522450Y-93790500D01*
X141108200Y-93787428D01*
X140983718Y-93799688D01*
X140864020Y-93835998D01*
X140753706Y-93894963D01*
X140657015Y-93974315D01*
X140577663Y-94071006D01*
X140518698Y-94181320D01*
X140482388Y-94301018D01*
X140470128Y-94425500D01*
X138739372Y-94425500D01*
X138727112Y-94301018D01*
X138690802Y-94181320D01*
X138631837Y-94071006D01*
X138552485Y-93974315D01*
X138455794Y-93894963D01*
X138345480Y-93835998D01*
X138225782Y-93799688D01*
X138101300Y-93787428D01*
X137687050Y-93790500D01*
X137528300Y-93949250D01*
X137274300Y-93949250D01*
X137115550Y-93790500D01*
X136763000Y-93787886D01*
X136763000Y-93548372D01*
X138178000Y-93548372D01*
X138302482Y-93536112D01*
X138422180Y-93499802D01*
X138532494Y-93440837D01*
X138629185Y-93361485D01*
X138708537Y-93264794D01*
X138767502Y-93154480D01*
X138803812Y-93034782D01*
X138809818Y-92973800D01*
X140583928Y-92973800D01*
X140596188Y-93098282D01*
X140632498Y-93217980D01*
X140691463Y-93328294D01*
X140770815Y-93424985D01*
X140867506Y-93504337D01*
X140977820Y-93563302D01*
X141097518Y-93599612D01*
X141222000Y-93611872D01*
X141686250Y-93608800D01*
X141845000Y-93450050D01*
X141845000Y-92100800D01*
X140745750Y-92100800D01*
X140587000Y-92259550D01*
X140583928Y-92973800D01*
X138809818Y-92973800D01*
X138816072Y-92910300D01*
X138816072Y-90973800D01*
X140583928Y-90973800D01*
X140587000Y-91688050D01*
X140745750Y-91846800D01*
X141845000Y-91846800D01*
X141845000Y-90497550D01*
X141686250Y-90338800D01*
X141222000Y-90335728D01*
X141097518Y-90347988D01*
X140977820Y-90384298D01*
X140867506Y-90443263D01*
X140770815Y-90522615D01*
X140691463Y-90619306D01*
X140632498Y-90729620D01*
X140596188Y-90849318D01*
X140583928Y-90973800D01*
X138816072Y-90973800D01*
X138816072Y-90910300D01*
X138803812Y-90785818D01*
X138767502Y-90666120D01*
X138708537Y-90555806D01*
X138629185Y-90459115D01*
X138563000Y-90404799D01*
X138563000Y-90380432D01*
X139085195Y-89858237D01*
X139128499Y-89822699D01*
X139239207Y-89687802D01*
X139270334Y-89649873D01*
X139375726Y-89452697D01*
X139440627Y-89238749D01*
X139462541Y-89016250D01*
X139457050Y-88960498D01*
X139457050Y-82726900D01*
X142057828Y-82726900D01*
X142070088Y-82851382D01*
X142106398Y-82971080D01*
X142165363Y-83081394D01*
X142244715Y-83178085D01*
X142341406Y-83257437D01*
X142451720Y-83316402D01*
X142571418Y-83352712D01*
X142695900Y-83364972D01*
X142897650Y-83361900D01*
X143056400Y-83203150D01*
X143056400Y-82153900D01*
X142219650Y-82153900D01*
X142060900Y-82312650D01*
X142057828Y-82726900D01*
X139457050Y-82726900D01*
X139457050Y-82112082D01*
X139807242Y-81761890D01*
X142081640Y-81761890D01*
X142219650Y-81899900D01*
X143056400Y-81899900D01*
X143056400Y-81879900D01*
X143310400Y-81879900D01*
X143310400Y-81899900D01*
X143330400Y-81899900D01*
X143330400Y-82153900D01*
X143310400Y-82153900D01*
X143310400Y-83203150D01*
X143469150Y-83361900D01*
X143670900Y-83364972D01*
X143795382Y-83352712D01*
X143915080Y-83316402D01*
X144025394Y-83257437D01*
X144122085Y-83178085D01*
X144185892Y-83100336D01*
X144191108Y-83106692D01*
X144324736Y-83216358D01*
X144477191Y-83297847D01*
X144642615Y-83348028D01*
X144814650Y-83364972D01*
X145302150Y-83364972D01*
X145474185Y-83348028D01*
X145639609Y-83297847D01*
X145792064Y-83216358D01*
X145822691Y-83191223D01*
X146464401Y-83832933D01*
X146464401Y-84110073D01*
X146416180Y-84084298D01*
X146296482Y-84047988D01*
X146172000Y-84035728D01*
X144321131Y-84035728D01*
X144272000Y-84030889D01*
X144222869Y-84035728D01*
X142372000Y-84035728D01*
X142247518Y-84047988D01*
X142127820Y-84084298D01*
X142017506Y-84143263D01*
X141920815Y-84222615D01*
X141841463Y-84319306D01*
X141782498Y-84429620D01*
X141746188Y-84549318D01*
X141733928Y-84673800D01*
X141733928Y-85454348D01*
X141713000Y-85559561D01*
X141713000Y-85763439D01*
X141733928Y-85868652D01*
X141733928Y-86673800D01*
X141746188Y-86798282D01*
X141782498Y-86917980D01*
X141841463Y-87028294D01*
X141920815Y-87124985D01*
X142017506Y-87204337D01*
X142127820Y-87263302D01*
X142247518Y-87299612D01*
X142372000Y-87311872D01*
X142637001Y-87311872D01*
X142637000Y-90336290D01*
X142257750Y-90338800D01*
X142099000Y-90497550D01*
X142099000Y-91846800D01*
X142119000Y-91846800D01*
X142119000Y-92100800D01*
X142099000Y-92100800D01*
X142099000Y-93450050D01*
X142257750Y-93608800D01*
X142637000Y-93611310D01*
X142637000Y-93800998D01*
X142632682Y-93799688D01*
X142508200Y-93787428D01*
X142093950Y-93790500D01*
X141935200Y-93949250D01*
X141935200Y-94786000D01*
X141955200Y-94786000D01*
X141955200Y-95040000D01*
X141935200Y-95040000D01*
X141935200Y-95060000D01*
X141681200Y-95060000D01*
X141681200Y-95040000D01*
X140631950Y-95040000D01*
X140473200Y-95198750D01*
X140470128Y-95400500D01*
X140482388Y-95524982D01*
X140518698Y-95644680D01*
X140577663Y-95754994D01*
X140657015Y-95851685D01*
X140734764Y-95915492D01*
X140728408Y-95920708D01*
X140618742Y-96054336D01*
X140537253Y-96206791D01*
X140487072Y-96372215D01*
X140470128Y-96544250D01*
X140470128Y-97031750D01*
X140487072Y-97203785D01*
X140537253Y-97369209D01*
X140618742Y-97521664D01*
X140728408Y-97655292D01*
X140862036Y-97764958D01*
X141014491Y-97846447D01*
X141179915Y-97896628D01*
X141351950Y-97913572D01*
X141656723Y-97913572D01*
X141752448Y-97923000D01*
X142637000Y-97923000D01*
X142637001Y-99362942D01*
X142592158Y-99344368D01*
X142305260Y-99287300D01*
X142012740Y-99287300D01*
X141725842Y-99344368D01*
X141455589Y-99456310D01*
X141212368Y-99618825D01*
X141005525Y-99825668D01*
X140843010Y-100068889D01*
X140731068Y-100339142D01*
X140674000Y-100626040D01*
X140674000Y-100918560D01*
X140731068Y-101205458D01*
X140843010Y-101475711D01*
X141005525Y-101718932D01*
X141137380Y-101850787D01*
X141064820Y-101872798D01*
X140954506Y-101931763D01*
X140857815Y-102011115D01*
X140778463Y-102107806D01*
X140719498Y-102218120D01*
X140683188Y-102337818D01*
X140670928Y-102462300D01*
X140674000Y-103026550D01*
X140832750Y-103185300D01*
X142032000Y-103185300D01*
X142032000Y-103165300D01*
X142286000Y-103165300D01*
X142286000Y-103185300D01*
X144572000Y-103185300D01*
X144572000Y-103165300D01*
X144826000Y-103165300D01*
X144826000Y-103185300D01*
X147112000Y-103185300D01*
X147112000Y-103165300D01*
X147366000Y-103165300D01*
X147366000Y-103185300D01*
X148559814Y-103185300D01*
X148680481Y-102955409D01*
X148583157Y-102681048D01*
X148434178Y-102430945D01*
X148239269Y-102214712D01*
X148009594Y-102043400D01*
X148185632Y-101925775D01*
X148392475Y-101718932D01*
X148554990Y-101475711D01*
X148666932Y-101205458D01*
X148724000Y-100918560D01*
X148724000Y-100626040D01*
X148666932Y-100339142D01*
X148554990Y-100068889D01*
X148392475Y-99825668D01*
X148185632Y-99618825D01*
X147942411Y-99456310D01*
X147672158Y-99344368D01*
X147385260Y-99287300D01*
X147092740Y-99287300D01*
X146805842Y-99344368D01*
X146535589Y-99456310D01*
X146292368Y-99618825D01*
X146273893Y-99637300D01*
X145907000Y-99637300D01*
X145907000Y-97923000D01*
X146715352Y-97923000D01*
X146811077Y-97913572D01*
X147115850Y-97913572D01*
X147287885Y-97896628D01*
X147453309Y-97846447D01*
X147605764Y-97764958D01*
X147739392Y-97655292D01*
X147849058Y-97521664D01*
X147930547Y-97369209D01*
X147980728Y-97203785D01*
X147997672Y-97031750D01*
X147997672Y-96544250D01*
X147980728Y-96372215D01*
X147930547Y-96206791D01*
X147849058Y-96054336D01*
X147739392Y-95920708D01*
X147733036Y-95915492D01*
X147810785Y-95851685D01*
X147890137Y-95754994D01*
X147949102Y-95644680D01*
X147985412Y-95524982D01*
X147997672Y-95400500D01*
X147994600Y-95198750D01*
X147835850Y-95040000D01*
X146786600Y-95040000D01*
X146786600Y-95060000D01*
X146532600Y-95060000D01*
X146532600Y-95040000D01*
X146512600Y-95040000D01*
X146512600Y-94786000D01*
X146532600Y-94786000D01*
X146532600Y-93949250D01*
X146373850Y-93790500D01*
X145959600Y-93787428D01*
X145907000Y-93792608D01*
X145907000Y-93611872D01*
X147264441Y-93611872D01*
X147448780Y-93796211D01*
X147359600Y-93787428D01*
X146945350Y-93790500D01*
X146786600Y-93949250D01*
X146786600Y-94786000D01*
X147835850Y-94786000D01*
X147994600Y-94627250D01*
X147997672Y-94425500D01*
X147988889Y-94336320D01*
X150144509Y-96491941D01*
X150180051Y-96535249D01*
X150352877Y-96677084D01*
X150518783Y-96765762D01*
X150550053Y-96782476D01*
X150764001Y-96847377D01*
X150815059Y-96852406D01*
X150904041Y-96911861D01*
X151146995Y-97012496D01*
X151404914Y-97063800D01*
X151667886Y-97063800D01*
X151925805Y-97012496D01*
X152168759Y-96911861D01*
X152387413Y-96765762D01*
X152573362Y-96579813D01*
X152719461Y-96361159D01*
X152820096Y-96118205D01*
X152871400Y-95860286D01*
X152871400Y-95597314D01*
X152820096Y-95339395D01*
X152719461Y-95096441D01*
X152573362Y-94877787D01*
X152387413Y-94691838D01*
X152168759Y-94545739D01*
X152007154Y-94478800D01*
X152168759Y-94411861D01*
X152240688Y-94363800D01*
X153564000Y-94363800D01*
X153564001Y-99514458D01*
X153564000Y-99514468D01*
X153564000Y-99637300D01*
X153124107Y-99637300D01*
X153105632Y-99618825D01*
X152862411Y-99456310D01*
X152592158Y-99344368D01*
X152305260Y-99287300D01*
X152012740Y-99287300D01*
X151725842Y-99344368D01*
X151455589Y-99456310D01*
X151212368Y-99618825D01*
X151005525Y-99825668D01*
X150843010Y-100068889D01*
X150731068Y-100339142D01*
X150674000Y-100626040D01*
X150674000Y-100918560D01*
X150731068Y-101205458D01*
X150843010Y-101475711D01*
X151005525Y-101718932D01*
X151137380Y-101850787D01*
X151064820Y-101872798D01*
X150954506Y-101931763D01*
X150857815Y-102011115D01*
X150778463Y-102107806D01*
X150719498Y-102218120D01*
X150683188Y-102337818D01*
X150670928Y-102462300D01*
X150674000Y-103026550D01*
X150832750Y-103185300D01*
X152032000Y-103185300D01*
X152032000Y-103165300D01*
X152286000Y-103165300D01*
X152286000Y-103185300D01*
X154572000Y-103185300D01*
X154572000Y-103165300D01*
X154826000Y-103165300D01*
X154826000Y-103185300D01*
X157112000Y-103185300D01*
X157112000Y-103165300D01*
X157366000Y-103165300D01*
X157366000Y-103185300D01*
X158559814Y-103185300D01*
X158680481Y-102955409D01*
X158583157Y-102681048D01*
X158434178Y-102430945D01*
X158239269Y-102214712D01*
X158009594Y-102043400D01*
X158185632Y-101925775D01*
X158392475Y-101718932D01*
X158554990Y-101475711D01*
X158666932Y-101205458D01*
X158724000Y-100918560D01*
X158724000Y-100626040D01*
X158666932Y-100339142D01*
X158554990Y-100068889D01*
X158392475Y-99825668D01*
X158185632Y-99618825D01*
X157942411Y-99456310D01*
X157672158Y-99344368D01*
X157385260Y-99287300D01*
X157092740Y-99287300D01*
X156805842Y-99344368D01*
X156535589Y-99456310D01*
X156292368Y-99618825D01*
X156273893Y-99637300D01*
X155834000Y-99637300D01*
X155834000Y-93312141D01*
X155839490Y-93256399D01*
X155834000Y-93200658D01*
X155834000Y-90270952D01*
X155839491Y-90215200D01*
X155817577Y-89992701D01*
X155752676Y-89778753D01*
X155647284Y-89581577D01*
X155540989Y-89452056D01*
X155540987Y-89452054D01*
X155505449Y-89408751D01*
X155462146Y-89373213D01*
X151839803Y-85750872D01*
X152346600Y-85750872D01*
X152471082Y-85738612D01*
X152590780Y-85702302D01*
X152701094Y-85643337D01*
X152797785Y-85563985D01*
X152877137Y-85467294D01*
X152936102Y-85356980D01*
X152972412Y-85237282D01*
X152984672Y-85112800D01*
X154458528Y-85112800D01*
X154470788Y-85237282D01*
X154507098Y-85356980D01*
X154566063Y-85467294D01*
X154645415Y-85563985D01*
X154742106Y-85643337D01*
X154852420Y-85702302D01*
X154972118Y-85738612D01*
X155096600Y-85750872D01*
X156310850Y-85747800D01*
X156469600Y-85589050D01*
X156469600Y-83489800D01*
X156723600Y-83489800D01*
X156723600Y-85589050D01*
X156882350Y-85747800D01*
X158096600Y-85750872D01*
X158221082Y-85738612D01*
X158340780Y-85702302D01*
X158451094Y-85643337D01*
X158547785Y-85563985D01*
X158627137Y-85467294D01*
X158686102Y-85356980D01*
X158722412Y-85237282D01*
X158734672Y-85112800D01*
X158731600Y-83648550D01*
X158572850Y-83489800D01*
X156723600Y-83489800D01*
X156469600Y-83489800D01*
X154620350Y-83489800D01*
X154461600Y-83648550D01*
X154458528Y-85112800D01*
X152984672Y-85112800D01*
X152984672Y-81612800D01*
X152972412Y-81488318D01*
X152936102Y-81368620D01*
X152877137Y-81258306D01*
X152797785Y-81161615D01*
X152701094Y-81082263D01*
X152639255Y-81049209D01*
X153310850Y-81047800D01*
X153469600Y-80889050D01*
X153469600Y-78789800D01*
X153723600Y-78789800D01*
X153723600Y-80889050D01*
X153882350Y-81047800D01*
X154802967Y-81049731D01*
X154742106Y-81082263D01*
X154645415Y-81161615D01*
X154566063Y-81258306D01*
X154507098Y-81368620D01*
X154470788Y-81488318D01*
X154458528Y-81612800D01*
X154461600Y-83077050D01*
X154620350Y-83235800D01*
X156469600Y-83235800D01*
X156469600Y-81136550D01*
X156723600Y-81136550D01*
X156723600Y-83235800D01*
X158572850Y-83235800D01*
X158731600Y-83077050D01*
X158734672Y-81612800D01*
X158722412Y-81488318D01*
X158686102Y-81368620D01*
X158627137Y-81258306D01*
X158547785Y-81161615D01*
X158451094Y-81082263D01*
X158340780Y-81023298D01*
X158221082Y-80986988D01*
X158096600Y-80974728D01*
X156882350Y-80977800D01*
X156723600Y-81136550D01*
X156469600Y-81136550D01*
X156310850Y-80977800D01*
X155639795Y-80976102D01*
X155701094Y-80943337D01*
X155797785Y-80863985D01*
X155877137Y-80767294D01*
X155936102Y-80656980D01*
X155972412Y-80537282D01*
X155984672Y-80412800D01*
X155981600Y-78948550D01*
X155822850Y-78789800D01*
X153723600Y-78789800D01*
X153469600Y-78789800D01*
X151370350Y-78789800D01*
X151211600Y-78948550D01*
X151208528Y-80412800D01*
X151220788Y-80537282D01*
X151257098Y-80656980D01*
X151316063Y-80767294D01*
X151395415Y-80863985D01*
X151492106Y-80943337D01*
X151550833Y-80974728D01*
X148846600Y-80974728D01*
X148722118Y-80986988D01*
X148602420Y-81023298D01*
X148492106Y-81082263D01*
X148395415Y-81161615D01*
X148316063Y-81258306D01*
X148257098Y-81368620D01*
X148220788Y-81488318D01*
X148208528Y-81612800D01*
X148208528Y-82366796D01*
X147105496Y-81263765D01*
X147069949Y-81220451D01*
X146897123Y-81078616D01*
X146699947Y-80973224D01*
X146485999Y-80908323D01*
X146319252Y-80891900D01*
X146319251Y-80891900D01*
X146263500Y-80886409D01*
X146207749Y-80891900D01*
X146193400Y-80891900D01*
X146193400Y-80864852D01*
X146198891Y-80809100D01*
X146193400Y-80753348D01*
X146193400Y-79065248D01*
X146183972Y-78969523D01*
X146183972Y-78664750D01*
X146167028Y-78492715D01*
X146116847Y-78327291D01*
X146035358Y-78174836D01*
X145925692Y-78041208D01*
X145792064Y-77931542D01*
X145639609Y-77850053D01*
X145474185Y-77799872D01*
X145302150Y-77782928D01*
X144814650Y-77782928D01*
X144642615Y-77799872D01*
X144477191Y-77850053D01*
X144324736Y-77931542D01*
X144191108Y-78041208D01*
X144120900Y-78126756D01*
X144050692Y-78041208D01*
X143917064Y-77931542D01*
X143764609Y-77850053D01*
X143599185Y-77799872D01*
X143427150Y-77782928D01*
X142939650Y-77782928D01*
X142767615Y-77799872D01*
X142602191Y-77850053D01*
X142449736Y-77931542D01*
X142367904Y-77998700D01*
X136858421Y-77998700D01*
X136792064Y-77944242D01*
X136639609Y-77862753D01*
X136474185Y-77812572D01*
X136302150Y-77795628D01*
X135814650Y-77795628D01*
X135642615Y-77812572D01*
X135477191Y-77862753D01*
X135324736Y-77944242D01*
X135191108Y-78053908D01*
X135185892Y-78060264D01*
X135122085Y-77982515D01*
X135025394Y-77903163D01*
X134915080Y-77844198D01*
X134795382Y-77807888D01*
X134670900Y-77795628D01*
X134469150Y-77798700D01*
X134310400Y-77957450D01*
X134310400Y-79006700D01*
X134330400Y-79006700D01*
X134330400Y-79260700D01*
X134310400Y-79260700D01*
X134310400Y-80309950D01*
X134469150Y-80468700D01*
X134670900Y-80471772D01*
X134795382Y-80459512D01*
X134915080Y-80423202D01*
X135025394Y-80364237D01*
X135122085Y-80284885D01*
X135185892Y-80207136D01*
X135191108Y-80213492D01*
X135324736Y-80323158D01*
X135477191Y-80404647D01*
X135642615Y-80454828D01*
X135814650Y-80471772D01*
X136302150Y-80471772D01*
X136474185Y-80454828D01*
X136639609Y-80404647D01*
X136792064Y-80323158D01*
X136858421Y-80268700D01*
X138090168Y-80268700D01*
X137558914Y-80799955D01*
X137515601Y-80835501D01*
X137480061Y-80878807D01*
X137466968Y-80891900D01*
X136858421Y-80891900D01*
X136792064Y-80837442D01*
X136639609Y-80755953D01*
X136474185Y-80705772D01*
X136302150Y-80688828D01*
X135814650Y-80688828D01*
X135642615Y-80705772D01*
X135477191Y-80755953D01*
X135324736Y-80837442D01*
X135191108Y-80947108D01*
X135185892Y-80953464D01*
X135122085Y-80875715D01*
X135025394Y-80796363D01*
X134915080Y-80737398D01*
X134795382Y-80701088D01*
X134670900Y-80688828D01*
X134469150Y-80691900D01*
X134310400Y-80850650D01*
X134310400Y-81899900D01*
X134330400Y-81899900D01*
X134330400Y-82153900D01*
X134310400Y-82153900D01*
X134310400Y-83203150D01*
X134469150Y-83361900D01*
X134670900Y-83364972D01*
X134795382Y-83352712D01*
X134915080Y-83316402D01*
X135025394Y-83257437D01*
X135122085Y-83178085D01*
X135185892Y-83100336D01*
X135191108Y-83106692D01*
X135324736Y-83216358D01*
X135477191Y-83297847D01*
X135642615Y-83348028D01*
X135814650Y-83364972D01*
X136302150Y-83364972D01*
X136474185Y-83348028D01*
X136639609Y-83297847D01*
X136792064Y-83216358D01*
X136858421Y-83161900D01*
X137187050Y-83161900D01*
X137187050Y-83994974D01*
X137152482Y-83984488D01*
X137028000Y-83972228D01*
X135177131Y-83972228D01*
X135128000Y-83967389D01*
X135078869Y-83972228D01*
X133228000Y-83972228D01*
X133103518Y-83984488D01*
X132983820Y-84020798D01*
X132873506Y-84079763D01*
X132776815Y-84159115D01*
X132697463Y-84255806D01*
X132638498Y-84366120D01*
X132602188Y-84485818D01*
X132589928Y-84610300D01*
X132589928Y-85257059D01*
X132557974Y-85334202D01*
X132518200Y-85534161D01*
X132518200Y-85738039D01*
X132557974Y-85937998D01*
X132589928Y-86015141D01*
X132589928Y-86610300D01*
X132602188Y-86734782D01*
X132638498Y-86854480D01*
X132697463Y-86964794D01*
X132776815Y-87061485D01*
X132873506Y-87140837D01*
X132983820Y-87199802D01*
X133103518Y-87236112D01*
X133228000Y-87248372D01*
X133493000Y-87248372D01*
X133493001Y-90272790D01*
X133113750Y-90275300D01*
X132955000Y-90434050D01*
X132955000Y-91783300D01*
X132975000Y-91783300D01*
X132975000Y-92037300D01*
X132955000Y-92037300D01*
X132955000Y-93386550D01*
X133113750Y-93545300D01*
X133493000Y-93547810D01*
X133493000Y-93798863D01*
X133376900Y-93787428D01*
X132962650Y-93790500D01*
X132803900Y-93949250D01*
X132803900Y-94786000D01*
X132823900Y-94786000D01*
X132823900Y-95040000D01*
X132803900Y-95040000D01*
X132803900Y-95060000D01*
X132549900Y-95060000D01*
X132549900Y-95040000D01*
X131500650Y-95040000D01*
X131341900Y-95198750D01*
X131338828Y-95400500D01*
X131351088Y-95524982D01*
X131387398Y-95644680D01*
X131446363Y-95754994D01*
X131525715Y-95851685D01*
X131603464Y-95915492D01*
X131597108Y-95920708D01*
X131487442Y-96054336D01*
X131405953Y-96206791D01*
X131355772Y-96372215D01*
X131338828Y-96544250D01*
X131338828Y-97031750D01*
X131355772Y-97203785D01*
X131405953Y-97369209D01*
X131487442Y-97521664D01*
X131597108Y-97655292D01*
X131730736Y-97764958D01*
X131883191Y-97846447D01*
X132048615Y-97896628D01*
X132220650Y-97913572D01*
X132525423Y-97913572D01*
X132621148Y-97923000D01*
X133493000Y-97923000D01*
X133493001Y-99637300D01*
X133124107Y-99637300D01*
X133105632Y-99618825D01*
X132862411Y-99456310D01*
X132592158Y-99344368D01*
X132305260Y-99287300D01*
X132012740Y-99287300D01*
X131725842Y-99344368D01*
X131455589Y-99456310D01*
X131212368Y-99618825D01*
X131005525Y-99825668D01*
X130843010Y-100068889D01*
X130731068Y-100339142D01*
X130674000Y-100626040D01*
X130674000Y-100918560D01*
X130731068Y-101205458D01*
X130843010Y-101475711D01*
X131005525Y-101718932D01*
X131137380Y-101850787D01*
X131064820Y-101872798D01*
X130954506Y-101931763D01*
X130857815Y-102011115D01*
X130778463Y-102107806D01*
X130719498Y-102218120D01*
X130683188Y-102337818D01*
X130670928Y-102462300D01*
X130250000Y-102462300D01*
X130250000Y-94425500D01*
X131338828Y-94425500D01*
X131341900Y-94627250D01*
X131500650Y-94786000D01*
X132549900Y-94786000D01*
X132549900Y-93949250D01*
X132391150Y-93790500D01*
X131976900Y-93787428D01*
X131852418Y-93799688D01*
X131732720Y-93835998D01*
X131622406Y-93894963D01*
X131525715Y-93974315D01*
X131446363Y-94071006D01*
X131387398Y-94181320D01*
X131351088Y-94301018D01*
X131338828Y-94425500D01*
X130250000Y-94425500D01*
X130250000Y-92910300D01*
X131439928Y-92910300D01*
X131452188Y-93034782D01*
X131488498Y-93154480D01*
X131547463Y-93264794D01*
X131626815Y-93361485D01*
X131723506Y-93440837D01*
X131833820Y-93499802D01*
X131953518Y-93536112D01*
X132078000Y-93548372D01*
X132542250Y-93545300D01*
X132701000Y-93386550D01*
X132701000Y-92037300D01*
X131601750Y-92037300D01*
X131443000Y-92196050D01*
X131439928Y-92910300D01*
X130250000Y-92910300D01*
X130250000Y-90910300D01*
X131439928Y-90910300D01*
X131443000Y-91624550D01*
X131601750Y-91783300D01*
X132701000Y-91783300D01*
X132701000Y-90434050D01*
X132542250Y-90275300D01*
X132078000Y-90272228D01*
X131953518Y-90284488D01*
X131833820Y-90320798D01*
X131723506Y-90379763D01*
X131626815Y-90459115D01*
X131547463Y-90555806D01*
X131488498Y-90666120D01*
X131452188Y-90785818D01*
X131439928Y-90910300D01*
X130250000Y-90910300D01*
X130250000Y-82726900D01*
X133057828Y-82726900D01*
X133070088Y-82851382D01*
X133106398Y-82971080D01*
X133165363Y-83081394D01*
X133244715Y-83178085D01*
X133341406Y-83257437D01*
X133451720Y-83316402D01*
X133571418Y-83352712D01*
X133695900Y-83364972D01*
X133897650Y-83361900D01*
X134056400Y-83203150D01*
X134056400Y-82153900D01*
X133219650Y-82153900D01*
X133060900Y-82312650D01*
X133057828Y-82726900D01*
X130250000Y-82726900D01*
X130250000Y-81326900D01*
X133057828Y-81326900D01*
X133060900Y-81741150D01*
X133219650Y-81899900D01*
X134056400Y-81899900D01*
X134056400Y-80850650D01*
X133897650Y-80691900D01*
X133695900Y-80688828D01*
X133571418Y-80701088D01*
X133451720Y-80737398D01*
X133341406Y-80796363D01*
X133244715Y-80875715D01*
X133165363Y-80972406D01*
X133106398Y-81082720D01*
X133070088Y-81202418D01*
X133057828Y-81326900D01*
X130250000Y-81326900D01*
X130250000Y-79833700D01*
X133057828Y-79833700D01*
X133070088Y-79958182D01*
X133106398Y-80077880D01*
X133165363Y-80188194D01*
X133244715Y-80284885D01*
X133341406Y-80364237D01*
X133451720Y-80423202D01*
X133571418Y-80459512D01*
X133695900Y-80471772D01*
X133897650Y-80468700D01*
X134056400Y-80309950D01*
X134056400Y-79260700D01*
X133219650Y-79260700D01*
X133060900Y-79419450D01*
X133057828Y-79833700D01*
X130250000Y-79833700D01*
X130250000Y-78433700D01*
X133057828Y-78433700D01*
X133060900Y-78847950D01*
X133219650Y-79006700D01*
X134056400Y-79006700D01*
X134056400Y-77957450D01*
X133897650Y-77798700D01*
X133695900Y-77795628D01*
X133571418Y-77807888D01*
X133451720Y-77844198D01*
X133341406Y-77903163D01*
X133244715Y-77982515D01*
X133165363Y-78079206D01*
X133106398Y-78189520D01*
X133070088Y-78309218D01*
X133057828Y-78433700D01*
X130250000Y-78433700D01*
X130250000Y-76783000D01*
X151222401Y-76783000D01*
X151220788Y-76788318D01*
M02*
