G04 #@! TF.GenerationSoftware,KiCad,Pcbnew,5.1.5-52549c5~86~ubuntu16.04.1*
G04 #@! TF.CreationDate,2020-11-24T20:56:35+05:30*
G04 #@! TF.ProjectId,DC-DC 12V to 3.3V 5V Multi Output Voltage Conversion V1.0,44432d44-4320-4313-9256-20746f20332e,V1.0*
G04 #@! TF.SameCoordinates,Original*
G04 #@! TF.FileFunction,Soldermask,Top*
G04 #@! TF.FilePolarity,Negative*
%FSLAX46Y46*%
G04 Gerber Fmt 4.6, Leading zero omitted, Abs format (unit mm)*
G04 Created by KiCad (PCBNEW 5.1.5-52549c5~86~ubuntu16.04.1) date 2020-11-24 20:56:35*
%MOMM*%
%LPD*%
G04 APERTURE LIST*
%ADD10C,0.100000*%
G04 APERTURE END LIST*
D10*
G36*
X153060000Y-104213300D02*
G01*
X151258000Y-104213300D01*
X151258000Y-102411300D01*
X153060000Y-102411300D01*
X153060000Y-104213300D01*
G37*
G36*
X154812512Y-102416227D02*
G01*
X154961812Y-102445924D01*
X155125784Y-102513844D01*
X155273354Y-102612447D01*
X155398853Y-102737946D01*
X155497456Y-102885516D01*
X155565376Y-103049488D01*
X155600000Y-103223559D01*
X155600000Y-103401041D01*
X155565376Y-103575112D01*
X155497456Y-103739084D01*
X155398853Y-103886654D01*
X155273354Y-104012153D01*
X155125784Y-104110756D01*
X154961812Y-104178676D01*
X154812512Y-104208373D01*
X154787742Y-104213300D01*
X154610258Y-104213300D01*
X154585488Y-104208373D01*
X154436188Y-104178676D01*
X154272216Y-104110756D01*
X154124646Y-104012153D01*
X153999147Y-103886654D01*
X153900544Y-103739084D01*
X153832624Y-103575112D01*
X153798000Y-103401041D01*
X153798000Y-103223559D01*
X153832624Y-103049488D01*
X153900544Y-102885516D01*
X153999147Y-102737946D01*
X154124646Y-102612447D01*
X154272216Y-102513844D01*
X154436188Y-102445924D01*
X154585488Y-102416227D01*
X154610258Y-102411300D01*
X154787742Y-102411300D01*
X154812512Y-102416227D01*
G37*
G36*
X147352512Y-102416227D02*
G01*
X147501812Y-102445924D01*
X147665784Y-102513844D01*
X147813354Y-102612447D01*
X147938853Y-102737946D01*
X148037456Y-102885516D01*
X148105376Y-103049488D01*
X148140000Y-103223559D01*
X148140000Y-103401041D01*
X148105376Y-103575112D01*
X148037456Y-103739084D01*
X147938853Y-103886654D01*
X147813354Y-104012153D01*
X147665784Y-104110756D01*
X147501812Y-104178676D01*
X147352512Y-104208373D01*
X147327742Y-104213300D01*
X147150258Y-104213300D01*
X147125488Y-104208373D01*
X146976188Y-104178676D01*
X146812216Y-104110756D01*
X146664646Y-104012153D01*
X146539147Y-103886654D01*
X146440544Y-103739084D01*
X146372624Y-103575112D01*
X146338000Y-103401041D01*
X146338000Y-103223559D01*
X146372624Y-103049488D01*
X146440544Y-102885516D01*
X146539147Y-102737946D01*
X146664646Y-102612447D01*
X146812216Y-102513844D01*
X146976188Y-102445924D01*
X147125488Y-102416227D01*
X147150258Y-102411300D01*
X147327742Y-102411300D01*
X147352512Y-102416227D01*
G37*
G36*
X144812512Y-102416227D02*
G01*
X144961812Y-102445924D01*
X145125784Y-102513844D01*
X145273354Y-102612447D01*
X145398853Y-102737946D01*
X145497456Y-102885516D01*
X145565376Y-103049488D01*
X145600000Y-103223559D01*
X145600000Y-103401041D01*
X145565376Y-103575112D01*
X145497456Y-103739084D01*
X145398853Y-103886654D01*
X145273354Y-104012153D01*
X145125784Y-104110756D01*
X144961812Y-104178676D01*
X144812512Y-104208373D01*
X144787742Y-104213300D01*
X144610258Y-104213300D01*
X144585488Y-104208373D01*
X144436188Y-104178676D01*
X144272216Y-104110756D01*
X144124646Y-104012153D01*
X143999147Y-103886654D01*
X143900544Y-103739084D01*
X143832624Y-103575112D01*
X143798000Y-103401041D01*
X143798000Y-103223559D01*
X143832624Y-103049488D01*
X143900544Y-102885516D01*
X143999147Y-102737946D01*
X144124646Y-102612447D01*
X144272216Y-102513844D01*
X144436188Y-102445924D01*
X144585488Y-102416227D01*
X144610258Y-102411300D01*
X144787742Y-102411300D01*
X144812512Y-102416227D01*
G37*
G36*
X143060000Y-104213300D02*
G01*
X141258000Y-104213300D01*
X141258000Y-102411300D01*
X143060000Y-102411300D01*
X143060000Y-104213300D01*
G37*
G36*
X134812512Y-102416227D02*
G01*
X134961812Y-102445924D01*
X135125784Y-102513844D01*
X135273354Y-102612447D01*
X135398853Y-102737946D01*
X135497456Y-102885516D01*
X135565376Y-103049488D01*
X135600000Y-103223559D01*
X135600000Y-103401041D01*
X135565376Y-103575112D01*
X135497456Y-103739084D01*
X135398853Y-103886654D01*
X135273354Y-104012153D01*
X135125784Y-104110756D01*
X134961812Y-104178676D01*
X134812512Y-104208373D01*
X134787742Y-104213300D01*
X134610258Y-104213300D01*
X134585488Y-104208373D01*
X134436188Y-104178676D01*
X134272216Y-104110756D01*
X134124646Y-104012153D01*
X133999147Y-103886654D01*
X133900544Y-103739084D01*
X133832624Y-103575112D01*
X133798000Y-103401041D01*
X133798000Y-103223559D01*
X133832624Y-103049488D01*
X133900544Y-102885516D01*
X133999147Y-102737946D01*
X134124646Y-102612447D01*
X134272216Y-102513844D01*
X134436188Y-102445924D01*
X134585488Y-102416227D01*
X134610258Y-102411300D01*
X134787742Y-102411300D01*
X134812512Y-102416227D01*
G37*
G36*
X133060000Y-104213300D02*
G01*
X131258000Y-104213300D01*
X131258000Y-102411300D01*
X133060000Y-102411300D01*
X133060000Y-104213300D01*
G37*
G36*
X157352512Y-102416227D02*
G01*
X157501812Y-102445924D01*
X157665784Y-102513844D01*
X157813354Y-102612447D01*
X157938853Y-102737946D01*
X158037456Y-102885516D01*
X158105376Y-103049488D01*
X158140000Y-103223559D01*
X158140000Y-103401041D01*
X158105376Y-103575112D01*
X158037456Y-103739084D01*
X157938853Y-103886654D01*
X157813354Y-104012153D01*
X157665784Y-104110756D01*
X157501812Y-104178676D01*
X157352512Y-104208373D01*
X157327742Y-104213300D01*
X157150258Y-104213300D01*
X157125488Y-104208373D01*
X156976188Y-104178676D01*
X156812216Y-104110756D01*
X156664646Y-104012153D01*
X156539147Y-103886654D01*
X156440544Y-103739084D01*
X156372624Y-103575112D01*
X156338000Y-103401041D01*
X156338000Y-103223559D01*
X156372624Y-103049488D01*
X156440544Y-102885516D01*
X156539147Y-102737946D01*
X156664646Y-102612447D01*
X156812216Y-102513844D01*
X156976188Y-102445924D01*
X157125488Y-102416227D01*
X157150258Y-102411300D01*
X157327742Y-102411300D01*
X157352512Y-102416227D01*
G37*
G36*
X137352512Y-102416227D02*
G01*
X137501812Y-102445924D01*
X137665784Y-102513844D01*
X137813354Y-102612447D01*
X137938853Y-102737946D01*
X138037456Y-102885516D01*
X138105376Y-103049488D01*
X138140000Y-103223559D01*
X138140000Y-103401041D01*
X138105376Y-103575112D01*
X138037456Y-103739084D01*
X137938853Y-103886654D01*
X137813354Y-104012153D01*
X137665784Y-104110756D01*
X137501812Y-104178676D01*
X137352512Y-104208373D01*
X137327742Y-104213300D01*
X137150258Y-104213300D01*
X137125488Y-104208373D01*
X136976188Y-104178676D01*
X136812216Y-104110756D01*
X136664646Y-104012153D01*
X136539147Y-103886654D01*
X136440544Y-103739084D01*
X136372624Y-103575112D01*
X136338000Y-103401041D01*
X136338000Y-103223559D01*
X136372624Y-103049488D01*
X136440544Y-102885516D01*
X136539147Y-102737946D01*
X136664646Y-102612447D01*
X136812216Y-102513844D01*
X136976188Y-102445924D01*
X137125488Y-102416227D01*
X137150258Y-102411300D01*
X137327742Y-102411300D01*
X137352512Y-102416227D01*
G37*
G36*
X132272512Y-99876227D02*
G01*
X132421812Y-99905924D01*
X132585784Y-99973844D01*
X132733354Y-100072447D01*
X132858853Y-100197946D01*
X132957456Y-100345516D01*
X133025376Y-100509488D01*
X133060000Y-100683559D01*
X133060000Y-100861041D01*
X133025376Y-101035112D01*
X132957456Y-101199084D01*
X132858853Y-101346654D01*
X132733354Y-101472153D01*
X132585784Y-101570756D01*
X132421812Y-101638676D01*
X132272512Y-101668373D01*
X132247742Y-101673300D01*
X132070258Y-101673300D01*
X132045488Y-101668373D01*
X131896188Y-101638676D01*
X131732216Y-101570756D01*
X131584646Y-101472153D01*
X131459147Y-101346654D01*
X131360544Y-101199084D01*
X131292624Y-101035112D01*
X131258000Y-100861041D01*
X131258000Y-100683559D01*
X131292624Y-100509488D01*
X131360544Y-100345516D01*
X131459147Y-100197946D01*
X131584646Y-100072447D01*
X131732216Y-99973844D01*
X131896188Y-99905924D01*
X132045488Y-99876227D01*
X132070258Y-99871300D01*
X132247742Y-99871300D01*
X132272512Y-99876227D01*
G37*
G36*
X152272512Y-99876227D02*
G01*
X152421812Y-99905924D01*
X152585784Y-99973844D01*
X152733354Y-100072447D01*
X152858853Y-100197946D01*
X152957456Y-100345516D01*
X153025376Y-100509488D01*
X153060000Y-100683559D01*
X153060000Y-100861041D01*
X153025376Y-101035112D01*
X152957456Y-101199084D01*
X152858853Y-101346654D01*
X152733354Y-101472153D01*
X152585784Y-101570756D01*
X152421812Y-101638676D01*
X152272512Y-101668373D01*
X152247742Y-101673300D01*
X152070258Y-101673300D01*
X152045488Y-101668373D01*
X151896188Y-101638676D01*
X151732216Y-101570756D01*
X151584646Y-101472153D01*
X151459147Y-101346654D01*
X151360544Y-101199084D01*
X151292624Y-101035112D01*
X151258000Y-100861041D01*
X151258000Y-100683559D01*
X151292624Y-100509488D01*
X151360544Y-100345516D01*
X151459147Y-100197946D01*
X151584646Y-100072447D01*
X151732216Y-99973844D01*
X151896188Y-99905924D01*
X152045488Y-99876227D01*
X152070258Y-99871300D01*
X152247742Y-99871300D01*
X152272512Y-99876227D01*
G37*
G36*
X154812512Y-99876227D02*
G01*
X154961812Y-99905924D01*
X155125784Y-99973844D01*
X155273354Y-100072447D01*
X155398853Y-100197946D01*
X155497456Y-100345516D01*
X155565376Y-100509488D01*
X155600000Y-100683559D01*
X155600000Y-100861041D01*
X155565376Y-101035112D01*
X155497456Y-101199084D01*
X155398853Y-101346654D01*
X155273354Y-101472153D01*
X155125784Y-101570756D01*
X154961812Y-101638676D01*
X154812512Y-101668373D01*
X154787742Y-101673300D01*
X154610258Y-101673300D01*
X154585488Y-101668373D01*
X154436188Y-101638676D01*
X154272216Y-101570756D01*
X154124646Y-101472153D01*
X153999147Y-101346654D01*
X153900544Y-101199084D01*
X153832624Y-101035112D01*
X153798000Y-100861041D01*
X153798000Y-100683559D01*
X153832624Y-100509488D01*
X153900544Y-100345516D01*
X153999147Y-100197946D01*
X154124646Y-100072447D01*
X154272216Y-99973844D01*
X154436188Y-99905924D01*
X154585488Y-99876227D01*
X154610258Y-99871300D01*
X154787742Y-99871300D01*
X154812512Y-99876227D01*
G37*
G36*
X157352512Y-99876227D02*
G01*
X157501812Y-99905924D01*
X157665784Y-99973844D01*
X157813354Y-100072447D01*
X157938853Y-100197946D01*
X158037456Y-100345516D01*
X158105376Y-100509488D01*
X158140000Y-100683559D01*
X158140000Y-100861041D01*
X158105376Y-101035112D01*
X158037456Y-101199084D01*
X157938853Y-101346654D01*
X157813354Y-101472153D01*
X157665784Y-101570756D01*
X157501812Y-101638676D01*
X157352512Y-101668373D01*
X157327742Y-101673300D01*
X157150258Y-101673300D01*
X157125488Y-101668373D01*
X156976188Y-101638676D01*
X156812216Y-101570756D01*
X156664646Y-101472153D01*
X156539147Y-101346654D01*
X156440544Y-101199084D01*
X156372624Y-101035112D01*
X156338000Y-100861041D01*
X156338000Y-100683559D01*
X156372624Y-100509488D01*
X156440544Y-100345516D01*
X156539147Y-100197946D01*
X156664646Y-100072447D01*
X156812216Y-99973844D01*
X156976188Y-99905924D01*
X157125488Y-99876227D01*
X157150258Y-99871300D01*
X157327742Y-99871300D01*
X157352512Y-99876227D01*
G37*
G36*
X134812512Y-99876227D02*
G01*
X134961812Y-99905924D01*
X135125784Y-99973844D01*
X135273354Y-100072447D01*
X135398853Y-100197946D01*
X135497456Y-100345516D01*
X135565376Y-100509488D01*
X135600000Y-100683559D01*
X135600000Y-100861041D01*
X135565376Y-101035112D01*
X135497456Y-101199084D01*
X135398853Y-101346654D01*
X135273354Y-101472153D01*
X135125784Y-101570756D01*
X134961812Y-101638676D01*
X134812512Y-101668373D01*
X134787742Y-101673300D01*
X134610258Y-101673300D01*
X134585488Y-101668373D01*
X134436188Y-101638676D01*
X134272216Y-101570756D01*
X134124646Y-101472153D01*
X133999147Y-101346654D01*
X133900544Y-101199084D01*
X133832624Y-101035112D01*
X133798000Y-100861041D01*
X133798000Y-100683559D01*
X133832624Y-100509488D01*
X133900544Y-100345516D01*
X133999147Y-100197946D01*
X134124646Y-100072447D01*
X134272216Y-99973844D01*
X134436188Y-99905924D01*
X134585488Y-99876227D01*
X134610258Y-99871300D01*
X134787742Y-99871300D01*
X134812512Y-99876227D01*
G37*
G36*
X144812512Y-99876227D02*
G01*
X144961812Y-99905924D01*
X145125784Y-99973844D01*
X145273354Y-100072447D01*
X145398853Y-100197946D01*
X145497456Y-100345516D01*
X145565376Y-100509488D01*
X145600000Y-100683559D01*
X145600000Y-100861041D01*
X145565376Y-101035112D01*
X145497456Y-101199084D01*
X145398853Y-101346654D01*
X145273354Y-101472153D01*
X145125784Y-101570756D01*
X144961812Y-101638676D01*
X144812512Y-101668373D01*
X144787742Y-101673300D01*
X144610258Y-101673300D01*
X144585488Y-101668373D01*
X144436188Y-101638676D01*
X144272216Y-101570756D01*
X144124646Y-101472153D01*
X143999147Y-101346654D01*
X143900544Y-101199084D01*
X143832624Y-101035112D01*
X143798000Y-100861041D01*
X143798000Y-100683559D01*
X143832624Y-100509488D01*
X143900544Y-100345516D01*
X143999147Y-100197946D01*
X144124646Y-100072447D01*
X144272216Y-99973844D01*
X144436188Y-99905924D01*
X144585488Y-99876227D01*
X144610258Y-99871300D01*
X144787742Y-99871300D01*
X144812512Y-99876227D01*
G37*
G36*
X137352512Y-99876227D02*
G01*
X137501812Y-99905924D01*
X137665784Y-99973844D01*
X137813354Y-100072447D01*
X137938853Y-100197946D01*
X138037456Y-100345516D01*
X138105376Y-100509488D01*
X138140000Y-100683559D01*
X138140000Y-100861041D01*
X138105376Y-101035112D01*
X138037456Y-101199084D01*
X137938853Y-101346654D01*
X137813354Y-101472153D01*
X137665784Y-101570756D01*
X137501812Y-101638676D01*
X137352512Y-101668373D01*
X137327742Y-101673300D01*
X137150258Y-101673300D01*
X137125488Y-101668373D01*
X136976188Y-101638676D01*
X136812216Y-101570756D01*
X136664646Y-101472153D01*
X136539147Y-101346654D01*
X136440544Y-101199084D01*
X136372624Y-101035112D01*
X136338000Y-100861041D01*
X136338000Y-100683559D01*
X136372624Y-100509488D01*
X136440544Y-100345516D01*
X136539147Y-100197946D01*
X136664646Y-100072447D01*
X136812216Y-99973844D01*
X136976188Y-99905924D01*
X137125488Y-99876227D01*
X137150258Y-99871300D01*
X137327742Y-99871300D01*
X137352512Y-99876227D01*
G37*
G36*
X147352512Y-99876227D02*
G01*
X147501812Y-99905924D01*
X147665784Y-99973844D01*
X147813354Y-100072447D01*
X147938853Y-100197946D01*
X148037456Y-100345516D01*
X148105376Y-100509488D01*
X148140000Y-100683559D01*
X148140000Y-100861041D01*
X148105376Y-101035112D01*
X148037456Y-101199084D01*
X147938853Y-101346654D01*
X147813354Y-101472153D01*
X147665784Y-101570756D01*
X147501812Y-101638676D01*
X147352512Y-101668373D01*
X147327742Y-101673300D01*
X147150258Y-101673300D01*
X147125488Y-101668373D01*
X146976188Y-101638676D01*
X146812216Y-101570756D01*
X146664646Y-101472153D01*
X146539147Y-101346654D01*
X146440544Y-101199084D01*
X146372624Y-101035112D01*
X146338000Y-100861041D01*
X146338000Y-100683559D01*
X146372624Y-100509488D01*
X146440544Y-100345516D01*
X146539147Y-100197946D01*
X146664646Y-100072447D01*
X146812216Y-99973844D01*
X146976188Y-99905924D01*
X147125488Y-99876227D01*
X147150258Y-99871300D01*
X147327742Y-99871300D01*
X147352512Y-99876227D01*
G37*
G36*
X142272512Y-99876227D02*
G01*
X142421812Y-99905924D01*
X142585784Y-99973844D01*
X142733354Y-100072447D01*
X142858853Y-100197946D01*
X142957456Y-100345516D01*
X143025376Y-100509488D01*
X143060000Y-100683559D01*
X143060000Y-100861041D01*
X143025376Y-101035112D01*
X142957456Y-101199084D01*
X142858853Y-101346654D01*
X142733354Y-101472153D01*
X142585784Y-101570756D01*
X142421812Y-101638676D01*
X142272512Y-101668373D01*
X142247742Y-101673300D01*
X142070258Y-101673300D01*
X142045488Y-101668373D01*
X141896188Y-101638676D01*
X141732216Y-101570756D01*
X141584646Y-101472153D01*
X141459147Y-101346654D01*
X141360544Y-101199084D01*
X141292624Y-101035112D01*
X141258000Y-100861041D01*
X141258000Y-100683559D01*
X141292624Y-100509488D01*
X141360544Y-100345516D01*
X141459147Y-100197946D01*
X141584646Y-100072447D01*
X141732216Y-99973844D01*
X141896188Y-99905924D01*
X142045488Y-99876227D01*
X142070258Y-99871300D01*
X142247742Y-99871300D01*
X142272512Y-99876227D01*
G37*
G36*
X142392668Y-96254065D02*
G01*
X142431338Y-96265796D01*
X142466977Y-96284846D01*
X142498217Y-96310483D01*
X142523854Y-96341723D01*
X142542904Y-96377362D01*
X142554635Y-96416032D01*
X142559200Y-96462388D01*
X142559200Y-97113612D01*
X142554635Y-97159968D01*
X142542904Y-97198638D01*
X142523854Y-97234277D01*
X142498217Y-97265517D01*
X142466977Y-97291154D01*
X142431338Y-97310204D01*
X142392668Y-97321935D01*
X142346312Y-97326500D01*
X141270088Y-97326500D01*
X141223732Y-97321935D01*
X141185062Y-97310204D01*
X141149423Y-97291154D01*
X141118183Y-97265517D01*
X141092546Y-97234277D01*
X141073496Y-97198638D01*
X141061765Y-97159968D01*
X141057200Y-97113612D01*
X141057200Y-96462388D01*
X141061765Y-96416032D01*
X141073496Y-96377362D01*
X141092546Y-96341723D01*
X141118183Y-96310483D01*
X141149423Y-96284846D01*
X141185062Y-96265796D01*
X141223732Y-96254065D01*
X141270088Y-96249500D01*
X142346312Y-96249500D01*
X142392668Y-96254065D01*
G37*
G36*
X137985768Y-96254065D02*
G01*
X138024438Y-96265796D01*
X138060077Y-96284846D01*
X138091317Y-96310483D01*
X138116954Y-96341723D01*
X138136004Y-96377362D01*
X138147735Y-96416032D01*
X138152300Y-96462388D01*
X138152300Y-97113612D01*
X138147735Y-97159968D01*
X138136004Y-97198638D01*
X138116954Y-97234277D01*
X138091317Y-97265517D01*
X138060077Y-97291154D01*
X138024438Y-97310204D01*
X137985768Y-97321935D01*
X137939412Y-97326500D01*
X136863188Y-97326500D01*
X136816832Y-97321935D01*
X136778162Y-97310204D01*
X136742523Y-97291154D01*
X136711283Y-97265517D01*
X136685646Y-97234277D01*
X136666596Y-97198638D01*
X136654865Y-97159968D01*
X136650300Y-97113612D01*
X136650300Y-96462388D01*
X136654865Y-96416032D01*
X136666596Y-96377362D01*
X136685646Y-96341723D01*
X136711283Y-96310483D01*
X136742523Y-96284846D01*
X136778162Y-96265796D01*
X136816832Y-96254065D01*
X136863188Y-96249500D01*
X137939412Y-96249500D01*
X137985768Y-96254065D01*
G37*
G36*
X133261368Y-96254065D02*
G01*
X133300038Y-96265796D01*
X133335677Y-96284846D01*
X133366917Y-96310483D01*
X133392554Y-96341723D01*
X133411604Y-96377362D01*
X133423335Y-96416032D01*
X133427900Y-96462388D01*
X133427900Y-97113612D01*
X133423335Y-97159968D01*
X133411604Y-97198638D01*
X133392554Y-97234277D01*
X133366917Y-97265517D01*
X133335677Y-97291154D01*
X133300038Y-97310204D01*
X133261368Y-97321935D01*
X133215012Y-97326500D01*
X132138788Y-97326500D01*
X132092432Y-97321935D01*
X132053762Y-97310204D01*
X132018123Y-97291154D01*
X131986883Y-97265517D01*
X131961246Y-97234277D01*
X131942196Y-97198638D01*
X131930465Y-97159968D01*
X131925900Y-97113612D01*
X131925900Y-96462388D01*
X131930465Y-96416032D01*
X131942196Y-96377362D01*
X131961246Y-96341723D01*
X131986883Y-96310483D01*
X132018123Y-96284846D01*
X132053762Y-96265796D01*
X132092432Y-96254065D01*
X132138788Y-96249500D01*
X133215012Y-96249500D01*
X133261368Y-96254065D01*
G37*
G36*
X147244068Y-96254065D02*
G01*
X147282738Y-96265796D01*
X147318377Y-96284846D01*
X147349617Y-96310483D01*
X147375254Y-96341723D01*
X147394304Y-96377362D01*
X147406035Y-96416032D01*
X147410600Y-96462388D01*
X147410600Y-97113612D01*
X147406035Y-97159968D01*
X147394304Y-97198638D01*
X147375254Y-97234277D01*
X147349617Y-97265517D01*
X147318377Y-97291154D01*
X147282738Y-97310204D01*
X147244068Y-97321935D01*
X147197712Y-97326500D01*
X146121488Y-97326500D01*
X146075132Y-97321935D01*
X146036462Y-97310204D01*
X146000823Y-97291154D01*
X145969583Y-97265517D01*
X145943946Y-97234277D01*
X145924896Y-97198638D01*
X145913165Y-97159968D01*
X145908600Y-97113612D01*
X145908600Y-96462388D01*
X145913165Y-96416032D01*
X145924896Y-96377362D01*
X145943946Y-96341723D01*
X145969583Y-96310483D01*
X146000823Y-96284846D01*
X146036462Y-96265796D01*
X146075132Y-96254065D01*
X146121488Y-96249500D01*
X147197712Y-96249500D01*
X147244068Y-96254065D01*
G37*
G36*
X151755459Y-95006660D02*
G01*
X151892132Y-95063272D01*
X152015135Y-95145460D01*
X152119740Y-95250065D01*
X152201928Y-95373068D01*
X152258540Y-95509741D01*
X152287400Y-95654833D01*
X152287400Y-95802767D01*
X152258540Y-95947859D01*
X152201928Y-96084532D01*
X152119740Y-96207535D01*
X152015135Y-96312140D01*
X151892132Y-96394328D01*
X151892131Y-96394329D01*
X151892130Y-96394329D01*
X151755459Y-96450940D01*
X151610368Y-96479800D01*
X151462432Y-96479800D01*
X151317341Y-96450940D01*
X151180670Y-96394329D01*
X151180669Y-96394329D01*
X151180668Y-96394328D01*
X151057665Y-96312140D01*
X150953060Y-96207535D01*
X150870872Y-96084532D01*
X150814260Y-95947859D01*
X150785400Y-95802767D01*
X150785400Y-95654833D01*
X150814260Y-95509741D01*
X150870872Y-95373068D01*
X150953060Y-95250065D01*
X151057665Y-95145460D01*
X151180668Y-95063272D01*
X151317341Y-95006660D01*
X151462432Y-94977800D01*
X151610368Y-94977800D01*
X151755459Y-95006660D01*
G37*
G36*
X157755459Y-95006660D02*
G01*
X157892132Y-95063272D01*
X158015135Y-95145460D01*
X158119740Y-95250065D01*
X158201928Y-95373068D01*
X158258540Y-95509741D01*
X158287400Y-95654833D01*
X158287400Y-95802767D01*
X158258540Y-95947859D01*
X158201928Y-96084532D01*
X158119740Y-96207535D01*
X158015135Y-96312140D01*
X157892132Y-96394328D01*
X157892131Y-96394329D01*
X157892130Y-96394329D01*
X157755459Y-96450940D01*
X157610368Y-96479800D01*
X157462432Y-96479800D01*
X157317341Y-96450940D01*
X157180670Y-96394329D01*
X157180669Y-96394329D01*
X157180668Y-96394328D01*
X157057665Y-96312140D01*
X156953060Y-96207535D01*
X156870872Y-96084532D01*
X156814260Y-95947859D01*
X156785400Y-95802767D01*
X156785400Y-95654833D01*
X156814260Y-95509741D01*
X156870872Y-95373068D01*
X156953060Y-95250065D01*
X157057665Y-95145460D01*
X157180668Y-95063272D01*
X157317341Y-95006660D01*
X157462432Y-94977800D01*
X157610368Y-94977800D01*
X157755459Y-95006660D01*
G37*
G36*
X137985768Y-94379065D02*
G01*
X138024438Y-94390796D01*
X138060077Y-94409846D01*
X138091317Y-94435483D01*
X138116954Y-94466723D01*
X138136004Y-94502362D01*
X138147735Y-94541032D01*
X138152300Y-94587388D01*
X138152300Y-95238612D01*
X138147735Y-95284968D01*
X138136004Y-95323638D01*
X138116954Y-95359277D01*
X138091317Y-95390517D01*
X138060077Y-95416154D01*
X138024438Y-95435204D01*
X137985768Y-95446935D01*
X137939412Y-95451500D01*
X136863188Y-95451500D01*
X136816832Y-95446935D01*
X136778162Y-95435204D01*
X136742523Y-95416154D01*
X136711283Y-95390517D01*
X136685646Y-95359277D01*
X136666596Y-95323638D01*
X136654865Y-95284968D01*
X136650300Y-95238612D01*
X136650300Y-94587388D01*
X136654865Y-94541032D01*
X136666596Y-94502362D01*
X136685646Y-94466723D01*
X136711283Y-94435483D01*
X136742523Y-94409846D01*
X136778162Y-94390796D01*
X136816832Y-94379065D01*
X136863188Y-94374500D01*
X137939412Y-94374500D01*
X137985768Y-94379065D01*
G37*
G36*
X142392668Y-94379065D02*
G01*
X142431338Y-94390796D01*
X142466977Y-94409846D01*
X142498217Y-94435483D01*
X142523854Y-94466723D01*
X142542904Y-94502362D01*
X142554635Y-94541032D01*
X142559200Y-94587388D01*
X142559200Y-95238612D01*
X142554635Y-95284968D01*
X142542904Y-95323638D01*
X142523854Y-95359277D01*
X142498217Y-95390517D01*
X142466977Y-95416154D01*
X142431338Y-95435204D01*
X142392668Y-95446935D01*
X142346312Y-95451500D01*
X141270088Y-95451500D01*
X141223732Y-95446935D01*
X141185062Y-95435204D01*
X141149423Y-95416154D01*
X141118183Y-95390517D01*
X141092546Y-95359277D01*
X141073496Y-95323638D01*
X141061765Y-95284968D01*
X141057200Y-95238612D01*
X141057200Y-94587388D01*
X141061765Y-94541032D01*
X141073496Y-94502362D01*
X141092546Y-94466723D01*
X141118183Y-94435483D01*
X141149423Y-94409846D01*
X141185062Y-94390796D01*
X141223732Y-94379065D01*
X141270088Y-94374500D01*
X142346312Y-94374500D01*
X142392668Y-94379065D01*
G37*
G36*
X147244068Y-94379065D02*
G01*
X147282738Y-94390796D01*
X147318377Y-94409846D01*
X147349617Y-94435483D01*
X147375254Y-94466723D01*
X147394304Y-94502362D01*
X147406035Y-94541032D01*
X147410600Y-94587388D01*
X147410600Y-95238612D01*
X147406035Y-95284968D01*
X147394304Y-95323638D01*
X147375254Y-95359277D01*
X147349617Y-95390517D01*
X147318377Y-95416154D01*
X147282738Y-95435204D01*
X147244068Y-95446935D01*
X147197712Y-95451500D01*
X146121488Y-95451500D01*
X146075132Y-95446935D01*
X146036462Y-95435204D01*
X146000823Y-95416154D01*
X145969583Y-95390517D01*
X145943946Y-95359277D01*
X145924896Y-95323638D01*
X145913165Y-95284968D01*
X145908600Y-95238612D01*
X145908600Y-94587388D01*
X145913165Y-94541032D01*
X145924896Y-94502362D01*
X145943946Y-94466723D01*
X145969583Y-94435483D01*
X146000823Y-94409846D01*
X146036462Y-94390796D01*
X146075132Y-94379065D01*
X146121488Y-94374500D01*
X147197712Y-94374500D01*
X147244068Y-94379065D01*
G37*
G36*
X133261368Y-94379065D02*
G01*
X133300038Y-94390796D01*
X133335677Y-94409846D01*
X133366917Y-94435483D01*
X133392554Y-94466723D01*
X133411604Y-94502362D01*
X133423335Y-94541032D01*
X133427900Y-94587388D01*
X133427900Y-95238612D01*
X133423335Y-95284968D01*
X133411604Y-95323638D01*
X133392554Y-95359277D01*
X133366917Y-95390517D01*
X133335677Y-95416154D01*
X133300038Y-95435204D01*
X133261368Y-95446935D01*
X133215012Y-95451500D01*
X132138788Y-95451500D01*
X132092432Y-95446935D01*
X132053762Y-95435204D01*
X132018123Y-95416154D01*
X131986883Y-95390517D01*
X131961246Y-95359277D01*
X131942196Y-95323638D01*
X131930465Y-95284968D01*
X131925900Y-95238612D01*
X131925900Y-94587388D01*
X131930465Y-94541032D01*
X131942196Y-94502362D01*
X131961246Y-94466723D01*
X131986883Y-94435483D01*
X132018123Y-94409846D01*
X132053762Y-94390796D01*
X132092432Y-94379065D01*
X132138788Y-94374500D01*
X133215012Y-94374500D01*
X133261368Y-94379065D01*
G37*
G36*
X157755459Y-92506660D02*
G01*
X157892132Y-92563272D01*
X158015135Y-92645460D01*
X158119740Y-92750065D01*
X158201928Y-92873068D01*
X158258540Y-93009741D01*
X158287400Y-93154833D01*
X158287400Y-93302767D01*
X158258540Y-93447859D01*
X158201928Y-93584532D01*
X158119740Y-93707535D01*
X158015135Y-93812140D01*
X157892132Y-93894328D01*
X157892131Y-93894329D01*
X157892130Y-93894329D01*
X157755459Y-93950940D01*
X157610368Y-93979800D01*
X157462432Y-93979800D01*
X157317341Y-93950940D01*
X157180670Y-93894329D01*
X157180669Y-93894329D01*
X157180668Y-93894328D01*
X157057665Y-93812140D01*
X156953060Y-93707535D01*
X156870872Y-93584532D01*
X156814260Y-93447859D01*
X156785400Y-93302767D01*
X156785400Y-93154833D01*
X156814260Y-93009741D01*
X156870872Y-92873068D01*
X156953060Y-92750065D01*
X157057665Y-92645460D01*
X157180668Y-92563272D01*
X157317341Y-92506660D01*
X157462432Y-92477800D01*
X157610368Y-92477800D01*
X157755459Y-92506660D01*
G37*
G36*
X151755459Y-92506660D02*
G01*
X151892132Y-92563272D01*
X152015135Y-92645460D01*
X152119740Y-92750065D01*
X152201928Y-92873068D01*
X152258540Y-93009741D01*
X152287400Y-93154833D01*
X152287400Y-93302767D01*
X152258540Y-93447859D01*
X152201928Y-93584532D01*
X152119740Y-93707535D01*
X152015135Y-93812140D01*
X151892132Y-93894328D01*
X151892131Y-93894329D01*
X151892130Y-93894329D01*
X151755459Y-93950940D01*
X151610368Y-93979800D01*
X151462432Y-93979800D01*
X151317341Y-93950940D01*
X151180670Y-93894329D01*
X151180669Y-93894329D01*
X151180668Y-93894328D01*
X151057665Y-93812140D01*
X150953060Y-93707535D01*
X150870872Y-93584532D01*
X150814260Y-93447859D01*
X150785400Y-93302767D01*
X150785400Y-93154833D01*
X150814260Y-93009741D01*
X150870872Y-92873068D01*
X150953060Y-92750065D01*
X151057665Y-92645460D01*
X151180668Y-92563272D01*
X151317341Y-92506660D01*
X151462432Y-92477800D01*
X151610368Y-92477800D01*
X151755459Y-92506660D01*
G37*
G36*
X147373000Y-93024800D02*
G01*
X145771000Y-93024800D01*
X145771000Y-90922800D01*
X147373000Y-90922800D01*
X147373000Y-93024800D01*
G37*
G36*
X145073000Y-93024800D02*
G01*
X143471000Y-93024800D01*
X143471000Y-90922800D01*
X145073000Y-90922800D01*
X145073000Y-93024800D01*
G37*
G36*
X142773000Y-93024800D02*
G01*
X141171000Y-93024800D01*
X141171000Y-90922800D01*
X142773000Y-90922800D01*
X142773000Y-93024800D01*
G37*
G36*
X133629000Y-92961300D02*
G01*
X132027000Y-92961300D01*
X132027000Y-90859300D01*
X133629000Y-90859300D01*
X133629000Y-92961300D01*
G37*
G36*
X138229000Y-92961300D02*
G01*
X136627000Y-92961300D01*
X136627000Y-90859300D01*
X138229000Y-90859300D01*
X138229000Y-92961300D01*
G37*
G36*
X135929000Y-92961300D02*
G01*
X134327000Y-92961300D01*
X134327000Y-90859300D01*
X135929000Y-90859300D01*
X135929000Y-92961300D01*
G37*
G36*
X157755459Y-90006660D02*
G01*
X157892132Y-90063272D01*
X158015135Y-90145460D01*
X158119740Y-90250065D01*
X158201928Y-90373068D01*
X158258540Y-90509741D01*
X158287400Y-90654833D01*
X158287400Y-90802767D01*
X158258540Y-90947859D01*
X158201928Y-91084532D01*
X158119740Y-91207535D01*
X158015135Y-91312140D01*
X157892132Y-91394328D01*
X157892131Y-91394329D01*
X157892130Y-91394329D01*
X157755459Y-91450940D01*
X157610368Y-91479800D01*
X157462432Y-91479800D01*
X157317341Y-91450940D01*
X157180670Y-91394329D01*
X157180669Y-91394329D01*
X157180668Y-91394328D01*
X157057665Y-91312140D01*
X156953060Y-91207535D01*
X156870872Y-91084532D01*
X156814260Y-90947859D01*
X156785400Y-90802767D01*
X156785400Y-90654833D01*
X156814260Y-90509741D01*
X156870872Y-90373068D01*
X156953060Y-90250065D01*
X157057665Y-90145460D01*
X157180668Y-90063272D01*
X157317341Y-90006660D01*
X157462432Y-89977800D01*
X157610368Y-89977800D01*
X157755459Y-90006660D01*
G37*
G36*
X151755459Y-90006660D02*
G01*
X151892132Y-90063272D01*
X152015135Y-90145460D01*
X152119740Y-90250065D01*
X152201928Y-90373068D01*
X152258540Y-90509741D01*
X152287400Y-90654833D01*
X152287400Y-90802767D01*
X152258540Y-90947859D01*
X152201928Y-91084532D01*
X152119740Y-91207535D01*
X152015135Y-91312140D01*
X151892132Y-91394328D01*
X151892131Y-91394329D01*
X151892130Y-91394329D01*
X151755459Y-91450940D01*
X151610368Y-91479800D01*
X151462432Y-91479800D01*
X151317341Y-91450940D01*
X151180670Y-91394329D01*
X151180669Y-91394329D01*
X151180668Y-91394328D01*
X151057665Y-91312140D01*
X150953060Y-91207535D01*
X150870872Y-91084532D01*
X150814260Y-90947859D01*
X150785400Y-90802767D01*
X150785400Y-90654833D01*
X150814260Y-90509741D01*
X150870872Y-90373068D01*
X150953060Y-90250065D01*
X151057665Y-90145460D01*
X151180668Y-90063272D01*
X151317341Y-90006660D01*
X151462432Y-89977800D01*
X151610368Y-89977800D01*
X151755459Y-90006660D01*
G37*
G36*
X146223000Y-86724800D02*
G01*
X142321000Y-86724800D01*
X142321000Y-84622800D01*
X146223000Y-84622800D01*
X146223000Y-86724800D01*
G37*
G36*
X137079000Y-86661300D02*
G01*
X133177000Y-86661300D01*
X133177000Y-84559300D01*
X137079000Y-84559300D01*
X137079000Y-86661300D01*
G37*
G36*
X157573579Y-81576093D02*
G01*
X157707225Y-81616634D01*
X157830384Y-81682464D01*
X157938340Y-81771060D01*
X158026936Y-81879016D01*
X158092766Y-82002175D01*
X158133307Y-82135821D01*
X158147600Y-82280940D01*
X158147600Y-84444660D01*
X158133307Y-84589779D01*
X158092766Y-84723425D01*
X158026936Y-84846584D01*
X157938340Y-84954540D01*
X157830384Y-85043136D01*
X157707225Y-85108966D01*
X157573579Y-85149507D01*
X157428460Y-85163800D01*
X155764740Y-85163800D01*
X155619621Y-85149507D01*
X155485975Y-85108966D01*
X155362816Y-85043136D01*
X155254860Y-84954540D01*
X155166264Y-84846584D01*
X155100434Y-84723425D01*
X155059893Y-84589779D01*
X155045600Y-84444660D01*
X155045600Y-82280940D01*
X155059893Y-82135821D01*
X155100434Y-82002175D01*
X155166264Y-81879016D01*
X155254860Y-81771060D01*
X155362816Y-81682464D01*
X155485975Y-81616634D01*
X155619621Y-81576093D01*
X155764740Y-81561800D01*
X157428460Y-81561800D01*
X157573579Y-81576093D01*
G37*
G36*
X152397600Y-85163800D02*
G01*
X148795600Y-85163800D01*
X148795600Y-81561800D01*
X152397600Y-81561800D01*
X152397600Y-85163800D01*
G37*
G36*
X143555368Y-81280465D02*
G01*
X143594038Y-81292196D01*
X143629677Y-81311246D01*
X143660917Y-81336883D01*
X143686554Y-81368123D01*
X143705604Y-81403762D01*
X143717335Y-81442432D01*
X143721900Y-81488788D01*
X143721900Y-82565012D01*
X143717335Y-82611368D01*
X143705604Y-82650038D01*
X143686554Y-82685677D01*
X143660917Y-82716917D01*
X143629677Y-82742554D01*
X143594038Y-82761604D01*
X143555368Y-82773335D01*
X143509012Y-82777900D01*
X142857788Y-82777900D01*
X142811432Y-82773335D01*
X142772762Y-82761604D01*
X142737123Y-82742554D01*
X142705883Y-82716917D01*
X142680246Y-82685677D01*
X142661196Y-82650038D01*
X142649465Y-82611368D01*
X142644900Y-82565012D01*
X142644900Y-81488788D01*
X142649465Y-81442432D01*
X142661196Y-81403762D01*
X142680246Y-81368123D01*
X142705883Y-81336883D01*
X142737123Y-81311246D01*
X142772762Y-81292196D01*
X142811432Y-81280465D01*
X142857788Y-81275900D01*
X143509012Y-81275900D01*
X143555368Y-81280465D01*
G37*
G36*
X136430368Y-81280465D02*
G01*
X136469038Y-81292196D01*
X136504677Y-81311246D01*
X136535917Y-81336883D01*
X136561554Y-81368123D01*
X136580604Y-81403762D01*
X136592335Y-81442432D01*
X136596900Y-81488788D01*
X136596900Y-82565012D01*
X136592335Y-82611368D01*
X136580604Y-82650038D01*
X136561554Y-82685677D01*
X136535917Y-82716917D01*
X136504677Y-82742554D01*
X136469038Y-82761604D01*
X136430368Y-82773335D01*
X136384012Y-82777900D01*
X135732788Y-82777900D01*
X135686432Y-82773335D01*
X135647762Y-82761604D01*
X135612123Y-82742554D01*
X135580883Y-82716917D01*
X135555246Y-82685677D01*
X135536196Y-82650038D01*
X135524465Y-82611368D01*
X135519900Y-82565012D01*
X135519900Y-81488788D01*
X135524465Y-81442432D01*
X135536196Y-81403762D01*
X135555246Y-81368123D01*
X135580883Y-81336883D01*
X135612123Y-81311246D01*
X135647762Y-81292196D01*
X135686432Y-81280465D01*
X135732788Y-81275900D01*
X136384012Y-81275900D01*
X136430368Y-81280465D01*
G37*
G36*
X134555368Y-81280465D02*
G01*
X134594038Y-81292196D01*
X134629677Y-81311246D01*
X134660917Y-81336883D01*
X134686554Y-81368123D01*
X134705604Y-81403762D01*
X134717335Y-81442432D01*
X134721900Y-81488788D01*
X134721900Y-82565012D01*
X134717335Y-82611368D01*
X134705604Y-82650038D01*
X134686554Y-82685677D01*
X134660917Y-82716917D01*
X134629677Y-82742554D01*
X134594038Y-82761604D01*
X134555368Y-82773335D01*
X134509012Y-82777900D01*
X133857788Y-82777900D01*
X133811432Y-82773335D01*
X133772762Y-82761604D01*
X133737123Y-82742554D01*
X133705883Y-82716917D01*
X133680246Y-82685677D01*
X133661196Y-82650038D01*
X133649465Y-82611368D01*
X133644900Y-82565012D01*
X133644900Y-81488788D01*
X133649465Y-81442432D01*
X133661196Y-81403762D01*
X133680246Y-81368123D01*
X133705883Y-81336883D01*
X133737123Y-81311246D01*
X133772762Y-81292196D01*
X133811432Y-81280465D01*
X133857788Y-81275900D01*
X134509012Y-81275900D01*
X134555368Y-81280465D01*
G37*
G36*
X145430368Y-81280465D02*
G01*
X145469038Y-81292196D01*
X145504677Y-81311246D01*
X145535917Y-81336883D01*
X145561554Y-81368123D01*
X145580604Y-81403762D01*
X145592335Y-81442432D01*
X145596900Y-81488788D01*
X145596900Y-82565012D01*
X145592335Y-82611368D01*
X145580604Y-82650038D01*
X145561554Y-82685677D01*
X145535917Y-82716917D01*
X145504677Y-82742554D01*
X145469038Y-82761604D01*
X145430368Y-82773335D01*
X145384012Y-82777900D01*
X144732788Y-82777900D01*
X144686432Y-82773335D01*
X144647762Y-82761604D01*
X144612123Y-82742554D01*
X144580883Y-82716917D01*
X144555246Y-82685677D01*
X144536196Y-82650038D01*
X144524465Y-82611368D01*
X144519900Y-82565012D01*
X144519900Y-81488788D01*
X144524465Y-81442432D01*
X144536196Y-81403762D01*
X144555246Y-81368123D01*
X144580883Y-81336883D01*
X144612123Y-81311246D01*
X144647762Y-81292196D01*
X144686432Y-81280465D01*
X144732788Y-81275900D01*
X145384012Y-81275900D01*
X145430368Y-81280465D01*
G37*
G36*
X154722966Y-76878495D02*
G01*
X154880060Y-76926149D01*
X155024831Y-77003531D01*
X155151728Y-77107672D01*
X155255869Y-77234569D01*
X155333251Y-77379340D01*
X155380905Y-77536434D01*
X155397600Y-77705940D01*
X155397600Y-79619660D01*
X155380905Y-79789166D01*
X155333251Y-79946260D01*
X155255869Y-80091031D01*
X155151728Y-80217928D01*
X155024831Y-80322069D01*
X154880060Y-80399451D01*
X154722966Y-80447105D01*
X154553460Y-80463800D01*
X152639740Y-80463800D01*
X152470234Y-80447105D01*
X152313140Y-80399451D01*
X152168369Y-80322069D01*
X152041472Y-80217928D01*
X151937331Y-80091031D01*
X151859949Y-79946260D01*
X151812295Y-79789166D01*
X151795600Y-79619660D01*
X151795600Y-77705940D01*
X151812295Y-77536434D01*
X151859949Y-77379340D01*
X151937331Y-77234569D01*
X152041472Y-77107672D01*
X152168369Y-77003531D01*
X152313140Y-76926149D01*
X152470234Y-76878495D01*
X152639740Y-76861800D01*
X154553460Y-76861800D01*
X154722966Y-76878495D01*
G37*
G36*
X136430368Y-78387265D02*
G01*
X136469038Y-78398996D01*
X136504677Y-78418046D01*
X136535917Y-78443683D01*
X136561554Y-78474923D01*
X136580604Y-78510562D01*
X136592335Y-78549232D01*
X136596900Y-78595588D01*
X136596900Y-79671812D01*
X136592335Y-79718168D01*
X136580604Y-79756838D01*
X136561554Y-79792477D01*
X136535917Y-79823717D01*
X136504677Y-79849354D01*
X136469038Y-79868404D01*
X136430368Y-79880135D01*
X136384012Y-79884700D01*
X135732788Y-79884700D01*
X135686432Y-79880135D01*
X135647762Y-79868404D01*
X135612123Y-79849354D01*
X135580883Y-79823717D01*
X135555246Y-79792477D01*
X135536196Y-79756838D01*
X135524465Y-79718168D01*
X135519900Y-79671812D01*
X135519900Y-78595588D01*
X135524465Y-78549232D01*
X135536196Y-78510562D01*
X135555246Y-78474923D01*
X135580883Y-78443683D01*
X135612123Y-78418046D01*
X135647762Y-78398996D01*
X135686432Y-78387265D01*
X135732788Y-78382700D01*
X136384012Y-78382700D01*
X136430368Y-78387265D01*
G37*
G36*
X134555368Y-78387265D02*
G01*
X134594038Y-78398996D01*
X134629677Y-78418046D01*
X134660917Y-78443683D01*
X134686554Y-78474923D01*
X134705604Y-78510562D01*
X134717335Y-78549232D01*
X134721900Y-78595588D01*
X134721900Y-79671812D01*
X134717335Y-79718168D01*
X134705604Y-79756838D01*
X134686554Y-79792477D01*
X134660917Y-79823717D01*
X134629677Y-79849354D01*
X134594038Y-79868404D01*
X134555368Y-79880135D01*
X134509012Y-79884700D01*
X133857788Y-79884700D01*
X133811432Y-79880135D01*
X133772762Y-79868404D01*
X133737123Y-79849354D01*
X133705883Y-79823717D01*
X133680246Y-79792477D01*
X133661196Y-79756838D01*
X133649465Y-79718168D01*
X133644900Y-79671812D01*
X133644900Y-78595588D01*
X133649465Y-78549232D01*
X133661196Y-78510562D01*
X133680246Y-78474923D01*
X133705883Y-78443683D01*
X133737123Y-78418046D01*
X133772762Y-78398996D01*
X133811432Y-78387265D01*
X133857788Y-78382700D01*
X134509012Y-78382700D01*
X134555368Y-78387265D01*
G37*
G36*
X143555368Y-78374565D02*
G01*
X143594038Y-78386296D01*
X143629677Y-78405346D01*
X143660917Y-78430983D01*
X143686554Y-78462223D01*
X143705604Y-78497862D01*
X143717335Y-78536532D01*
X143721900Y-78582888D01*
X143721900Y-79659112D01*
X143717335Y-79705468D01*
X143705604Y-79744138D01*
X143686554Y-79779777D01*
X143660917Y-79811017D01*
X143629677Y-79836654D01*
X143594038Y-79855704D01*
X143555368Y-79867435D01*
X143509012Y-79872000D01*
X142857788Y-79872000D01*
X142811432Y-79867435D01*
X142772762Y-79855704D01*
X142737123Y-79836654D01*
X142705883Y-79811017D01*
X142680246Y-79779777D01*
X142661196Y-79744138D01*
X142649465Y-79705468D01*
X142644900Y-79659112D01*
X142644900Y-78582888D01*
X142649465Y-78536532D01*
X142661196Y-78497862D01*
X142680246Y-78462223D01*
X142705883Y-78430983D01*
X142737123Y-78405346D01*
X142772762Y-78386296D01*
X142811432Y-78374565D01*
X142857788Y-78370000D01*
X143509012Y-78370000D01*
X143555368Y-78374565D01*
G37*
G36*
X145430368Y-78374565D02*
G01*
X145469038Y-78386296D01*
X145504677Y-78405346D01*
X145535917Y-78430983D01*
X145561554Y-78462223D01*
X145580604Y-78497862D01*
X145592335Y-78536532D01*
X145596900Y-78582888D01*
X145596900Y-79659112D01*
X145592335Y-79705468D01*
X145580604Y-79744138D01*
X145561554Y-79779777D01*
X145535917Y-79811017D01*
X145504677Y-79836654D01*
X145469038Y-79855704D01*
X145430368Y-79867435D01*
X145384012Y-79872000D01*
X144732788Y-79872000D01*
X144686432Y-79867435D01*
X144647762Y-79855704D01*
X144612123Y-79836654D01*
X144580883Y-79811017D01*
X144555246Y-79779777D01*
X144536196Y-79744138D01*
X144524465Y-79705468D01*
X144519900Y-79659112D01*
X144519900Y-78582888D01*
X144524465Y-78536532D01*
X144536196Y-78497862D01*
X144555246Y-78462223D01*
X144580883Y-78430983D01*
X144612123Y-78405346D01*
X144647762Y-78386296D01*
X144686432Y-78374565D01*
X144732788Y-78370000D01*
X145384012Y-78370000D01*
X145430368Y-78374565D01*
G37*
M02*
