G04 #@! TF.GenerationSoftware,KiCad,Pcbnew,5.1.5-52549c5~86~ubuntu16.04.1*
G04 #@! TF.CreationDate,2020-11-24T20:56:35+05:30*
G04 #@! TF.ProjectId,DC-DC 12V to 3.3V 5V Multi Output Voltage Conversion V1.0,44432d44-4320-4313-9256-20746f20332e,V1.0*
G04 #@! TF.SameCoordinates,Original*
G04 #@! TF.FileFunction,Legend,Top*
G04 #@! TF.FilePolarity,Positive*
%FSLAX46Y46*%
G04 Gerber Fmt 4.6, Leading zero omitted, Abs format (unit mm)*
G04 Created by KiCad (PCBNEW 5.1.5-52549c5~86~ubuntu16.04.1) date 2020-11-24 20:56:35*
%MOMM*%
%LPD*%
G04 APERTURE LIST*
%ADD10C,0.120000*%
%ADD11C,0.250000*%
%ADD12C,0.200000*%
%ADD13C,0.100000*%
%ADD14C,0.150000*%
%ADD15C,0.254000*%
G04 APERTURE END LIST*
D10*
X158584900Y-105397300D02*
X158584900Y-105029000D01*
X156413200Y-105397300D02*
X158584900Y-105397300D01*
X150850600Y-105384600D02*
X153123900Y-105384600D01*
X150850600Y-104927400D02*
X150850600Y-105384600D01*
X148577300Y-105448100D02*
X148577300Y-104978200D01*
X146710400Y-105448100D02*
X148577300Y-105448100D01*
X140855700Y-105562400D02*
X143459200Y-105562400D01*
X140855700Y-105206800D02*
X140855700Y-105562400D01*
X138544300Y-105384600D02*
X138544300Y-104902000D01*
X136359900Y-105384600D02*
X138544300Y-105384600D01*
X130822700Y-105333800D02*
X133146800Y-105333800D01*
X130822700Y-104825800D02*
X130822700Y-105333800D01*
D11*
X154025695Y-104884600D02*
X153930457Y-104836980D01*
X153787600Y-104836980D01*
X153644742Y-104884600D01*
X153549504Y-104979838D01*
X153501885Y-105075076D01*
X153454266Y-105265552D01*
X153454266Y-105408409D01*
X153501885Y-105598885D01*
X153549504Y-105694123D01*
X153644742Y-105789361D01*
X153787600Y-105836980D01*
X153882838Y-105836980D01*
X154025695Y-105789361D01*
X154073314Y-105741742D01*
X154073314Y-105408409D01*
X153882838Y-105408409D01*
X154501885Y-105836980D02*
X154501885Y-104836980D01*
X155073314Y-105836980D01*
X155073314Y-104836980D01*
X155549504Y-105836980D02*
X155549504Y-104836980D01*
X155787600Y-104836980D01*
X155930457Y-104884600D01*
X156025695Y-104979838D01*
X156073314Y-105075076D01*
X156120933Y-105265552D01*
X156120933Y-105408409D01*
X156073314Y-105598885D01*
X156025695Y-105694123D01*
X155930457Y-105789361D01*
X155787600Y-105836980D01*
X155549504Y-105836980D01*
X144386395Y-104897300D02*
X144291157Y-104849680D01*
X144148300Y-104849680D01*
X144005442Y-104897300D01*
X143910204Y-104992538D01*
X143862585Y-105087776D01*
X143814966Y-105278252D01*
X143814966Y-105421109D01*
X143862585Y-105611585D01*
X143910204Y-105706823D01*
X144005442Y-105802061D01*
X144148300Y-105849680D01*
X144243538Y-105849680D01*
X144386395Y-105802061D01*
X144434014Y-105754442D01*
X144434014Y-105421109D01*
X144243538Y-105421109D01*
X144862585Y-105849680D02*
X144862585Y-104849680D01*
X145434014Y-105849680D01*
X145434014Y-104849680D01*
X145910204Y-105849680D02*
X145910204Y-104849680D01*
X146148300Y-104849680D01*
X146291157Y-104897300D01*
X146386395Y-104992538D01*
X146434014Y-105087776D01*
X146481633Y-105278252D01*
X146481633Y-105421109D01*
X146434014Y-105611585D01*
X146386395Y-105706823D01*
X146291157Y-105802061D01*
X146148300Y-105849680D01*
X145910204Y-105849680D01*
X134010495Y-104884600D02*
X133915257Y-104836980D01*
X133772400Y-104836980D01*
X133629542Y-104884600D01*
X133534304Y-104979838D01*
X133486685Y-105075076D01*
X133439066Y-105265552D01*
X133439066Y-105408409D01*
X133486685Y-105598885D01*
X133534304Y-105694123D01*
X133629542Y-105789361D01*
X133772400Y-105836980D01*
X133867638Y-105836980D01*
X134010495Y-105789361D01*
X134058114Y-105741742D01*
X134058114Y-105408409D01*
X133867638Y-105408409D01*
X134486685Y-105836980D02*
X134486685Y-104836980D01*
X135058114Y-105836980D01*
X135058114Y-104836980D01*
X135534304Y-105836980D02*
X135534304Y-104836980D01*
X135772400Y-104836980D01*
X135915257Y-104884600D01*
X136010495Y-104979838D01*
X136058114Y-105075076D01*
X136105733Y-105265552D01*
X136105733Y-105408409D01*
X136058114Y-105598885D01*
X136010495Y-105694123D01*
X135915257Y-105789361D01*
X135772400Y-105836980D01*
X135534304Y-105836980D01*
X131410485Y-97864680D02*
X132029533Y-97864680D01*
X131696200Y-98245633D01*
X131839057Y-98245633D01*
X131934295Y-98293252D01*
X131981914Y-98340871D01*
X132029533Y-98436109D01*
X132029533Y-98674204D01*
X131981914Y-98769442D01*
X131934295Y-98817061D01*
X131839057Y-98864680D01*
X131553342Y-98864680D01*
X131458104Y-98817061D01*
X131410485Y-98769442D01*
X132458104Y-98769442D02*
X132505723Y-98817061D01*
X132458104Y-98864680D01*
X132410485Y-98817061D01*
X132458104Y-98769442D01*
X132458104Y-98864680D01*
X132839057Y-97864680D02*
X133458104Y-97864680D01*
X133124771Y-98245633D01*
X133267628Y-98245633D01*
X133362866Y-98293252D01*
X133410485Y-98340871D01*
X133458104Y-98436109D01*
X133458104Y-98674204D01*
X133410485Y-98769442D01*
X133362866Y-98817061D01*
X133267628Y-98864680D01*
X132981914Y-98864680D01*
X132886676Y-98817061D01*
X132839057Y-98769442D01*
X133743819Y-97864680D02*
X134077152Y-98864680D01*
X134410485Y-97864680D01*
X135696200Y-97864680D02*
X135886676Y-97864680D01*
X135981914Y-97912300D01*
X136077152Y-98007538D01*
X136124771Y-98198014D01*
X136124771Y-98531347D01*
X136077152Y-98721823D01*
X135981914Y-98817061D01*
X135886676Y-98864680D01*
X135696200Y-98864680D01*
X135600961Y-98817061D01*
X135505723Y-98721823D01*
X135458104Y-98531347D01*
X135458104Y-98198014D01*
X135505723Y-98007538D01*
X135600961Y-97912300D01*
X135696200Y-97864680D01*
X136553342Y-97864680D02*
X136553342Y-98674204D01*
X136600961Y-98769442D01*
X136648580Y-98817061D01*
X136743819Y-98864680D01*
X136934295Y-98864680D01*
X137029533Y-98817061D01*
X137077152Y-98769442D01*
X137124771Y-98674204D01*
X137124771Y-97864680D01*
X137458104Y-97864680D02*
X138029533Y-97864680D01*
X137743819Y-98864680D02*
X137743819Y-97864680D01*
X142373600Y-97890080D02*
X141897409Y-97890080D01*
X141849790Y-98366271D01*
X141897409Y-98318652D01*
X141992647Y-98271033D01*
X142230742Y-98271033D01*
X142325980Y-98318652D01*
X142373600Y-98366271D01*
X142421219Y-98461509D01*
X142421219Y-98699604D01*
X142373600Y-98794842D01*
X142325980Y-98842461D01*
X142230742Y-98890080D01*
X141992647Y-98890080D01*
X141897409Y-98842461D01*
X141849790Y-98794842D01*
X142706933Y-97890080D02*
X143040266Y-98890080D01*
X143373600Y-97890080D01*
X144659314Y-97890080D02*
X144849790Y-97890080D01*
X144945028Y-97937700D01*
X145040266Y-98032938D01*
X145087885Y-98223414D01*
X145087885Y-98556747D01*
X145040266Y-98747223D01*
X144945028Y-98842461D01*
X144849790Y-98890080D01*
X144659314Y-98890080D01*
X144564076Y-98842461D01*
X144468838Y-98747223D01*
X144421219Y-98556747D01*
X144421219Y-98223414D01*
X144468838Y-98032938D01*
X144564076Y-97937700D01*
X144659314Y-97890080D01*
X145516457Y-97890080D02*
X145516457Y-98699604D01*
X145564076Y-98794842D01*
X145611695Y-98842461D01*
X145706933Y-98890080D01*
X145897409Y-98890080D01*
X145992647Y-98842461D01*
X146040266Y-98794842D01*
X146087885Y-98699604D01*
X146087885Y-97890080D01*
X146421219Y-97890080D02*
X146992647Y-97890080D01*
X146706933Y-98890080D02*
X146706933Y-97890080D01*
X150378019Y-98864680D02*
X149806590Y-98864680D01*
X150092304Y-98864680D02*
X150092304Y-97864680D01*
X149997066Y-98007538D01*
X149901828Y-98102776D01*
X149806590Y-98150395D01*
X150758971Y-97959919D02*
X150806590Y-97912300D01*
X150901828Y-97864680D01*
X151139923Y-97864680D01*
X151235161Y-97912300D01*
X151282780Y-97959919D01*
X151330400Y-98055157D01*
X151330400Y-98150395D01*
X151282780Y-98293252D01*
X150711352Y-98864680D01*
X151330400Y-98864680D01*
X151616114Y-97864680D02*
X151949447Y-98864680D01*
X152282780Y-97864680D01*
X152616114Y-98483728D02*
X153378019Y-98483728D01*
X153854209Y-98864680D02*
X153854209Y-97864680D01*
X154330400Y-98864680D02*
X154330400Y-97864680D01*
X154901828Y-98864680D01*
X154901828Y-97864680D01*
X156092304Y-97817061D02*
X155235161Y-99102776D01*
X156616114Y-97864680D02*
X156806590Y-97864680D01*
X156901828Y-97912300D01*
X156997066Y-98007538D01*
X157044685Y-98198014D01*
X157044685Y-98531347D01*
X156997066Y-98721823D01*
X156901828Y-98817061D01*
X156806590Y-98864680D01*
X156616114Y-98864680D01*
X156520876Y-98817061D01*
X156425638Y-98721823D01*
X156378019Y-98531347D01*
X156378019Y-98198014D01*
X156425638Y-98007538D01*
X156520876Y-97912300D01*
X156616114Y-97864680D01*
X157473257Y-97864680D02*
X157473257Y-98674204D01*
X157520876Y-98769442D01*
X157568495Y-98817061D01*
X157663733Y-98864680D01*
X157854209Y-98864680D01*
X157949447Y-98817061D01*
X157997066Y-98769442D01*
X158044685Y-98674204D01*
X158044685Y-97864680D01*
X158378019Y-97864680D02*
X158949447Y-97864680D01*
X158663733Y-98864680D02*
X158663733Y-97864680D01*
D10*
X149696600Y-87962800D02*
X149696600Y-85362800D01*
X164396600Y-87962800D02*
X149696600Y-87962800D01*
X149696600Y-78762800D02*
X151596600Y-78762800D01*
X149696600Y-81462800D02*
X149696600Y-78762800D01*
X164396600Y-78762800D02*
X164396600Y-87962800D01*
X155596600Y-78762800D02*
X164396600Y-78762800D01*
X150546600Y-88162800D02*
X149496600Y-88162800D01*
X149496600Y-87112800D02*
X149496600Y-88162800D01*
D12*
X150036400Y-90628800D02*
G75*
G02X150036400Y-90828800I0J-100000D01*
G01*
X150036400Y-90828800D02*
G75*
G02X150036400Y-90628800I0J100000D01*
G01*
X150036400Y-90828800D02*
X150036400Y-90828800D01*
X150036400Y-90628800D02*
X150036400Y-90628800D01*
D13*
X150536400Y-89228800D02*
X158536400Y-89228800D01*
X150536400Y-97228800D02*
X150536400Y-89228800D01*
X158536400Y-97228800D02*
X150536400Y-97228800D01*
X158536400Y-89228800D02*
X158536400Y-97228800D01*
D10*
X140862000Y-92923800D02*
X140862000Y-86913800D01*
X147682000Y-90673800D02*
X147682000Y-86913800D01*
X140862000Y-86913800D02*
X142122000Y-86913800D01*
X147682000Y-86913800D02*
X146422000Y-86913800D01*
X131718000Y-92860300D02*
X131718000Y-86850300D01*
X138538000Y-90610300D02*
X138538000Y-86850300D01*
X131718000Y-86850300D02*
X132978000Y-86850300D01*
X138538000Y-86850300D02*
X137278000Y-86850300D01*
X143862322Y-79831000D02*
X144379478Y-79831000D01*
X143862322Y-78411000D02*
X144379478Y-78411000D01*
X140829000Y-104642300D02*
X140829000Y-103312300D01*
X142159000Y-104642300D02*
X140829000Y-104642300D01*
X140829000Y-102042300D02*
X140829000Y-99442300D01*
X143429000Y-102042300D02*
X140829000Y-102042300D01*
X143429000Y-104642300D02*
X143429000Y-102042300D01*
X140829000Y-99442300D02*
X148569000Y-99442300D01*
X143429000Y-104642300D02*
X148569000Y-104642300D01*
X148569000Y-104642300D02*
X148569000Y-99442300D01*
X130829000Y-104642300D02*
X130829000Y-103312300D01*
X132159000Y-104642300D02*
X130829000Y-104642300D01*
X130829000Y-102042300D02*
X130829000Y-99442300D01*
X133429000Y-102042300D02*
X130829000Y-102042300D01*
X133429000Y-104642300D02*
X133429000Y-102042300D01*
X130829000Y-99442300D02*
X138569000Y-99442300D01*
X133429000Y-104642300D02*
X138569000Y-104642300D01*
X138569000Y-104642300D02*
X138569000Y-99442300D01*
X150829000Y-104642300D02*
X150829000Y-103312300D01*
X152159000Y-104642300D02*
X150829000Y-104642300D01*
X150829000Y-102042300D02*
X150829000Y-99442300D01*
X153429000Y-102042300D02*
X150829000Y-102042300D01*
X153429000Y-104642300D02*
X153429000Y-102042300D01*
X150829000Y-99442300D02*
X158569000Y-99442300D01*
X153429000Y-104642300D02*
X158569000Y-104642300D01*
X158569000Y-104642300D02*
X158569000Y-99442300D01*
X133435900Y-80093700D02*
X136120900Y-80093700D01*
X133435900Y-78173700D02*
X133435900Y-80093700D01*
X136120900Y-78173700D02*
X133435900Y-78173700D01*
X147369600Y-96109078D02*
X147369600Y-95591922D01*
X145949600Y-96109078D02*
X145949600Y-95591922D01*
X142518200Y-96109078D02*
X142518200Y-95591922D01*
X141098200Y-96109078D02*
X141098200Y-95591922D01*
X133386900Y-96109078D02*
X133386900Y-95591922D01*
X131966900Y-96109078D02*
X131966900Y-95591922D01*
X138111300Y-96109078D02*
X138111300Y-95591922D01*
X136691300Y-96109078D02*
X136691300Y-95591922D01*
X135379478Y-81316900D02*
X134862322Y-81316900D01*
X135379478Y-82736900D02*
X134862322Y-82736900D01*
X144379478Y-81316900D02*
X143862322Y-81316900D01*
X144379478Y-82736900D02*
X143862322Y-82736900D01*
D14*
X157527666Y-77065180D02*
X157527666Y-77779466D01*
X157480047Y-77922323D01*
X157384809Y-78017561D01*
X157241952Y-78065180D01*
X157146714Y-78065180D01*
X158527666Y-78065180D02*
X157956238Y-78065180D01*
X158241952Y-78065180D02*
X158241952Y-77065180D01*
X158146714Y-77208038D01*
X158051476Y-77303276D01*
X157956238Y-77350895D01*
D15*
X154750447Y-94922133D02*
X154810923Y-94740704D01*
X154810923Y-94438323D01*
X154750447Y-94317371D01*
X154689971Y-94256895D01*
X154569019Y-94196419D01*
X154448066Y-94196419D01*
X154327114Y-94256895D01*
X154266638Y-94317371D01*
X154206161Y-94438323D01*
X154145685Y-94680228D01*
X154085209Y-94801180D01*
X154024733Y-94861657D01*
X153903780Y-94922133D01*
X153782828Y-94922133D01*
X153661876Y-94861657D01*
X153601400Y-94801180D01*
X153540923Y-94680228D01*
X153540923Y-94377847D01*
X153601400Y-94196419D01*
X153540923Y-93773085D02*
X154810923Y-93470704D01*
X153903780Y-93228800D01*
X154810923Y-92986895D01*
X153540923Y-92684514D01*
X154810923Y-91535466D02*
X154810923Y-92261180D01*
X154810923Y-91898323D02*
X153540923Y-91898323D01*
X153722352Y-92019276D01*
X153843304Y-92140228D01*
X153903780Y-92261180D01*
D14*
X139224380Y-89585704D02*
X140033904Y-89585704D01*
X140129142Y-89538085D01*
X140176761Y-89490466D01*
X140224380Y-89395228D01*
X140224380Y-89204752D01*
X140176761Y-89109514D01*
X140129142Y-89061895D01*
X140033904Y-89014276D01*
X139224380Y-89014276D01*
X139319619Y-88585704D02*
X139272000Y-88538085D01*
X139224380Y-88442847D01*
X139224380Y-88204752D01*
X139272000Y-88109514D01*
X139319619Y-88061895D01*
X139414857Y-88014276D01*
X139510095Y-88014276D01*
X139652952Y-88061895D01*
X140224380Y-88633323D01*
X140224380Y-88014276D01*
X130080380Y-89522204D02*
X130889904Y-89522204D01*
X130985142Y-89474585D01*
X131032761Y-89426966D01*
X131080380Y-89331728D01*
X131080380Y-89141252D01*
X131032761Y-89046014D01*
X130985142Y-88998395D01*
X130889904Y-88950776D01*
X130080380Y-88950776D01*
X131080380Y-87950776D02*
X131080380Y-88522204D01*
X131080380Y-88236490D02*
X130080380Y-88236490D01*
X130223238Y-88331728D01*
X130318476Y-88426966D01*
X130366095Y-88522204D01*
X143954233Y-77923380D02*
X143620900Y-77447190D01*
X143382804Y-77923380D02*
X143382804Y-76923380D01*
X143763757Y-76923380D01*
X143858995Y-76971000D01*
X143906614Y-77018619D01*
X143954233Y-77113857D01*
X143954233Y-77256714D01*
X143906614Y-77351952D01*
X143858995Y-77399571D01*
X143763757Y-77447190D01*
X143382804Y-77447190D01*
X144906614Y-77923380D02*
X144335185Y-77923380D01*
X144620900Y-77923380D02*
X144620900Y-76923380D01*
X144525661Y-77066238D01*
X144430423Y-77161476D01*
X144335185Y-77209095D01*
X139281380Y-102375633D02*
X139995666Y-102375633D01*
X140138523Y-102423252D01*
X140233761Y-102518490D01*
X140281380Y-102661347D01*
X140281380Y-102756585D01*
X139614714Y-101470871D02*
X140281380Y-101470871D01*
X139233761Y-101708966D02*
X139948047Y-101947061D01*
X139948047Y-101328014D01*
X129754380Y-102441333D02*
X130468666Y-102441333D01*
X130611523Y-102488952D01*
X130706761Y-102584190D01*
X130754380Y-102727047D01*
X130754380Y-102822285D01*
X129754380Y-102060380D02*
X129754380Y-101441333D01*
X130135333Y-101774666D01*
X130135333Y-101631809D01*
X130182952Y-101536571D01*
X130230571Y-101488952D01*
X130325809Y-101441333D01*
X130563904Y-101441333D01*
X130659142Y-101488952D01*
X130706761Y-101536571D01*
X130754380Y-101631809D01*
X130754380Y-101917523D01*
X130706761Y-102012761D01*
X130659142Y-102060380D01*
X149281380Y-102375633D02*
X149995666Y-102375633D01*
X150138523Y-102423252D01*
X150233761Y-102518490D01*
X150281380Y-102661347D01*
X150281380Y-102756585D01*
X149376619Y-101947061D02*
X149329000Y-101899442D01*
X149281380Y-101804204D01*
X149281380Y-101566109D01*
X149329000Y-101470871D01*
X149376619Y-101423252D01*
X149471857Y-101375633D01*
X149567095Y-101375633D01*
X149709952Y-101423252D01*
X150281380Y-101994680D01*
X150281380Y-101375633D01*
X134382804Y-77936080D02*
X134382804Y-76936080D01*
X134620900Y-76936080D01*
X134763757Y-76983700D01*
X134858995Y-77078938D01*
X134906614Y-77174176D01*
X134954233Y-77364652D01*
X134954233Y-77507509D01*
X134906614Y-77697985D01*
X134858995Y-77793223D01*
X134763757Y-77888461D01*
X134620900Y-77936080D01*
X134382804Y-77936080D01*
X135906614Y-77936080D02*
X135335185Y-77936080D01*
X135620900Y-77936080D02*
X135620900Y-76936080D01*
X135525661Y-77078938D01*
X135430423Y-77174176D01*
X135335185Y-77221795D01*
X145366742Y-96017166D02*
X145414361Y-96064785D01*
X145461980Y-96207642D01*
X145461980Y-96302880D01*
X145414361Y-96445738D01*
X145319123Y-96540976D01*
X145223885Y-96588595D01*
X145033409Y-96636214D01*
X144890552Y-96636214D01*
X144700076Y-96588595D01*
X144604838Y-96540976D01*
X144509600Y-96445738D01*
X144461980Y-96302880D01*
X144461980Y-96207642D01*
X144509600Y-96064785D01*
X144557219Y-96017166D01*
X144461980Y-95160023D02*
X144461980Y-95350500D01*
X144509600Y-95445738D01*
X144557219Y-95493357D01*
X144700076Y-95588595D01*
X144890552Y-95636214D01*
X145271504Y-95636214D01*
X145366742Y-95588595D01*
X145414361Y-95540976D01*
X145461980Y-95445738D01*
X145461980Y-95255261D01*
X145414361Y-95160023D01*
X145366742Y-95112404D01*
X145271504Y-95064785D01*
X145033409Y-95064785D01*
X144938171Y-95112404D01*
X144890552Y-95160023D01*
X144842933Y-95255261D01*
X144842933Y-95445738D01*
X144890552Y-95540976D01*
X144938171Y-95588595D01*
X145033409Y-95636214D01*
X140515342Y-96017166D02*
X140562961Y-96064785D01*
X140610580Y-96207642D01*
X140610580Y-96302880D01*
X140562961Y-96445738D01*
X140467723Y-96540976D01*
X140372485Y-96588595D01*
X140182009Y-96636214D01*
X140039152Y-96636214D01*
X139848676Y-96588595D01*
X139753438Y-96540976D01*
X139658200Y-96445738D01*
X139610580Y-96302880D01*
X139610580Y-96207642D01*
X139658200Y-96064785D01*
X139705819Y-96017166D01*
X139610580Y-95112404D02*
X139610580Y-95588595D01*
X140086771Y-95636214D01*
X140039152Y-95588595D01*
X139991533Y-95493357D01*
X139991533Y-95255261D01*
X140039152Y-95160023D01*
X140086771Y-95112404D01*
X140182009Y-95064785D01*
X140420104Y-95064785D01*
X140515342Y-95112404D01*
X140562961Y-95160023D01*
X140610580Y-95255261D01*
X140610580Y-95493357D01*
X140562961Y-95588595D01*
X140515342Y-95636214D01*
X131384042Y-96017166D02*
X131431661Y-96064785D01*
X131479280Y-96207642D01*
X131479280Y-96302880D01*
X131431661Y-96445738D01*
X131336423Y-96540976D01*
X131241185Y-96588595D01*
X131050709Y-96636214D01*
X130907852Y-96636214D01*
X130717376Y-96588595D01*
X130622138Y-96540976D01*
X130526900Y-96445738D01*
X130479280Y-96302880D01*
X130479280Y-96207642D01*
X130526900Y-96064785D01*
X130574519Y-96017166D01*
X130812614Y-95160023D02*
X131479280Y-95160023D01*
X130431661Y-95398119D02*
X131145947Y-95636214D01*
X131145947Y-95017166D01*
X136108442Y-96017166D02*
X136156061Y-96064785D01*
X136203680Y-96207642D01*
X136203680Y-96302880D01*
X136156061Y-96445738D01*
X136060823Y-96540976D01*
X135965585Y-96588595D01*
X135775109Y-96636214D01*
X135632252Y-96636214D01*
X135441776Y-96588595D01*
X135346538Y-96540976D01*
X135251300Y-96445738D01*
X135203680Y-96302880D01*
X135203680Y-96207642D01*
X135251300Y-96064785D01*
X135298919Y-96017166D01*
X135203680Y-95683833D02*
X135203680Y-95064785D01*
X135584633Y-95398119D01*
X135584633Y-95255261D01*
X135632252Y-95160023D01*
X135679871Y-95112404D01*
X135775109Y-95064785D01*
X136013204Y-95064785D01*
X136108442Y-95112404D01*
X136156061Y-95160023D01*
X136203680Y-95255261D01*
X136203680Y-95540976D01*
X136156061Y-95636214D01*
X136108442Y-95683833D01*
X134954233Y-84034042D02*
X134906614Y-84081661D01*
X134763757Y-84129280D01*
X134668519Y-84129280D01*
X134525661Y-84081661D01*
X134430423Y-83986423D01*
X134382804Y-83891185D01*
X134335185Y-83700709D01*
X134335185Y-83557852D01*
X134382804Y-83367376D01*
X134430423Y-83272138D01*
X134525661Y-83176900D01*
X134668519Y-83129280D01*
X134763757Y-83129280D01*
X134906614Y-83176900D01*
X134954233Y-83224519D01*
X135335185Y-83224519D02*
X135382804Y-83176900D01*
X135478042Y-83129280D01*
X135716138Y-83129280D01*
X135811376Y-83176900D01*
X135858995Y-83224519D01*
X135906614Y-83319757D01*
X135906614Y-83414995D01*
X135858995Y-83557852D01*
X135287566Y-84129280D01*
X135906614Y-84129280D01*
X143954233Y-84034042D02*
X143906614Y-84081661D01*
X143763757Y-84129280D01*
X143668519Y-84129280D01*
X143525661Y-84081661D01*
X143430423Y-83986423D01*
X143382804Y-83891185D01*
X143335185Y-83700709D01*
X143335185Y-83557852D01*
X143382804Y-83367376D01*
X143430423Y-83272138D01*
X143525661Y-83176900D01*
X143668519Y-83129280D01*
X143763757Y-83129280D01*
X143906614Y-83176900D01*
X143954233Y-83224519D01*
X144906614Y-84129280D02*
X144335185Y-84129280D01*
X144620900Y-84129280D02*
X144620900Y-83129280D01*
X144525661Y-83272138D01*
X144430423Y-83367376D01*
X144335185Y-83414995D01*
M02*
