G04 #@! TF.GenerationSoftware,KiCad,Pcbnew,5.1.5-52549c5~86~ubuntu16.04.1*
G04 #@! TF.CreationDate,2020-11-24T20:56:35+05:30*
G04 #@! TF.ProjectId,DC-DC 12V to 3.3V 5V Multi Output Voltage Conversion V1.0,44432d44-4320-4313-9256-20746f20332e,V1.0*
G04 #@! TF.SameCoordinates,Original*
G04 #@! TF.FileFunction,Paste,Top*
G04 #@! TF.FilePolarity,Positive*
%FSLAX46Y46*%
G04 Gerber Fmt 4.6, Leading zero omitted, Abs format (unit mm)*
G04 Created by KiCad (PCBNEW 5.1.5-52549c5~86~ubuntu16.04.1) date 2020-11-24 20:56:35*
%MOMM*%
%LPD*%
G04 APERTURE LIST*
%ADD10R,1.500000X2.000000*%
%ADD11R,3.800000X2.000000*%
%ADD12C,0.100000*%
G04 APERTURE END LIST*
D10*
X141972000Y-91973800D03*
X146572000Y-91973800D03*
X144272000Y-91973800D03*
D11*
X144272000Y-85673800D03*
D10*
X132828000Y-91910300D03*
X137428000Y-91910300D03*
X135128000Y-91910300D03*
D11*
X135128000Y-85610300D03*
D12*
G36*
X145326042Y-78422174D02*
G01*
X145349703Y-78425684D01*
X145372907Y-78431496D01*
X145395429Y-78439554D01*
X145417053Y-78449782D01*
X145437570Y-78462079D01*
X145456783Y-78476329D01*
X145474507Y-78492393D01*
X145490571Y-78510117D01*
X145504821Y-78529330D01*
X145517118Y-78549847D01*
X145527346Y-78571471D01*
X145535404Y-78593993D01*
X145541216Y-78617197D01*
X145544726Y-78640858D01*
X145545900Y-78664750D01*
X145545900Y-79577250D01*
X145544726Y-79601142D01*
X145541216Y-79624803D01*
X145535404Y-79648007D01*
X145527346Y-79670529D01*
X145517118Y-79692153D01*
X145504821Y-79712670D01*
X145490571Y-79731883D01*
X145474507Y-79749607D01*
X145456783Y-79765671D01*
X145437570Y-79779921D01*
X145417053Y-79792218D01*
X145395429Y-79802446D01*
X145372907Y-79810504D01*
X145349703Y-79816316D01*
X145326042Y-79819826D01*
X145302150Y-79821000D01*
X144814650Y-79821000D01*
X144790758Y-79819826D01*
X144767097Y-79816316D01*
X144743893Y-79810504D01*
X144721371Y-79802446D01*
X144699747Y-79792218D01*
X144679230Y-79779921D01*
X144660017Y-79765671D01*
X144642293Y-79749607D01*
X144626229Y-79731883D01*
X144611979Y-79712670D01*
X144599682Y-79692153D01*
X144589454Y-79670529D01*
X144581396Y-79648007D01*
X144575584Y-79624803D01*
X144572074Y-79601142D01*
X144570900Y-79577250D01*
X144570900Y-78664750D01*
X144572074Y-78640858D01*
X144575584Y-78617197D01*
X144581396Y-78593993D01*
X144589454Y-78571471D01*
X144599682Y-78549847D01*
X144611979Y-78529330D01*
X144626229Y-78510117D01*
X144642293Y-78492393D01*
X144660017Y-78476329D01*
X144679230Y-78462079D01*
X144699747Y-78449782D01*
X144721371Y-78439554D01*
X144743893Y-78431496D01*
X144767097Y-78425684D01*
X144790758Y-78422174D01*
X144814650Y-78421000D01*
X145302150Y-78421000D01*
X145326042Y-78422174D01*
G37*
G36*
X143451042Y-78422174D02*
G01*
X143474703Y-78425684D01*
X143497907Y-78431496D01*
X143520429Y-78439554D01*
X143542053Y-78449782D01*
X143562570Y-78462079D01*
X143581783Y-78476329D01*
X143599507Y-78492393D01*
X143615571Y-78510117D01*
X143629821Y-78529330D01*
X143642118Y-78549847D01*
X143652346Y-78571471D01*
X143660404Y-78593993D01*
X143666216Y-78617197D01*
X143669726Y-78640858D01*
X143670900Y-78664750D01*
X143670900Y-79577250D01*
X143669726Y-79601142D01*
X143666216Y-79624803D01*
X143660404Y-79648007D01*
X143652346Y-79670529D01*
X143642118Y-79692153D01*
X143629821Y-79712670D01*
X143615571Y-79731883D01*
X143599507Y-79749607D01*
X143581783Y-79765671D01*
X143562570Y-79779921D01*
X143542053Y-79792218D01*
X143520429Y-79802446D01*
X143497907Y-79810504D01*
X143474703Y-79816316D01*
X143451042Y-79819826D01*
X143427150Y-79821000D01*
X142939650Y-79821000D01*
X142915758Y-79819826D01*
X142892097Y-79816316D01*
X142868893Y-79810504D01*
X142846371Y-79802446D01*
X142824747Y-79792218D01*
X142804230Y-79779921D01*
X142785017Y-79765671D01*
X142767293Y-79749607D01*
X142751229Y-79731883D01*
X142736979Y-79712670D01*
X142724682Y-79692153D01*
X142714454Y-79670529D01*
X142706396Y-79648007D01*
X142700584Y-79624803D01*
X142697074Y-79601142D01*
X142695900Y-79577250D01*
X142695900Y-78664750D01*
X142697074Y-78640858D01*
X142700584Y-78617197D01*
X142706396Y-78593993D01*
X142714454Y-78571471D01*
X142724682Y-78549847D01*
X142736979Y-78529330D01*
X142751229Y-78510117D01*
X142767293Y-78492393D01*
X142785017Y-78476329D01*
X142804230Y-78462079D01*
X142824747Y-78449782D01*
X142846371Y-78439554D01*
X142868893Y-78431496D01*
X142892097Y-78425684D01*
X142915758Y-78422174D01*
X142939650Y-78421000D01*
X143427150Y-78421000D01*
X143451042Y-78422174D01*
G37*
G36*
X136326042Y-78434874D02*
G01*
X136349703Y-78438384D01*
X136372907Y-78444196D01*
X136395429Y-78452254D01*
X136417053Y-78462482D01*
X136437570Y-78474779D01*
X136456783Y-78489029D01*
X136474507Y-78505093D01*
X136490571Y-78522817D01*
X136504821Y-78542030D01*
X136517118Y-78562547D01*
X136527346Y-78584171D01*
X136535404Y-78606693D01*
X136541216Y-78629897D01*
X136544726Y-78653558D01*
X136545900Y-78677450D01*
X136545900Y-79589950D01*
X136544726Y-79613842D01*
X136541216Y-79637503D01*
X136535404Y-79660707D01*
X136527346Y-79683229D01*
X136517118Y-79704853D01*
X136504821Y-79725370D01*
X136490571Y-79744583D01*
X136474507Y-79762307D01*
X136456783Y-79778371D01*
X136437570Y-79792621D01*
X136417053Y-79804918D01*
X136395429Y-79815146D01*
X136372907Y-79823204D01*
X136349703Y-79829016D01*
X136326042Y-79832526D01*
X136302150Y-79833700D01*
X135814650Y-79833700D01*
X135790758Y-79832526D01*
X135767097Y-79829016D01*
X135743893Y-79823204D01*
X135721371Y-79815146D01*
X135699747Y-79804918D01*
X135679230Y-79792621D01*
X135660017Y-79778371D01*
X135642293Y-79762307D01*
X135626229Y-79744583D01*
X135611979Y-79725370D01*
X135599682Y-79704853D01*
X135589454Y-79683229D01*
X135581396Y-79660707D01*
X135575584Y-79637503D01*
X135572074Y-79613842D01*
X135570900Y-79589950D01*
X135570900Y-78677450D01*
X135572074Y-78653558D01*
X135575584Y-78629897D01*
X135581396Y-78606693D01*
X135589454Y-78584171D01*
X135599682Y-78562547D01*
X135611979Y-78542030D01*
X135626229Y-78522817D01*
X135642293Y-78505093D01*
X135660017Y-78489029D01*
X135679230Y-78474779D01*
X135699747Y-78462482D01*
X135721371Y-78452254D01*
X135743893Y-78444196D01*
X135767097Y-78438384D01*
X135790758Y-78434874D01*
X135814650Y-78433700D01*
X136302150Y-78433700D01*
X136326042Y-78434874D01*
G37*
G36*
X134451042Y-78434874D02*
G01*
X134474703Y-78438384D01*
X134497907Y-78444196D01*
X134520429Y-78452254D01*
X134542053Y-78462482D01*
X134562570Y-78474779D01*
X134581783Y-78489029D01*
X134599507Y-78505093D01*
X134615571Y-78522817D01*
X134629821Y-78542030D01*
X134642118Y-78562547D01*
X134652346Y-78584171D01*
X134660404Y-78606693D01*
X134666216Y-78629897D01*
X134669726Y-78653558D01*
X134670900Y-78677450D01*
X134670900Y-79589950D01*
X134669726Y-79613842D01*
X134666216Y-79637503D01*
X134660404Y-79660707D01*
X134652346Y-79683229D01*
X134642118Y-79704853D01*
X134629821Y-79725370D01*
X134615571Y-79744583D01*
X134599507Y-79762307D01*
X134581783Y-79778371D01*
X134562570Y-79792621D01*
X134542053Y-79804918D01*
X134520429Y-79815146D01*
X134497907Y-79823204D01*
X134474703Y-79829016D01*
X134451042Y-79832526D01*
X134427150Y-79833700D01*
X133939650Y-79833700D01*
X133915758Y-79832526D01*
X133892097Y-79829016D01*
X133868893Y-79823204D01*
X133846371Y-79815146D01*
X133824747Y-79804918D01*
X133804230Y-79792621D01*
X133785017Y-79778371D01*
X133767293Y-79762307D01*
X133751229Y-79744583D01*
X133736979Y-79725370D01*
X133724682Y-79704853D01*
X133714454Y-79683229D01*
X133706396Y-79660707D01*
X133700584Y-79637503D01*
X133697074Y-79613842D01*
X133695900Y-79589950D01*
X133695900Y-78677450D01*
X133697074Y-78653558D01*
X133700584Y-78629897D01*
X133706396Y-78606693D01*
X133714454Y-78584171D01*
X133724682Y-78562547D01*
X133736979Y-78542030D01*
X133751229Y-78522817D01*
X133767293Y-78505093D01*
X133785017Y-78489029D01*
X133804230Y-78474779D01*
X133824747Y-78462482D01*
X133846371Y-78452254D01*
X133868893Y-78444196D01*
X133892097Y-78438384D01*
X133915758Y-78434874D01*
X133939650Y-78433700D01*
X134427150Y-78433700D01*
X134451042Y-78434874D01*
G37*
G36*
X147139742Y-94426674D02*
G01*
X147163403Y-94430184D01*
X147186607Y-94435996D01*
X147209129Y-94444054D01*
X147230753Y-94454282D01*
X147251270Y-94466579D01*
X147270483Y-94480829D01*
X147288207Y-94496893D01*
X147304271Y-94514617D01*
X147318521Y-94533830D01*
X147330818Y-94554347D01*
X147341046Y-94575971D01*
X147349104Y-94598493D01*
X147354916Y-94621697D01*
X147358426Y-94645358D01*
X147359600Y-94669250D01*
X147359600Y-95156750D01*
X147358426Y-95180642D01*
X147354916Y-95204303D01*
X147349104Y-95227507D01*
X147341046Y-95250029D01*
X147330818Y-95271653D01*
X147318521Y-95292170D01*
X147304271Y-95311383D01*
X147288207Y-95329107D01*
X147270483Y-95345171D01*
X147251270Y-95359421D01*
X147230753Y-95371718D01*
X147209129Y-95381946D01*
X147186607Y-95390004D01*
X147163403Y-95395816D01*
X147139742Y-95399326D01*
X147115850Y-95400500D01*
X146203350Y-95400500D01*
X146179458Y-95399326D01*
X146155797Y-95395816D01*
X146132593Y-95390004D01*
X146110071Y-95381946D01*
X146088447Y-95371718D01*
X146067930Y-95359421D01*
X146048717Y-95345171D01*
X146030993Y-95329107D01*
X146014929Y-95311383D01*
X146000679Y-95292170D01*
X145988382Y-95271653D01*
X145978154Y-95250029D01*
X145970096Y-95227507D01*
X145964284Y-95204303D01*
X145960774Y-95180642D01*
X145959600Y-95156750D01*
X145959600Y-94669250D01*
X145960774Y-94645358D01*
X145964284Y-94621697D01*
X145970096Y-94598493D01*
X145978154Y-94575971D01*
X145988382Y-94554347D01*
X146000679Y-94533830D01*
X146014929Y-94514617D01*
X146030993Y-94496893D01*
X146048717Y-94480829D01*
X146067930Y-94466579D01*
X146088447Y-94454282D01*
X146110071Y-94444054D01*
X146132593Y-94435996D01*
X146155797Y-94430184D01*
X146179458Y-94426674D01*
X146203350Y-94425500D01*
X147115850Y-94425500D01*
X147139742Y-94426674D01*
G37*
G36*
X147139742Y-96301674D02*
G01*
X147163403Y-96305184D01*
X147186607Y-96310996D01*
X147209129Y-96319054D01*
X147230753Y-96329282D01*
X147251270Y-96341579D01*
X147270483Y-96355829D01*
X147288207Y-96371893D01*
X147304271Y-96389617D01*
X147318521Y-96408830D01*
X147330818Y-96429347D01*
X147341046Y-96450971D01*
X147349104Y-96473493D01*
X147354916Y-96496697D01*
X147358426Y-96520358D01*
X147359600Y-96544250D01*
X147359600Y-97031750D01*
X147358426Y-97055642D01*
X147354916Y-97079303D01*
X147349104Y-97102507D01*
X147341046Y-97125029D01*
X147330818Y-97146653D01*
X147318521Y-97167170D01*
X147304271Y-97186383D01*
X147288207Y-97204107D01*
X147270483Y-97220171D01*
X147251270Y-97234421D01*
X147230753Y-97246718D01*
X147209129Y-97256946D01*
X147186607Y-97265004D01*
X147163403Y-97270816D01*
X147139742Y-97274326D01*
X147115850Y-97275500D01*
X146203350Y-97275500D01*
X146179458Y-97274326D01*
X146155797Y-97270816D01*
X146132593Y-97265004D01*
X146110071Y-97256946D01*
X146088447Y-97246718D01*
X146067930Y-97234421D01*
X146048717Y-97220171D01*
X146030993Y-97204107D01*
X146014929Y-97186383D01*
X146000679Y-97167170D01*
X145988382Y-97146653D01*
X145978154Y-97125029D01*
X145970096Y-97102507D01*
X145964284Y-97079303D01*
X145960774Y-97055642D01*
X145959600Y-97031750D01*
X145959600Y-96544250D01*
X145960774Y-96520358D01*
X145964284Y-96496697D01*
X145970096Y-96473493D01*
X145978154Y-96450971D01*
X145988382Y-96429347D01*
X146000679Y-96408830D01*
X146014929Y-96389617D01*
X146030993Y-96371893D01*
X146048717Y-96355829D01*
X146067930Y-96341579D01*
X146088447Y-96329282D01*
X146110071Y-96319054D01*
X146132593Y-96310996D01*
X146155797Y-96305184D01*
X146179458Y-96301674D01*
X146203350Y-96300500D01*
X147115850Y-96300500D01*
X147139742Y-96301674D01*
G37*
G36*
X142288342Y-94426674D02*
G01*
X142312003Y-94430184D01*
X142335207Y-94435996D01*
X142357729Y-94444054D01*
X142379353Y-94454282D01*
X142399870Y-94466579D01*
X142419083Y-94480829D01*
X142436807Y-94496893D01*
X142452871Y-94514617D01*
X142467121Y-94533830D01*
X142479418Y-94554347D01*
X142489646Y-94575971D01*
X142497704Y-94598493D01*
X142503516Y-94621697D01*
X142507026Y-94645358D01*
X142508200Y-94669250D01*
X142508200Y-95156750D01*
X142507026Y-95180642D01*
X142503516Y-95204303D01*
X142497704Y-95227507D01*
X142489646Y-95250029D01*
X142479418Y-95271653D01*
X142467121Y-95292170D01*
X142452871Y-95311383D01*
X142436807Y-95329107D01*
X142419083Y-95345171D01*
X142399870Y-95359421D01*
X142379353Y-95371718D01*
X142357729Y-95381946D01*
X142335207Y-95390004D01*
X142312003Y-95395816D01*
X142288342Y-95399326D01*
X142264450Y-95400500D01*
X141351950Y-95400500D01*
X141328058Y-95399326D01*
X141304397Y-95395816D01*
X141281193Y-95390004D01*
X141258671Y-95381946D01*
X141237047Y-95371718D01*
X141216530Y-95359421D01*
X141197317Y-95345171D01*
X141179593Y-95329107D01*
X141163529Y-95311383D01*
X141149279Y-95292170D01*
X141136982Y-95271653D01*
X141126754Y-95250029D01*
X141118696Y-95227507D01*
X141112884Y-95204303D01*
X141109374Y-95180642D01*
X141108200Y-95156750D01*
X141108200Y-94669250D01*
X141109374Y-94645358D01*
X141112884Y-94621697D01*
X141118696Y-94598493D01*
X141126754Y-94575971D01*
X141136982Y-94554347D01*
X141149279Y-94533830D01*
X141163529Y-94514617D01*
X141179593Y-94496893D01*
X141197317Y-94480829D01*
X141216530Y-94466579D01*
X141237047Y-94454282D01*
X141258671Y-94444054D01*
X141281193Y-94435996D01*
X141304397Y-94430184D01*
X141328058Y-94426674D01*
X141351950Y-94425500D01*
X142264450Y-94425500D01*
X142288342Y-94426674D01*
G37*
G36*
X142288342Y-96301674D02*
G01*
X142312003Y-96305184D01*
X142335207Y-96310996D01*
X142357729Y-96319054D01*
X142379353Y-96329282D01*
X142399870Y-96341579D01*
X142419083Y-96355829D01*
X142436807Y-96371893D01*
X142452871Y-96389617D01*
X142467121Y-96408830D01*
X142479418Y-96429347D01*
X142489646Y-96450971D01*
X142497704Y-96473493D01*
X142503516Y-96496697D01*
X142507026Y-96520358D01*
X142508200Y-96544250D01*
X142508200Y-97031750D01*
X142507026Y-97055642D01*
X142503516Y-97079303D01*
X142497704Y-97102507D01*
X142489646Y-97125029D01*
X142479418Y-97146653D01*
X142467121Y-97167170D01*
X142452871Y-97186383D01*
X142436807Y-97204107D01*
X142419083Y-97220171D01*
X142399870Y-97234421D01*
X142379353Y-97246718D01*
X142357729Y-97256946D01*
X142335207Y-97265004D01*
X142312003Y-97270816D01*
X142288342Y-97274326D01*
X142264450Y-97275500D01*
X141351950Y-97275500D01*
X141328058Y-97274326D01*
X141304397Y-97270816D01*
X141281193Y-97265004D01*
X141258671Y-97256946D01*
X141237047Y-97246718D01*
X141216530Y-97234421D01*
X141197317Y-97220171D01*
X141179593Y-97204107D01*
X141163529Y-97186383D01*
X141149279Y-97167170D01*
X141136982Y-97146653D01*
X141126754Y-97125029D01*
X141118696Y-97102507D01*
X141112884Y-97079303D01*
X141109374Y-97055642D01*
X141108200Y-97031750D01*
X141108200Y-96544250D01*
X141109374Y-96520358D01*
X141112884Y-96496697D01*
X141118696Y-96473493D01*
X141126754Y-96450971D01*
X141136982Y-96429347D01*
X141149279Y-96408830D01*
X141163529Y-96389617D01*
X141179593Y-96371893D01*
X141197317Y-96355829D01*
X141216530Y-96341579D01*
X141237047Y-96329282D01*
X141258671Y-96319054D01*
X141281193Y-96310996D01*
X141304397Y-96305184D01*
X141328058Y-96301674D01*
X141351950Y-96300500D01*
X142264450Y-96300500D01*
X142288342Y-96301674D01*
G37*
G36*
X133157042Y-94426674D02*
G01*
X133180703Y-94430184D01*
X133203907Y-94435996D01*
X133226429Y-94444054D01*
X133248053Y-94454282D01*
X133268570Y-94466579D01*
X133287783Y-94480829D01*
X133305507Y-94496893D01*
X133321571Y-94514617D01*
X133335821Y-94533830D01*
X133348118Y-94554347D01*
X133358346Y-94575971D01*
X133366404Y-94598493D01*
X133372216Y-94621697D01*
X133375726Y-94645358D01*
X133376900Y-94669250D01*
X133376900Y-95156750D01*
X133375726Y-95180642D01*
X133372216Y-95204303D01*
X133366404Y-95227507D01*
X133358346Y-95250029D01*
X133348118Y-95271653D01*
X133335821Y-95292170D01*
X133321571Y-95311383D01*
X133305507Y-95329107D01*
X133287783Y-95345171D01*
X133268570Y-95359421D01*
X133248053Y-95371718D01*
X133226429Y-95381946D01*
X133203907Y-95390004D01*
X133180703Y-95395816D01*
X133157042Y-95399326D01*
X133133150Y-95400500D01*
X132220650Y-95400500D01*
X132196758Y-95399326D01*
X132173097Y-95395816D01*
X132149893Y-95390004D01*
X132127371Y-95381946D01*
X132105747Y-95371718D01*
X132085230Y-95359421D01*
X132066017Y-95345171D01*
X132048293Y-95329107D01*
X132032229Y-95311383D01*
X132017979Y-95292170D01*
X132005682Y-95271653D01*
X131995454Y-95250029D01*
X131987396Y-95227507D01*
X131981584Y-95204303D01*
X131978074Y-95180642D01*
X131976900Y-95156750D01*
X131976900Y-94669250D01*
X131978074Y-94645358D01*
X131981584Y-94621697D01*
X131987396Y-94598493D01*
X131995454Y-94575971D01*
X132005682Y-94554347D01*
X132017979Y-94533830D01*
X132032229Y-94514617D01*
X132048293Y-94496893D01*
X132066017Y-94480829D01*
X132085230Y-94466579D01*
X132105747Y-94454282D01*
X132127371Y-94444054D01*
X132149893Y-94435996D01*
X132173097Y-94430184D01*
X132196758Y-94426674D01*
X132220650Y-94425500D01*
X133133150Y-94425500D01*
X133157042Y-94426674D01*
G37*
G36*
X133157042Y-96301674D02*
G01*
X133180703Y-96305184D01*
X133203907Y-96310996D01*
X133226429Y-96319054D01*
X133248053Y-96329282D01*
X133268570Y-96341579D01*
X133287783Y-96355829D01*
X133305507Y-96371893D01*
X133321571Y-96389617D01*
X133335821Y-96408830D01*
X133348118Y-96429347D01*
X133358346Y-96450971D01*
X133366404Y-96473493D01*
X133372216Y-96496697D01*
X133375726Y-96520358D01*
X133376900Y-96544250D01*
X133376900Y-97031750D01*
X133375726Y-97055642D01*
X133372216Y-97079303D01*
X133366404Y-97102507D01*
X133358346Y-97125029D01*
X133348118Y-97146653D01*
X133335821Y-97167170D01*
X133321571Y-97186383D01*
X133305507Y-97204107D01*
X133287783Y-97220171D01*
X133268570Y-97234421D01*
X133248053Y-97246718D01*
X133226429Y-97256946D01*
X133203907Y-97265004D01*
X133180703Y-97270816D01*
X133157042Y-97274326D01*
X133133150Y-97275500D01*
X132220650Y-97275500D01*
X132196758Y-97274326D01*
X132173097Y-97270816D01*
X132149893Y-97265004D01*
X132127371Y-97256946D01*
X132105747Y-97246718D01*
X132085230Y-97234421D01*
X132066017Y-97220171D01*
X132048293Y-97204107D01*
X132032229Y-97186383D01*
X132017979Y-97167170D01*
X132005682Y-97146653D01*
X131995454Y-97125029D01*
X131987396Y-97102507D01*
X131981584Y-97079303D01*
X131978074Y-97055642D01*
X131976900Y-97031750D01*
X131976900Y-96544250D01*
X131978074Y-96520358D01*
X131981584Y-96496697D01*
X131987396Y-96473493D01*
X131995454Y-96450971D01*
X132005682Y-96429347D01*
X132017979Y-96408830D01*
X132032229Y-96389617D01*
X132048293Y-96371893D01*
X132066017Y-96355829D01*
X132085230Y-96341579D01*
X132105747Y-96329282D01*
X132127371Y-96319054D01*
X132149893Y-96310996D01*
X132173097Y-96305184D01*
X132196758Y-96301674D01*
X132220650Y-96300500D01*
X133133150Y-96300500D01*
X133157042Y-96301674D01*
G37*
G36*
X137881442Y-94426674D02*
G01*
X137905103Y-94430184D01*
X137928307Y-94435996D01*
X137950829Y-94444054D01*
X137972453Y-94454282D01*
X137992970Y-94466579D01*
X138012183Y-94480829D01*
X138029907Y-94496893D01*
X138045971Y-94514617D01*
X138060221Y-94533830D01*
X138072518Y-94554347D01*
X138082746Y-94575971D01*
X138090804Y-94598493D01*
X138096616Y-94621697D01*
X138100126Y-94645358D01*
X138101300Y-94669250D01*
X138101300Y-95156750D01*
X138100126Y-95180642D01*
X138096616Y-95204303D01*
X138090804Y-95227507D01*
X138082746Y-95250029D01*
X138072518Y-95271653D01*
X138060221Y-95292170D01*
X138045971Y-95311383D01*
X138029907Y-95329107D01*
X138012183Y-95345171D01*
X137992970Y-95359421D01*
X137972453Y-95371718D01*
X137950829Y-95381946D01*
X137928307Y-95390004D01*
X137905103Y-95395816D01*
X137881442Y-95399326D01*
X137857550Y-95400500D01*
X136945050Y-95400500D01*
X136921158Y-95399326D01*
X136897497Y-95395816D01*
X136874293Y-95390004D01*
X136851771Y-95381946D01*
X136830147Y-95371718D01*
X136809630Y-95359421D01*
X136790417Y-95345171D01*
X136772693Y-95329107D01*
X136756629Y-95311383D01*
X136742379Y-95292170D01*
X136730082Y-95271653D01*
X136719854Y-95250029D01*
X136711796Y-95227507D01*
X136705984Y-95204303D01*
X136702474Y-95180642D01*
X136701300Y-95156750D01*
X136701300Y-94669250D01*
X136702474Y-94645358D01*
X136705984Y-94621697D01*
X136711796Y-94598493D01*
X136719854Y-94575971D01*
X136730082Y-94554347D01*
X136742379Y-94533830D01*
X136756629Y-94514617D01*
X136772693Y-94496893D01*
X136790417Y-94480829D01*
X136809630Y-94466579D01*
X136830147Y-94454282D01*
X136851771Y-94444054D01*
X136874293Y-94435996D01*
X136897497Y-94430184D01*
X136921158Y-94426674D01*
X136945050Y-94425500D01*
X137857550Y-94425500D01*
X137881442Y-94426674D01*
G37*
G36*
X137881442Y-96301674D02*
G01*
X137905103Y-96305184D01*
X137928307Y-96310996D01*
X137950829Y-96319054D01*
X137972453Y-96329282D01*
X137992970Y-96341579D01*
X138012183Y-96355829D01*
X138029907Y-96371893D01*
X138045971Y-96389617D01*
X138060221Y-96408830D01*
X138072518Y-96429347D01*
X138082746Y-96450971D01*
X138090804Y-96473493D01*
X138096616Y-96496697D01*
X138100126Y-96520358D01*
X138101300Y-96544250D01*
X138101300Y-97031750D01*
X138100126Y-97055642D01*
X138096616Y-97079303D01*
X138090804Y-97102507D01*
X138082746Y-97125029D01*
X138072518Y-97146653D01*
X138060221Y-97167170D01*
X138045971Y-97186383D01*
X138029907Y-97204107D01*
X138012183Y-97220171D01*
X137992970Y-97234421D01*
X137972453Y-97246718D01*
X137950829Y-97256946D01*
X137928307Y-97265004D01*
X137905103Y-97270816D01*
X137881442Y-97274326D01*
X137857550Y-97275500D01*
X136945050Y-97275500D01*
X136921158Y-97274326D01*
X136897497Y-97270816D01*
X136874293Y-97265004D01*
X136851771Y-97256946D01*
X136830147Y-97246718D01*
X136809630Y-97234421D01*
X136790417Y-97220171D01*
X136772693Y-97204107D01*
X136756629Y-97186383D01*
X136742379Y-97167170D01*
X136730082Y-97146653D01*
X136719854Y-97125029D01*
X136711796Y-97102507D01*
X136705984Y-97079303D01*
X136702474Y-97055642D01*
X136701300Y-97031750D01*
X136701300Y-96544250D01*
X136702474Y-96520358D01*
X136705984Y-96496697D01*
X136711796Y-96473493D01*
X136719854Y-96450971D01*
X136730082Y-96429347D01*
X136742379Y-96408830D01*
X136756629Y-96389617D01*
X136772693Y-96371893D01*
X136790417Y-96355829D01*
X136809630Y-96341579D01*
X136830147Y-96329282D01*
X136851771Y-96319054D01*
X136874293Y-96310996D01*
X136897497Y-96305184D01*
X136921158Y-96301674D01*
X136945050Y-96300500D01*
X137857550Y-96300500D01*
X137881442Y-96301674D01*
G37*
G36*
X134451042Y-81328074D02*
G01*
X134474703Y-81331584D01*
X134497907Y-81337396D01*
X134520429Y-81345454D01*
X134542053Y-81355682D01*
X134562570Y-81367979D01*
X134581783Y-81382229D01*
X134599507Y-81398293D01*
X134615571Y-81416017D01*
X134629821Y-81435230D01*
X134642118Y-81455747D01*
X134652346Y-81477371D01*
X134660404Y-81499893D01*
X134666216Y-81523097D01*
X134669726Y-81546758D01*
X134670900Y-81570650D01*
X134670900Y-82483150D01*
X134669726Y-82507042D01*
X134666216Y-82530703D01*
X134660404Y-82553907D01*
X134652346Y-82576429D01*
X134642118Y-82598053D01*
X134629821Y-82618570D01*
X134615571Y-82637783D01*
X134599507Y-82655507D01*
X134581783Y-82671571D01*
X134562570Y-82685821D01*
X134542053Y-82698118D01*
X134520429Y-82708346D01*
X134497907Y-82716404D01*
X134474703Y-82722216D01*
X134451042Y-82725726D01*
X134427150Y-82726900D01*
X133939650Y-82726900D01*
X133915758Y-82725726D01*
X133892097Y-82722216D01*
X133868893Y-82716404D01*
X133846371Y-82708346D01*
X133824747Y-82698118D01*
X133804230Y-82685821D01*
X133785017Y-82671571D01*
X133767293Y-82655507D01*
X133751229Y-82637783D01*
X133736979Y-82618570D01*
X133724682Y-82598053D01*
X133714454Y-82576429D01*
X133706396Y-82553907D01*
X133700584Y-82530703D01*
X133697074Y-82507042D01*
X133695900Y-82483150D01*
X133695900Y-81570650D01*
X133697074Y-81546758D01*
X133700584Y-81523097D01*
X133706396Y-81499893D01*
X133714454Y-81477371D01*
X133724682Y-81455747D01*
X133736979Y-81435230D01*
X133751229Y-81416017D01*
X133767293Y-81398293D01*
X133785017Y-81382229D01*
X133804230Y-81367979D01*
X133824747Y-81355682D01*
X133846371Y-81345454D01*
X133868893Y-81337396D01*
X133892097Y-81331584D01*
X133915758Y-81328074D01*
X133939650Y-81326900D01*
X134427150Y-81326900D01*
X134451042Y-81328074D01*
G37*
G36*
X136326042Y-81328074D02*
G01*
X136349703Y-81331584D01*
X136372907Y-81337396D01*
X136395429Y-81345454D01*
X136417053Y-81355682D01*
X136437570Y-81367979D01*
X136456783Y-81382229D01*
X136474507Y-81398293D01*
X136490571Y-81416017D01*
X136504821Y-81435230D01*
X136517118Y-81455747D01*
X136527346Y-81477371D01*
X136535404Y-81499893D01*
X136541216Y-81523097D01*
X136544726Y-81546758D01*
X136545900Y-81570650D01*
X136545900Y-82483150D01*
X136544726Y-82507042D01*
X136541216Y-82530703D01*
X136535404Y-82553907D01*
X136527346Y-82576429D01*
X136517118Y-82598053D01*
X136504821Y-82618570D01*
X136490571Y-82637783D01*
X136474507Y-82655507D01*
X136456783Y-82671571D01*
X136437570Y-82685821D01*
X136417053Y-82698118D01*
X136395429Y-82708346D01*
X136372907Y-82716404D01*
X136349703Y-82722216D01*
X136326042Y-82725726D01*
X136302150Y-82726900D01*
X135814650Y-82726900D01*
X135790758Y-82725726D01*
X135767097Y-82722216D01*
X135743893Y-82716404D01*
X135721371Y-82708346D01*
X135699747Y-82698118D01*
X135679230Y-82685821D01*
X135660017Y-82671571D01*
X135642293Y-82655507D01*
X135626229Y-82637783D01*
X135611979Y-82618570D01*
X135599682Y-82598053D01*
X135589454Y-82576429D01*
X135581396Y-82553907D01*
X135575584Y-82530703D01*
X135572074Y-82507042D01*
X135570900Y-82483150D01*
X135570900Y-81570650D01*
X135572074Y-81546758D01*
X135575584Y-81523097D01*
X135581396Y-81499893D01*
X135589454Y-81477371D01*
X135599682Y-81455747D01*
X135611979Y-81435230D01*
X135626229Y-81416017D01*
X135642293Y-81398293D01*
X135660017Y-81382229D01*
X135679230Y-81367979D01*
X135699747Y-81355682D01*
X135721371Y-81345454D01*
X135743893Y-81337396D01*
X135767097Y-81331584D01*
X135790758Y-81328074D01*
X135814650Y-81326900D01*
X136302150Y-81326900D01*
X136326042Y-81328074D01*
G37*
G36*
X143451042Y-81328074D02*
G01*
X143474703Y-81331584D01*
X143497907Y-81337396D01*
X143520429Y-81345454D01*
X143542053Y-81355682D01*
X143562570Y-81367979D01*
X143581783Y-81382229D01*
X143599507Y-81398293D01*
X143615571Y-81416017D01*
X143629821Y-81435230D01*
X143642118Y-81455747D01*
X143652346Y-81477371D01*
X143660404Y-81499893D01*
X143666216Y-81523097D01*
X143669726Y-81546758D01*
X143670900Y-81570650D01*
X143670900Y-82483150D01*
X143669726Y-82507042D01*
X143666216Y-82530703D01*
X143660404Y-82553907D01*
X143652346Y-82576429D01*
X143642118Y-82598053D01*
X143629821Y-82618570D01*
X143615571Y-82637783D01*
X143599507Y-82655507D01*
X143581783Y-82671571D01*
X143562570Y-82685821D01*
X143542053Y-82698118D01*
X143520429Y-82708346D01*
X143497907Y-82716404D01*
X143474703Y-82722216D01*
X143451042Y-82725726D01*
X143427150Y-82726900D01*
X142939650Y-82726900D01*
X142915758Y-82725726D01*
X142892097Y-82722216D01*
X142868893Y-82716404D01*
X142846371Y-82708346D01*
X142824747Y-82698118D01*
X142804230Y-82685821D01*
X142785017Y-82671571D01*
X142767293Y-82655507D01*
X142751229Y-82637783D01*
X142736979Y-82618570D01*
X142724682Y-82598053D01*
X142714454Y-82576429D01*
X142706396Y-82553907D01*
X142700584Y-82530703D01*
X142697074Y-82507042D01*
X142695900Y-82483150D01*
X142695900Y-81570650D01*
X142697074Y-81546758D01*
X142700584Y-81523097D01*
X142706396Y-81499893D01*
X142714454Y-81477371D01*
X142724682Y-81455747D01*
X142736979Y-81435230D01*
X142751229Y-81416017D01*
X142767293Y-81398293D01*
X142785017Y-81382229D01*
X142804230Y-81367979D01*
X142824747Y-81355682D01*
X142846371Y-81345454D01*
X142868893Y-81337396D01*
X142892097Y-81331584D01*
X142915758Y-81328074D01*
X142939650Y-81326900D01*
X143427150Y-81326900D01*
X143451042Y-81328074D01*
G37*
G36*
X145326042Y-81328074D02*
G01*
X145349703Y-81331584D01*
X145372907Y-81337396D01*
X145395429Y-81345454D01*
X145417053Y-81355682D01*
X145437570Y-81367979D01*
X145456783Y-81382229D01*
X145474507Y-81398293D01*
X145490571Y-81416017D01*
X145504821Y-81435230D01*
X145517118Y-81455747D01*
X145527346Y-81477371D01*
X145535404Y-81499893D01*
X145541216Y-81523097D01*
X145544726Y-81546758D01*
X145545900Y-81570650D01*
X145545900Y-82483150D01*
X145544726Y-82507042D01*
X145541216Y-82530703D01*
X145535404Y-82553907D01*
X145527346Y-82576429D01*
X145517118Y-82598053D01*
X145504821Y-82618570D01*
X145490571Y-82637783D01*
X145474507Y-82655507D01*
X145456783Y-82671571D01*
X145437570Y-82685821D01*
X145417053Y-82698118D01*
X145395429Y-82708346D01*
X145372907Y-82716404D01*
X145349703Y-82722216D01*
X145326042Y-82725726D01*
X145302150Y-82726900D01*
X144814650Y-82726900D01*
X144790758Y-82725726D01*
X144767097Y-82722216D01*
X144743893Y-82716404D01*
X144721371Y-82708346D01*
X144699747Y-82698118D01*
X144679230Y-82685821D01*
X144660017Y-82671571D01*
X144642293Y-82655507D01*
X144626229Y-82637783D01*
X144611979Y-82618570D01*
X144599682Y-82598053D01*
X144589454Y-82576429D01*
X144581396Y-82553907D01*
X144575584Y-82530703D01*
X144572074Y-82507042D01*
X144570900Y-82483150D01*
X144570900Y-81570650D01*
X144572074Y-81546758D01*
X144575584Y-81523097D01*
X144581396Y-81499893D01*
X144589454Y-81477371D01*
X144599682Y-81455747D01*
X144611979Y-81435230D01*
X144626229Y-81416017D01*
X144642293Y-81398293D01*
X144660017Y-81382229D01*
X144679230Y-81367979D01*
X144699747Y-81355682D01*
X144721371Y-81345454D01*
X144743893Y-81337396D01*
X144767097Y-81331584D01*
X144790758Y-81328074D01*
X144814650Y-81326900D01*
X145302150Y-81326900D01*
X145326042Y-81328074D01*
G37*
M02*
