G04 #@! TF.GenerationSoftware,KiCad,Pcbnew,5.1.5-52549c5~86~ubuntu16.04.1*
G04 #@! TF.CreationDate,2020-11-24T20:56:35+05:30*
G04 #@! TF.ProjectId,DC-DC 12V to 3.3V 5V Multi Output Voltage Conversion V1.0,44432d44-4320-4313-9256-20746f20332e,V1.0*
G04 #@! TF.SameCoordinates,Original*
G04 #@! TF.FileFunction,Copper,L2,Bot*
G04 #@! TF.FilePolarity,Positive*
%FSLAX46Y46*%
G04 Gerber Fmt 4.6, Leading zero omitted, Abs format (unit mm)*
G04 Created by KiCad (PCBNEW 5.1.5-52549c5~86~ubuntu16.04.1) date 2020-11-24 20:56:35*
%MOMM*%
%LPD*%
G04 APERTURE LIST*
%ADD10C,0.002540*%
%ADD11C,0.100000*%
%ADD12R,3.500000X3.500000*%
%ADD13C,1.400000*%
%ADD14O,1.700000X1.700000*%
%ADD15R,1.700000X1.700000*%
%ADD16C,0.800000*%
%ADD17C,3.000000*%
%ADD18C,0.254000*%
G04 APERTURE END LIST*
D10*
G36*
X138615420Y-97553780D02*
G01*
X138635740Y-97543620D01*
X138684000Y-97513140D01*
X138750040Y-97469960D01*
X138828780Y-97416620D01*
X138907520Y-97363280D01*
X138973560Y-97320100D01*
X139019280Y-97289620D01*
X139037060Y-97279460D01*
X139047220Y-97282000D01*
X139085320Y-97302320D01*
X139141200Y-97330260D01*
X139171680Y-97345500D01*
X139222480Y-97368360D01*
X139247880Y-97373440D01*
X139250420Y-97365820D01*
X139270740Y-97327720D01*
X139298680Y-97261680D01*
X139336780Y-97175320D01*
X139379960Y-97073720D01*
X139425680Y-96964500D01*
X139471400Y-96852740D01*
X139517120Y-96746060D01*
X139555220Y-96649540D01*
X139588240Y-96573340D01*
X139608560Y-96517460D01*
X139616180Y-96494600D01*
X139613640Y-96489520D01*
X139588240Y-96466660D01*
X139545060Y-96433640D01*
X139448540Y-96354900D01*
X139357100Y-96238060D01*
X139298680Y-96105980D01*
X139280900Y-95958660D01*
X139296140Y-95824040D01*
X139349480Y-95694500D01*
X139440920Y-95575120D01*
X139552680Y-95488760D01*
X139682220Y-95432880D01*
X139827000Y-95415100D01*
X139966700Y-95430340D01*
X140098780Y-95483680D01*
X140218160Y-95572580D01*
X140266420Y-95631000D01*
X140335000Y-95750380D01*
X140375640Y-95877380D01*
X140378180Y-95907860D01*
X140373100Y-96050100D01*
X140332460Y-96184720D01*
X140258800Y-96304100D01*
X140154660Y-96403160D01*
X140141960Y-96413320D01*
X140093700Y-96448880D01*
X140063220Y-96471740D01*
X140037820Y-96492060D01*
X140215620Y-96923860D01*
X140243560Y-96992440D01*
X140294360Y-97109280D01*
X140337540Y-97210880D01*
X140370560Y-97292160D01*
X140395960Y-97345500D01*
X140406120Y-97368360D01*
X140421360Y-97370900D01*
X140454380Y-97358200D01*
X140515340Y-97330260D01*
X140555980Y-97309940D01*
X140601700Y-97287080D01*
X140622020Y-97279460D01*
X140639800Y-97289620D01*
X140682980Y-97317560D01*
X140746480Y-97360740D01*
X140822680Y-97411540D01*
X140896340Y-97462340D01*
X140964920Y-97508060D01*
X141013180Y-97538540D01*
X141038580Y-97551240D01*
X141041120Y-97551240D01*
X141061440Y-97538540D01*
X141102080Y-97508060D01*
X141160500Y-97452180D01*
X141241780Y-97370900D01*
X141254480Y-97358200D01*
X141323060Y-97287080D01*
X141378940Y-97228660D01*
X141417040Y-97188020D01*
X141429740Y-97170240D01*
X141417040Y-97144840D01*
X141386560Y-97096580D01*
X141340840Y-97028000D01*
X141287500Y-96949260D01*
X141145260Y-96740980D01*
X141224000Y-96545400D01*
X141246860Y-96486980D01*
X141277340Y-96413320D01*
X141300200Y-96362520D01*
X141312900Y-96339660D01*
X141333220Y-96332040D01*
X141386560Y-96319340D01*
X141465300Y-96301560D01*
X141556740Y-96286320D01*
X141645640Y-96268540D01*
X141724380Y-96253300D01*
X141782800Y-96243140D01*
X141808200Y-96238060D01*
X141813280Y-96232980D01*
X141818360Y-96220280D01*
X141823440Y-96194880D01*
X141823440Y-96146620D01*
X141825980Y-96070420D01*
X141825980Y-95958660D01*
X141825980Y-95948500D01*
X141823440Y-95841820D01*
X141823440Y-95758000D01*
X141820900Y-95704660D01*
X141815820Y-95684340D01*
X141790420Y-95676720D01*
X141734540Y-95666560D01*
X141655800Y-95648780D01*
X141559280Y-95631000D01*
X141554200Y-95631000D01*
X141460220Y-95613220D01*
X141381480Y-95595440D01*
X141325600Y-95582740D01*
X141302740Y-95575120D01*
X141297660Y-95570040D01*
X141277340Y-95531940D01*
X141249400Y-95473520D01*
X141218920Y-95402400D01*
X141188440Y-95328740D01*
X141160500Y-95260160D01*
X141142720Y-95211900D01*
X141137640Y-95189040D01*
X141152880Y-95166180D01*
X141185900Y-95115380D01*
X141231620Y-95049340D01*
X141287500Y-94968060D01*
X141290040Y-94960440D01*
X141345920Y-94881700D01*
X141389100Y-94813120D01*
X141419580Y-94764860D01*
X141429740Y-94744540D01*
X141429740Y-94742000D01*
X141411960Y-94719140D01*
X141371320Y-94673420D01*
X141312900Y-94612460D01*
X141241780Y-94541340D01*
X141218920Y-94521020D01*
X141142720Y-94444820D01*
X141089380Y-94394020D01*
X141053820Y-94368620D01*
X141038580Y-94361000D01*
X141038580Y-94363540D01*
X141013180Y-94376240D01*
X140962380Y-94409260D01*
X140893800Y-94457520D01*
X140812520Y-94510860D01*
X140807440Y-94515940D01*
X140728700Y-94569280D01*
X140662660Y-94615000D01*
X140614400Y-94645480D01*
X140594080Y-94658180D01*
X140589000Y-94658180D01*
X140558520Y-94648020D01*
X140500100Y-94630240D01*
X140431520Y-94602300D01*
X140357860Y-94571820D01*
X140289280Y-94543880D01*
X140238480Y-94521020D01*
X140215620Y-94508320D01*
X140215620Y-94505780D01*
X140205460Y-94477840D01*
X140192760Y-94416880D01*
X140174980Y-94335600D01*
X140157200Y-94236540D01*
X140154660Y-94221300D01*
X140136880Y-94127320D01*
X140121640Y-94048580D01*
X140108940Y-93992700D01*
X140103860Y-93969840D01*
X140091160Y-93967300D01*
X140042900Y-93964760D01*
X139971780Y-93962220D01*
X139885420Y-93962220D01*
X139796520Y-93962220D01*
X139710160Y-93964760D01*
X139633960Y-93967300D01*
X139580620Y-93969840D01*
X139557760Y-93974920D01*
X139555220Y-93977460D01*
X139547600Y-94005400D01*
X139534900Y-94066360D01*
X139517120Y-94147640D01*
X139499340Y-94246700D01*
X139496800Y-94264480D01*
X139479020Y-94358460D01*
X139461240Y-94437200D01*
X139451080Y-94490540D01*
X139443460Y-94510860D01*
X139435840Y-94515940D01*
X139397740Y-94533720D01*
X139334240Y-94559120D01*
X139252960Y-94592140D01*
X139070080Y-94665800D01*
X138846560Y-94510860D01*
X138826240Y-94498160D01*
X138744960Y-94442280D01*
X138678920Y-94399100D01*
X138633200Y-94368620D01*
X138612880Y-94358460D01*
X138590020Y-94378780D01*
X138544300Y-94419420D01*
X138483340Y-94480380D01*
X138414760Y-94548960D01*
X138361420Y-94602300D01*
X138300460Y-94665800D01*
X138259820Y-94706440D01*
X138239500Y-94734380D01*
X138231880Y-94752160D01*
X138234420Y-94762320D01*
X138247120Y-94785180D01*
X138280140Y-94833440D01*
X138325860Y-94902020D01*
X138381740Y-94980760D01*
X138427460Y-95049340D01*
X138475720Y-95123000D01*
X138506200Y-95176340D01*
X138518900Y-95204280D01*
X138516360Y-95214440D01*
X138498580Y-95257620D01*
X138473180Y-95326200D01*
X138440160Y-95404940D01*
X138361420Y-95582740D01*
X138244580Y-95603060D01*
X138173460Y-95618300D01*
X138074400Y-95636080D01*
X137980420Y-95653860D01*
X137833100Y-95684340D01*
X137828020Y-96222820D01*
X137850880Y-96232980D01*
X137873740Y-96240600D01*
X137927080Y-96250760D01*
X138005820Y-96266000D01*
X138097260Y-96283780D01*
X138176000Y-96299020D01*
X138254740Y-96314260D01*
X138310620Y-96324420D01*
X138336020Y-96329500D01*
X138343640Y-96339660D01*
X138363960Y-96377760D01*
X138391900Y-96438720D01*
X138422380Y-96512380D01*
X138452860Y-96586040D01*
X138480800Y-96657160D01*
X138501120Y-96710500D01*
X138508740Y-96738440D01*
X138498580Y-96758760D01*
X138468100Y-96804480D01*
X138424920Y-96870520D01*
X138371580Y-96949260D01*
X138315700Y-97028000D01*
X138272520Y-97096580D01*
X138239500Y-97144840D01*
X138226800Y-97165160D01*
X138234420Y-97180400D01*
X138264900Y-97218500D01*
X138323320Y-97279460D01*
X138412220Y-97368360D01*
X138427460Y-97381060D01*
X138496040Y-97449640D01*
X138557000Y-97502980D01*
X138597640Y-97541080D01*
X138615420Y-97553780D01*
G37*
X138615420Y-97553780D02*
X138635740Y-97543620D01*
X138684000Y-97513140D01*
X138750040Y-97469960D01*
X138828780Y-97416620D01*
X138907520Y-97363280D01*
X138973560Y-97320100D01*
X139019280Y-97289620D01*
X139037060Y-97279460D01*
X139047220Y-97282000D01*
X139085320Y-97302320D01*
X139141200Y-97330260D01*
X139171680Y-97345500D01*
X139222480Y-97368360D01*
X139247880Y-97373440D01*
X139250420Y-97365820D01*
X139270740Y-97327720D01*
X139298680Y-97261680D01*
X139336780Y-97175320D01*
X139379960Y-97073720D01*
X139425680Y-96964500D01*
X139471400Y-96852740D01*
X139517120Y-96746060D01*
X139555220Y-96649540D01*
X139588240Y-96573340D01*
X139608560Y-96517460D01*
X139616180Y-96494600D01*
X139613640Y-96489520D01*
X139588240Y-96466660D01*
X139545060Y-96433640D01*
X139448540Y-96354900D01*
X139357100Y-96238060D01*
X139298680Y-96105980D01*
X139280900Y-95958660D01*
X139296140Y-95824040D01*
X139349480Y-95694500D01*
X139440920Y-95575120D01*
X139552680Y-95488760D01*
X139682220Y-95432880D01*
X139827000Y-95415100D01*
X139966700Y-95430340D01*
X140098780Y-95483680D01*
X140218160Y-95572580D01*
X140266420Y-95631000D01*
X140335000Y-95750380D01*
X140375640Y-95877380D01*
X140378180Y-95907860D01*
X140373100Y-96050100D01*
X140332460Y-96184720D01*
X140258800Y-96304100D01*
X140154660Y-96403160D01*
X140141960Y-96413320D01*
X140093700Y-96448880D01*
X140063220Y-96471740D01*
X140037820Y-96492060D01*
X140215620Y-96923860D01*
X140243560Y-96992440D01*
X140294360Y-97109280D01*
X140337540Y-97210880D01*
X140370560Y-97292160D01*
X140395960Y-97345500D01*
X140406120Y-97368360D01*
X140421360Y-97370900D01*
X140454380Y-97358200D01*
X140515340Y-97330260D01*
X140555980Y-97309940D01*
X140601700Y-97287080D01*
X140622020Y-97279460D01*
X140639800Y-97289620D01*
X140682980Y-97317560D01*
X140746480Y-97360740D01*
X140822680Y-97411540D01*
X140896340Y-97462340D01*
X140964920Y-97508060D01*
X141013180Y-97538540D01*
X141038580Y-97551240D01*
X141041120Y-97551240D01*
X141061440Y-97538540D01*
X141102080Y-97508060D01*
X141160500Y-97452180D01*
X141241780Y-97370900D01*
X141254480Y-97358200D01*
X141323060Y-97287080D01*
X141378940Y-97228660D01*
X141417040Y-97188020D01*
X141429740Y-97170240D01*
X141417040Y-97144840D01*
X141386560Y-97096580D01*
X141340840Y-97028000D01*
X141287500Y-96949260D01*
X141145260Y-96740980D01*
X141224000Y-96545400D01*
X141246860Y-96486980D01*
X141277340Y-96413320D01*
X141300200Y-96362520D01*
X141312900Y-96339660D01*
X141333220Y-96332040D01*
X141386560Y-96319340D01*
X141465300Y-96301560D01*
X141556740Y-96286320D01*
X141645640Y-96268540D01*
X141724380Y-96253300D01*
X141782800Y-96243140D01*
X141808200Y-96238060D01*
X141813280Y-96232980D01*
X141818360Y-96220280D01*
X141823440Y-96194880D01*
X141823440Y-96146620D01*
X141825980Y-96070420D01*
X141825980Y-95958660D01*
X141825980Y-95948500D01*
X141823440Y-95841820D01*
X141823440Y-95758000D01*
X141820900Y-95704660D01*
X141815820Y-95684340D01*
X141790420Y-95676720D01*
X141734540Y-95666560D01*
X141655800Y-95648780D01*
X141559280Y-95631000D01*
X141554200Y-95631000D01*
X141460220Y-95613220D01*
X141381480Y-95595440D01*
X141325600Y-95582740D01*
X141302740Y-95575120D01*
X141297660Y-95570040D01*
X141277340Y-95531940D01*
X141249400Y-95473520D01*
X141218920Y-95402400D01*
X141188440Y-95328740D01*
X141160500Y-95260160D01*
X141142720Y-95211900D01*
X141137640Y-95189040D01*
X141152880Y-95166180D01*
X141185900Y-95115380D01*
X141231620Y-95049340D01*
X141287500Y-94968060D01*
X141290040Y-94960440D01*
X141345920Y-94881700D01*
X141389100Y-94813120D01*
X141419580Y-94764860D01*
X141429740Y-94744540D01*
X141429740Y-94742000D01*
X141411960Y-94719140D01*
X141371320Y-94673420D01*
X141312900Y-94612460D01*
X141241780Y-94541340D01*
X141218920Y-94521020D01*
X141142720Y-94444820D01*
X141089380Y-94394020D01*
X141053820Y-94368620D01*
X141038580Y-94361000D01*
X141038580Y-94363540D01*
X141013180Y-94376240D01*
X140962380Y-94409260D01*
X140893800Y-94457520D01*
X140812520Y-94510860D01*
X140807440Y-94515940D01*
X140728700Y-94569280D01*
X140662660Y-94615000D01*
X140614400Y-94645480D01*
X140594080Y-94658180D01*
X140589000Y-94658180D01*
X140558520Y-94648020D01*
X140500100Y-94630240D01*
X140431520Y-94602300D01*
X140357860Y-94571820D01*
X140289280Y-94543880D01*
X140238480Y-94521020D01*
X140215620Y-94508320D01*
X140215620Y-94505780D01*
X140205460Y-94477840D01*
X140192760Y-94416880D01*
X140174980Y-94335600D01*
X140157200Y-94236540D01*
X140154660Y-94221300D01*
X140136880Y-94127320D01*
X140121640Y-94048580D01*
X140108940Y-93992700D01*
X140103860Y-93969840D01*
X140091160Y-93967300D01*
X140042900Y-93964760D01*
X139971780Y-93962220D01*
X139885420Y-93962220D01*
X139796520Y-93962220D01*
X139710160Y-93964760D01*
X139633960Y-93967300D01*
X139580620Y-93969840D01*
X139557760Y-93974920D01*
X139555220Y-93977460D01*
X139547600Y-94005400D01*
X139534900Y-94066360D01*
X139517120Y-94147640D01*
X139499340Y-94246700D01*
X139496800Y-94264480D01*
X139479020Y-94358460D01*
X139461240Y-94437200D01*
X139451080Y-94490540D01*
X139443460Y-94510860D01*
X139435840Y-94515940D01*
X139397740Y-94533720D01*
X139334240Y-94559120D01*
X139252960Y-94592140D01*
X139070080Y-94665800D01*
X138846560Y-94510860D01*
X138826240Y-94498160D01*
X138744960Y-94442280D01*
X138678920Y-94399100D01*
X138633200Y-94368620D01*
X138612880Y-94358460D01*
X138590020Y-94378780D01*
X138544300Y-94419420D01*
X138483340Y-94480380D01*
X138414760Y-94548960D01*
X138361420Y-94602300D01*
X138300460Y-94665800D01*
X138259820Y-94706440D01*
X138239500Y-94734380D01*
X138231880Y-94752160D01*
X138234420Y-94762320D01*
X138247120Y-94785180D01*
X138280140Y-94833440D01*
X138325860Y-94902020D01*
X138381740Y-94980760D01*
X138427460Y-95049340D01*
X138475720Y-95123000D01*
X138506200Y-95176340D01*
X138518900Y-95204280D01*
X138516360Y-95214440D01*
X138498580Y-95257620D01*
X138473180Y-95326200D01*
X138440160Y-95404940D01*
X138361420Y-95582740D01*
X138244580Y-95603060D01*
X138173460Y-95618300D01*
X138074400Y-95636080D01*
X137980420Y-95653860D01*
X137833100Y-95684340D01*
X137828020Y-96222820D01*
X137850880Y-96232980D01*
X137873740Y-96240600D01*
X137927080Y-96250760D01*
X138005820Y-96266000D01*
X138097260Y-96283780D01*
X138176000Y-96299020D01*
X138254740Y-96314260D01*
X138310620Y-96324420D01*
X138336020Y-96329500D01*
X138343640Y-96339660D01*
X138363960Y-96377760D01*
X138391900Y-96438720D01*
X138422380Y-96512380D01*
X138452860Y-96586040D01*
X138480800Y-96657160D01*
X138501120Y-96710500D01*
X138508740Y-96738440D01*
X138498580Y-96758760D01*
X138468100Y-96804480D01*
X138424920Y-96870520D01*
X138371580Y-96949260D01*
X138315700Y-97028000D01*
X138272520Y-97096580D01*
X138239500Y-97144840D01*
X138226800Y-97165160D01*
X138234420Y-97180400D01*
X138264900Y-97218500D01*
X138323320Y-97279460D01*
X138412220Y-97368360D01*
X138427460Y-97381060D01*
X138496040Y-97449640D01*
X138557000Y-97502980D01*
X138597640Y-97541080D01*
X138615420Y-97553780D01*
G04 #@! TA.AperFunction,ComponentPad*
D11*
G36*
X154557365Y-76917013D02*
G01*
X154642304Y-76929613D01*
X154725599Y-76950477D01*
X154806448Y-76979405D01*
X154884072Y-77016119D01*
X154957724Y-77060264D01*
X155026694Y-77111416D01*
X155090318Y-77169082D01*
X155147984Y-77232706D01*
X155199136Y-77301676D01*
X155243281Y-77375328D01*
X155279995Y-77452952D01*
X155308923Y-77533801D01*
X155329787Y-77617096D01*
X155342387Y-77702035D01*
X155346600Y-77787800D01*
X155346600Y-79537800D01*
X155342387Y-79623565D01*
X155329787Y-79708504D01*
X155308923Y-79791799D01*
X155279995Y-79872648D01*
X155243281Y-79950272D01*
X155199136Y-80023924D01*
X155147984Y-80092894D01*
X155090318Y-80156518D01*
X155026694Y-80214184D01*
X154957724Y-80265336D01*
X154884072Y-80309481D01*
X154806448Y-80346195D01*
X154725599Y-80375123D01*
X154642304Y-80395987D01*
X154557365Y-80408587D01*
X154471600Y-80412800D01*
X152721600Y-80412800D01*
X152635835Y-80408587D01*
X152550896Y-80395987D01*
X152467601Y-80375123D01*
X152386752Y-80346195D01*
X152309128Y-80309481D01*
X152235476Y-80265336D01*
X152166506Y-80214184D01*
X152102882Y-80156518D01*
X152045216Y-80092894D01*
X151994064Y-80023924D01*
X151949919Y-79950272D01*
X151913205Y-79872648D01*
X151884277Y-79791799D01*
X151863413Y-79708504D01*
X151850813Y-79623565D01*
X151846600Y-79537800D01*
X151846600Y-77787800D01*
X151850813Y-77702035D01*
X151863413Y-77617096D01*
X151884277Y-77533801D01*
X151913205Y-77452952D01*
X151949919Y-77375328D01*
X151994064Y-77301676D01*
X152045216Y-77232706D01*
X152102882Y-77169082D01*
X152166506Y-77111416D01*
X152235476Y-77060264D01*
X152309128Y-77016119D01*
X152386752Y-76979405D01*
X152467601Y-76950477D01*
X152550896Y-76929613D01*
X152635835Y-76917013D01*
X152721600Y-76912800D01*
X154471600Y-76912800D01*
X154557365Y-76917013D01*
G37*
G04 #@! TD.AperFunction*
G04 #@! TA.AperFunction,ComponentPad*
G36*
X157420113Y-81616411D02*
G01*
X157492918Y-81627211D01*
X157564314Y-81645095D01*
X157633613Y-81669890D01*
X157700148Y-81701359D01*
X157763278Y-81739198D01*
X157822395Y-81783042D01*
X157876930Y-81832470D01*
X157926358Y-81887005D01*
X157970202Y-81946122D01*
X158008041Y-82009252D01*
X158039510Y-82075787D01*
X158064305Y-82145086D01*
X158082189Y-82216482D01*
X158092989Y-82289287D01*
X158096600Y-82362800D01*
X158096600Y-84362800D01*
X158092989Y-84436313D01*
X158082189Y-84509118D01*
X158064305Y-84580514D01*
X158039510Y-84649813D01*
X158008041Y-84716348D01*
X157970202Y-84779478D01*
X157926358Y-84838595D01*
X157876930Y-84893130D01*
X157822395Y-84942558D01*
X157763278Y-84986402D01*
X157700148Y-85024241D01*
X157633613Y-85055710D01*
X157564314Y-85080505D01*
X157492918Y-85098389D01*
X157420113Y-85109189D01*
X157346600Y-85112800D01*
X155846600Y-85112800D01*
X155773087Y-85109189D01*
X155700282Y-85098389D01*
X155628886Y-85080505D01*
X155559587Y-85055710D01*
X155493052Y-85024241D01*
X155429922Y-84986402D01*
X155370805Y-84942558D01*
X155316270Y-84893130D01*
X155266842Y-84838595D01*
X155222998Y-84779478D01*
X155185159Y-84716348D01*
X155153690Y-84649813D01*
X155128895Y-84580514D01*
X155111011Y-84509118D01*
X155100211Y-84436313D01*
X155096600Y-84362800D01*
X155096600Y-82362800D01*
X155100211Y-82289287D01*
X155111011Y-82216482D01*
X155128895Y-82145086D01*
X155153690Y-82075787D01*
X155185159Y-82009252D01*
X155222998Y-81946122D01*
X155266842Y-81887005D01*
X155316270Y-81832470D01*
X155370805Y-81783042D01*
X155429922Y-81739198D01*
X155493052Y-81701359D01*
X155559587Y-81669890D01*
X155628886Y-81645095D01*
X155700282Y-81627211D01*
X155773087Y-81616411D01*
X155846600Y-81612800D01*
X157346600Y-81612800D01*
X157420113Y-81616411D01*
G37*
G04 #@! TD.AperFunction*
D12*
X150596600Y-83362800D03*
D13*
X157536400Y-95728800D03*
X157536400Y-93228800D03*
X157536400Y-90728800D03*
X151536400Y-95728800D03*
X151536400Y-93228800D03*
X151536400Y-90728800D03*
D14*
X147239000Y-100772300D03*
X147239000Y-103312300D03*
X144699000Y-100772300D03*
X144699000Y-103312300D03*
X142159000Y-100772300D03*
D15*
X142159000Y-103312300D03*
D14*
X137239000Y-100772300D03*
X137239000Y-103312300D03*
X134699000Y-100772300D03*
X134699000Y-103312300D03*
X132159000Y-100772300D03*
D15*
X132159000Y-103312300D03*
D14*
X157239000Y-100772300D03*
X157239000Y-103312300D03*
X154699000Y-100772300D03*
X154699000Y-103312300D03*
X152159000Y-100772300D03*
D15*
X152159000Y-103312300D03*
D16*
X135128000Y-92544900D03*
X135128000Y-85610300D03*
X135128000Y-89485000D03*
X135128000Y-87485000D03*
X135128000Y-90985000D03*
X135128000Y-88485000D03*
X135976900Y-85636100D03*
X136740900Y-85636100D03*
X134276900Y-85636100D03*
X133553200Y-85636100D03*
X135128000Y-86585000D03*
X144272000Y-85673800D03*
X144272000Y-91973800D03*
X144272000Y-87341000D03*
X144272000Y-89341000D03*
X144272000Y-90591000D03*
X144272000Y-88341000D03*
X145201500Y-85661500D03*
X145846800Y-85648800D03*
X143451500Y-85661500D03*
X142748000Y-85661500D03*
X144272000Y-86541000D03*
D17*
X133553200Y-85636100D02*
X133553200Y-85636100D01*
X135128000Y-85610300D02*
X135128000Y-86585000D01*
X135128000Y-89485000D02*
X135128000Y-90985000D01*
X135128000Y-87485000D02*
X135128000Y-88485000D01*
X135128000Y-90985000D02*
X135128000Y-92544900D01*
X135128000Y-88485000D02*
X135128000Y-89485000D01*
X135976900Y-85636100D02*
X136740900Y-85636100D01*
X136740900Y-85636100D02*
X136740900Y-85636100D01*
X133976900Y-85636100D02*
X134276900Y-85636100D01*
X134276900Y-85636100D02*
X135976900Y-85636100D01*
X133553200Y-85636100D02*
X133976900Y-85636100D01*
X135128000Y-86585000D02*
X135128000Y-87485000D01*
X145834100Y-85661500D02*
X145846800Y-85648800D01*
X142748000Y-85661500D02*
X142748000Y-85661500D01*
X144272000Y-85673800D02*
X144272000Y-86541000D01*
X144272000Y-87341000D02*
X144272000Y-88341000D01*
X144272000Y-89341000D02*
X144272000Y-90591000D01*
X144272000Y-90591000D02*
X144272000Y-91973800D01*
X144272000Y-88341000D02*
X144272000Y-89341000D01*
X145201500Y-85661500D02*
X145834100Y-85661500D01*
X145846800Y-85648800D02*
X145846800Y-85648800D01*
X143451500Y-85661500D02*
X145201500Y-85661500D01*
X142748000Y-85661500D02*
X143451500Y-85661500D01*
X144272000Y-86541000D02*
X144272000Y-87341000D01*
D18*
G36*
X151220788Y-76788318D02*
G01*
X151208528Y-76912800D01*
X151211600Y-78377050D01*
X151370350Y-78535800D01*
X153469600Y-78535800D01*
X153469600Y-78515800D01*
X153723600Y-78515800D01*
X153723600Y-78535800D01*
X155822850Y-78535800D01*
X155981600Y-78377050D01*
X155984672Y-76912800D01*
X155972412Y-76788318D01*
X155970799Y-76783000D01*
X158830000Y-76783000D01*
X158830000Y-90389187D01*
X158820096Y-90339395D01*
X158719461Y-90096441D01*
X158573362Y-89877787D01*
X158387413Y-89691838D01*
X158168759Y-89545739D01*
X157925805Y-89445104D01*
X157667886Y-89393800D01*
X157404914Y-89393800D01*
X157146995Y-89445104D01*
X156904041Y-89545739D01*
X156685387Y-89691838D01*
X156499438Y-89877787D01*
X156353339Y-90096441D01*
X156252704Y-90339395D01*
X156201400Y-90597314D01*
X156201400Y-90860286D01*
X156252704Y-91118205D01*
X156353339Y-91361159D01*
X156499438Y-91579813D01*
X156685387Y-91765762D01*
X156904041Y-91911861D01*
X157065646Y-91978800D01*
X156904041Y-92045739D01*
X156685387Y-92191838D01*
X156499438Y-92377787D01*
X156353339Y-92596441D01*
X156252704Y-92839395D01*
X156201400Y-93097314D01*
X156201400Y-93360286D01*
X156252704Y-93618205D01*
X156353339Y-93861159D01*
X156499438Y-94079813D01*
X156685387Y-94265762D01*
X156904041Y-94411861D01*
X157065646Y-94478800D01*
X156904041Y-94545739D01*
X156685387Y-94691838D01*
X156499438Y-94877787D01*
X156353339Y-95096441D01*
X156252704Y-95339395D01*
X156201400Y-95597314D01*
X156201400Y-95860286D01*
X156252704Y-96118205D01*
X156353339Y-96361159D01*
X156499438Y-96579813D01*
X156685387Y-96765762D01*
X156904041Y-96911861D01*
X157146995Y-97012496D01*
X157404914Y-97063800D01*
X157667886Y-97063800D01*
X157925805Y-97012496D01*
X158168759Y-96911861D01*
X158387413Y-96765762D01*
X158573362Y-96579813D01*
X158719461Y-96361159D01*
X158820096Y-96118205D01*
X158830001Y-96068412D01*
X158830001Y-105363000D01*
X130250000Y-105363000D01*
X130250000Y-104162300D01*
X130670928Y-104162300D01*
X130683188Y-104286782D01*
X130719498Y-104406480D01*
X130778463Y-104516794D01*
X130857815Y-104613485D01*
X130954506Y-104692837D01*
X131064820Y-104751802D01*
X131184518Y-104788112D01*
X131309000Y-104800372D01*
X131873250Y-104797300D01*
X132032000Y-104638550D01*
X132032000Y-103439300D01*
X132286000Y-103439300D01*
X132286000Y-104638550D01*
X132444750Y-104797300D01*
X133009000Y-104800372D01*
X133133482Y-104788112D01*
X133253180Y-104751802D01*
X133363494Y-104692837D01*
X133460185Y-104613485D01*
X133539537Y-104516794D01*
X133598502Y-104406480D01*
X133622966Y-104325834D01*
X133698731Y-104409888D01*
X133932080Y-104583941D01*
X134194901Y-104709125D01*
X134342110Y-104753776D01*
X134572000Y-104632455D01*
X134572000Y-103439300D01*
X134826000Y-103439300D01*
X134826000Y-104632455D01*
X135055890Y-104753776D01*
X135203099Y-104709125D01*
X135465920Y-104583941D01*
X135699269Y-104409888D01*
X135894178Y-104193655D01*
X135969000Y-104068045D01*
X136043822Y-104193655D01*
X136238731Y-104409888D01*
X136472080Y-104583941D01*
X136734901Y-104709125D01*
X136882110Y-104753776D01*
X137112000Y-104632455D01*
X137112000Y-103439300D01*
X137366000Y-103439300D01*
X137366000Y-104632455D01*
X137595890Y-104753776D01*
X137743099Y-104709125D01*
X138005920Y-104583941D01*
X138239269Y-104409888D01*
X138434178Y-104193655D01*
X138452855Y-104162300D01*
X140670928Y-104162300D01*
X140683188Y-104286782D01*
X140719498Y-104406480D01*
X140778463Y-104516794D01*
X140857815Y-104613485D01*
X140954506Y-104692837D01*
X141064820Y-104751802D01*
X141184518Y-104788112D01*
X141309000Y-104800372D01*
X141873250Y-104797300D01*
X142032000Y-104638550D01*
X142032000Y-103439300D01*
X142286000Y-103439300D01*
X142286000Y-104638550D01*
X142444750Y-104797300D01*
X143009000Y-104800372D01*
X143133482Y-104788112D01*
X143253180Y-104751802D01*
X143363494Y-104692837D01*
X143460185Y-104613485D01*
X143539537Y-104516794D01*
X143598502Y-104406480D01*
X143622966Y-104325834D01*
X143698731Y-104409888D01*
X143932080Y-104583941D01*
X144194901Y-104709125D01*
X144342110Y-104753776D01*
X144572000Y-104632455D01*
X144572000Y-103439300D01*
X144826000Y-103439300D01*
X144826000Y-104632455D01*
X145055890Y-104753776D01*
X145203099Y-104709125D01*
X145465920Y-104583941D01*
X145699269Y-104409888D01*
X145894178Y-104193655D01*
X145969000Y-104068045D01*
X146043822Y-104193655D01*
X146238731Y-104409888D01*
X146472080Y-104583941D01*
X146734901Y-104709125D01*
X146882110Y-104753776D01*
X147112000Y-104632455D01*
X147112000Y-103439300D01*
X147366000Y-103439300D01*
X147366000Y-104632455D01*
X147595890Y-104753776D01*
X147743099Y-104709125D01*
X148005920Y-104583941D01*
X148239269Y-104409888D01*
X148434178Y-104193655D01*
X148452855Y-104162300D01*
X150670928Y-104162300D01*
X150683188Y-104286782D01*
X150719498Y-104406480D01*
X150778463Y-104516794D01*
X150857815Y-104613485D01*
X150954506Y-104692837D01*
X151064820Y-104751802D01*
X151184518Y-104788112D01*
X151309000Y-104800372D01*
X151873250Y-104797300D01*
X152032000Y-104638550D01*
X152032000Y-103439300D01*
X152286000Y-103439300D01*
X152286000Y-104638550D01*
X152444750Y-104797300D01*
X153009000Y-104800372D01*
X153133482Y-104788112D01*
X153253180Y-104751802D01*
X153363494Y-104692837D01*
X153460185Y-104613485D01*
X153539537Y-104516794D01*
X153598502Y-104406480D01*
X153622966Y-104325834D01*
X153698731Y-104409888D01*
X153932080Y-104583941D01*
X154194901Y-104709125D01*
X154342110Y-104753776D01*
X154572000Y-104632455D01*
X154572000Y-103439300D01*
X154826000Y-103439300D01*
X154826000Y-104632455D01*
X155055890Y-104753776D01*
X155203099Y-104709125D01*
X155465920Y-104583941D01*
X155699269Y-104409888D01*
X155894178Y-104193655D01*
X155969000Y-104068045D01*
X156043822Y-104193655D01*
X156238731Y-104409888D01*
X156472080Y-104583941D01*
X156734901Y-104709125D01*
X156882110Y-104753776D01*
X157112000Y-104632455D01*
X157112000Y-103439300D01*
X157366000Y-103439300D01*
X157366000Y-104632455D01*
X157595890Y-104753776D01*
X157743099Y-104709125D01*
X158005920Y-104583941D01*
X158239269Y-104409888D01*
X158434178Y-104193655D01*
X158583157Y-103943552D01*
X158680481Y-103669191D01*
X158559814Y-103439300D01*
X157366000Y-103439300D01*
X157112000Y-103439300D01*
X154826000Y-103439300D01*
X154572000Y-103439300D01*
X152286000Y-103439300D01*
X152032000Y-103439300D01*
X150832750Y-103439300D01*
X150674000Y-103598050D01*
X150670928Y-104162300D01*
X148452855Y-104162300D01*
X148583157Y-103943552D01*
X148680481Y-103669191D01*
X148559814Y-103439300D01*
X147366000Y-103439300D01*
X147112000Y-103439300D01*
X144826000Y-103439300D01*
X144572000Y-103439300D01*
X142286000Y-103439300D01*
X142032000Y-103439300D01*
X140832750Y-103439300D01*
X140674000Y-103598050D01*
X140670928Y-104162300D01*
X138452855Y-104162300D01*
X138583157Y-103943552D01*
X138680481Y-103669191D01*
X138559814Y-103439300D01*
X137366000Y-103439300D01*
X137112000Y-103439300D01*
X134826000Y-103439300D01*
X134572000Y-103439300D01*
X132286000Y-103439300D01*
X132032000Y-103439300D01*
X130832750Y-103439300D01*
X130674000Y-103598050D01*
X130670928Y-104162300D01*
X130250000Y-104162300D01*
X130250000Y-102462300D01*
X130670928Y-102462300D01*
X130674000Y-103026550D01*
X130832750Y-103185300D01*
X132032000Y-103185300D01*
X132032000Y-103165300D01*
X132286000Y-103165300D01*
X132286000Y-103185300D01*
X134572000Y-103185300D01*
X134572000Y-103165300D01*
X134826000Y-103165300D01*
X134826000Y-103185300D01*
X137112000Y-103185300D01*
X137112000Y-103165300D01*
X137366000Y-103165300D01*
X137366000Y-103185300D01*
X138559814Y-103185300D01*
X138680481Y-102955409D01*
X138583157Y-102681048D01*
X138452856Y-102462300D01*
X140670928Y-102462300D01*
X140674000Y-103026550D01*
X140832750Y-103185300D01*
X142032000Y-103185300D01*
X142032000Y-103165300D01*
X142286000Y-103165300D01*
X142286000Y-103185300D01*
X144572000Y-103185300D01*
X144572000Y-103165300D01*
X144826000Y-103165300D01*
X144826000Y-103185300D01*
X147112000Y-103185300D01*
X147112000Y-103165300D01*
X147366000Y-103165300D01*
X147366000Y-103185300D01*
X148559814Y-103185300D01*
X148680481Y-102955409D01*
X148583157Y-102681048D01*
X148452856Y-102462300D01*
X150670928Y-102462300D01*
X150674000Y-103026550D01*
X150832750Y-103185300D01*
X152032000Y-103185300D01*
X152032000Y-103165300D01*
X152286000Y-103165300D01*
X152286000Y-103185300D01*
X154572000Y-103185300D01*
X154572000Y-103165300D01*
X154826000Y-103165300D01*
X154826000Y-103185300D01*
X157112000Y-103185300D01*
X157112000Y-103165300D01*
X157366000Y-103165300D01*
X157366000Y-103185300D01*
X158559814Y-103185300D01*
X158680481Y-102955409D01*
X158583157Y-102681048D01*
X158434178Y-102430945D01*
X158239269Y-102214712D01*
X158009594Y-102043400D01*
X158185632Y-101925775D01*
X158392475Y-101718932D01*
X158554990Y-101475711D01*
X158666932Y-101205458D01*
X158724000Y-100918560D01*
X158724000Y-100626040D01*
X158666932Y-100339142D01*
X158554990Y-100068889D01*
X158392475Y-99825668D01*
X158185632Y-99618825D01*
X157942411Y-99456310D01*
X157672158Y-99344368D01*
X157385260Y-99287300D01*
X157092740Y-99287300D01*
X156805842Y-99344368D01*
X156535589Y-99456310D01*
X156292368Y-99618825D01*
X156085525Y-99825668D01*
X155969000Y-100000060D01*
X155852475Y-99825668D01*
X155645632Y-99618825D01*
X155402411Y-99456310D01*
X155132158Y-99344368D01*
X154845260Y-99287300D01*
X154552740Y-99287300D01*
X154265842Y-99344368D01*
X153995589Y-99456310D01*
X153752368Y-99618825D01*
X153545525Y-99825668D01*
X153429000Y-100000060D01*
X153312475Y-99825668D01*
X153105632Y-99618825D01*
X152862411Y-99456310D01*
X152592158Y-99344368D01*
X152305260Y-99287300D01*
X152012740Y-99287300D01*
X151725842Y-99344368D01*
X151455589Y-99456310D01*
X151212368Y-99618825D01*
X151005525Y-99825668D01*
X150843010Y-100068889D01*
X150731068Y-100339142D01*
X150674000Y-100626040D01*
X150674000Y-100918560D01*
X150731068Y-101205458D01*
X150843010Y-101475711D01*
X151005525Y-101718932D01*
X151137380Y-101850787D01*
X151064820Y-101872798D01*
X150954506Y-101931763D01*
X150857815Y-102011115D01*
X150778463Y-102107806D01*
X150719498Y-102218120D01*
X150683188Y-102337818D01*
X150670928Y-102462300D01*
X148452856Y-102462300D01*
X148434178Y-102430945D01*
X148239269Y-102214712D01*
X148009594Y-102043400D01*
X148185632Y-101925775D01*
X148392475Y-101718932D01*
X148554990Y-101475711D01*
X148666932Y-101205458D01*
X148724000Y-100918560D01*
X148724000Y-100626040D01*
X148666932Y-100339142D01*
X148554990Y-100068889D01*
X148392475Y-99825668D01*
X148185632Y-99618825D01*
X147942411Y-99456310D01*
X147672158Y-99344368D01*
X147385260Y-99287300D01*
X147092740Y-99287300D01*
X146805842Y-99344368D01*
X146535589Y-99456310D01*
X146292368Y-99618825D01*
X146085525Y-99825668D01*
X145969000Y-100000060D01*
X145852475Y-99825668D01*
X145645632Y-99618825D01*
X145402411Y-99456310D01*
X145132158Y-99344368D01*
X144845260Y-99287300D01*
X144552740Y-99287300D01*
X144265842Y-99344368D01*
X143995589Y-99456310D01*
X143752368Y-99618825D01*
X143545525Y-99825668D01*
X143429000Y-100000060D01*
X143312475Y-99825668D01*
X143105632Y-99618825D01*
X142862411Y-99456310D01*
X142592158Y-99344368D01*
X142305260Y-99287300D01*
X142012740Y-99287300D01*
X141725842Y-99344368D01*
X141455589Y-99456310D01*
X141212368Y-99618825D01*
X141005525Y-99825668D01*
X140843010Y-100068889D01*
X140731068Y-100339142D01*
X140674000Y-100626040D01*
X140674000Y-100918560D01*
X140731068Y-101205458D01*
X140843010Y-101475711D01*
X141005525Y-101718932D01*
X141137380Y-101850787D01*
X141064820Y-101872798D01*
X140954506Y-101931763D01*
X140857815Y-102011115D01*
X140778463Y-102107806D01*
X140719498Y-102218120D01*
X140683188Y-102337818D01*
X140670928Y-102462300D01*
X138452856Y-102462300D01*
X138434178Y-102430945D01*
X138239269Y-102214712D01*
X138009594Y-102043400D01*
X138185632Y-101925775D01*
X138392475Y-101718932D01*
X138554990Y-101475711D01*
X138666932Y-101205458D01*
X138724000Y-100918560D01*
X138724000Y-100626040D01*
X138666932Y-100339142D01*
X138554990Y-100068889D01*
X138392475Y-99825668D01*
X138185632Y-99618825D01*
X137942411Y-99456310D01*
X137672158Y-99344368D01*
X137385260Y-99287300D01*
X137092740Y-99287300D01*
X136805842Y-99344368D01*
X136535589Y-99456310D01*
X136292368Y-99618825D01*
X136085525Y-99825668D01*
X135969000Y-100000060D01*
X135852475Y-99825668D01*
X135645632Y-99618825D01*
X135402411Y-99456310D01*
X135132158Y-99344368D01*
X134845260Y-99287300D01*
X134552740Y-99287300D01*
X134265842Y-99344368D01*
X133995589Y-99456310D01*
X133752368Y-99618825D01*
X133545525Y-99825668D01*
X133429000Y-100000060D01*
X133312475Y-99825668D01*
X133105632Y-99618825D01*
X132862411Y-99456310D01*
X132592158Y-99344368D01*
X132305260Y-99287300D01*
X132012740Y-99287300D01*
X131725842Y-99344368D01*
X131455589Y-99456310D01*
X131212368Y-99618825D01*
X131005525Y-99825668D01*
X130843010Y-100068889D01*
X130731068Y-100339142D01*
X130674000Y-100626040D01*
X130674000Y-100918560D01*
X130731068Y-101205458D01*
X130843010Y-101475711D01*
X131005525Y-101718932D01*
X131137380Y-101850787D01*
X131064820Y-101872798D01*
X130954506Y-101931763D01*
X130857815Y-102011115D01*
X130778463Y-102107806D01*
X130719498Y-102218120D01*
X130683188Y-102337818D01*
X130670928Y-102462300D01*
X130250000Y-102462300D01*
X130250000Y-96216818D01*
X137191778Y-96216818D01*
X137196562Y-96270844D01*
X137200002Y-96324959D01*
X137202031Y-96332619D01*
X137202730Y-96340512D01*
X137217909Y-96392556D01*
X137231800Y-96444996D01*
X137235280Y-96452119D01*
X137237498Y-96459724D01*
X137262502Y-96507839D01*
X137286310Y-96556571D01*
X137291105Y-96562880D01*
X137294759Y-96569911D01*
X137328639Y-96612262D01*
X137361453Y-96655434D01*
X137367381Y-96660690D01*
X137372332Y-96666879D01*
X137413796Y-96701845D01*
X137454367Y-96737818D01*
X137461203Y-96741823D01*
X137467262Y-96746932D01*
X137514727Y-96773178D01*
X137526545Y-96780101D01*
X137528571Y-96781575D01*
X137530904Y-96782655D01*
X137561513Y-96800586D01*
X137569606Y-96804251D01*
X137592466Y-96814411D01*
X137617409Y-96822690D01*
X137641265Y-96833731D01*
X137649674Y-96836599D01*
X137672534Y-96844219D01*
X137676881Y-96845209D01*
X137655275Y-96892323D01*
X137632020Y-96939160D01*
X137629434Y-96948676D01*
X137625321Y-96957644D01*
X137613165Y-97008532D01*
X137599450Y-97058991D01*
X137598761Y-97068827D01*
X137596469Y-97078423D01*
X137594429Y-97130689D01*
X137590776Y-97182865D01*
X137592012Y-97192653D01*
X137591627Y-97202508D01*
X137599776Y-97254165D01*
X137606328Y-97306066D01*
X137609441Y-97315427D01*
X137610978Y-97325169D01*
X137629008Y-97374266D01*
X137645514Y-97423900D01*
X137650385Y-97432476D01*
X137653785Y-97441735D01*
X137657703Y-97449709D01*
X137665323Y-97464949D01*
X137665604Y-97465396D01*
X137665794Y-97465889D01*
X137698713Y-97518043D01*
X137701494Y-97522465D01*
X137706840Y-97531878D01*
X137708954Y-97534328D01*
X137731430Y-97570067D01*
X137731791Y-97570450D01*
X137732075Y-97570899D01*
X137737577Y-97577875D01*
X137768057Y-97615975D01*
X137784824Y-97633181D01*
X137799418Y-97652282D01*
X137805521Y-97658739D01*
X137863941Y-97719699D01*
X137865714Y-97721219D01*
X137867171Y-97723045D01*
X137873409Y-97729371D01*
X137962309Y-97818271D01*
X137976605Y-97830014D01*
X137977549Y-97830971D01*
X138046129Y-97899551D01*
X138059093Y-97910200D01*
X138070408Y-97922585D01*
X138077053Y-97928482D01*
X138129797Y-97974633D01*
X138162469Y-98005263D01*
X138191013Y-98027207D01*
X138194356Y-98030796D01*
X138198749Y-98033969D01*
X138220622Y-98053620D01*
X138227816Y-98058834D01*
X138245596Y-98071534D01*
X138257860Y-98078597D01*
X138260917Y-98080947D01*
X138268238Y-98084574D01*
X138271132Y-98086240D01*
X138295028Y-98103497D01*
X138324814Y-98117156D01*
X138353204Y-98133506D01*
X138381112Y-98142973D01*
X138407904Y-98155259D01*
X138439775Y-98162872D01*
X138470801Y-98173397D01*
X138500013Y-98177262D01*
X138528683Y-98184111D01*
X138561430Y-98185389D01*
X138593906Y-98189686D01*
X138623317Y-98187804D01*
X138652768Y-98188953D01*
X138685127Y-98183848D01*
X138717831Y-98181755D01*
X138746323Y-98174194D01*
X138775429Y-98169602D01*
X138806183Y-98158308D01*
X138837855Y-98149903D01*
X138864331Y-98136954D01*
X138891995Y-98126795D01*
X138899969Y-98122877D01*
X138920288Y-98112717D01*
X138942677Y-98098637D01*
X138949406Y-98095346D01*
X138949682Y-98095136D01*
X138967959Y-98086271D01*
X138975504Y-98081579D01*
X139023763Y-98051099D01*
X139024211Y-98050750D01*
X139024729Y-98050489D01*
X139032198Y-98045679D01*
X139098239Y-98002498D01*
X139098829Y-98002024D01*
X139099501Y-98001671D01*
X139106891Y-97996740D01*
X139109885Y-97994712D01*
X139123097Y-97997354D01*
X139143442Y-97999388D01*
X139163344Y-98004069D01*
X139205095Y-98005552D01*
X139246659Y-98009708D01*
X139267011Y-98007752D01*
X139287445Y-98008478D01*
X139328687Y-98001824D01*
X139370268Y-97997828D01*
X139389850Y-97991957D01*
X139410037Y-97988700D01*
X139449207Y-97974160D01*
X139489214Y-97962165D01*
X139507282Y-97952603D01*
X139526454Y-97945486D01*
X139562049Y-97923618D01*
X139598969Y-97904078D01*
X139614839Y-97891185D01*
X139632259Y-97880483D01*
X139662924Y-97852121D01*
X139695351Y-97825778D01*
X139708416Y-97810046D01*
X139723424Y-97796166D01*
X139747994Y-97762391D01*
X139774688Y-97730250D01*
X139784448Y-97712281D01*
X139796475Y-97695749D01*
X139805699Y-97675818D01*
X139807599Y-97673051D01*
X139811835Y-97665241D01*
X139828638Y-97633736D01*
X139854716Y-97679711D01*
X139884521Y-97732742D01*
X139885338Y-97733697D01*
X139885955Y-97734785D01*
X139925618Y-97780796D01*
X139965230Y-97827115D01*
X139966215Y-97827892D01*
X139967034Y-97828842D01*
X140015040Y-97866399D01*
X140062734Y-97904014D01*
X140063848Y-97904583D01*
X140064837Y-97905357D01*
X140119201Y-97932863D01*
X140173316Y-97960510D01*
X140174521Y-97960852D01*
X140175641Y-97961419D01*
X140234276Y-97977832D01*
X140261903Y-97985682D01*
X140274311Y-97989945D01*
X140279300Y-97990625D01*
X140292765Y-97994451D01*
X140295102Y-97994857D01*
X140295222Y-97994891D01*
X140295355Y-97994901D01*
X140301518Y-97995973D01*
X140316758Y-97998513D01*
X140357201Y-98001243D01*
X140397352Y-98006716D01*
X140419004Y-98005416D01*
X140440653Y-98006877D01*
X140480852Y-98001701D01*
X140521306Y-97999271D01*
X140542296Y-97993789D01*
X140545787Y-97993339D01*
X140611981Y-98037469D01*
X140615003Y-98039082D01*
X140617678Y-98041223D01*
X140625156Y-98046019D01*
X140673416Y-98076499D01*
X140697806Y-98088753D01*
X140720713Y-98103609D01*
X140728631Y-98107637D01*
X140754031Y-98120337D01*
X140770563Y-98126671D01*
X140774289Y-98128857D01*
X140775759Y-98129369D01*
X140787927Y-98136058D01*
X140829382Y-98149208D01*
X140869988Y-98164767D01*
X140884727Y-98167304D01*
X140891564Y-98169684D01*
X140895807Y-98170280D01*
X140906292Y-98173606D01*
X140949511Y-98178454D01*
X140992368Y-98185830D01*
X141004382Y-98185529D01*
X141014535Y-98186955D01*
X141021715Y-98186553D01*
X141029696Y-98187448D01*
X141038580Y-98187510D01*
X141041120Y-98187510D01*
X141080864Y-98183613D01*
X141116506Y-98182720D01*
X141125289Y-98180751D01*
X141138520Y-98180010D01*
X141151433Y-98176693D01*
X141164705Y-98175392D01*
X141209416Y-98161893D01*
X141237678Y-98155558D01*
X141243175Y-98153129D01*
X141258793Y-98149118D01*
X141270818Y-98143355D01*
X141283584Y-98139501D01*
X141326456Y-98116706D01*
X141329029Y-98115806D01*
X141332214Y-98113932D01*
X141335919Y-98112156D01*
X141351265Y-98105377D01*
X141353855Y-98103561D01*
X141370776Y-98095452D01*
X141378342Y-98090796D01*
X141398662Y-98078096D01*
X141416569Y-98064303D01*
X141436058Y-98052837D01*
X141443202Y-98047556D01*
X141483842Y-98017076D01*
X141508666Y-97994353D01*
X141535421Y-97973951D01*
X141541884Y-97967855D01*
X141600304Y-97911976D01*
X141602024Y-97909974D01*
X141604085Y-97908329D01*
X141610411Y-97902091D01*
X141691691Y-97820811D01*
X141704391Y-97808110D01*
X141705244Y-97807072D01*
X141706284Y-97806210D01*
X141712495Y-97799858D01*
X141781075Y-97728738D01*
X141781156Y-97728636D01*
X141782855Y-97726884D01*
X141838735Y-97668464D01*
X141838815Y-97668362D01*
X141843123Y-97663831D01*
X141881223Y-97623191D01*
X141903167Y-97594647D01*
X141906756Y-97591304D01*
X141909929Y-97586911D01*
X141929580Y-97565038D01*
X141934794Y-97557844D01*
X141947494Y-97540064D01*
X141954557Y-97527800D01*
X141956907Y-97524743D01*
X141960534Y-97517422D01*
X141962200Y-97514528D01*
X141979457Y-97490632D01*
X141993116Y-97460846D01*
X142009466Y-97432456D01*
X142018933Y-97404548D01*
X142031219Y-97377756D01*
X142038832Y-97345885D01*
X142049357Y-97314859D01*
X142053222Y-97285647D01*
X142060071Y-97256977D01*
X142061349Y-97224230D01*
X142065646Y-97191754D01*
X142063764Y-97162343D01*
X142064913Y-97132892D01*
X142059808Y-97100533D01*
X142057715Y-97067829D01*
X142050154Y-97039337D01*
X142045562Y-97010231D01*
X142034268Y-96979477D01*
X142025863Y-96947805D01*
X142012914Y-96921329D01*
X142002755Y-96893665D01*
X141998837Y-96885691D01*
X141986137Y-96860291D01*
X141978494Y-96848138D01*
X141988614Y-96845061D01*
X142044490Y-96828827D01*
X142048005Y-96827005D01*
X142051791Y-96825854D01*
X142103088Y-96798453D01*
X142154737Y-96771681D01*
X142157830Y-96769212D01*
X142161323Y-96767346D01*
X142206344Y-96730484D01*
X142251785Y-96694209D01*
X142257350Y-96688721D01*
X142257403Y-96688678D01*
X142257442Y-96688631D01*
X142258111Y-96687971D01*
X142263191Y-96682891D01*
X142303886Y-96633348D01*
X142342002Y-96586947D01*
X142342007Y-96586938D01*
X142342010Y-96586934D01*
X142370126Y-96534499D01*
X142400685Y-96477510D01*
X142404042Y-96469285D01*
X142409122Y-96456585D01*
X142424121Y-96404962D01*
X142440471Y-96353762D01*
X142442274Y-96345063D01*
X142447354Y-96319663D01*
X142453148Y-96261713D01*
X142459648Y-96203764D01*
X142459701Y-96196171D01*
X142459708Y-96196101D01*
X142459702Y-96196038D01*
X142459710Y-96194880D01*
X142459710Y-96157227D01*
X142461897Y-96091618D01*
X142461499Y-96085447D01*
X142462188Y-96079304D01*
X142462250Y-96070420D01*
X142462250Y-95948500D01*
X142461943Y-95945369D01*
X142462219Y-95942238D01*
X142462070Y-95933355D01*
X142459710Y-95834230D01*
X142459710Y-95758000D01*
X142458663Y-95747318D01*
X142459350Y-95736612D01*
X142458990Y-95727735D01*
X142456450Y-95674396D01*
X142449366Y-95625993D01*
X142449368Y-95625559D01*
X142449094Y-95624137D01*
X142448012Y-95616745D01*
X142440267Y-95558975D01*
X142438478Y-95551602D01*
X142438467Y-95551527D01*
X142438444Y-95551463D01*
X142438172Y-95550341D01*
X142433093Y-95530022D01*
X142428479Y-95517090D01*
X142425885Y-95503621D01*
X142407652Y-95458719D01*
X142391363Y-95413066D01*
X142384331Y-95401286D01*
X142379166Y-95388567D01*
X142352549Y-95348047D01*
X142327711Y-95306441D01*
X142318523Y-95296250D01*
X142310988Y-95284779D01*
X142277011Y-95250205D01*
X142244561Y-95214212D01*
X142233568Y-95205999D01*
X142223948Y-95196210D01*
X142183910Y-95168899D01*
X142145081Y-95139889D01*
X142132700Y-95133967D01*
X142121364Y-95126234D01*
X142076787Y-95107221D01*
X142033059Y-95086304D01*
X142019763Y-95082899D01*
X142007142Y-95077516D01*
X141998650Y-95074904D01*
X141977387Y-95068525D01*
X141984649Y-95057327D01*
X141988677Y-95049409D01*
X141998837Y-95029089D01*
X142005538Y-95011601D01*
X142014558Y-94995193D01*
X142024392Y-94964191D01*
X142031615Y-94948361D01*
X142034604Y-94935741D01*
X142043267Y-94913132D01*
X142046443Y-94894681D01*
X142052106Y-94876828D01*
X142055297Y-94848378D01*
X142060236Y-94827527D01*
X142060850Y-94810970D01*
X142064330Y-94790752D01*
X142063861Y-94772030D01*
X142065948Y-94753424D01*
X142066010Y-94744540D01*
X142066010Y-94742000D01*
X142064123Y-94722757D01*
X142064840Y-94703434D01*
X142061641Y-94683405D01*
X142061220Y-94666614D01*
X142056595Y-94645982D01*
X142053892Y-94618415D01*
X142048302Y-94599901D01*
X142045253Y-94580810D01*
X142036944Y-94558318D01*
X142034058Y-94545442D01*
X142027117Y-94529732D01*
X142018001Y-94499536D01*
X142008923Y-94482462D01*
X142002223Y-94464326D01*
X141987851Y-94440849D01*
X141983877Y-94431855D01*
X141976168Y-94420859D01*
X141959703Y-94389894D01*
X141947482Y-94374910D01*
X141937386Y-94358418D01*
X141931981Y-94351368D01*
X141914201Y-94328508D01*
X141902872Y-94316559D01*
X141893370Y-94303106D01*
X141887514Y-94296425D01*
X141846874Y-94250705D01*
X141841361Y-94245606D01*
X141836802Y-94239639D01*
X141830700Y-94233182D01*
X141772279Y-94172221D01*
X141770506Y-94170701D01*
X141769049Y-94168875D01*
X141762811Y-94162549D01*
X141691691Y-94091429D01*
X141680648Y-94082358D01*
X141671094Y-94071735D01*
X141664495Y-94065786D01*
X141655612Y-94057890D01*
X141592631Y-93994909D01*
X141590055Y-93992793D01*
X141587917Y-93990245D01*
X141581527Y-93984073D01*
X141528187Y-93933273D01*
X141496407Y-93908442D01*
X141466398Y-93881480D01*
X141459205Y-93876266D01*
X141423644Y-93850866D01*
X141396381Y-93835165D01*
X141394378Y-93833508D01*
X141382954Y-93827331D01*
X141346287Y-93803551D01*
X141338369Y-93799523D01*
X141323129Y-93791903D01*
X141317547Y-93789764D01*
X141316036Y-93788894D01*
X141309407Y-93786645D01*
X141303573Y-93784410D01*
X141285145Y-93774446D01*
X141248092Y-93762976D01*
X141246096Y-93762061D01*
X141243834Y-93761521D01*
X141207171Y-93747473D01*
X141186533Y-93743921D01*
X141166520Y-93737726D01*
X141126711Y-93733542D01*
X141125317Y-93733209D01*
X141123996Y-93733157D01*
X141084792Y-93726410D01*
X141063847Y-93726935D01*
X141043022Y-93724746D01*
X141002632Y-93728422D01*
X141001232Y-93728367D01*
X141000204Y-93728529D01*
X140960653Y-93729520D01*
X140940213Y-93734102D01*
X140919355Y-93736000D01*
X140880662Y-93747388D01*
X140878571Y-93747718D01*
X140877161Y-93748236D01*
X140839482Y-93756682D01*
X140820318Y-93765149D01*
X140800229Y-93771061D01*
X140765341Y-93789300D01*
X140762005Y-93790525D01*
X140754234Y-93794343D01*
X140725895Y-93806863D01*
X140718506Y-93812044D01*
X140708824Y-93782471D01*
X140694256Y-93732622D01*
X140689527Y-93723533D01*
X140686340Y-93713800D01*
X140660909Y-93668536D01*
X140636936Y-93622464D01*
X140630532Y-93614467D01*
X140625515Y-93605538D01*
X140591783Y-93566083D01*
X140559312Y-93525538D01*
X140551474Y-93518935D01*
X140544821Y-93511154D01*
X140504055Y-93478992D01*
X140464338Y-93445536D01*
X140455375Y-93440586D01*
X140447330Y-93434239D01*
X140401085Y-93410604D01*
X140355636Y-93385504D01*
X140345877Y-93382388D01*
X140336756Y-93377726D01*
X140286809Y-93363525D01*
X140272388Y-93358920D01*
X140255976Y-93352747D01*
X140249905Y-93351741D01*
X140237343Y-93347729D01*
X140228643Y-93345926D01*
X140215943Y-93343386D01*
X140174538Y-93339246D01*
X140133470Y-93332438D01*
X140124602Y-93331909D01*
X140076342Y-93329369D01*
X140075409Y-93329411D01*
X140074485Y-93329274D01*
X140065609Y-93328895D01*
X139994489Y-93326355D01*
X139987560Y-93326785D01*
X139980664Y-93326012D01*
X139971780Y-93325950D01*
X139796520Y-93325950D01*
X139791611Y-93326431D01*
X139786696Y-93326026D01*
X139777814Y-93326225D01*
X139691454Y-93328765D01*
X139691332Y-93328781D01*
X139688962Y-93328843D01*
X139612763Y-93331383D01*
X139612665Y-93331396D01*
X139612572Y-93331390D01*
X139603695Y-93331750D01*
X139550356Y-93334290D01*
X139500939Y-93341523D01*
X139451280Y-93346855D01*
X139442594Y-93348721D01*
X139419734Y-93353801D01*
X139372843Y-93369154D01*
X139359184Y-93372143D01*
X139351935Y-93375302D01*
X139321470Y-93384153D01*
X139311934Y-93389096D01*
X139301720Y-93392440D01*
X139264114Y-93413568D01*
X139245344Y-93421747D01*
X139234702Y-93429129D01*
X139211222Y-93441299D01*
X139202825Y-93448002D01*
X139193458Y-93453265D01*
X139165754Y-93476951D01*
X139143307Y-93492520D01*
X139130576Y-93505678D01*
X139114175Y-93518771D01*
X139107849Y-93525009D01*
X139105309Y-93527549D01*
X139102331Y-93531174D01*
X139099074Y-93533959D01*
X139080789Y-93557135D01*
X139056960Y-93581764D01*
X139042920Y-93603504D01*
X139026490Y-93623506D01*
X139022382Y-93631167D01*
X139022159Y-93631450D01*
X139020705Y-93634295D01*
X139009314Y-93655539D01*
X138989591Y-93686078D01*
X138980039Y-93710137D01*
X138967809Y-93732945D01*
X138957182Y-93767706D01*
X138943767Y-93801492D01*
X138941370Y-93810047D01*
X138940515Y-93813181D01*
X138925667Y-93803551D01*
X138917748Y-93799523D01*
X138897429Y-93789363D01*
X138896393Y-93788966D01*
X138895454Y-93788380D01*
X138879720Y-93782414D01*
X138876588Y-93780742D01*
X138870182Y-93778797D01*
X138838247Y-93766687D01*
X138781471Y-93744933D01*
X138780387Y-93744746D01*
X138779344Y-93744351D01*
X138718897Y-93734163D01*
X138659092Y-93723870D01*
X138657989Y-93723898D01*
X138656893Y-93723713D01*
X138595708Y-93725458D01*
X138534953Y-93726980D01*
X138533877Y-93727221D01*
X138532765Y-93727253D01*
X138473369Y-93740785D01*
X138413782Y-93754142D01*
X138412762Y-93754592D01*
X138411689Y-93754837D01*
X138356139Y-93779608D01*
X138300195Y-93804323D01*
X138299289Y-93804958D01*
X138298276Y-93805410D01*
X138248495Y-93840570D01*
X138198517Y-93875611D01*
X138197749Y-93876413D01*
X138196847Y-93877050D01*
X138190165Y-93882906D01*
X138121585Y-93943866D01*
X138111882Y-93954356D01*
X138100715Y-93963271D01*
X138094389Y-93969509D01*
X137911509Y-94152389D01*
X137910202Y-94153981D01*
X137908620Y-94155297D01*
X137902423Y-94161663D01*
X137845975Y-94220463D01*
X137809909Y-94256529D01*
X137781125Y-94291572D01*
X137750521Y-94325055D01*
X137745246Y-94332204D01*
X137724925Y-94360144D01*
X137722585Y-94364129D01*
X137719566Y-94367626D01*
X137692063Y-94416042D01*
X137689741Y-94419106D01*
X137687053Y-94424626D01*
X137662037Y-94467219D01*
X137660517Y-94471578D01*
X137658232Y-94475600D01*
X137654676Y-94483741D01*
X137647056Y-94501521D01*
X137642286Y-94516558D01*
X137635375Y-94530751D01*
X137623544Y-94575646D01*
X137609511Y-94619887D01*
X137607752Y-94635571D01*
X137603731Y-94650830D01*
X137600846Y-94697157D01*
X137595672Y-94743292D01*
X137596993Y-94759018D01*
X137596012Y-94774768D01*
X137601415Y-94815067D01*
X137601469Y-94827223D01*
X137603609Y-94837785D01*
X137606066Y-94867034D01*
X137610416Y-94882204D01*
X137612513Y-94897844D01*
X137614607Y-94906478D01*
X137617148Y-94916638D01*
X137622793Y-94932461D01*
X137626130Y-94948927D01*
X137637058Y-94975110D01*
X137640296Y-94986401D01*
X137645995Y-94997490D01*
X137658877Y-95033594D01*
X137667489Y-95048021D01*
X137673960Y-95063524D01*
X137677300Y-95069635D01*
X137652451Y-95077370D01*
X137600325Y-95092179D01*
X137593229Y-95095804D01*
X137585621Y-95098172D01*
X137538001Y-95124016D01*
X137489740Y-95148669D01*
X137483482Y-95153604D01*
X137476480Y-95157404D01*
X137434792Y-95192001D01*
X137392233Y-95225563D01*
X137387052Y-95231621D01*
X137380923Y-95236707D01*
X137346751Y-95278739D01*
X137311519Y-95319931D01*
X137307615Y-95326877D01*
X137302588Y-95333060D01*
X137277209Y-95380971D01*
X137250673Y-95428181D01*
X137248195Y-95435746D01*
X137244461Y-95442794D01*
X137228866Y-95494738D01*
X137212010Y-95546187D01*
X137211048Y-95554091D01*
X137208755Y-95561728D01*
X137203550Y-95615680D01*
X137197004Y-95669455D01*
X137196858Y-95678338D01*
X137191778Y-96216818D01*
X130250000Y-96216818D01*
X130250000Y-85636100D01*
X131407870Y-85636100D01*
X131449092Y-86054633D01*
X131571174Y-86457082D01*
X131769423Y-86827981D01*
X132036223Y-87153077D01*
X132361319Y-87419877D01*
X132732218Y-87618126D01*
X132993000Y-87697234D01*
X132993000Y-92649782D01*
X133023892Y-92963433D01*
X133145975Y-93365882D01*
X133344224Y-93736781D01*
X133611024Y-94061877D01*
X133936120Y-94328677D01*
X134307019Y-94526926D01*
X134709468Y-94649008D01*
X135128000Y-94690230D01*
X135546533Y-94649008D01*
X135948982Y-94526926D01*
X136319881Y-94328677D01*
X136644977Y-94061877D01*
X136911777Y-93736781D01*
X137110026Y-93365882D01*
X137232108Y-92963432D01*
X137263000Y-92649781D01*
X137263000Y-87708791D01*
X137561882Y-87618126D01*
X137932781Y-87419877D01*
X138257877Y-87153077D01*
X138524677Y-86827981D01*
X138722926Y-86457082D01*
X138845008Y-86054633D01*
X138883728Y-85661500D01*
X140602670Y-85661500D01*
X140643892Y-86080033D01*
X140765974Y-86482482D01*
X140964223Y-86853381D01*
X141231023Y-87178477D01*
X141556119Y-87445277D01*
X141927018Y-87643526D01*
X142137000Y-87707224D01*
X142137000Y-92078682D01*
X142167892Y-92392333D01*
X142289975Y-92794782D01*
X142488224Y-93165681D01*
X142755024Y-93490777D01*
X143080120Y-93757577D01*
X143451019Y-93955826D01*
X143853468Y-94077908D01*
X144272000Y-94119130D01*
X144690533Y-94077908D01*
X145092982Y-93955826D01*
X145463881Y-93757577D01*
X145788977Y-93490777D01*
X146055777Y-93165681D01*
X146254026Y-92794782D01*
X146376108Y-92392332D01*
X146407000Y-92078681D01*
X146407000Y-90597314D01*
X150201400Y-90597314D01*
X150201400Y-90860286D01*
X150252704Y-91118205D01*
X150353339Y-91361159D01*
X150499438Y-91579813D01*
X150685387Y-91765762D01*
X150904041Y-91911861D01*
X151065646Y-91978800D01*
X150904041Y-92045739D01*
X150685387Y-92191838D01*
X150499438Y-92377787D01*
X150353339Y-92596441D01*
X150252704Y-92839395D01*
X150201400Y-93097314D01*
X150201400Y-93360286D01*
X150252704Y-93618205D01*
X150353339Y-93861159D01*
X150499438Y-94079813D01*
X150685387Y-94265762D01*
X150904041Y-94411861D01*
X151065646Y-94478800D01*
X150904041Y-94545739D01*
X150685387Y-94691838D01*
X150499438Y-94877787D01*
X150353339Y-95096441D01*
X150252704Y-95339395D01*
X150201400Y-95597314D01*
X150201400Y-95860286D01*
X150252704Y-96118205D01*
X150353339Y-96361159D01*
X150499438Y-96579813D01*
X150685387Y-96765762D01*
X150904041Y-96911861D01*
X151146995Y-97012496D01*
X151404914Y-97063800D01*
X151667886Y-97063800D01*
X151925805Y-97012496D01*
X152168759Y-96911861D01*
X152387413Y-96765762D01*
X152573362Y-96579813D01*
X152719461Y-96361159D01*
X152820096Y-96118205D01*
X152871400Y-95860286D01*
X152871400Y-95597314D01*
X152820096Y-95339395D01*
X152719461Y-95096441D01*
X152573362Y-94877787D01*
X152387413Y-94691838D01*
X152168759Y-94545739D01*
X152007154Y-94478800D01*
X152168759Y-94411861D01*
X152387413Y-94265762D01*
X152573362Y-94079813D01*
X152719461Y-93861159D01*
X152820096Y-93618205D01*
X152871400Y-93360286D01*
X152871400Y-93097314D01*
X152820096Y-92839395D01*
X152719461Y-92596441D01*
X152573362Y-92377787D01*
X152387413Y-92191838D01*
X152168759Y-92045739D01*
X152007154Y-91978800D01*
X152168759Y-91911861D01*
X152387413Y-91765762D01*
X152573362Y-91579813D01*
X152719461Y-91361159D01*
X152820096Y-91118205D01*
X152871400Y-90860286D01*
X152871400Y-90597314D01*
X152820096Y-90339395D01*
X152719461Y-90096441D01*
X152573362Y-89877787D01*
X152387413Y-89691838D01*
X152168759Y-89545739D01*
X151925805Y-89445104D01*
X151667886Y-89393800D01*
X151404914Y-89393800D01*
X151146995Y-89445104D01*
X150904041Y-89545739D01*
X150685387Y-89691838D01*
X150499438Y-89877787D01*
X150353339Y-90096441D01*
X150252704Y-90339395D01*
X150201400Y-90597314D01*
X146407000Y-90597314D01*
X146407000Y-87718781D01*
X146655082Y-87643526D01*
X147025981Y-87445277D01*
X147351077Y-87178477D01*
X147356802Y-87171502D01*
X147363777Y-87165777D01*
X147630577Y-86840681D01*
X147828826Y-86469782D01*
X147950908Y-86067333D01*
X147992130Y-85648800D01*
X147950908Y-85230267D01*
X147947056Y-85217567D01*
X147828826Y-84827818D01*
X147791092Y-84757223D01*
X147630577Y-84456919D01*
X147363777Y-84131823D01*
X147038681Y-83865023D01*
X146667782Y-83666774D01*
X146347747Y-83569692D01*
X146265334Y-83544692D01*
X146227799Y-83540995D01*
X145951682Y-83513800D01*
X145951675Y-83513800D01*
X145846800Y-83503471D01*
X145741926Y-83513800D01*
X145741918Y-83513800D01*
X145612973Y-83526500D01*
X142643118Y-83526500D01*
X142329467Y-83557392D01*
X141927018Y-83679474D01*
X141556119Y-83877723D01*
X141231023Y-84144523D01*
X140964223Y-84469619D01*
X140765974Y-84840518D01*
X140643892Y-85242967D01*
X140602670Y-85661500D01*
X138883728Y-85661500D01*
X138886230Y-85636100D01*
X138845008Y-85217567D01*
X138722926Y-84815118D01*
X138524677Y-84444219D01*
X138257877Y-84119123D01*
X137932781Y-83852323D01*
X137561882Y-83654074D01*
X137159433Y-83531992D01*
X136845782Y-83501100D01*
X135494832Y-83501100D01*
X135128000Y-83464970D01*
X134761167Y-83501100D01*
X133448318Y-83501100D01*
X133134667Y-83531992D01*
X132732218Y-83654074D01*
X132361319Y-83852323D01*
X132036223Y-84119123D01*
X131769423Y-84444219D01*
X131571174Y-84815118D01*
X131449092Y-85217567D01*
X131407870Y-85636100D01*
X130250000Y-85636100D01*
X130250000Y-81612800D01*
X148208528Y-81612800D01*
X148208528Y-85112800D01*
X148220788Y-85237282D01*
X148257098Y-85356980D01*
X148316063Y-85467294D01*
X148395415Y-85563985D01*
X148492106Y-85643337D01*
X148602420Y-85702302D01*
X148722118Y-85738612D01*
X148846600Y-85750872D01*
X152346600Y-85750872D01*
X152471082Y-85738612D01*
X152590780Y-85702302D01*
X152701094Y-85643337D01*
X152797785Y-85563985D01*
X152877137Y-85467294D01*
X152936102Y-85356980D01*
X152972412Y-85237282D01*
X152984672Y-85112800D01*
X154458528Y-85112800D01*
X154470788Y-85237282D01*
X154507098Y-85356980D01*
X154566063Y-85467294D01*
X154645415Y-85563985D01*
X154742106Y-85643337D01*
X154852420Y-85702302D01*
X154972118Y-85738612D01*
X155096600Y-85750872D01*
X156310850Y-85747800D01*
X156469600Y-85589050D01*
X156469600Y-83489800D01*
X156723600Y-83489800D01*
X156723600Y-85589050D01*
X156882350Y-85747800D01*
X158096600Y-85750872D01*
X158221082Y-85738612D01*
X158340780Y-85702302D01*
X158451094Y-85643337D01*
X158547785Y-85563985D01*
X158627137Y-85467294D01*
X158686102Y-85356980D01*
X158722412Y-85237282D01*
X158734672Y-85112800D01*
X158731600Y-83648550D01*
X158572850Y-83489800D01*
X156723600Y-83489800D01*
X156469600Y-83489800D01*
X154620350Y-83489800D01*
X154461600Y-83648550D01*
X154458528Y-85112800D01*
X152984672Y-85112800D01*
X152984672Y-81612800D01*
X152972412Y-81488318D01*
X152936102Y-81368620D01*
X152877137Y-81258306D01*
X152797785Y-81161615D01*
X152701094Y-81082263D01*
X152639255Y-81049209D01*
X153310850Y-81047800D01*
X153469600Y-80889050D01*
X153469600Y-78789800D01*
X153723600Y-78789800D01*
X153723600Y-80889050D01*
X153882350Y-81047800D01*
X154802967Y-81049731D01*
X154742106Y-81082263D01*
X154645415Y-81161615D01*
X154566063Y-81258306D01*
X154507098Y-81368620D01*
X154470788Y-81488318D01*
X154458528Y-81612800D01*
X154461600Y-83077050D01*
X154620350Y-83235800D01*
X156469600Y-83235800D01*
X156469600Y-81136550D01*
X156723600Y-81136550D01*
X156723600Y-83235800D01*
X158572850Y-83235800D01*
X158731600Y-83077050D01*
X158734672Y-81612800D01*
X158722412Y-81488318D01*
X158686102Y-81368620D01*
X158627137Y-81258306D01*
X158547785Y-81161615D01*
X158451094Y-81082263D01*
X158340780Y-81023298D01*
X158221082Y-80986988D01*
X158096600Y-80974728D01*
X156882350Y-80977800D01*
X156723600Y-81136550D01*
X156469600Y-81136550D01*
X156310850Y-80977800D01*
X155639795Y-80976102D01*
X155701094Y-80943337D01*
X155797785Y-80863985D01*
X155877137Y-80767294D01*
X155936102Y-80656980D01*
X155972412Y-80537282D01*
X155984672Y-80412800D01*
X155981600Y-78948550D01*
X155822850Y-78789800D01*
X153723600Y-78789800D01*
X153469600Y-78789800D01*
X151370350Y-78789800D01*
X151211600Y-78948550D01*
X151208528Y-80412800D01*
X151220788Y-80537282D01*
X151257098Y-80656980D01*
X151316063Y-80767294D01*
X151395415Y-80863985D01*
X151492106Y-80943337D01*
X151550833Y-80974728D01*
X148846600Y-80974728D01*
X148722118Y-80986988D01*
X148602420Y-81023298D01*
X148492106Y-81082263D01*
X148395415Y-81161615D01*
X148316063Y-81258306D01*
X148257098Y-81368620D01*
X148220788Y-81488318D01*
X148208528Y-81612800D01*
X130250000Y-81612800D01*
X130250000Y-76783000D01*
X151222401Y-76783000D01*
X151220788Y-76788318D01*
G37*
X151220788Y-76788318D02*
X151208528Y-76912800D01*
X151211600Y-78377050D01*
X151370350Y-78535800D01*
X153469600Y-78535800D01*
X153469600Y-78515800D01*
X153723600Y-78515800D01*
X153723600Y-78535800D01*
X155822850Y-78535800D01*
X155981600Y-78377050D01*
X155984672Y-76912800D01*
X155972412Y-76788318D01*
X155970799Y-76783000D01*
X158830000Y-76783000D01*
X158830000Y-90389187D01*
X158820096Y-90339395D01*
X158719461Y-90096441D01*
X158573362Y-89877787D01*
X158387413Y-89691838D01*
X158168759Y-89545739D01*
X157925805Y-89445104D01*
X157667886Y-89393800D01*
X157404914Y-89393800D01*
X157146995Y-89445104D01*
X156904041Y-89545739D01*
X156685387Y-89691838D01*
X156499438Y-89877787D01*
X156353339Y-90096441D01*
X156252704Y-90339395D01*
X156201400Y-90597314D01*
X156201400Y-90860286D01*
X156252704Y-91118205D01*
X156353339Y-91361159D01*
X156499438Y-91579813D01*
X156685387Y-91765762D01*
X156904041Y-91911861D01*
X157065646Y-91978800D01*
X156904041Y-92045739D01*
X156685387Y-92191838D01*
X156499438Y-92377787D01*
X156353339Y-92596441D01*
X156252704Y-92839395D01*
X156201400Y-93097314D01*
X156201400Y-93360286D01*
X156252704Y-93618205D01*
X156353339Y-93861159D01*
X156499438Y-94079813D01*
X156685387Y-94265762D01*
X156904041Y-94411861D01*
X157065646Y-94478800D01*
X156904041Y-94545739D01*
X156685387Y-94691838D01*
X156499438Y-94877787D01*
X156353339Y-95096441D01*
X156252704Y-95339395D01*
X156201400Y-95597314D01*
X156201400Y-95860286D01*
X156252704Y-96118205D01*
X156353339Y-96361159D01*
X156499438Y-96579813D01*
X156685387Y-96765762D01*
X156904041Y-96911861D01*
X157146995Y-97012496D01*
X157404914Y-97063800D01*
X157667886Y-97063800D01*
X157925805Y-97012496D01*
X158168759Y-96911861D01*
X158387413Y-96765762D01*
X158573362Y-96579813D01*
X158719461Y-96361159D01*
X158820096Y-96118205D01*
X158830001Y-96068412D01*
X158830001Y-105363000D01*
X130250000Y-105363000D01*
X130250000Y-104162300D01*
X130670928Y-104162300D01*
X130683188Y-104286782D01*
X130719498Y-104406480D01*
X130778463Y-104516794D01*
X130857815Y-104613485D01*
X130954506Y-104692837D01*
X131064820Y-104751802D01*
X131184518Y-104788112D01*
X131309000Y-104800372D01*
X131873250Y-104797300D01*
X132032000Y-104638550D01*
X132032000Y-103439300D01*
X132286000Y-103439300D01*
X132286000Y-104638550D01*
X132444750Y-104797300D01*
X133009000Y-104800372D01*
X133133482Y-104788112D01*
X133253180Y-104751802D01*
X133363494Y-104692837D01*
X133460185Y-104613485D01*
X133539537Y-104516794D01*
X133598502Y-104406480D01*
X133622966Y-104325834D01*
X133698731Y-104409888D01*
X133932080Y-104583941D01*
X134194901Y-104709125D01*
X134342110Y-104753776D01*
X134572000Y-104632455D01*
X134572000Y-103439300D01*
X134826000Y-103439300D01*
X134826000Y-104632455D01*
X135055890Y-104753776D01*
X135203099Y-104709125D01*
X135465920Y-104583941D01*
X135699269Y-104409888D01*
X135894178Y-104193655D01*
X135969000Y-104068045D01*
X136043822Y-104193655D01*
X136238731Y-104409888D01*
X136472080Y-104583941D01*
X136734901Y-104709125D01*
X136882110Y-104753776D01*
X137112000Y-104632455D01*
X137112000Y-103439300D01*
X137366000Y-103439300D01*
X137366000Y-104632455D01*
X137595890Y-104753776D01*
X137743099Y-104709125D01*
X138005920Y-104583941D01*
X138239269Y-104409888D01*
X138434178Y-104193655D01*
X138452855Y-104162300D01*
X140670928Y-104162300D01*
X140683188Y-104286782D01*
X140719498Y-104406480D01*
X140778463Y-104516794D01*
X140857815Y-104613485D01*
X140954506Y-104692837D01*
X141064820Y-104751802D01*
X141184518Y-104788112D01*
X141309000Y-104800372D01*
X141873250Y-104797300D01*
X142032000Y-104638550D01*
X142032000Y-103439300D01*
X142286000Y-103439300D01*
X142286000Y-104638550D01*
X142444750Y-104797300D01*
X143009000Y-104800372D01*
X143133482Y-104788112D01*
X143253180Y-104751802D01*
X143363494Y-104692837D01*
X143460185Y-104613485D01*
X143539537Y-104516794D01*
X143598502Y-104406480D01*
X143622966Y-104325834D01*
X143698731Y-104409888D01*
X143932080Y-104583941D01*
X144194901Y-104709125D01*
X144342110Y-104753776D01*
X144572000Y-104632455D01*
X144572000Y-103439300D01*
X144826000Y-103439300D01*
X144826000Y-104632455D01*
X145055890Y-104753776D01*
X145203099Y-104709125D01*
X145465920Y-104583941D01*
X145699269Y-104409888D01*
X145894178Y-104193655D01*
X145969000Y-104068045D01*
X146043822Y-104193655D01*
X146238731Y-104409888D01*
X146472080Y-104583941D01*
X146734901Y-104709125D01*
X146882110Y-104753776D01*
X147112000Y-104632455D01*
X147112000Y-103439300D01*
X147366000Y-103439300D01*
X147366000Y-104632455D01*
X147595890Y-104753776D01*
X147743099Y-104709125D01*
X148005920Y-104583941D01*
X148239269Y-104409888D01*
X148434178Y-104193655D01*
X148452855Y-104162300D01*
X150670928Y-104162300D01*
X150683188Y-104286782D01*
X150719498Y-104406480D01*
X150778463Y-104516794D01*
X150857815Y-104613485D01*
X150954506Y-104692837D01*
X151064820Y-104751802D01*
X151184518Y-104788112D01*
X151309000Y-104800372D01*
X151873250Y-104797300D01*
X152032000Y-104638550D01*
X152032000Y-103439300D01*
X152286000Y-103439300D01*
X152286000Y-104638550D01*
X152444750Y-104797300D01*
X153009000Y-104800372D01*
X153133482Y-104788112D01*
X153253180Y-104751802D01*
X153363494Y-104692837D01*
X153460185Y-104613485D01*
X153539537Y-104516794D01*
X153598502Y-104406480D01*
X153622966Y-104325834D01*
X153698731Y-104409888D01*
X153932080Y-104583941D01*
X154194901Y-104709125D01*
X154342110Y-104753776D01*
X154572000Y-104632455D01*
X154572000Y-103439300D01*
X154826000Y-103439300D01*
X154826000Y-104632455D01*
X155055890Y-104753776D01*
X155203099Y-104709125D01*
X155465920Y-104583941D01*
X155699269Y-104409888D01*
X155894178Y-104193655D01*
X155969000Y-104068045D01*
X156043822Y-104193655D01*
X156238731Y-104409888D01*
X156472080Y-104583941D01*
X156734901Y-104709125D01*
X156882110Y-104753776D01*
X157112000Y-104632455D01*
X157112000Y-103439300D01*
X157366000Y-103439300D01*
X157366000Y-104632455D01*
X157595890Y-104753776D01*
X157743099Y-104709125D01*
X158005920Y-104583941D01*
X158239269Y-104409888D01*
X158434178Y-104193655D01*
X158583157Y-103943552D01*
X158680481Y-103669191D01*
X158559814Y-103439300D01*
X157366000Y-103439300D01*
X157112000Y-103439300D01*
X154826000Y-103439300D01*
X154572000Y-103439300D01*
X152286000Y-103439300D01*
X152032000Y-103439300D01*
X150832750Y-103439300D01*
X150674000Y-103598050D01*
X150670928Y-104162300D01*
X148452855Y-104162300D01*
X148583157Y-103943552D01*
X148680481Y-103669191D01*
X148559814Y-103439300D01*
X147366000Y-103439300D01*
X147112000Y-103439300D01*
X144826000Y-103439300D01*
X144572000Y-103439300D01*
X142286000Y-103439300D01*
X142032000Y-103439300D01*
X140832750Y-103439300D01*
X140674000Y-103598050D01*
X140670928Y-104162300D01*
X138452855Y-104162300D01*
X138583157Y-103943552D01*
X138680481Y-103669191D01*
X138559814Y-103439300D01*
X137366000Y-103439300D01*
X137112000Y-103439300D01*
X134826000Y-103439300D01*
X134572000Y-103439300D01*
X132286000Y-103439300D01*
X132032000Y-103439300D01*
X130832750Y-103439300D01*
X130674000Y-103598050D01*
X130670928Y-104162300D01*
X130250000Y-104162300D01*
X130250000Y-102462300D01*
X130670928Y-102462300D01*
X130674000Y-103026550D01*
X130832750Y-103185300D01*
X132032000Y-103185300D01*
X132032000Y-103165300D01*
X132286000Y-103165300D01*
X132286000Y-103185300D01*
X134572000Y-103185300D01*
X134572000Y-103165300D01*
X134826000Y-103165300D01*
X134826000Y-103185300D01*
X137112000Y-103185300D01*
X137112000Y-103165300D01*
X137366000Y-103165300D01*
X137366000Y-103185300D01*
X138559814Y-103185300D01*
X138680481Y-102955409D01*
X138583157Y-102681048D01*
X138452856Y-102462300D01*
X140670928Y-102462300D01*
X140674000Y-103026550D01*
X140832750Y-103185300D01*
X142032000Y-103185300D01*
X142032000Y-103165300D01*
X142286000Y-103165300D01*
X142286000Y-103185300D01*
X144572000Y-103185300D01*
X144572000Y-103165300D01*
X144826000Y-103165300D01*
X144826000Y-103185300D01*
X147112000Y-103185300D01*
X147112000Y-103165300D01*
X147366000Y-103165300D01*
X147366000Y-103185300D01*
X148559814Y-103185300D01*
X148680481Y-102955409D01*
X148583157Y-102681048D01*
X148452856Y-102462300D01*
X150670928Y-102462300D01*
X150674000Y-103026550D01*
X150832750Y-103185300D01*
X152032000Y-103185300D01*
X152032000Y-103165300D01*
X152286000Y-103165300D01*
X152286000Y-103185300D01*
X154572000Y-103185300D01*
X154572000Y-103165300D01*
X154826000Y-103165300D01*
X154826000Y-103185300D01*
X157112000Y-103185300D01*
X157112000Y-103165300D01*
X157366000Y-103165300D01*
X157366000Y-103185300D01*
X158559814Y-103185300D01*
X158680481Y-102955409D01*
X158583157Y-102681048D01*
X158434178Y-102430945D01*
X158239269Y-102214712D01*
X158009594Y-102043400D01*
X158185632Y-101925775D01*
X158392475Y-101718932D01*
X158554990Y-101475711D01*
X158666932Y-101205458D01*
X158724000Y-100918560D01*
X158724000Y-100626040D01*
X158666932Y-100339142D01*
X158554990Y-100068889D01*
X158392475Y-99825668D01*
X158185632Y-99618825D01*
X157942411Y-99456310D01*
X157672158Y-99344368D01*
X157385260Y-99287300D01*
X157092740Y-99287300D01*
X156805842Y-99344368D01*
X156535589Y-99456310D01*
X156292368Y-99618825D01*
X156085525Y-99825668D01*
X155969000Y-100000060D01*
X155852475Y-99825668D01*
X155645632Y-99618825D01*
X155402411Y-99456310D01*
X155132158Y-99344368D01*
X154845260Y-99287300D01*
X154552740Y-99287300D01*
X154265842Y-99344368D01*
X153995589Y-99456310D01*
X153752368Y-99618825D01*
X153545525Y-99825668D01*
X153429000Y-100000060D01*
X153312475Y-99825668D01*
X153105632Y-99618825D01*
X152862411Y-99456310D01*
X152592158Y-99344368D01*
X152305260Y-99287300D01*
X152012740Y-99287300D01*
X151725842Y-99344368D01*
X151455589Y-99456310D01*
X151212368Y-99618825D01*
X151005525Y-99825668D01*
X150843010Y-100068889D01*
X150731068Y-100339142D01*
X150674000Y-100626040D01*
X150674000Y-100918560D01*
X150731068Y-101205458D01*
X150843010Y-101475711D01*
X151005525Y-101718932D01*
X151137380Y-101850787D01*
X151064820Y-101872798D01*
X150954506Y-101931763D01*
X150857815Y-102011115D01*
X150778463Y-102107806D01*
X150719498Y-102218120D01*
X150683188Y-102337818D01*
X150670928Y-102462300D01*
X148452856Y-102462300D01*
X148434178Y-102430945D01*
X148239269Y-102214712D01*
X148009594Y-102043400D01*
X148185632Y-101925775D01*
X148392475Y-101718932D01*
X148554990Y-101475711D01*
X148666932Y-101205458D01*
X148724000Y-100918560D01*
X148724000Y-100626040D01*
X148666932Y-100339142D01*
X148554990Y-100068889D01*
X148392475Y-99825668D01*
X148185632Y-99618825D01*
X147942411Y-99456310D01*
X147672158Y-99344368D01*
X147385260Y-99287300D01*
X147092740Y-99287300D01*
X146805842Y-99344368D01*
X146535589Y-99456310D01*
X146292368Y-99618825D01*
X146085525Y-99825668D01*
X145969000Y-100000060D01*
X145852475Y-99825668D01*
X145645632Y-99618825D01*
X145402411Y-99456310D01*
X145132158Y-99344368D01*
X144845260Y-99287300D01*
X144552740Y-99287300D01*
X144265842Y-99344368D01*
X143995589Y-99456310D01*
X143752368Y-99618825D01*
X143545525Y-99825668D01*
X143429000Y-100000060D01*
X143312475Y-99825668D01*
X143105632Y-99618825D01*
X142862411Y-99456310D01*
X142592158Y-99344368D01*
X142305260Y-99287300D01*
X142012740Y-99287300D01*
X141725842Y-99344368D01*
X141455589Y-99456310D01*
X141212368Y-99618825D01*
X141005525Y-99825668D01*
X140843010Y-100068889D01*
X140731068Y-100339142D01*
X140674000Y-100626040D01*
X140674000Y-100918560D01*
X140731068Y-101205458D01*
X140843010Y-101475711D01*
X141005525Y-101718932D01*
X141137380Y-101850787D01*
X141064820Y-101872798D01*
X140954506Y-101931763D01*
X140857815Y-102011115D01*
X140778463Y-102107806D01*
X140719498Y-102218120D01*
X140683188Y-102337818D01*
X140670928Y-102462300D01*
X138452856Y-102462300D01*
X138434178Y-102430945D01*
X138239269Y-102214712D01*
X138009594Y-102043400D01*
X138185632Y-101925775D01*
X138392475Y-101718932D01*
X138554990Y-101475711D01*
X138666932Y-101205458D01*
X138724000Y-100918560D01*
X138724000Y-100626040D01*
X138666932Y-100339142D01*
X138554990Y-100068889D01*
X138392475Y-99825668D01*
X138185632Y-99618825D01*
X137942411Y-99456310D01*
X137672158Y-99344368D01*
X137385260Y-99287300D01*
X137092740Y-99287300D01*
X136805842Y-99344368D01*
X136535589Y-99456310D01*
X136292368Y-99618825D01*
X136085525Y-99825668D01*
X135969000Y-100000060D01*
X135852475Y-99825668D01*
X135645632Y-99618825D01*
X135402411Y-99456310D01*
X135132158Y-99344368D01*
X134845260Y-99287300D01*
X134552740Y-99287300D01*
X134265842Y-99344368D01*
X133995589Y-99456310D01*
X133752368Y-99618825D01*
X133545525Y-99825668D01*
X133429000Y-100000060D01*
X133312475Y-99825668D01*
X133105632Y-99618825D01*
X132862411Y-99456310D01*
X132592158Y-99344368D01*
X132305260Y-99287300D01*
X132012740Y-99287300D01*
X131725842Y-99344368D01*
X131455589Y-99456310D01*
X131212368Y-99618825D01*
X131005525Y-99825668D01*
X130843010Y-100068889D01*
X130731068Y-100339142D01*
X130674000Y-100626040D01*
X130674000Y-100918560D01*
X130731068Y-101205458D01*
X130843010Y-101475711D01*
X131005525Y-101718932D01*
X131137380Y-101850787D01*
X131064820Y-101872798D01*
X130954506Y-101931763D01*
X130857815Y-102011115D01*
X130778463Y-102107806D01*
X130719498Y-102218120D01*
X130683188Y-102337818D01*
X130670928Y-102462300D01*
X130250000Y-102462300D01*
X130250000Y-96216818D01*
X137191778Y-96216818D01*
X137196562Y-96270844D01*
X137200002Y-96324959D01*
X137202031Y-96332619D01*
X137202730Y-96340512D01*
X137217909Y-96392556D01*
X137231800Y-96444996D01*
X137235280Y-96452119D01*
X137237498Y-96459724D01*
X137262502Y-96507839D01*
X137286310Y-96556571D01*
X137291105Y-96562880D01*
X137294759Y-96569911D01*
X137328639Y-96612262D01*
X137361453Y-96655434D01*
X137367381Y-96660690D01*
X137372332Y-96666879D01*
X137413796Y-96701845D01*
X137454367Y-96737818D01*
X137461203Y-96741823D01*
X137467262Y-96746932D01*
X137514727Y-96773178D01*
X137526545Y-96780101D01*
X137528571Y-96781575D01*
X137530904Y-96782655D01*
X137561513Y-96800586D01*
X137569606Y-96804251D01*
X137592466Y-96814411D01*
X137617409Y-96822690D01*
X137641265Y-96833731D01*
X137649674Y-96836599D01*
X137672534Y-96844219D01*
X137676881Y-96845209D01*
X137655275Y-96892323D01*
X137632020Y-96939160D01*
X137629434Y-96948676D01*
X137625321Y-96957644D01*
X137613165Y-97008532D01*
X137599450Y-97058991D01*
X137598761Y-97068827D01*
X137596469Y-97078423D01*
X137594429Y-97130689D01*
X137590776Y-97182865D01*
X137592012Y-97192653D01*
X137591627Y-97202508D01*
X137599776Y-97254165D01*
X137606328Y-97306066D01*
X137609441Y-97315427D01*
X137610978Y-97325169D01*
X137629008Y-97374266D01*
X137645514Y-97423900D01*
X137650385Y-97432476D01*
X137653785Y-97441735D01*
X137657703Y-97449709D01*
X137665323Y-97464949D01*
X137665604Y-97465396D01*
X137665794Y-97465889D01*
X137698713Y-97518043D01*
X137701494Y-97522465D01*
X137706840Y-97531878D01*
X137708954Y-97534328D01*
X137731430Y-97570067D01*
X137731791Y-97570450D01*
X137732075Y-97570899D01*
X137737577Y-97577875D01*
X137768057Y-97615975D01*
X137784824Y-97633181D01*
X137799418Y-97652282D01*
X137805521Y-97658739D01*
X137863941Y-97719699D01*
X137865714Y-97721219D01*
X137867171Y-97723045D01*
X137873409Y-97729371D01*
X137962309Y-97818271D01*
X137976605Y-97830014D01*
X137977549Y-97830971D01*
X138046129Y-97899551D01*
X138059093Y-97910200D01*
X138070408Y-97922585D01*
X138077053Y-97928482D01*
X138129797Y-97974633D01*
X138162469Y-98005263D01*
X138191013Y-98027207D01*
X138194356Y-98030796D01*
X138198749Y-98033969D01*
X138220622Y-98053620D01*
X138227816Y-98058834D01*
X138245596Y-98071534D01*
X138257860Y-98078597D01*
X138260917Y-98080947D01*
X138268238Y-98084574D01*
X138271132Y-98086240D01*
X138295028Y-98103497D01*
X138324814Y-98117156D01*
X138353204Y-98133506D01*
X138381112Y-98142973D01*
X138407904Y-98155259D01*
X138439775Y-98162872D01*
X138470801Y-98173397D01*
X138500013Y-98177262D01*
X138528683Y-98184111D01*
X138561430Y-98185389D01*
X138593906Y-98189686D01*
X138623317Y-98187804D01*
X138652768Y-98188953D01*
X138685127Y-98183848D01*
X138717831Y-98181755D01*
X138746323Y-98174194D01*
X138775429Y-98169602D01*
X138806183Y-98158308D01*
X138837855Y-98149903D01*
X138864331Y-98136954D01*
X138891995Y-98126795D01*
X138899969Y-98122877D01*
X138920288Y-98112717D01*
X138942677Y-98098637D01*
X138949406Y-98095346D01*
X138949682Y-98095136D01*
X138967959Y-98086271D01*
X138975504Y-98081579D01*
X139023763Y-98051099D01*
X139024211Y-98050750D01*
X139024729Y-98050489D01*
X139032198Y-98045679D01*
X139098239Y-98002498D01*
X139098829Y-98002024D01*
X139099501Y-98001671D01*
X139106891Y-97996740D01*
X139109885Y-97994712D01*
X139123097Y-97997354D01*
X139143442Y-97999388D01*
X139163344Y-98004069D01*
X139205095Y-98005552D01*
X139246659Y-98009708D01*
X139267011Y-98007752D01*
X139287445Y-98008478D01*
X139328687Y-98001824D01*
X139370268Y-97997828D01*
X139389850Y-97991957D01*
X139410037Y-97988700D01*
X139449207Y-97974160D01*
X139489214Y-97962165D01*
X139507282Y-97952603D01*
X139526454Y-97945486D01*
X139562049Y-97923618D01*
X139598969Y-97904078D01*
X139614839Y-97891185D01*
X139632259Y-97880483D01*
X139662924Y-97852121D01*
X139695351Y-97825778D01*
X139708416Y-97810046D01*
X139723424Y-97796166D01*
X139747994Y-97762391D01*
X139774688Y-97730250D01*
X139784448Y-97712281D01*
X139796475Y-97695749D01*
X139805699Y-97675818D01*
X139807599Y-97673051D01*
X139811835Y-97665241D01*
X139828638Y-97633736D01*
X139854716Y-97679711D01*
X139884521Y-97732742D01*
X139885338Y-97733697D01*
X139885955Y-97734785D01*
X139925618Y-97780796D01*
X139965230Y-97827115D01*
X139966215Y-97827892D01*
X139967034Y-97828842D01*
X140015040Y-97866399D01*
X140062734Y-97904014D01*
X140063848Y-97904583D01*
X140064837Y-97905357D01*
X140119201Y-97932863D01*
X140173316Y-97960510D01*
X140174521Y-97960852D01*
X140175641Y-97961419D01*
X140234276Y-97977832D01*
X140261903Y-97985682D01*
X140274311Y-97989945D01*
X140279300Y-97990625D01*
X140292765Y-97994451D01*
X140295102Y-97994857D01*
X140295222Y-97994891D01*
X140295355Y-97994901D01*
X140301518Y-97995973D01*
X140316758Y-97998513D01*
X140357201Y-98001243D01*
X140397352Y-98006716D01*
X140419004Y-98005416D01*
X140440653Y-98006877D01*
X140480852Y-98001701D01*
X140521306Y-97999271D01*
X140542296Y-97993789D01*
X140545787Y-97993339D01*
X140611981Y-98037469D01*
X140615003Y-98039082D01*
X140617678Y-98041223D01*
X140625156Y-98046019D01*
X140673416Y-98076499D01*
X140697806Y-98088753D01*
X140720713Y-98103609D01*
X140728631Y-98107637D01*
X140754031Y-98120337D01*
X140770563Y-98126671D01*
X140774289Y-98128857D01*
X140775759Y-98129369D01*
X140787927Y-98136058D01*
X140829382Y-98149208D01*
X140869988Y-98164767D01*
X140884727Y-98167304D01*
X140891564Y-98169684D01*
X140895807Y-98170280D01*
X140906292Y-98173606D01*
X140949511Y-98178454D01*
X140992368Y-98185830D01*
X141004382Y-98185529D01*
X141014535Y-98186955D01*
X141021715Y-98186553D01*
X141029696Y-98187448D01*
X141038580Y-98187510D01*
X141041120Y-98187510D01*
X141080864Y-98183613D01*
X141116506Y-98182720D01*
X141125289Y-98180751D01*
X141138520Y-98180010D01*
X141151433Y-98176693D01*
X141164705Y-98175392D01*
X141209416Y-98161893D01*
X141237678Y-98155558D01*
X141243175Y-98153129D01*
X141258793Y-98149118D01*
X141270818Y-98143355D01*
X141283584Y-98139501D01*
X141326456Y-98116706D01*
X141329029Y-98115806D01*
X141332214Y-98113932D01*
X141335919Y-98112156D01*
X141351265Y-98105377D01*
X141353855Y-98103561D01*
X141370776Y-98095452D01*
X141378342Y-98090796D01*
X141398662Y-98078096D01*
X141416569Y-98064303D01*
X141436058Y-98052837D01*
X141443202Y-98047556D01*
X141483842Y-98017076D01*
X141508666Y-97994353D01*
X141535421Y-97973951D01*
X141541884Y-97967855D01*
X141600304Y-97911976D01*
X141602024Y-97909974D01*
X141604085Y-97908329D01*
X141610411Y-97902091D01*
X141691691Y-97820811D01*
X141704391Y-97808110D01*
X141705244Y-97807072D01*
X141706284Y-97806210D01*
X141712495Y-97799858D01*
X141781075Y-97728738D01*
X141781156Y-97728636D01*
X141782855Y-97726884D01*
X141838735Y-97668464D01*
X141838815Y-97668362D01*
X141843123Y-97663831D01*
X141881223Y-97623191D01*
X141903167Y-97594647D01*
X141906756Y-97591304D01*
X141909929Y-97586911D01*
X141929580Y-97565038D01*
X141934794Y-97557844D01*
X141947494Y-97540064D01*
X141954557Y-97527800D01*
X141956907Y-97524743D01*
X141960534Y-97517422D01*
X141962200Y-97514528D01*
X141979457Y-97490632D01*
X141993116Y-97460846D01*
X142009466Y-97432456D01*
X142018933Y-97404548D01*
X142031219Y-97377756D01*
X142038832Y-97345885D01*
X142049357Y-97314859D01*
X142053222Y-97285647D01*
X142060071Y-97256977D01*
X142061349Y-97224230D01*
X142065646Y-97191754D01*
X142063764Y-97162343D01*
X142064913Y-97132892D01*
X142059808Y-97100533D01*
X142057715Y-97067829D01*
X142050154Y-97039337D01*
X142045562Y-97010231D01*
X142034268Y-96979477D01*
X142025863Y-96947805D01*
X142012914Y-96921329D01*
X142002755Y-96893665D01*
X141998837Y-96885691D01*
X141986137Y-96860291D01*
X141978494Y-96848138D01*
X141988614Y-96845061D01*
X142044490Y-96828827D01*
X142048005Y-96827005D01*
X142051791Y-96825854D01*
X142103088Y-96798453D01*
X142154737Y-96771681D01*
X142157830Y-96769212D01*
X142161323Y-96767346D01*
X142206344Y-96730484D01*
X142251785Y-96694209D01*
X142257350Y-96688721D01*
X142257403Y-96688678D01*
X142257442Y-96688631D01*
X142258111Y-96687971D01*
X142263191Y-96682891D01*
X142303886Y-96633348D01*
X142342002Y-96586947D01*
X142342007Y-96586938D01*
X142342010Y-96586934D01*
X142370126Y-96534499D01*
X142400685Y-96477510D01*
X142404042Y-96469285D01*
X142409122Y-96456585D01*
X142424121Y-96404962D01*
X142440471Y-96353762D01*
X142442274Y-96345063D01*
X142447354Y-96319663D01*
X142453148Y-96261713D01*
X142459648Y-96203764D01*
X142459701Y-96196171D01*
X142459708Y-96196101D01*
X142459702Y-96196038D01*
X142459710Y-96194880D01*
X142459710Y-96157227D01*
X142461897Y-96091618D01*
X142461499Y-96085447D01*
X142462188Y-96079304D01*
X142462250Y-96070420D01*
X142462250Y-95948500D01*
X142461943Y-95945369D01*
X142462219Y-95942238D01*
X142462070Y-95933355D01*
X142459710Y-95834230D01*
X142459710Y-95758000D01*
X142458663Y-95747318D01*
X142459350Y-95736612D01*
X142458990Y-95727735D01*
X142456450Y-95674396D01*
X142449366Y-95625993D01*
X142449368Y-95625559D01*
X142449094Y-95624137D01*
X142448012Y-95616745D01*
X142440267Y-95558975D01*
X142438478Y-95551602D01*
X142438467Y-95551527D01*
X142438444Y-95551463D01*
X142438172Y-95550341D01*
X142433093Y-95530022D01*
X142428479Y-95517090D01*
X142425885Y-95503621D01*
X142407652Y-95458719D01*
X142391363Y-95413066D01*
X142384331Y-95401286D01*
X142379166Y-95388567D01*
X142352549Y-95348047D01*
X142327711Y-95306441D01*
X142318523Y-95296250D01*
X142310988Y-95284779D01*
X142277011Y-95250205D01*
X142244561Y-95214212D01*
X142233568Y-95205999D01*
X142223948Y-95196210D01*
X142183910Y-95168899D01*
X142145081Y-95139889D01*
X142132700Y-95133967D01*
X142121364Y-95126234D01*
X142076787Y-95107221D01*
X142033059Y-95086304D01*
X142019763Y-95082899D01*
X142007142Y-95077516D01*
X141998650Y-95074904D01*
X141977387Y-95068525D01*
X141984649Y-95057327D01*
X141988677Y-95049409D01*
X141998837Y-95029089D01*
X142005538Y-95011601D01*
X142014558Y-94995193D01*
X142024392Y-94964191D01*
X142031615Y-94948361D01*
X142034604Y-94935741D01*
X142043267Y-94913132D01*
X142046443Y-94894681D01*
X142052106Y-94876828D01*
X142055297Y-94848378D01*
X142060236Y-94827527D01*
X142060850Y-94810970D01*
X142064330Y-94790752D01*
X142063861Y-94772030D01*
X142065948Y-94753424D01*
X142066010Y-94744540D01*
X142066010Y-94742000D01*
X142064123Y-94722757D01*
X142064840Y-94703434D01*
X142061641Y-94683405D01*
X142061220Y-94666614D01*
X142056595Y-94645982D01*
X142053892Y-94618415D01*
X142048302Y-94599901D01*
X142045253Y-94580810D01*
X142036944Y-94558318D01*
X142034058Y-94545442D01*
X142027117Y-94529732D01*
X142018001Y-94499536D01*
X142008923Y-94482462D01*
X142002223Y-94464326D01*
X141987851Y-94440849D01*
X141983877Y-94431855D01*
X141976168Y-94420859D01*
X141959703Y-94389894D01*
X141947482Y-94374910D01*
X141937386Y-94358418D01*
X141931981Y-94351368D01*
X141914201Y-94328508D01*
X141902872Y-94316559D01*
X141893370Y-94303106D01*
X141887514Y-94296425D01*
X141846874Y-94250705D01*
X141841361Y-94245606D01*
X141836802Y-94239639D01*
X141830700Y-94233182D01*
X141772279Y-94172221D01*
X141770506Y-94170701D01*
X141769049Y-94168875D01*
X141762811Y-94162549D01*
X141691691Y-94091429D01*
X141680648Y-94082358D01*
X141671094Y-94071735D01*
X141664495Y-94065786D01*
X141655612Y-94057890D01*
X141592631Y-93994909D01*
X141590055Y-93992793D01*
X141587917Y-93990245D01*
X141581527Y-93984073D01*
X141528187Y-93933273D01*
X141496407Y-93908442D01*
X141466398Y-93881480D01*
X141459205Y-93876266D01*
X141423644Y-93850866D01*
X141396381Y-93835165D01*
X141394378Y-93833508D01*
X141382954Y-93827331D01*
X141346287Y-93803551D01*
X141338369Y-93799523D01*
X141323129Y-93791903D01*
X141317547Y-93789764D01*
X141316036Y-93788894D01*
X141309407Y-93786645D01*
X141303573Y-93784410D01*
X141285145Y-93774446D01*
X141248092Y-93762976D01*
X141246096Y-93762061D01*
X141243834Y-93761521D01*
X141207171Y-93747473D01*
X141186533Y-93743921D01*
X141166520Y-93737726D01*
X141126711Y-93733542D01*
X141125317Y-93733209D01*
X141123996Y-93733157D01*
X141084792Y-93726410D01*
X141063847Y-93726935D01*
X141043022Y-93724746D01*
X141002632Y-93728422D01*
X141001232Y-93728367D01*
X141000204Y-93728529D01*
X140960653Y-93729520D01*
X140940213Y-93734102D01*
X140919355Y-93736000D01*
X140880662Y-93747388D01*
X140878571Y-93747718D01*
X140877161Y-93748236D01*
X140839482Y-93756682D01*
X140820318Y-93765149D01*
X140800229Y-93771061D01*
X140765341Y-93789300D01*
X140762005Y-93790525D01*
X140754234Y-93794343D01*
X140725895Y-93806863D01*
X140718506Y-93812044D01*
X140708824Y-93782471D01*
X140694256Y-93732622D01*
X140689527Y-93723533D01*
X140686340Y-93713800D01*
X140660909Y-93668536D01*
X140636936Y-93622464D01*
X140630532Y-93614467D01*
X140625515Y-93605538D01*
X140591783Y-93566083D01*
X140559312Y-93525538D01*
X140551474Y-93518935D01*
X140544821Y-93511154D01*
X140504055Y-93478992D01*
X140464338Y-93445536D01*
X140455375Y-93440586D01*
X140447330Y-93434239D01*
X140401085Y-93410604D01*
X140355636Y-93385504D01*
X140345877Y-93382388D01*
X140336756Y-93377726D01*
X140286809Y-93363525D01*
X140272388Y-93358920D01*
X140255976Y-93352747D01*
X140249905Y-93351741D01*
X140237343Y-93347729D01*
X140228643Y-93345926D01*
X140215943Y-93343386D01*
X140174538Y-93339246D01*
X140133470Y-93332438D01*
X140124602Y-93331909D01*
X140076342Y-93329369D01*
X140075409Y-93329411D01*
X140074485Y-93329274D01*
X140065609Y-93328895D01*
X139994489Y-93326355D01*
X139987560Y-93326785D01*
X139980664Y-93326012D01*
X139971780Y-93325950D01*
X139796520Y-93325950D01*
X139791611Y-93326431D01*
X139786696Y-93326026D01*
X139777814Y-93326225D01*
X139691454Y-93328765D01*
X139691332Y-93328781D01*
X139688962Y-93328843D01*
X139612763Y-93331383D01*
X139612665Y-93331396D01*
X139612572Y-93331390D01*
X139603695Y-93331750D01*
X139550356Y-93334290D01*
X139500939Y-93341523D01*
X139451280Y-93346855D01*
X139442594Y-93348721D01*
X139419734Y-93353801D01*
X139372843Y-93369154D01*
X139359184Y-93372143D01*
X139351935Y-93375302D01*
X139321470Y-93384153D01*
X139311934Y-93389096D01*
X139301720Y-93392440D01*
X139264114Y-93413568D01*
X139245344Y-93421747D01*
X139234702Y-93429129D01*
X139211222Y-93441299D01*
X139202825Y-93448002D01*
X139193458Y-93453265D01*
X139165754Y-93476951D01*
X139143307Y-93492520D01*
X139130576Y-93505678D01*
X139114175Y-93518771D01*
X139107849Y-93525009D01*
X139105309Y-93527549D01*
X139102331Y-93531174D01*
X139099074Y-93533959D01*
X139080789Y-93557135D01*
X139056960Y-93581764D01*
X139042920Y-93603504D01*
X139026490Y-93623506D01*
X139022382Y-93631167D01*
X139022159Y-93631450D01*
X139020705Y-93634295D01*
X139009314Y-93655539D01*
X138989591Y-93686078D01*
X138980039Y-93710137D01*
X138967809Y-93732945D01*
X138957182Y-93767706D01*
X138943767Y-93801492D01*
X138941370Y-93810047D01*
X138940515Y-93813181D01*
X138925667Y-93803551D01*
X138917748Y-93799523D01*
X138897429Y-93789363D01*
X138896393Y-93788966D01*
X138895454Y-93788380D01*
X138879720Y-93782414D01*
X138876588Y-93780742D01*
X138870182Y-93778797D01*
X138838247Y-93766687D01*
X138781471Y-93744933D01*
X138780387Y-93744746D01*
X138779344Y-93744351D01*
X138718897Y-93734163D01*
X138659092Y-93723870D01*
X138657989Y-93723898D01*
X138656893Y-93723713D01*
X138595708Y-93725458D01*
X138534953Y-93726980D01*
X138533877Y-93727221D01*
X138532765Y-93727253D01*
X138473369Y-93740785D01*
X138413782Y-93754142D01*
X138412762Y-93754592D01*
X138411689Y-93754837D01*
X138356139Y-93779608D01*
X138300195Y-93804323D01*
X138299289Y-93804958D01*
X138298276Y-93805410D01*
X138248495Y-93840570D01*
X138198517Y-93875611D01*
X138197749Y-93876413D01*
X138196847Y-93877050D01*
X138190165Y-93882906D01*
X138121585Y-93943866D01*
X138111882Y-93954356D01*
X138100715Y-93963271D01*
X138094389Y-93969509D01*
X137911509Y-94152389D01*
X137910202Y-94153981D01*
X137908620Y-94155297D01*
X137902423Y-94161663D01*
X137845975Y-94220463D01*
X137809909Y-94256529D01*
X137781125Y-94291572D01*
X137750521Y-94325055D01*
X137745246Y-94332204D01*
X137724925Y-94360144D01*
X137722585Y-94364129D01*
X137719566Y-94367626D01*
X137692063Y-94416042D01*
X137689741Y-94419106D01*
X137687053Y-94424626D01*
X137662037Y-94467219D01*
X137660517Y-94471578D01*
X137658232Y-94475600D01*
X137654676Y-94483741D01*
X137647056Y-94501521D01*
X137642286Y-94516558D01*
X137635375Y-94530751D01*
X137623544Y-94575646D01*
X137609511Y-94619887D01*
X137607752Y-94635571D01*
X137603731Y-94650830D01*
X137600846Y-94697157D01*
X137595672Y-94743292D01*
X137596993Y-94759018D01*
X137596012Y-94774768D01*
X137601415Y-94815067D01*
X137601469Y-94827223D01*
X137603609Y-94837785D01*
X137606066Y-94867034D01*
X137610416Y-94882204D01*
X137612513Y-94897844D01*
X137614607Y-94906478D01*
X137617148Y-94916638D01*
X137622793Y-94932461D01*
X137626130Y-94948927D01*
X137637058Y-94975110D01*
X137640296Y-94986401D01*
X137645995Y-94997490D01*
X137658877Y-95033594D01*
X137667489Y-95048021D01*
X137673960Y-95063524D01*
X137677300Y-95069635D01*
X137652451Y-95077370D01*
X137600325Y-95092179D01*
X137593229Y-95095804D01*
X137585621Y-95098172D01*
X137538001Y-95124016D01*
X137489740Y-95148669D01*
X137483482Y-95153604D01*
X137476480Y-95157404D01*
X137434792Y-95192001D01*
X137392233Y-95225563D01*
X137387052Y-95231621D01*
X137380923Y-95236707D01*
X137346751Y-95278739D01*
X137311519Y-95319931D01*
X137307615Y-95326877D01*
X137302588Y-95333060D01*
X137277209Y-95380971D01*
X137250673Y-95428181D01*
X137248195Y-95435746D01*
X137244461Y-95442794D01*
X137228866Y-95494738D01*
X137212010Y-95546187D01*
X137211048Y-95554091D01*
X137208755Y-95561728D01*
X137203550Y-95615680D01*
X137197004Y-95669455D01*
X137196858Y-95678338D01*
X137191778Y-96216818D01*
X130250000Y-96216818D01*
X130250000Y-85636100D01*
X131407870Y-85636100D01*
X131449092Y-86054633D01*
X131571174Y-86457082D01*
X131769423Y-86827981D01*
X132036223Y-87153077D01*
X132361319Y-87419877D01*
X132732218Y-87618126D01*
X132993000Y-87697234D01*
X132993000Y-92649782D01*
X133023892Y-92963433D01*
X133145975Y-93365882D01*
X133344224Y-93736781D01*
X133611024Y-94061877D01*
X133936120Y-94328677D01*
X134307019Y-94526926D01*
X134709468Y-94649008D01*
X135128000Y-94690230D01*
X135546533Y-94649008D01*
X135948982Y-94526926D01*
X136319881Y-94328677D01*
X136644977Y-94061877D01*
X136911777Y-93736781D01*
X137110026Y-93365882D01*
X137232108Y-92963432D01*
X137263000Y-92649781D01*
X137263000Y-87708791D01*
X137561882Y-87618126D01*
X137932781Y-87419877D01*
X138257877Y-87153077D01*
X138524677Y-86827981D01*
X138722926Y-86457082D01*
X138845008Y-86054633D01*
X138883728Y-85661500D01*
X140602670Y-85661500D01*
X140643892Y-86080033D01*
X140765974Y-86482482D01*
X140964223Y-86853381D01*
X141231023Y-87178477D01*
X141556119Y-87445277D01*
X141927018Y-87643526D01*
X142137000Y-87707224D01*
X142137000Y-92078682D01*
X142167892Y-92392333D01*
X142289975Y-92794782D01*
X142488224Y-93165681D01*
X142755024Y-93490777D01*
X143080120Y-93757577D01*
X143451019Y-93955826D01*
X143853468Y-94077908D01*
X144272000Y-94119130D01*
X144690533Y-94077908D01*
X145092982Y-93955826D01*
X145463881Y-93757577D01*
X145788977Y-93490777D01*
X146055777Y-93165681D01*
X146254026Y-92794782D01*
X146376108Y-92392332D01*
X146407000Y-92078681D01*
X146407000Y-90597314D01*
X150201400Y-90597314D01*
X150201400Y-90860286D01*
X150252704Y-91118205D01*
X150353339Y-91361159D01*
X150499438Y-91579813D01*
X150685387Y-91765762D01*
X150904041Y-91911861D01*
X151065646Y-91978800D01*
X150904041Y-92045739D01*
X150685387Y-92191838D01*
X150499438Y-92377787D01*
X150353339Y-92596441D01*
X150252704Y-92839395D01*
X150201400Y-93097314D01*
X150201400Y-93360286D01*
X150252704Y-93618205D01*
X150353339Y-93861159D01*
X150499438Y-94079813D01*
X150685387Y-94265762D01*
X150904041Y-94411861D01*
X151065646Y-94478800D01*
X150904041Y-94545739D01*
X150685387Y-94691838D01*
X150499438Y-94877787D01*
X150353339Y-95096441D01*
X150252704Y-95339395D01*
X150201400Y-95597314D01*
X150201400Y-95860286D01*
X150252704Y-96118205D01*
X150353339Y-96361159D01*
X150499438Y-96579813D01*
X150685387Y-96765762D01*
X150904041Y-96911861D01*
X151146995Y-97012496D01*
X151404914Y-97063800D01*
X151667886Y-97063800D01*
X151925805Y-97012496D01*
X152168759Y-96911861D01*
X152387413Y-96765762D01*
X152573362Y-96579813D01*
X152719461Y-96361159D01*
X152820096Y-96118205D01*
X152871400Y-95860286D01*
X152871400Y-95597314D01*
X152820096Y-95339395D01*
X152719461Y-95096441D01*
X152573362Y-94877787D01*
X152387413Y-94691838D01*
X152168759Y-94545739D01*
X152007154Y-94478800D01*
X152168759Y-94411861D01*
X152387413Y-94265762D01*
X152573362Y-94079813D01*
X152719461Y-93861159D01*
X152820096Y-93618205D01*
X152871400Y-93360286D01*
X152871400Y-93097314D01*
X152820096Y-92839395D01*
X152719461Y-92596441D01*
X152573362Y-92377787D01*
X152387413Y-92191838D01*
X152168759Y-92045739D01*
X152007154Y-91978800D01*
X152168759Y-91911861D01*
X152387413Y-91765762D01*
X152573362Y-91579813D01*
X152719461Y-91361159D01*
X152820096Y-91118205D01*
X152871400Y-90860286D01*
X152871400Y-90597314D01*
X152820096Y-90339395D01*
X152719461Y-90096441D01*
X152573362Y-89877787D01*
X152387413Y-89691838D01*
X152168759Y-89545739D01*
X151925805Y-89445104D01*
X151667886Y-89393800D01*
X151404914Y-89393800D01*
X151146995Y-89445104D01*
X150904041Y-89545739D01*
X150685387Y-89691838D01*
X150499438Y-89877787D01*
X150353339Y-90096441D01*
X150252704Y-90339395D01*
X150201400Y-90597314D01*
X146407000Y-90597314D01*
X146407000Y-87718781D01*
X146655082Y-87643526D01*
X147025981Y-87445277D01*
X147351077Y-87178477D01*
X147356802Y-87171502D01*
X147363777Y-87165777D01*
X147630577Y-86840681D01*
X147828826Y-86469782D01*
X147950908Y-86067333D01*
X147992130Y-85648800D01*
X147950908Y-85230267D01*
X147947056Y-85217567D01*
X147828826Y-84827818D01*
X147791092Y-84757223D01*
X147630577Y-84456919D01*
X147363777Y-84131823D01*
X147038681Y-83865023D01*
X146667782Y-83666774D01*
X146347747Y-83569692D01*
X146265334Y-83544692D01*
X146227799Y-83540995D01*
X145951682Y-83513800D01*
X145951675Y-83513800D01*
X145846800Y-83503471D01*
X145741926Y-83513800D01*
X145741918Y-83513800D01*
X145612973Y-83526500D01*
X142643118Y-83526500D01*
X142329467Y-83557392D01*
X141927018Y-83679474D01*
X141556119Y-83877723D01*
X141231023Y-84144523D01*
X140964223Y-84469619D01*
X140765974Y-84840518D01*
X140643892Y-85242967D01*
X140602670Y-85661500D01*
X138883728Y-85661500D01*
X138886230Y-85636100D01*
X138845008Y-85217567D01*
X138722926Y-84815118D01*
X138524677Y-84444219D01*
X138257877Y-84119123D01*
X137932781Y-83852323D01*
X137561882Y-83654074D01*
X137159433Y-83531992D01*
X136845782Y-83501100D01*
X135494832Y-83501100D01*
X135128000Y-83464970D01*
X134761167Y-83501100D01*
X133448318Y-83501100D01*
X133134667Y-83531992D01*
X132732218Y-83654074D01*
X132361319Y-83852323D01*
X132036223Y-84119123D01*
X131769423Y-84444219D01*
X131571174Y-84815118D01*
X131449092Y-85217567D01*
X131407870Y-85636100D01*
X130250000Y-85636100D01*
X130250000Y-81612800D01*
X148208528Y-81612800D01*
X148208528Y-85112800D01*
X148220788Y-85237282D01*
X148257098Y-85356980D01*
X148316063Y-85467294D01*
X148395415Y-85563985D01*
X148492106Y-85643337D01*
X148602420Y-85702302D01*
X148722118Y-85738612D01*
X148846600Y-85750872D01*
X152346600Y-85750872D01*
X152471082Y-85738612D01*
X152590780Y-85702302D01*
X152701094Y-85643337D01*
X152797785Y-85563985D01*
X152877137Y-85467294D01*
X152936102Y-85356980D01*
X152972412Y-85237282D01*
X152984672Y-85112800D01*
X154458528Y-85112800D01*
X154470788Y-85237282D01*
X154507098Y-85356980D01*
X154566063Y-85467294D01*
X154645415Y-85563985D01*
X154742106Y-85643337D01*
X154852420Y-85702302D01*
X154972118Y-85738612D01*
X155096600Y-85750872D01*
X156310850Y-85747800D01*
X156469600Y-85589050D01*
X156469600Y-83489800D01*
X156723600Y-83489800D01*
X156723600Y-85589050D01*
X156882350Y-85747800D01*
X158096600Y-85750872D01*
X158221082Y-85738612D01*
X158340780Y-85702302D01*
X158451094Y-85643337D01*
X158547785Y-85563985D01*
X158627137Y-85467294D01*
X158686102Y-85356980D01*
X158722412Y-85237282D01*
X158734672Y-85112800D01*
X158731600Y-83648550D01*
X158572850Y-83489800D01*
X156723600Y-83489800D01*
X156469600Y-83489800D01*
X154620350Y-83489800D01*
X154461600Y-83648550D01*
X154458528Y-85112800D01*
X152984672Y-85112800D01*
X152984672Y-81612800D01*
X152972412Y-81488318D01*
X152936102Y-81368620D01*
X152877137Y-81258306D01*
X152797785Y-81161615D01*
X152701094Y-81082263D01*
X152639255Y-81049209D01*
X153310850Y-81047800D01*
X153469600Y-80889050D01*
X153469600Y-78789800D01*
X153723600Y-78789800D01*
X153723600Y-80889050D01*
X153882350Y-81047800D01*
X154802967Y-81049731D01*
X154742106Y-81082263D01*
X154645415Y-81161615D01*
X154566063Y-81258306D01*
X154507098Y-81368620D01*
X154470788Y-81488318D01*
X154458528Y-81612800D01*
X154461600Y-83077050D01*
X154620350Y-83235800D01*
X156469600Y-83235800D01*
X156469600Y-81136550D01*
X156723600Y-81136550D01*
X156723600Y-83235800D01*
X158572850Y-83235800D01*
X158731600Y-83077050D01*
X158734672Y-81612800D01*
X158722412Y-81488318D01*
X158686102Y-81368620D01*
X158627137Y-81258306D01*
X158547785Y-81161615D01*
X158451094Y-81082263D01*
X158340780Y-81023298D01*
X158221082Y-80986988D01*
X158096600Y-80974728D01*
X156882350Y-80977800D01*
X156723600Y-81136550D01*
X156469600Y-81136550D01*
X156310850Y-80977800D01*
X155639795Y-80976102D01*
X155701094Y-80943337D01*
X155797785Y-80863985D01*
X155877137Y-80767294D01*
X155936102Y-80656980D01*
X155972412Y-80537282D01*
X155984672Y-80412800D01*
X155981600Y-78948550D01*
X155822850Y-78789800D01*
X153723600Y-78789800D01*
X153469600Y-78789800D01*
X151370350Y-78789800D01*
X151211600Y-78948550D01*
X151208528Y-80412800D01*
X151220788Y-80537282D01*
X151257098Y-80656980D01*
X151316063Y-80767294D01*
X151395415Y-80863985D01*
X151492106Y-80943337D01*
X151550833Y-80974728D01*
X148846600Y-80974728D01*
X148722118Y-80986988D01*
X148602420Y-81023298D01*
X148492106Y-81082263D01*
X148395415Y-81161615D01*
X148316063Y-81258306D01*
X148257098Y-81368620D01*
X148220788Y-81488318D01*
X148208528Y-81612800D01*
X130250000Y-81612800D01*
X130250000Y-76783000D01*
X151222401Y-76783000D01*
X151220788Y-76788318D01*
M02*
