M48
; DRILL file {KiCad 5.1.5-52549c5~86~ubuntu16.04.1} date Tue Nov 24 20:56:38 2020
; FORMAT={-:-/ absolute / inch / decimal}
; #@! TF.CreationDate,2020-11-24T20:56:38+05:30
; #@! TF.GenerationSoftware,Kicad,Pcbnew,5.1.5-52549c5~86~ubuntu16.04.1
FMAT,2
INCH
T1C0.0157
T2C0.0354
T3C0.0394
%
G90
G05
T1
X5.258Y-3.3715
X5.2865Y-3.3715
X5.32Y-3.3705
X5.32Y-3.4089
X5.32Y-3.4443
X5.32Y-3.4837
X5.32Y-3.523
X5.32Y-3.5821
X5.32Y-3.6435
X5.3534Y-3.3715
X5.3835Y-3.3715
X5.62Y-3.3725
X5.6477Y-3.3725
X5.68Y-3.373
X5.68Y-3.4071
X5.68Y-3.4386
X5.68Y-3.478
X5.68Y-3.5174
X5.68Y-3.5666
X5.68Y-3.621
X5.7166Y-3.3725
X5.742Y-3.372
T2
X5.966Y-3.572
X5.966Y-3.6704
X5.966Y-3.7689
X6.2022Y-3.572
X6.2022Y-3.6704
X6.2022Y-3.7689
T3
X5.5968Y-3.9674
X5.5968Y-4.0674
X5.6968Y-3.9674
X5.6968Y-4.0674
X5.7968Y-3.9674
X5.7968Y-4.0674
X5.2031Y-3.9674
X5.2031Y-4.0674
X5.3031Y-3.9674
X5.3031Y-4.0674
X5.4031Y-3.9674
X5.4031Y-4.0674
X5.9905Y-3.9674
X5.9905Y-4.0674
X6.0905Y-3.9674
X6.0905Y-4.0674
X6.1905Y-3.9674
X6.1905Y-4.0674
T3
G00X5.929Y-3.3214
M15
G01X5.929Y-3.2426
M16
G05
G00X6.0865Y-3.097
M15
G01X6.0077Y-3.097
M16
G05
G00X6.1652Y-3.3214
M15
G01X6.1652Y-3.2426
M16
G05
T0
M30
