G04 #@! TF.GenerationSoftware,KiCad,Pcbnew,5.1.5-52549c5~86~ubuntu16.04.1*
G04 #@! TF.CreationDate,2020-11-24T20:56:35+05:30*
G04 #@! TF.ProjectId,DC-DC 12V to 3.3V 5V Multi Output Voltage Conversion V1.0,44432d44-4320-4313-9256-20746f20332e,V1.0*
G04 #@! TF.SameCoordinates,Original*
G04 #@! TF.FileFunction,Legend,Bot*
G04 #@! TF.FilePolarity,Positive*
%FSLAX46Y46*%
G04 Gerber Fmt 4.6, Leading zero omitted, Abs format (unit mm)*
G04 Created by KiCad (PCBNEW 5.1.5-52549c5~86~ubuntu16.04.1) date 2020-11-24 20:56:35*
%MOMM*%
%LPD*%
G04 APERTURE LIST*
%ADD10C,0.010000*%
G04 APERTURE END LIST*
D10*
G36*
X144427846Y-78665350D02*
G01*
X144401072Y-78684693D01*
X144376219Y-78710225D01*
X144361166Y-78734441D01*
X144359876Y-78744282D01*
X144371132Y-78754013D01*
X144400746Y-78773859D01*
X144444882Y-78801579D01*
X144499707Y-78834933D01*
X144561384Y-78871681D01*
X144626080Y-78909582D01*
X144689959Y-78946395D01*
X144749187Y-78979881D01*
X144799928Y-79007798D01*
X144838348Y-79027907D01*
X144860611Y-79037966D01*
X144863810Y-79038699D01*
X144875650Y-79029668D01*
X144896516Y-79006917D01*
X144906375Y-78994928D01*
X144927694Y-78965921D01*
X144940055Y-78944675D01*
X144941300Y-78940225D01*
X144930796Y-78931552D01*
X144901860Y-78912915D01*
X144858357Y-78886516D01*
X144804154Y-78854556D01*
X144743116Y-78819237D01*
X144679108Y-78782758D01*
X144615997Y-78747323D01*
X144557648Y-78715131D01*
X144507927Y-78688385D01*
X144470699Y-78669285D01*
X144449830Y-78660033D01*
X144448662Y-78659701D01*
X144427846Y-78665350D01*
G37*
X144427846Y-78665350D02*
X144401072Y-78684693D01*
X144376219Y-78710225D01*
X144361166Y-78734441D01*
X144359876Y-78744282D01*
X144371132Y-78754013D01*
X144400746Y-78773859D01*
X144444882Y-78801579D01*
X144499707Y-78834933D01*
X144561384Y-78871681D01*
X144626080Y-78909582D01*
X144689959Y-78946395D01*
X144749187Y-78979881D01*
X144799928Y-79007798D01*
X144838348Y-79027907D01*
X144860611Y-79037966D01*
X144863810Y-79038699D01*
X144875650Y-79029668D01*
X144896516Y-79006917D01*
X144906375Y-78994928D01*
X144927694Y-78965921D01*
X144940055Y-78944675D01*
X144941300Y-78940225D01*
X144930796Y-78931552D01*
X144901860Y-78912915D01*
X144858357Y-78886516D01*
X144804154Y-78854556D01*
X144743116Y-78819237D01*
X144679108Y-78782758D01*
X144615997Y-78747323D01*
X144557648Y-78715131D01*
X144507927Y-78688385D01*
X144470699Y-78669285D01*
X144449830Y-78660033D01*
X144448662Y-78659701D01*
X144427846Y-78665350D01*
G36*
X145235905Y-78381374D02*
G01*
X145148465Y-78383841D01*
X145081022Y-78386811D01*
X145028175Y-78390901D01*
X144984521Y-78396728D01*
X144944659Y-78404905D01*
X144903186Y-78416049D01*
X144885492Y-78421307D01*
X144815375Y-78444550D01*
X144748578Y-78470386D01*
X144689447Y-78496752D01*
X144642326Y-78521581D01*
X144611559Y-78542811D01*
X144601554Y-78556221D01*
X144609253Y-78574358D01*
X144632715Y-78594560D01*
X144638138Y-78597822D01*
X144662341Y-78611442D01*
X144704145Y-78634895D01*
X144758983Y-78665619D01*
X144822284Y-78701055D01*
X144873611Y-78729768D01*
X145069003Y-78839041D01*
X145156883Y-78793835D01*
X145266863Y-78747334D01*
X145381369Y-78719929D01*
X145506429Y-78710443D01*
X145575066Y-78712065D01*
X145717467Y-78730014D01*
X145846308Y-78768898D01*
X145963602Y-78829585D01*
X146071359Y-78912942D01*
X146096669Y-78937054D01*
X146203799Y-79060459D01*
X146293726Y-79200476D01*
X146364302Y-79353258D01*
X146408864Y-79495900D01*
X146421750Y-79543462D01*
X146434400Y-79581984D01*
X146444380Y-79604189D01*
X146445601Y-79605780D01*
X146461061Y-79616885D01*
X146494886Y-79637743D01*
X146543457Y-79666343D01*
X146603154Y-79700674D01*
X146670356Y-79738724D01*
X146741443Y-79778482D01*
X146812795Y-79817936D01*
X146880792Y-79855075D01*
X146941814Y-79887888D01*
X146992241Y-79914363D01*
X147028452Y-79932488D01*
X147046827Y-79940253D01*
X147047835Y-79940400D01*
X147058556Y-79934135D01*
X147060178Y-79911884D01*
X147057244Y-79889104D01*
X147049805Y-79855764D01*
X147036138Y-79805926D01*
X147018381Y-79747076D01*
X147003750Y-79701779D01*
X146926445Y-79502693D01*
X146831162Y-79313603D01*
X146719726Y-79136681D01*
X146593957Y-78974096D01*
X146455677Y-78828021D01*
X146306709Y-78700626D01*
X146148875Y-78594081D01*
X146015548Y-78524448D01*
X145887203Y-78471213D01*
X145762650Y-78431286D01*
X145635976Y-78403582D01*
X145501267Y-78387017D01*
X145352612Y-78380504D01*
X145235905Y-78381374D01*
G37*
X145235905Y-78381374D02*
X145148465Y-78383841D01*
X145081022Y-78386811D01*
X145028175Y-78390901D01*
X144984521Y-78396728D01*
X144944659Y-78404905D01*
X144903186Y-78416049D01*
X144885492Y-78421307D01*
X144815375Y-78444550D01*
X144748578Y-78470386D01*
X144689447Y-78496752D01*
X144642326Y-78521581D01*
X144611559Y-78542811D01*
X144601554Y-78556221D01*
X144609253Y-78574358D01*
X144632715Y-78594560D01*
X144638138Y-78597822D01*
X144662341Y-78611442D01*
X144704145Y-78634895D01*
X144758983Y-78665619D01*
X144822284Y-78701055D01*
X144873611Y-78729768D01*
X145069003Y-78839041D01*
X145156883Y-78793835D01*
X145266863Y-78747334D01*
X145381369Y-78719929D01*
X145506429Y-78710443D01*
X145575066Y-78712065D01*
X145717467Y-78730014D01*
X145846308Y-78768898D01*
X145963602Y-78829585D01*
X146071359Y-78912942D01*
X146096669Y-78937054D01*
X146203799Y-79060459D01*
X146293726Y-79200476D01*
X146364302Y-79353258D01*
X146408864Y-79495900D01*
X146421750Y-79543462D01*
X146434400Y-79581984D01*
X146444380Y-79604189D01*
X146445601Y-79605780D01*
X146461061Y-79616885D01*
X146494886Y-79637743D01*
X146543457Y-79666343D01*
X146603154Y-79700674D01*
X146670356Y-79738724D01*
X146741443Y-79778482D01*
X146812795Y-79817936D01*
X146880792Y-79855075D01*
X146941814Y-79887888D01*
X146992241Y-79914363D01*
X147028452Y-79932488D01*
X147046827Y-79940253D01*
X147047835Y-79940400D01*
X147058556Y-79934135D01*
X147060178Y-79911884D01*
X147057244Y-79889104D01*
X147049805Y-79855764D01*
X147036138Y-79805926D01*
X147018381Y-79747076D01*
X147003750Y-79701779D01*
X146926445Y-79502693D01*
X146831162Y-79313603D01*
X146719726Y-79136681D01*
X146593957Y-78974096D01*
X146455677Y-78828021D01*
X146306709Y-78700626D01*
X146148875Y-78594081D01*
X146015548Y-78524448D01*
X145887203Y-78471213D01*
X145762650Y-78431286D01*
X145635976Y-78403582D01*
X145501267Y-78387017D01*
X145352612Y-78380504D01*
X145235905Y-78381374D01*
G36*
X144228441Y-78870746D02*
G01*
X144201080Y-78897895D01*
X144167277Y-78941409D01*
X144129120Y-78997933D01*
X144088699Y-79064112D01*
X144048100Y-79136592D01*
X144009414Y-79212018D01*
X143974728Y-79287036D01*
X143957203Y-79329198D01*
X143926808Y-79413370D01*
X143897184Y-79508697D01*
X143870349Y-79607483D01*
X143848323Y-79702035D01*
X143833125Y-79784659D01*
X143828763Y-79818647D01*
X143820403Y-79900249D01*
X143876027Y-79907048D01*
X143897083Y-79908472D01*
X143941536Y-79910574D01*
X144007394Y-79913283D01*
X144092667Y-79916529D01*
X144195361Y-79920243D01*
X144313485Y-79924354D01*
X144445048Y-79928793D01*
X144588058Y-79933490D01*
X144740522Y-79938376D01*
X144900450Y-79943379D01*
X144992100Y-79946194D01*
X145155642Y-79951222D01*
X145313062Y-79956140D01*
X145462342Y-79960879D01*
X145601463Y-79965372D01*
X145728407Y-79969552D01*
X145841155Y-79973351D01*
X145937689Y-79976700D01*
X146015991Y-79979534D01*
X146074041Y-79981783D01*
X146109821Y-79983380D01*
X146119225Y-79983952D01*
X146158663Y-79985911D01*
X146178838Y-79982577D01*
X146185589Y-79972558D01*
X146185869Y-79968057D01*
X146175288Y-79953853D01*
X146143293Y-79929738D01*
X146089463Y-79895437D01*
X146013380Y-79850678D01*
X145953670Y-79816896D01*
X145721503Y-79687042D01*
X145264727Y-79673351D01*
X145157718Y-79670006D01*
X145057306Y-79666606D01*
X144966677Y-79663277D01*
X144889018Y-79660149D01*
X144827512Y-79657348D01*
X144785348Y-79655002D01*
X144766579Y-79653386D01*
X144728354Y-79641741D01*
X144704076Y-79618433D01*
X144692429Y-79580141D01*
X144692095Y-79523544D01*
X144696984Y-79477869D01*
X144707555Y-79416222D01*
X144722152Y-79352794D01*
X144737733Y-79300693D01*
X144738721Y-79297972D01*
X144754748Y-79255818D01*
X144766225Y-79222987D01*
X144771075Y-79196756D01*
X144767221Y-79174402D01*
X144752586Y-79153202D01*
X144725093Y-79130432D01*
X144682665Y-79103369D01*
X144623225Y-79069289D01*
X144544695Y-79025470D01*
X144520594Y-79011977D01*
X144446623Y-78970668D01*
X144379609Y-78933613D01*
X144322864Y-78902614D01*
X144279701Y-78879473D01*
X144253435Y-78865992D01*
X144247270Y-78863316D01*
X144228441Y-78870746D01*
G37*
X144228441Y-78870746D02*
X144201080Y-78897895D01*
X144167277Y-78941409D01*
X144129120Y-78997933D01*
X144088699Y-79064112D01*
X144048100Y-79136592D01*
X144009414Y-79212018D01*
X143974728Y-79287036D01*
X143957203Y-79329198D01*
X143926808Y-79413370D01*
X143897184Y-79508697D01*
X143870349Y-79607483D01*
X143848323Y-79702035D01*
X143833125Y-79784659D01*
X143828763Y-79818647D01*
X143820403Y-79900249D01*
X143876027Y-79907048D01*
X143897083Y-79908472D01*
X143941536Y-79910574D01*
X144007394Y-79913283D01*
X144092667Y-79916529D01*
X144195361Y-79920243D01*
X144313485Y-79924354D01*
X144445048Y-79928793D01*
X144588058Y-79933490D01*
X144740522Y-79938376D01*
X144900450Y-79943379D01*
X144992100Y-79946194D01*
X145155642Y-79951222D01*
X145313062Y-79956140D01*
X145462342Y-79960879D01*
X145601463Y-79965372D01*
X145728407Y-79969552D01*
X145841155Y-79973351D01*
X145937689Y-79976700D01*
X146015991Y-79979534D01*
X146074041Y-79981783D01*
X146109821Y-79983380D01*
X146119225Y-79983952D01*
X146158663Y-79985911D01*
X146178838Y-79982577D01*
X146185589Y-79972558D01*
X146185869Y-79968057D01*
X146175288Y-79953853D01*
X146143293Y-79929738D01*
X146089463Y-79895437D01*
X146013380Y-79850678D01*
X145953670Y-79816896D01*
X145721503Y-79687042D01*
X145264727Y-79673351D01*
X145157718Y-79670006D01*
X145057306Y-79666606D01*
X144966677Y-79663277D01*
X144889018Y-79660149D01*
X144827512Y-79657348D01*
X144785348Y-79655002D01*
X144766579Y-79653386D01*
X144728354Y-79641741D01*
X144704076Y-79618433D01*
X144692429Y-79580141D01*
X144692095Y-79523544D01*
X144696984Y-79477869D01*
X144707555Y-79416222D01*
X144722152Y-79352794D01*
X144737733Y-79300693D01*
X144738721Y-79297972D01*
X144754748Y-79255818D01*
X144766225Y-79222987D01*
X144771075Y-79196756D01*
X144767221Y-79174402D01*
X144752586Y-79153202D01*
X144725093Y-79130432D01*
X144682665Y-79103369D01*
X144623225Y-79069289D01*
X144544695Y-79025470D01*
X144520594Y-79011977D01*
X144446623Y-78970668D01*
X144379609Y-78933613D01*
X144322864Y-78902614D01*
X144279701Y-78879473D01*
X144253435Y-78865992D01*
X144247270Y-78863316D01*
X144228441Y-78870746D01*
G36*
X146104861Y-79702276D02*
G01*
X146098476Y-79708993D01*
X146098898Y-79717430D01*
X146110495Y-79727775D01*
X146141625Y-79748754D01*
X146189543Y-79778803D01*
X146251505Y-79816356D01*
X146324764Y-79859851D01*
X146406576Y-79907720D01*
X146494196Y-79958400D01*
X146584878Y-80010326D01*
X146675878Y-80061933D01*
X146764449Y-80111657D01*
X146847848Y-80157932D01*
X146923329Y-80199193D01*
X146988146Y-80233876D01*
X147039555Y-80260417D01*
X147074810Y-80277249D01*
X147090775Y-80282822D01*
X147105916Y-80277266D01*
X147112166Y-80255789D01*
X147112813Y-80235675D01*
X147108454Y-80195321D01*
X147098091Y-80161042D01*
X147096938Y-80158764D01*
X147080739Y-80143528D01*
X147042955Y-80117202D01*
X146984554Y-80080379D01*
X146906505Y-80033653D01*
X146809775Y-79977618D01*
X146706600Y-79919188D01*
X146331950Y-79708898D01*
X146213198Y-79702202D01*
X146157739Y-79699478D01*
X146123121Y-79699304D01*
X146104861Y-79702276D01*
G37*
X146104861Y-79702276D02*
X146098476Y-79708993D01*
X146098898Y-79717430D01*
X146110495Y-79727775D01*
X146141625Y-79748754D01*
X146189543Y-79778803D01*
X146251505Y-79816356D01*
X146324764Y-79859851D01*
X146406576Y-79907720D01*
X146494196Y-79958400D01*
X146584878Y-80010326D01*
X146675878Y-80061933D01*
X146764449Y-80111657D01*
X146847848Y-80157932D01*
X146923329Y-80199193D01*
X146988146Y-80233876D01*
X147039555Y-80260417D01*
X147074810Y-80277249D01*
X147090775Y-80282822D01*
X147105916Y-80277266D01*
X147112166Y-80255789D01*
X147112813Y-80235675D01*
X147108454Y-80195321D01*
X147098091Y-80161042D01*
X147096938Y-80158764D01*
X147080739Y-80143528D01*
X147042955Y-80117202D01*
X146984554Y-80080379D01*
X146906505Y-80033653D01*
X146809775Y-79977618D01*
X146706600Y-79919188D01*
X146331950Y-79708898D01*
X146213198Y-79702202D01*
X146157739Y-79699478D01*
X146123121Y-79699304D01*
X146104861Y-79702276D01*
G36*
X134702721Y-80104022D02*
G01*
X134682040Y-80129214D01*
X134671087Y-80151830D01*
X134667494Y-80180852D01*
X134668890Y-80225262D01*
X134669220Y-80231022D01*
X134674114Y-80315050D01*
X135363302Y-81191350D01*
X135045838Y-81197700D01*
X134728373Y-81204050D01*
X134690000Y-81247022D01*
X134669663Y-81271696D01*
X134658680Y-81293808D01*
X134654828Y-81322011D01*
X134655885Y-81364959D01*
X134656557Y-81377263D01*
X134661313Y-81429168D01*
X134669873Y-81463256D01*
X134684411Y-81487057D01*
X134689987Y-81493041D01*
X134718485Y-81521550D01*
X135257251Y-81525119D01*
X135796017Y-81528689D01*
X135835200Y-81493369D01*
X135870341Y-81445115D01*
X135885209Y-81383324D01*
X135880914Y-81319552D01*
X135873818Y-81301623D01*
X135856700Y-81272513D01*
X135828640Y-81230965D01*
X135788716Y-81175723D01*
X135736007Y-81105534D01*
X135669592Y-81019141D01*
X135588548Y-80915290D01*
X135523831Y-80833067D01*
X135175128Y-80391250D01*
X135786848Y-80378550D01*
X135817474Y-80342916D01*
X135835119Y-80317769D01*
X135844469Y-80288860D01*
X135847876Y-80247188D01*
X135848100Y-80225642D01*
X135846697Y-80178297D01*
X135840584Y-80146805D01*
X135826908Y-80121688D01*
X135811042Y-80102525D01*
X135773984Y-80061050D01*
X134741117Y-80061050D01*
X134702721Y-80104022D01*
G37*
X134702721Y-80104022D02*
X134682040Y-80129214D01*
X134671087Y-80151830D01*
X134667494Y-80180852D01*
X134668890Y-80225262D01*
X134669220Y-80231022D01*
X134674114Y-80315050D01*
X135363302Y-81191350D01*
X135045838Y-81197700D01*
X134728373Y-81204050D01*
X134690000Y-81247022D01*
X134669663Y-81271696D01*
X134658680Y-81293808D01*
X134654828Y-81322011D01*
X134655885Y-81364959D01*
X134656557Y-81377263D01*
X134661313Y-81429168D01*
X134669873Y-81463256D01*
X134684411Y-81487057D01*
X134689987Y-81493041D01*
X134718485Y-81521550D01*
X135257251Y-81525119D01*
X135796017Y-81528689D01*
X135835200Y-81493369D01*
X135870341Y-81445115D01*
X135885209Y-81383324D01*
X135880914Y-81319552D01*
X135873818Y-81301623D01*
X135856700Y-81272513D01*
X135828640Y-81230965D01*
X135788716Y-81175723D01*
X135736007Y-81105534D01*
X135669592Y-81019141D01*
X135588548Y-80915290D01*
X135523831Y-80833067D01*
X135175128Y-80391250D01*
X135786848Y-80378550D01*
X135817474Y-80342916D01*
X135835119Y-80317769D01*
X135844469Y-80288860D01*
X135847876Y-80247188D01*
X135848100Y-80225642D01*
X135846697Y-80178297D01*
X135840584Y-80146805D01*
X135826908Y-80121688D01*
X135811042Y-80102525D01*
X135773984Y-80061050D01*
X134741117Y-80061050D01*
X134702721Y-80104022D01*
G36*
X137416863Y-80054103D02*
G01*
X137288837Y-80084993D01*
X137194300Y-80125010D01*
X137112966Y-80178258D01*
X137048107Y-80247008D01*
X136997579Y-80334003D01*
X136966852Y-80415910D01*
X136959786Y-80440171D01*
X136954094Y-80464417D01*
X136949628Y-80491623D01*
X136946240Y-80524765D01*
X136943783Y-80566817D01*
X136942110Y-80620754D01*
X136941074Y-80689549D01*
X136940527Y-80776178D01*
X136940321Y-80883616D01*
X136940300Y-80951795D01*
X136940442Y-81080334D01*
X136941089Y-81185946D01*
X136942573Y-81271105D01*
X136945224Y-81338283D01*
X136949376Y-81389954D01*
X136955358Y-81428591D01*
X136963503Y-81456667D01*
X136974142Y-81476654D01*
X136987607Y-81491026D01*
X137004230Y-81502257D01*
X137014869Y-81508006D01*
X137068907Y-81525325D01*
X137127600Y-81527201D01*
X137184286Y-81515285D01*
X137232304Y-81491231D01*
X137264991Y-81456690D01*
X137270817Y-81444517D01*
X137273993Y-81423522D01*
X137276817Y-81379869D01*
X137279216Y-81316300D01*
X137281115Y-81235556D01*
X137282442Y-81140377D01*
X137283124Y-81033505D01*
X137283200Y-80981799D01*
X137283621Y-80851436D01*
X137284859Y-80740433D01*
X137286877Y-80650026D01*
X137289641Y-80581449D01*
X137293114Y-80535937D01*
X137296746Y-80515901D01*
X137332096Y-80454772D01*
X137385070Y-80411719D01*
X137455852Y-80386634D01*
X137530850Y-80379354D01*
X137626833Y-80390476D01*
X137714510Y-80424665D01*
X137790520Y-80480469D01*
X137809114Y-80499614D01*
X137854700Y-80550073D01*
X137854700Y-80981009D01*
X137855064Y-81092431D01*
X137856105Y-81193388D01*
X137857751Y-81281145D01*
X137859928Y-81352966D01*
X137862565Y-81406116D01*
X137865586Y-81437861D01*
X137867084Y-81444517D01*
X137893912Y-81482045D01*
X137937904Y-81509424D01*
X137992330Y-81525127D01*
X138050460Y-81527623D01*
X138105565Y-81515386D01*
X138128763Y-81503954D01*
X138160320Y-81476913D01*
X138182620Y-81444474D01*
X138183088Y-81443375D01*
X138186788Y-81427118D01*
X138189806Y-81396876D01*
X138192167Y-81351096D01*
X138193899Y-81288230D01*
X138195030Y-81206728D01*
X138195586Y-81105039D01*
X138195595Y-80981614D01*
X138195083Y-80834903D01*
X138194776Y-80775948D01*
X138191250Y-80145250D01*
X138154421Y-80106817D01*
X138111726Y-80077067D01*
X138058651Y-80060997D01*
X138002544Y-80058636D01*
X137950751Y-80070006D01*
X137910619Y-80095135D01*
X137901539Y-80105944D01*
X137891231Y-80118378D01*
X137878881Y-80122584D01*
X137857898Y-80118109D01*
X137821689Y-80104497D01*
X137809424Y-80099589D01*
X137681309Y-80061230D01*
X137549071Y-80046125D01*
X137416863Y-80054103D01*
G37*
X137416863Y-80054103D02*
X137288837Y-80084993D01*
X137194300Y-80125010D01*
X137112966Y-80178258D01*
X137048107Y-80247008D01*
X136997579Y-80334003D01*
X136966852Y-80415910D01*
X136959786Y-80440171D01*
X136954094Y-80464417D01*
X136949628Y-80491623D01*
X136946240Y-80524765D01*
X136943783Y-80566817D01*
X136942110Y-80620754D01*
X136941074Y-80689549D01*
X136940527Y-80776178D01*
X136940321Y-80883616D01*
X136940300Y-80951795D01*
X136940442Y-81080334D01*
X136941089Y-81185946D01*
X136942573Y-81271105D01*
X136945224Y-81338283D01*
X136949376Y-81389954D01*
X136955358Y-81428591D01*
X136963503Y-81456667D01*
X136974142Y-81476654D01*
X136987607Y-81491026D01*
X137004230Y-81502257D01*
X137014869Y-81508006D01*
X137068907Y-81525325D01*
X137127600Y-81527201D01*
X137184286Y-81515285D01*
X137232304Y-81491231D01*
X137264991Y-81456690D01*
X137270817Y-81444517D01*
X137273993Y-81423522D01*
X137276817Y-81379869D01*
X137279216Y-81316300D01*
X137281115Y-81235556D01*
X137282442Y-81140377D01*
X137283124Y-81033505D01*
X137283200Y-80981799D01*
X137283621Y-80851436D01*
X137284859Y-80740433D01*
X137286877Y-80650026D01*
X137289641Y-80581449D01*
X137293114Y-80535937D01*
X137296746Y-80515901D01*
X137332096Y-80454772D01*
X137385070Y-80411719D01*
X137455852Y-80386634D01*
X137530850Y-80379354D01*
X137626833Y-80390476D01*
X137714510Y-80424665D01*
X137790520Y-80480469D01*
X137809114Y-80499614D01*
X137854700Y-80550073D01*
X137854700Y-80981009D01*
X137855064Y-81092431D01*
X137856105Y-81193388D01*
X137857751Y-81281145D01*
X137859928Y-81352966D01*
X137862565Y-81406116D01*
X137865586Y-81437861D01*
X137867084Y-81444517D01*
X137893912Y-81482045D01*
X137937904Y-81509424D01*
X137992330Y-81525127D01*
X138050460Y-81527623D01*
X138105565Y-81515386D01*
X138128763Y-81503954D01*
X138160320Y-81476913D01*
X138182620Y-81444474D01*
X138183088Y-81443375D01*
X138186788Y-81427118D01*
X138189806Y-81396876D01*
X138192167Y-81351096D01*
X138193899Y-81288230D01*
X138195030Y-81206728D01*
X138195586Y-81105039D01*
X138195595Y-80981614D01*
X138195083Y-80834903D01*
X138194776Y-80775948D01*
X138191250Y-80145250D01*
X138154421Y-80106817D01*
X138111726Y-80077067D01*
X138058651Y-80060997D01*
X138002544Y-80058636D01*
X137950751Y-80070006D01*
X137910619Y-80095135D01*
X137901539Y-80105944D01*
X137891231Y-80118378D01*
X137878881Y-80122584D01*
X137857898Y-80118109D01*
X137821689Y-80104497D01*
X137809424Y-80099589D01*
X137681309Y-80061230D01*
X137549071Y-80046125D01*
X137416863Y-80054103D01*
G36*
X139882430Y-80067014D02*
G01*
X139778090Y-80105100D01*
X139690989Y-80161331D01*
X139620338Y-80236248D01*
X139565348Y-80330394D01*
X139554392Y-80355914D01*
X139546960Y-80374955D01*
X139540865Y-80393472D01*
X139535951Y-80414139D01*
X139532066Y-80439626D01*
X139529054Y-80472606D01*
X139526762Y-80515750D01*
X139525036Y-80571731D01*
X139523723Y-80643220D01*
X139522667Y-80732889D01*
X139521715Y-80843410D01*
X139521026Y-80934895D01*
X139517302Y-81440441D01*
X139561031Y-81484170D01*
X139589375Y-81509763D01*
X139615183Y-81522821D01*
X139649303Y-81527454D01*
X139676511Y-81527900D01*
X139726144Y-81524165D01*
X139770315Y-81514533D01*
X139786732Y-81508006D01*
X139805368Y-81497350D01*
X139820614Y-81484864D01*
X139832811Y-81468052D01*
X139842298Y-81444421D01*
X139849412Y-81411476D01*
X139854494Y-81366724D01*
X139857882Y-81307669D01*
X139859916Y-81231817D01*
X139860934Y-81136675D01*
X139861277Y-81019748D01*
X139861300Y-80959498D01*
X139861345Y-80841726D01*
X139861584Y-80746541D01*
X139862180Y-80671130D01*
X139863295Y-80612679D01*
X139865088Y-80568376D01*
X139867721Y-80535407D01*
X139871355Y-80510959D01*
X139876152Y-80492220D01*
X139882272Y-80476376D01*
X139889875Y-80460615D01*
X139914615Y-80420840D01*
X139943989Y-80397116D01*
X139969713Y-80386226D01*
X140038567Y-80375149D01*
X140110793Y-80385559D01*
X140180669Y-80415229D01*
X140242474Y-80461930D01*
X140280400Y-80507252D01*
X140312150Y-80554420D01*
X140318500Y-81004119D01*
X140324850Y-81453819D01*
X140366326Y-81490859D01*
X140395872Y-81513414D01*
X140425874Y-81524494D01*
X140467596Y-81527832D01*
X140478082Y-81527900D01*
X140526350Y-81524175D01*
X140570011Y-81514648D01*
X140586832Y-81508006D01*
X140605523Y-81497307D01*
X140620805Y-81484755D01*
X140633019Y-81467845D01*
X140642508Y-81444075D01*
X140649613Y-81410941D01*
X140654679Y-81365940D01*
X140658046Y-81306568D01*
X140660057Y-81230322D01*
X140661055Y-81134698D01*
X140661381Y-81017194D01*
X140661400Y-80962750D01*
X140661519Y-80838160D01*
X140662089Y-80736295D01*
X140663437Y-80654481D01*
X140665885Y-80590042D01*
X140669758Y-80540305D01*
X140675380Y-80502594D01*
X140683075Y-80474235D01*
X140693168Y-80452552D01*
X140705982Y-80434873D01*
X140721843Y-80418521D01*
X140728064Y-80412717D01*
X140768702Y-80388849D01*
X140828083Y-80376590D01*
X140828125Y-80376585D01*
X140872414Y-80374537D01*
X140908468Y-80380670D01*
X140948832Y-80397674D01*
X140964834Y-80405918D01*
X141010533Y-80434963D01*
X141053205Y-80470115D01*
X141072784Y-80490826D01*
X141112250Y-80539602D01*
X141124950Y-81453822D01*
X141166426Y-81490861D01*
X141195099Y-81512944D01*
X141223967Y-81524059D01*
X141263817Y-81527697D01*
X141280726Y-81527852D01*
X141347466Y-81521388D01*
X141394134Y-81503059D01*
X141433226Y-81464902D01*
X141448802Y-81430082D01*
X141452474Y-81406014D01*
X141455399Y-81361054D01*
X141457589Y-81294474D01*
X141459055Y-81205549D01*
X141459809Y-81093553D01*
X141459860Y-80957759D01*
X141459221Y-80797440D01*
X141459019Y-80763549D01*
X141455150Y-80145249D01*
X141418321Y-80106817D01*
X141376971Y-80077934D01*
X141325244Y-80061780D01*
X141270322Y-80058387D01*
X141219388Y-80067786D01*
X141179626Y-80090010D01*
X141166322Y-80105709D01*
X141155751Y-80119530D01*
X141142932Y-80121813D01*
X141119619Y-80112387D01*
X141103732Y-80104393D01*
X140998056Y-80064319D01*
X140886719Y-80047684D01*
X140773106Y-80054191D01*
X140660600Y-80083545D01*
X140552587Y-80135450D01*
X140521697Y-80155284D01*
X140482872Y-80181171D01*
X140458936Y-80194109D01*
X140444010Y-80195777D01*
X140432218Y-80187854D01*
X140427013Y-80182321D01*
X140380280Y-80144370D01*
X140314905Y-80109679D01*
X140237622Y-80080414D01*
X140155165Y-80058740D01*
X140074268Y-80046823D01*
X140004799Y-80046531D01*
X139882430Y-80067014D01*
G37*
X139882430Y-80067014D02*
X139778090Y-80105100D01*
X139690989Y-80161331D01*
X139620338Y-80236248D01*
X139565348Y-80330394D01*
X139554392Y-80355914D01*
X139546960Y-80374955D01*
X139540865Y-80393472D01*
X139535951Y-80414139D01*
X139532066Y-80439626D01*
X139529054Y-80472606D01*
X139526762Y-80515750D01*
X139525036Y-80571731D01*
X139523723Y-80643220D01*
X139522667Y-80732889D01*
X139521715Y-80843410D01*
X139521026Y-80934895D01*
X139517302Y-81440441D01*
X139561031Y-81484170D01*
X139589375Y-81509763D01*
X139615183Y-81522821D01*
X139649303Y-81527454D01*
X139676511Y-81527900D01*
X139726144Y-81524165D01*
X139770315Y-81514533D01*
X139786732Y-81508006D01*
X139805368Y-81497350D01*
X139820614Y-81484864D01*
X139832811Y-81468052D01*
X139842298Y-81444421D01*
X139849412Y-81411476D01*
X139854494Y-81366724D01*
X139857882Y-81307669D01*
X139859916Y-81231817D01*
X139860934Y-81136675D01*
X139861277Y-81019748D01*
X139861300Y-80959498D01*
X139861345Y-80841726D01*
X139861584Y-80746541D01*
X139862180Y-80671130D01*
X139863295Y-80612679D01*
X139865088Y-80568376D01*
X139867721Y-80535407D01*
X139871355Y-80510959D01*
X139876152Y-80492220D01*
X139882272Y-80476376D01*
X139889875Y-80460615D01*
X139914615Y-80420840D01*
X139943989Y-80397116D01*
X139969713Y-80386226D01*
X140038567Y-80375149D01*
X140110793Y-80385559D01*
X140180669Y-80415229D01*
X140242474Y-80461930D01*
X140280400Y-80507252D01*
X140312150Y-80554420D01*
X140318500Y-81004119D01*
X140324850Y-81453819D01*
X140366326Y-81490859D01*
X140395872Y-81513414D01*
X140425874Y-81524494D01*
X140467596Y-81527832D01*
X140478082Y-81527900D01*
X140526350Y-81524175D01*
X140570011Y-81514648D01*
X140586832Y-81508006D01*
X140605523Y-81497307D01*
X140620805Y-81484755D01*
X140633019Y-81467845D01*
X140642508Y-81444075D01*
X140649613Y-81410941D01*
X140654679Y-81365940D01*
X140658046Y-81306568D01*
X140660057Y-81230322D01*
X140661055Y-81134698D01*
X140661381Y-81017194D01*
X140661400Y-80962750D01*
X140661519Y-80838160D01*
X140662089Y-80736295D01*
X140663437Y-80654481D01*
X140665885Y-80590042D01*
X140669758Y-80540305D01*
X140675380Y-80502594D01*
X140683075Y-80474235D01*
X140693168Y-80452552D01*
X140705982Y-80434873D01*
X140721843Y-80418521D01*
X140728064Y-80412717D01*
X140768702Y-80388849D01*
X140828083Y-80376590D01*
X140828125Y-80376585D01*
X140872414Y-80374537D01*
X140908468Y-80380670D01*
X140948832Y-80397674D01*
X140964834Y-80405918D01*
X141010533Y-80434963D01*
X141053205Y-80470115D01*
X141072784Y-80490826D01*
X141112250Y-80539602D01*
X141124950Y-81453822D01*
X141166426Y-81490861D01*
X141195099Y-81512944D01*
X141223967Y-81524059D01*
X141263817Y-81527697D01*
X141280726Y-81527852D01*
X141347466Y-81521388D01*
X141394134Y-81503059D01*
X141433226Y-81464902D01*
X141448802Y-81430082D01*
X141452474Y-81406014D01*
X141455399Y-81361054D01*
X141457589Y-81294474D01*
X141459055Y-81205549D01*
X141459809Y-81093553D01*
X141459860Y-80957759D01*
X141459221Y-80797440D01*
X141459019Y-80763549D01*
X141455150Y-80145249D01*
X141418321Y-80106817D01*
X141376971Y-80077934D01*
X141325244Y-80061780D01*
X141270322Y-80058387D01*
X141219388Y-80067786D01*
X141179626Y-80090010D01*
X141166322Y-80105709D01*
X141155751Y-80119530D01*
X141142932Y-80121813D01*
X141119619Y-80112387D01*
X141103732Y-80104393D01*
X140998056Y-80064319D01*
X140886719Y-80047684D01*
X140773106Y-80054191D01*
X140660600Y-80083545D01*
X140552587Y-80135450D01*
X140521697Y-80155284D01*
X140482872Y-80181171D01*
X140458936Y-80194109D01*
X140444010Y-80195777D01*
X140432218Y-80187854D01*
X140427013Y-80182321D01*
X140380280Y-80144370D01*
X140314905Y-80109679D01*
X140237622Y-80080414D01*
X140155165Y-80058740D01*
X140074268Y-80046823D01*
X140004799Y-80046531D01*
X139882430Y-80067014D01*
G36*
X136523499Y-79719196D02*
G01*
X136492168Y-79723890D01*
X136469811Y-79734567D01*
X136448464Y-79753328D01*
X136433471Y-79769489D01*
X136423304Y-79785982D01*
X136416840Y-79808110D01*
X136412955Y-79841175D01*
X136410528Y-79890481D01*
X136409038Y-79939509D01*
X136404826Y-80090512D01*
X136215586Y-80094831D01*
X136026347Y-80099150D01*
X135984849Y-80140669D01*
X135962023Y-80165737D01*
X135949557Y-80188972D01*
X135944363Y-80219573D01*
X135943350Y-80264250D01*
X135944478Y-80310516D01*
X135949921Y-80340612D01*
X135962769Y-80363736D01*
X135984849Y-80387830D01*
X136026347Y-80429350D01*
X136216624Y-80433689D01*
X136406900Y-80438029D01*
X136406830Y-80763889D01*
X136406404Y-80878304D01*
X136404936Y-80970115D01*
X136402059Y-81042111D01*
X136397405Y-81097079D01*
X136390607Y-81137809D01*
X136381297Y-81167087D01*
X136369107Y-81187702D01*
X136353671Y-81202441D01*
X136348545Y-81206007D01*
X136316145Y-81217722D01*
X136274586Y-81214372D01*
X136220271Y-81195258D01*
X136171950Y-81171712D01*
X136128539Y-81154690D01*
X136075852Y-81141701D01*
X136050621Y-81138072D01*
X136007459Y-81135383D01*
X135979116Y-81139535D01*
X135955404Y-81152912D01*
X135942671Y-81163312D01*
X135923971Y-81180962D01*
X135912829Y-81198770D01*
X135907297Y-81223703D01*
X135905426Y-81262729D01*
X135905250Y-81297177D01*
X135906098Y-81349860D01*
X135909769Y-81384419D01*
X135917952Y-81408103D01*
X135932338Y-81428163D01*
X135937000Y-81433351D01*
X135979523Y-81468499D01*
X136037608Y-81496832D01*
X136114817Y-81519798D01*
X136183854Y-81533755D01*
X136244220Y-81543862D01*
X136288216Y-81549408D01*
X136324423Y-81550592D01*
X136361420Y-81547610D01*
X136407787Y-81540662D01*
X136417019Y-81539134D01*
X136494482Y-81519530D01*
X136559026Y-81486206D01*
X136614322Y-81440775D01*
X136645804Y-81408933D01*
X136671598Y-81377050D01*
X136692320Y-81342211D01*
X136708584Y-81301501D01*
X136721007Y-81252002D01*
X136730203Y-81190799D01*
X136736787Y-81114976D01*
X136741375Y-81021617D01*
X136744580Y-80907806D01*
X136746322Y-80814981D01*
X136752513Y-80438612D01*
X136812415Y-80430666D01*
X136864375Y-80417093D01*
X136904530Y-80388932D01*
X136909484Y-80383926D01*
X136930218Y-80359406D01*
X136941426Y-80334930D01*
X136945945Y-80301318D01*
X136946650Y-80263660D01*
X136945430Y-80217260D01*
X136939819Y-80187128D01*
X136926894Y-80164172D01*
X136908021Y-80143559D01*
X136872165Y-80115750D01*
X136828802Y-80100973D01*
X136804272Y-80097217D01*
X136739152Y-80089505D01*
X136734951Y-79939006D01*
X136732878Y-79874694D01*
X136730155Y-79830463D01*
X136725653Y-79800995D01*
X136718245Y-79780975D01*
X136706803Y-79765088D01*
X136695537Y-79753328D01*
X136673990Y-79734427D01*
X136651586Y-79723820D01*
X136620128Y-79719172D01*
X136572000Y-79718150D01*
X136523499Y-79719196D01*
G37*
X136523499Y-79719196D02*
X136492168Y-79723890D01*
X136469811Y-79734567D01*
X136448464Y-79753328D01*
X136433471Y-79769489D01*
X136423304Y-79785982D01*
X136416840Y-79808110D01*
X136412955Y-79841175D01*
X136410528Y-79890481D01*
X136409038Y-79939509D01*
X136404826Y-80090512D01*
X136215586Y-80094831D01*
X136026347Y-80099150D01*
X135984849Y-80140669D01*
X135962023Y-80165737D01*
X135949557Y-80188972D01*
X135944363Y-80219573D01*
X135943350Y-80264250D01*
X135944478Y-80310516D01*
X135949921Y-80340612D01*
X135962769Y-80363736D01*
X135984849Y-80387830D01*
X136026347Y-80429350D01*
X136216624Y-80433689D01*
X136406900Y-80438029D01*
X136406830Y-80763889D01*
X136406404Y-80878304D01*
X136404936Y-80970115D01*
X136402059Y-81042111D01*
X136397405Y-81097079D01*
X136390607Y-81137809D01*
X136381297Y-81167087D01*
X136369107Y-81187702D01*
X136353671Y-81202441D01*
X136348545Y-81206007D01*
X136316145Y-81217722D01*
X136274586Y-81214372D01*
X136220271Y-81195258D01*
X136171950Y-81171712D01*
X136128539Y-81154690D01*
X136075852Y-81141701D01*
X136050621Y-81138072D01*
X136007459Y-81135383D01*
X135979116Y-81139535D01*
X135955404Y-81152912D01*
X135942671Y-81163312D01*
X135923971Y-81180962D01*
X135912829Y-81198770D01*
X135907297Y-81223703D01*
X135905426Y-81262729D01*
X135905250Y-81297177D01*
X135906098Y-81349860D01*
X135909769Y-81384419D01*
X135917952Y-81408103D01*
X135932338Y-81428163D01*
X135937000Y-81433351D01*
X135979523Y-81468499D01*
X136037608Y-81496832D01*
X136114817Y-81519798D01*
X136183854Y-81533755D01*
X136244220Y-81543862D01*
X136288216Y-81549408D01*
X136324423Y-81550592D01*
X136361420Y-81547610D01*
X136407787Y-81540662D01*
X136417019Y-81539134D01*
X136494482Y-81519530D01*
X136559026Y-81486206D01*
X136614322Y-81440775D01*
X136645804Y-81408933D01*
X136671598Y-81377050D01*
X136692320Y-81342211D01*
X136708584Y-81301501D01*
X136721007Y-81252002D01*
X136730203Y-81190799D01*
X136736787Y-81114976D01*
X136741375Y-81021617D01*
X136744580Y-80907806D01*
X136746322Y-80814981D01*
X136752513Y-80438612D01*
X136812415Y-80430666D01*
X136864375Y-80417093D01*
X136904530Y-80388932D01*
X136909484Y-80383926D01*
X136930218Y-80359406D01*
X136941426Y-80334930D01*
X136945945Y-80301318D01*
X136946650Y-80263660D01*
X136945430Y-80217260D01*
X136939819Y-80187128D01*
X136926894Y-80164172D01*
X136908021Y-80143559D01*
X136872165Y-80115750D01*
X136828802Y-80100973D01*
X136804272Y-80097217D01*
X136739152Y-80089505D01*
X136734951Y-79939006D01*
X136732878Y-79874694D01*
X136730155Y-79830463D01*
X136725653Y-79800995D01*
X136718245Y-79780975D01*
X136706803Y-79765088D01*
X136695537Y-79753328D01*
X136673990Y-79734427D01*
X136651586Y-79723820D01*
X136620128Y-79719172D01*
X136572000Y-79718150D01*
X136523499Y-79719196D01*
G36*
X138688342Y-80052157D02*
G01*
X138576070Y-80082589D01*
X138479135Y-80133232D01*
X138397594Y-80204025D01*
X138331508Y-80294903D01*
X138280935Y-80405805D01*
X138245934Y-80536668D01*
X138228399Y-80664364D01*
X138225188Y-80724273D01*
X138228420Y-80768090D01*
X138238804Y-80804467D01*
X138240124Y-80807696D01*
X138250390Y-80829556D01*
X138262836Y-80847337D01*
X138280109Y-80861569D01*
X138304855Y-80872784D01*
X138339723Y-80881513D01*
X138387359Y-80888288D01*
X138450412Y-80893637D01*
X138531528Y-80898094D01*
X138633355Y-80902189D01*
X138727371Y-80905423D01*
X138823316Y-80908598D01*
X138911298Y-80911489D01*
X138988038Y-80913990D01*
X139050260Y-80915994D01*
X139094684Y-80917395D01*
X139118034Y-80918088D01*
X139120502Y-80918142D01*
X139129747Y-80928095D01*
X139127435Y-80954118D01*
X139115810Y-80990958D01*
X139097118Y-81033363D01*
X139073601Y-81076079D01*
X139047506Y-81113853D01*
X139027439Y-81135925D01*
X138959702Y-81184665D01*
X138883543Y-81212224D01*
X138797602Y-81218648D01*
X138700520Y-81203980D01*
X138590937Y-81168268D01*
X138551604Y-81151786D01*
X138474322Y-81122399D01*
X138412877Y-81109922D01*
X138364298Y-81114192D01*
X138325615Y-81135047D01*
X138320939Y-81139170D01*
X138293789Y-81179633D01*
X138278440Y-81234299D01*
X138275133Y-81294756D01*
X138284108Y-81352591D01*
X138305606Y-81399391D01*
X138313244Y-81408679D01*
X138358817Y-81443292D01*
X138424753Y-81474567D01*
X138506115Y-81501423D01*
X138597966Y-81522778D01*
X138695368Y-81537552D01*
X138793386Y-81544663D01*
X138887083Y-81543029D01*
X138915150Y-81540505D01*
X139043461Y-81515571D01*
X139155898Y-81470815D01*
X139252350Y-81406336D01*
X139332703Y-81322230D01*
X139396848Y-81218593D01*
X139444670Y-81095524D01*
X139449974Y-81077050D01*
X139462270Y-81015383D01*
X139471200Y-80936210D01*
X139476599Y-80846872D01*
X139478301Y-80754711D01*
X139476137Y-80667070D01*
X139469943Y-80591289D01*
X139469761Y-80590209D01*
X139126293Y-80590209D01*
X138861972Y-80581183D01*
X138782776Y-80578288D01*
X138712592Y-80575359D01*
X138655235Y-80572585D01*
X138614521Y-80570156D01*
X138594269Y-80568260D01*
X138592766Y-80567836D01*
X138593108Y-80553107D01*
X138604068Y-80524863D01*
X138621982Y-80490596D01*
X138643190Y-80457798D01*
X138652203Y-80446256D01*
X138701007Y-80402270D01*
X138758820Y-80378574D01*
X138822445Y-80372478D01*
X138908115Y-80384811D01*
X138986377Y-80419168D01*
X139052498Y-80472682D01*
X139101260Y-80541529D01*
X139126293Y-80590209D01*
X139469761Y-80590209D01*
X139462051Y-80544470D01*
X139420876Y-80418592D01*
X139360713Y-80308966D01*
X139282937Y-80216662D01*
X139188922Y-80142748D01*
X139080042Y-80088292D01*
X138957670Y-80054363D01*
X138823183Y-80042030D01*
X138815890Y-80042000D01*
X138688342Y-80052157D01*
G37*
X138688342Y-80052157D02*
X138576070Y-80082589D01*
X138479135Y-80133232D01*
X138397594Y-80204025D01*
X138331508Y-80294903D01*
X138280935Y-80405805D01*
X138245934Y-80536668D01*
X138228399Y-80664364D01*
X138225188Y-80724273D01*
X138228420Y-80768090D01*
X138238804Y-80804467D01*
X138240124Y-80807696D01*
X138250390Y-80829556D01*
X138262836Y-80847337D01*
X138280109Y-80861569D01*
X138304855Y-80872784D01*
X138339723Y-80881513D01*
X138387359Y-80888288D01*
X138450412Y-80893637D01*
X138531528Y-80898094D01*
X138633355Y-80902189D01*
X138727371Y-80905423D01*
X138823316Y-80908598D01*
X138911298Y-80911489D01*
X138988038Y-80913990D01*
X139050260Y-80915994D01*
X139094684Y-80917395D01*
X139118034Y-80918088D01*
X139120502Y-80918142D01*
X139129747Y-80928095D01*
X139127435Y-80954118D01*
X139115810Y-80990958D01*
X139097118Y-81033363D01*
X139073601Y-81076079D01*
X139047506Y-81113853D01*
X139027439Y-81135925D01*
X138959702Y-81184665D01*
X138883543Y-81212224D01*
X138797602Y-81218648D01*
X138700520Y-81203980D01*
X138590937Y-81168268D01*
X138551604Y-81151786D01*
X138474322Y-81122399D01*
X138412877Y-81109922D01*
X138364298Y-81114192D01*
X138325615Y-81135047D01*
X138320939Y-81139170D01*
X138293789Y-81179633D01*
X138278440Y-81234299D01*
X138275133Y-81294756D01*
X138284108Y-81352591D01*
X138305606Y-81399391D01*
X138313244Y-81408679D01*
X138358817Y-81443292D01*
X138424753Y-81474567D01*
X138506115Y-81501423D01*
X138597966Y-81522778D01*
X138695368Y-81537552D01*
X138793386Y-81544663D01*
X138887083Y-81543029D01*
X138915150Y-81540505D01*
X139043461Y-81515571D01*
X139155898Y-81470815D01*
X139252350Y-81406336D01*
X139332703Y-81322230D01*
X139396848Y-81218593D01*
X139444670Y-81095524D01*
X139449974Y-81077050D01*
X139462270Y-81015383D01*
X139471200Y-80936210D01*
X139476599Y-80846872D01*
X139478301Y-80754711D01*
X139476137Y-80667070D01*
X139469943Y-80591289D01*
X139469761Y-80590209D01*
X139126293Y-80590209D01*
X138861972Y-80581183D01*
X138782776Y-80578288D01*
X138712592Y-80575359D01*
X138655235Y-80572585D01*
X138614521Y-80570156D01*
X138594269Y-80568260D01*
X138592766Y-80567836D01*
X138593108Y-80553107D01*
X138604068Y-80524863D01*
X138621982Y-80490596D01*
X138643190Y-80457798D01*
X138652203Y-80446256D01*
X138701007Y-80402270D01*
X138758820Y-80378574D01*
X138822445Y-80372478D01*
X138908115Y-80384811D01*
X138986377Y-80419168D01*
X139052498Y-80472682D01*
X139101260Y-80541529D01*
X139126293Y-80590209D01*
X139469761Y-80590209D01*
X139462051Y-80544470D01*
X139420876Y-80418592D01*
X139360713Y-80308966D01*
X139282937Y-80216662D01*
X139188922Y-80142748D01*
X139080042Y-80088292D01*
X138957670Y-80054363D01*
X138823183Y-80042030D01*
X138815890Y-80042000D01*
X138688342Y-80052157D01*
G36*
X141954438Y-80052770D02*
G01*
X141859219Y-80074762D01*
X141778984Y-80107906D01*
X141772214Y-80111722D01*
X141720247Y-80149563D01*
X141665349Y-80201894D01*
X141615463Y-80260249D01*
X141578530Y-80316164D01*
X141576196Y-80320623D01*
X141548624Y-80386111D01*
X141525422Y-80463096D01*
X141507475Y-80545621D01*
X141495666Y-80627725D01*
X141490880Y-80703452D01*
X141493999Y-80766842D01*
X141503962Y-80807632D01*
X141514249Y-80829509D01*
X141526706Y-80847303D01*
X141543980Y-80861546D01*
X141568720Y-80872769D01*
X141603574Y-80881503D01*
X141651189Y-80888280D01*
X141714214Y-80893632D01*
X141795296Y-80898089D01*
X141897085Y-80902183D01*
X141991271Y-80905423D01*
X142087216Y-80908598D01*
X142175198Y-80911489D01*
X142251938Y-80913990D01*
X142314160Y-80915994D01*
X142358584Y-80917395D01*
X142381934Y-80918088D01*
X142384402Y-80918142D01*
X142393647Y-80928095D01*
X142391335Y-80954118D01*
X142379710Y-80990958D01*
X142361018Y-81033363D01*
X142337501Y-81076079D01*
X142311406Y-81113853D01*
X142291339Y-81135925D01*
X142241115Y-81175961D01*
X142189942Y-81200619D01*
X142129610Y-81212782D01*
X142064750Y-81215447D01*
X142011292Y-81213985D01*
X141968556Y-81208468D01*
X141926518Y-81196594D01*
X141875151Y-81176059D01*
X141855200Y-81167324D01*
X141786125Y-81137323D01*
X141735256Y-81117221D01*
X141697886Y-81105958D01*
X141669310Y-81102468D01*
X141644822Y-81105688D01*
X141620408Y-81114265D01*
X141576041Y-81145670D01*
X141549147Y-81195503D01*
X141539732Y-81263750D01*
X141541474Y-81303622D01*
X141551627Y-81360747D01*
X141573110Y-81402679D01*
X141610610Y-81435416D01*
X141666905Y-81464137D01*
X141795304Y-81507918D01*
X141934883Y-81535358D01*
X142076298Y-81545078D01*
X142179050Y-81539786D01*
X142307439Y-81514704D01*
X142420007Y-81469768D01*
X142516485Y-81405205D01*
X142596607Y-81321240D01*
X142660102Y-81218099D01*
X142706678Y-81096100D01*
X142722284Y-81025307D01*
X142733776Y-80939100D01*
X142740893Y-80844691D01*
X142743372Y-80749291D01*
X142740950Y-80660111D01*
X142733950Y-80590209D01*
X142390193Y-80590209D01*
X142125872Y-80581183D01*
X142046762Y-80578340D01*
X141976743Y-80575552D01*
X141919609Y-80572993D01*
X141879157Y-80570837D01*
X141859182Y-80569256D01*
X141857757Y-80568927D01*
X141855789Y-80552025D01*
X141867257Y-80521932D01*
X141889042Y-80484725D01*
X141918027Y-80446476D01*
X141924222Y-80439448D01*
X141955542Y-80406668D01*
X141980890Y-80388344D01*
X142010579Y-80379438D01*
X142054920Y-80374911D01*
X142056532Y-80374794D01*
X142146178Y-80379715D01*
X142227779Y-80406527D01*
X142297638Y-80453241D01*
X142352052Y-80517871D01*
X142364745Y-80540327D01*
X142390193Y-80590209D01*
X142733950Y-80590209D01*
X142733364Y-80584363D01*
X142726580Y-80549767D01*
X142684340Y-80420464D01*
X142626859Y-80311172D01*
X142553179Y-80220901D01*
X142462341Y-80148657D01*
X142353387Y-80093448D01*
X142254962Y-80061508D01*
X142159812Y-80045362D01*
X142057136Y-80042710D01*
X141954438Y-80052770D01*
G37*
X141954438Y-80052770D02*
X141859219Y-80074762D01*
X141778984Y-80107906D01*
X141772214Y-80111722D01*
X141720247Y-80149563D01*
X141665349Y-80201894D01*
X141615463Y-80260249D01*
X141578530Y-80316164D01*
X141576196Y-80320623D01*
X141548624Y-80386111D01*
X141525422Y-80463096D01*
X141507475Y-80545621D01*
X141495666Y-80627725D01*
X141490880Y-80703452D01*
X141493999Y-80766842D01*
X141503962Y-80807632D01*
X141514249Y-80829509D01*
X141526706Y-80847303D01*
X141543980Y-80861546D01*
X141568720Y-80872769D01*
X141603574Y-80881503D01*
X141651189Y-80888280D01*
X141714214Y-80893632D01*
X141795296Y-80898089D01*
X141897085Y-80902183D01*
X141991271Y-80905423D01*
X142087216Y-80908598D01*
X142175198Y-80911489D01*
X142251938Y-80913990D01*
X142314160Y-80915994D01*
X142358584Y-80917395D01*
X142381934Y-80918088D01*
X142384402Y-80918142D01*
X142393647Y-80928095D01*
X142391335Y-80954118D01*
X142379710Y-80990958D01*
X142361018Y-81033363D01*
X142337501Y-81076079D01*
X142311406Y-81113853D01*
X142291339Y-81135925D01*
X142241115Y-81175961D01*
X142189942Y-81200619D01*
X142129610Y-81212782D01*
X142064750Y-81215447D01*
X142011292Y-81213985D01*
X141968556Y-81208468D01*
X141926518Y-81196594D01*
X141875151Y-81176059D01*
X141855200Y-81167324D01*
X141786125Y-81137323D01*
X141735256Y-81117221D01*
X141697886Y-81105958D01*
X141669310Y-81102468D01*
X141644822Y-81105688D01*
X141620408Y-81114265D01*
X141576041Y-81145670D01*
X141549147Y-81195503D01*
X141539732Y-81263750D01*
X141541474Y-81303622D01*
X141551627Y-81360747D01*
X141573110Y-81402679D01*
X141610610Y-81435416D01*
X141666905Y-81464137D01*
X141795304Y-81507918D01*
X141934883Y-81535358D01*
X142076298Y-81545078D01*
X142179050Y-81539786D01*
X142307439Y-81514704D01*
X142420007Y-81469768D01*
X142516485Y-81405205D01*
X142596607Y-81321240D01*
X142660102Y-81218099D01*
X142706678Y-81096100D01*
X142722284Y-81025307D01*
X142733776Y-80939100D01*
X142740893Y-80844691D01*
X142743372Y-80749291D01*
X142740950Y-80660111D01*
X142733950Y-80590209D01*
X142390193Y-80590209D01*
X142125872Y-80581183D01*
X142046762Y-80578340D01*
X141976743Y-80575552D01*
X141919609Y-80572993D01*
X141879157Y-80570837D01*
X141859182Y-80569256D01*
X141857757Y-80568927D01*
X141855789Y-80552025D01*
X141867257Y-80521932D01*
X141889042Y-80484725D01*
X141918027Y-80446476D01*
X141924222Y-80439448D01*
X141955542Y-80406668D01*
X141980890Y-80388344D01*
X142010579Y-80379438D01*
X142054920Y-80374911D01*
X142056532Y-80374794D01*
X142146178Y-80379715D01*
X142227779Y-80406527D01*
X142297638Y-80453241D01*
X142352052Y-80517871D01*
X142364745Y-80540327D01*
X142390193Y-80590209D01*
X142733950Y-80590209D01*
X142733364Y-80584363D01*
X142726580Y-80549767D01*
X142684340Y-80420464D01*
X142626859Y-80311172D01*
X142553179Y-80220901D01*
X142462341Y-80148657D01*
X142353387Y-80093448D01*
X142254962Y-80061508D01*
X142159812Y-80045362D01*
X142057136Y-80042710D01*
X141954438Y-80052770D01*
G36*
X143279938Y-79312793D02*
G01*
X143248606Y-79317479D01*
X143226258Y-79328141D01*
X143204864Y-79346949D01*
X143169650Y-79382149D01*
X143162470Y-80197849D01*
X143160946Y-80367179D01*
X143159485Y-80513079D01*
X143157957Y-80637522D01*
X143156230Y-80742476D01*
X143154174Y-80829913D01*
X143151657Y-80901803D01*
X143148548Y-80960117D01*
X143144717Y-81006824D01*
X143140033Y-81043896D01*
X143134363Y-81073302D01*
X143127578Y-81097014D01*
X143119547Y-81117001D01*
X143110137Y-81135235D01*
X143099219Y-81153685D01*
X143098878Y-81154244D01*
X143063598Y-81193455D01*
X143018571Y-81217915D01*
X142987851Y-81223100D01*
X142964736Y-81216271D01*
X142931514Y-81199003D01*
X142915678Y-81188907D01*
X142860738Y-81162125D01*
X142804521Y-81152670D01*
X142753476Y-81160565D01*
X142714050Y-81185833D01*
X142711961Y-81188174D01*
X142684181Y-81237591D01*
X142671245Y-81298385D01*
X142672962Y-81362365D01*
X142689140Y-81421342D01*
X142718465Y-81466018D01*
X142763112Y-81496600D01*
X142826237Y-81520948D01*
X142901397Y-81537754D01*
X142982152Y-81545706D01*
X143062061Y-81543495D01*
X143085226Y-81540606D01*
X143164871Y-81524026D01*
X143228660Y-81498410D01*
X143285708Y-81458960D01*
X143339816Y-81406601D01*
X143383641Y-81356369D01*
X143413000Y-81312870D01*
X143433455Y-81267219D01*
X143440674Y-81245445D01*
X143452208Y-81207641D01*
X143462118Y-81173255D01*
X143470529Y-81140093D01*
X143477564Y-81105961D01*
X143483347Y-81068667D01*
X143488002Y-81026017D01*
X143491654Y-80975816D01*
X143494425Y-80915873D01*
X143496442Y-80843992D01*
X143497826Y-80757982D01*
X143498702Y-80655647D01*
X143499195Y-80534795D01*
X143499428Y-80393233D01*
X143499525Y-80228766D01*
X143499535Y-80204192D01*
X143499850Y-79394835D01*
X143458331Y-79353292D01*
X143434368Y-79331214D01*
X143412356Y-79318753D01*
X143383765Y-79313181D01*
X143340070Y-79311772D01*
X143328445Y-79311750D01*
X143279938Y-79312793D01*
G37*
X143279938Y-79312793D02*
X143248606Y-79317479D01*
X143226258Y-79328141D01*
X143204864Y-79346949D01*
X143169650Y-79382149D01*
X143162470Y-80197849D01*
X143160946Y-80367179D01*
X143159485Y-80513079D01*
X143157957Y-80637522D01*
X143156230Y-80742476D01*
X143154174Y-80829913D01*
X143151657Y-80901803D01*
X143148548Y-80960117D01*
X143144717Y-81006824D01*
X143140033Y-81043896D01*
X143134363Y-81073302D01*
X143127578Y-81097014D01*
X143119547Y-81117001D01*
X143110137Y-81135235D01*
X143099219Y-81153685D01*
X143098878Y-81154244D01*
X143063598Y-81193455D01*
X143018571Y-81217915D01*
X142987851Y-81223100D01*
X142964736Y-81216271D01*
X142931514Y-81199003D01*
X142915678Y-81188907D01*
X142860738Y-81162125D01*
X142804521Y-81152670D01*
X142753476Y-81160565D01*
X142714050Y-81185833D01*
X142711961Y-81188174D01*
X142684181Y-81237591D01*
X142671245Y-81298385D01*
X142672962Y-81362365D01*
X142689140Y-81421342D01*
X142718465Y-81466018D01*
X142763112Y-81496600D01*
X142826237Y-81520948D01*
X142901397Y-81537754D01*
X142982152Y-81545706D01*
X143062061Y-81543495D01*
X143085226Y-81540606D01*
X143164871Y-81524026D01*
X143228660Y-81498410D01*
X143285708Y-81458960D01*
X143339816Y-81406601D01*
X143383641Y-81356369D01*
X143413000Y-81312870D01*
X143433455Y-81267219D01*
X143440674Y-81245445D01*
X143452208Y-81207641D01*
X143462118Y-81173255D01*
X143470529Y-81140093D01*
X143477564Y-81105961D01*
X143483347Y-81068667D01*
X143488002Y-81026017D01*
X143491654Y-80975816D01*
X143494425Y-80915873D01*
X143496442Y-80843992D01*
X143497826Y-80757982D01*
X143498702Y-80655647D01*
X143499195Y-80534795D01*
X143499428Y-80393233D01*
X143499525Y-80228766D01*
X143499535Y-80204192D01*
X143499850Y-79394835D01*
X143458331Y-79353292D01*
X143434368Y-79331214D01*
X143412356Y-79318753D01*
X143383765Y-79313181D01*
X143340070Y-79311772D01*
X143328445Y-79311750D01*
X143279938Y-79312793D01*
G36*
X146458690Y-80126253D02*
G01*
X146453092Y-80153184D01*
X146452549Y-80172175D01*
X146448244Y-80241931D01*
X146436320Y-80329505D01*
X146418092Y-80428935D01*
X146394880Y-80534264D01*
X146368002Y-80639533D01*
X146338774Y-80738781D01*
X146308515Y-80826050D01*
X146307206Y-80829455D01*
X146223980Y-81019597D01*
X146128721Y-81191053D01*
X146022286Y-81342926D01*
X145905528Y-81474321D01*
X145779302Y-81584340D01*
X145644464Y-81672086D01*
X145501867Y-81736664D01*
X145417550Y-81762734D01*
X145257129Y-81791720D01*
X145089556Y-81798369D01*
X144919264Y-81782952D01*
X144750680Y-81745737D01*
X144661900Y-81716668D01*
X144508125Y-81647094D01*
X144358778Y-81553381D01*
X144215003Y-81436574D01*
X144077945Y-81297722D01*
X143948750Y-81137872D01*
X143828563Y-80958070D01*
X143823863Y-80950319D01*
X143794768Y-80904469D01*
X143769070Y-80868172D01*
X143750271Y-80846155D01*
X143743473Y-80841741D01*
X143725355Y-80847144D01*
X143692060Y-80861675D01*
X143650675Y-80882234D01*
X143649183Y-80883016D01*
X143601526Y-80910958D01*
X143575935Y-80933609D01*
X143569808Y-80949368D01*
X143575616Y-80971736D01*
X143591770Y-81012123D01*
X143616202Y-81066387D01*
X143646847Y-81130385D01*
X143681639Y-81199974D01*
X143718512Y-81271012D01*
X143755402Y-81339355D01*
X143790241Y-81400862D01*
X143817126Y-81445350D01*
X143895071Y-81563612D01*
X143972355Y-81668673D01*
X144055786Y-81769140D01*
X144152171Y-81873621D01*
X144172222Y-81894341D01*
X144324359Y-82038981D01*
X144477150Y-82160260D01*
X144633749Y-82260096D01*
X144797309Y-82340405D01*
X144970985Y-82403103D01*
X145042900Y-82423394D01*
X145092809Y-82435877D01*
X145137096Y-82445127D01*
X145181320Y-82451710D01*
X145231041Y-82456187D01*
X145291818Y-82459122D01*
X145369211Y-82461079D01*
X145423900Y-82461987D01*
X145502708Y-82462829D01*
X145574522Y-82462976D01*
X145634809Y-82462470D01*
X145679034Y-82461348D01*
X145702660Y-82459652D01*
X145703300Y-82459537D01*
X145866765Y-82422447D01*
X146010902Y-82377163D01*
X146141117Y-82321273D01*
X146262816Y-82252362D01*
X146381405Y-82168017D01*
X146413376Y-82142460D01*
X146510829Y-82053483D01*
X146609738Y-81946063D01*
X146705273Y-81826370D01*
X146792602Y-81700570D01*
X146866895Y-81574831D01*
X146884356Y-81541166D01*
X146961633Y-81365198D01*
X147024791Y-81175806D01*
X147072151Y-80979948D01*
X147102035Y-80784583D01*
X147112762Y-80596672D01*
X147112768Y-80594430D01*
X147113000Y-80467411D01*
X146801739Y-80292805D01*
X146720233Y-80247449D01*
X146645353Y-80206477D01*
X146580112Y-80171483D01*
X146527526Y-80144059D01*
X146490606Y-80125801D01*
X146472368Y-80118301D01*
X146471539Y-80118200D01*
X146458690Y-80126253D01*
G37*
X146458690Y-80126253D02*
X146453092Y-80153184D01*
X146452549Y-80172175D01*
X146448244Y-80241931D01*
X146436320Y-80329505D01*
X146418092Y-80428935D01*
X146394880Y-80534264D01*
X146368002Y-80639533D01*
X146338774Y-80738781D01*
X146308515Y-80826050D01*
X146307206Y-80829455D01*
X146223980Y-81019597D01*
X146128721Y-81191053D01*
X146022286Y-81342926D01*
X145905528Y-81474321D01*
X145779302Y-81584340D01*
X145644464Y-81672086D01*
X145501867Y-81736664D01*
X145417550Y-81762734D01*
X145257129Y-81791720D01*
X145089556Y-81798369D01*
X144919264Y-81782952D01*
X144750680Y-81745737D01*
X144661900Y-81716668D01*
X144508125Y-81647094D01*
X144358778Y-81553381D01*
X144215003Y-81436574D01*
X144077945Y-81297722D01*
X143948750Y-81137872D01*
X143828563Y-80958070D01*
X143823863Y-80950319D01*
X143794768Y-80904469D01*
X143769070Y-80868172D01*
X143750271Y-80846155D01*
X143743473Y-80841741D01*
X143725355Y-80847144D01*
X143692060Y-80861675D01*
X143650675Y-80882234D01*
X143649183Y-80883016D01*
X143601526Y-80910958D01*
X143575935Y-80933609D01*
X143569808Y-80949368D01*
X143575616Y-80971736D01*
X143591770Y-81012123D01*
X143616202Y-81066387D01*
X143646847Y-81130385D01*
X143681639Y-81199974D01*
X143718512Y-81271012D01*
X143755402Y-81339355D01*
X143790241Y-81400862D01*
X143817126Y-81445350D01*
X143895071Y-81563612D01*
X143972355Y-81668673D01*
X144055786Y-81769140D01*
X144152171Y-81873621D01*
X144172222Y-81894341D01*
X144324359Y-82038981D01*
X144477150Y-82160260D01*
X144633749Y-82260096D01*
X144797309Y-82340405D01*
X144970985Y-82403103D01*
X145042900Y-82423394D01*
X145092809Y-82435877D01*
X145137096Y-82445127D01*
X145181320Y-82451710D01*
X145231041Y-82456187D01*
X145291818Y-82459122D01*
X145369211Y-82461079D01*
X145423900Y-82461987D01*
X145502708Y-82462829D01*
X145574522Y-82462976D01*
X145634809Y-82462470D01*
X145679034Y-82461348D01*
X145702660Y-82459652D01*
X145703300Y-82459537D01*
X145866765Y-82422447D01*
X146010902Y-82377163D01*
X146141117Y-82321273D01*
X146262816Y-82252362D01*
X146381405Y-82168017D01*
X146413376Y-82142460D01*
X146510829Y-82053483D01*
X146609738Y-81946063D01*
X146705273Y-81826370D01*
X146792602Y-81700570D01*
X146866895Y-81574831D01*
X146884356Y-81541166D01*
X146961633Y-81365198D01*
X147024791Y-81175806D01*
X147072151Y-80979948D01*
X147102035Y-80784583D01*
X147112762Y-80596672D01*
X147112768Y-80594430D01*
X147113000Y-80467411D01*
X146801739Y-80292805D01*
X146720233Y-80247449D01*
X146645353Y-80206477D01*
X146580112Y-80171483D01*
X146527526Y-80144059D01*
X146490606Y-80125801D01*
X146472368Y-80118301D01*
X146471539Y-80118200D01*
X146458690Y-80126253D01*
M02*
