%TF.GenerationSoftware,KiCad,Pcbnew,5.1.5-52549c5~86~ubuntu16.04.1*%
%TF.CreationDate,2020-11-10T00:01:26+05:30*%
%TF.ProjectId,Buzzer Module V1.0,42757a7a-6572-4204-9d6f-64756c652056,V1.0*%
%TF.SameCoordinates,Original*%
%TF.FileFunction,Legend,Top*%
%TF.FilePolarity,Positive*%
%FSLAX46Y46*%
G04 Gerber Fmt 4.6, Leading zero omitted, Abs format (unit mm)*
G04 Created by KiCad (PCBNEW 5.1.5-52549c5~86~ubuntu16.04.1) date 2020-11-10 00:01:26*
%MOMM*%
%LPD*%
G04 APERTURE LIST*
%ADD10C,0.200000*%
%ADD11C,0.120000*%
%ADD12C,0.150000*%
G04 APERTURE END LIST*
D10*
X119316666Y-124547380D02*
X119650000Y-125547380D01*
X119983333Y-124547380D01*
X120888095Y-125452142D02*
X120840476Y-125499761D01*
X120697619Y-125547380D01*
X120602380Y-125547380D01*
X120459523Y-125499761D01*
X120364285Y-125404523D01*
X120316666Y-125309285D01*
X120269047Y-125118809D01*
X120269047Y-124975952D01*
X120316666Y-124785476D01*
X120364285Y-124690238D01*
X120459523Y-124595000D01*
X120602380Y-124547380D01*
X120697619Y-124547380D01*
X120840476Y-124595000D01*
X120888095Y-124642619D01*
X121888095Y-125452142D02*
X121840476Y-125499761D01*
X121697619Y-125547380D01*
X121602380Y-125547380D01*
X121459523Y-125499761D01*
X121364285Y-125404523D01*
X121316666Y-125309285D01*
X121269047Y-125118809D01*
X121269047Y-124975952D01*
X121316666Y-124785476D01*
X121364285Y-124690238D01*
X121459523Y-124595000D01*
X121602380Y-124547380D01*
X121697619Y-124547380D01*
X121840476Y-124595000D01*
X121888095Y-124642619D01*
X119491190Y-123007380D02*
X119491190Y-122007380D01*
X119967380Y-123007380D02*
X119967380Y-122007380D01*
X120538809Y-123007380D01*
X120538809Y-122007380D01*
X119888095Y-119515000D02*
X119792857Y-119467380D01*
X119650000Y-119467380D01*
X119507142Y-119515000D01*
X119411904Y-119610238D01*
X119364285Y-119705476D01*
X119316666Y-119895952D01*
X119316666Y-120038809D01*
X119364285Y-120229285D01*
X119411904Y-120324523D01*
X119507142Y-120419761D01*
X119650000Y-120467380D01*
X119745238Y-120467380D01*
X119888095Y-120419761D01*
X119935714Y-120372142D01*
X119935714Y-120038809D01*
X119745238Y-120038809D01*
X120364285Y-120467380D02*
X120364285Y-119467380D01*
X120935714Y-120467380D01*
X120935714Y-119467380D01*
X121411904Y-120467380D02*
X121411904Y-119467380D01*
X121650000Y-119467380D01*
X121792857Y-119515000D01*
X121888095Y-119610238D01*
X121935714Y-119705476D01*
X121983333Y-119895952D01*
X121983333Y-120038809D01*
X121935714Y-120229285D01*
X121888095Y-120324523D01*
X121792857Y-120419761D01*
X121650000Y-120467380D01*
X121411904Y-120467380D01*
D11*
%TO.C,J1*%
X116145000Y-118630000D02*
X117475000Y-118630000D01*
X116145000Y-119960000D02*
X116145000Y-118630000D01*
X116145000Y-121230000D02*
X118805000Y-121230000D01*
X118805000Y-121230000D02*
X118805000Y-126370000D01*
X116145000Y-121230000D02*
X116145000Y-126370000D01*
X116145000Y-126370000D02*
X118805000Y-126370000D01*
%TO.C,BZ1*%
X134370000Y-122565000D02*
G75*
G03X134370000Y-122565000I-6100000J0D01*
G01*
D12*
X123071047Y-128833571D02*
X123213904Y-128881190D01*
X123261523Y-128928809D01*
X123309142Y-129024047D01*
X123309142Y-129166904D01*
X123261523Y-129262142D01*
X123213904Y-129309761D01*
X123118666Y-129357380D01*
X122737714Y-129357380D01*
X122737714Y-128357380D01*
X123071047Y-128357380D01*
X123166285Y-128405000D01*
X123213904Y-128452619D01*
X123261523Y-128547857D01*
X123261523Y-128643095D01*
X123213904Y-128738333D01*
X123166285Y-128785952D01*
X123071047Y-128833571D01*
X122737714Y-128833571D01*
X123642476Y-128357380D02*
X124309142Y-128357380D01*
X123642476Y-129357380D01*
X124309142Y-129357380D01*
X125213904Y-129357380D02*
X124642476Y-129357380D01*
X124928190Y-129357380D02*
X124928190Y-128357380D01*
X124832952Y-128500238D01*
X124737714Y-128595476D01*
X124642476Y-128643095D01*
X125801428Y-126755952D02*
X125801428Y-125994047D01*
X126182380Y-126375000D02*
X125420476Y-126375000D01*
%TD*%
M02*
