%TF.GenerationSoftware,KiCad,Pcbnew,5.1.5-52549c5~86~ubuntu16.04.1*%
%TF.CreationDate,2020-11-10T00:01:26+05:30*%
%TF.ProjectId,Buzzer Module V1.0,42757a7a-6572-4204-9d6f-64756c652056,V1.0*%
%TF.SameCoordinates,Original*%
%TF.FileFunction,Paste,Bot*%
%TF.FilePolarity,Positive*%
%FSLAX46Y46*%
G04 Gerber Fmt 4.6, Leading zero omitted, Abs format (unit mm)*
G04 Created by KiCad (PCBNEW 5.1.5-52549c5~86~ubuntu16.04.1) date 2020-11-10 00:01:26*
%MOMM*%
%LPD*%
G04 APERTURE LIST*
%ADD10C,0.100000*%
%ADD11R,1.300000X0.600000*%
G04 APERTURE END LIST*
D10*
%TO.C,R2*%
G36*
X131925142Y-121131174D02*
G01*
X131948803Y-121134684D01*
X131972007Y-121140496D01*
X131994529Y-121148554D01*
X132016153Y-121158782D01*
X132036670Y-121171079D01*
X132055883Y-121185329D01*
X132073607Y-121201393D01*
X132089671Y-121219117D01*
X132103921Y-121238330D01*
X132116218Y-121258847D01*
X132126446Y-121280471D01*
X132134504Y-121302993D01*
X132140316Y-121326197D01*
X132143826Y-121349858D01*
X132145000Y-121373750D01*
X132145000Y-121861250D01*
X132143826Y-121885142D01*
X132140316Y-121908803D01*
X132134504Y-121932007D01*
X132126446Y-121954529D01*
X132116218Y-121976153D01*
X132103921Y-121996670D01*
X132089671Y-122015883D01*
X132073607Y-122033607D01*
X132055883Y-122049671D01*
X132036670Y-122063921D01*
X132016153Y-122076218D01*
X131994529Y-122086446D01*
X131972007Y-122094504D01*
X131948803Y-122100316D01*
X131925142Y-122103826D01*
X131901250Y-122105000D01*
X130988750Y-122105000D01*
X130964858Y-122103826D01*
X130941197Y-122100316D01*
X130917993Y-122094504D01*
X130895471Y-122086446D01*
X130873847Y-122076218D01*
X130853330Y-122063921D01*
X130834117Y-122049671D01*
X130816393Y-122033607D01*
X130800329Y-122015883D01*
X130786079Y-121996670D01*
X130773782Y-121976153D01*
X130763554Y-121954529D01*
X130755496Y-121932007D01*
X130749684Y-121908803D01*
X130746174Y-121885142D01*
X130745000Y-121861250D01*
X130745000Y-121373750D01*
X130746174Y-121349858D01*
X130749684Y-121326197D01*
X130755496Y-121302993D01*
X130763554Y-121280471D01*
X130773782Y-121258847D01*
X130786079Y-121238330D01*
X130800329Y-121219117D01*
X130816393Y-121201393D01*
X130834117Y-121185329D01*
X130853330Y-121171079D01*
X130873847Y-121158782D01*
X130895471Y-121148554D01*
X130917993Y-121140496D01*
X130941197Y-121134684D01*
X130964858Y-121131174D01*
X130988750Y-121130000D01*
X131901250Y-121130000D01*
X131925142Y-121131174D01*
G37*
G36*
X131925142Y-123006174D02*
G01*
X131948803Y-123009684D01*
X131972007Y-123015496D01*
X131994529Y-123023554D01*
X132016153Y-123033782D01*
X132036670Y-123046079D01*
X132055883Y-123060329D01*
X132073607Y-123076393D01*
X132089671Y-123094117D01*
X132103921Y-123113330D01*
X132116218Y-123133847D01*
X132126446Y-123155471D01*
X132134504Y-123177993D01*
X132140316Y-123201197D01*
X132143826Y-123224858D01*
X132145000Y-123248750D01*
X132145000Y-123736250D01*
X132143826Y-123760142D01*
X132140316Y-123783803D01*
X132134504Y-123807007D01*
X132126446Y-123829529D01*
X132116218Y-123851153D01*
X132103921Y-123871670D01*
X132089671Y-123890883D01*
X132073607Y-123908607D01*
X132055883Y-123924671D01*
X132036670Y-123938921D01*
X132016153Y-123951218D01*
X131994529Y-123961446D01*
X131972007Y-123969504D01*
X131948803Y-123975316D01*
X131925142Y-123978826D01*
X131901250Y-123980000D01*
X130988750Y-123980000D01*
X130964858Y-123978826D01*
X130941197Y-123975316D01*
X130917993Y-123969504D01*
X130895471Y-123961446D01*
X130873847Y-123951218D01*
X130853330Y-123938921D01*
X130834117Y-123924671D01*
X130816393Y-123908607D01*
X130800329Y-123890883D01*
X130786079Y-123871670D01*
X130773782Y-123851153D01*
X130763554Y-123829529D01*
X130755496Y-123807007D01*
X130749684Y-123783803D01*
X130746174Y-123760142D01*
X130745000Y-123736250D01*
X130745000Y-123248750D01*
X130746174Y-123224858D01*
X130749684Y-123201197D01*
X130755496Y-123177993D01*
X130763554Y-123155471D01*
X130773782Y-123133847D01*
X130786079Y-123113330D01*
X130800329Y-123094117D01*
X130816393Y-123076393D01*
X130834117Y-123060329D01*
X130853330Y-123046079D01*
X130873847Y-123033782D01*
X130895471Y-123023554D01*
X130917993Y-123015496D01*
X130941197Y-123009684D01*
X130964858Y-123006174D01*
X130988750Y-123005000D01*
X131901250Y-123005000D01*
X131925142Y-123006174D01*
G37*
%TD*%
%TO.C,R1*%
G36*
X120444605Y-122813523D02*
G01*
X120468266Y-122817033D01*
X120491470Y-122822845D01*
X120513992Y-122830903D01*
X120535616Y-122841131D01*
X120556133Y-122853428D01*
X120575346Y-122867678D01*
X120593070Y-122883742D01*
X120609134Y-122901466D01*
X120623384Y-122920679D01*
X120635681Y-122941196D01*
X120645909Y-122962820D01*
X120653967Y-122985342D01*
X120659779Y-123008546D01*
X120663289Y-123032207D01*
X120664463Y-123056099D01*
X120664463Y-123968599D01*
X120663289Y-123992491D01*
X120659779Y-124016152D01*
X120653967Y-124039356D01*
X120645909Y-124061878D01*
X120635681Y-124083502D01*
X120623384Y-124104019D01*
X120609134Y-124123232D01*
X120593070Y-124140956D01*
X120575346Y-124157020D01*
X120556133Y-124171270D01*
X120535616Y-124183567D01*
X120513992Y-124193795D01*
X120491470Y-124201853D01*
X120468266Y-124207665D01*
X120444605Y-124211175D01*
X120420713Y-124212349D01*
X119933213Y-124212349D01*
X119909321Y-124211175D01*
X119885660Y-124207665D01*
X119862456Y-124201853D01*
X119839934Y-124193795D01*
X119818310Y-124183567D01*
X119797793Y-124171270D01*
X119778580Y-124157020D01*
X119760856Y-124140956D01*
X119744792Y-124123232D01*
X119730542Y-124104019D01*
X119718245Y-124083502D01*
X119708017Y-124061878D01*
X119699959Y-124039356D01*
X119694147Y-124016152D01*
X119690637Y-123992491D01*
X119689463Y-123968599D01*
X119689463Y-123056099D01*
X119690637Y-123032207D01*
X119694147Y-123008546D01*
X119699959Y-122985342D01*
X119708017Y-122962820D01*
X119718245Y-122941196D01*
X119730542Y-122920679D01*
X119744792Y-122901466D01*
X119760856Y-122883742D01*
X119778580Y-122867678D01*
X119797793Y-122853428D01*
X119818310Y-122841131D01*
X119839934Y-122830903D01*
X119862456Y-122822845D01*
X119885660Y-122817033D01*
X119909321Y-122813523D01*
X119933213Y-122812349D01*
X120420713Y-122812349D01*
X120444605Y-122813523D01*
G37*
G36*
X122319605Y-122813523D02*
G01*
X122343266Y-122817033D01*
X122366470Y-122822845D01*
X122388992Y-122830903D01*
X122410616Y-122841131D01*
X122431133Y-122853428D01*
X122450346Y-122867678D01*
X122468070Y-122883742D01*
X122484134Y-122901466D01*
X122498384Y-122920679D01*
X122510681Y-122941196D01*
X122520909Y-122962820D01*
X122528967Y-122985342D01*
X122534779Y-123008546D01*
X122538289Y-123032207D01*
X122539463Y-123056099D01*
X122539463Y-123968599D01*
X122538289Y-123992491D01*
X122534779Y-124016152D01*
X122528967Y-124039356D01*
X122520909Y-124061878D01*
X122510681Y-124083502D01*
X122498384Y-124104019D01*
X122484134Y-124123232D01*
X122468070Y-124140956D01*
X122450346Y-124157020D01*
X122431133Y-124171270D01*
X122410616Y-124183567D01*
X122388992Y-124193795D01*
X122366470Y-124201853D01*
X122343266Y-124207665D01*
X122319605Y-124211175D01*
X122295713Y-124212349D01*
X121808213Y-124212349D01*
X121784321Y-124211175D01*
X121760660Y-124207665D01*
X121737456Y-124201853D01*
X121714934Y-124193795D01*
X121693310Y-124183567D01*
X121672793Y-124171270D01*
X121653580Y-124157020D01*
X121635856Y-124140956D01*
X121619792Y-124123232D01*
X121605542Y-124104019D01*
X121593245Y-124083502D01*
X121583017Y-124061878D01*
X121574959Y-124039356D01*
X121569147Y-124016152D01*
X121565637Y-123992491D01*
X121564463Y-123968599D01*
X121564463Y-123056099D01*
X121565637Y-123032207D01*
X121569147Y-123008546D01*
X121574959Y-122985342D01*
X121583017Y-122962820D01*
X121593245Y-122941196D01*
X121605542Y-122920679D01*
X121619792Y-122901466D01*
X121635856Y-122883742D01*
X121653580Y-122867678D01*
X121672793Y-122853428D01*
X121693310Y-122841131D01*
X121714934Y-122830903D01*
X121737456Y-122822845D01*
X121760660Y-122817033D01*
X121784321Y-122813523D01*
X121808213Y-122812349D01*
X122295713Y-122812349D01*
X122319605Y-122813523D01*
G37*
%TD*%
D11*
%TO.C,Q1*%
X124045000Y-123505000D03*
X124045000Y-121605000D03*
X126145000Y-122555000D03*
%TD*%
M02*
