%TF.GenerationSoftware,KiCad,Pcbnew,5.1.5-52549c5~86~ubuntu16.04.1*%
%TF.CreationDate,2020-11-10T00:01:26+05:30*%
%TF.ProjectId,Buzzer Module V1.0,42757a7a-6572-4204-9d6f-64756c652056,V1.0*%
%TF.SameCoordinates,Original*%
%TF.FileFunction,Legend,Bot*%
%TF.FilePolarity,Positive*%
%FSLAX46Y46*%
G04 Gerber Fmt 4.6, Leading zero omitted, Abs format (unit mm)*
G04 Created by KiCad (PCBNEW 5.1.5-52549c5~86~ubuntu16.04.1) date 2020-11-10 00:01:26*
%MOMM*%
%LPD*%
G04 APERTURE LIST*
%ADD10C,0.010000*%
%ADD11C,0.120000*%
%ADD12C,0.100000*%
%ADD13C,0.150000*%
G04 APERTURE END LIST*
D10*
%TO.C,G\002A\002A\002A*%
G36*
X135148434Y-124916992D02*
G01*
X135135927Y-124900071D01*
X135129375Y-124892015D01*
X135105349Y-124863236D01*
X135055878Y-124951601D01*
X135030330Y-124997094D01*
X135001942Y-125047421D01*
X134974984Y-125095020D01*
X134961370Y-125118954D01*
X134943036Y-125151281D01*
X134928298Y-125177597D01*
X134918879Y-125194800D01*
X134916334Y-125199920D01*
X134921823Y-125206403D01*
X134935582Y-125220280D01*
X134941789Y-125226287D01*
X134961361Y-125241782D01*
X134973885Y-125243466D01*
X134976110Y-125241810D01*
X134982688Y-125232126D01*
X134995700Y-125210580D01*
X135013637Y-125179858D01*
X135034990Y-125142647D01*
X135058250Y-125101632D01*
X135081907Y-125059500D01*
X135104452Y-125018937D01*
X135124376Y-124982628D01*
X135140171Y-124953261D01*
X135150326Y-124933520D01*
X135153400Y-124926255D01*
X135148434Y-124916992D01*
G37*
X135148434Y-124916992D02*
X135135927Y-124900071D01*
X135129375Y-124892015D01*
X135105349Y-124863236D01*
X135055878Y-124951601D01*
X135030330Y-124997094D01*
X135001942Y-125047421D01*
X134974984Y-125095020D01*
X134961370Y-125118954D01*
X134943036Y-125151281D01*
X134928298Y-125177597D01*
X134918879Y-125194800D01*
X134916334Y-125199920D01*
X134921823Y-125206403D01*
X134935582Y-125220280D01*
X134941789Y-125226287D01*
X134961361Y-125241782D01*
X134973885Y-125243466D01*
X134976110Y-125241810D01*
X134982688Y-125232126D01*
X134995700Y-125210580D01*
X135013637Y-125179858D01*
X135034990Y-125142647D01*
X135058250Y-125101632D01*
X135081907Y-125059500D01*
X135104452Y-125018937D01*
X135124376Y-124982628D01*
X135140171Y-124953261D01*
X135150326Y-124933520D01*
X135153400Y-124926255D01*
X135148434Y-124916992D01*
G36*
X135346227Y-125379580D02*
G01*
X135344026Y-125344144D01*
X135340692Y-125323600D01*
X135315101Y-125237680D01*
X135291474Y-125165519D01*
X135270066Y-125107797D01*
X135251135Y-125065190D01*
X135234938Y-125038377D01*
X135231061Y-125033928D01*
X135225387Y-125039149D01*
X135212874Y-125057169D01*
X135194803Y-125085926D01*
X135172456Y-125123360D01*
X135147113Y-125167409D01*
X135137925Y-125183736D01*
X135050707Y-125339583D01*
X135080269Y-125401441D01*
X135113475Y-125489452D01*
X135131444Y-125580707D01*
X135134497Y-125672989D01*
X135122954Y-125764077D01*
X135097133Y-125851754D01*
X135057356Y-125933799D01*
X135003941Y-126007993D01*
X134990745Y-126022664D01*
X134919796Y-126087549D01*
X134836485Y-126144988D01*
X134744503Y-126192926D01*
X134647541Y-126229310D01*
X134594035Y-126243514D01*
X134535820Y-126256661D01*
X134423393Y-126456284D01*
X134388690Y-126517915D01*
X134361452Y-126566375D01*
X134340837Y-126603245D01*
X134326001Y-126630112D01*
X134316103Y-126648556D01*
X134310299Y-126660163D01*
X134307747Y-126666516D01*
X134307604Y-126669198D01*
X134309027Y-126669792D01*
X134309770Y-126669800D01*
X134319147Y-126667482D01*
X134341383Y-126661170D01*
X134373148Y-126651831D01*
X134410890Y-126640497D01*
X134561195Y-126586701D01*
X134701713Y-126519498D01*
X134831953Y-126439185D01*
X134951423Y-126346060D01*
X135043333Y-126257900D01*
X135128396Y-126158169D01*
X135199001Y-126052868D01*
X135256229Y-125939931D01*
X135301164Y-125817289D01*
X135328484Y-125713067D01*
X135333797Y-125680964D01*
X135338368Y-125637803D01*
X135342087Y-125587111D01*
X135344843Y-125532415D01*
X135346526Y-125477243D01*
X135347024Y-125425122D01*
X135346227Y-125379580D01*
G37*
X135346227Y-125379580D02*
X135344026Y-125344144D01*
X135340692Y-125323600D01*
X135315101Y-125237680D01*
X135291474Y-125165519D01*
X135270066Y-125107797D01*
X135251135Y-125065190D01*
X135234938Y-125038377D01*
X135231061Y-125033928D01*
X135225387Y-125039149D01*
X135212874Y-125057169D01*
X135194803Y-125085926D01*
X135172456Y-125123360D01*
X135147113Y-125167409D01*
X135137925Y-125183736D01*
X135050707Y-125339583D01*
X135080269Y-125401441D01*
X135113475Y-125489452D01*
X135131444Y-125580707D01*
X135134497Y-125672989D01*
X135122954Y-125764077D01*
X135097133Y-125851754D01*
X135057356Y-125933799D01*
X135003941Y-126007993D01*
X134990745Y-126022664D01*
X134919796Y-126087549D01*
X134836485Y-126144988D01*
X134744503Y-126192926D01*
X134647541Y-126229310D01*
X134594035Y-126243514D01*
X134535820Y-126256661D01*
X134423393Y-126456284D01*
X134388690Y-126517915D01*
X134361452Y-126566375D01*
X134340837Y-126603245D01*
X134326001Y-126630112D01*
X134316103Y-126648556D01*
X134310299Y-126660163D01*
X134307747Y-126666516D01*
X134307604Y-126669198D01*
X134309027Y-126669792D01*
X134309770Y-126669800D01*
X134319147Y-126667482D01*
X134341383Y-126661170D01*
X134373148Y-126651831D01*
X134410890Y-126640497D01*
X134561195Y-126586701D01*
X134701713Y-126519498D01*
X134831953Y-126439185D01*
X134951423Y-126346060D01*
X135043333Y-126257900D01*
X135128396Y-126158169D01*
X135199001Y-126052868D01*
X135256229Y-125939931D01*
X135301164Y-125817289D01*
X135328484Y-125713067D01*
X135333797Y-125680964D01*
X135338368Y-125637803D01*
X135342087Y-125587111D01*
X135344843Y-125532415D01*
X135346526Y-125477243D01*
X135347024Y-125425122D01*
X135346227Y-125379580D01*
G36*
X135005939Y-124775285D02*
G01*
X134986749Y-124760561D01*
X134960482Y-124741604D01*
X134947987Y-124732881D01*
X134852934Y-124674868D01*
X134745524Y-124622938D01*
X134629724Y-124578681D01*
X134509502Y-124543686D01*
X134435194Y-124527472D01*
X134397167Y-124520539D01*
X134365773Y-124515339D01*
X134344411Y-124512399D01*
X134336522Y-124512162D01*
X134335817Y-124520870D01*
X134334617Y-124545217D01*
X134332972Y-124583918D01*
X134330928Y-124635686D01*
X134328532Y-124699235D01*
X134325832Y-124773281D01*
X134322876Y-124856536D01*
X134319711Y-124947716D01*
X134316384Y-125045534D01*
X134312942Y-125148706D01*
X134311922Y-125179666D01*
X134308352Y-125287756D01*
X134304824Y-125393520D01*
X134301392Y-125495354D01*
X134298114Y-125591650D01*
X134295043Y-125680802D01*
X134292236Y-125761203D01*
X134289750Y-125831246D01*
X134287639Y-125889325D01*
X134285959Y-125933833D01*
X134284766Y-125963163D01*
X134284687Y-125964950D01*
X134283227Y-126008426D01*
X134282942Y-126044761D01*
X134283783Y-126071051D01*
X134285704Y-126084395D01*
X134286660Y-126085471D01*
X134292775Y-126078364D01*
X134305723Y-126058558D01*
X134324202Y-126028207D01*
X134346912Y-125989463D01*
X134372554Y-125944482D01*
X134382506Y-125926721D01*
X134470978Y-125768100D01*
X134481694Y-125450600D01*
X134484236Y-125378261D01*
X134486801Y-125310743D01*
X134489299Y-125250040D01*
X134491639Y-125198144D01*
X134493731Y-125157050D01*
X134495485Y-125128751D01*
X134496812Y-125115242D01*
X134496887Y-125114896D01*
X134507692Y-125098954D01*
X134524699Y-125088667D01*
X134551556Y-125084657D01*
X134590180Y-125085713D01*
X134636370Y-125091268D01*
X134685924Y-125100757D01*
X134734640Y-125113612D01*
X134752311Y-125119348D01*
X134822290Y-125143469D01*
X134920720Y-124967009D01*
X134948105Y-124917288D01*
X134972178Y-124872372D01*
X134991854Y-124834386D01*
X135006047Y-124805457D01*
X135013673Y-124787711D01*
X135014577Y-124783151D01*
X135005939Y-124775285D01*
G37*
X135005939Y-124775285D02*
X134986749Y-124760561D01*
X134960482Y-124741604D01*
X134947987Y-124732881D01*
X134852934Y-124674868D01*
X134745524Y-124622938D01*
X134629724Y-124578681D01*
X134509502Y-124543686D01*
X134435194Y-124527472D01*
X134397167Y-124520539D01*
X134365773Y-124515339D01*
X134344411Y-124512399D01*
X134336522Y-124512162D01*
X134335817Y-124520870D01*
X134334617Y-124545217D01*
X134332972Y-124583918D01*
X134330928Y-124635686D01*
X134328532Y-124699235D01*
X134325832Y-124773281D01*
X134322876Y-124856536D01*
X134319711Y-124947716D01*
X134316384Y-125045534D01*
X134312942Y-125148706D01*
X134311922Y-125179666D01*
X134308352Y-125287756D01*
X134304824Y-125393520D01*
X134301392Y-125495354D01*
X134298114Y-125591650D01*
X134295043Y-125680802D01*
X134292236Y-125761203D01*
X134289750Y-125831246D01*
X134287639Y-125889325D01*
X134285959Y-125933833D01*
X134284766Y-125963163D01*
X134284687Y-125964950D01*
X134283227Y-126008426D01*
X134282942Y-126044761D01*
X134283783Y-126071051D01*
X134285704Y-126084395D01*
X134286660Y-126085471D01*
X134292775Y-126078364D01*
X134305723Y-126058558D01*
X134324202Y-126028207D01*
X134346912Y-125989463D01*
X134372554Y-125944482D01*
X134382506Y-125926721D01*
X134470978Y-125768100D01*
X134481694Y-125450600D01*
X134484236Y-125378261D01*
X134486801Y-125310743D01*
X134489299Y-125250040D01*
X134491639Y-125198144D01*
X134493731Y-125157050D01*
X134495485Y-125128751D01*
X134496812Y-125115242D01*
X134496887Y-125114896D01*
X134507692Y-125098954D01*
X134524699Y-125088667D01*
X134551556Y-125084657D01*
X134590180Y-125085713D01*
X134636370Y-125091268D01*
X134685924Y-125100757D01*
X134734640Y-125113612D01*
X134752311Y-125119348D01*
X134822290Y-125143469D01*
X134920720Y-124967009D01*
X134948105Y-124917288D01*
X134972178Y-124872372D01*
X134991854Y-124834386D01*
X135006047Y-124805457D01*
X135013673Y-124787711D01*
X135014577Y-124783151D01*
X135005939Y-124775285D01*
G36*
X134458398Y-126070773D02*
G01*
X134456445Y-126047262D01*
X134453653Y-126035565D01*
X134452784Y-126034952D01*
X134447758Y-126042074D01*
X134435515Y-126062183D01*
X134417075Y-126093475D01*
X134393461Y-126134142D01*
X134365695Y-126182379D01*
X134334798Y-126236380D01*
X134301791Y-126294340D01*
X134267697Y-126354453D01*
X134233538Y-126414913D01*
X134200334Y-126473913D01*
X134169109Y-126529649D01*
X134140883Y-126580314D01*
X134116678Y-126624102D01*
X134097517Y-126659208D01*
X134084420Y-126683826D01*
X134078409Y-126696150D01*
X134078133Y-126697114D01*
X134085675Y-126698929D01*
X134104873Y-126698544D01*
X134118350Y-126697402D01*
X134144151Y-126693007D01*
X134163185Y-126686696D01*
X134167820Y-126683625D01*
X134174021Y-126674178D01*
X134187421Y-126651713D01*
X134206995Y-126618012D01*
X134231721Y-126574861D01*
X134260574Y-126524044D01*
X134292531Y-126467345D01*
X134318104Y-126421706D01*
X134459134Y-126169378D01*
X134459134Y-126102089D01*
X134458398Y-126070773D01*
G37*
X134458398Y-126070773D02*
X134456445Y-126047262D01*
X134453653Y-126035565D01*
X134452784Y-126034952D01*
X134447758Y-126042074D01*
X134435515Y-126062183D01*
X134417075Y-126093475D01*
X134393461Y-126134142D01*
X134365695Y-126182379D01*
X134334798Y-126236380D01*
X134301791Y-126294340D01*
X134267697Y-126354453D01*
X134233538Y-126414913D01*
X134200334Y-126473913D01*
X134169109Y-126529649D01*
X134140883Y-126580314D01*
X134116678Y-126624102D01*
X134097517Y-126659208D01*
X134084420Y-126683826D01*
X134078409Y-126696150D01*
X134078133Y-126697114D01*
X134085675Y-126698929D01*
X134104873Y-126698544D01*
X134118350Y-126697402D01*
X134144151Y-126693007D01*
X134163185Y-126686696D01*
X134167820Y-126683625D01*
X134174021Y-126674178D01*
X134187421Y-126651713D01*
X134206995Y-126618012D01*
X134231721Y-126574861D01*
X134260574Y-126524044D01*
X134292531Y-126467345D01*
X134318104Y-126421706D01*
X134459134Y-126169378D01*
X134459134Y-126102089D01*
X134458398Y-126070773D01*
G36*
X134197652Y-118430147D02*
G01*
X134180857Y-118416359D01*
X134165780Y-118409058D01*
X134146432Y-118406662D01*
X134116825Y-118407593D01*
X134112985Y-118407813D01*
X134056967Y-118411076D01*
X133472767Y-118870534D01*
X133468534Y-118658891D01*
X133464300Y-118447248D01*
X133435652Y-118421666D01*
X133419203Y-118408108D01*
X133404461Y-118400786D01*
X133385659Y-118398218D01*
X133357027Y-118398923D01*
X133348825Y-118399371D01*
X133314221Y-118402541D01*
X133291496Y-118408248D01*
X133275628Y-118417940D01*
X133271639Y-118421657D01*
X133252634Y-118440656D01*
X133250254Y-118799833D01*
X133247874Y-119159011D01*
X133271420Y-119185133D01*
X133303590Y-119208560D01*
X133344784Y-119218472D01*
X133387299Y-119215609D01*
X133399251Y-119210878D01*
X133418658Y-119199466D01*
X133446357Y-119180760D01*
X133483184Y-119154144D01*
X133529977Y-119119004D01*
X133587572Y-119074727D01*
X133656806Y-119020698D01*
X133711622Y-118977553D01*
X134006167Y-118745085D01*
X134010400Y-118948991D01*
X134014633Y-119152898D01*
X134038389Y-119173316D01*
X134055154Y-119185079D01*
X134074426Y-119191312D01*
X134102208Y-119193583D01*
X134116572Y-119193733D01*
X134148135Y-119192797D01*
X134169130Y-119188722D01*
X134185875Y-119179605D01*
X134198650Y-119169028D01*
X134226300Y-119144322D01*
X134226300Y-118455744D01*
X134197652Y-118430147D01*
G37*
X134197652Y-118430147D02*
X134180857Y-118416359D01*
X134165780Y-118409058D01*
X134146432Y-118406662D01*
X134116825Y-118407593D01*
X134112985Y-118407813D01*
X134056967Y-118411076D01*
X133472767Y-118870534D01*
X133468534Y-118658891D01*
X133464300Y-118447248D01*
X133435652Y-118421666D01*
X133419203Y-118408108D01*
X133404461Y-118400786D01*
X133385659Y-118398218D01*
X133357027Y-118398923D01*
X133348825Y-118399371D01*
X133314221Y-118402541D01*
X133291496Y-118408248D01*
X133275628Y-118417940D01*
X133271639Y-118421657D01*
X133252634Y-118440656D01*
X133250254Y-118799833D01*
X133247874Y-119159011D01*
X133271420Y-119185133D01*
X133303590Y-119208560D01*
X133344784Y-119218472D01*
X133387299Y-119215609D01*
X133399251Y-119210878D01*
X133418658Y-119199466D01*
X133446357Y-119180760D01*
X133483184Y-119154144D01*
X133529977Y-119119004D01*
X133587572Y-119074727D01*
X133656806Y-119020698D01*
X133711622Y-118977553D01*
X134006167Y-118745085D01*
X134010400Y-118948991D01*
X134014633Y-119152898D01*
X134038389Y-119173316D01*
X134055154Y-119185079D01*
X134074426Y-119191312D01*
X134102208Y-119193583D01*
X134116572Y-119193733D01*
X134148135Y-119192797D01*
X134169130Y-119188722D01*
X134185875Y-119179605D01*
X134198650Y-119169028D01*
X134226300Y-119144322D01*
X134226300Y-118455744D01*
X134197652Y-118430147D01*
G36*
X134230931Y-120239575D02*
G01*
X134210338Y-120154224D01*
X134183660Y-120091200D01*
X134148161Y-120036977D01*
X134102328Y-119993738D01*
X134044331Y-119960052D01*
X133989726Y-119939568D01*
X133973553Y-119934857D01*
X133957389Y-119931062D01*
X133939251Y-119928085D01*
X133917156Y-119925826D01*
X133889122Y-119924188D01*
X133853164Y-119923073D01*
X133807301Y-119922382D01*
X133749548Y-119922017D01*
X133677923Y-119921880D01*
X133632470Y-119921867D01*
X133546777Y-119921961D01*
X133476369Y-119922392D01*
X133419597Y-119923381D01*
X133374811Y-119925149D01*
X133340364Y-119927917D01*
X133314606Y-119931905D01*
X133295889Y-119937335D01*
X133282564Y-119944428D01*
X133272982Y-119953404D01*
X133265495Y-119964486D01*
X133261663Y-119971579D01*
X133250116Y-120007604D01*
X133248866Y-120046733D01*
X133256810Y-120084523D01*
X133272846Y-120116535D01*
X133295873Y-120138327D01*
X133303989Y-120142211D01*
X133317985Y-120144328D01*
X133347087Y-120146211D01*
X133389466Y-120147810D01*
X133443296Y-120149076D01*
X133506749Y-120149961D01*
X133577997Y-120150415D01*
X133612467Y-120150467D01*
X133699376Y-120150747D01*
X133773378Y-120151572D01*
X133833649Y-120152918D01*
X133879367Y-120154760D01*
X133909708Y-120157076D01*
X133923066Y-120159497D01*
X133963819Y-120183064D01*
X133992521Y-120218380D01*
X134009244Y-120265568D01*
X134014097Y-120315566D01*
X134006683Y-120379555D01*
X133983890Y-120438006D01*
X133946687Y-120488680D01*
X133933924Y-120501076D01*
X133900285Y-120531466D01*
X133612994Y-120531466D01*
X133538713Y-120531709D01*
X133471408Y-120532403D01*
X133412903Y-120533500D01*
X133365023Y-120534952D01*
X133329589Y-120536709D01*
X133308426Y-120538724D01*
X133303989Y-120539722D01*
X133278970Y-120557608D01*
X133260717Y-120586935D01*
X133250249Y-120623219D01*
X133248584Y-120661973D01*
X133256742Y-120698710D01*
X133264364Y-120714175D01*
X133282391Y-120735213D01*
X133304017Y-120750080D01*
X133304750Y-120750392D01*
X133315588Y-120752858D01*
X133335749Y-120754870D01*
X133366269Y-120756444D01*
X133408180Y-120757599D01*
X133462515Y-120758353D01*
X133530307Y-120758723D01*
X133612590Y-120758729D01*
X133710398Y-120758388D01*
X133749701Y-120758184D01*
X134170167Y-120755833D01*
X134195788Y-120731280D01*
X134215622Y-120702817D01*
X134226335Y-120667434D01*
X134227909Y-120630029D01*
X134220329Y-120595500D01*
X134203577Y-120568746D01*
X134196371Y-120562692D01*
X134188081Y-120555820D01*
X134185277Y-120547587D01*
X134188260Y-120533598D01*
X134197335Y-120509459D01*
X134200607Y-120501282D01*
X134226180Y-120415872D01*
X134236250Y-120327714D01*
X134230931Y-120239575D01*
G37*
X134230931Y-120239575D02*
X134210338Y-120154224D01*
X134183660Y-120091200D01*
X134148161Y-120036977D01*
X134102328Y-119993738D01*
X134044331Y-119960052D01*
X133989726Y-119939568D01*
X133973553Y-119934857D01*
X133957389Y-119931062D01*
X133939251Y-119928085D01*
X133917156Y-119925826D01*
X133889122Y-119924188D01*
X133853164Y-119923073D01*
X133807301Y-119922382D01*
X133749548Y-119922017D01*
X133677923Y-119921880D01*
X133632470Y-119921867D01*
X133546777Y-119921961D01*
X133476369Y-119922392D01*
X133419597Y-119923381D01*
X133374811Y-119925149D01*
X133340364Y-119927917D01*
X133314606Y-119931905D01*
X133295889Y-119937335D01*
X133282564Y-119944428D01*
X133272982Y-119953404D01*
X133265495Y-119964486D01*
X133261663Y-119971579D01*
X133250116Y-120007604D01*
X133248866Y-120046733D01*
X133256810Y-120084523D01*
X133272846Y-120116535D01*
X133295873Y-120138327D01*
X133303989Y-120142211D01*
X133317985Y-120144328D01*
X133347087Y-120146211D01*
X133389466Y-120147810D01*
X133443296Y-120149076D01*
X133506749Y-120149961D01*
X133577997Y-120150415D01*
X133612467Y-120150467D01*
X133699376Y-120150747D01*
X133773378Y-120151572D01*
X133833649Y-120152918D01*
X133879367Y-120154760D01*
X133909708Y-120157076D01*
X133923066Y-120159497D01*
X133963819Y-120183064D01*
X133992521Y-120218380D01*
X134009244Y-120265568D01*
X134014097Y-120315566D01*
X134006683Y-120379555D01*
X133983890Y-120438006D01*
X133946687Y-120488680D01*
X133933924Y-120501076D01*
X133900285Y-120531466D01*
X133612994Y-120531466D01*
X133538713Y-120531709D01*
X133471408Y-120532403D01*
X133412903Y-120533500D01*
X133365023Y-120534952D01*
X133329589Y-120536709D01*
X133308426Y-120538724D01*
X133303989Y-120539722D01*
X133278970Y-120557608D01*
X133260717Y-120586935D01*
X133250249Y-120623219D01*
X133248584Y-120661973D01*
X133256742Y-120698710D01*
X133264364Y-120714175D01*
X133282391Y-120735213D01*
X133304017Y-120750080D01*
X133304750Y-120750392D01*
X133315588Y-120752858D01*
X133335749Y-120754870D01*
X133366269Y-120756444D01*
X133408180Y-120757599D01*
X133462515Y-120758353D01*
X133530307Y-120758723D01*
X133612590Y-120758729D01*
X133710398Y-120758388D01*
X133749701Y-120758184D01*
X134170167Y-120755833D01*
X134195788Y-120731280D01*
X134215622Y-120702817D01*
X134226335Y-120667434D01*
X134227909Y-120630029D01*
X134220329Y-120595500D01*
X134203577Y-120568746D01*
X134196371Y-120562692D01*
X134188081Y-120555820D01*
X134185277Y-120547587D01*
X134188260Y-120533598D01*
X134197335Y-120509459D01*
X134200607Y-120501282D01*
X134226180Y-120415872D01*
X134236250Y-120327714D01*
X134230931Y-120239575D01*
G36*
X134222324Y-121883286D02*
G01*
X134196933Y-121813726D01*
X134159446Y-121755659D01*
X134109501Y-121708558D01*
X134046737Y-121671898D01*
X134029724Y-121664594D01*
X134017030Y-121659640D01*
X134004685Y-121655576D01*
X133990907Y-121652300D01*
X133973916Y-121649710D01*
X133951929Y-121647702D01*
X133923166Y-121646174D01*
X133885846Y-121645024D01*
X133838187Y-121644148D01*
X133778407Y-121643444D01*
X133704727Y-121642809D01*
X133643736Y-121642350D01*
X133306706Y-121639867D01*
X133277553Y-121669020D01*
X133260491Y-121687916D01*
X133251786Y-121705121D01*
X133248697Y-121727868D01*
X133248400Y-121746007D01*
X133250890Y-121779095D01*
X133257311Y-121808543D01*
X133261663Y-121819487D01*
X133268766Y-121831911D01*
X133277091Y-121842076D01*
X133288298Y-121850207D01*
X133304052Y-121856531D01*
X133326016Y-121861274D01*
X133355851Y-121864662D01*
X133395221Y-121866921D01*
X133445788Y-121868277D01*
X133509216Y-121868956D01*
X133587168Y-121869184D01*
X133627334Y-121869200D01*
X133705849Y-121869229D01*
X133769306Y-121869389D01*
X133819580Y-121869786D01*
X133858547Y-121870529D01*
X133888083Y-121871725D01*
X133910062Y-121873480D01*
X133926360Y-121875903D01*
X133938853Y-121879101D01*
X133949416Y-121883181D01*
X133959923Y-121888250D01*
X133986440Y-121904743D01*
X134002256Y-121924325D01*
X134009516Y-121941475D01*
X134016901Y-121987378D01*
X134009960Y-122035528D01*
X133990180Y-122082112D01*
X133959047Y-122123316D01*
X133928832Y-122148600D01*
X133897386Y-122169766D01*
X133597587Y-122174000D01*
X133297787Y-122178233D01*
X133273094Y-122205883D01*
X133258057Y-122225581D01*
X133250670Y-122245582D01*
X133248445Y-122273397D01*
X133248400Y-122280387D01*
X133250883Y-122312566D01*
X133257235Y-122341673D01*
X133261663Y-122352887D01*
X133268795Y-122365348D01*
X133277163Y-122375536D01*
X133288437Y-122383679D01*
X133304283Y-122390005D01*
X133326373Y-122394742D01*
X133356373Y-122398119D01*
X133395955Y-122400363D01*
X133446785Y-122401704D01*
X133510534Y-122402369D01*
X133588871Y-122402587D01*
X133625167Y-122402600D01*
X133708227Y-122402679D01*
X133776136Y-122403059D01*
X133830679Y-122403957D01*
X133873638Y-122405589D01*
X133906796Y-122408171D01*
X133931937Y-122411919D01*
X133950843Y-122417050D01*
X133965298Y-122423778D01*
X133977085Y-122432321D01*
X133987986Y-122442895D01*
X133991855Y-122447042D01*
X134007767Y-122474134D01*
X134015940Y-122513721D01*
X134015943Y-122513750D01*
X134017308Y-122543276D01*
X134013220Y-122567312D01*
X134001884Y-122594221D01*
X133996388Y-122604889D01*
X133977025Y-122635355D01*
X133953590Y-122663803D01*
X133939783Y-122676856D01*
X133907265Y-122703167D01*
X133297785Y-122711633D01*
X133273093Y-122739283D01*
X133258371Y-122758399D01*
X133250961Y-122777644D01*
X133248535Y-122804211D01*
X133248432Y-122815483D01*
X133252741Y-122859977D01*
X133264960Y-122891089D01*
X133290398Y-122917150D01*
X133313612Y-122927534D01*
X133329657Y-122929982D01*
X133359631Y-122931932D01*
X133404017Y-122933392D01*
X133463300Y-122934370D01*
X133537964Y-122934872D01*
X133628494Y-122934906D01*
X133735373Y-122934480D01*
X133757967Y-122934345D01*
X134170167Y-122931767D01*
X134195788Y-122907214D01*
X134215044Y-122879647D01*
X134225813Y-122845162D01*
X134228075Y-122808547D01*
X134221809Y-122774592D01*
X134206993Y-122748083D01*
X134196527Y-122739214D01*
X134187313Y-122732167D01*
X134185791Y-122723621D01*
X134192075Y-122708079D01*
X134197404Y-122697488D01*
X134224120Y-122627037D01*
X134235211Y-122552812D01*
X134230873Y-122477070D01*
X134211303Y-122402066D01*
X134176700Y-122330058D01*
X134163477Y-122309464D01*
X134146219Y-122283581D01*
X134137594Y-122267623D01*
X134136482Y-122257673D01*
X134141764Y-122249811D01*
X134145452Y-122246342D01*
X134170753Y-122215186D01*
X134193881Y-122171603D01*
X134213391Y-122120081D01*
X134227840Y-122065109D01*
X134235784Y-122011178D01*
X134235979Y-121964866D01*
X134222324Y-121883286D01*
G37*
X134222324Y-121883286D02*
X134196933Y-121813726D01*
X134159446Y-121755659D01*
X134109501Y-121708558D01*
X134046737Y-121671898D01*
X134029724Y-121664594D01*
X134017030Y-121659640D01*
X134004685Y-121655576D01*
X133990907Y-121652300D01*
X133973916Y-121649710D01*
X133951929Y-121647702D01*
X133923166Y-121646174D01*
X133885846Y-121645024D01*
X133838187Y-121644148D01*
X133778407Y-121643444D01*
X133704727Y-121642809D01*
X133643736Y-121642350D01*
X133306706Y-121639867D01*
X133277553Y-121669020D01*
X133260491Y-121687916D01*
X133251786Y-121705121D01*
X133248697Y-121727868D01*
X133248400Y-121746007D01*
X133250890Y-121779095D01*
X133257311Y-121808543D01*
X133261663Y-121819487D01*
X133268766Y-121831911D01*
X133277091Y-121842076D01*
X133288298Y-121850207D01*
X133304052Y-121856531D01*
X133326016Y-121861274D01*
X133355851Y-121864662D01*
X133395221Y-121866921D01*
X133445788Y-121868277D01*
X133509216Y-121868956D01*
X133587168Y-121869184D01*
X133627334Y-121869200D01*
X133705849Y-121869229D01*
X133769306Y-121869389D01*
X133819580Y-121869786D01*
X133858547Y-121870529D01*
X133888083Y-121871725D01*
X133910062Y-121873480D01*
X133926360Y-121875903D01*
X133938853Y-121879101D01*
X133949416Y-121883181D01*
X133959923Y-121888250D01*
X133986440Y-121904743D01*
X134002256Y-121924325D01*
X134009516Y-121941475D01*
X134016901Y-121987378D01*
X134009960Y-122035528D01*
X133990180Y-122082112D01*
X133959047Y-122123316D01*
X133928832Y-122148600D01*
X133897386Y-122169766D01*
X133597587Y-122174000D01*
X133297787Y-122178233D01*
X133273094Y-122205883D01*
X133258057Y-122225581D01*
X133250670Y-122245582D01*
X133248445Y-122273397D01*
X133248400Y-122280387D01*
X133250883Y-122312566D01*
X133257235Y-122341673D01*
X133261663Y-122352887D01*
X133268795Y-122365348D01*
X133277163Y-122375536D01*
X133288437Y-122383679D01*
X133304283Y-122390005D01*
X133326373Y-122394742D01*
X133356373Y-122398119D01*
X133395955Y-122400363D01*
X133446785Y-122401704D01*
X133510534Y-122402369D01*
X133588871Y-122402587D01*
X133625167Y-122402600D01*
X133708227Y-122402679D01*
X133776136Y-122403059D01*
X133830679Y-122403957D01*
X133873638Y-122405589D01*
X133906796Y-122408171D01*
X133931937Y-122411919D01*
X133950843Y-122417050D01*
X133965298Y-122423778D01*
X133977085Y-122432321D01*
X133987986Y-122442895D01*
X133991855Y-122447042D01*
X134007767Y-122474134D01*
X134015940Y-122513721D01*
X134015943Y-122513750D01*
X134017308Y-122543276D01*
X134013220Y-122567312D01*
X134001884Y-122594221D01*
X133996388Y-122604889D01*
X133977025Y-122635355D01*
X133953590Y-122663803D01*
X133939783Y-122676856D01*
X133907265Y-122703167D01*
X133297785Y-122711633D01*
X133273093Y-122739283D01*
X133258371Y-122758399D01*
X133250961Y-122777644D01*
X133248535Y-122804211D01*
X133248432Y-122815483D01*
X133252741Y-122859977D01*
X133264960Y-122891089D01*
X133290398Y-122917150D01*
X133313612Y-122927534D01*
X133329657Y-122929982D01*
X133359631Y-122931932D01*
X133404017Y-122933392D01*
X133463300Y-122934370D01*
X133537964Y-122934872D01*
X133628494Y-122934906D01*
X133735373Y-122934480D01*
X133757967Y-122934345D01*
X134170167Y-122931767D01*
X134195788Y-122907214D01*
X134215044Y-122879647D01*
X134225813Y-122845162D01*
X134228075Y-122808547D01*
X134221809Y-122774592D01*
X134206993Y-122748083D01*
X134196527Y-122739214D01*
X134187313Y-122732167D01*
X134185791Y-122723621D01*
X134192075Y-122708079D01*
X134197404Y-122697488D01*
X134224120Y-122627037D01*
X134235211Y-122552812D01*
X134230873Y-122477070D01*
X134211303Y-122402066D01*
X134176700Y-122330058D01*
X134163477Y-122309464D01*
X134146219Y-122283581D01*
X134137594Y-122267623D01*
X134136482Y-122257673D01*
X134141764Y-122249811D01*
X134145452Y-122246342D01*
X134170753Y-122215186D01*
X134193881Y-122171603D01*
X134213391Y-122120081D01*
X134227840Y-122065109D01*
X134235784Y-122011178D01*
X134235979Y-121964866D01*
X134222324Y-121883286D01*
G36*
X134454203Y-119643999D02*
G01*
X134451073Y-119623111D01*
X134443955Y-119608207D01*
X134431448Y-119593976D01*
X134420674Y-119583980D01*
X134409678Y-119577202D01*
X134394927Y-119572893D01*
X134372883Y-119570303D01*
X134340013Y-119568685D01*
X134307327Y-119567692D01*
X134206659Y-119564883D01*
X134203779Y-119438724D01*
X134200900Y-119312564D01*
X134173221Y-119284899D01*
X134156509Y-119269681D01*
X134141019Y-119261371D01*
X134120618Y-119257908D01*
X134090833Y-119257233D01*
X134059989Y-119257985D01*
X134039925Y-119261614D01*
X134024509Y-119270179D01*
X134008446Y-119284899D01*
X133980767Y-119312564D01*
X133977874Y-119439415D01*
X133974980Y-119566267D01*
X133757740Y-119566219D01*
X133681464Y-119565935D01*
X133620257Y-119564957D01*
X133572259Y-119563039D01*
X133535614Y-119559936D01*
X133508461Y-119555404D01*
X133488942Y-119549197D01*
X133475199Y-119541071D01*
X133465373Y-119530780D01*
X133462995Y-119527363D01*
X133455185Y-119505763D01*
X133457419Y-119478057D01*
X133470161Y-119441847D01*
X133485858Y-119409633D01*
X133497207Y-119380692D01*
X133505866Y-119345568D01*
X133508285Y-119328747D01*
X133510078Y-119299972D01*
X133507310Y-119281077D01*
X133498392Y-119265269D01*
X133491458Y-119256780D01*
X133479692Y-119244314D01*
X133467820Y-119236886D01*
X133451198Y-119233197D01*
X133425180Y-119231950D01*
X133402215Y-119231833D01*
X133367093Y-119232398D01*
X133344054Y-119234845D01*
X133328264Y-119240301D01*
X133314891Y-119249892D01*
X133311432Y-119253000D01*
X133288000Y-119281348D01*
X133269112Y-119320071D01*
X133253801Y-119371544D01*
X133244496Y-119417569D01*
X133237758Y-119457813D01*
X133234061Y-119487144D01*
X133233272Y-119511281D01*
X133235260Y-119535946D01*
X133239892Y-119566858D01*
X133240911Y-119573012D01*
X133253980Y-119624654D01*
X133276196Y-119667684D01*
X133306483Y-119704548D01*
X133327711Y-119725535D01*
X133348966Y-119742731D01*
X133372192Y-119756546D01*
X133399333Y-119767389D01*
X133432332Y-119775671D01*
X133473134Y-119781802D01*
X133523682Y-119786191D01*
X133585922Y-119789249D01*
X133661796Y-119791386D01*
X133723679Y-119792548D01*
X133974592Y-119796675D01*
X133979889Y-119836609D01*
X133988938Y-119871250D01*
X134007712Y-119898019D01*
X134011049Y-119901322D01*
X134027396Y-119915145D01*
X134043713Y-119922617D01*
X134066121Y-119925629D01*
X134091227Y-119926100D01*
X134122160Y-119925286D01*
X134142248Y-119921546D01*
X134157552Y-119912929D01*
X134171294Y-119900347D01*
X134189833Y-119876443D01*
X134199684Y-119847534D01*
X134202188Y-119831181D01*
X134207330Y-119787768D01*
X134307663Y-119784967D01*
X134350537Y-119783585D01*
X134380025Y-119781769D01*
X134399670Y-119778768D01*
X134413016Y-119773830D01*
X134423608Y-119766201D01*
X134431448Y-119758691D01*
X134444048Y-119744326D01*
X134451120Y-119729390D01*
X134454219Y-119708418D01*
X134454900Y-119676333D01*
X134454203Y-119643999D01*
G37*
X134454203Y-119643999D02*
X134451073Y-119623111D01*
X134443955Y-119608207D01*
X134431448Y-119593976D01*
X134420674Y-119583980D01*
X134409678Y-119577202D01*
X134394927Y-119572893D01*
X134372883Y-119570303D01*
X134340013Y-119568685D01*
X134307327Y-119567692D01*
X134206659Y-119564883D01*
X134203779Y-119438724D01*
X134200900Y-119312564D01*
X134173221Y-119284899D01*
X134156509Y-119269681D01*
X134141019Y-119261371D01*
X134120618Y-119257908D01*
X134090833Y-119257233D01*
X134059989Y-119257985D01*
X134039925Y-119261614D01*
X134024509Y-119270179D01*
X134008446Y-119284899D01*
X133980767Y-119312564D01*
X133977874Y-119439415D01*
X133974980Y-119566267D01*
X133757740Y-119566219D01*
X133681464Y-119565935D01*
X133620257Y-119564957D01*
X133572259Y-119563039D01*
X133535614Y-119559936D01*
X133508461Y-119555404D01*
X133488942Y-119549197D01*
X133475199Y-119541071D01*
X133465373Y-119530780D01*
X133462995Y-119527363D01*
X133455185Y-119505763D01*
X133457419Y-119478057D01*
X133470161Y-119441847D01*
X133485858Y-119409633D01*
X133497207Y-119380692D01*
X133505866Y-119345568D01*
X133508285Y-119328747D01*
X133510078Y-119299972D01*
X133507310Y-119281077D01*
X133498392Y-119265269D01*
X133491458Y-119256780D01*
X133479692Y-119244314D01*
X133467820Y-119236886D01*
X133451198Y-119233197D01*
X133425180Y-119231950D01*
X133402215Y-119231833D01*
X133367093Y-119232398D01*
X133344054Y-119234845D01*
X133328264Y-119240301D01*
X133314891Y-119249892D01*
X133311432Y-119253000D01*
X133288000Y-119281348D01*
X133269112Y-119320071D01*
X133253801Y-119371544D01*
X133244496Y-119417569D01*
X133237758Y-119457813D01*
X133234061Y-119487144D01*
X133233272Y-119511281D01*
X133235260Y-119535946D01*
X133239892Y-119566858D01*
X133240911Y-119573012D01*
X133253980Y-119624654D01*
X133276196Y-119667684D01*
X133306483Y-119704548D01*
X133327711Y-119725535D01*
X133348966Y-119742731D01*
X133372192Y-119756546D01*
X133399333Y-119767389D01*
X133432332Y-119775671D01*
X133473134Y-119781802D01*
X133523682Y-119786191D01*
X133585922Y-119789249D01*
X133661796Y-119791386D01*
X133723679Y-119792548D01*
X133974592Y-119796675D01*
X133979889Y-119836609D01*
X133988938Y-119871250D01*
X134007712Y-119898019D01*
X134011049Y-119901322D01*
X134027396Y-119915145D01*
X134043713Y-119922617D01*
X134066121Y-119925629D01*
X134091227Y-119926100D01*
X134122160Y-119925286D01*
X134142248Y-119921546D01*
X134157552Y-119912929D01*
X134171294Y-119900347D01*
X134189833Y-119876443D01*
X134199684Y-119847534D01*
X134202188Y-119831181D01*
X134207330Y-119787768D01*
X134307663Y-119784967D01*
X134350537Y-119783585D01*
X134380025Y-119781769D01*
X134399670Y-119778768D01*
X134413016Y-119773830D01*
X134423608Y-119766201D01*
X134431448Y-119758691D01*
X134444048Y-119744326D01*
X134451120Y-119729390D01*
X134454219Y-119708418D01*
X134454900Y-119676333D01*
X134454203Y-119643999D01*
G36*
X134232228Y-121087227D02*
G01*
X134211940Y-121012380D01*
X134178178Y-120947756D01*
X134130983Y-120893396D01*
X134070398Y-120849338D01*
X133996463Y-120815623D01*
X133909221Y-120792289D01*
X133824090Y-120780599D01*
X133784151Y-120778458D01*
X133754940Y-120780613D01*
X133730688Y-120787535D01*
X133728536Y-120788415D01*
X133713962Y-120795260D01*
X133702109Y-120803557D01*
X133692620Y-120815072D01*
X133685144Y-120831570D01*
X133679324Y-120854815D01*
X133674808Y-120886572D01*
X133671242Y-120928607D01*
X133668270Y-120982685D01*
X133665541Y-121050570D01*
X133663385Y-121113247D01*
X133661268Y-121177210D01*
X133659340Y-121235865D01*
X133657673Y-121287025D01*
X133656337Y-121328506D01*
X133655403Y-121358122D01*
X133654941Y-121373689D01*
X133654905Y-121375334D01*
X133648270Y-121381498D01*
X133630921Y-121379956D01*
X133606361Y-121372206D01*
X133578091Y-121359745D01*
X133549614Y-121344067D01*
X133524431Y-121326670D01*
X133509717Y-121313292D01*
X133477223Y-121268134D01*
X133458850Y-121217361D01*
X133454568Y-121160067D01*
X133464346Y-121095346D01*
X133488155Y-121022291D01*
X133499143Y-120996069D01*
X133518734Y-120944548D01*
X133527052Y-120903584D01*
X133524205Y-120871198D01*
X133510302Y-120845409D01*
X133507553Y-120842292D01*
X133480578Y-120824192D01*
X133444134Y-120813959D01*
X133403829Y-120811755D01*
X133365273Y-120817738D01*
X133334073Y-120832070D01*
X133327880Y-120837162D01*
X133304805Y-120867544D01*
X133283955Y-120911502D01*
X133266051Y-120965743D01*
X133251814Y-121026977D01*
X133241965Y-121091912D01*
X133237225Y-121157257D01*
X133238314Y-121219721D01*
X133239996Y-121238433D01*
X133256619Y-121323974D01*
X133286456Y-121398932D01*
X133329443Y-121463233D01*
X133385513Y-121516802D01*
X133454604Y-121559565D01*
X133536651Y-121591446D01*
X133548967Y-121594982D01*
X133590078Y-121603179D01*
X133642860Y-121609133D01*
X133702418Y-121612732D01*
X133763859Y-121613867D01*
X133822287Y-121612424D01*
X133872807Y-121608295D01*
X133873527Y-121608174D01*
X133873527Y-121379195D01*
X133879544Y-121202981D01*
X133881474Y-121150184D01*
X133883427Y-121103394D01*
X133885276Y-121065156D01*
X133886896Y-121038014D01*
X133888160Y-121024512D01*
X133888443Y-121023510D01*
X133898262Y-121023738D01*
X133917091Y-121031045D01*
X133939936Y-121042988D01*
X133961801Y-121057126D01*
X133969496Y-121063135D01*
X133998820Y-121095671D01*
X134014617Y-121134213D01*
X134018681Y-121176629D01*
X134010459Y-121233743D01*
X133987554Y-121285917D01*
X133951878Y-121329998D01*
X133905980Y-121362506D01*
X133873527Y-121379195D01*
X133873527Y-121608174D01*
X133904020Y-121603034D01*
X133987939Y-121575584D01*
X134061022Y-121535475D01*
X134122559Y-121483624D01*
X134171835Y-121420947D01*
X134208139Y-121348361D01*
X134230758Y-121266780D01*
X134238980Y-121177121D01*
X134239000Y-121172260D01*
X134232228Y-121087227D01*
G37*
X134232228Y-121087227D02*
X134211940Y-121012380D01*
X134178178Y-120947756D01*
X134130983Y-120893396D01*
X134070398Y-120849338D01*
X133996463Y-120815623D01*
X133909221Y-120792289D01*
X133824090Y-120780599D01*
X133784151Y-120778458D01*
X133754940Y-120780613D01*
X133730688Y-120787535D01*
X133728536Y-120788415D01*
X133713962Y-120795260D01*
X133702109Y-120803557D01*
X133692620Y-120815072D01*
X133685144Y-120831570D01*
X133679324Y-120854815D01*
X133674808Y-120886572D01*
X133671242Y-120928607D01*
X133668270Y-120982685D01*
X133665541Y-121050570D01*
X133663385Y-121113247D01*
X133661268Y-121177210D01*
X133659340Y-121235865D01*
X133657673Y-121287025D01*
X133656337Y-121328506D01*
X133655403Y-121358122D01*
X133654941Y-121373689D01*
X133654905Y-121375334D01*
X133648270Y-121381498D01*
X133630921Y-121379956D01*
X133606361Y-121372206D01*
X133578091Y-121359745D01*
X133549614Y-121344067D01*
X133524431Y-121326670D01*
X133509717Y-121313292D01*
X133477223Y-121268134D01*
X133458850Y-121217361D01*
X133454568Y-121160067D01*
X133464346Y-121095346D01*
X133488155Y-121022291D01*
X133499143Y-120996069D01*
X133518734Y-120944548D01*
X133527052Y-120903584D01*
X133524205Y-120871198D01*
X133510302Y-120845409D01*
X133507553Y-120842292D01*
X133480578Y-120824192D01*
X133444134Y-120813959D01*
X133403829Y-120811755D01*
X133365273Y-120817738D01*
X133334073Y-120832070D01*
X133327880Y-120837162D01*
X133304805Y-120867544D01*
X133283955Y-120911502D01*
X133266051Y-120965743D01*
X133251814Y-121026977D01*
X133241965Y-121091912D01*
X133237225Y-121157257D01*
X133238314Y-121219721D01*
X133239996Y-121238433D01*
X133256619Y-121323974D01*
X133286456Y-121398932D01*
X133329443Y-121463233D01*
X133385513Y-121516802D01*
X133454604Y-121559565D01*
X133536651Y-121591446D01*
X133548967Y-121594982D01*
X133590078Y-121603179D01*
X133642860Y-121609133D01*
X133702418Y-121612732D01*
X133763859Y-121613867D01*
X133822287Y-121612424D01*
X133872807Y-121608295D01*
X133873527Y-121608174D01*
X133873527Y-121379195D01*
X133879544Y-121202981D01*
X133881474Y-121150184D01*
X133883427Y-121103394D01*
X133885276Y-121065156D01*
X133886896Y-121038014D01*
X133888160Y-121024512D01*
X133888443Y-121023510D01*
X133898262Y-121023738D01*
X133917091Y-121031045D01*
X133939936Y-121042988D01*
X133961801Y-121057126D01*
X133969496Y-121063135D01*
X133998820Y-121095671D01*
X134014617Y-121134213D01*
X134018681Y-121176629D01*
X134010459Y-121233743D01*
X133987554Y-121285917D01*
X133951878Y-121329998D01*
X133905980Y-121362506D01*
X133873527Y-121379195D01*
X133873527Y-121608174D01*
X133904020Y-121603034D01*
X133987939Y-121575584D01*
X134061022Y-121535475D01*
X134122559Y-121483624D01*
X134171835Y-121420947D01*
X134208139Y-121348361D01*
X134230758Y-121266780D01*
X134238980Y-121177121D01*
X134239000Y-121172260D01*
X134232228Y-121087227D01*
G36*
X134231820Y-123264625D02*
G01*
X134217159Y-123201146D01*
X134195063Y-123147655D01*
X134192518Y-123143142D01*
X134167291Y-123108498D01*
X134132404Y-123071899D01*
X134093500Y-123038641D01*
X134056224Y-123014020D01*
X134053251Y-123012464D01*
X134009592Y-122994082D01*
X133958269Y-122978614D01*
X133903253Y-122966650D01*
X133848516Y-122958777D01*
X133798032Y-122955586D01*
X133755772Y-122957665D01*
X133728579Y-122964307D01*
X133713994Y-122971166D01*
X133702131Y-122979470D01*
X133692636Y-122990986D01*
X133685154Y-123007480D01*
X133679331Y-123030715D01*
X133674813Y-123062459D01*
X133671245Y-123104475D01*
X133668274Y-123158530D01*
X133665545Y-123226389D01*
X133663385Y-123289180D01*
X133661268Y-123353144D01*
X133659340Y-123411798D01*
X133657673Y-123462958D01*
X133656337Y-123504439D01*
X133655403Y-123534056D01*
X133654941Y-123549622D01*
X133654905Y-123551267D01*
X133648270Y-123557431D01*
X133630921Y-123555890D01*
X133606361Y-123548140D01*
X133578091Y-123535678D01*
X133549614Y-123520000D01*
X133524431Y-123502603D01*
X133509717Y-123489225D01*
X133483026Y-123455743D01*
X133466587Y-123421628D01*
X133458478Y-123381406D01*
X133456702Y-123338167D01*
X133457676Y-123302528D01*
X133461354Y-123274037D01*
X133469271Y-123246011D01*
X133482961Y-123211767D01*
X133488784Y-123198467D01*
X133508785Y-123152416D01*
X133522186Y-123118503D01*
X133529695Y-123093590D01*
X133532021Y-123074540D01*
X133529875Y-123058214D01*
X133524156Y-123041938D01*
X133503220Y-123012360D01*
X133469998Y-122994431D01*
X133424500Y-122988154D01*
X133397918Y-122989316D01*
X133359835Y-122996084D01*
X133331881Y-123010406D01*
X133310056Y-123035406D01*
X133290909Y-123072936D01*
X133261721Y-123158535D01*
X133243428Y-123251588D01*
X133236948Y-123345865D01*
X133240476Y-123414367D01*
X133257197Y-123499959D01*
X133287155Y-123575004D01*
X133330197Y-123639323D01*
X133386173Y-123692737D01*
X133454934Y-123735068D01*
X133536267Y-123766118D01*
X133583462Y-123776522D01*
X133640933Y-123784184D01*
X133703873Y-123788928D01*
X133767473Y-123790581D01*
X133826926Y-123788966D01*
X133873527Y-123784300D01*
X133873527Y-123555128D01*
X133879544Y-123378914D01*
X133881440Y-123326174D01*
X133883299Y-123279495D01*
X133885005Y-123241405D01*
X133886442Y-123214437D01*
X133887496Y-123201121D01*
X133887715Y-123200171D01*
X133898983Y-123198859D01*
X133919045Y-123206504D01*
X133943850Y-123221028D01*
X133969349Y-123240351D01*
X133974035Y-123244481D01*
X133995888Y-123265361D01*
X134008104Y-123282260D01*
X134014041Y-123302052D01*
X134017059Y-123331613D01*
X134017137Y-123332687D01*
X134013856Y-123392451D01*
X133995982Y-123446852D01*
X133964839Y-123493425D01*
X133921752Y-123529701D01*
X133906782Y-123538163D01*
X133873527Y-123555128D01*
X133873527Y-123784300D01*
X133877424Y-123783909D01*
X133900489Y-123779386D01*
X133986691Y-123751226D01*
X134059552Y-123712905D01*
X134119732Y-123663785D01*
X134167895Y-123603227D01*
X134204701Y-123530591D01*
X134225994Y-123464974D01*
X134236758Y-123401541D01*
X134238527Y-123333090D01*
X134231820Y-123264625D01*
G37*
X134231820Y-123264625D02*
X134217159Y-123201146D01*
X134195063Y-123147655D01*
X134192518Y-123143142D01*
X134167291Y-123108498D01*
X134132404Y-123071899D01*
X134093500Y-123038641D01*
X134056224Y-123014020D01*
X134053251Y-123012464D01*
X134009592Y-122994082D01*
X133958269Y-122978614D01*
X133903253Y-122966650D01*
X133848516Y-122958777D01*
X133798032Y-122955586D01*
X133755772Y-122957665D01*
X133728579Y-122964307D01*
X133713994Y-122971166D01*
X133702131Y-122979470D01*
X133692636Y-122990986D01*
X133685154Y-123007480D01*
X133679331Y-123030715D01*
X133674813Y-123062459D01*
X133671245Y-123104475D01*
X133668274Y-123158530D01*
X133665545Y-123226389D01*
X133663385Y-123289180D01*
X133661268Y-123353144D01*
X133659340Y-123411798D01*
X133657673Y-123462958D01*
X133656337Y-123504439D01*
X133655403Y-123534056D01*
X133654941Y-123549622D01*
X133654905Y-123551267D01*
X133648270Y-123557431D01*
X133630921Y-123555890D01*
X133606361Y-123548140D01*
X133578091Y-123535678D01*
X133549614Y-123520000D01*
X133524431Y-123502603D01*
X133509717Y-123489225D01*
X133483026Y-123455743D01*
X133466587Y-123421628D01*
X133458478Y-123381406D01*
X133456702Y-123338167D01*
X133457676Y-123302528D01*
X133461354Y-123274037D01*
X133469271Y-123246011D01*
X133482961Y-123211767D01*
X133488784Y-123198467D01*
X133508785Y-123152416D01*
X133522186Y-123118503D01*
X133529695Y-123093590D01*
X133532021Y-123074540D01*
X133529875Y-123058214D01*
X133524156Y-123041938D01*
X133503220Y-123012360D01*
X133469998Y-122994431D01*
X133424500Y-122988154D01*
X133397918Y-122989316D01*
X133359835Y-122996084D01*
X133331881Y-123010406D01*
X133310056Y-123035406D01*
X133290909Y-123072936D01*
X133261721Y-123158535D01*
X133243428Y-123251588D01*
X133236948Y-123345865D01*
X133240476Y-123414367D01*
X133257197Y-123499959D01*
X133287155Y-123575004D01*
X133330197Y-123639323D01*
X133386173Y-123692737D01*
X133454934Y-123735068D01*
X133536267Y-123766118D01*
X133583462Y-123776522D01*
X133640933Y-123784184D01*
X133703873Y-123788928D01*
X133767473Y-123790581D01*
X133826926Y-123788966D01*
X133873527Y-123784300D01*
X133873527Y-123555128D01*
X133879544Y-123378914D01*
X133881440Y-123326174D01*
X133883299Y-123279495D01*
X133885005Y-123241405D01*
X133886442Y-123214437D01*
X133887496Y-123201121D01*
X133887715Y-123200171D01*
X133898983Y-123198859D01*
X133919045Y-123206504D01*
X133943850Y-123221028D01*
X133969349Y-123240351D01*
X133974035Y-123244481D01*
X133995888Y-123265361D01*
X134008104Y-123282260D01*
X134014041Y-123302052D01*
X134017059Y-123331613D01*
X134017137Y-123332687D01*
X134013856Y-123392451D01*
X133995982Y-123446852D01*
X133964839Y-123493425D01*
X133921752Y-123529701D01*
X133906782Y-123538163D01*
X133873527Y-123555128D01*
X133873527Y-123784300D01*
X133877424Y-123783909D01*
X133900489Y-123779386D01*
X133986691Y-123751226D01*
X134059552Y-123712905D01*
X134119732Y-123663785D01*
X134167895Y-123603227D01*
X134204701Y-123530591D01*
X134225994Y-123464974D01*
X134236758Y-123401541D01*
X134238527Y-123333090D01*
X134231820Y-123264625D01*
G36*
X134725138Y-124148291D02*
G01*
X134722014Y-124127403D01*
X134714906Y-124112505D01*
X134702367Y-124098242D01*
X134678901Y-124074766D01*
X134135100Y-124069979D01*
X134022214Y-124068963D01*
X133924947Y-124067989D01*
X133841985Y-124066971D01*
X133772016Y-124065820D01*
X133713724Y-124064449D01*
X133665798Y-124062771D01*
X133626922Y-124060698D01*
X133595784Y-124058144D01*
X133571069Y-124055021D01*
X133551465Y-124051242D01*
X133535657Y-124046718D01*
X133522332Y-124041364D01*
X133510176Y-124035091D01*
X133497876Y-124027812D01*
X133497504Y-124027585D01*
X133471363Y-124004065D01*
X133455056Y-123974047D01*
X133451600Y-123953567D01*
X133456153Y-123938157D01*
X133467664Y-123916009D01*
X133474395Y-123905452D01*
X133492250Y-123868825D01*
X133498553Y-123831347D01*
X133493290Y-123797317D01*
X133476444Y-123771033D01*
X133474884Y-123769640D01*
X133441939Y-123751120D01*
X133401410Y-123742496D01*
X133358756Y-123743641D01*
X133319439Y-123754426D01*
X133289655Y-123773976D01*
X133269267Y-123803741D01*
X133253034Y-123845824D01*
X133241831Y-123895931D01*
X133236529Y-123949768D01*
X133238003Y-124003040D01*
X133239929Y-124018483D01*
X133250983Y-124071580D01*
X133268060Y-124114106D01*
X133294360Y-124152138D01*
X133329266Y-124188210D01*
X133362754Y-124217427D01*
X133391753Y-124236999D01*
X133422187Y-124250636D01*
X133436703Y-124255449D01*
X133461906Y-124263138D01*
X133484830Y-124269745D01*
X133506938Y-124275352D01*
X133529692Y-124280042D01*
X133554555Y-124283897D01*
X133582989Y-124287001D01*
X133616456Y-124289435D01*
X133656418Y-124291283D01*
X133704338Y-124292627D01*
X133761679Y-124293550D01*
X133829902Y-124294134D01*
X133910470Y-124294463D01*
X134004845Y-124294618D01*
X134114489Y-124294683D01*
X134130872Y-124294689D01*
X134670443Y-124294900D01*
X134698138Y-124267220D01*
X134712857Y-124251245D01*
X134721165Y-124236570D01*
X134724879Y-124217510D01*
X134725819Y-124188379D01*
X134725833Y-124180629D01*
X134725138Y-124148291D01*
G37*
X134725138Y-124148291D02*
X134722014Y-124127403D01*
X134714906Y-124112505D01*
X134702367Y-124098242D01*
X134678901Y-124074766D01*
X134135100Y-124069979D01*
X134022214Y-124068963D01*
X133924947Y-124067989D01*
X133841985Y-124066971D01*
X133772016Y-124065820D01*
X133713724Y-124064449D01*
X133665798Y-124062771D01*
X133626922Y-124060698D01*
X133595784Y-124058144D01*
X133571069Y-124055021D01*
X133551465Y-124051242D01*
X133535657Y-124046718D01*
X133522332Y-124041364D01*
X133510176Y-124035091D01*
X133497876Y-124027812D01*
X133497504Y-124027585D01*
X133471363Y-124004065D01*
X133455056Y-123974047D01*
X133451600Y-123953567D01*
X133456153Y-123938157D01*
X133467664Y-123916009D01*
X133474395Y-123905452D01*
X133492250Y-123868825D01*
X133498553Y-123831347D01*
X133493290Y-123797317D01*
X133476444Y-123771033D01*
X133474884Y-123769640D01*
X133441939Y-123751120D01*
X133401410Y-123742496D01*
X133358756Y-123743641D01*
X133319439Y-123754426D01*
X133289655Y-123773976D01*
X133269267Y-123803741D01*
X133253034Y-123845824D01*
X133241831Y-123895931D01*
X133236529Y-123949768D01*
X133238003Y-124003040D01*
X133239929Y-124018483D01*
X133250983Y-124071580D01*
X133268060Y-124114106D01*
X133294360Y-124152138D01*
X133329266Y-124188210D01*
X133362754Y-124217427D01*
X133391753Y-124236999D01*
X133422187Y-124250636D01*
X133436703Y-124255449D01*
X133461906Y-124263138D01*
X133484830Y-124269745D01*
X133506938Y-124275352D01*
X133529692Y-124280042D01*
X133554555Y-124283897D01*
X133582989Y-124287001D01*
X133616456Y-124289435D01*
X133656418Y-124291283D01*
X133704338Y-124292627D01*
X133761679Y-124293550D01*
X133829902Y-124294134D01*
X133910470Y-124294463D01*
X134004845Y-124294618D01*
X134114489Y-124294683D01*
X134130872Y-124294689D01*
X134670443Y-124294900D01*
X134698138Y-124267220D01*
X134712857Y-124251245D01*
X134721165Y-124236570D01*
X134724879Y-124217510D01*
X134725819Y-124188379D01*
X134725833Y-124180629D01*
X134725138Y-124148291D01*
G36*
X134177030Y-126273405D02*
G01*
X134155434Y-126270389D01*
X134124492Y-126266427D01*
X134103533Y-126263871D01*
X133941473Y-126237269D01*
X133788694Y-126197532D01*
X133645758Y-126144886D01*
X133513221Y-126079555D01*
X133391643Y-126001765D01*
X133326293Y-125950962D01*
X133254885Y-125881367D01*
X133191548Y-125799608D01*
X133138699Y-125709482D01*
X133098753Y-125614786D01*
X133086079Y-125573366D01*
X133074749Y-125515659D01*
X133067991Y-125446944D01*
X133065799Y-125372517D01*
X133068164Y-125297673D01*
X133075080Y-125227707D01*
X133086539Y-125167914D01*
X133086638Y-125167534D01*
X133124536Y-125051847D01*
X133176309Y-124943295D01*
X133242418Y-124841307D01*
X133323324Y-124745311D01*
X133419488Y-124654738D01*
X133531370Y-124569015D01*
X133612064Y-124516045D01*
X133705878Y-124457891D01*
X133674861Y-124401795D01*
X133659710Y-124374568D01*
X133647945Y-124353755D01*
X133641759Y-124343227D01*
X133641413Y-124342729D01*
X133633381Y-124345205D01*
X133612760Y-124353965D01*
X133582162Y-124367835D01*
X133544198Y-124385639D01*
X133517365Y-124398498D01*
X133383431Y-124468108D01*
X133263058Y-124541440D01*
X133152940Y-124620737D01*
X133049768Y-124708241D01*
X133020996Y-124735167D01*
X132917254Y-124843411D01*
X132829727Y-124954705D01*
X132757817Y-125070072D01*
X132700927Y-125190533D01*
X132658461Y-125317109D01*
X132642480Y-125382866D01*
X132637632Y-125413635D01*
X132633259Y-125456251D01*
X132629549Y-125506556D01*
X132626687Y-125560389D01*
X132624860Y-125613588D01*
X132624254Y-125661994D01*
X132625056Y-125701445D01*
X132627122Y-125725767D01*
X132650739Y-125847353D01*
X132683289Y-125956416D01*
X132726099Y-126055562D01*
X132780497Y-126147396D01*
X132847808Y-126234524D01*
X132929361Y-126319552D01*
X132929562Y-126319743D01*
X133043195Y-126417206D01*
X133164109Y-126499999D01*
X133293007Y-126568446D01*
X133430592Y-126622872D01*
X133577567Y-126663601D01*
X133733550Y-126690819D01*
X133779832Y-126696113D01*
X133826564Y-126700348D01*
X133867489Y-126703010D01*
X133890591Y-126703666D01*
X133947715Y-126703666D01*
X134067416Y-126490047D01*
X134097888Y-126435527D01*
X134125392Y-126386042D01*
X134148913Y-126343445D01*
X134167432Y-126309589D01*
X134179931Y-126286327D01*
X134185394Y-126275512D01*
X134185542Y-126274971D01*
X134177030Y-126273405D01*
G37*
X134177030Y-126273405D02*
X134155434Y-126270389D01*
X134124492Y-126266427D01*
X134103533Y-126263871D01*
X133941473Y-126237269D01*
X133788694Y-126197532D01*
X133645758Y-126144886D01*
X133513221Y-126079555D01*
X133391643Y-126001765D01*
X133326293Y-125950962D01*
X133254885Y-125881367D01*
X133191548Y-125799608D01*
X133138699Y-125709482D01*
X133098753Y-125614786D01*
X133086079Y-125573366D01*
X133074749Y-125515659D01*
X133067991Y-125446944D01*
X133065799Y-125372517D01*
X133068164Y-125297673D01*
X133075080Y-125227707D01*
X133086539Y-125167914D01*
X133086638Y-125167534D01*
X133124536Y-125051847D01*
X133176309Y-124943295D01*
X133242418Y-124841307D01*
X133323324Y-124745311D01*
X133419488Y-124654738D01*
X133531370Y-124569015D01*
X133612064Y-124516045D01*
X133705878Y-124457891D01*
X133674861Y-124401795D01*
X133659710Y-124374568D01*
X133647945Y-124353755D01*
X133641759Y-124343227D01*
X133641413Y-124342729D01*
X133633381Y-124345205D01*
X133612760Y-124353965D01*
X133582162Y-124367835D01*
X133544198Y-124385639D01*
X133517365Y-124398498D01*
X133383431Y-124468108D01*
X133263058Y-124541440D01*
X133152940Y-124620737D01*
X133049768Y-124708241D01*
X133020996Y-124735167D01*
X132917254Y-124843411D01*
X132829727Y-124954705D01*
X132757817Y-125070072D01*
X132700927Y-125190533D01*
X132658461Y-125317109D01*
X132642480Y-125382866D01*
X132637632Y-125413635D01*
X132633259Y-125456251D01*
X132629549Y-125506556D01*
X132626687Y-125560389D01*
X132624860Y-125613588D01*
X132624254Y-125661994D01*
X132625056Y-125701445D01*
X132627122Y-125725767D01*
X132650739Y-125847353D01*
X132683289Y-125956416D01*
X132726099Y-126055562D01*
X132780497Y-126147396D01*
X132847808Y-126234524D01*
X132929361Y-126319552D01*
X132929562Y-126319743D01*
X133043195Y-126417206D01*
X133164109Y-126499999D01*
X133293007Y-126568446D01*
X133430592Y-126622872D01*
X133577567Y-126663601D01*
X133733550Y-126690819D01*
X133779832Y-126696113D01*
X133826564Y-126700348D01*
X133867489Y-126703010D01*
X133890591Y-126703666D01*
X133947715Y-126703666D01*
X134067416Y-126490047D01*
X134097888Y-126435527D01*
X134125392Y-126386042D01*
X134148913Y-126343445D01*
X134167432Y-126309589D01*
X134179931Y-126286327D01*
X134185394Y-126275512D01*
X134185542Y-126274971D01*
X134177030Y-126273405D01*
D11*
%TO.C,R2*%
X130735000Y-122813578D02*
X130735000Y-122296422D01*
X132155000Y-122813578D02*
X132155000Y-122296422D01*
%TO.C,R1*%
X121373041Y-124222349D02*
X120855885Y-124222349D01*
X121373041Y-122802349D02*
X120855885Y-122802349D01*
D12*
%TO.C,Q1*%
X125920000Y-124205000D02*
X125920000Y-123905000D01*
X125545000Y-124205000D02*
X125920000Y-124205000D01*
X125920000Y-120905000D02*
X125470000Y-120905000D01*
X125920000Y-121205000D02*
X125920000Y-120905000D01*
X125920000Y-121130000D02*
X125920000Y-121255000D01*
X124270000Y-120905000D02*
X124270000Y-121255000D01*
X124745000Y-120905000D02*
X124270000Y-120905000D01*
X124270000Y-123880000D02*
X123495000Y-123880000D01*
X124270000Y-123930000D02*
X124270000Y-123880000D01*
X124645000Y-124205000D02*
X124270000Y-123930000D01*
X124920000Y-124205000D02*
X124645000Y-124205000D01*
%TO.C,R2*%
D13*
X129992380Y-122388333D02*
X129516190Y-122055000D01*
X129992380Y-121816904D02*
X128992380Y-121816904D01*
X128992380Y-122197857D01*
X129040000Y-122293095D01*
X129087619Y-122340714D01*
X129182857Y-122388333D01*
X129325714Y-122388333D01*
X129420952Y-122340714D01*
X129468571Y-122293095D01*
X129516190Y-122197857D01*
X129516190Y-121816904D01*
X129087619Y-122769285D02*
X129040000Y-122816904D01*
X128992380Y-122912142D01*
X128992380Y-123150238D01*
X129040000Y-123245476D01*
X129087619Y-123293095D01*
X129182857Y-123340714D01*
X129278095Y-123340714D01*
X129420952Y-123293095D01*
X129992380Y-122721666D01*
X129992380Y-123340714D01*
%TO.C,R1*%
X121281129Y-122314729D02*
X121614463Y-121838539D01*
X121852558Y-122314729D02*
X121852558Y-121314729D01*
X121471605Y-121314729D01*
X121376367Y-121362349D01*
X121328748Y-121409968D01*
X121281129Y-121505206D01*
X121281129Y-121648063D01*
X121328748Y-121743301D01*
X121376367Y-121790920D01*
X121471605Y-121838539D01*
X121852558Y-121838539D01*
X120328748Y-122314729D02*
X120900177Y-122314729D01*
X120614463Y-122314729D02*
X120614463Y-121314729D01*
X120709701Y-121457587D01*
X120804939Y-121552825D01*
X120900177Y-121600444D01*
%TO.C,Q1*%
X125190238Y-120562619D02*
X125285476Y-120515000D01*
X125380714Y-120419761D01*
X125523571Y-120276904D01*
X125618809Y-120229285D01*
X125714047Y-120229285D01*
X125666428Y-120467380D02*
X125761666Y-120419761D01*
X125856904Y-120324523D01*
X125904523Y-120134047D01*
X125904523Y-119800714D01*
X125856904Y-119610238D01*
X125761666Y-119515000D01*
X125666428Y-119467380D01*
X125475952Y-119467380D01*
X125380714Y-119515000D01*
X125285476Y-119610238D01*
X125237857Y-119800714D01*
X125237857Y-120134047D01*
X125285476Y-120324523D01*
X125380714Y-120419761D01*
X125475952Y-120467380D01*
X125666428Y-120467380D01*
X124285476Y-120467380D02*
X124856904Y-120467380D01*
X124571190Y-120467380D02*
X124571190Y-119467380D01*
X124666428Y-119610238D01*
X124761666Y-119705476D01*
X124856904Y-119753095D01*
%TD*%
M02*
