M48
; DRILL file {KiCad 5.1.5-52549c5~86~ubuntu16.04.1} date Mon Nov  9 21:07:56 2020
; FORMAT={-:-/ absolute / inch / decimal}
; #@! TF.CreationDate,2020-11-09T21:07:56+05:30
; #@! TF.GenerationSoftware,Kicad,Pcbnew,5.1.5-52549c5~86~ubuntu16.04.1
FMAT,2
INCH
T1C0.0157
T2C0.0394
%
G90
G05
T1
X5.31Y-3.5
X5.39Y-3.5
X5.425Y-3.79
X5.5Y-3.77
X5.685Y-3.559
X5.687Y-3.493
X5.713Y-3.493
X5.713Y-3.559
X5.741Y-3.493
X5.7571Y-3.5889
X5.7571Y-3.6469
X5.7571Y-3.7009
X5.767Y-3.493
X5.791Y-3.493
X5.799Y-3.559
X5.819Y-3.493
X5.827Y-3.559
X6.015Y-3.785
X6.11Y-3.51
X6.115Y-3.795
X6.2Y-3.5
T2
X5.3437Y-3.5709
X5.3437Y-3.6709
X6.1705Y-3.5725
X6.1705Y-3.6725
T0
M30
