G04 #@! TF.GenerationSoftware,KiCad,Pcbnew,5.1.5-52549c5~86~ubuntu16.04.1*
G04 #@! TF.CreationDate,2020-11-09T21:07:44+05:30*
G04 #@! TF.ProjectId,AMS1117 5V_3.3V Step-Down Power Supply Module,414d5331-3131-4372-9035-565f332e3356,V1.0*
G04 #@! TF.SameCoordinates,Original*
G04 #@! TF.FileFunction,Copper,L1,Top*
G04 #@! TF.FilePolarity,Positive*
%FSLAX46Y46*%
G04 Gerber Fmt 4.6, Leading zero omitted, Abs format (unit mm)*
G04 Created by KiCad (PCBNEW 5.1.5-52549c5~86~ubuntu16.04.1) date 2020-11-09 21:07:44*
%MOMM*%
%LPD*%
G04 APERTURE LIST*
%ADD10R,1.500000X2.000000*%
%ADD11R,3.800000X2.000000*%
%ADD12C,0.100000*%
%ADD13O,1.700000X1.700000*%
%ADD14R,1.700000X1.700000*%
%ADD15C,0.800000*%
%ADD16C,0.750000*%
%ADD17C,1.000000*%
%ADD18C,0.500000*%
%ADD19C,0.254000*%
G04 APERTURE END LIST*
D10*
X143931000Y-95891000D03*
X148531000Y-95891000D03*
X146231000Y-95891000D03*
D11*
X146231000Y-89591000D03*
G04 #@! TA.AperFunction,SMDPad,CuDef*
D12*
G36*
X139061142Y-88542174D02*
G01*
X139084803Y-88545684D01*
X139108007Y-88551496D01*
X139130529Y-88559554D01*
X139152153Y-88569782D01*
X139172670Y-88582079D01*
X139191883Y-88596329D01*
X139209607Y-88612393D01*
X139225671Y-88630117D01*
X139239921Y-88649330D01*
X139252218Y-88669847D01*
X139262446Y-88691471D01*
X139270504Y-88713993D01*
X139276316Y-88737197D01*
X139279826Y-88760858D01*
X139281000Y-88784750D01*
X139281000Y-89697250D01*
X139279826Y-89721142D01*
X139276316Y-89744803D01*
X139270504Y-89768007D01*
X139262446Y-89790529D01*
X139252218Y-89812153D01*
X139239921Y-89832670D01*
X139225671Y-89851883D01*
X139209607Y-89869607D01*
X139191883Y-89885671D01*
X139172670Y-89899921D01*
X139152153Y-89912218D01*
X139130529Y-89922446D01*
X139108007Y-89930504D01*
X139084803Y-89936316D01*
X139061142Y-89939826D01*
X139037250Y-89941000D01*
X138549750Y-89941000D01*
X138525858Y-89939826D01*
X138502197Y-89936316D01*
X138478993Y-89930504D01*
X138456471Y-89922446D01*
X138434847Y-89912218D01*
X138414330Y-89899921D01*
X138395117Y-89885671D01*
X138377393Y-89869607D01*
X138361329Y-89851883D01*
X138347079Y-89832670D01*
X138334782Y-89812153D01*
X138324554Y-89790529D01*
X138316496Y-89768007D01*
X138310684Y-89744803D01*
X138307174Y-89721142D01*
X138306000Y-89697250D01*
X138306000Y-88784750D01*
X138307174Y-88760858D01*
X138310684Y-88737197D01*
X138316496Y-88713993D01*
X138324554Y-88691471D01*
X138334782Y-88669847D01*
X138347079Y-88649330D01*
X138361329Y-88630117D01*
X138377393Y-88612393D01*
X138395117Y-88596329D01*
X138414330Y-88582079D01*
X138434847Y-88569782D01*
X138456471Y-88559554D01*
X138478993Y-88551496D01*
X138502197Y-88545684D01*
X138525858Y-88542174D01*
X138549750Y-88541000D01*
X139037250Y-88541000D01*
X139061142Y-88542174D01*
G37*
G04 #@! TD.AperFunction*
G04 #@! TA.AperFunction,SMDPad,CuDef*
G36*
X140936142Y-88542174D02*
G01*
X140959803Y-88545684D01*
X140983007Y-88551496D01*
X141005529Y-88559554D01*
X141027153Y-88569782D01*
X141047670Y-88582079D01*
X141066883Y-88596329D01*
X141084607Y-88612393D01*
X141100671Y-88630117D01*
X141114921Y-88649330D01*
X141127218Y-88669847D01*
X141137446Y-88691471D01*
X141145504Y-88713993D01*
X141151316Y-88737197D01*
X141154826Y-88760858D01*
X141156000Y-88784750D01*
X141156000Y-89697250D01*
X141154826Y-89721142D01*
X141151316Y-89744803D01*
X141145504Y-89768007D01*
X141137446Y-89790529D01*
X141127218Y-89812153D01*
X141114921Y-89832670D01*
X141100671Y-89851883D01*
X141084607Y-89869607D01*
X141066883Y-89885671D01*
X141047670Y-89899921D01*
X141027153Y-89912218D01*
X141005529Y-89922446D01*
X140983007Y-89930504D01*
X140959803Y-89936316D01*
X140936142Y-89939826D01*
X140912250Y-89941000D01*
X140424750Y-89941000D01*
X140400858Y-89939826D01*
X140377197Y-89936316D01*
X140353993Y-89930504D01*
X140331471Y-89922446D01*
X140309847Y-89912218D01*
X140289330Y-89899921D01*
X140270117Y-89885671D01*
X140252393Y-89869607D01*
X140236329Y-89851883D01*
X140222079Y-89832670D01*
X140209782Y-89812153D01*
X140199554Y-89790529D01*
X140191496Y-89768007D01*
X140185684Y-89744803D01*
X140182174Y-89721142D01*
X140181000Y-89697250D01*
X140181000Y-88784750D01*
X140182174Y-88760858D01*
X140185684Y-88737197D01*
X140191496Y-88713993D01*
X140199554Y-88691471D01*
X140209782Y-88669847D01*
X140222079Y-88649330D01*
X140236329Y-88630117D01*
X140252393Y-88612393D01*
X140270117Y-88596329D01*
X140289330Y-88582079D01*
X140309847Y-88569782D01*
X140331471Y-88559554D01*
X140353993Y-88551496D01*
X140377197Y-88545684D01*
X140400858Y-88542174D01*
X140424750Y-88541000D01*
X140912250Y-88541000D01*
X140936142Y-88542174D01*
G37*
G04 #@! TD.AperFunction*
D13*
X135731000Y-90701000D03*
D14*
X135731000Y-93241000D03*
D13*
X156731000Y-93281000D03*
D14*
X156731000Y-90741000D03*
G04 #@! TA.AperFunction,SMDPad,CuDef*
D12*
G36*
X152061142Y-88542174D02*
G01*
X152084803Y-88545684D01*
X152108007Y-88551496D01*
X152130529Y-88559554D01*
X152152153Y-88569782D01*
X152172670Y-88582079D01*
X152191883Y-88596329D01*
X152209607Y-88612393D01*
X152225671Y-88630117D01*
X152239921Y-88649330D01*
X152252218Y-88669847D01*
X152262446Y-88691471D01*
X152270504Y-88713993D01*
X152276316Y-88737197D01*
X152279826Y-88760858D01*
X152281000Y-88784750D01*
X152281000Y-89697250D01*
X152279826Y-89721142D01*
X152276316Y-89744803D01*
X152270504Y-89768007D01*
X152262446Y-89790529D01*
X152252218Y-89812153D01*
X152239921Y-89832670D01*
X152225671Y-89851883D01*
X152209607Y-89869607D01*
X152191883Y-89885671D01*
X152172670Y-89899921D01*
X152152153Y-89912218D01*
X152130529Y-89922446D01*
X152108007Y-89930504D01*
X152084803Y-89936316D01*
X152061142Y-89939826D01*
X152037250Y-89941000D01*
X151549750Y-89941000D01*
X151525858Y-89939826D01*
X151502197Y-89936316D01*
X151478993Y-89930504D01*
X151456471Y-89922446D01*
X151434847Y-89912218D01*
X151414330Y-89899921D01*
X151395117Y-89885671D01*
X151377393Y-89869607D01*
X151361329Y-89851883D01*
X151347079Y-89832670D01*
X151334782Y-89812153D01*
X151324554Y-89790529D01*
X151316496Y-89768007D01*
X151310684Y-89744803D01*
X151307174Y-89721142D01*
X151306000Y-89697250D01*
X151306000Y-88784750D01*
X151307174Y-88760858D01*
X151310684Y-88737197D01*
X151316496Y-88713993D01*
X151324554Y-88691471D01*
X151334782Y-88669847D01*
X151347079Y-88649330D01*
X151361329Y-88630117D01*
X151377393Y-88612393D01*
X151395117Y-88596329D01*
X151414330Y-88582079D01*
X151434847Y-88569782D01*
X151456471Y-88559554D01*
X151478993Y-88551496D01*
X151502197Y-88545684D01*
X151525858Y-88542174D01*
X151549750Y-88541000D01*
X152037250Y-88541000D01*
X152061142Y-88542174D01*
G37*
G04 #@! TD.AperFunction*
G04 #@! TA.AperFunction,SMDPad,CuDef*
G36*
X153936142Y-88542174D02*
G01*
X153959803Y-88545684D01*
X153983007Y-88551496D01*
X154005529Y-88559554D01*
X154027153Y-88569782D01*
X154047670Y-88582079D01*
X154066883Y-88596329D01*
X154084607Y-88612393D01*
X154100671Y-88630117D01*
X154114921Y-88649330D01*
X154127218Y-88669847D01*
X154137446Y-88691471D01*
X154145504Y-88713993D01*
X154151316Y-88737197D01*
X154154826Y-88760858D01*
X154156000Y-88784750D01*
X154156000Y-89697250D01*
X154154826Y-89721142D01*
X154151316Y-89744803D01*
X154145504Y-89768007D01*
X154137446Y-89790529D01*
X154127218Y-89812153D01*
X154114921Y-89832670D01*
X154100671Y-89851883D01*
X154084607Y-89869607D01*
X154066883Y-89885671D01*
X154047670Y-89899921D01*
X154027153Y-89912218D01*
X154005529Y-89922446D01*
X153983007Y-89930504D01*
X153959803Y-89936316D01*
X153936142Y-89939826D01*
X153912250Y-89941000D01*
X153424750Y-89941000D01*
X153400858Y-89939826D01*
X153377197Y-89936316D01*
X153353993Y-89930504D01*
X153331471Y-89922446D01*
X153309847Y-89912218D01*
X153289330Y-89899921D01*
X153270117Y-89885671D01*
X153252393Y-89869607D01*
X153236329Y-89851883D01*
X153222079Y-89832670D01*
X153209782Y-89812153D01*
X153199554Y-89790529D01*
X153191496Y-89768007D01*
X153185684Y-89744803D01*
X153182174Y-89721142D01*
X153181000Y-89697250D01*
X153181000Y-88784750D01*
X153182174Y-88760858D01*
X153185684Y-88737197D01*
X153191496Y-88713993D01*
X153199554Y-88691471D01*
X153209782Y-88669847D01*
X153222079Y-88649330D01*
X153236329Y-88630117D01*
X153252393Y-88612393D01*
X153270117Y-88596329D01*
X153289330Y-88582079D01*
X153309847Y-88569782D01*
X153331471Y-88559554D01*
X153353993Y-88551496D01*
X153377197Y-88545684D01*
X153400858Y-88542174D01*
X153424750Y-88541000D01*
X153912250Y-88541000D01*
X153936142Y-88542174D01*
G37*
G04 #@! TD.AperFunction*
G04 #@! TA.AperFunction,SMDPad,CuDef*
G36*
X141211142Y-93192174D02*
G01*
X141234803Y-93195684D01*
X141258007Y-93201496D01*
X141280529Y-93209554D01*
X141302153Y-93219782D01*
X141322670Y-93232079D01*
X141341883Y-93246329D01*
X141359607Y-93262393D01*
X141375671Y-93280117D01*
X141389921Y-93299330D01*
X141402218Y-93319847D01*
X141412446Y-93341471D01*
X141420504Y-93363993D01*
X141426316Y-93387197D01*
X141429826Y-93410858D01*
X141431000Y-93434750D01*
X141431000Y-93922250D01*
X141429826Y-93946142D01*
X141426316Y-93969803D01*
X141420504Y-93993007D01*
X141412446Y-94015529D01*
X141402218Y-94037153D01*
X141389921Y-94057670D01*
X141375671Y-94076883D01*
X141359607Y-94094607D01*
X141341883Y-94110671D01*
X141322670Y-94124921D01*
X141302153Y-94137218D01*
X141280529Y-94147446D01*
X141258007Y-94155504D01*
X141234803Y-94161316D01*
X141211142Y-94164826D01*
X141187250Y-94166000D01*
X140274750Y-94166000D01*
X140250858Y-94164826D01*
X140227197Y-94161316D01*
X140203993Y-94155504D01*
X140181471Y-94147446D01*
X140159847Y-94137218D01*
X140139330Y-94124921D01*
X140120117Y-94110671D01*
X140102393Y-94094607D01*
X140086329Y-94076883D01*
X140072079Y-94057670D01*
X140059782Y-94037153D01*
X140049554Y-94015529D01*
X140041496Y-93993007D01*
X140035684Y-93969803D01*
X140032174Y-93946142D01*
X140031000Y-93922250D01*
X140031000Y-93434750D01*
X140032174Y-93410858D01*
X140035684Y-93387197D01*
X140041496Y-93363993D01*
X140049554Y-93341471D01*
X140059782Y-93319847D01*
X140072079Y-93299330D01*
X140086329Y-93280117D01*
X140102393Y-93262393D01*
X140120117Y-93246329D01*
X140139330Y-93232079D01*
X140159847Y-93219782D01*
X140181471Y-93209554D01*
X140203993Y-93201496D01*
X140227197Y-93195684D01*
X140250858Y-93192174D01*
X140274750Y-93191000D01*
X141187250Y-93191000D01*
X141211142Y-93192174D01*
G37*
G04 #@! TD.AperFunction*
G04 #@! TA.AperFunction,SMDPad,CuDef*
G36*
X141211142Y-91317174D02*
G01*
X141234803Y-91320684D01*
X141258007Y-91326496D01*
X141280529Y-91334554D01*
X141302153Y-91344782D01*
X141322670Y-91357079D01*
X141341883Y-91371329D01*
X141359607Y-91387393D01*
X141375671Y-91405117D01*
X141389921Y-91424330D01*
X141402218Y-91444847D01*
X141412446Y-91466471D01*
X141420504Y-91488993D01*
X141426316Y-91512197D01*
X141429826Y-91535858D01*
X141431000Y-91559750D01*
X141431000Y-92047250D01*
X141429826Y-92071142D01*
X141426316Y-92094803D01*
X141420504Y-92118007D01*
X141412446Y-92140529D01*
X141402218Y-92162153D01*
X141389921Y-92182670D01*
X141375671Y-92201883D01*
X141359607Y-92219607D01*
X141341883Y-92235671D01*
X141322670Y-92249921D01*
X141302153Y-92262218D01*
X141280529Y-92272446D01*
X141258007Y-92280504D01*
X141234803Y-92286316D01*
X141211142Y-92289826D01*
X141187250Y-92291000D01*
X140274750Y-92291000D01*
X140250858Y-92289826D01*
X140227197Y-92286316D01*
X140203993Y-92280504D01*
X140181471Y-92272446D01*
X140159847Y-92262218D01*
X140139330Y-92249921D01*
X140120117Y-92235671D01*
X140102393Y-92219607D01*
X140086329Y-92201883D01*
X140072079Y-92182670D01*
X140059782Y-92162153D01*
X140049554Y-92140529D01*
X140041496Y-92118007D01*
X140035684Y-92094803D01*
X140032174Y-92071142D01*
X140031000Y-92047250D01*
X140031000Y-91559750D01*
X140032174Y-91535858D01*
X140035684Y-91512197D01*
X140041496Y-91488993D01*
X140049554Y-91466471D01*
X140059782Y-91444847D01*
X140072079Y-91424330D01*
X140086329Y-91405117D01*
X140102393Y-91387393D01*
X140120117Y-91371329D01*
X140139330Y-91357079D01*
X140159847Y-91344782D01*
X140181471Y-91334554D01*
X140203993Y-91326496D01*
X140227197Y-91320684D01*
X140250858Y-91317174D01*
X140274750Y-91316000D01*
X141187250Y-91316000D01*
X141211142Y-91317174D01*
G37*
G04 #@! TD.AperFunction*
G04 #@! TA.AperFunction,SMDPad,CuDef*
G36*
X139211142Y-93192174D02*
G01*
X139234803Y-93195684D01*
X139258007Y-93201496D01*
X139280529Y-93209554D01*
X139302153Y-93219782D01*
X139322670Y-93232079D01*
X139341883Y-93246329D01*
X139359607Y-93262393D01*
X139375671Y-93280117D01*
X139389921Y-93299330D01*
X139402218Y-93319847D01*
X139412446Y-93341471D01*
X139420504Y-93363993D01*
X139426316Y-93387197D01*
X139429826Y-93410858D01*
X139431000Y-93434750D01*
X139431000Y-93922250D01*
X139429826Y-93946142D01*
X139426316Y-93969803D01*
X139420504Y-93993007D01*
X139412446Y-94015529D01*
X139402218Y-94037153D01*
X139389921Y-94057670D01*
X139375671Y-94076883D01*
X139359607Y-94094607D01*
X139341883Y-94110671D01*
X139322670Y-94124921D01*
X139302153Y-94137218D01*
X139280529Y-94147446D01*
X139258007Y-94155504D01*
X139234803Y-94161316D01*
X139211142Y-94164826D01*
X139187250Y-94166000D01*
X138274750Y-94166000D01*
X138250858Y-94164826D01*
X138227197Y-94161316D01*
X138203993Y-94155504D01*
X138181471Y-94147446D01*
X138159847Y-94137218D01*
X138139330Y-94124921D01*
X138120117Y-94110671D01*
X138102393Y-94094607D01*
X138086329Y-94076883D01*
X138072079Y-94057670D01*
X138059782Y-94037153D01*
X138049554Y-94015529D01*
X138041496Y-93993007D01*
X138035684Y-93969803D01*
X138032174Y-93946142D01*
X138031000Y-93922250D01*
X138031000Y-93434750D01*
X138032174Y-93410858D01*
X138035684Y-93387197D01*
X138041496Y-93363993D01*
X138049554Y-93341471D01*
X138059782Y-93319847D01*
X138072079Y-93299330D01*
X138086329Y-93280117D01*
X138102393Y-93262393D01*
X138120117Y-93246329D01*
X138139330Y-93232079D01*
X138159847Y-93219782D01*
X138181471Y-93209554D01*
X138203993Y-93201496D01*
X138227197Y-93195684D01*
X138250858Y-93192174D01*
X138274750Y-93191000D01*
X139187250Y-93191000D01*
X139211142Y-93192174D01*
G37*
G04 #@! TD.AperFunction*
G04 #@! TA.AperFunction,SMDPad,CuDef*
G36*
X139211142Y-91317174D02*
G01*
X139234803Y-91320684D01*
X139258007Y-91326496D01*
X139280529Y-91334554D01*
X139302153Y-91344782D01*
X139322670Y-91357079D01*
X139341883Y-91371329D01*
X139359607Y-91387393D01*
X139375671Y-91405117D01*
X139389921Y-91424330D01*
X139402218Y-91444847D01*
X139412446Y-91466471D01*
X139420504Y-91488993D01*
X139426316Y-91512197D01*
X139429826Y-91535858D01*
X139431000Y-91559750D01*
X139431000Y-92047250D01*
X139429826Y-92071142D01*
X139426316Y-92094803D01*
X139420504Y-92118007D01*
X139412446Y-92140529D01*
X139402218Y-92162153D01*
X139389921Y-92182670D01*
X139375671Y-92201883D01*
X139359607Y-92219607D01*
X139341883Y-92235671D01*
X139322670Y-92249921D01*
X139302153Y-92262218D01*
X139280529Y-92272446D01*
X139258007Y-92280504D01*
X139234803Y-92286316D01*
X139211142Y-92289826D01*
X139187250Y-92291000D01*
X138274750Y-92291000D01*
X138250858Y-92289826D01*
X138227197Y-92286316D01*
X138203993Y-92280504D01*
X138181471Y-92272446D01*
X138159847Y-92262218D01*
X138139330Y-92249921D01*
X138120117Y-92235671D01*
X138102393Y-92219607D01*
X138086329Y-92201883D01*
X138072079Y-92182670D01*
X138059782Y-92162153D01*
X138049554Y-92140529D01*
X138041496Y-92118007D01*
X138035684Y-92094803D01*
X138032174Y-92071142D01*
X138031000Y-92047250D01*
X138031000Y-91559750D01*
X138032174Y-91535858D01*
X138035684Y-91512197D01*
X138041496Y-91488993D01*
X138049554Y-91466471D01*
X138059782Y-91444847D01*
X138072079Y-91424330D01*
X138086329Y-91405117D01*
X138102393Y-91387393D01*
X138120117Y-91371329D01*
X138139330Y-91357079D01*
X138159847Y-91344782D01*
X138181471Y-91334554D01*
X138203993Y-91326496D01*
X138227197Y-91320684D01*
X138250858Y-91317174D01*
X138274750Y-91316000D01*
X139187250Y-91316000D01*
X139211142Y-91317174D01*
G37*
G04 #@! TD.AperFunction*
G04 #@! TA.AperFunction,SMDPad,CuDef*
G36*
X152211142Y-93192174D02*
G01*
X152234803Y-93195684D01*
X152258007Y-93201496D01*
X152280529Y-93209554D01*
X152302153Y-93219782D01*
X152322670Y-93232079D01*
X152341883Y-93246329D01*
X152359607Y-93262393D01*
X152375671Y-93280117D01*
X152389921Y-93299330D01*
X152402218Y-93319847D01*
X152412446Y-93341471D01*
X152420504Y-93363993D01*
X152426316Y-93387197D01*
X152429826Y-93410858D01*
X152431000Y-93434750D01*
X152431000Y-93922250D01*
X152429826Y-93946142D01*
X152426316Y-93969803D01*
X152420504Y-93993007D01*
X152412446Y-94015529D01*
X152402218Y-94037153D01*
X152389921Y-94057670D01*
X152375671Y-94076883D01*
X152359607Y-94094607D01*
X152341883Y-94110671D01*
X152322670Y-94124921D01*
X152302153Y-94137218D01*
X152280529Y-94147446D01*
X152258007Y-94155504D01*
X152234803Y-94161316D01*
X152211142Y-94164826D01*
X152187250Y-94166000D01*
X151274750Y-94166000D01*
X151250858Y-94164826D01*
X151227197Y-94161316D01*
X151203993Y-94155504D01*
X151181471Y-94147446D01*
X151159847Y-94137218D01*
X151139330Y-94124921D01*
X151120117Y-94110671D01*
X151102393Y-94094607D01*
X151086329Y-94076883D01*
X151072079Y-94057670D01*
X151059782Y-94037153D01*
X151049554Y-94015529D01*
X151041496Y-93993007D01*
X151035684Y-93969803D01*
X151032174Y-93946142D01*
X151031000Y-93922250D01*
X151031000Y-93434750D01*
X151032174Y-93410858D01*
X151035684Y-93387197D01*
X151041496Y-93363993D01*
X151049554Y-93341471D01*
X151059782Y-93319847D01*
X151072079Y-93299330D01*
X151086329Y-93280117D01*
X151102393Y-93262393D01*
X151120117Y-93246329D01*
X151139330Y-93232079D01*
X151159847Y-93219782D01*
X151181471Y-93209554D01*
X151203993Y-93201496D01*
X151227197Y-93195684D01*
X151250858Y-93192174D01*
X151274750Y-93191000D01*
X152187250Y-93191000D01*
X152211142Y-93192174D01*
G37*
G04 #@! TD.AperFunction*
G04 #@! TA.AperFunction,SMDPad,CuDef*
G36*
X152211142Y-91317174D02*
G01*
X152234803Y-91320684D01*
X152258007Y-91326496D01*
X152280529Y-91334554D01*
X152302153Y-91344782D01*
X152322670Y-91357079D01*
X152341883Y-91371329D01*
X152359607Y-91387393D01*
X152375671Y-91405117D01*
X152389921Y-91424330D01*
X152402218Y-91444847D01*
X152412446Y-91466471D01*
X152420504Y-91488993D01*
X152426316Y-91512197D01*
X152429826Y-91535858D01*
X152431000Y-91559750D01*
X152431000Y-92047250D01*
X152429826Y-92071142D01*
X152426316Y-92094803D01*
X152420504Y-92118007D01*
X152412446Y-92140529D01*
X152402218Y-92162153D01*
X152389921Y-92182670D01*
X152375671Y-92201883D01*
X152359607Y-92219607D01*
X152341883Y-92235671D01*
X152322670Y-92249921D01*
X152302153Y-92262218D01*
X152280529Y-92272446D01*
X152258007Y-92280504D01*
X152234803Y-92286316D01*
X152211142Y-92289826D01*
X152187250Y-92291000D01*
X151274750Y-92291000D01*
X151250858Y-92289826D01*
X151227197Y-92286316D01*
X151203993Y-92280504D01*
X151181471Y-92272446D01*
X151159847Y-92262218D01*
X151139330Y-92249921D01*
X151120117Y-92235671D01*
X151102393Y-92219607D01*
X151086329Y-92201883D01*
X151072079Y-92182670D01*
X151059782Y-92162153D01*
X151049554Y-92140529D01*
X151041496Y-92118007D01*
X151035684Y-92094803D01*
X151032174Y-92071142D01*
X151031000Y-92047250D01*
X151031000Y-91559750D01*
X151032174Y-91535858D01*
X151035684Y-91512197D01*
X151041496Y-91488993D01*
X151049554Y-91466471D01*
X151059782Y-91444847D01*
X151072079Y-91424330D01*
X151086329Y-91405117D01*
X151102393Y-91387393D01*
X151120117Y-91371329D01*
X151139330Y-91357079D01*
X151159847Y-91344782D01*
X151181471Y-91334554D01*
X151203993Y-91326496D01*
X151227197Y-91320684D01*
X151250858Y-91317174D01*
X151274750Y-91316000D01*
X152187250Y-91316000D01*
X152211142Y-91317174D01*
G37*
G04 #@! TD.AperFunction*
G04 #@! TA.AperFunction,SMDPad,CuDef*
G36*
X154211142Y-93192174D02*
G01*
X154234803Y-93195684D01*
X154258007Y-93201496D01*
X154280529Y-93209554D01*
X154302153Y-93219782D01*
X154322670Y-93232079D01*
X154341883Y-93246329D01*
X154359607Y-93262393D01*
X154375671Y-93280117D01*
X154389921Y-93299330D01*
X154402218Y-93319847D01*
X154412446Y-93341471D01*
X154420504Y-93363993D01*
X154426316Y-93387197D01*
X154429826Y-93410858D01*
X154431000Y-93434750D01*
X154431000Y-93922250D01*
X154429826Y-93946142D01*
X154426316Y-93969803D01*
X154420504Y-93993007D01*
X154412446Y-94015529D01*
X154402218Y-94037153D01*
X154389921Y-94057670D01*
X154375671Y-94076883D01*
X154359607Y-94094607D01*
X154341883Y-94110671D01*
X154322670Y-94124921D01*
X154302153Y-94137218D01*
X154280529Y-94147446D01*
X154258007Y-94155504D01*
X154234803Y-94161316D01*
X154211142Y-94164826D01*
X154187250Y-94166000D01*
X153274750Y-94166000D01*
X153250858Y-94164826D01*
X153227197Y-94161316D01*
X153203993Y-94155504D01*
X153181471Y-94147446D01*
X153159847Y-94137218D01*
X153139330Y-94124921D01*
X153120117Y-94110671D01*
X153102393Y-94094607D01*
X153086329Y-94076883D01*
X153072079Y-94057670D01*
X153059782Y-94037153D01*
X153049554Y-94015529D01*
X153041496Y-93993007D01*
X153035684Y-93969803D01*
X153032174Y-93946142D01*
X153031000Y-93922250D01*
X153031000Y-93434750D01*
X153032174Y-93410858D01*
X153035684Y-93387197D01*
X153041496Y-93363993D01*
X153049554Y-93341471D01*
X153059782Y-93319847D01*
X153072079Y-93299330D01*
X153086329Y-93280117D01*
X153102393Y-93262393D01*
X153120117Y-93246329D01*
X153139330Y-93232079D01*
X153159847Y-93219782D01*
X153181471Y-93209554D01*
X153203993Y-93201496D01*
X153227197Y-93195684D01*
X153250858Y-93192174D01*
X153274750Y-93191000D01*
X154187250Y-93191000D01*
X154211142Y-93192174D01*
G37*
G04 #@! TD.AperFunction*
G04 #@! TA.AperFunction,SMDPad,CuDef*
G36*
X154211142Y-91317174D02*
G01*
X154234803Y-91320684D01*
X154258007Y-91326496D01*
X154280529Y-91334554D01*
X154302153Y-91344782D01*
X154322670Y-91357079D01*
X154341883Y-91371329D01*
X154359607Y-91387393D01*
X154375671Y-91405117D01*
X154389921Y-91424330D01*
X154402218Y-91444847D01*
X154412446Y-91466471D01*
X154420504Y-91488993D01*
X154426316Y-91512197D01*
X154429826Y-91535858D01*
X154431000Y-91559750D01*
X154431000Y-92047250D01*
X154429826Y-92071142D01*
X154426316Y-92094803D01*
X154420504Y-92118007D01*
X154412446Y-92140529D01*
X154402218Y-92162153D01*
X154389921Y-92182670D01*
X154375671Y-92201883D01*
X154359607Y-92219607D01*
X154341883Y-92235671D01*
X154322670Y-92249921D01*
X154302153Y-92262218D01*
X154280529Y-92272446D01*
X154258007Y-92280504D01*
X154234803Y-92286316D01*
X154211142Y-92289826D01*
X154187250Y-92291000D01*
X153274750Y-92291000D01*
X153250858Y-92289826D01*
X153227197Y-92286316D01*
X153203993Y-92280504D01*
X153181471Y-92272446D01*
X153159847Y-92262218D01*
X153139330Y-92249921D01*
X153120117Y-92235671D01*
X153102393Y-92219607D01*
X153086329Y-92201883D01*
X153072079Y-92182670D01*
X153059782Y-92162153D01*
X153049554Y-92140529D01*
X153041496Y-92118007D01*
X153035684Y-92094803D01*
X153032174Y-92071142D01*
X153031000Y-92047250D01*
X153031000Y-91559750D01*
X153032174Y-91535858D01*
X153035684Y-91512197D01*
X153041496Y-91488993D01*
X153049554Y-91466471D01*
X153059782Y-91444847D01*
X153072079Y-91424330D01*
X153086329Y-91405117D01*
X153102393Y-91387393D01*
X153120117Y-91371329D01*
X153139330Y-91357079D01*
X153159847Y-91344782D01*
X153181471Y-91334554D01*
X153203993Y-91326496D01*
X153227197Y-91320684D01*
X153250858Y-91317174D01*
X153274750Y-91316000D01*
X154187250Y-91316000D01*
X154211142Y-91317174D01*
G37*
G04 #@! TD.AperFunction*
D15*
X136906000Y-88900000D03*
X155194000Y-89154000D03*
X152781000Y-96139000D03*
X139700000Y-95758000D03*
X155321000Y-96393000D03*
X137795000Y-96266000D03*
X134874000Y-88900000D03*
X157480000Y-88900000D03*
X147802600Y-88722200D03*
X147091400Y-88722200D03*
X146481800Y-88722200D03*
X145821400Y-88722200D03*
X145110200Y-88722200D03*
X144449800Y-88722200D03*
X147294600Y-90398600D03*
X148005800Y-90398600D03*
X144399000Y-90398600D03*
X145110200Y-90398600D03*
X146231000Y-91157400D03*
X146231000Y-92630600D03*
X146231000Y-94002200D03*
D16*
X151731000Y-93678500D02*
X153731000Y-93678500D01*
X156333500Y-93678500D02*
X156731000Y-93281000D01*
X153731000Y-93678500D02*
X156333500Y-93678500D01*
X140731000Y-93678500D02*
X138731000Y-93678500D01*
X136168500Y-93678500D02*
X135731000Y-93241000D01*
X138731000Y-93678500D02*
X138731000Y-93678500D01*
X138731000Y-93678500D02*
X136168500Y-93678500D01*
X151731000Y-91803500D02*
X153731000Y-91803500D01*
X156717800Y-90754200D02*
X156731000Y-90741000D01*
X155575000Y-90754200D02*
X156717800Y-90754200D01*
X154525700Y-91803500D02*
X155575000Y-90754200D01*
X153731000Y-91803500D02*
X154525700Y-91803500D01*
X149758400Y-92925900D02*
X150880800Y-91803500D01*
X149758400Y-94663600D02*
X149758400Y-92925900D01*
X150880800Y-91803500D02*
X151731000Y-91803500D01*
X148531000Y-95891000D02*
X149758400Y-94663600D01*
X138713500Y-91821000D02*
X138731000Y-91803500D01*
X135731000Y-90701000D02*
X136814700Y-90701000D01*
D17*
X146231000Y-95891000D02*
X146231000Y-95526200D01*
D18*
X146231000Y-89591000D02*
X146231000Y-89591000D01*
D17*
X146231000Y-91157400D02*
X146231000Y-89591000D01*
X146231000Y-92630600D02*
X146231000Y-91157400D01*
X146231000Y-94002200D02*
X146231000Y-92630600D01*
X146231000Y-95526200D02*
X146231000Y-94002200D01*
D16*
X137917200Y-91803500D02*
X138031000Y-91803500D01*
X138031000Y-91803500D02*
X138731000Y-91803500D01*
X136814700Y-90701000D02*
X137917200Y-91803500D01*
X138731000Y-91803500D02*
X140731000Y-91803500D01*
X142943500Y-89591000D02*
X146231000Y-89591000D01*
X140731000Y-91803500D02*
X142943500Y-89591000D01*
X138731000Y-89303500D02*
X138793500Y-89241000D01*
X138731000Y-91803500D02*
X138731000Y-89303500D01*
X140668500Y-89241000D02*
X141156000Y-89241000D01*
X141156000Y-89241000D02*
X142944800Y-87452200D01*
X142944800Y-87452200D02*
X150004700Y-87452200D01*
X150004700Y-87452200D02*
X151793500Y-89241000D01*
D19*
G36*
X155636820Y-92180502D02*
G01*
X155717466Y-92204966D01*
X155633412Y-92280731D01*
X155459359Y-92514080D01*
X155334175Y-92776901D01*
X155289524Y-92924110D01*
X155410845Y-93154000D01*
X156604000Y-93154000D01*
X156604000Y-93134000D01*
X156858000Y-93134000D01*
X156858000Y-93154000D01*
X156878000Y-93154000D01*
X156878000Y-93408000D01*
X156858000Y-93408000D01*
X156858000Y-94601814D01*
X157087891Y-94722481D01*
X157362252Y-94625157D01*
X157612355Y-94476178D01*
X157828588Y-94281269D01*
X158002641Y-94047920D01*
X158071001Y-93904400D01*
X158071001Y-97081000D01*
X149886937Y-97081000D01*
X149906812Y-97015482D01*
X149919072Y-96891000D01*
X149919072Y-95931284D01*
X150437499Y-95412857D01*
X150476033Y-95381233D01*
X150602247Y-95227440D01*
X150696032Y-95051980D01*
X150712581Y-94997426D01*
X150753785Y-94861595D01*
X150765364Y-94744033D01*
X150786820Y-94755502D01*
X150906518Y-94791812D01*
X151031000Y-94804072D01*
X151445250Y-94801000D01*
X151604000Y-94642250D01*
X151604000Y-93805500D01*
X151858000Y-93805500D01*
X151858000Y-94642250D01*
X152016750Y-94801000D01*
X152431000Y-94804072D01*
X152555482Y-94791812D01*
X152675180Y-94755502D01*
X152731000Y-94725665D01*
X152786820Y-94755502D01*
X152906518Y-94791812D01*
X153031000Y-94804072D01*
X153445250Y-94801000D01*
X153604000Y-94642250D01*
X153604000Y-93805500D01*
X153858000Y-93805500D01*
X153858000Y-94642250D01*
X154016750Y-94801000D01*
X154431000Y-94804072D01*
X154555482Y-94791812D01*
X154675180Y-94755502D01*
X154785494Y-94696537D01*
X154882185Y-94617185D01*
X154961537Y-94520494D01*
X155020502Y-94410180D01*
X155056812Y-94290482D01*
X155069072Y-94166000D01*
X155066000Y-93964250D01*
X154907250Y-93805500D01*
X153858000Y-93805500D01*
X153604000Y-93805500D01*
X151858000Y-93805500D01*
X151604000Y-93805500D01*
X151584000Y-93805500D01*
X151584000Y-93637890D01*
X155289524Y-93637890D01*
X155334175Y-93785099D01*
X155459359Y-94047920D01*
X155633412Y-94281269D01*
X155849645Y-94476178D01*
X156099748Y-94625157D01*
X156374109Y-94722481D01*
X156604000Y-94601814D01*
X156604000Y-93408000D01*
X155410845Y-93408000D01*
X155289524Y-93637890D01*
X151584000Y-93637890D01*
X151584000Y-93551500D01*
X151604000Y-93551500D01*
X151604000Y-93531500D01*
X151858000Y-93531500D01*
X151858000Y-93551500D01*
X153604000Y-93551500D01*
X153604000Y-93531500D01*
X153858000Y-93531500D01*
X153858000Y-93551500D01*
X154907250Y-93551500D01*
X155066000Y-93392750D01*
X155069072Y-93191000D01*
X155056812Y-93066518D01*
X155020502Y-92946820D01*
X154961537Y-92836506D01*
X154889408Y-92748616D01*
X154914080Y-92741132D01*
X155089540Y-92647347D01*
X155243333Y-92521133D01*
X155274961Y-92482594D01*
X155597872Y-92159683D01*
X155636820Y-92180502D01*
G37*
X155636820Y-92180502D02*
X155717466Y-92204966D01*
X155633412Y-92280731D01*
X155459359Y-92514080D01*
X155334175Y-92776901D01*
X155289524Y-92924110D01*
X155410845Y-93154000D01*
X156604000Y-93154000D01*
X156604000Y-93134000D01*
X156858000Y-93134000D01*
X156858000Y-93154000D01*
X156878000Y-93154000D01*
X156878000Y-93408000D01*
X156858000Y-93408000D01*
X156858000Y-94601814D01*
X157087891Y-94722481D01*
X157362252Y-94625157D01*
X157612355Y-94476178D01*
X157828588Y-94281269D01*
X158002641Y-94047920D01*
X158071001Y-93904400D01*
X158071001Y-97081000D01*
X149886937Y-97081000D01*
X149906812Y-97015482D01*
X149919072Y-96891000D01*
X149919072Y-95931284D01*
X150437499Y-95412857D01*
X150476033Y-95381233D01*
X150602247Y-95227440D01*
X150696032Y-95051980D01*
X150712581Y-94997426D01*
X150753785Y-94861595D01*
X150765364Y-94744033D01*
X150786820Y-94755502D01*
X150906518Y-94791812D01*
X151031000Y-94804072D01*
X151445250Y-94801000D01*
X151604000Y-94642250D01*
X151604000Y-93805500D01*
X151858000Y-93805500D01*
X151858000Y-94642250D01*
X152016750Y-94801000D01*
X152431000Y-94804072D01*
X152555482Y-94791812D01*
X152675180Y-94755502D01*
X152731000Y-94725665D01*
X152786820Y-94755502D01*
X152906518Y-94791812D01*
X153031000Y-94804072D01*
X153445250Y-94801000D01*
X153604000Y-94642250D01*
X153604000Y-93805500D01*
X153858000Y-93805500D01*
X153858000Y-94642250D01*
X154016750Y-94801000D01*
X154431000Y-94804072D01*
X154555482Y-94791812D01*
X154675180Y-94755502D01*
X154785494Y-94696537D01*
X154882185Y-94617185D01*
X154961537Y-94520494D01*
X155020502Y-94410180D01*
X155056812Y-94290482D01*
X155069072Y-94166000D01*
X155066000Y-93964250D01*
X154907250Y-93805500D01*
X153858000Y-93805500D01*
X153604000Y-93805500D01*
X151858000Y-93805500D01*
X151604000Y-93805500D01*
X151584000Y-93805500D01*
X151584000Y-93637890D01*
X155289524Y-93637890D01*
X155334175Y-93785099D01*
X155459359Y-94047920D01*
X155633412Y-94281269D01*
X155849645Y-94476178D01*
X156099748Y-94625157D01*
X156374109Y-94722481D01*
X156604000Y-94601814D01*
X156604000Y-93408000D01*
X155410845Y-93408000D01*
X155289524Y-93637890D01*
X151584000Y-93637890D01*
X151584000Y-93551500D01*
X151604000Y-93551500D01*
X151604000Y-93531500D01*
X151858000Y-93531500D01*
X151858000Y-93551500D01*
X153604000Y-93551500D01*
X153604000Y-93531500D01*
X153858000Y-93531500D01*
X153858000Y-93551500D01*
X154907250Y-93551500D01*
X155066000Y-93392750D01*
X155069072Y-93191000D01*
X155056812Y-93066518D01*
X155020502Y-92946820D01*
X154961537Y-92836506D01*
X154889408Y-92748616D01*
X154914080Y-92741132D01*
X155089540Y-92647347D01*
X155243333Y-92521133D01*
X155274961Y-92482594D01*
X155597872Y-92159683D01*
X155636820Y-92180502D01*
G36*
X143403774Y-90700498D02*
G01*
X143481795Y-90888856D01*
X143595063Y-91058374D01*
X143739226Y-91202537D01*
X143908744Y-91315805D01*
X144097102Y-91393826D01*
X144297061Y-91433600D01*
X144500939Y-91433600D01*
X144700898Y-91393826D01*
X144754600Y-91371582D01*
X144808302Y-91393826D01*
X145008261Y-91433600D01*
X145096000Y-91433600D01*
X145096000Y-94385499D01*
X145081000Y-94397809D01*
X145035494Y-94360463D01*
X144925180Y-94301498D01*
X144805482Y-94265188D01*
X144681000Y-94252928D01*
X144216750Y-94256000D01*
X144058000Y-94414750D01*
X144058000Y-95764000D01*
X144078000Y-95764000D01*
X144078000Y-96018000D01*
X144058000Y-96018000D01*
X144058000Y-96038000D01*
X143804000Y-96038000D01*
X143804000Y-96018000D01*
X142704750Y-96018000D01*
X142546000Y-96176750D01*
X142542928Y-96891000D01*
X142555188Y-97015482D01*
X142575063Y-97081000D01*
X134391000Y-97081000D01*
X134391000Y-94891000D01*
X142542928Y-94891000D01*
X142546000Y-95605250D01*
X142704750Y-95764000D01*
X143804000Y-95764000D01*
X143804000Y-94414750D01*
X143645250Y-94256000D01*
X143181000Y-94252928D01*
X143056518Y-94265188D01*
X142936820Y-94301498D01*
X142826506Y-94360463D01*
X142729815Y-94439815D01*
X142650463Y-94536506D01*
X142591498Y-94646820D01*
X142555188Y-94766518D01*
X142542928Y-94891000D01*
X134391000Y-94891000D01*
X134391000Y-94494889D01*
X134429815Y-94542185D01*
X134526506Y-94621537D01*
X134636820Y-94680502D01*
X134756518Y-94716812D01*
X134881000Y-94729072D01*
X135445250Y-94726000D01*
X135604000Y-94567250D01*
X135604000Y-93368000D01*
X135858000Y-93368000D01*
X135858000Y-94567250D01*
X136016750Y-94726000D01*
X136581000Y-94729072D01*
X136705482Y-94716812D01*
X136825180Y-94680502D01*
X136935494Y-94621537D01*
X137032185Y-94542185D01*
X137111537Y-94445494D01*
X137170502Y-94335180D01*
X137206812Y-94215482D01*
X137211685Y-94166000D01*
X137392928Y-94166000D01*
X137405188Y-94290482D01*
X137441498Y-94410180D01*
X137500463Y-94520494D01*
X137579815Y-94617185D01*
X137676506Y-94696537D01*
X137786820Y-94755502D01*
X137906518Y-94791812D01*
X138031000Y-94804072D01*
X138445250Y-94801000D01*
X138604000Y-94642250D01*
X138604000Y-93805500D01*
X138858000Y-93805500D01*
X138858000Y-94642250D01*
X139016750Y-94801000D01*
X139431000Y-94804072D01*
X139555482Y-94791812D01*
X139675180Y-94755502D01*
X139731000Y-94725665D01*
X139786820Y-94755502D01*
X139906518Y-94791812D01*
X140031000Y-94804072D01*
X140445250Y-94801000D01*
X140604000Y-94642250D01*
X140604000Y-93805500D01*
X140858000Y-93805500D01*
X140858000Y-94642250D01*
X141016750Y-94801000D01*
X141431000Y-94804072D01*
X141555482Y-94791812D01*
X141675180Y-94755502D01*
X141785494Y-94696537D01*
X141882185Y-94617185D01*
X141961537Y-94520494D01*
X142020502Y-94410180D01*
X142056812Y-94290482D01*
X142069072Y-94166000D01*
X142066000Y-93964250D01*
X141907250Y-93805500D01*
X140858000Y-93805500D01*
X140604000Y-93805500D01*
X138858000Y-93805500D01*
X138604000Y-93805500D01*
X137554750Y-93805500D01*
X137396000Y-93964250D01*
X137392928Y-94166000D01*
X137211685Y-94166000D01*
X137219072Y-94091000D01*
X137216000Y-93526750D01*
X137057250Y-93368000D01*
X135858000Y-93368000D01*
X135604000Y-93368000D01*
X135584000Y-93368000D01*
X135584000Y-93114000D01*
X135604000Y-93114000D01*
X135604000Y-93094000D01*
X135858000Y-93094000D01*
X135858000Y-93114000D01*
X137057250Y-93114000D01*
X137216000Y-92955250D01*
X137218280Y-92536490D01*
X137353360Y-92647347D01*
X137528820Y-92741132D01*
X137568785Y-92753255D01*
X137500463Y-92836506D01*
X137441498Y-92946820D01*
X137405188Y-93066518D01*
X137392928Y-93191000D01*
X137396000Y-93392750D01*
X137554750Y-93551500D01*
X138604000Y-93551500D01*
X138604000Y-93531500D01*
X138858000Y-93531500D01*
X138858000Y-93551500D01*
X140604000Y-93551500D01*
X140604000Y-93531500D01*
X140858000Y-93531500D01*
X140858000Y-93551500D01*
X141907250Y-93551500D01*
X142066000Y-93392750D01*
X142069072Y-93191000D01*
X142056812Y-93066518D01*
X142020502Y-92946820D01*
X141961537Y-92836506D01*
X141882185Y-92739815D01*
X141804436Y-92676008D01*
X141810792Y-92670792D01*
X141920458Y-92537164D01*
X142001947Y-92384709D01*
X142052128Y-92219285D01*
X142069072Y-92047250D01*
X142069072Y-91893783D01*
X143361856Y-90601000D01*
X143383983Y-90601000D01*
X143403774Y-90700498D01*
G37*
X143403774Y-90700498D02*
X143481795Y-90888856D01*
X143595063Y-91058374D01*
X143739226Y-91202537D01*
X143908744Y-91315805D01*
X144097102Y-91393826D01*
X144297061Y-91433600D01*
X144500939Y-91433600D01*
X144700898Y-91393826D01*
X144754600Y-91371582D01*
X144808302Y-91393826D01*
X145008261Y-91433600D01*
X145096000Y-91433600D01*
X145096000Y-94385499D01*
X145081000Y-94397809D01*
X145035494Y-94360463D01*
X144925180Y-94301498D01*
X144805482Y-94265188D01*
X144681000Y-94252928D01*
X144216750Y-94256000D01*
X144058000Y-94414750D01*
X144058000Y-95764000D01*
X144078000Y-95764000D01*
X144078000Y-96018000D01*
X144058000Y-96018000D01*
X144058000Y-96038000D01*
X143804000Y-96038000D01*
X143804000Y-96018000D01*
X142704750Y-96018000D01*
X142546000Y-96176750D01*
X142542928Y-96891000D01*
X142555188Y-97015482D01*
X142575063Y-97081000D01*
X134391000Y-97081000D01*
X134391000Y-94891000D01*
X142542928Y-94891000D01*
X142546000Y-95605250D01*
X142704750Y-95764000D01*
X143804000Y-95764000D01*
X143804000Y-94414750D01*
X143645250Y-94256000D01*
X143181000Y-94252928D01*
X143056518Y-94265188D01*
X142936820Y-94301498D01*
X142826506Y-94360463D01*
X142729815Y-94439815D01*
X142650463Y-94536506D01*
X142591498Y-94646820D01*
X142555188Y-94766518D01*
X142542928Y-94891000D01*
X134391000Y-94891000D01*
X134391000Y-94494889D01*
X134429815Y-94542185D01*
X134526506Y-94621537D01*
X134636820Y-94680502D01*
X134756518Y-94716812D01*
X134881000Y-94729072D01*
X135445250Y-94726000D01*
X135604000Y-94567250D01*
X135604000Y-93368000D01*
X135858000Y-93368000D01*
X135858000Y-94567250D01*
X136016750Y-94726000D01*
X136581000Y-94729072D01*
X136705482Y-94716812D01*
X136825180Y-94680502D01*
X136935494Y-94621537D01*
X137032185Y-94542185D01*
X137111537Y-94445494D01*
X137170502Y-94335180D01*
X137206812Y-94215482D01*
X137211685Y-94166000D01*
X137392928Y-94166000D01*
X137405188Y-94290482D01*
X137441498Y-94410180D01*
X137500463Y-94520494D01*
X137579815Y-94617185D01*
X137676506Y-94696537D01*
X137786820Y-94755502D01*
X137906518Y-94791812D01*
X138031000Y-94804072D01*
X138445250Y-94801000D01*
X138604000Y-94642250D01*
X138604000Y-93805500D01*
X138858000Y-93805500D01*
X138858000Y-94642250D01*
X139016750Y-94801000D01*
X139431000Y-94804072D01*
X139555482Y-94791812D01*
X139675180Y-94755502D01*
X139731000Y-94725665D01*
X139786820Y-94755502D01*
X139906518Y-94791812D01*
X140031000Y-94804072D01*
X140445250Y-94801000D01*
X140604000Y-94642250D01*
X140604000Y-93805500D01*
X140858000Y-93805500D01*
X140858000Y-94642250D01*
X141016750Y-94801000D01*
X141431000Y-94804072D01*
X141555482Y-94791812D01*
X141675180Y-94755502D01*
X141785494Y-94696537D01*
X141882185Y-94617185D01*
X141961537Y-94520494D01*
X142020502Y-94410180D01*
X142056812Y-94290482D01*
X142069072Y-94166000D01*
X142066000Y-93964250D01*
X141907250Y-93805500D01*
X140858000Y-93805500D01*
X140604000Y-93805500D01*
X138858000Y-93805500D01*
X138604000Y-93805500D01*
X137554750Y-93805500D01*
X137396000Y-93964250D01*
X137392928Y-94166000D01*
X137211685Y-94166000D01*
X137219072Y-94091000D01*
X137216000Y-93526750D01*
X137057250Y-93368000D01*
X135858000Y-93368000D01*
X135604000Y-93368000D01*
X135584000Y-93368000D01*
X135584000Y-93114000D01*
X135604000Y-93114000D01*
X135604000Y-93094000D01*
X135858000Y-93094000D01*
X135858000Y-93114000D01*
X137057250Y-93114000D01*
X137216000Y-92955250D01*
X137218280Y-92536490D01*
X137353360Y-92647347D01*
X137528820Y-92741132D01*
X137568785Y-92753255D01*
X137500463Y-92836506D01*
X137441498Y-92946820D01*
X137405188Y-93066518D01*
X137392928Y-93191000D01*
X137396000Y-93392750D01*
X137554750Y-93551500D01*
X138604000Y-93551500D01*
X138604000Y-93531500D01*
X138858000Y-93531500D01*
X138858000Y-93551500D01*
X140604000Y-93551500D01*
X140604000Y-93531500D01*
X140858000Y-93531500D01*
X140858000Y-93551500D01*
X141907250Y-93551500D01*
X142066000Y-93392750D01*
X142069072Y-93191000D01*
X142056812Y-93066518D01*
X142020502Y-92946820D01*
X141961537Y-92836506D01*
X141882185Y-92739815D01*
X141804436Y-92676008D01*
X141810792Y-92670792D01*
X141920458Y-92537164D01*
X142001947Y-92384709D01*
X142052128Y-92219285D01*
X142069072Y-92047250D01*
X142069072Y-91893783D01*
X143361856Y-90601000D01*
X143383983Y-90601000D01*
X143403774Y-90700498D01*
G36*
X158071000Y-89487112D02*
G01*
X158032185Y-89439815D01*
X157935494Y-89360463D01*
X157825180Y-89301498D01*
X157705482Y-89265188D01*
X157581000Y-89252928D01*
X155881000Y-89252928D01*
X155756518Y-89265188D01*
X155636820Y-89301498D01*
X155526506Y-89360463D01*
X155429815Y-89439815D01*
X155350463Y-89536506D01*
X155291498Y-89646820D01*
X155255188Y-89766518D01*
X155252218Y-89796669D01*
X155186620Y-89816568D01*
X155011160Y-89910353D01*
X154857367Y-90036567D01*
X154825739Y-90075106D01*
X154758494Y-90142351D01*
X154781812Y-90065482D01*
X154794072Y-89941000D01*
X154791000Y-89526750D01*
X154632250Y-89368000D01*
X153795500Y-89368000D01*
X153795500Y-90417250D01*
X153954250Y-90576000D01*
X154156000Y-90579072D01*
X154280482Y-90566812D01*
X154357351Y-90543494D01*
X154219719Y-90681126D01*
X154187250Y-90677928D01*
X153274750Y-90677928D01*
X153102715Y-90694872D01*
X152937291Y-90745053D01*
X152846653Y-90793500D01*
X152615347Y-90793500D01*
X152524709Y-90745053D01*
X152359285Y-90694872D01*
X152187250Y-90677928D01*
X151274750Y-90677928D01*
X151102715Y-90694872D01*
X150937291Y-90745053D01*
X150850146Y-90791633D01*
X150831194Y-90793500D01*
X150831192Y-90793500D01*
X150682806Y-90808115D01*
X150492420Y-90865868D01*
X150316960Y-90959653D01*
X150163167Y-91085867D01*
X150131539Y-91124406D01*
X149079301Y-92176644D01*
X149040768Y-92208267D01*
X149009145Y-92246800D01*
X149009144Y-92246801D01*
X148914554Y-92362060D01*
X148820768Y-92537521D01*
X148763015Y-92727906D01*
X148743514Y-92925900D01*
X148748401Y-92975517D01*
X148748400Y-94245244D01*
X148740716Y-94252928D01*
X147781000Y-94252928D01*
X147656518Y-94265188D01*
X147536820Y-94301498D01*
X147426506Y-94360463D01*
X147381000Y-94397809D01*
X147366000Y-94385499D01*
X147366000Y-91433600D01*
X147396539Y-91433600D01*
X147596498Y-91393826D01*
X147650200Y-91371582D01*
X147703902Y-91393826D01*
X147903861Y-91433600D01*
X148107739Y-91433600D01*
X148307698Y-91393826D01*
X148496056Y-91315805D01*
X148665574Y-91202537D01*
X148809737Y-91058374D01*
X148923005Y-90888856D01*
X149001026Y-90700498D01*
X149040800Y-90500539D01*
X149040800Y-90296661D01*
X149001026Y-90096702D01*
X148923005Y-89908344D01*
X148809737Y-89738826D01*
X148769072Y-89698161D01*
X148769072Y-89093516D01*
X148797826Y-89024098D01*
X148837600Y-88824139D01*
X148837600Y-88620261D01*
X148806160Y-88462200D01*
X149586345Y-88462200D01*
X150667928Y-89543783D01*
X150667928Y-89697250D01*
X150684872Y-89869285D01*
X150735053Y-90034709D01*
X150816542Y-90187164D01*
X150926208Y-90320792D01*
X151059836Y-90430458D01*
X151212291Y-90511947D01*
X151377715Y-90562128D01*
X151549750Y-90579072D01*
X152037250Y-90579072D01*
X152209285Y-90562128D01*
X152374709Y-90511947D01*
X152527164Y-90430458D01*
X152660792Y-90320792D01*
X152666008Y-90314436D01*
X152729815Y-90392185D01*
X152826506Y-90471537D01*
X152936820Y-90530502D01*
X153056518Y-90566812D01*
X153181000Y-90579072D01*
X153382750Y-90576000D01*
X153541500Y-90417250D01*
X153541500Y-89368000D01*
X153521500Y-89368000D01*
X153521500Y-89114000D01*
X153541500Y-89114000D01*
X153541500Y-88064750D01*
X153795500Y-88064750D01*
X153795500Y-89114000D01*
X154632250Y-89114000D01*
X154791000Y-88955250D01*
X154794072Y-88541000D01*
X154781812Y-88416518D01*
X154745502Y-88296820D01*
X154686537Y-88186506D01*
X154607185Y-88089815D01*
X154510494Y-88010463D01*
X154400180Y-87951498D01*
X154280482Y-87915188D01*
X154156000Y-87902928D01*
X153954250Y-87906000D01*
X153795500Y-88064750D01*
X153541500Y-88064750D01*
X153382750Y-87906000D01*
X153181000Y-87902928D01*
X153056518Y-87915188D01*
X152936820Y-87951498D01*
X152826506Y-88010463D01*
X152729815Y-88089815D01*
X152666008Y-88167564D01*
X152660792Y-88161208D01*
X152527164Y-88051542D01*
X152374709Y-87970053D01*
X152209285Y-87919872D01*
X152037250Y-87902928D01*
X151883783Y-87902928D01*
X151381855Y-87401000D01*
X158071000Y-87401000D01*
X158071000Y-89487112D01*
G37*
X158071000Y-89487112D02*
X158032185Y-89439815D01*
X157935494Y-89360463D01*
X157825180Y-89301498D01*
X157705482Y-89265188D01*
X157581000Y-89252928D01*
X155881000Y-89252928D01*
X155756518Y-89265188D01*
X155636820Y-89301498D01*
X155526506Y-89360463D01*
X155429815Y-89439815D01*
X155350463Y-89536506D01*
X155291498Y-89646820D01*
X155255188Y-89766518D01*
X155252218Y-89796669D01*
X155186620Y-89816568D01*
X155011160Y-89910353D01*
X154857367Y-90036567D01*
X154825739Y-90075106D01*
X154758494Y-90142351D01*
X154781812Y-90065482D01*
X154794072Y-89941000D01*
X154791000Y-89526750D01*
X154632250Y-89368000D01*
X153795500Y-89368000D01*
X153795500Y-90417250D01*
X153954250Y-90576000D01*
X154156000Y-90579072D01*
X154280482Y-90566812D01*
X154357351Y-90543494D01*
X154219719Y-90681126D01*
X154187250Y-90677928D01*
X153274750Y-90677928D01*
X153102715Y-90694872D01*
X152937291Y-90745053D01*
X152846653Y-90793500D01*
X152615347Y-90793500D01*
X152524709Y-90745053D01*
X152359285Y-90694872D01*
X152187250Y-90677928D01*
X151274750Y-90677928D01*
X151102715Y-90694872D01*
X150937291Y-90745053D01*
X150850146Y-90791633D01*
X150831194Y-90793500D01*
X150831192Y-90793500D01*
X150682806Y-90808115D01*
X150492420Y-90865868D01*
X150316960Y-90959653D01*
X150163167Y-91085867D01*
X150131539Y-91124406D01*
X149079301Y-92176644D01*
X149040768Y-92208267D01*
X149009145Y-92246800D01*
X149009144Y-92246801D01*
X148914554Y-92362060D01*
X148820768Y-92537521D01*
X148763015Y-92727906D01*
X148743514Y-92925900D01*
X148748401Y-92975517D01*
X148748400Y-94245244D01*
X148740716Y-94252928D01*
X147781000Y-94252928D01*
X147656518Y-94265188D01*
X147536820Y-94301498D01*
X147426506Y-94360463D01*
X147381000Y-94397809D01*
X147366000Y-94385499D01*
X147366000Y-91433600D01*
X147396539Y-91433600D01*
X147596498Y-91393826D01*
X147650200Y-91371582D01*
X147703902Y-91393826D01*
X147903861Y-91433600D01*
X148107739Y-91433600D01*
X148307698Y-91393826D01*
X148496056Y-91315805D01*
X148665574Y-91202537D01*
X148809737Y-91058374D01*
X148923005Y-90888856D01*
X149001026Y-90700498D01*
X149040800Y-90500539D01*
X149040800Y-90296661D01*
X149001026Y-90096702D01*
X148923005Y-89908344D01*
X148809737Y-89738826D01*
X148769072Y-89698161D01*
X148769072Y-89093516D01*
X148797826Y-89024098D01*
X148837600Y-88824139D01*
X148837600Y-88620261D01*
X148806160Y-88462200D01*
X149586345Y-88462200D01*
X150667928Y-89543783D01*
X150667928Y-89697250D01*
X150684872Y-89869285D01*
X150735053Y-90034709D01*
X150816542Y-90187164D01*
X150926208Y-90320792D01*
X151059836Y-90430458D01*
X151212291Y-90511947D01*
X151377715Y-90562128D01*
X151549750Y-90579072D01*
X152037250Y-90579072D01*
X152209285Y-90562128D01*
X152374709Y-90511947D01*
X152527164Y-90430458D01*
X152660792Y-90320792D01*
X152666008Y-90314436D01*
X152729815Y-90392185D01*
X152826506Y-90471537D01*
X152936820Y-90530502D01*
X153056518Y-90566812D01*
X153181000Y-90579072D01*
X153382750Y-90576000D01*
X153541500Y-90417250D01*
X153541500Y-89368000D01*
X153521500Y-89368000D01*
X153521500Y-89114000D01*
X153541500Y-89114000D01*
X153541500Y-88064750D01*
X153795500Y-88064750D01*
X153795500Y-89114000D01*
X154632250Y-89114000D01*
X154791000Y-88955250D01*
X154794072Y-88541000D01*
X154781812Y-88416518D01*
X154745502Y-88296820D01*
X154686537Y-88186506D01*
X154607185Y-88089815D01*
X154510494Y-88010463D01*
X154400180Y-87951498D01*
X154280482Y-87915188D01*
X154156000Y-87902928D01*
X153954250Y-87906000D01*
X153795500Y-88064750D01*
X153541500Y-88064750D01*
X153382750Y-87906000D01*
X153181000Y-87902928D01*
X153056518Y-87915188D01*
X152936820Y-87951498D01*
X152826506Y-88010463D01*
X152729815Y-88089815D01*
X152666008Y-88167564D01*
X152660792Y-88161208D01*
X152527164Y-88051542D01*
X152374709Y-87970053D01*
X152209285Y-87919872D01*
X152037250Y-87902928D01*
X151883783Y-87902928D01*
X151381855Y-87401000D01*
X158071000Y-87401000D01*
X158071000Y-89487112D01*
G36*
X141051957Y-87916688D02*
G01*
X140912250Y-87902928D01*
X140424750Y-87902928D01*
X140252715Y-87919872D01*
X140087291Y-87970053D01*
X139934836Y-88051542D01*
X139801208Y-88161208D01*
X139731000Y-88246756D01*
X139660792Y-88161208D01*
X139527164Y-88051542D01*
X139374709Y-87970053D01*
X139209285Y-87919872D01*
X139037250Y-87902928D01*
X138549750Y-87902928D01*
X138377715Y-87919872D01*
X138212291Y-87970053D01*
X138059836Y-88051542D01*
X137926208Y-88161208D01*
X137816542Y-88294836D01*
X137735053Y-88447291D01*
X137684872Y-88612715D01*
X137667928Y-88784750D01*
X137667928Y-89697250D01*
X137684872Y-89869285D01*
X137721001Y-89988385D01*
X137721001Y-90178945D01*
X137563961Y-90021906D01*
X137532333Y-89983367D01*
X137378540Y-89857153D01*
X137203080Y-89763368D01*
X137012694Y-89705615D01*
X136864308Y-89691000D01*
X136816387Y-89686280D01*
X136677632Y-89547525D01*
X136434411Y-89385010D01*
X136164158Y-89273068D01*
X135877260Y-89216000D01*
X135584740Y-89216000D01*
X135297842Y-89273068D01*
X135027589Y-89385010D01*
X134784368Y-89547525D01*
X134577525Y-89754368D01*
X134415010Y-89997589D01*
X134391000Y-90055555D01*
X134391000Y-87401000D01*
X141567645Y-87401000D01*
X141051957Y-87916688D01*
G37*
X141051957Y-87916688D02*
X140912250Y-87902928D01*
X140424750Y-87902928D01*
X140252715Y-87919872D01*
X140087291Y-87970053D01*
X139934836Y-88051542D01*
X139801208Y-88161208D01*
X139731000Y-88246756D01*
X139660792Y-88161208D01*
X139527164Y-88051542D01*
X139374709Y-87970053D01*
X139209285Y-87919872D01*
X139037250Y-87902928D01*
X138549750Y-87902928D01*
X138377715Y-87919872D01*
X138212291Y-87970053D01*
X138059836Y-88051542D01*
X137926208Y-88161208D01*
X137816542Y-88294836D01*
X137735053Y-88447291D01*
X137684872Y-88612715D01*
X137667928Y-88784750D01*
X137667928Y-89697250D01*
X137684872Y-89869285D01*
X137721001Y-89988385D01*
X137721001Y-90178945D01*
X137563961Y-90021906D01*
X137532333Y-89983367D01*
X137378540Y-89857153D01*
X137203080Y-89763368D01*
X137012694Y-89705615D01*
X136864308Y-89691000D01*
X136816387Y-89686280D01*
X136677632Y-89547525D01*
X136434411Y-89385010D01*
X136164158Y-89273068D01*
X135877260Y-89216000D01*
X135584740Y-89216000D01*
X135297842Y-89273068D01*
X135027589Y-89385010D01*
X134784368Y-89547525D01*
X134577525Y-89754368D01*
X134415010Y-89997589D01*
X134391000Y-90055555D01*
X134391000Y-87401000D01*
X141567645Y-87401000D01*
X141051957Y-87916688D01*
M02*
