M48
; DRILL file {KiCad 5.1.5-52549c5~86~ubuntu16.04.1} date Wed Jul 22 23:44:13 2020
; FORMAT={-:-/ absolute / inch / decimal}
; #@! TF.CreationDate,2020-07-22T23:44:13+05:30
; #@! TF.GenerationSoftware,Kicad,Pcbnew,5.1.5-52549c5~86~ubuntu16.04.1
FMAT,2
INCH
T1C0.0157
T2C0.0276
T3C0.0354
T4C0.0394
T5C0.0433
T6C0.1260
%
G90
G05
T1
X4.47Y-4.28
X4.53Y-4.34
X4.67Y-4.0
X4.9Y-4.39
X4.98Y-4.15
X5.05Y-4.15
X5.12Y-4.0
T2
X4.2031Y-4.4
X4.4Y-4.3031
X4.4Y-4.5
X4.2031Y-4.1
X4.4Y-4.0031
X4.4Y-4.2
T3
X5.24Y-4.35
X5.24Y-4.45
T4
X4.5627Y-4.4984
X4.6627Y-4.4984
X4.02Y-4.1
X4.02Y-4.2
X4.02Y-4.3
X4.02Y-4.4
T5
X5.4134Y-4.0016
X5.4134Y-4.1016
X5.4134Y-4.2016
T6
X4.9409Y-4.252
T0
M30
