G04 #@! TF.GenerationSoftware,KiCad,Pcbnew,5.1.5-52549c5~86~ubuntu16.04.1*
G04 #@! TF.CreationDate,2020-07-27T16:21:35+05:30*
G04 #@! TF.ProjectId,IR_Sensor_Module_V1.0,49525f53-656e-4736-9f72-5f4d6f64756c,V1.0*
G04 #@! TF.SameCoordinates,Original*
G04 #@! TF.FileFunction,Copper,L1,Top*
G04 #@! TF.FilePolarity,Positive*
%FSLAX46Y46*%
G04 Gerber Fmt 4.6, Leading zero omitted, Abs format (unit mm)*
G04 Created by KiCad (PCBNEW 5.1.5-52549c5~86~ubuntu16.04.1) date 2020-07-27 16:21:35*
%MOMM*%
%LPD*%
G04 APERTURE LIST*
%ADD10C,1.800000*%
%ADD11R,1.800000X1.800000*%
%ADD12C,0.100000*%
%ADD13R,1.700000X1.700000*%
%ADD14O,1.700000X1.700000*%
%ADD15C,1.440000*%
%ADD16C,0.762000*%
%ADD17C,0.457200*%
%ADD18C,0.355600*%
%ADD19C,0.254000*%
G04 APERTURE END LIST*
D10*
X130302000Y-90170000D03*
D11*
X130302000Y-92710000D03*
G04 #@! TA.AperFunction,SMDPad,CuDef*
D12*
G36*
X135976505Y-88688805D02*
G01*
X136000773Y-88692405D01*
X136024572Y-88698366D01*
X136047671Y-88706631D01*
X136069850Y-88717121D01*
X136090893Y-88729733D01*
X136110599Y-88744348D01*
X136128777Y-88760824D01*
X136145253Y-88779002D01*
X136159868Y-88798708D01*
X136172480Y-88819751D01*
X136182970Y-88841930D01*
X136191235Y-88865029D01*
X136197196Y-88888828D01*
X136200796Y-88913096D01*
X136202000Y-88937600D01*
X136202000Y-89837602D01*
X136200796Y-89862106D01*
X136197196Y-89886374D01*
X136191235Y-89910173D01*
X136182970Y-89933272D01*
X136172480Y-89955451D01*
X136159868Y-89976494D01*
X136145253Y-89996200D01*
X136128777Y-90014378D01*
X136110599Y-90030854D01*
X136090893Y-90045469D01*
X136069850Y-90058081D01*
X136047671Y-90068571D01*
X136024572Y-90076836D01*
X136000773Y-90082797D01*
X135976505Y-90086397D01*
X135952001Y-90087601D01*
X135301999Y-90087601D01*
X135277495Y-90086397D01*
X135253227Y-90082797D01*
X135229428Y-90076836D01*
X135206329Y-90068571D01*
X135184150Y-90058081D01*
X135163107Y-90045469D01*
X135143401Y-90030854D01*
X135125223Y-90014378D01*
X135108747Y-89996200D01*
X135094132Y-89976494D01*
X135081520Y-89955451D01*
X135071030Y-89933272D01*
X135062765Y-89910173D01*
X135056804Y-89886374D01*
X135053204Y-89862106D01*
X135052000Y-89837602D01*
X135052000Y-88937600D01*
X135053204Y-88913096D01*
X135056804Y-88888828D01*
X135062765Y-88865029D01*
X135071030Y-88841930D01*
X135081520Y-88819751D01*
X135094132Y-88798708D01*
X135108747Y-88779002D01*
X135125223Y-88760824D01*
X135143401Y-88744348D01*
X135163107Y-88729733D01*
X135184150Y-88717121D01*
X135206329Y-88706631D01*
X135229428Y-88698366D01*
X135253227Y-88692405D01*
X135277495Y-88688805D01*
X135301999Y-88687601D01*
X135952001Y-88687601D01*
X135976505Y-88688805D01*
G37*
G04 #@! TD.AperFunction*
G04 #@! TA.AperFunction,SMDPad,CuDef*
G36*
X138026505Y-88688805D02*
G01*
X138050773Y-88692405D01*
X138074572Y-88698366D01*
X138097671Y-88706631D01*
X138119850Y-88717121D01*
X138140893Y-88729733D01*
X138160599Y-88744348D01*
X138178777Y-88760824D01*
X138195253Y-88779002D01*
X138209868Y-88798708D01*
X138222480Y-88819751D01*
X138232970Y-88841930D01*
X138241235Y-88865029D01*
X138247196Y-88888828D01*
X138250796Y-88913096D01*
X138252000Y-88937600D01*
X138252000Y-89837602D01*
X138250796Y-89862106D01*
X138247196Y-89886374D01*
X138241235Y-89910173D01*
X138232970Y-89933272D01*
X138222480Y-89955451D01*
X138209868Y-89976494D01*
X138195253Y-89996200D01*
X138178777Y-90014378D01*
X138160599Y-90030854D01*
X138140893Y-90045469D01*
X138119850Y-90058081D01*
X138097671Y-90068571D01*
X138074572Y-90076836D01*
X138050773Y-90082797D01*
X138026505Y-90086397D01*
X138002001Y-90087601D01*
X137351999Y-90087601D01*
X137327495Y-90086397D01*
X137303227Y-90082797D01*
X137279428Y-90076836D01*
X137256329Y-90068571D01*
X137234150Y-90058081D01*
X137213107Y-90045469D01*
X137193401Y-90030854D01*
X137175223Y-90014378D01*
X137158747Y-89996200D01*
X137144132Y-89976494D01*
X137131520Y-89955451D01*
X137121030Y-89933272D01*
X137112765Y-89910173D01*
X137106804Y-89886374D01*
X137103204Y-89862106D01*
X137102000Y-89837602D01*
X137102000Y-88937600D01*
X137103204Y-88913096D01*
X137106804Y-88888828D01*
X137112765Y-88865029D01*
X137121030Y-88841930D01*
X137131520Y-88819751D01*
X137144132Y-88798708D01*
X137158747Y-88779002D01*
X137175223Y-88760824D01*
X137193401Y-88744348D01*
X137213107Y-88729733D01*
X137234150Y-88717121D01*
X137256329Y-88706631D01*
X137279428Y-88698366D01*
X137303227Y-88692405D01*
X137327495Y-88688805D01*
X137351999Y-88687601D01*
X138002001Y-88687601D01*
X138026505Y-88688805D01*
G37*
G04 #@! TD.AperFunction*
G04 #@! TA.AperFunction,SMDPad,CuDef*
G36*
X138026505Y-91503204D02*
G01*
X138050773Y-91506804D01*
X138074572Y-91512765D01*
X138097671Y-91521030D01*
X138119850Y-91531520D01*
X138140893Y-91544132D01*
X138160599Y-91558747D01*
X138178777Y-91575223D01*
X138195253Y-91593401D01*
X138209868Y-91613107D01*
X138222480Y-91634150D01*
X138232970Y-91656329D01*
X138241235Y-91679428D01*
X138247196Y-91703227D01*
X138250796Y-91727495D01*
X138252000Y-91751999D01*
X138252000Y-92652001D01*
X138250796Y-92676505D01*
X138247196Y-92700773D01*
X138241235Y-92724572D01*
X138232970Y-92747671D01*
X138222480Y-92769850D01*
X138209868Y-92790893D01*
X138195253Y-92810599D01*
X138178777Y-92828777D01*
X138160599Y-92845253D01*
X138140893Y-92859868D01*
X138119850Y-92872480D01*
X138097671Y-92882970D01*
X138074572Y-92891235D01*
X138050773Y-92897196D01*
X138026505Y-92900796D01*
X138002001Y-92902000D01*
X137351999Y-92902000D01*
X137327495Y-92900796D01*
X137303227Y-92897196D01*
X137279428Y-92891235D01*
X137256329Y-92882970D01*
X137234150Y-92872480D01*
X137213107Y-92859868D01*
X137193401Y-92845253D01*
X137175223Y-92828777D01*
X137158747Y-92810599D01*
X137144132Y-92790893D01*
X137131520Y-92769850D01*
X137121030Y-92747671D01*
X137112765Y-92724572D01*
X137106804Y-92700773D01*
X137103204Y-92676505D01*
X137102000Y-92652001D01*
X137102000Y-91751999D01*
X137103204Y-91727495D01*
X137106804Y-91703227D01*
X137112765Y-91679428D01*
X137121030Y-91656329D01*
X137131520Y-91634150D01*
X137144132Y-91613107D01*
X137158747Y-91593401D01*
X137175223Y-91575223D01*
X137193401Y-91558747D01*
X137213107Y-91544132D01*
X137234150Y-91531520D01*
X137256329Y-91521030D01*
X137279428Y-91512765D01*
X137303227Y-91506804D01*
X137327495Y-91503204D01*
X137351999Y-91502000D01*
X138002001Y-91502000D01*
X138026505Y-91503204D01*
G37*
G04 #@! TD.AperFunction*
G04 #@! TA.AperFunction,SMDPad,CuDef*
G36*
X135976505Y-91503204D02*
G01*
X136000773Y-91506804D01*
X136024572Y-91512765D01*
X136047671Y-91521030D01*
X136069850Y-91531520D01*
X136090893Y-91544132D01*
X136110599Y-91558747D01*
X136128777Y-91575223D01*
X136145253Y-91593401D01*
X136159868Y-91613107D01*
X136172480Y-91634150D01*
X136182970Y-91656329D01*
X136191235Y-91679428D01*
X136197196Y-91703227D01*
X136200796Y-91727495D01*
X136202000Y-91751999D01*
X136202000Y-92652001D01*
X136200796Y-92676505D01*
X136197196Y-92700773D01*
X136191235Y-92724572D01*
X136182970Y-92747671D01*
X136172480Y-92769850D01*
X136159868Y-92790893D01*
X136145253Y-92810599D01*
X136128777Y-92828777D01*
X136110599Y-92845253D01*
X136090893Y-92859868D01*
X136069850Y-92872480D01*
X136047671Y-92882970D01*
X136024572Y-92891235D01*
X136000773Y-92897196D01*
X135976505Y-92900796D01*
X135952001Y-92902000D01*
X135301999Y-92902000D01*
X135277495Y-92900796D01*
X135253227Y-92897196D01*
X135229428Y-92891235D01*
X135206329Y-92882970D01*
X135184150Y-92872480D01*
X135163107Y-92859868D01*
X135143401Y-92845253D01*
X135125223Y-92828777D01*
X135108747Y-92810599D01*
X135094132Y-92790893D01*
X135081520Y-92769850D01*
X135071030Y-92747671D01*
X135062765Y-92724572D01*
X135056804Y-92700773D01*
X135053204Y-92676505D01*
X135052000Y-92652001D01*
X135052000Y-91751999D01*
X135053204Y-91727495D01*
X135056804Y-91703227D01*
X135062765Y-91679428D01*
X135071030Y-91656329D01*
X135081520Y-91634150D01*
X135094132Y-91613107D01*
X135108747Y-91593401D01*
X135125223Y-91575223D01*
X135143401Y-91558747D01*
X135163107Y-91544132D01*
X135184150Y-91531520D01*
X135206329Y-91521030D01*
X135229428Y-91512765D01*
X135253227Y-91506804D01*
X135277495Y-91503204D01*
X135301999Y-91502000D01*
X135952001Y-91502000D01*
X135976505Y-91503204D01*
G37*
G04 #@! TD.AperFunction*
G04 #@! TA.AperFunction,SMDPad,CuDef*
G36*
X154790505Y-98869204D02*
G01*
X154814773Y-98872804D01*
X154838572Y-98878765D01*
X154861671Y-98887030D01*
X154883850Y-98897520D01*
X154904893Y-98910132D01*
X154924599Y-98924747D01*
X154942777Y-98941223D01*
X154959253Y-98959401D01*
X154973868Y-98979107D01*
X154986480Y-99000150D01*
X154996970Y-99022329D01*
X155005235Y-99045428D01*
X155011196Y-99069227D01*
X155014796Y-99093495D01*
X155016000Y-99117999D01*
X155016000Y-100018001D01*
X155014796Y-100042505D01*
X155011196Y-100066773D01*
X155005235Y-100090572D01*
X154996970Y-100113671D01*
X154986480Y-100135850D01*
X154973868Y-100156893D01*
X154959253Y-100176599D01*
X154942777Y-100194777D01*
X154924599Y-100211253D01*
X154904893Y-100225868D01*
X154883850Y-100238480D01*
X154861671Y-100248970D01*
X154838572Y-100257235D01*
X154814773Y-100263196D01*
X154790505Y-100266796D01*
X154766001Y-100268000D01*
X154115999Y-100268000D01*
X154091495Y-100266796D01*
X154067227Y-100263196D01*
X154043428Y-100257235D01*
X154020329Y-100248970D01*
X153998150Y-100238480D01*
X153977107Y-100225868D01*
X153957401Y-100211253D01*
X153939223Y-100194777D01*
X153922747Y-100176599D01*
X153908132Y-100156893D01*
X153895520Y-100135850D01*
X153885030Y-100113671D01*
X153876765Y-100090572D01*
X153870804Y-100066773D01*
X153867204Y-100042505D01*
X153866000Y-100018001D01*
X153866000Y-99117999D01*
X153867204Y-99093495D01*
X153870804Y-99069227D01*
X153876765Y-99045428D01*
X153885030Y-99022329D01*
X153895520Y-99000150D01*
X153908132Y-98979107D01*
X153922747Y-98959401D01*
X153939223Y-98941223D01*
X153957401Y-98924747D01*
X153977107Y-98910132D01*
X153998150Y-98897520D01*
X154020329Y-98887030D01*
X154043428Y-98878765D01*
X154067227Y-98872804D01*
X154091495Y-98869204D01*
X154115999Y-98868000D01*
X154766001Y-98868000D01*
X154790505Y-98869204D01*
G37*
G04 #@! TD.AperFunction*
G04 #@! TA.AperFunction,SMDPad,CuDef*
G36*
X152740505Y-98869204D02*
G01*
X152764773Y-98872804D01*
X152788572Y-98878765D01*
X152811671Y-98887030D01*
X152833850Y-98897520D01*
X152854893Y-98910132D01*
X152874599Y-98924747D01*
X152892777Y-98941223D01*
X152909253Y-98959401D01*
X152923868Y-98979107D01*
X152936480Y-99000150D01*
X152946970Y-99022329D01*
X152955235Y-99045428D01*
X152961196Y-99069227D01*
X152964796Y-99093495D01*
X152966000Y-99117999D01*
X152966000Y-100018001D01*
X152964796Y-100042505D01*
X152961196Y-100066773D01*
X152955235Y-100090572D01*
X152946970Y-100113671D01*
X152936480Y-100135850D01*
X152923868Y-100156893D01*
X152909253Y-100176599D01*
X152892777Y-100194777D01*
X152874599Y-100211253D01*
X152854893Y-100225868D01*
X152833850Y-100238480D01*
X152811671Y-100248970D01*
X152788572Y-100257235D01*
X152764773Y-100263196D01*
X152740505Y-100266796D01*
X152716001Y-100268000D01*
X152065999Y-100268000D01*
X152041495Y-100266796D01*
X152017227Y-100263196D01*
X151993428Y-100257235D01*
X151970329Y-100248970D01*
X151948150Y-100238480D01*
X151927107Y-100225868D01*
X151907401Y-100211253D01*
X151889223Y-100194777D01*
X151872747Y-100176599D01*
X151858132Y-100156893D01*
X151845520Y-100135850D01*
X151835030Y-100113671D01*
X151826765Y-100090572D01*
X151820804Y-100066773D01*
X151817204Y-100042505D01*
X151816000Y-100018001D01*
X151816000Y-99117999D01*
X151817204Y-99093495D01*
X151820804Y-99069227D01*
X151826765Y-99045428D01*
X151835030Y-99022329D01*
X151845520Y-99000150D01*
X151858132Y-98979107D01*
X151872747Y-98959401D01*
X151889223Y-98941223D01*
X151907401Y-98924747D01*
X151927107Y-98910132D01*
X151948150Y-98897520D01*
X151970329Y-98887030D01*
X151993428Y-98878765D01*
X152017227Y-98872804D01*
X152041495Y-98869204D01*
X152065999Y-98868000D01*
X152716001Y-98868000D01*
X152740505Y-98869204D01*
G37*
G04 #@! TD.AperFunction*
D11*
X130302000Y-97028000D03*
D10*
X130302000Y-99568000D03*
G04 #@! TA.AperFunction,SMDPad,CuDef*
D12*
G36*
X154790505Y-89471204D02*
G01*
X154814773Y-89474804D01*
X154838572Y-89480765D01*
X154861671Y-89489030D01*
X154883850Y-89499520D01*
X154904893Y-89512132D01*
X154924599Y-89526747D01*
X154942777Y-89543223D01*
X154959253Y-89561401D01*
X154973868Y-89581107D01*
X154986480Y-89602150D01*
X154996970Y-89624329D01*
X155005235Y-89647428D01*
X155011196Y-89671227D01*
X155014796Y-89695495D01*
X155016000Y-89719999D01*
X155016000Y-90620001D01*
X155014796Y-90644505D01*
X155011196Y-90668773D01*
X155005235Y-90692572D01*
X154996970Y-90715671D01*
X154986480Y-90737850D01*
X154973868Y-90758893D01*
X154959253Y-90778599D01*
X154942777Y-90796777D01*
X154924599Y-90813253D01*
X154904893Y-90827868D01*
X154883850Y-90840480D01*
X154861671Y-90850970D01*
X154838572Y-90859235D01*
X154814773Y-90865196D01*
X154790505Y-90868796D01*
X154766001Y-90870000D01*
X154115999Y-90870000D01*
X154091495Y-90868796D01*
X154067227Y-90865196D01*
X154043428Y-90859235D01*
X154020329Y-90850970D01*
X153998150Y-90840480D01*
X153977107Y-90827868D01*
X153957401Y-90813253D01*
X153939223Y-90796777D01*
X153922747Y-90778599D01*
X153908132Y-90758893D01*
X153895520Y-90737850D01*
X153885030Y-90715671D01*
X153876765Y-90692572D01*
X153870804Y-90668773D01*
X153867204Y-90644505D01*
X153866000Y-90620001D01*
X153866000Y-89719999D01*
X153867204Y-89695495D01*
X153870804Y-89671227D01*
X153876765Y-89647428D01*
X153885030Y-89624329D01*
X153895520Y-89602150D01*
X153908132Y-89581107D01*
X153922747Y-89561401D01*
X153939223Y-89543223D01*
X153957401Y-89526747D01*
X153977107Y-89512132D01*
X153998150Y-89499520D01*
X154020329Y-89489030D01*
X154043428Y-89480765D01*
X154067227Y-89474804D01*
X154091495Y-89471204D01*
X154115999Y-89470000D01*
X154766001Y-89470000D01*
X154790505Y-89471204D01*
G37*
G04 #@! TD.AperFunction*
G04 #@! TA.AperFunction,SMDPad,CuDef*
G36*
X152740505Y-89471204D02*
G01*
X152764773Y-89474804D01*
X152788572Y-89480765D01*
X152811671Y-89489030D01*
X152833850Y-89499520D01*
X152854893Y-89512132D01*
X152874599Y-89526747D01*
X152892777Y-89543223D01*
X152909253Y-89561401D01*
X152923868Y-89581107D01*
X152936480Y-89602150D01*
X152946970Y-89624329D01*
X152955235Y-89647428D01*
X152961196Y-89671227D01*
X152964796Y-89695495D01*
X152966000Y-89719999D01*
X152966000Y-90620001D01*
X152964796Y-90644505D01*
X152961196Y-90668773D01*
X152955235Y-90692572D01*
X152946970Y-90715671D01*
X152936480Y-90737850D01*
X152923868Y-90758893D01*
X152909253Y-90778599D01*
X152892777Y-90796777D01*
X152874599Y-90813253D01*
X152854893Y-90827868D01*
X152833850Y-90840480D01*
X152811671Y-90850970D01*
X152788572Y-90859235D01*
X152764773Y-90865196D01*
X152740505Y-90868796D01*
X152716001Y-90870000D01*
X152065999Y-90870000D01*
X152041495Y-90868796D01*
X152017227Y-90865196D01*
X151993428Y-90859235D01*
X151970329Y-90850970D01*
X151948150Y-90840480D01*
X151927107Y-90827868D01*
X151907401Y-90813253D01*
X151889223Y-90796777D01*
X151872747Y-90778599D01*
X151858132Y-90758893D01*
X151845520Y-90737850D01*
X151835030Y-90715671D01*
X151826765Y-90692572D01*
X151820804Y-90668773D01*
X151817204Y-90644505D01*
X151816000Y-90620001D01*
X151816000Y-89719999D01*
X151817204Y-89695495D01*
X151820804Y-89671227D01*
X151826765Y-89647428D01*
X151835030Y-89624329D01*
X151845520Y-89602150D01*
X151858132Y-89581107D01*
X151872747Y-89561401D01*
X151889223Y-89543223D01*
X151907401Y-89526747D01*
X151927107Y-89512132D01*
X151948150Y-89499520D01*
X151970329Y-89489030D01*
X151993428Y-89480765D01*
X152017227Y-89474804D01*
X152041495Y-89471204D01*
X152065999Y-89470000D01*
X152716001Y-89470000D01*
X152740505Y-89471204D01*
G37*
G04 #@! TD.AperFunction*
D13*
X159004000Y-97282000D03*
D14*
X159004000Y-94742000D03*
X159004000Y-92202000D03*
G04 #@! TA.AperFunction,SMDPad,CuDef*
D12*
G36*
X150334505Y-96191204D02*
G01*
X150358773Y-96194804D01*
X150382572Y-96200765D01*
X150405671Y-96209030D01*
X150427850Y-96219520D01*
X150448893Y-96232132D01*
X150468599Y-96246747D01*
X150486777Y-96263223D01*
X150503253Y-96281401D01*
X150517868Y-96301107D01*
X150530480Y-96322150D01*
X150540970Y-96344329D01*
X150549235Y-96367428D01*
X150555196Y-96391227D01*
X150558796Y-96415495D01*
X150560000Y-96439999D01*
X150560000Y-97090001D01*
X150558796Y-97114505D01*
X150555196Y-97138773D01*
X150549235Y-97162572D01*
X150540970Y-97185671D01*
X150530480Y-97207850D01*
X150517868Y-97228893D01*
X150503253Y-97248599D01*
X150486777Y-97266777D01*
X150468599Y-97283253D01*
X150448893Y-97297868D01*
X150427850Y-97310480D01*
X150405671Y-97320970D01*
X150382572Y-97329235D01*
X150358773Y-97335196D01*
X150334505Y-97338796D01*
X150310001Y-97340000D01*
X149409999Y-97340000D01*
X149385495Y-97338796D01*
X149361227Y-97335196D01*
X149337428Y-97329235D01*
X149314329Y-97320970D01*
X149292150Y-97310480D01*
X149271107Y-97297868D01*
X149251401Y-97283253D01*
X149233223Y-97266777D01*
X149216747Y-97248599D01*
X149202132Y-97228893D01*
X149189520Y-97207850D01*
X149179030Y-97185671D01*
X149170765Y-97162572D01*
X149164804Y-97138773D01*
X149161204Y-97114505D01*
X149160000Y-97090001D01*
X149160000Y-96439999D01*
X149161204Y-96415495D01*
X149164804Y-96391227D01*
X149170765Y-96367428D01*
X149179030Y-96344329D01*
X149189520Y-96322150D01*
X149202132Y-96301107D01*
X149216747Y-96281401D01*
X149233223Y-96263223D01*
X149251401Y-96246747D01*
X149271107Y-96232132D01*
X149292150Y-96219520D01*
X149314329Y-96209030D01*
X149337428Y-96200765D01*
X149361227Y-96194804D01*
X149385495Y-96191204D01*
X149409999Y-96190000D01*
X150310001Y-96190000D01*
X150334505Y-96191204D01*
G37*
G04 #@! TD.AperFunction*
G04 #@! TA.AperFunction,SMDPad,CuDef*
G36*
X150334505Y-98241204D02*
G01*
X150358773Y-98244804D01*
X150382572Y-98250765D01*
X150405671Y-98259030D01*
X150427850Y-98269520D01*
X150448893Y-98282132D01*
X150468599Y-98296747D01*
X150486777Y-98313223D01*
X150503253Y-98331401D01*
X150517868Y-98351107D01*
X150530480Y-98372150D01*
X150540970Y-98394329D01*
X150549235Y-98417428D01*
X150555196Y-98441227D01*
X150558796Y-98465495D01*
X150560000Y-98489999D01*
X150560000Y-99140001D01*
X150558796Y-99164505D01*
X150555196Y-99188773D01*
X150549235Y-99212572D01*
X150540970Y-99235671D01*
X150530480Y-99257850D01*
X150517868Y-99278893D01*
X150503253Y-99298599D01*
X150486777Y-99316777D01*
X150468599Y-99333253D01*
X150448893Y-99347868D01*
X150427850Y-99360480D01*
X150405671Y-99370970D01*
X150382572Y-99379235D01*
X150358773Y-99385196D01*
X150334505Y-99388796D01*
X150310001Y-99390000D01*
X149409999Y-99390000D01*
X149385495Y-99388796D01*
X149361227Y-99385196D01*
X149337428Y-99379235D01*
X149314329Y-99370970D01*
X149292150Y-99360480D01*
X149271107Y-99347868D01*
X149251401Y-99333253D01*
X149233223Y-99316777D01*
X149216747Y-99298599D01*
X149202132Y-99278893D01*
X149189520Y-99257850D01*
X149179030Y-99235671D01*
X149170765Y-99212572D01*
X149164804Y-99188773D01*
X149161204Y-99164505D01*
X149160000Y-99140001D01*
X149160000Y-98489999D01*
X149161204Y-98465495D01*
X149164804Y-98441227D01*
X149170765Y-98417428D01*
X149179030Y-98394329D01*
X149189520Y-98372150D01*
X149202132Y-98351107D01*
X149216747Y-98331401D01*
X149233223Y-98313223D01*
X149251401Y-98296747D01*
X149271107Y-98282132D01*
X149292150Y-98269520D01*
X149314329Y-98259030D01*
X149337428Y-98250765D01*
X149361227Y-98244804D01*
X149385495Y-98241204D01*
X149409999Y-98240000D01*
X150310001Y-98240000D01*
X150334505Y-98241204D01*
G37*
G04 #@! TD.AperFunction*
G04 #@! TA.AperFunction,SMDPad,CuDef*
G36*
X138026505Y-99885204D02*
G01*
X138050773Y-99888804D01*
X138074572Y-99894765D01*
X138097671Y-99903030D01*
X138119850Y-99913520D01*
X138140893Y-99926132D01*
X138160599Y-99940747D01*
X138178777Y-99957223D01*
X138195253Y-99975401D01*
X138209868Y-99995107D01*
X138222480Y-100016150D01*
X138232970Y-100038329D01*
X138241235Y-100061428D01*
X138247196Y-100085227D01*
X138250796Y-100109495D01*
X138252000Y-100133999D01*
X138252000Y-101034001D01*
X138250796Y-101058505D01*
X138247196Y-101082773D01*
X138241235Y-101106572D01*
X138232970Y-101129671D01*
X138222480Y-101151850D01*
X138209868Y-101172893D01*
X138195253Y-101192599D01*
X138178777Y-101210777D01*
X138160599Y-101227253D01*
X138140893Y-101241868D01*
X138119850Y-101254480D01*
X138097671Y-101264970D01*
X138074572Y-101273235D01*
X138050773Y-101279196D01*
X138026505Y-101282796D01*
X138002001Y-101284000D01*
X137351999Y-101284000D01*
X137327495Y-101282796D01*
X137303227Y-101279196D01*
X137279428Y-101273235D01*
X137256329Y-101264970D01*
X137234150Y-101254480D01*
X137213107Y-101241868D01*
X137193401Y-101227253D01*
X137175223Y-101210777D01*
X137158747Y-101192599D01*
X137144132Y-101172893D01*
X137131520Y-101151850D01*
X137121030Y-101129671D01*
X137112765Y-101106572D01*
X137106804Y-101082773D01*
X137103204Y-101058505D01*
X137102000Y-101034001D01*
X137102000Y-100133999D01*
X137103204Y-100109495D01*
X137106804Y-100085227D01*
X137112765Y-100061428D01*
X137121030Y-100038329D01*
X137131520Y-100016150D01*
X137144132Y-99995107D01*
X137158747Y-99975401D01*
X137175223Y-99957223D01*
X137193401Y-99940747D01*
X137213107Y-99926132D01*
X137234150Y-99913520D01*
X137256329Y-99903030D01*
X137279428Y-99894765D01*
X137303227Y-99888804D01*
X137327495Y-99885204D01*
X137351999Y-99884000D01*
X138002001Y-99884000D01*
X138026505Y-99885204D01*
G37*
G04 #@! TD.AperFunction*
G04 #@! TA.AperFunction,SMDPad,CuDef*
G36*
X135976505Y-99885204D02*
G01*
X136000773Y-99888804D01*
X136024572Y-99894765D01*
X136047671Y-99903030D01*
X136069850Y-99913520D01*
X136090893Y-99926132D01*
X136110599Y-99940747D01*
X136128777Y-99957223D01*
X136145253Y-99975401D01*
X136159868Y-99995107D01*
X136172480Y-100016150D01*
X136182970Y-100038329D01*
X136191235Y-100061428D01*
X136197196Y-100085227D01*
X136200796Y-100109495D01*
X136202000Y-100133999D01*
X136202000Y-101034001D01*
X136200796Y-101058505D01*
X136197196Y-101082773D01*
X136191235Y-101106572D01*
X136182970Y-101129671D01*
X136172480Y-101151850D01*
X136159868Y-101172893D01*
X136145253Y-101192599D01*
X136128777Y-101210777D01*
X136110599Y-101227253D01*
X136090893Y-101241868D01*
X136069850Y-101254480D01*
X136047671Y-101264970D01*
X136024572Y-101273235D01*
X136000773Y-101279196D01*
X135976505Y-101282796D01*
X135952001Y-101284000D01*
X135301999Y-101284000D01*
X135277495Y-101282796D01*
X135253227Y-101279196D01*
X135229428Y-101273235D01*
X135206329Y-101264970D01*
X135184150Y-101254480D01*
X135163107Y-101241868D01*
X135143401Y-101227253D01*
X135125223Y-101210777D01*
X135108747Y-101192599D01*
X135094132Y-101172893D01*
X135081520Y-101151850D01*
X135071030Y-101129671D01*
X135062765Y-101106572D01*
X135056804Y-101082773D01*
X135053204Y-101058505D01*
X135052000Y-101034001D01*
X135052000Y-100133999D01*
X135053204Y-100109495D01*
X135056804Y-100085227D01*
X135062765Y-100061428D01*
X135071030Y-100038329D01*
X135081520Y-100016150D01*
X135094132Y-99995107D01*
X135108747Y-99975401D01*
X135125223Y-99957223D01*
X135143401Y-99940747D01*
X135163107Y-99926132D01*
X135184150Y-99913520D01*
X135206329Y-99903030D01*
X135229428Y-99894765D01*
X135253227Y-99888804D01*
X135277495Y-99885204D01*
X135301999Y-99884000D01*
X135952001Y-99884000D01*
X135976505Y-99885204D01*
G37*
G04 #@! TD.AperFunction*
G04 #@! TA.AperFunction,SMDPad,CuDef*
G36*
X135976505Y-94297204D02*
G01*
X136000773Y-94300804D01*
X136024572Y-94306765D01*
X136047671Y-94315030D01*
X136069850Y-94325520D01*
X136090893Y-94338132D01*
X136110599Y-94352747D01*
X136128777Y-94369223D01*
X136145253Y-94387401D01*
X136159868Y-94407107D01*
X136172480Y-94428150D01*
X136182970Y-94450329D01*
X136191235Y-94473428D01*
X136197196Y-94497227D01*
X136200796Y-94521495D01*
X136202000Y-94545999D01*
X136202000Y-95446001D01*
X136200796Y-95470505D01*
X136197196Y-95494773D01*
X136191235Y-95518572D01*
X136182970Y-95541671D01*
X136172480Y-95563850D01*
X136159868Y-95584893D01*
X136145253Y-95604599D01*
X136128777Y-95622777D01*
X136110599Y-95639253D01*
X136090893Y-95653868D01*
X136069850Y-95666480D01*
X136047671Y-95676970D01*
X136024572Y-95685235D01*
X136000773Y-95691196D01*
X135976505Y-95694796D01*
X135952001Y-95696000D01*
X135301999Y-95696000D01*
X135277495Y-95694796D01*
X135253227Y-95691196D01*
X135229428Y-95685235D01*
X135206329Y-95676970D01*
X135184150Y-95666480D01*
X135163107Y-95653868D01*
X135143401Y-95639253D01*
X135125223Y-95622777D01*
X135108747Y-95604599D01*
X135094132Y-95584893D01*
X135081520Y-95563850D01*
X135071030Y-95541671D01*
X135062765Y-95518572D01*
X135056804Y-95494773D01*
X135053204Y-95470505D01*
X135052000Y-95446001D01*
X135052000Y-94545999D01*
X135053204Y-94521495D01*
X135056804Y-94497227D01*
X135062765Y-94473428D01*
X135071030Y-94450329D01*
X135081520Y-94428150D01*
X135094132Y-94407107D01*
X135108747Y-94387401D01*
X135125223Y-94369223D01*
X135143401Y-94352747D01*
X135163107Y-94338132D01*
X135184150Y-94325520D01*
X135206329Y-94315030D01*
X135229428Y-94306765D01*
X135253227Y-94300804D01*
X135277495Y-94297204D01*
X135301999Y-94296000D01*
X135952001Y-94296000D01*
X135976505Y-94297204D01*
G37*
G04 #@! TD.AperFunction*
G04 #@! TA.AperFunction,SMDPad,CuDef*
G36*
X138026505Y-94297204D02*
G01*
X138050773Y-94300804D01*
X138074572Y-94306765D01*
X138097671Y-94315030D01*
X138119850Y-94325520D01*
X138140893Y-94338132D01*
X138160599Y-94352747D01*
X138178777Y-94369223D01*
X138195253Y-94387401D01*
X138209868Y-94407107D01*
X138222480Y-94428150D01*
X138232970Y-94450329D01*
X138241235Y-94473428D01*
X138247196Y-94497227D01*
X138250796Y-94521495D01*
X138252000Y-94545999D01*
X138252000Y-95446001D01*
X138250796Y-95470505D01*
X138247196Y-95494773D01*
X138241235Y-95518572D01*
X138232970Y-95541671D01*
X138222480Y-95563850D01*
X138209868Y-95584893D01*
X138195253Y-95604599D01*
X138178777Y-95622777D01*
X138160599Y-95639253D01*
X138140893Y-95653868D01*
X138119850Y-95666480D01*
X138097671Y-95676970D01*
X138074572Y-95685235D01*
X138050773Y-95691196D01*
X138026505Y-95694796D01*
X138002001Y-95696000D01*
X137351999Y-95696000D01*
X137327495Y-95694796D01*
X137303227Y-95691196D01*
X137279428Y-95685235D01*
X137256329Y-95676970D01*
X137234150Y-95666480D01*
X137213107Y-95653868D01*
X137193401Y-95639253D01*
X137175223Y-95622777D01*
X137158747Y-95604599D01*
X137144132Y-95584893D01*
X137131520Y-95563850D01*
X137121030Y-95541671D01*
X137112765Y-95518572D01*
X137106804Y-95494773D01*
X137103204Y-95470505D01*
X137102000Y-95446001D01*
X137102000Y-94545999D01*
X137103204Y-94521495D01*
X137106804Y-94497227D01*
X137112765Y-94473428D01*
X137121030Y-94450329D01*
X137131520Y-94428150D01*
X137144132Y-94407107D01*
X137158747Y-94387401D01*
X137175223Y-94369223D01*
X137193401Y-94352747D01*
X137213107Y-94338132D01*
X137234150Y-94325520D01*
X137256329Y-94315030D01*
X137279428Y-94306765D01*
X137303227Y-94300804D01*
X137327495Y-94297204D01*
X137351999Y-94296000D01*
X138002001Y-94296000D01*
X138026505Y-94297204D01*
G37*
G04 #@! TD.AperFunction*
G04 #@! TA.AperFunction,SMDPad,CuDef*
G36*
X138017505Y-97091204D02*
G01*
X138041773Y-97094804D01*
X138065572Y-97100765D01*
X138088671Y-97109030D01*
X138110850Y-97119520D01*
X138131893Y-97132132D01*
X138151599Y-97146747D01*
X138169777Y-97163223D01*
X138186253Y-97181401D01*
X138200868Y-97201107D01*
X138213480Y-97222150D01*
X138223970Y-97244329D01*
X138232235Y-97267428D01*
X138238196Y-97291227D01*
X138241796Y-97315495D01*
X138243000Y-97339999D01*
X138243000Y-98240001D01*
X138241796Y-98264505D01*
X138238196Y-98288773D01*
X138232235Y-98312572D01*
X138223970Y-98335671D01*
X138213480Y-98357850D01*
X138200868Y-98378893D01*
X138186253Y-98398599D01*
X138169777Y-98416777D01*
X138151599Y-98433253D01*
X138131893Y-98447868D01*
X138110850Y-98460480D01*
X138088671Y-98470970D01*
X138065572Y-98479235D01*
X138041773Y-98485196D01*
X138017505Y-98488796D01*
X137993001Y-98490000D01*
X137342999Y-98490000D01*
X137318495Y-98488796D01*
X137294227Y-98485196D01*
X137270428Y-98479235D01*
X137247329Y-98470970D01*
X137225150Y-98460480D01*
X137204107Y-98447868D01*
X137184401Y-98433253D01*
X137166223Y-98416777D01*
X137149747Y-98398599D01*
X137135132Y-98378893D01*
X137122520Y-98357850D01*
X137112030Y-98335671D01*
X137103765Y-98312572D01*
X137097804Y-98288773D01*
X137094204Y-98264505D01*
X137093000Y-98240001D01*
X137093000Y-97339999D01*
X137094204Y-97315495D01*
X137097804Y-97291227D01*
X137103765Y-97267428D01*
X137112030Y-97244329D01*
X137122520Y-97222150D01*
X137135132Y-97201107D01*
X137149747Y-97181401D01*
X137166223Y-97163223D01*
X137184401Y-97146747D01*
X137204107Y-97132132D01*
X137225150Y-97119520D01*
X137247329Y-97109030D01*
X137270428Y-97100765D01*
X137294227Y-97094804D01*
X137318495Y-97091204D01*
X137342999Y-97090000D01*
X137993001Y-97090000D01*
X138017505Y-97091204D01*
G37*
G04 #@! TD.AperFunction*
G04 #@! TA.AperFunction,SMDPad,CuDef*
G36*
X135967505Y-97091204D02*
G01*
X135991773Y-97094804D01*
X136015572Y-97100765D01*
X136038671Y-97109030D01*
X136060850Y-97119520D01*
X136081893Y-97132132D01*
X136101599Y-97146747D01*
X136119777Y-97163223D01*
X136136253Y-97181401D01*
X136150868Y-97201107D01*
X136163480Y-97222150D01*
X136173970Y-97244329D01*
X136182235Y-97267428D01*
X136188196Y-97291227D01*
X136191796Y-97315495D01*
X136193000Y-97339999D01*
X136193000Y-98240001D01*
X136191796Y-98264505D01*
X136188196Y-98288773D01*
X136182235Y-98312572D01*
X136173970Y-98335671D01*
X136163480Y-98357850D01*
X136150868Y-98378893D01*
X136136253Y-98398599D01*
X136119777Y-98416777D01*
X136101599Y-98433253D01*
X136081893Y-98447868D01*
X136060850Y-98460480D01*
X136038671Y-98470970D01*
X136015572Y-98479235D01*
X135991773Y-98485196D01*
X135967505Y-98488796D01*
X135943001Y-98490000D01*
X135292999Y-98490000D01*
X135268495Y-98488796D01*
X135244227Y-98485196D01*
X135220428Y-98479235D01*
X135197329Y-98470970D01*
X135175150Y-98460480D01*
X135154107Y-98447868D01*
X135134401Y-98433253D01*
X135116223Y-98416777D01*
X135099747Y-98398599D01*
X135085132Y-98378893D01*
X135072520Y-98357850D01*
X135062030Y-98335671D01*
X135053765Y-98312572D01*
X135047804Y-98288773D01*
X135044204Y-98264505D01*
X135043000Y-98240001D01*
X135043000Y-97339999D01*
X135044204Y-97315495D01*
X135047804Y-97291227D01*
X135053765Y-97267428D01*
X135062030Y-97244329D01*
X135072520Y-97222150D01*
X135085132Y-97201107D01*
X135099747Y-97181401D01*
X135116223Y-97163223D01*
X135134401Y-97146747D01*
X135154107Y-97132132D01*
X135175150Y-97119520D01*
X135197329Y-97109030D01*
X135220428Y-97100765D01*
X135244227Y-97094804D01*
X135268495Y-97091204D01*
X135292999Y-97090000D01*
X135943001Y-97090000D01*
X135967505Y-97091204D01*
G37*
G04 #@! TD.AperFunction*
G04 #@! TA.AperFunction,SMDPad,CuDef*
G36*
X150334505Y-90349204D02*
G01*
X150358773Y-90352804D01*
X150382572Y-90358765D01*
X150405671Y-90367030D01*
X150427850Y-90377520D01*
X150448893Y-90390132D01*
X150468599Y-90404747D01*
X150486777Y-90421223D01*
X150503253Y-90439401D01*
X150517868Y-90459107D01*
X150530480Y-90480150D01*
X150540970Y-90502329D01*
X150549235Y-90525428D01*
X150555196Y-90549227D01*
X150558796Y-90573495D01*
X150560000Y-90597999D01*
X150560000Y-91248001D01*
X150558796Y-91272505D01*
X150555196Y-91296773D01*
X150549235Y-91320572D01*
X150540970Y-91343671D01*
X150530480Y-91365850D01*
X150517868Y-91386893D01*
X150503253Y-91406599D01*
X150486777Y-91424777D01*
X150468599Y-91441253D01*
X150448893Y-91455868D01*
X150427850Y-91468480D01*
X150405671Y-91478970D01*
X150382572Y-91487235D01*
X150358773Y-91493196D01*
X150334505Y-91496796D01*
X150310001Y-91498000D01*
X149409999Y-91498000D01*
X149385495Y-91496796D01*
X149361227Y-91493196D01*
X149337428Y-91487235D01*
X149314329Y-91478970D01*
X149292150Y-91468480D01*
X149271107Y-91455868D01*
X149251401Y-91441253D01*
X149233223Y-91424777D01*
X149216747Y-91406599D01*
X149202132Y-91386893D01*
X149189520Y-91365850D01*
X149179030Y-91343671D01*
X149170765Y-91320572D01*
X149164804Y-91296773D01*
X149161204Y-91272505D01*
X149160000Y-91248001D01*
X149160000Y-90597999D01*
X149161204Y-90573495D01*
X149164804Y-90549227D01*
X149170765Y-90525428D01*
X149179030Y-90502329D01*
X149189520Y-90480150D01*
X149202132Y-90459107D01*
X149216747Y-90439401D01*
X149233223Y-90421223D01*
X149251401Y-90404747D01*
X149271107Y-90390132D01*
X149292150Y-90377520D01*
X149314329Y-90367030D01*
X149337428Y-90358765D01*
X149361227Y-90352804D01*
X149385495Y-90349204D01*
X149409999Y-90348000D01*
X150310001Y-90348000D01*
X150334505Y-90349204D01*
G37*
G04 #@! TD.AperFunction*
G04 #@! TA.AperFunction,SMDPad,CuDef*
G36*
X150334505Y-92399204D02*
G01*
X150358773Y-92402804D01*
X150382572Y-92408765D01*
X150405671Y-92417030D01*
X150427850Y-92427520D01*
X150448893Y-92440132D01*
X150468599Y-92454747D01*
X150486777Y-92471223D01*
X150503253Y-92489401D01*
X150517868Y-92509107D01*
X150530480Y-92530150D01*
X150540970Y-92552329D01*
X150549235Y-92575428D01*
X150555196Y-92599227D01*
X150558796Y-92623495D01*
X150560000Y-92647999D01*
X150560000Y-93298001D01*
X150558796Y-93322505D01*
X150555196Y-93346773D01*
X150549235Y-93370572D01*
X150540970Y-93393671D01*
X150530480Y-93415850D01*
X150517868Y-93436893D01*
X150503253Y-93456599D01*
X150486777Y-93474777D01*
X150468599Y-93491253D01*
X150448893Y-93505868D01*
X150427850Y-93518480D01*
X150405671Y-93528970D01*
X150382572Y-93537235D01*
X150358773Y-93543196D01*
X150334505Y-93546796D01*
X150310001Y-93548000D01*
X149409999Y-93548000D01*
X149385495Y-93546796D01*
X149361227Y-93543196D01*
X149337428Y-93537235D01*
X149314329Y-93528970D01*
X149292150Y-93518480D01*
X149271107Y-93505868D01*
X149251401Y-93491253D01*
X149233223Y-93474777D01*
X149216747Y-93456599D01*
X149202132Y-93436893D01*
X149189520Y-93415850D01*
X149179030Y-93393671D01*
X149170765Y-93370572D01*
X149164804Y-93346773D01*
X149161204Y-93322505D01*
X149160000Y-93298001D01*
X149160000Y-92647999D01*
X149161204Y-92623495D01*
X149164804Y-92599227D01*
X149170765Y-92575428D01*
X149179030Y-92552329D01*
X149189520Y-92530150D01*
X149202132Y-92509107D01*
X149216747Y-92489401D01*
X149233223Y-92471223D01*
X149251401Y-92454747D01*
X149271107Y-92440132D01*
X149292150Y-92427520D01*
X149314329Y-92417030D01*
X149337428Y-92408765D01*
X149361227Y-92402804D01*
X149385495Y-92399204D01*
X149409999Y-92398000D01*
X150310001Y-92398000D01*
X150334505Y-92399204D01*
G37*
G04 #@! TD.AperFunction*
D15*
X146304000Y-91694000D03*
X143764000Y-94234000D03*
X141224000Y-91694000D03*
G04 #@! TA.AperFunction,SMDPad,CuDef*
D12*
G36*
X144683505Y-97307204D02*
G01*
X144707773Y-97310804D01*
X144731572Y-97316765D01*
X144754671Y-97325030D01*
X144776850Y-97335520D01*
X144797893Y-97348132D01*
X144817599Y-97362747D01*
X144835777Y-97379223D01*
X144852253Y-97397401D01*
X144866868Y-97417107D01*
X144879480Y-97438150D01*
X144889970Y-97460329D01*
X144898235Y-97483428D01*
X144904196Y-97507227D01*
X144907796Y-97531495D01*
X144909000Y-97555999D01*
X144909000Y-100056001D01*
X144907796Y-100080505D01*
X144904196Y-100104773D01*
X144898235Y-100128572D01*
X144889970Y-100151671D01*
X144879480Y-100173850D01*
X144866868Y-100194893D01*
X144852253Y-100214599D01*
X144835777Y-100232777D01*
X144817599Y-100249253D01*
X144797893Y-100263868D01*
X144776850Y-100276480D01*
X144754671Y-100286970D01*
X144731572Y-100295235D01*
X144707773Y-100301196D01*
X144683505Y-100304796D01*
X144659001Y-100306000D01*
X142868999Y-100306000D01*
X142844495Y-100304796D01*
X142820227Y-100301196D01*
X142796428Y-100295235D01*
X142773329Y-100286970D01*
X142751150Y-100276480D01*
X142730107Y-100263868D01*
X142710401Y-100249253D01*
X142692223Y-100232777D01*
X142675747Y-100214599D01*
X142661132Y-100194893D01*
X142648520Y-100173850D01*
X142638030Y-100151671D01*
X142629765Y-100128572D01*
X142623804Y-100104773D01*
X142620204Y-100080505D01*
X142619000Y-100056001D01*
X142619000Y-97555999D01*
X142620204Y-97531495D01*
X142623804Y-97507227D01*
X142629765Y-97483428D01*
X142638030Y-97460329D01*
X142648520Y-97438150D01*
X142661132Y-97417107D01*
X142675747Y-97397401D01*
X142692223Y-97379223D01*
X142710401Y-97362747D01*
X142730107Y-97348132D01*
X142751150Y-97335520D01*
X142773329Y-97325030D01*
X142796428Y-97316765D01*
X142820227Y-97310804D01*
X142844495Y-97307204D01*
X142868999Y-97306000D01*
X144659001Y-97306000D01*
X144683505Y-97307204D01*
G37*
G04 #@! TD.AperFunction*
G04 #@! TA.AperFunction,SMDPad,CuDef*
G36*
X147078703Y-100411722D02*
G01*
X147093264Y-100413882D01*
X147107543Y-100417459D01*
X147121403Y-100422418D01*
X147134710Y-100428712D01*
X147147336Y-100436280D01*
X147159159Y-100445048D01*
X147170066Y-100454934D01*
X147179952Y-100465841D01*
X147188720Y-100477664D01*
X147196288Y-100490290D01*
X147202582Y-100503597D01*
X147207541Y-100517457D01*
X147211118Y-100531736D01*
X147213278Y-100546297D01*
X147214000Y-100561000D01*
X147214000Y-100861000D01*
X147213278Y-100875703D01*
X147211118Y-100890264D01*
X147207541Y-100904543D01*
X147202582Y-100918403D01*
X147196288Y-100931710D01*
X147188720Y-100944336D01*
X147179952Y-100956159D01*
X147170066Y-100967066D01*
X147159159Y-100976952D01*
X147147336Y-100985720D01*
X147134710Y-100993288D01*
X147121403Y-100999582D01*
X147107543Y-101004541D01*
X147093264Y-101008118D01*
X147078703Y-101010278D01*
X147064000Y-101011000D01*
X145414000Y-101011000D01*
X145399297Y-101010278D01*
X145384736Y-101008118D01*
X145370457Y-101004541D01*
X145356597Y-100999582D01*
X145343290Y-100993288D01*
X145330664Y-100985720D01*
X145318841Y-100976952D01*
X145307934Y-100967066D01*
X145298048Y-100956159D01*
X145289280Y-100944336D01*
X145281712Y-100931710D01*
X145275418Y-100918403D01*
X145270459Y-100904543D01*
X145266882Y-100890264D01*
X145264722Y-100875703D01*
X145264000Y-100861000D01*
X145264000Y-100561000D01*
X145264722Y-100546297D01*
X145266882Y-100531736D01*
X145270459Y-100517457D01*
X145275418Y-100503597D01*
X145281712Y-100490290D01*
X145289280Y-100477664D01*
X145298048Y-100465841D01*
X145307934Y-100454934D01*
X145318841Y-100445048D01*
X145330664Y-100436280D01*
X145343290Y-100428712D01*
X145356597Y-100422418D01*
X145370457Y-100417459D01*
X145384736Y-100413882D01*
X145399297Y-100411722D01*
X145414000Y-100411000D01*
X147064000Y-100411000D01*
X147078703Y-100411722D01*
G37*
G04 #@! TD.AperFunction*
G04 #@! TA.AperFunction,SMDPad,CuDef*
G36*
X147078703Y-99141722D02*
G01*
X147093264Y-99143882D01*
X147107543Y-99147459D01*
X147121403Y-99152418D01*
X147134710Y-99158712D01*
X147147336Y-99166280D01*
X147159159Y-99175048D01*
X147170066Y-99184934D01*
X147179952Y-99195841D01*
X147188720Y-99207664D01*
X147196288Y-99220290D01*
X147202582Y-99233597D01*
X147207541Y-99247457D01*
X147211118Y-99261736D01*
X147213278Y-99276297D01*
X147214000Y-99291000D01*
X147214000Y-99591000D01*
X147213278Y-99605703D01*
X147211118Y-99620264D01*
X147207541Y-99634543D01*
X147202582Y-99648403D01*
X147196288Y-99661710D01*
X147188720Y-99674336D01*
X147179952Y-99686159D01*
X147170066Y-99697066D01*
X147159159Y-99706952D01*
X147147336Y-99715720D01*
X147134710Y-99723288D01*
X147121403Y-99729582D01*
X147107543Y-99734541D01*
X147093264Y-99738118D01*
X147078703Y-99740278D01*
X147064000Y-99741000D01*
X145414000Y-99741000D01*
X145399297Y-99740278D01*
X145384736Y-99738118D01*
X145370457Y-99734541D01*
X145356597Y-99729582D01*
X145343290Y-99723288D01*
X145330664Y-99715720D01*
X145318841Y-99706952D01*
X145307934Y-99697066D01*
X145298048Y-99686159D01*
X145289280Y-99674336D01*
X145281712Y-99661710D01*
X145275418Y-99648403D01*
X145270459Y-99634543D01*
X145266882Y-99620264D01*
X145264722Y-99605703D01*
X145264000Y-99591000D01*
X145264000Y-99291000D01*
X145264722Y-99276297D01*
X145266882Y-99261736D01*
X145270459Y-99247457D01*
X145275418Y-99233597D01*
X145281712Y-99220290D01*
X145289280Y-99207664D01*
X145298048Y-99195841D01*
X145307934Y-99184934D01*
X145318841Y-99175048D01*
X145330664Y-99166280D01*
X145343290Y-99158712D01*
X145356597Y-99152418D01*
X145370457Y-99147459D01*
X145384736Y-99143882D01*
X145399297Y-99141722D01*
X145414000Y-99141000D01*
X147064000Y-99141000D01*
X147078703Y-99141722D01*
G37*
G04 #@! TD.AperFunction*
G04 #@! TA.AperFunction,SMDPad,CuDef*
G36*
X147078703Y-97871722D02*
G01*
X147093264Y-97873882D01*
X147107543Y-97877459D01*
X147121403Y-97882418D01*
X147134710Y-97888712D01*
X147147336Y-97896280D01*
X147159159Y-97905048D01*
X147170066Y-97914934D01*
X147179952Y-97925841D01*
X147188720Y-97937664D01*
X147196288Y-97950290D01*
X147202582Y-97963597D01*
X147207541Y-97977457D01*
X147211118Y-97991736D01*
X147213278Y-98006297D01*
X147214000Y-98021000D01*
X147214000Y-98321000D01*
X147213278Y-98335703D01*
X147211118Y-98350264D01*
X147207541Y-98364543D01*
X147202582Y-98378403D01*
X147196288Y-98391710D01*
X147188720Y-98404336D01*
X147179952Y-98416159D01*
X147170066Y-98427066D01*
X147159159Y-98436952D01*
X147147336Y-98445720D01*
X147134710Y-98453288D01*
X147121403Y-98459582D01*
X147107543Y-98464541D01*
X147093264Y-98468118D01*
X147078703Y-98470278D01*
X147064000Y-98471000D01*
X145414000Y-98471000D01*
X145399297Y-98470278D01*
X145384736Y-98468118D01*
X145370457Y-98464541D01*
X145356597Y-98459582D01*
X145343290Y-98453288D01*
X145330664Y-98445720D01*
X145318841Y-98436952D01*
X145307934Y-98427066D01*
X145298048Y-98416159D01*
X145289280Y-98404336D01*
X145281712Y-98391710D01*
X145275418Y-98378403D01*
X145270459Y-98364543D01*
X145266882Y-98350264D01*
X145264722Y-98335703D01*
X145264000Y-98321000D01*
X145264000Y-98021000D01*
X145264722Y-98006297D01*
X145266882Y-97991736D01*
X145270459Y-97977457D01*
X145275418Y-97963597D01*
X145281712Y-97950290D01*
X145289280Y-97937664D01*
X145298048Y-97925841D01*
X145307934Y-97914934D01*
X145318841Y-97905048D01*
X145330664Y-97896280D01*
X145343290Y-97888712D01*
X145356597Y-97882418D01*
X145370457Y-97877459D01*
X145384736Y-97873882D01*
X145399297Y-97871722D01*
X145414000Y-97871000D01*
X147064000Y-97871000D01*
X147078703Y-97871722D01*
G37*
G04 #@! TD.AperFunction*
G04 #@! TA.AperFunction,SMDPad,CuDef*
G36*
X147078703Y-96601722D02*
G01*
X147093264Y-96603882D01*
X147107543Y-96607459D01*
X147121403Y-96612418D01*
X147134710Y-96618712D01*
X147147336Y-96626280D01*
X147159159Y-96635048D01*
X147170066Y-96644934D01*
X147179952Y-96655841D01*
X147188720Y-96667664D01*
X147196288Y-96680290D01*
X147202582Y-96693597D01*
X147207541Y-96707457D01*
X147211118Y-96721736D01*
X147213278Y-96736297D01*
X147214000Y-96751000D01*
X147214000Y-97051000D01*
X147213278Y-97065703D01*
X147211118Y-97080264D01*
X147207541Y-97094543D01*
X147202582Y-97108403D01*
X147196288Y-97121710D01*
X147188720Y-97134336D01*
X147179952Y-97146159D01*
X147170066Y-97157066D01*
X147159159Y-97166952D01*
X147147336Y-97175720D01*
X147134710Y-97183288D01*
X147121403Y-97189582D01*
X147107543Y-97194541D01*
X147093264Y-97198118D01*
X147078703Y-97200278D01*
X147064000Y-97201000D01*
X145414000Y-97201000D01*
X145399297Y-97200278D01*
X145384736Y-97198118D01*
X145370457Y-97194541D01*
X145356597Y-97189582D01*
X145343290Y-97183288D01*
X145330664Y-97175720D01*
X145318841Y-97166952D01*
X145307934Y-97157066D01*
X145298048Y-97146159D01*
X145289280Y-97134336D01*
X145281712Y-97121710D01*
X145275418Y-97108403D01*
X145270459Y-97094543D01*
X145266882Y-97080264D01*
X145264722Y-97065703D01*
X145264000Y-97051000D01*
X145264000Y-96751000D01*
X145264722Y-96736297D01*
X145266882Y-96721736D01*
X145270459Y-96707457D01*
X145275418Y-96693597D01*
X145281712Y-96680290D01*
X145289280Y-96667664D01*
X145298048Y-96655841D01*
X145307934Y-96644934D01*
X145318841Y-96635048D01*
X145330664Y-96626280D01*
X145343290Y-96618712D01*
X145356597Y-96612418D01*
X145370457Y-96607459D01*
X145384736Y-96603882D01*
X145399297Y-96601722D01*
X145414000Y-96601000D01*
X147064000Y-96601000D01*
X147078703Y-96601722D01*
G37*
G04 #@! TD.AperFunction*
G04 #@! TA.AperFunction,SMDPad,CuDef*
G36*
X142128703Y-96601722D02*
G01*
X142143264Y-96603882D01*
X142157543Y-96607459D01*
X142171403Y-96612418D01*
X142184710Y-96618712D01*
X142197336Y-96626280D01*
X142209159Y-96635048D01*
X142220066Y-96644934D01*
X142229952Y-96655841D01*
X142238720Y-96667664D01*
X142246288Y-96680290D01*
X142252582Y-96693597D01*
X142257541Y-96707457D01*
X142261118Y-96721736D01*
X142263278Y-96736297D01*
X142264000Y-96751000D01*
X142264000Y-97051000D01*
X142263278Y-97065703D01*
X142261118Y-97080264D01*
X142257541Y-97094543D01*
X142252582Y-97108403D01*
X142246288Y-97121710D01*
X142238720Y-97134336D01*
X142229952Y-97146159D01*
X142220066Y-97157066D01*
X142209159Y-97166952D01*
X142197336Y-97175720D01*
X142184710Y-97183288D01*
X142171403Y-97189582D01*
X142157543Y-97194541D01*
X142143264Y-97198118D01*
X142128703Y-97200278D01*
X142114000Y-97201000D01*
X140464000Y-97201000D01*
X140449297Y-97200278D01*
X140434736Y-97198118D01*
X140420457Y-97194541D01*
X140406597Y-97189582D01*
X140393290Y-97183288D01*
X140380664Y-97175720D01*
X140368841Y-97166952D01*
X140357934Y-97157066D01*
X140348048Y-97146159D01*
X140339280Y-97134336D01*
X140331712Y-97121710D01*
X140325418Y-97108403D01*
X140320459Y-97094543D01*
X140316882Y-97080264D01*
X140314722Y-97065703D01*
X140314000Y-97051000D01*
X140314000Y-96751000D01*
X140314722Y-96736297D01*
X140316882Y-96721736D01*
X140320459Y-96707457D01*
X140325418Y-96693597D01*
X140331712Y-96680290D01*
X140339280Y-96667664D01*
X140348048Y-96655841D01*
X140357934Y-96644934D01*
X140368841Y-96635048D01*
X140380664Y-96626280D01*
X140393290Y-96618712D01*
X140406597Y-96612418D01*
X140420457Y-96607459D01*
X140434736Y-96603882D01*
X140449297Y-96601722D01*
X140464000Y-96601000D01*
X142114000Y-96601000D01*
X142128703Y-96601722D01*
G37*
G04 #@! TD.AperFunction*
G04 #@! TA.AperFunction,SMDPad,CuDef*
G36*
X142128703Y-97871722D02*
G01*
X142143264Y-97873882D01*
X142157543Y-97877459D01*
X142171403Y-97882418D01*
X142184710Y-97888712D01*
X142197336Y-97896280D01*
X142209159Y-97905048D01*
X142220066Y-97914934D01*
X142229952Y-97925841D01*
X142238720Y-97937664D01*
X142246288Y-97950290D01*
X142252582Y-97963597D01*
X142257541Y-97977457D01*
X142261118Y-97991736D01*
X142263278Y-98006297D01*
X142264000Y-98021000D01*
X142264000Y-98321000D01*
X142263278Y-98335703D01*
X142261118Y-98350264D01*
X142257541Y-98364543D01*
X142252582Y-98378403D01*
X142246288Y-98391710D01*
X142238720Y-98404336D01*
X142229952Y-98416159D01*
X142220066Y-98427066D01*
X142209159Y-98436952D01*
X142197336Y-98445720D01*
X142184710Y-98453288D01*
X142171403Y-98459582D01*
X142157543Y-98464541D01*
X142143264Y-98468118D01*
X142128703Y-98470278D01*
X142114000Y-98471000D01*
X140464000Y-98471000D01*
X140449297Y-98470278D01*
X140434736Y-98468118D01*
X140420457Y-98464541D01*
X140406597Y-98459582D01*
X140393290Y-98453288D01*
X140380664Y-98445720D01*
X140368841Y-98436952D01*
X140357934Y-98427066D01*
X140348048Y-98416159D01*
X140339280Y-98404336D01*
X140331712Y-98391710D01*
X140325418Y-98378403D01*
X140320459Y-98364543D01*
X140316882Y-98350264D01*
X140314722Y-98335703D01*
X140314000Y-98321000D01*
X140314000Y-98021000D01*
X140314722Y-98006297D01*
X140316882Y-97991736D01*
X140320459Y-97977457D01*
X140325418Y-97963597D01*
X140331712Y-97950290D01*
X140339280Y-97937664D01*
X140348048Y-97925841D01*
X140357934Y-97914934D01*
X140368841Y-97905048D01*
X140380664Y-97896280D01*
X140393290Y-97888712D01*
X140406597Y-97882418D01*
X140420457Y-97877459D01*
X140434736Y-97873882D01*
X140449297Y-97871722D01*
X140464000Y-97871000D01*
X142114000Y-97871000D01*
X142128703Y-97871722D01*
G37*
G04 #@! TD.AperFunction*
G04 #@! TA.AperFunction,SMDPad,CuDef*
G36*
X142128703Y-99141722D02*
G01*
X142143264Y-99143882D01*
X142157543Y-99147459D01*
X142171403Y-99152418D01*
X142184710Y-99158712D01*
X142197336Y-99166280D01*
X142209159Y-99175048D01*
X142220066Y-99184934D01*
X142229952Y-99195841D01*
X142238720Y-99207664D01*
X142246288Y-99220290D01*
X142252582Y-99233597D01*
X142257541Y-99247457D01*
X142261118Y-99261736D01*
X142263278Y-99276297D01*
X142264000Y-99291000D01*
X142264000Y-99591000D01*
X142263278Y-99605703D01*
X142261118Y-99620264D01*
X142257541Y-99634543D01*
X142252582Y-99648403D01*
X142246288Y-99661710D01*
X142238720Y-99674336D01*
X142229952Y-99686159D01*
X142220066Y-99697066D01*
X142209159Y-99706952D01*
X142197336Y-99715720D01*
X142184710Y-99723288D01*
X142171403Y-99729582D01*
X142157543Y-99734541D01*
X142143264Y-99738118D01*
X142128703Y-99740278D01*
X142114000Y-99741000D01*
X140464000Y-99741000D01*
X140449297Y-99740278D01*
X140434736Y-99738118D01*
X140420457Y-99734541D01*
X140406597Y-99729582D01*
X140393290Y-99723288D01*
X140380664Y-99715720D01*
X140368841Y-99706952D01*
X140357934Y-99697066D01*
X140348048Y-99686159D01*
X140339280Y-99674336D01*
X140331712Y-99661710D01*
X140325418Y-99648403D01*
X140320459Y-99634543D01*
X140316882Y-99620264D01*
X140314722Y-99605703D01*
X140314000Y-99591000D01*
X140314000Y-99291000D01*
X140314722Y-99276297D01*
X140316882Y-99261736D01*
X140320459Y-99247457D01*
X140325418Y-99233597D01*
X140331712Y-99220290D01*
X140339280Y-99207664D01*
X140348048Y-99195841D01*
X140357934Y-99184934D01*
X140368841Y-99175048D01*
X140380664Y-99166280D01*
X140393290Y-99158712D01*
X140406597Y-99152418D01*
X140420457Y-99147459D01*
X140434736Y-99143882D01*
X140449297Y-99141722D01*
X140464000Y-99141000D01*
X142114000Y-99141000D01*
X142128703Y-99141722D01*
G37*
G04 #@! TD.AperFunction*
G04 #@! TA.AperFunction,SMDPad,CuDef*
G36*
X142128703Y-100411722D02*
G01*
X142143264Y-100413882D01*
X142157543Y-100417459D01*
X142171403Y-100422418D01*
X142184710Y-100428712D01*
X142197336Y-100436280D01*
X142209159Y-100445048D01*
X142220066Y-100454934D01*
X142229952Y-100465841D01*
X142238720Y-100477664D01*
X142246288Y-100490290D01*
X142252582Y-100503597D01*
X142257541Y-100517457D01*
X142261118Y-100531736D01*
X142263278Y-100546297D01*
X142264000Y-100561000D01*
X142264000Y-100861000D01*
X142263278Y-100875703D01*
X142261118Y-100890264D01*
X142257541Y-100904543D01*
X142252582Y-100918403D01*
X142246288Y-100931710D01*
X142238720Y-100944336D01*
X142229952Y-100956159D01*
X142220066Y-100967066D01*
X142209159Y-100976952D01*
X142197336Y-100985720D01*
X142184710Y-100993288D01*
X142171403Y-100999582D01*
X142157543Y-101004541D01*
X142143264Y-101008118D01*
X142128703Y-101010278D01*
X142114000Y-101011000D01*
X140464000Y-101011000D01*
X140449297Y-101010278D01*
X140434736Y-101008118D01*
X140420457Y-101004541D01*
X140406597Y-100999582D01*
X140393290Y-100993288D01*
X140380664Y-100985720D01*
X140368841Y-100976952D01*
X140357934Y-100967066D01*
X140348048Y-100956159D01*
X140339280Y-100944336D01*
X140331712Y-100931710D01*
X140325418Y-100918403D01*
X140320459Y-100904543D01*
X140316882Y-100890264D01*
X140314722Y-100875703D01*
X140314000Y-100861000D01*
X140314000Y-100561000D01*
X140314722Y-100546297D01*
X140316882Y-100531736D01*
X140320459Y-100517457D01*
X140325418Y-100503597D01*
X140331712Y-100490290D01*
X140339280Y-100477664D01*
X140348048Y-100465841D01*
X140357934Y-100454934D01*
X140368841Y-100445048D01*
X140380664Y-100436280D01*
X140393290Y-100428712D01*
X140406597Y-100422418D01*
X140420457Y-100417459D01*
X140434736Y-100413882D01*
X140449297Y-100411722D01*
X140464000Y-100411000D01*
X142114000Y-100411000D01*
X142128703Y-100411722D01*
G37*
G04 #@! TD.AperFunction*
D16*
X133624399Y-89387601D03*
X133858000Y-92964000D03*
X145042609Y-96758771D03*
X139446000Y-93802000D03*
X148082000Y-97028000D03*
X138938000Y-97790000D03*
X148336000Y-100838000D03*
X149961609Y-89509609D03*
X146558000Y-94234000D03*
X148336000Y-99060000D03*
D17*
X135627000Y-89387601D02*
X133624399Y-89387601D01*
X131084399Y-89387601D02*
X130302000Y-90170000D01*
X133624399Y-89387601D02*
X131084399Y-89387601D01*
X135627000Y-92202000D02*
X134620000Y-92202000D01*
X134620000Y-92202000D02*
X133858000Y-92964000D01*
X145184838Y-96901000D02*
X145042609Y-96758771D01*
X146096771Y-96758771D02*
X146239000Y-96901000D01*
X145042609Y-96758771D02*
X146096771Y-96758771D01*
X138917601Y-89387601D02*
X141224000Y-91694000D01*
X137677000Y-89387601D02*
X138917601Y-89387601D01*
X135627000Y-96003000D02*
X135627000Y-94996000D01*
X135890000Y-96266000D02*
X135627000Y-96003000D01*
X135618000Y-96538000D02*
X135890000Y-96266000D01*
X135618000Y-97790000D02*
X135618000Y-96538000D01*
X135618000Y-98490000D02*
X136188000Y-99060000D01*
X135618000Y-97790000D02*
X135618000Y-98490000D01*
X136188000Y-99060000D02*
X137160000Y-99060000D01*
X137677000Y-99577000D02*
X137677000Y-100584000D01*
X137160000Y-99060000D02*
X137677000Y-99577000D01*
X137804000Y-100711000D02*
X137677000Y-100584000D01*
X141289000Y-100711000D02*
X137804000Y-100711000D01*
X156972000Y-90170000D02*
X159004000Y-92202000D01*
X154441000Y-90170000D02*
X156972000Y-90170000D01*
X135890000Y-96266000D02*
X139192000Y-96266000D01*
X154441000Y-90870000D02*
X154441000Y-90170000D01*
X153617000Y-91694000D02*
X154441000Y-90870000D01*
X152654000Y-91694000D02*
X153617000Y-91694000D01*
X151384000Y-95941000D02*
X151384000Y-92964000D01*
X149860000Y-96765000D02*
X150560000Y-96765000D01*
X150560000Y-96765000D02*
X151384000Y-95941000D01*
X151384000Y-92964000D02*
X152654000Y-91694000D01*
X149860000Y-96190000D02*
X149428000Y-95758000D01*
X149860000Y-96765000D02*
X149860000Y-96190000D01*
X139192000Y-96266000D02*
X139954000Y-95758000D01*
X141224000Y-91694000D02*
X141224000Y-94996000D01*
X141224000Y-94996000D02*
X141986000Y-95758000D01*
X141986000Y-95758000D02*
X139954000Y-95758000D01*
X149428000Y-95758000D02*
X141986000Y-95758000D01*
D18*
X137677000Y-91502000D02*
X137677000Y-92202000D01*
X130302000Y-92710000D02*
X131557600Y-92710000D01*
X137107000Y-90932000D02*
X137677000Y-91502000D01*
X131557600Y-92710000D02*
X133335600Y-90932000D01*
X133335600Y-90932000D02*
X137107000Y-90932000D01*
X137677000Y-92202000D02*
X137677000Y-94996000D01*
X138252000Y-94996000D02*
X139446000Y-93802000D01*
X137677000Y-94996000D02*
X138252000Y-94996000D01*
X148082000Y-97028000D02*
X148082000Y-97536000D01*
X147447000Y-98171000D02*
X146239000Y-98171000D01*
X148082000Y-97536000D02*
X147447000Y-98171000D01*
X151638000Y-98815000D02*
X152391000Y-99568000D01*
X149860000Y-98815000D02*
X151638000Y-98815000D01*
X133350000Y-100584000D02*
X135627000Y-100584000D01*
X132334000Y-99568000D02*
X133350000Y-100584000D01*
X130302000Y-99568000D02*
X132334000Y-99568000D01*
X148082000Y-91895000D02*
X149160000Y-92973000D01*
X148082000Y-89662000D02*
X148082000Y-91895000D01*
X152391000Y-90170000D02*
X152391000Y-89470000D01*
X152391000Y-89470000D02*
X151567000Y-88646000D01*
X151567000Y-88646000D02*
X149098000Y-88646000D01*
X149160000Y-92973000D02*
X149860000Y-92973000D01*
X149098000Y-88646000D02*
X148082000Y-89662000D01*
X137668000Y-97790000D02*
X138243000Y-97790000D01*
X138243000Y-97790000D02*
X138938000Y-97790000D01*
X146366000Y-100838000D02*
X146239000Y-100711000D01*
X148336000Y-100838000D02*
X146366000Y-100838000D01*
X149961609Y-90821391D02*
X149860000Y-90923000D01*
X149961609Y-89509609D02*
X149961609Y-90821391D01*
X159004000Y-98487600D02*
X156653600Y-100838000D01*
X159004000Y-97282000D02*
X159004000Y-98487600D01*
X156653600Y-100838000D02*
X152908000Y-100838000D01*
X152908000Y-100838000D02*
X148336000Y-100838000D01*
X143764000Y-94234000D02*
X146558000Y-94234000D01*
X147955000Y-99441000D02*
X146239000Y-99441000D01*
X148336000Y-99060000D02*
X147955000Y-99441000D01*
D19*
G36*
X157538482Y-91957796D02*
G01*
X157519000Y-92055740D01*
X157519000Y-92348260D01*
X157576068Y-92635158D01*
X157688010Y-92905411D01*
X157850525Y-93148632D01*
X158057368Y-93355475D01*
X158239534Y-93477195D01*
X158122645Y-93546822D01*
X157906412Y-93741731D01*
X157732359Y-93975080D01*
X157607175Y-94237901D01*
X157562524Y-94385110D01*
X157683845Y-94615000D01*
X158877000Y-94615000D01*
X158877000Y-94595000D01*
X159131000Y-94595000D01*
X159131000Y-94615000D01*
X159151000Y-94615000D01*
X159151000Y-94869000D01*
X159131000Y-94869000D01*
X159131000Y-94889000D01*
X158877000Y-94889000D01*
X158877000Y-94869000D01*
X157683845Y-94869000D01*
X157562524Y-95098890D01*
X157607175Y-95246099D01*
X157732359Y-95508920D01*
X157906412Y-95742269D01*
X157990466Y-95818034D01*
X157909820Y-95842498D01*
X157799506Y-95901463D01*
X157702815Y-95980815D01*
X157623463Y-96077506D01*
X157564498Y-96187820D01*
X157528188Y-96307518D01*
X157515928Y-96432000D01*
X157515928Y-98132000D01*
X157528188Y-98256482D01*
X157564498Y-98376180D01*
X157623463Y-98486494D01*
X157702815Y-98583185D01*
X157733643Y-98608485D01*
X156316928Y-100025200D01*
X155652271Y-100025200D01*
X155651000Y-99853750D01*
X155492250Y-99695000D01*
X154568000Y-99695000D01*
X154568000Y-99715000D01*
X154314000Y-99715000D01*
X154314000Y-99695000D01*
X154294000Y-99695000D01*
X154294000Y-99441000D01*
X154314000Y-99441000D01*
X154314000Y-98391750D01*
X154568000Y-98391750D01*
X154568000Y-99441000D01*
X155492250Y-99441000D01*
X155651000Y-99282250D01*
X155654072Y-98868000D01*
X155641812Y-98743518D01*
X155605502Y-98623820D01*
X155546537Y-98513506D01*
X155467185Y-98416815D01*
X155370494Y-98337463D01*
X155260180Y-98278498D01*
X155140482Y-98242188D01*
X155016000Y-98229928D01*
X154726750Y-98233000D01*
X154568000Y-98391750D01*
X154314000Y-98391750D01*
X154155250Y-98233000D01*
X153866000Y-98229928D01*
X153741518Y-98242188D01*
X153621820Y-98278498D01*
X153511506Y-98337463D01*
X153414815Y-98416815D01*
X153349342Y-98496594D01*
X153343962Y-98490038D01*
X153209387Y-98379595D01*
X153055851Y-98297528D01*
X152889255Y-98246992D01*
X152716001Y-98229928D01*
X152206311Y-98229928D01*
X152091752Y-98135912D01*
X151950550Y-98060438D01*
X151797337Y-98013961D01*
X151677923Y-98002200D01*
X151677920Y-98002200D01*
X151638000Y-97998268D01*
X151598080Y-98002200D01*
X151051391Y-98002200D01*
X151048405Y-97996613D01*
X150937962Y-97862038D01*
X150850184Y-97790000D01*
X150937962Y-97717962D01*
X151048405Y-97583387D01*
X151130472Y-97429851D01*
X151136868Y-97408767D01*
X151173612Y-97378612D01*
X151200664Y-97345650D01*
X151964656Y-96581658D01*
X151997612Y-96554612D01*
X152105531Y-96423112D01*
X152135074Y-96367841D01*
X152245271Y-96478038D01*
X152611331Y-96722631D01*
X153018075Y-96891110D01*
X153449872Y-96977000D01*
X153890128Y-96977000D01*
X154321925Y-96891110D01*
X154728669Y-96722631D01*
X155094729Y-96478038D01*
X155406038Y-96166729D01*
X155650631Y-95800669D01*
X155819110Y-95393925D01*
X155905000Y-94962128D01*
X155905000Y-94521872D01*
X155819110Y-94090075D01*
X155650631Y-93683331D01*
X155406038Y-93317271D01*
X155094729Y-93005962D01*
X154728669Y-92761369D01*
X154321925Y-92592890D01*
X153903281Y-92509616D01*
X153949084Y-92495722D01*
X154099112Y-92415531D01*
X154230612Y-92307612D01*
X154257664Y-92274650D01*
X155021656Y-91510658D01*
X155054612Y-91483612D01*
X155084767Y-91446868D01*
X155105851Y-91440472D01*
X155259387Y-91358405D01*
X155393962Y-91247962D01*
X155504405Y-91113387D01*
X155547052Y-91033600D01*
X156614287Y-91033600D01*
X157538482Y-91957796D01*
G37*
X157538482Y-91957796D02*
X157519000Y-92055740D01*
X157519000Y-92348260D01*
X157576068Y-92635158D01*
X157688010Y-92905411D01*
X157850525Y-93148632D01*
X158057368Y-93355475D01*
X158239534Y-93477195D01*
X158122645Y-93546822D01*
X157906412Y-93741731D01*
X157732359Y-93975080D01*
X157607175Y-94237901D01*
X157562524Y-94385110D01*
X157683845Y-94615000D01*
X158877000Y-94615000D01*
X158877000Y-94595000D01*
X159131000Y-94595000D01*
X159131000Y-94615000D01*
X159151000Y-94615000D01*
X159151000Y-94869000D01*
X159131000Y-94869000D01*
X159131000Y-94889000D01*
X158877000Y-94889000D01*
X158877000Y-94869000D01*
X157683845Y-94869000D01*
X157562524Y-95098890D01*
X157607175Y-95246099D01*
X157732359Y-95508920D01*
X157906412Y-95742269D01*
X157990466Y-95818034D01*
X157909820Y-95842498D01*
X157799506Y-95901463D01*
X157702815Y-95980815D01*
X157623463Y-96077506D01*
X157564498Y-96187820D01*
X157528188Y-96307518D01*
X157515928Y-96432000D01*
X157515928Y-98132000D01*
X157528188Y-98256482D01*
X157564498Y-98376180D01*
X157623463Y-98486494D01*
X157702815Y-98583185D01*
X157733643Y-98608485D01*
X156316928Y-100025200D01*
X155652271Y-100025200D01*
X155651000Y-99853750D01*
X155492250Y-99695000D01*
X154568000Y-99695000D01*
X154568000Y-99715000D01*
X154314000Y-99715000D01*
X154314000Y-99695000D01*
X154294000Y-99695000D01*
X154294000Y-99441000D01*
X154314000Y-99441000D01*
X154314000Y-98391750D01*
X154568000Y-98391750D01*
X154568000Y-99441000D01*
X155492250Y-99441000D01*
X155651000Y-99282250D01*
X155654072Y-98868000D01*
X155641812Y-98743518D01*
X155605502Y-98623820D01*
X155546537Y-98513506D01*
X155467185Y-98416815D01*
X155370494Y-98337463D01*
X155260180Y-98278498D01*
X155140482Y-98242188D01*
X155016000Y-98229928D01*
X154726750Y-98233000D01*
X154568000Y-98391750D01*
X154314000Y-98391750D01*
X154155250Y-98233000D01*
X153866000Y-98229928D01*
X153741518Y-98242188D01*
X153621820Y-98278498D01*
X153511506Y-98337463D01*
X153414815Y-98416815D01*
X153349342Y-98496594D01*
X153343962Y-98490038D01*
X153209387Y-98379595D01*
X153055851Y-98297528D01*
X152889255Y-98246992D01*
X152716001Y-98229928D01*
X152206311Y-98229928D01*
X152091752Y-98135912D01*
X151950550Y-98060438D01*
X151797337Y-98013961D01*
X151677923Y-98002200D01*
X151677920Y-98002200D01*
X151638000Y-97998268D01*
X151598080Y-98002200D01*
X151051391Y-98002200D01*
X151048405Y-97996613D01*
X150937962Y-97862038D01*
X150850184Y-97790000D01*
X150937962Y-97717962D01*
X151048405Y-97583387D01*
X151130472Y-97429851D01*
X151136868Y-97408767D01*
X151173612Y-97378612D01*
X151200664Y-97345650D01*
X151964656Y-96581658D01*
X151997612Y-96554612D01*
X152105531Y-96423112D01*
X152135074Y-96367841D01*
X152245271Y-96478038D01*
X152611331Y-96722631D01*
X153018075Y-96891110D01*
X153449872Y-96977000D01*
X153890128Y-96977000D01*
X154321925Y-96891110D01*
X154728669Y-96722631D01*
X155094729Y-96478038D01*
X155406038Y-96166729D01*
X155650631Y-95800669D01*
X155819110Y-95393925D01*
X155905000Y-94962128D01*
X155905000Y-94521872D01*
X155819110Y-94090075D01*
X155650631Y-93683331D01*
X155406038Y-93317271D01*
X155094729Y-93005962D01*
X154728669Y-92761369D01*
X154321925Y-92592890D01*
X153903281Y-92509616D01*
X153949084Y-92495722D01*
X154099112Y-92415531D01*
X154230612Y-92307612D01*
X154257664Y-92274650D01*
X155021656Y-91510658D01*
X155054612Y-91483612D01*
X155084767Y-91446868D01*
X155105851Y-91440472D01*
X155259387Y-91358405D01*
X155393962Y-91247962D01*
X155504405Y-91113387D01*
X155547052Y-91033600D01*
X156614287Y-91033600D01*
X157538482Y-91957796D01*
G36*
X134417000Y-91916250D02*
G01*
X134575750Y-92075000D01*
X135500000Y-92075000D01*
X135500000Y-92055000D01*
X135754000Y-92055000D01*
X135754000Y-92075000D01*
X135774000Y-92075000D01*
X135774000Y-92329000D01*
X135754000Y-92329000D01*
X135754000Y-93378250D01*
X135912750Y-93537000D01*
X136202000Y-93540072D01*
X136326482Y-93527812D01*
X136446180Y-93491502D01*
X136556494Y-93432537D01*
X136653185Y-93353185D01*
X136718658Y-93273406D01*
X136724038Y-93279962D01*
X136858613Y-93390405D01*
X136864200Y-93393392D01*
X136864201Y-93804608D01*
X136858613Y-93807595D01*
X136724038Y-93918038D01*
X136652000Y-94005816D01*
X136579962Y-93918038D01*
X136445387Y-93807595D01*
X136291851Y-93725528D01*
X136125255Y-93674992D01*
X135952001Y-93657928D01*
X135301999Y-93657928D01*
X135128745Y-93674992D01*
X134962149Y-93725528D01*
X134808613Y-93807595D01*
X134674038Y-93918038D01*
X134563595Y-94052613D01*
X134481528Y-94206149D01*
X134430992Y-94372745D01*
X134413928Y-94545999D01*
X134413928Y-95446001D01*
X134430992Y-95619255D01*
X134481528Y-95785851D01*
X134563595Y-95939387D01*
X134674038Y-96073962D01*
X134774317Y-96156259D01*
X134775896Y-96172294D01*
X134801187Y-96255666D01*
X134766896Y-96368706D01*
X134750222Y-96538000D01*
X134754401Y-96580429D01*
X134754401Y-96638700D01*
X134665038Y-96712038D01*
X134554595Y-96846613D01*
X134472528Y-97000149D01*
X134421992Y-97166745D01*
X134404928Y-97339999D01*
X134404928Y-98240001D01*
X134421992Y-98413255D01*
X134472528Y-98579851D01*
X134554595Y-98733387D01*
X134665038Y-98867962D01*
X134799613Y-98978405D01*
X134953149Y-99060472D01*
X134974234Y-99066868D01*
X135004389Y-99103612D01*
X135037346Y-99130659D01*
X135166009Y-99259322D01*
X135128745Y-99262992D01*
X134962149Y-99313528D01*
X134808613Y-99395595D01*
X134674038Y-99506038D01*
X134563595Y-99640613D01*
X134493795Y-99771200D01*
X133686673Y-99771200D01*
X132936971Y-99021499D01*
X132911517Y-98990483D01*
X132787752Y-98888912D01*
X132646550Y-98813438D01*
X132493337Y-98766961D01*
X132373923Y-98755200D01*
X132373920Y-98755200D01*
X132334000Y-98751268D01*
X132294080Y-98755200D01*
X131605033Y-98755200D01*
X131494312Y-98589495D01*
X131427873Y-98523056D01*
X131446180Y-98517502D01*
X131556494Y-98458537D01*
X131653185Y-98379185D01*
X131732537Y-98282494D01*
X131791502Y-98172180D01*
X131827812Y-98052482D01*
X131840072Y-97928000D01*
X131837000Y-97313750D01*
X131678250Y-97155000D01*
X130429000Y-97155000D01*
X130429000Y-97175000D01*
X130175000Y-97175000D01*
X130175000Y-97155000D01*
X130155000Y-97155000D01*
X130155000Y-96901000D01*
X130175000Y-96901000D01*
X130175000Y-95651750D01*
X130429000Y-95651750D01*
X130429000Y-96901000D01*
X131678250Y-96901000D01*
X131837000Y-96742250D01*
X131840072Y-96128000D01*
X131827812Y-96003518D01*
X131791502Y-95883820D01*
X131732537Y-95773506D01*
X131653185Y-95676815D01*
X131556494Y-95597463D01*
X131446180Y-95538498D01*
X131326482Y-95502188D01*
X131202000Y-95489928D01*
X130587750Y-95493000D01*
X130429000Y-95651750D01*
X130175000Y-95651750D01*
X130016250Y-95493000D01*
X129402000Y-95489928D01*
X129277518Y-95502188D01*
X129184000Y-95530556D01*
X129184000Y-94207444D01*
X129277518Y-94235812D01*
X129402000Y-94248072D01*
X131202000Y-94248072D01*
X131326482Y-94235812D01*
X131446180Y-94199502D01*
X131556494Y-94140537D01*
X131653185Y-94061185D01*
X131732537Y-93964494D01*
X131791502Y-93854180D01*
X131827812Y-93734482D01*
X131840072Y-93610000D01*
X131840072Y-93473686D01*
X131870150Y-93464562D01*
X132011352Y-93389088D01*
X132135117Y-93287517D01*
X132160571Y-93256501D01*
X132515072Y-92902000D01*
X134413928Y-92902000D01*
X134426188Y-93026482D01*
X134462498Y-93146180D01*
X134521463Y-93256494D01*
X134600815Y-93353185D01*
X134697506Y-93432537D01*
X134807820Y-93491502D01*
X134927518Y-93527812D01*
X135052000Y-93540072D01*
X135341250Y-93537000D01*
X135500000Y-93378250D01*
X135500000Y-92329000D01*
X134575750Y-92329000D01*
X134417000Y-92487750D01*
X134413928Y-92902000D01*
X132515072Y-92902000D01*
X133672273Y-91744800D01*
X134415729Y-91744800D01*
X134417000Y-91916250D01*
G37*
X134417000Y-91916250D02*
X134575750Y-92075000D01*
X135500000Y-92075000D01*
X135500000Y-92055000D01*
X135754000Y-92055000D01*
X135754000Y-92075000D01*
X135774000Y-92075000D01*
X135774000Y-92329000D01*
X135754000Y-92329000D01*
X135754000Y-93378250D01*
X135912750Y-93537000D01*
X136202000Y-93540072D01*
X136326482Y-93527812D01*
X136446180Y-93491502D01*
X136556494Y-93432537D01*
X136653185Y-93353185D01*
X136718658Y-93273406D01*
X136724038Y-93279962D01*
X136858613Y-93390405D01*
X136864200Y-93393392D01*
X136864201Y-93804608D01*
X136858613Y-93807595D01*
X136724038Y-93918038D01*
X136652000Y-94005816D01*
X136579962Y-93918038D01*
X136445387Y-93807595D01*
X136291851Y-93725528D01*
X136125255Y-93674992D01*
X135952001Y-93657928D01*
X135301999Y-93657928D01*
X135128745Y-93674992D01*
X134962149Y-93725528D01*
X134808613Y-93807595D01*
X134674038Y-93918038D01*
X134563595Y-94052613D01*
X134481528Y-94206149D01*
X134430992Y-94372745D01*
X134413928Y-94545999D01*
X134413928Y-95446001D01*
X134430992Y-95619255D01*
X134481528Y-95785851D01*
X134563595Y-95939387D01*
X134674038Y-96073962D01*
X134774317Y-96156259D01*
X134775896Y-96172294D01*
X134801187Y-96255666D01*
X134766896Y-96368706D01*
X134750222Y-96538000D01*
X134754401Y-96580429D01*
X134754401Y-96638700D01*
X134665038Y-96712038D01*
X134554595Y-96846613D01*
X134472528Y-97000149D01*
X134421992Y-97166745D01*
X134404928Y-97339999D01*
X134404928Y-98240001D01*
X134421992Y-98413255D01*
X134472528Y-98579851D01*
X134554595Y-98733387D01*
X134665038Y-98867962D01*
X134799613Y-98978405D01*
X134953149Y-99060472D01*
X134974234Y-99066868D01*
X135004389Y-99103612D01*
X135037346Y-99130659D01*
X135166009Y-99259322D01*
X135128745Y-99262992D01*
X134962149Y-99313528D01*
X134808613Y-99395595D01*
X134674038Y-99506038D01*
X134563595Y-99640613D01*
X134493795Y-99771200D01*
X133686673Y-99771200D01*
X132936971Y-99021499D01*
X132911517Y-98990483D01*
X132787752Y-98888912D01*
X132646550Y-98813438D01*
X132493337Y-98766961D01*
X132373923Y-98755200D01*
X132373920Y-98755200D01*
X132334000Y-98751268D01*
X132294080Y-98755200D01*
X131605033Y-98755200D01*
X131494312Y-98589495D01*
X131427873Y-98523056D01*
X131446180Y-98517502D01*
X131556494Y-98458537D01*
X131653185Y-98379185D01*
X131732537Y-98282494D01*
X131791502Y-98172180D01*
X131827812Y-98052482D01*
X131840072Y-97928000D01*
X131837000Y-97313750D01*
X131678250Y-97155000D01*
X130429000Y-97155000D01*
X130429000Y-97175000D01*
X130175000Y-97175000D01*
X130175000Y-97155000D01*
X130155000Y-97155000D01*
X130155000Y-96901000D01*
X130175000Y-96901000D01*
X130175000Y-95651750D01*
X130429000Y-95651750D01*
X130429000Y-96901000D01*
X131678250Y-96901000D01*
X131837000Y-96742250D01*
X131840072Y-96128000D01*
X131827812Y-96003518D01*
X131791502Y-95883820D01*
X131732537Y-95773506D01*
X131653185Y-95676815D01*
X131556494Y-95597463D01*
X131446180Y-95538498D01*
X131326482Y-95502188D01*
X131202000Y-95489928D01*
X130587750Y-95493000D01*
X130429000Y-95651750D01*
X130175000Y-95651750D01*
X130016250Y-95493000D01*
X129402000Y-95489928D01*
X129277518Y-95502188D01*
X129184000Y-95530556D01*
X129184000Y-94207444D01*
X129277518Y-94235812D01*
X129402000Y-94248072D01*
X131202000Y-94248072D01*
X131326482Y-94235812D01*
X131446180Y-94199502D01*
X131556494Y-94140537D01*
X131653185Y-94061185D01*
X131732537Y-93964494D01*
X131791502Y-93854180D01*
X131827812Y-93734482D01*
X131840072Y-93610000D01*
X131840072Y-93473686D01*
X131870150Y-93464562D01*
X132011352Y-93389088D01*
X132135117Y-93287517D01*
X132160571Y-93256501D01*
X132515072Y-92902000D01*
X134413928Y-92902000D01*
X134426188Y-93026482D01*
X134462498Y-93146180D01*
X134521463Y-93256494D01*
X134600815Y-93353185D01*
X134697506Y-93432537D01*
X134807820Y-93491502D01*
X134927518Y-93527812D01*
X135052000Y-93540072D01*
X135341250Y-93537000D01*
X135500000Y-93378250D01*
X135500000Y-92329000D01*
X134575750Y-92329000D01*
X134417000Y-92487750D01*
X134413928Y-92902000D01*
X132515072Y-92902000D01*
X133672273Y-91744800D01*
X134415729Y-91744800D01*
X134417000Y-91916250D01*
G36*
X146366000Y-96774000D02*
G01*
X146386000Y-96774000D01*
X146386000Y-97028000D01*
X146366000Y-97028000D01*
X146366000Y-97048000D01*
X146112000Y-97048000D01*
X146112000Y-97028000D01*
X146092000Y-97028000D01*
X146092000Y-96774000D01*
X146112000Y-96774000D01*
X146112000Y-96754000D01*
X146366000Y-96754000D01*
X146366000Y-96774000D01*
G37*
X146366000Y-96774000D02*
X146386000Y-96774000D01*
X146386000Y-97028000D01*
X146366000Y-97028000D01*
X146366000Y-97048000D01*
X146112000Y-97048000D01*
X146112000Y-97028000D01*
X146092000Y-97028000D01*
X146092000Y-96774000D01*
X146112000Y-96774000D01*
X146112000Y-96754000D01*
X146366000Y-96754000D01*
X146366000Y-96774000D01*
G36*
X147535499Y-89059029D02*
G01*
X147504483Y-89084483D01*
X147402912Y-89208249D01*
X147327438Y-89349451D01*
X147280961Y-89502664D01*
X147269200Y-89622077D01*
X147265268Y-89662000D01*
X147269200Y-89701921D01*
X147269201Y-90945824D01*
X147239560Y-90938045D01*
X146483605Y-91694000D01*
X147239560Y-92449955D01*
X147442301Y-92396746D01*
X147504484Y-92472517D01*
X147535495Y-92497967D01*
X148552146Y-93514619D01*
X148589528Y-93637851D01*
X148671595Y-93791387D01*
X148782038Y-93925962D01*
X148916613Y-94036405D01*
X149070149Y-94118472D01*
X149236745Y-94169008D01*
X149409999Y-94186072D01*
X150310001Y-94186072D01*
X150483255Y-94169008D01*
X150520401Y-94157740D01*
X150520400Y-95580260D01*
X150483255Y-95568992D01*
X150462056Y-95566904D01*
X150440654Y-95549340D01*
X150068663Y-95177350D01*
X150041612Y-95144388D01*
X149910112Y-95036469D01*
X149760084Y-94956278D01*
X149597295Y-94906896D01*
X149470420Y-94894400D01*
X149428000Y-94890222D01*
X149385580Y-94894400D01*
X147334441Y-94894400D01*
X147347179Y-94881662D01*
X147458368Y-94715256D01*
X147534956Y-94530356D01*
X147574000Y-94334067D01*
X147574000Y-94133933D01*
X147534956Y-93937644D01*
X147458368Y-93752744D01*
X147347179Y-93586338D01*
X147205662Y-93444821D01*
X147039256Y-93333632D01*
X146854356Y-93257044D01*
X146658067Y-93218000D01*
X146457933Y-93218000D01*
X146261644Y-93257044D01*
X146076744Y-93333632D01*
X145945689Y-93421200D01*
X144850549Y-93421200D01*
X144816497Y-93370238D01*
X144627762Y-93181503D01*
X144405833Y-93033215D01*
X144159239Y-92931072D01*
X143897456Y-92879000D01*
X143630544Y-92879000D01*
X143368761Y-92931072D01*
X143122167Y-93033215D01*
X142900238Y-93181503D01*
X142711503Y-93370238D01*
X142563215Y-93592167D01*
X142461072Y-93838761D01*
X142409000Y-94100544D01*
X142409000Y-94367456D01*
X142461072Y-94629239D01*
X142563215Y-94875833D01*
X142575621Y-94894400D01*
X142343714Y-94894400D01*
X142087600Y-94638286D01*
X142087600Y-92746605D01*
X142087762Y-92746497D01*
X142204699Y-92629560D01*
X145548045Y-92629560D01*
X145609932Y-92865368D01*
X145851790Y-92978266D01*
X146111027Y-93041811D01*
X146377680Y-93053561D01*
X146641501Y-93013063D01*
X146892353Y-92921875D01*
X146998068Y-92865368D01*
X147059955Y-92629560D01*
X146304000Y-91873605D01*
X145548045Y-92629560D01*
X142204699Y-92629560D01*
X142276497Y-92557762D01*
X142424785Y-92335833D01*
X142526928Y-92089239D01*
X142579000Y-91827456D01*
X142579000Y-91767680D01*
X144944439Y-91767680D01*
X144984937Y-92031501D01*
X145076125Y-92282353D01*
X145132632Y-92388068D01*
X145368440Y-92449955D01*
X146124395Y-91694000D01*
X145368440Y-90938045D01*
X145132632Y-90999932D01*
X145019734Y-91241790D01*
X144956189Y-91501027D01*
X144944439Y-91767680D01*
X142579000Y-91767680D01*
X142579000Y-91560544D01*
X142526928Y-91298761D01*
X142424785Y-91052167D01*
X142276497Y-90830238D01*
X142204699Y-90758440D01*
X145548045Y-90758440D01*
X146304000Y-91514395D01*
X147059955Y-90758440D01*
X146998068Y-90522632D01*
X146756210Y-90409734D01*
X146496973Y-90346189D01*
X146230320Y-90334439D01*
X145966499Y-90374937D01*
X145715647Y-90466125D01*
X145609932Y-90522632D01*
X145548045Y-90758440D01*
X142204699Y-90758440D01*
X142087762Y-90641503D01*
X141865833Y-90493215D01*
X141619239Y-90391072D01*
X141357456Y-90339000D01*
X141090544Y-90339000D01*
X141090352Y-90339038D01*
X139558265Y-88806952D01*
X139531213Y-88773989D01*
X139399713Y-88666070D01*
X139249685Y-88585879D01*
X139111630Y-88544000D01*
X148050527Y-88544000D01*
X147535499Y-89059029D01*
G37*
X147535499Y-89059029D02*
X147504483Y-89084483D01*
X147402912Y-89208249D01*
X147327438Y-89349451D01*
X147280961Y-89502664D01*
X147269200Y-89622077D01*
X147265268Y-89662000D01*
X147269200Y-89701921D01*
X147269201Y-90945824D01*
X147239560Y-90938045D01*
X146483605Y-91694000D01*
X147239560Y-92449955D01*
X147442301Y-92396746D01*
X147504484Y-92472517D01*
X147535495Y-92497967D01*
X148552146Y-93514619D01*
X148589528Y-93637851D01*
X148671595Y-93791387D01*
X148782038Y-93925962D01*
X148916613Y-94036405D01*
X149070149Y-94118472D01*
X149236745Y-94169008D01*
X149409999Y-94186072D01*
X150310001Y-94186072D01*
X150483255Y-94169008D01*
X150520401Y-94157740D01*
X150520400Y-95580260D01*
X150483255Y-95568992D01*
X150462056Y-95566904D01*
X150440654Y-95549340D01*
X150068663Y-95177350D01*
X150041612Y-95144388D01*
X149910112Y-95036469D01*
X149760084Y-94956278D01*
X149597295Y-94906896D01*
X149470420Y-94894400D01*
X149428000Y-94890222D01*
X149385580Y-94894400D01*
X147334441Y-94894400D01*
X147347179Y-94881662D01*
X147458368Y-94715256D01*
X147534956Y-94530356D01*
X147574000Y-94334067D01*
X147574000Y-94133933D01*
X147534956Y-93937644D01*
X147458368Y-93752744D01*
X147347179Y-93586338D01*
X147205662Y-93444821D01*
X147039256Y-93333632D01*
X146854356Y-93257044D01*
X146658067Y-93218000D01*
X146457933Y-93218000D01*
X146261644Y-93257044D01*
X146076744Y-93333632D01*
X145945689Y-93421200D01*
X144850549Y-93421200D01*
X144816497Y-93370238D01*
X144627762Y-93181503D01*
X144405833Y-93033215D01*
X144159239Y-92931072D01*
X143897456Y-92879000D01*
X143630544Y-92879000D01*
X143368761Y-92931072D01*
X143122167Y-93033215D01*
X142900238Y-93181503D01*
X142711503Y-93370238D01*
X142563215Y-93592167D01*
X142461072Y-93838761D01*
X142409000Y-94100544D01*
X142409000Y-94367456D01*
X142461072Y-94629239D01*
X142563215Y-94875833D01*
X142575621Y-94894400D01*
X142343714Y-94894400D01*
X142087600Y-94638286D01*
X142087600Y-92746605D01*
X142087762Y-92746497D01*
X142204699Y-92629560D01*
X145548045Y-92629560D01*
X145609932Y-92865368D01*
X145851790Y-92978266D01*
X146111027Y-93041811D01*
X146377680Y-93053561D01*
X146641501Y-93013063D01*
X146892353Y-92921875D01*
X146998068Y-92865368D01*
X147059955Y-92629560D01*
X146304000Y-91873605D01*
X145548045Y-92629560D01*
X142204699Y-92629560D01*
X142276497Y-92557762D01*
X142424785Y-92335833D01*
X142526928Y-92089239D01*
X142579000Y-91827456D01*
X142579000Y-91767680D01*
X144944439Y-91767680D01*
X144984937Y-92031501D01*
X145076125Y-92282353D01*
X145132632Y-92388068D01*
X145368440Y-92449955D01*
X146124395Y-91694000D01*
X145368440Y-90938045D01*
X145132632Y-90999932D01*
X145019734Y-91241790D01*
X144956189Y-91501027D01*
X144944439Y-91767680D01*
X142579000Y-91767680D01*
X142579000Y-91560544D01*
X142526928Y-91298761D01*
X142424785Y-91052167D01*
X142276497Y-90830238D01*
X142204699Y-90758440D01*
X145548045Y-90758440D01*
X146304000Y-91514395D01*
X147059955Y-90758440D01*
X146998068Y-90522632D01*
X146756210Y-90409734D01*
X146496973Y-90346189D01*
X146230320Y-90334439D01*
X145966499Y-90374937D01*
X145715647Y-90466125D01*
X145609932Y-90522632D01*
X145548045Y-90758440D01*
X142204699Y-90758440D01*
X142087762Y-90641503D01*
X141865833Y-90493215D01*
X141619239Y-90391072D01*
X141357456Y-90339000D01*
X141090544Y-90339000D01*
X141090352Y-90339038D01*
X139558265Y-88806952D01*
X139531213Y-88773989D01*
X139399713Y-88666070D01*
X139249685Y-88585879D01*
X139111630Y-88544000D01*
X148050527Y-88544000D01*
X147535499Y-89059029D01*
G36*
X134426188Y-88563119D02*
G01*
X134413928Y-88687601D01*
X134417000Y-89101851D01*
X134575750Y-89260601D01*
X135500000Y-89260601D01*
X135500000Y-89240601D01*
X135754000Y-89240601D01*
X135754000Y-89260601D01*
X135774000Y-89260601D01*
X135774000Y-89514601D01*
X135754000Y-89514601D01*
X135754000Y-89534601D01*
X135500000Y-89534601D01*
X135500000Y-89514601D01*
X134575750Y-89514601D01*
X134417000Y-89673351D01*
X134413928Y-90087601D01*
X134417040Y-90119200D01*
X133375523Y-90119200D01*
X133335600Y-90115268D01*
X133295677Y-90119200D01*
X133176263Y-90130961D01*
X133023050Y-90177438D01*
X132881848Y-90252912D01*
X132758083Y-90354483D01*
X132732633Y-90385494D01*
X131701022Y-91417105D01*
X131653185Y-91358815D01*
X131556494Y-91279463D01*
X131446180Y-91220498D01*
X131435265Y-91217187D01*
X131482030Y-91170422D01*
X131366082Y-91054474D01*
X131620261Y-90970792D01*
X131751158Y-90698225D01*
X131826365Y-90405358D01*
X131842991Y-90103447D01*
X131800397Y-89804093D01*
X131700222Y-89518801D01*
X131620261Y-89369208D01*
X131366080Y-89285525D01*
X130481605Y-90170000D01*
X130495748Y-90184143D01*
X130316143Y-90363748D01*
X130302000Y-90349605D01*
X130287858Y-90363748D01*
X130108253Y-90184143D01*
X130122395Y-90170000D01*
X129237920Y-89285525D01*
X129184000Y-89303277D01*
X129184000Y-89105920D01*
X129417525Y-89105920D01*
X130302000Y-89990395D01*
X131186475Y-89105920D01*
X131102792Y-88851739D01*
X130830225Y-88720842D01*
X130537358Y-88645635D01*
X130235447Y-88629009D01*
X129936093Y-88671603D01*
X129650801Y-88771778D01*
X129501208Y-88851739D01*
X129417525Y-89105920D01*
X129184000Y-89105920D01*
X129184000Y-88544000D01*
X134431988Y-88544000D01*
X134426188Y-88563119D01*
G37*
X134426188Y-88563119D02*
X134413928Y-88687601D01*
X134417000Y-89101851D01*
X134575750Y-89260601D01*
X135500000Y-89260601D01*
X135500000Y-89240601D01*
X135754000Y-89240601D01*
X135754000Y-89260601D01*
X135774000Y-89260601D01*
X135774000Y-89514601D01*
X135754000Y-89514601D01*
X135754000Y-89534601D01*
X135500000Y-89534601D01*
X135500000Y-89514601D01*
X134575750Y-89514601D01*
X134417000Y-89673351D01*
X134413928Y-90087601D01*
X134417040Y-90119200D01*
X133375523Y-90119200D01*
X133335600Y-90115268D01*
X133295677Y-90119200D01*
X133176263Y-90130961D01*
X133023050Y-90177438D01*
X132881848Y-90252912D01*
X132758083Y-90354483D01*
X132732633Y-90385494D01*
X131701022Y-91417105D01*
X131653185Y-91358815D01*
X131556494Y-91279463D01*
X131446180Y-91220498D01*
X131435265Y-91217187D01*
X131482030Y-91170422D01*
X131366082Y-91054474D01*
X131620261Y-90970792D01*
X131751158Y-90698225D01*
X131826365Y-90405358D01*
X131842991Y-90103447D01*
X131800397Y-89804093D01*
X131700222Y-89518801D01*
X131620261Y-89369208D01*
X131366080Y-89285525D01*
X130481605Y-90170000D01*
X130495748Y-90184143D01*
X130316143Y-90363748D01*
X130302000Y-90349605D01*
X130287858Y-90363748D01*
X130108253Y-90184143D01*
X130122395Y-90170000D01*
X129237920Y-89285525D01*
X129184000Y-89303277D01*
X129184000Y-89105920D01*
X129417525Y-89105920D01*
X130302000Y-89990395D01*
X131186475Y-89105920D01*
X131102792Y-88851739D01*
X130830225Y-88720842D01*
X130537358Y-88645635D01*
X130235447Y-88629009D01*
X129936093Y-88671603D01*
X129650801Y-88771778D01*
X129501208Y-88851739D01*
X129417525Y-89105920D01*
X129184000Y-89105920D01*
X129184000Y-88544000D01*
X134431988Y-88544000D01*
X134426188Y-88563119D01*
M02*
