G04 #@! TF.GenerationSoftware,KiCad,Pcbnew,5.1.5-52549c5~86~ubuntu16.04.1*
G04 #@! TF.CreationDate,2020-07-27T16:21:35+05:30*
G04 #@! TF.ProjectId,IR_Sensor_Module_V1.0,49525f53-656e-4736-9f72-5f4d6f64756c,V1.0*
G04 #@! TF.SameCoordinates,Original*
G04 #@! TF.FileFunction,Copper,L2,Bot*
G04 #@! TF.FilePolarity,Positive*
%FSLAX46Y46*%
G04 Gerber Fmt 4.6, Leading zero omitted, Abs format (unit mm)*
G04 Created by KiCad (PCBNEW 5.1.5-52549c5~86~ubuntu16.04.1) date 2020-07-27 16:21:35*
%MOMM*%
%LPD*%
G04 APERTURE LIST*
%ADD10C,0.300000*%
%ADD11C,0.002540*%
%ADD12C,1.800000*%
%ADD13R,1.800000X1.800000*%
%ADD14R,1.700000X1.700000*%
%ADD15O,1.700000X1.700000*%
%ADD16C,1.440000*%
%ADD17C,0.762000*%
%ADD18C,0.457200*%
%ADD19C,0.355600*%
%ADD20C,0.254000*%
G04 APERTURE END LIST*
D10*
X157479714Y-99762571D02*
X156979714Y-101262571D01*
X156479714Y-99762571D01*
X155194000Y-101262571D02*
X156051142Y-101262571D01*
X155622571Y-101262571D02*
X155622571Y-99762571D01*
X155765428Y-99976857D01*
X155908285Y-100119714D01*
X156051142Y-100191142D01*
X154551142Y-101119714D02*
X154479714Y-101191142D01*
X154551142Y-101262571D01*
X154622571Y-101191142D01*
X154551142Y-101119714D01*
X154551142Y-101262571D01*
X153551142Y-99762571D02*
X153408285Y-99762571D01*
X153265428Y-99834000D01*
X153194000Y-99905428D01*
X153122571Y-100048285D01*
X153051142Y-100334000D01*
X153051142Y-100691142D01*
X153122571Y-100976857D01*
X153194000Y-101119714D01*
X153265428Y-101191142D01*
X153408285Y-101262571D01*
X153551142Y-101262571D01*
X153694000Y-101191142D01*
X153765428Y-101119714D01*
X153836857Y-100976857D01*
X153908285Y-100691142D01*
X153908285Y-100334000D01*
X153836857Y-100048285D01*
X153765428Y-99905428D01*
X153694000Y-99834000D01*
X153551142Y-99762571D01*
X143045142Y-101191142D02*
X143188000Y-101262571D01*
X143473714Y-101262571D01*
X143616571Y-101191142D01*
X143688000Y-101048285D01*
X143688000Y-100476857D01*
X143616571Y-100334000D01*
X143473714Y-100262571D01*
X143188000Y-100262571D01*
X143045142Y-100334000D01*
X142973714Y-100476857D01*
X142973714Y-100619714D01*
X143688000Y-100762571D01*
X142116571Y-101262571D02*
X142259428Y-101191142D01*
X142330857Y-101048285D01*
X142330857Y-99762571D01*
X140973714Y-101191142D02*
X141116571Y-101262571D01*
X141402285Y-101262571D01*
X141545142Y-101191142D01*
X141616571Y-101048285D01*
X141616571Y-100476857D01*
X141545142Y-100334000D01*
X141402285Y-100262571D01*
X141116571Y-100262571D01*
X140973714Y-100334000D01*
X140902285Y-100476857D01*
X140902285Y-100619714D01*
X141616571Y-100762571D01*
X140259428Y-101262571D02*
X140259428Y-100262571D01*
X140259428Y-100405428D02*
X140188000Y-100334000D01*
X140045142Y-100262571D01*
X139830857Y-100262571D01*
X139688000Y-100334000D01*
X139616571Y-100476857D01*
X139616571Y-101262571D01*
X139616571Y-100476857D02*
X139545142Y-100334000D01*
X139402285Y-100262571D01*
X139188000Y-100262571D01*
X139045142Y-100334000D01*
X138973714Y-100476857D01*
X138973714Y-101262571D01*
X137688000Y-101191142D02*
X137830857Y-101262571D01*
X138116571Y-101262571D01*
X138259428Y-101191142D01*
X138330857Y-101048285D01*
X138330857Y-100476857D01*
X138259428Y-100334000D01*
X138116571Y-100262571D01*
X137830857Y-100262571D01*
X137688000Y-100334000D01*
X137616571Y-100476857D01*
X137616571Y-100619714D01*
X138330857Y-100762571D01*
X136973714Y-100262571D02*
X136973714Y-101262571D01*
X136973714Y-100405428D02*
X136902285Y-100334000D01*
X136759428Y-100262571D01*
X136545142Y-100262571D01*
X136402285Y-100334000D01*
X136330857Y-100476857D01*
X136330857Y-101262571D01*
X135830857Y-100262571D02*
X135259428Y-100262571D01*
X135616571Y-99762571D02*
X135616571Y-101048285D01*
X135545142Y-101191142D01*
X135402285Y-101262571D01*
X135259428Y-101262571D01*
X134902285Y-100262571D02*
X134116571Y-100262571D01*
X134902285Y-101262571D01*
X134116571Y-101262571D01*
D11*
G36*
X132237480Y-95892620D02*
G01*
X132247640Y-95887540D01*
X132270500Y-95872300D01*
X132303520Y-95851980D01*
X132344160Y-95824040D01*
X132382260Y-95798640D01*
X132415280Y-95775780D01*
X132438140Y-95760540D01*
X132448300Y-95755460D01*
X132453380Y-95758000D01*
X132471160Y-95768160D01*
X132499100Y-95780860D01*
X132514340Y-95788480D01*
X132539740Y-95801180D01*
X132552440Y-95803720D01*
X132554980Y-95798640D01*
X132565140Y-95780860D01*
X132577840Y-95747840D01*
X132598160Y-95704660D01*
X132618480Y-95653860D01*
X132641340Y-95597980D01*
X132664200Y-95542100D01*
X132687060Y-95488760D01*
X132707380Y-95440500D01*
X132722620Y-95402400D01*
X132732780Y-95374460D01*
X132737860Y-95364300D01*
X132735320Y-95361760D01*
X132722620Y-95349060D01*
X132702300Y-95333820D01*
X132654040Y-95293180D01*
X132608320Y-95234760D01*
X132577840Y-95168720D01*
X132570220Y-95095060D01*
X132577840Y-95029020D01*
X132603240Y-94965520D01*
X132648960Y-94904560D01*
X132704840Y-94861380D01*
X132770880Y-94833440D01*
X132842000Y-94825820D01*
X132910580Y-94833440D01*
X132976620Y-94858840D01*
X133037580Y-94904560D01*
X133060440Y-94932500D01*
X133096000Y-94993460D01*
X133116320Y-95054420D01*
X133116320Y-95069660D01*
X133113780Y-95140780D01*
X133093460Y-95209360D01*
X133057900Y-95267780D01*
X133004560Y-95318580D01*
X132999480Y-95323660D01*
X132974080Y-95341440D01*
X132958840Y-95351600D01*
X132946140Y-95361760D01*
X133035040Y-95577660D01*
X133050280Y-95613220D01*
X133075680Y-95671640D01*
X133096000Y-95722440D01*
X133113780Y-95763080D01*
X133126480Y-95788480D01*
X133131560Y-95801180D01*
X133139180Y-95801180D01*
X133154420Y-95796100D01*
X133184900Y-95780860D01*
X133205220Y-95770700D01*
X133228080Y-95760540D01*
X133238240Y-95755460D01*
X133248400Y-95760540D01*
X133268720Y-95775780D01*
X133301740Y-95796100D01*
X133339840Y-95821500D01*
X133375400Y-95846900D01*
X133410960Y-95869760D01*
X133433820Y-95885000D01*
X133446520Y-95892620D01*
X133449060Y-95892620D01*
X133459220Y-95885000D01*
X133479540Y-95869760D01*
X133507480Y-95841820D01*
X133548120Y-95801180D01*
X133555740Y-95796100D01*
X133588760Y-95760540D01*
X133616700Y-95730060D01*
X133637020Y-95709740D01*
X133642100Y-95702120D01*
X133637020Y-95689420D01*
X133621780Y-95664020D01*
X133598920Y-95631000D01*
X133570980Y-95590360D01*
X133499860Y-95486220D01*
X133540500Y-95389700D01*
X133550660Y-95359220D01*
X133565900Y-95323660D01*
X133578600Y-95298260D01*
X133583680Y-95285560D01*
X133593840Y-95283020D01*
X133621780Y-95275400D01*
X133659880Y-95267780D01*
X133705600Y-95260160D01*
X133751320Y-95250000D01*
X133789420Y-95242380D01*
X133819900Y-95237300D01*
X133832600Y-95234760D01*
X133835140Y-95232220D01*
X133837680Y-95227140D01*
X133840220Y-95214440D01*
X133840220Y-95189040D01*
X133840220Y-95150940D01*
X133840220Y-95095060D01*
X133840220Y-95089980D01*
X133840220Y-95036640D01*
X133840220Y-94996000D01*
X133837680Y-94970600D01*
X133835140Y-94960440D01*
X133822440Y-94955360D01*
X133794500Y-94950280D01*
X133756400Y-94942660D01*
X133708140Y-94932500D01*
X133705600Y-94932500D01*
X133657340Y-94924880D01*
X133619240Y-94914720D01*
X133591300Y-94909640D01*
X133578600Y-94904560D01*
X133576060Y-94902020D01*
X133565900Y-94884240D01*
X133553200Y-94853760D01*
X133537960Y-94818200D01*
X133522720Y-94782640D01*
X133507480Y-94747080D01*
X133499860Y-94724220D01*
X133497320Y-94711520D01*
X133504940Y-94701360D01*
X133520180Y-94675960D01*
X133543040Y-94642940D01*
X133570980Y-94602300D01*
X133573520Y-94597220D01*
X133601460Y-94559120D01*
X133621780Y-94523560D01*
X133637020Y-94500700D01*
X133642100Y-94490540D01*
X133642100Y-94488000D01*
X133634480Y-94477840D01*
X133614160Y-94454980D01*
X133583680Y-94424500D01*
X133548120Y-94388940D01*
X133537960Y-94378780D01*
X133499860Y-94340680D01*
X133471920Y-94315280D01*
X133454140Y-94302580D01*
X133446520Y-94297500D01*
X133446520Y-94300040D01*
X133433820Y-94305120D01*
X133408420Y-94322900D01*
X133375400Y-94345760D01*
X133334760Y-94373700D01*
X133332220Y-94376240D01*
X133291580Y-94401640D01*
X133258560Y-94424500D01*
X133235700Y-94439740D01*
X133225540Y-94447360D01*
X133223000Y-94447360D01*
X133207760Y-94442280D01*
X133177280Y-94432120D01*
X133144260Y-94419420D01*
X133106160Y-94404180D01*
X133073140Y-94388940D01*
X133047740Y-94378780D01*
X133035040Y-94371160D01*
X133029960Y-94355920D01*
X133024880Y-94325440D01*
X133014720Y-94284800D01*
X133007100Y-94236540D01*
X133004560Y-94228920D01*
X132996940Y-94180660D01*
X132989320Y-94142560D01*
X132981700Y-94114620D01*
X132979160Y-94101920D01*
X132974080Y-94101920D01*
X132948680Y-94099380D01*
X132913120Y-94099380D01*
X132869940Y-94099380D01*
X132826760Y-94099380D01*
X132783580Y-94099380D01*
X132745480Y-94101920D01*
X132720080Y-94101920D01*
X132707380Y-94104460D01*
X132707380Y-94107000D01*
X132702300Y-94119700D01*
X132697220Y-94150180D01*
X132687060Y-94190820D01*
X132679440Y-94241620D01*
X132676900Y-94249240D01*
X132669280Y-94297500D01*
X132659120Y-94335600D01*
X132654040Y-94363540D01*
X132651500Y-94373700D01*
X132646420Y-94376240D01*
X132628640Y-94383860D01*
X132595620Y-94396560D01*
X132554980Y-94414340D01*
X132463540Y-94449900D01*
X132351780Y-94373700D01*
X132341620Y-94366080D01*
X132300980Y-94338140D01*
X132267960Y-94317820D01*
X132245100Y-94302580D01*
X132234940Y-94297500D01*
X132224780Y-94307660D01*
X132201920Y-94327980D01*
X132171440Y-94358460D01*
X132135880Y-94391480D01*
X132110480Y-94419420D01*
X132080000Y-94449900D01*
X132059680Y-94470220D01*
X132049520Y-94485460D01*
X132044440Y-94493080D01*
X132046980Y-94498160D01*
X132052060Y-94510860D01*
X132069840Y-94533720D01*
X132092700Y-94569280D01*
X132120640Y-94607380D01*
X132143500Y-94642940D01*
X132166360Y-94678500D01*
X132181600Y-94706440D01*
X132189220Y-94719140D01*
X132186680Y-94724220D01*
X132179060Y-94747080D01*
X132166360Y-94780100D01*
X132148580Y-94820740D01*
X132110480Y-94909640D01*
X132052060Y-94919800D01*
X132016500Y-94927420D01*
X131965700Y-94935040D01*
X131919980Y-94945200D01*
X131846320Y-94960440D01*
X131843780Y-95227140D01*
X131853940Y-95232220D01*
X131866640Y-95237300D01*
X131892040Y-95242380D01*
X131932680Y-95250000D01*
X131978400Y-95257620D01*
X132016500Y-95265240D01*
X132057140Y-95272860D01*
X132085080Y-95277940D01*
X132097780Y-95280480D01*
X132100320Y-95285560D01*
X132110480Y-95305880D01*
X132125720Y-95336360D01*
X132140960Y-95371920D01*
X132156200Y-95410020D01*
X132168900Y-95445580D01*
X132179060Y-95470980D01*
X132184140Y-95486220D01*
X132179060Y-95496380D01*
X132163820Y-95519240D01*
X132140960Y-95552260D01*
X132115560Y-95590360D01*
X132087620Y-95631000D01*
X132064760Y-95664020D01*
X132049520Y-95689420D01*
X132041900Y-95699580D01*
X132046980Y-95707200D01*
X132062220Y-95724980D01*
X132090160Y-95755460D01*
X132135880Y-95801180D01*
X132143500Y-95806260D01*
X132176520Y-95841820D01*
X132207000Y-95867220D01*
X132227320Y-95887540D01*
X132237480Y-95892620D01*
G37*
X132237480Y-95892620D02*
X132247640Y-95887540D01*
X132270500Y-95872300D01*
X132303520Y-95851980D01*
X132344160Y-95824040D01*
X132382260Y-95798640D01*
X132415280Y-95775780D01*
X132438140Y-95760540D01*
X132448300Y-95755460D01*
X132453380Y-95758000D01*
X132471160Y-95768160D01*
X132499100Y-95780860D01*
X132514340Y-95788480D01*
X132539740Y-95801180D01*
X132552440Y-95803720D01*
X132554980Y-95798640D01*
X132565140Y-95780860D01*
X132577840Y-95747840D01*
X132598160Y-95704660D01*
X132618480Y-95653860D01*
X132641340Y-95597980D01*
X132664200Y-95542100D01*
X132687060Y-95488760D01*
X132707380Y-95440500D01*
X132722620Y-95402400D01*
X132732780Y-95374460D01*
X132737860Y-95364300D01*
X132735320Y-95361760D01*
X132722620Y-95349060D01*
X132702300Y-95333820D01*
X132654040Y-95293180D01*
X132608320Y-95234760D01*
X132577840Y-95168720D01*
X132570220Y-95095060D01*
X132577840Y-95029020D01*
X132603240Y-94965520D01*
X132648960Y-94904560D01*
X132704840Y-94861380D01*
X132770880Y-94833440D01*
X132842000Y-94825820D01*
X132910580Y-94833440D01*
X132976620Y-94858840D01*
X133037580Y-94904560D01*
X133060440Y-94932500D01*
X133096000Y-94993460D01*
X133116320Y-95054420D01*
X133116320Y-95069660D01*
X133113780Y-95140780D01*
X133093460Y-95209360D01*
X133057900Y-95267780D01*
X133004560Y-95318580D01*
X132999480Y-95323660D01*
X132974080Y-95341440D01*
X132958840Y-95351600D01*
X132946140Y-95361760D01*
X133035040Y-95577660D01*
X133050280Y-95613220D01*
X133075680Y-95671640D01*
X133096000Y-95722440D01*
X133113780Y-95763080D01*
X133126480Y-95788480D01*
X133131560Y-95801180D01*
X133139180Y-95801180D01*
X133154420Y-95796100D01*
X133184900Y-95780860D01*
X133205220Y-95770700D01*
X133228080Y-95760540D01*
X133238240Y-95755460D01*
X133248400Y-95760540D01*
X133268720Y-95775780D01*
X133301740Y-95796100D01*
X133339840Y-95821500D01*
X133375400Y-95846900D01*
X133410960Y-95869760D01*
X133433820Y-95885000D01*
X133446520Y-95892620D01*
X133449060Y-95892620D01*
X133459220Y-95885000D01*
X133479540Y-95869760D01*
X133507480Y-95841820D01*
X133548120Y-95801180D01*
X133555740Y-95796100D01*
X133588760Y-95760540D01*
X133616700Y-95730060D01*
X133637020Y-95709740D01*
X133642100Y-95702120D01*
X133637020Y-95689420D01*
X133621780Y-95664020D01*
X133598920Y-95631000D01*
X133570980Y-95590360D01*
X133499860Y-95486220D01*
X133540500Y-95389700D01*
X133550660Y-95359220D01*
X133565900Y-95323660D01*
X133578600Y-95298260D01*
X133583680Y-95285560D01*
X133593840Y-95283020D01*
X133621780Y-95275400D01*
X133659880Y-95267780D01*
X133705600Y-95260160D01*
X133751320Y-95250000D01*
X133789420Y-95242380D01*
X133819900Y-95237300D01*
X133832600Y-95234760D01*
X133835140Y-95232220D01*
X133837680Y-95227140D01*
X133840220Y-95214440D01*
X133840220Y-95189040D01*
X133840220Y-95150940D01*
X133840220Y-95095060D01*
X133840220Y-95089980D01*
X133840220Y-95036640D01*
X133840220Y-94996000D01*
X133837680Y-94970600D01*
X133835140Y-94960440D01*
X133822440Y-94955360D01*
X133794500Y-94950280D01*
X133756400Y-94942660D01*
X133708140Y-94932500D01*
X133705600Y-94932500D01*
X133657340Y-94924880D01*
X133619240Y-94914720D01*
X133591300Y-94909640D01*
X133578600Y-94904560D01*
X133576060Y-94902020D01*
X133565900Y-94884240D01*
X133553200Y-94853760D01*
X133537960Y-94818200D01*
X133522720Y-94782640D01*
X133507480Y-94747080D01*
X133499860Y-94724220D01*
X133497320Y-94711520D01*
X133504940Y-94701360D01*
X133520180Y-94675960D01*
X133543040Y-94642940D01*
X133570980Y-94602300D01*
X133573520Y-94597220D01*
X133601460Y-94559120D01*
X133621780Y-94523560D01*
X133637020Y-94500700D01*
X133642100Y-94490540D01*
X133642100Y-94488000D01*
X133634480Y-94477840D01*
X133614160Y-94454980D01*
X133583680Y-94424500D01*
X133548120Y-94388940D01*
X133537960Y-94378780D01*
X133499860Y-94340680D01*
X133471920Y-94315280D01*
X133454140Y-94302580D01*
X133446520Y-94297500D01*
X133446520Y-94300040D01*
X133433820Y-94305120D01*
X133408420Y-94322900D01*
X133375400Y-94345760D01*
X133334760Y-94373700D01*
X133332220Y-94376240D01*
X133291580Y-94401640D01*
X133258560Y-94424500D01*
X133235700Y-94439740D01*
X133225540Y-94447360D01*
X133223000Y-94447360D01*
X133207760Y-94442280D01*
X133177280Y-94432120D01*
X133144260Y-94419420D01*
X133106160Y-94404180D01*
X133073140Y-94388940D01*
X133047740Y-94378780D01*
X133035040Y-94371160D01*
X133029960Y-94355920D01*
X133024880Y-94325440D01*
X133014720Y-94284800D01*
X133007100Y-94236540D01*
X133004560Y-94228920D01*
X132996940Y-94180660D01*
X132989320Y-94142560D01*
X132981700Y-94114620D01*
X132979160Y-94101920D01*
X132974080Y-94101920D01*
X132948680Y-94099380D01*
X132913120Y-94099380D01*
X132869940Y-94099380D01*
X132826760Y-94099380D01*
X132783580Y-94099380D01*
X132745480Y-94101920D01*
X132720080Y-94101920D01*
X132707380Y-94104460D01*
X132707380Y-94107000D01*
X132702300Y-94119700D01*
X132697220Y-94150180D01*
X132687060Y-94190820D01*
X132679440Y-94241620D01*
X132676900Y-94249240D01*
X132669280Y-94297500D01*
X132659120Y-94335600D01*
X132654040Y-94363540D01*
X132651500Y-94373700D01*
X132646420Y-94376240D01*
X132628640Y-94383860D01*
X132595620Y-94396560D01*
X132554980Y-94414340D01*
X132463540Y-94449900D01*
X132351780Y-94373700D01*
X132341620Y-94366080D01*
X132300980Y-94338140D01*
X132267960Y-94317820D01*
X132245100Y-94302580D01*
X132234940Y-94297500D01*
X132224780Y-94307660D01*
X132201920Y-94327980D01*
X132171440Y-94358460D01*
X132135880Y-94391480D01*
X132110480Y-94419420D01*
X132080000Y-94449900D01*
X132059680Y-94470220D01*
X132049520Y-94485460D01*
X132044440Y-94493080D01*
X132046980Y-94498160D01*
X132052060Y-94510860D01*
X132069840Y-94533720D01*
X132092700Y-94569280D01*
X132120640Y-94607380D01*
X132143500Y-94642940D01*
X132166360Y-94678500D01*
X132181600Y-94706440D01*
X132189220Y-94719140D01*
X132186680Y-94724220D01*
X132179060Y-94747080D01*
X132166360Y-94780100D01*
X132148580Y-94820740D01*
X132110480Y-94909640D01*
X132052060Y-94919800D01*
X132016500Y-94927420D01*
X131965700Y-94935040D01*
X131919980Y-94945200D01*
X131846320Y-94960440D01*
X131843780Y-95227140D01*
X131853940Y-95232220D01*
X131866640Y-95237300D01*
X131892040Y-95242380D01*
X131932680Y-95250000D01*
X131978400Y-95257620D01*
X132016500Y-95265240D01*
X132057140Y-95272860D01*
X132085080Y-95277940D01*
X132097780Y-95280480D01*
X132100320Y-95285560D01*
X132110480Y-95305880D01*
X132125720Y-95336360D01*
X132140960Y-95371920D01*
X132156200Y-95410020D01*
X132168900Y-95445580D01*
X132179060Y-95470980D01*
X132184140Y-95486220D01*
X132179060Y-95496380D01*
X132163820Y-95519240D01*
X132140960Y-95552260D01*
X132115560Y-95590360D01*
X132087620Y-95631000D01*
X132064760Y-95664020D01*
X132049520Y-95689420D01*
X132041900Y-95699580D01*
X132046980Y-95707200D01*
X132062220Y-95724980D01*
X132090160Y-95755460D01*
X132135880Y-95801180D01*
X132143500Y-95806260D01*
X132176520Y-95841820D01*
X132207000Y-95867220D01*
X132227320Y-95887540D01*
X132237480Y-95892620D01*
D12*
X130302000Y-90170000D03*
D13*
X130302000Y-92710000D03*
X130302000Y-97028000D03*
D12*
X130302000Y-99568000D03*
D14*
X159004000Y-97282000D03*
D15*
X159004000Y-94742000D03*
X159004000Y-92202000D03*
D16*
X146304000Y-91694000D03*
X143764000Y-94234000D03*
X141224000Y-91694000D03*
D17*
X133624399Y-89387601D03*
X133858000Y-92964000D03*
X145042609Y-96758771D03*
X139446000Y-93802000D03*
X148082000Y-97028000D03*
X138938000Y-97790000D03*
X148336000Y-100838000D03*
X149961609Y-89509609D03*
X146558000Y-94234000D03*
X148336000Y-99060000D03*
D18*
X133858000Y-89621202D02*
X133624399Y-89387601D01*
X133858000Y-92964000D02*
X133858000Y-89621202D01*
X133858000Y-92964000D02*
X135382000Y-92964000D01*
X135382000Y-92964000D02*
X138938000Y-89408000D01*
X144018000Y-89408000D02*
X146304000Y-91694000D01*
X138938000Y-89408000D02*
X144018000Y-89408000D01*
X134238999Y-93344999D02*
X134238999Y-94360999D01*
X133858000Y-92964000D02*
X134238999Y-93344999D01*
X134238999Y-94360999D02*
X135890000Y-96012000D01*
X135890000Y-96012000D02*
X140970000Y-96012000D01*
X140970000Y-96012000D02*
X141478000Y-96012000D01*
X142903373Y-96012001D02*
X143665372Y-96774000D01*
X141478000Y-96012000D02*
X142903373Y-96012001D01*
X145027380Y-96774000D02*
X145042609Y-96758771D01*
X143665372Y-96774000D02*
X145027380Y-96774000D01*
X156972000Y-89916000D02*
X156972000Y-93980000D01*
X157734000Y-94742000D02*
X159004000Y-94742000D01*
X155702000Y-88646000D02*
X156972000Y-89916000D01*
X146304000Y-91694000D02*
X147023999Y-90974001D01*
X147023999Y-90974001D02*
X147023999Y-90212001D01*
X156972000Y-93980000D02*
X157734000Y-94742000D01*
X148590000Y-88646000D02*
X155702000Y-88646000D01*
X147023999Y-90212001D02*
X148590000Y-88646000D01*
D19*
X143869931Y-95945969D02*
X146999969Y-95945969D01*
X146999969Y-95945969D02*
X147701001Y-96647001D01*
X143275552Y-95351590D02*
X143869931Y-95945969D01*
X147701001Y-96647001D02*
X148082000Y-97028000D01*
X139446000Y-93802000D02*
X140995590Y-95351590D01*
X140995590Y-95351590D02*
X143275552Y-95351590D01*
X149961609Y-99212391D02*
X149961609Y-89509609D01*
X148336000Y-100838000D02*
X149961609Y-99212391D01*
D18*
X145796000Y-97790000D02*
X147066000Y-99060000D01*
X138938000Y-97790000D02*
X145796000Y-97790000D01*
X147066000Y-100330000D02*
X147574000Y-100838000D01*
X147574000Y-100838000D02*
X148336000Y-100838000D01*
X147066000Y-99060000D02*
X147066000Y-100330000D01*
D19*
X146938999Y-94614999D02*
X148208999Y-94614999D01*
X146558000Y-94234000D02*
X146938999Y-94614999D01*
X148208999Y-94614999D02*
X149352000Y-95758000D01*
X149352000Y-95758000D02*
X149352000Y-98044000D01*
X149352000Y-98044000D02*
X148336000Y-99060000D01*
D20*
G36*
X159864000Y-90990640D02*
G01*
X159707411Y-90886010D01*
X159437158Y-90774068D01*
X159150260Y-90717000D01*
X158857740Y-90717000D01*
X158570842Y-90774068D01*
X158300589Y-90886010D01*
X158057368Y-91048525D01*
X157850525Y-91255368D01*
X157688010Y-91498589D01*
X157576068Y-91768842D01*
X157519000Y-92055740D01*
X157519000Y-92348260D01*
X157576068Y-92635158D01*
X157688010Y-92905411D01*
X157850525Y-93148632D01*
X158057368Y-93355475D01*
X158239534Y-93477195D01*
X158122645Y-93546822D01*
X157906412Y-93741731D01*
X157732359Y-93975080D01*
X157607175Y-94237901D01*
X157562524Y-94385110D01*
X157683845Y-94615000D01*
X158877000Y-94615000D01*
X158877000Y-94595000D01*
X159131000Y-94595000D01*
X159131000Y-94615000D01*
X159151000Y-94615000D01*
X159151000Y-94869000D01*
X159131000Y-94869000D01*
X159131000Y-94889000D01*
X158877000Y-94889000D01*
X158877000Y-94869000D01*
X157683845Y-94869000D01*
X157562524Y-95098890D01*
X157607175Y-95246099D01*
X157732359Y-95508920D01*
X157906412Y-95742269D01*
X157990466Y-95818034D01*
X157909820Y-95842498D01*
X157799506Y-95901463D01*
X157702815Y-95980815D01*
X157623463Y-96077506D01*
X157564498Y-96187820D01*
X157528188Y-96307518D01*
X157515928Y-96432000D01*
X157515928Y-98132000D01*
X157528188Y-98256482D01*
X157564498Y-98376180D01*
X157623463Y-98486494D01*
X157702815Y-98583185D01*
X157799506Y-98662537D01*
X157909820Y-98721502D01*
X158029518Y-98757812D01*
X158154000Y-98770072D01*
X159854000Y-98770072D01*
X159864001Y-98769087D01*
X159864001Y-101224000D01*
X158407572Y-101224000D01*
X158407572Y-98794000D01*
X151980429Y-98794000D01*
X151980429Y-101224000D01*
X149275824Y-101224000D01*
X149312956Y-101134356D01*
X149343705Y-100979767D01*
X150508116Y-99815357D01*
X150539126Y-99789908D01*
X150597168Y-99719184D01*
X150640697Y-99666144D01*
X150707450Y-99541256D01*
X150716171Y-99524941D01*
X150762648Y-99371728D01*
X150774409Y-99252314D01*
X150774409Y-99252312D01*
X150778341Y-99212392D01*
X150774409Y-99172471D01*
X150774409Y-94521872D01*
X151435000Y-94521872D01*
X151435000Y-94962128D01*
X151520890Y-95393925D01*
X151689369Y-95800669D01*
X151933962Y-96166729D01*
X152245271Y-96478038D01*
X152611331Y-96722631D01*
X153018075Y-96891110D01*
X153449872Y-96977000D01*
X153890128Y-96977000D01*
X154321925Y-96891110D01*
X154728669Y-96722631D01*
X155094729Y-96478038D01*
X155406038Y-96166729D01*
X155650631Y-95800669D01*
X155819110Y-95393925D01*
X155905000Y-94962128D01*
X155905000Y-94521872D01*
X155819110Y-94090075D01*
X155650631Y-93683331D01*
X155406038Y-93317271D01*
X155094729Y-93005962D01*
X154728669Y-92761369D01*
X154321925Y-92592890D01*
X153890128Y-92507000D01*
X153449872Y-92507000D01*
X153018075Y-92592890D01*
X152611331Y-92761369D01*
X152245271Y-93005962D01*
X151933962Y-93317271D01*
X151689369Y-93683331D01*
X151520890Y-94090075D01*
X151435000Y-94521872D01*
X150774409Y-94521872D01*
X150774409Y-90121920D01*
X150861977Y-89990865D01*
X150938565Y-89805965D01*
X150977609Y-89609676D01*
X150977609Y-89409542D01*
X150938565Y-89213253D01*
X150861977Y-89028353D01*
X150750788Y-88861947D01*
X150609271Y-88720430D01*
X150442865Y-88609241D01*
X150285359Y-88544000D01*
X159864000Y-88544000D01*
X159864000Y-90990640D01*
G37*
X159864000Y-90990640D02*
X159707411Y-90886010D01*
X159437158Y-90774068D01*
X159150260Y-90717000D01*
X158857740Y-90717000D01*
X158570842Y-90774068D01*
X158300589Y-90886010D01*
X158057368Y-91048525D01*
X157850525Y-91255368D01*
X157688010Y-91498589D01*
X157576068Y-91768842D01*
X157519000Y-92055740D01*
X157519000Y-92348260D01*
X157576068Y-92635158D01*
X157688010Y-92905411D01*
X157850525Y-93148632D01*
X158057368Y-93355475D01*
X158239534Y-93477195D01*
X158122645Y-93546822D01*
X157906412Y-93741731D01*
X157732359Y-93975080D01*
X157607175Y-94237901D01*
X157562524Y-94385110D01*
X157683845Y-94615000D01*
X158877000Y-94615000D01*
X158877000Y-94595000D01*
X159131000Y-94595000D01*
X159131000Y-94615000D01*
X159151000Y-94615000D01*
X159151000Y-94869000D01*
X159131000Y-94869000D01*
X159131000Y-94889000D01*
X158877000Y-94889000D01*
X158877000Y-94869000D01*
X157683845Y-94869000D01*
X157562524Y-95098890D01*
X157607175Y-95246099D01*
X157732359Y-95508920D01*
X157906412Y-95742269D01*
X157990466Y-95818034D01*
X157909820Y-95842498D01*
X157799506Y-95901463D01*
X157702815Y-95980815D01*
X157623463Y-96077506D01*
X157564498Y-96187820D01*
X157528188Y-96307518D01*
X157515928Y-96432000D01*
X157515928Y-98132000D01*
X157528188Y-98256482D01*
X157564498Y-98376180D01*
X157623463Y-98486494D01*
X157702815Y-98583185D01*
X157799506Y-98662537D01*
X157909820Y-98721502D01*
X158029518Y-98757812D01*
X158154000Y-98770072D01*
X159854000Y-98770072D01*
X159864001Y-98769087D01*
X159864001Y-101224000D01*
X158407572Y-101224000D01*
X158407572Y-98794000D01*
X151980429Y-98794000D01*
X151980429Y-101224000D01*
X149275824Y-101224000D01*
X149312956Y-101134356D01*
X149343705Y-100979767D01*
X150508116Y-99815357D01*
X150539126Y-99789908D01*
X150597168Y-99719184D01*
X150640697Y-99666144D01*
X150707450Y-99541256D01*
X150716171Y-99524941D01*
X150762648Y-99371728D01*
X150774409Y-99252314D01*
X150774409Y-99252312D01*
X150778341Y-99212392D01*
X150774409Y-99172471D01*
X150774409Y-94521872D01*
X151435000Y-94521872D01*
X151435000Y-94962128D01*
X151520890Y-95393925D01*
X151689369Y-95800669D01*
X151933962Y-96166729D01*
X152245271Y-96478038D01*
X152611331Y-96722631D01*
X153018075Y-96891110D01*
X153449872Y-96977000D01*
X153890128Y-96977000D01*
X154321925Y-96891110D01*
X154728669Y-96722631D01*
X155094729Y-96478038D01*
X155406038Y-96166729D01*
X155650631Y-95800669D01*
X155819110Y-95393925D01*
X155905000Y-94962128D01*
X155905000Y-94521872D01*
X155819110Y-94090075D01*
X155650631Y-93683331D01*
X155406038Y-93317271D01*
X155094729Y-93005962D01*
X154728669Y-92761369D01*
X154321925Y-92592890D01*
X153890128Y-92507000D01*
X153449872Y-92507000D01*
X153018075Y-92592890D01*
X152611331Y-92761369D01*
X152245271Y-93005962D01*
X151933962Y-93317271D01*
X151689369Y-93683331D01*
X151520890Y-94090075D01*
X151435000Y-94521872D01*
X150774409Y-94521872D01*
X150774409Y-90121920D01*
X150861977Y-89990865D01*
X150938565Y-89805965D01*
X150977609Y-89609676D01*
X150977609Y-89409542D01*
X150938565Y-89213253D01*
X150861977Y-89028353D01*
X150750788Y-88861947D01*
X150609271Y-88720430D01*
X150442865Y-88609241D01*
X150285359Y-88544000D01*
X159864000Y-88544000D01*
X159864000Y-90990640D01*
G36*
X149480353Y-88609241D02*
G01*
X149313947Y-88720430D01*
X149172430Y-88861947D01*
X149061241Y-89028353D01*
X148984653Y-89213253D01*
X148945609Y-89409542D01*
X148945609Y-89609676D01*
X148984653Y-89805965D01*
X149061241Y-89990865D01*
X149148810Y-90121921D01*
X149148809Y-94405337D01*
X148811970Y-94068498D01*
X148786516Y-94037482D01*
X148662751Y-93935911D01*
X148521549Y-93860437D01*
X148368336Y-93813960D01*
X148248922Y-93802199D01*
X148248919Y-93802199D01*
X148208999Y-93798267D01*
X148169079Y-93802199D01*
X147478853Y-93802199D01*
X147458368Y-93752744D01*
X147347179Y-93586338D01*
X147205662Y-93444821D01*
X147039256Y-93333632D01*
X146854356Y-93257044D01*
X146658067Y-93218000D01*
X146457933Y-93218000D01*
X146261644Y-93257044D01*
X146076744Y-93333632D01*
X145910338Y-93444821D01*
X145768821Y-93586338D01*
X145657632Y-93752744D01*
X145581044Y-93937644D01*
X145542000Y-94133933D01*
X145542000Y-94334067D01*
X145581044Y-94530356D01*
X145657632Y-94715256D01*
X145768821Y-94881662D01*
X145910338Y-95023179D01*
X146074950Y-95133169D01*
X144781090Y-95133169D01*
X144816497Y-95097762D01*
X144964785Y-94875833D01*
X145066928Y-94629239D01*
X145119000Y-94367456D01*
X145119000Y-94100544D01*
X145066928Y-93838761D01*
X144964785Y-93592167D01*
X144816497Y-93370238D01*
X144627762Y-93181503D01*
X144405833Y-93033215D01*
X144159239Y-92931072D01*
X143897456Y-92879000D01*
X143630544Y-92879000D01*
X143368761Y-92931072D01*
X143122167Y-93033215D01*
X142900238Y-93181503D01*
X142711503Y-93370238D01*
X142563215Y-93592167D01*
X142461072Y-93838761D01*
X142409000Y-94100544D01*
X142409000Y-94367456D01*
X142443081Y-94538790D01*
X141332263Y-94538790D01*
X140453705Y-93660233D01*
X140422956Y-93505644D01*
X140346368Y-93320744D01*
X140235179Y-93154338D01*
X140093662Y-93012821D01*
X139927256Y-92901632D01*
X139742356Y-92825044D01*
X139546067Y-92786000D01*
X139345933Y-92786000D01*
X139149644Y-92825044D01*
X138964744Y-92901632D01*
X138798338Y-93012821D01*
X138656821Y-93154338D01*
X138545632Y-93320744D01*
X138469044Y-93505644D01*
X138430000Y-93701933D01*
X138430000Y-93902067D01*
X138469044Y-94098356D01*
X138545632Y-94283256D01*
X138656821Y-94449662D01*
X138798338Y-94591179D01*
X138964744Y-94702368D01*
X139149644Y-94778956D01*
X139304233Y-94809705D01*
X140392623Y-95898096D01*
X140418073Y-95929107D01*
X140541838Y-96030678D01*
X140683040Y-96106152D01*
X140836253Y-96152629D01*
X140955667Y-96164390D01*
X140955669Y-96164390D01*
X140995589Y-96168322D01*
X141035510Y-96164390D01*
X142938880Y-96164390D01*
X143266964Y-96492475D01*
X143292414Y-96523486D01*
X143416179Y-96625057D01*
X143557381Y-96700531D01*
X143710594Y-96747008D01*
X143830008Y-96758769D01*
X143830010Y-96758769D01*
X143869931Y-96762701D01*
X143909851Y-96758769D01*
X146663297Y-96758769D01*
X147074295Y-97169768D01*
X147105044Y-97324356D01*
X147181632Y-97509256D01*
X147292821Y-97675662D01*
X147434338Y-97817179D01*
X147600744Y-97928368D01*
X147785644Y-98004956D01*
X147981933Y-98044000D01*
X148182067Y-98044000D01*
X148207608Y-98038920D01*
X148194233Y-98052295D01*
X148039644Y-98083044D01*
X147854744Y-98159632D01*
X147688338Y-98270821D01*
X147593237Y-98365922D01*
X146436663Y-97209350D01*
X146409612Y-97176388D01*
X146278112Y-97068469D01*
X146128084Y-96988278D01*
X145965295Y-96938896D01*
X145838420Y-96926400D01*
X145796000Y-96922222D01*
X145753580Y-96926400D01*
X139474283Y-96926400D01*
X139419256Y-96889632D01*
X139234356Y-96813044D01*
X139038067Y-96774000D01*
X138837933Y-96774000D01*
X138641644Y-96813044D01*
X138456744Y-96889632D01*
X138290338Y-97000821D01*
X138148821Y-97142338D01*
X138037632Y-97308744D01*
X137961044Y-97493644D01*
X137922000Y-97689933D01*
X137922000Y-97890067D01*
X137961044Y-98086356D01*
X138037632Y-98271256D01*
X138148821Y-98437662D01*
X138290338Y-98579179D01*
X138456744Y-98690368D01*
X138641644Y-98766956D01*
X138777604Y-98794000D01*
X133117286Y-98794000D01*
X133117286Y-101224000D01*
X129184000Y-101224000D01*
X129184000Y-100620817D01*
X129323495Y-100760312D01*
X129574905Y-100928299D01*
X129854257Y-101044011D01*
X130150816Y-101103000D01*
X130453184Y-101103000D01*
X130749743Y-101044011D01*
X131029095Y-100928299D01*
X131280505Y-100760312D01*
X131494312Y-100546505D01*
X131662299Y-100295095D01*
X131778011Y-100015743D01*
X131837000Y-99719184D01*
X131837000Y-99416816D01*
X131778011Y-99120257D01*
X131662299Y-98840905D01*
X131494312Y-98589495D01*
X131427873Y-98523056D01*
X131446180Y-98517502D01*
X131556494Y-98458537D01*
X131653185Y-98379185D01*
X131732537Y-98282494D01*
X131791502Y-98172180D01*
X131827812Y-98052482D01*
X131840072Y-97928000D01*
X131837000Y-97313750D01*
X131678250Y-97155000D01*
X130429000Y-97155000D01*
X130429000Y-97175000D01*
X130175000Y-97175000D01*
X130175000Y-97155000D01*
X130155000Y-97155000D01*
X130155000Y-96901000D01*
X130175000Y-96901000D01*
X130175000Y-95651750D01*
X130016250Y-95493000D01*
X129402000Y-95489928D01*
X129277518Y-95502188D01*
X129184000Y-95530556D01*
X129184000Y-94207444D01*
X129277518Y-94235812D01*
X129402000Y-94248072D01*
X131202000Y-94248072D01*
X131326482Y-94235812D01*
X131446180Y-94199502D01*
X131494196Y-94173836D01*
X131476798Y-94211777D01*
X131456562Y-94249692D01*
X131450978Y-94268081D01*
X131442961Y-94285564D01*
X131432971Y-94327385D01*
X131420482Y-94368514D01*
X131418576Y-94387643D01*
X131414109Y-94406343D01*
X131412432Y-94449307D01*
X131408171Y-94492079D01*
X131408837Y-94498987D01*
X131405494Y-94501623D01*
X131400292Y-94507704D01*
X131394143Y-94512807D01*
X131359983Y-94554824D01*
X131324772Y-94595985D01*
X131320855Y-94602952D01*
X131315808Y-94609160D01*
X131290436Y-94657059D01*
X131263916Y-94704229D01*
X131261428Y-94711820D01*
X131257681Y-94718894D01*
X131242097Y-94770802D01*
X131225242Y-94822231D01*
X131224275Y-94830166D01*
X131221975Y-94837828D01*
X131216774Y-94891737D01*
X131210225Y-94945498D01*
X131210079Y-94954381D01*
X131207539Y-95221081D01*
X131211051Y-95260791D01*
X131211771Y-95300657D01*
X131216510Y-95322510D01*
X131218479Y-95344775D01*
X131229636Y-95383043D01*
X131238087Y-95422014D01*
X131246980Y-95442530D01*
X131253237Y-95463991D01*
X131270203Y-95496645D01*
X131202000Y-95489928D01*
X130587750Y-95493000D01*
X130429000Y-95651750D01*
X130429000Y-96901000D01*
X131678250Y-96901000D01*
X131837000Y-96742250D01*
X131838760Y-96390289D01*
X131852899Y-96399458D01*
X131873366Y-96416270D01*
X131902981Y-96432149D01*
X131917088Y-96442337D01*
X131923665Y-96445353D01*
X131934853Y-96452609D01*
X131942771Y-96456637D01*
X131952931Y-96461717D01*
X131971125Y-96468688D01*
X131982805Y-96474951D01*
X131999017Y-96479908D01*
X132029964Y-96494099D01*
X132049829Y-96498844D01*
X132068888Y-96506147D01*
X132110069Y-96513235D01*
X132150743Y-96522951D01*
X132171149Y-96523747D01*
X132191268Y-96527210D01*
X132233058Y-96526163D01*
X132274828Y-96527793D01*
X132294996Y-96524611D01*
X132315406Y-96524100D01*
X132356198Y-96514956D01*
X132397489Y-96508442D01*
X132416652Y-96501405D01*
X132436578Y-96496938D01*
X132468185Y-96482974D01*
X132482796Y-96478760D01*
X132493864Y-96473050D01*
X132514055Y-96465635D01*
X132522029Y-96461717D01*
X132532188Y-96456637D01*
X132542547Y-96450123D01*
X132550165Y-96446757D01*
X132561186Y-96439030D01*
X132588499Y-96436405D01*
X132625957Y-96435729D01*
X132650168Y-96430479D01*
X132674829Y-96428109D01*
X132710712Y-96417350D01*
X132747314Y-96409413D01*
X132770044Y-96399560D01*
X132793775Y-96392445D01*
X132826886Y-96374921D01*
X132845732Y-96366752D01*
X132878881Y-96385126D01*
X132879938Y-96385465D01*
X132880907Y-96385998D01*
X132938922Y-96404402D01*
X132958770Y-96410774D01*
X132964173Y-96412909D01*
X132967074Y-96413440D01*
X132997115Y-96423084D01*
X132998218Y-96423212D01*
X132999272Y-96423546D01*
X133058893Y-96430234D01*
X133086325Y-96435251D01*
X133100511Y-96435044D01*
X133117065Y-96436959D01*
X133119162Y-96438217D01*
X133158102Y-96456677D01*
X133195867Y-96477438D01*
X133214093Y-96483220D01*
X133231370Y-96491410D01*
X133273156Y-96501956D01*
X133314232Y-96514986D01*
X133333230Y-96517117D01*
X133351774Y-96521797D01*
X133394821Y-96524026D01*
X133437636Y-96528828D01*
X133446520Y-96528890D01*
X133449060Y-96528890D01*
X133462746Y-96527548D01*
X133476479Y-96528299D01*
X133524438Y-96521499D01*
X133572645Y-96516772D01*
X133585813Y-96512797D01*
X133599428Y-96510866D01*
X133645148Y-96494882D01*
X133691524Y-96480881D01*
X133703667Y-96474425D01*
X133716649Y-96469886D01*
X133758403Y-96445321D01*
X133801166Y-96422583D01*
X133811822Y-96413892D01*
X133823678Y-96406917D01*
X133830822Y-96401636D01*
X133861302Y-96378776D01*
X133891320Y-96351298D01*
X133923125Y-96325909D01*
X133929451Y-96319671D01*
X133990830Y-96258292D01*
X134004786Y-96246873D01*
X134009856Y-96240725D01*
X134015904Y-96235519D01*
X134021995Y-96229051D01*
X134055015Y-96193490D01*
X134055112Y-96193363D01*
X134057789Y-96190483D01*
X134076379Y-96170203D01*
X134086931Y-96159651D01*
X134123900Y-96114644D01*
X134161449Y-96070037D01*
X134165705Y-96063749D01*
X134165750Y-96063694D01*
X134165780Y-96063637D01*
X134166429Y-96062679D01*
X134171509Y-96055059D01*
X134197329Y-96006681D01*
X134224268Y-95958870D01*
X134226548Y-95951935D01*
X134229978Y-95945508D01*
X134245913Y-95893030D01*
X134263050Y-95840903D01*
X134263938Y-95833667D01*
X134266058Y-95826686D01*
X134271499Y-95772074D01*
X134278180Y-95717649D01*
X134277646Y-95710378D01*
X134278369Y-95703121D01*
X134277104Y-95690003D01*
X134281750Y-95685421D01*
X134281803Y-95685378D01*
X134281842Y-95685331D01*
X134282511Y-95684671D01*
X134285051Y-95682131D01*
X134307737Y-95654512D01*
X134332640Y-95628873D01*
X134347058Y-95606641D01*
X134363870Y-95586174D01*
X134380756Y-95554682D01*
X134400209Y-95524687D01*
X134404237Y-95516769D01*
X134406777Y-95511688D01*
X134413258Y-95494773D01*
X134422016Y-95478915D01*
X134435430Y-95436908D01*
X134451208Y-95395731D01*
X134454281Y-95377878D01*
X134459791Y-95360622D01*
X134461594Y-95351923D01*
X134464134Y-95339222D01*
X134468571Y-95294845D01*
X134472270Y-95273352D01*
X134472005Y-95262759D01*
X134476428Y-95223324D01*
X134476481Y-95215731D01*
X134476488Y-95215661D01*
X134476482Y-95215598D01*
X134476490Y-95214440D01*
X134476490Y-94996000D01*
X134473826Y-94968834D01*
X134474155Y-94941535D01*
X134473332Y-94932689D01*
X134470792Y-94907289D01*
X134464906Y-94877861D01*
X134464372Y-94872415D01*
X134462727Y-94866965D01*
X134462599Y-94866327D01*
X134460429Y-94850140D01*
X134458860Y-94834692D01*
X134457965Y-94831765D01*
X134457047Y-94824916D01*
X134454953Y-94816282D01*
X134452413Y-94806122D01*
X134448190Y-94794285D01*
X134446437Y-94785523D01*
X134436556Y-94761680D01*
X134436445Y-94761368D01*
X134422557Y-94715939D01*
X134415618Y-94702997D01*
X134410683Y-94689166D01*
X134386327Y-94648367D01*
X134363879Y-94606499D01*
X134354561Y-94595154D01*
X134347031Y-94582541D01*
X134315209Y-94547244D01*
X134285061Y-94510540D01*
X134277736Y-94504523D01*
X134278308Y-94499424D01*
X134278370Y-94490540D01*
X134278370Y-94488000D01*
X134277028Y-94474314D01*
X134277779Y-94460581D01*
X134274138Y-94434906D01*
X134273580Y-94412614D01*
X134268955Y-94391982D01*
X134266252Y-94364415D01*
X134262277Y-94351247D01*
X134260346Y-94337632D01*
X134250385Y-94309139D01*
X134246418Y-94291442D01*
X134239477Y-94275732D01*
X134230361Y-94245536D01*
X134223905Y-94233393D01*
X134219366Y-94220411D01*
X134201989Y-94190876D01*
X134196237Y-94177855D01*
X134190226Y-94169281D01*
X134187530Y-94163236D01*
X134183772Y-94157916D01*
X134172063Y-94135894D01*
X134163372Y-94125238D01*
X134156397Y-94113382D01*
X134151116Y-94106238D01*
X134143496Y-94096078D01*
X134128609Y-94079814D01*
X134115890Y-94061807D01*
X134110034Y-94055125D01*
X134089714Y-94032265D01*
X134079224Y-94022562D01*
X134070309Y-94011395D01*
X134064071Y-94005069D01*
X133949771Y-93890769D01*
X133941481Y-93883960D01*
X133934394Y-93875900D01*
X133927862Y-93869878D01*
X133899922Y-93844478D01*
X133873469Y-93824780D01*
X133848938Y-93802740D01*
X133841745Y-93797526D01*
X133823964Y-93784826D01*
X133818907Y-93781913D01*
X133814437Y-93778151D01*
X133807079Y-93773171D01*
X133799459Y-93768091D01*
X133746305Y-93739722D01*
X133735516Y-93733888D01*
X133716356Y-93722854D01*
X133713008Y-93721718D01*
X133693085Y-93710946D01*
X133691427Y-93710433D01*
X133689908Y-93709622D01*
X133632179Y-93692093D01*
X133574460Y-93674226D01*
X133572745Y-93674046D01*
X133571086Y-93673542D01*
X133510882Y-93667544D01*
X133450962Y-93661246D01*
X133449242Y-93661402D01*
X133447521Y-93661231D01*
X133438096Y-93662140D01*
X133433758Y-93656745D01*
X133431579Y-93654917D01*
X133429778Y-93652717D01*
X133384036Y-93615024D01*
X133338632Y-93576925D01*
X133336141Y-93575556D01*
X133333945Y-93573746D01*
X133286178Y-93548037D01*
X133281681Y-93544945D01*
X133276033Y-93542511D01*
X133229813Y-93517102D01*
X133227106Y-93516243D01*
X133224599Y-93514894D01*
X133180406Y-93501307D01*
X133167640Y-93495806D01*
X133152312Y-93492517D01*
X133111448Y-93479554D01*
X133108624Y-93479237D01*
X133105904Y-93478401D01*
X133068586Y-93474551D01*
X133046225Y-93469753D01*
X133037392Y-93468808D01*
X133011991Y-93466268D01*
X132992668Y-93466231D01*
X132988044Y-93465712D01*
X132982532Y-93465674D01*
X132982381Y-93465658D01*
X132982236Y-93465671D01*
X132979689Y-93465654D01*
X132957564Y-93463172D01*
X132948680Y-93463110D01*
X132783580Y-93463110D01*
X132766885Y-93464747D01*
X132750125Y-93463990D01*
X132741256Y-93464519D01*
X132724291Y-93465650D01*
X132720080Y-93465650D01*
X132711136Y-93466527D01*
X132703156Y-93467059D01*
X132699459Y-93467672D01*
X132662120Y-93471333D01*
X132604021Y-93476324D01*
X132596571Y-93477761D01*
X132596495Y-93477768D01*
X132596429Y-93477788D01*
X132595298Y-93478006D01*
X132582597Y-93480546D01*
X132525922Y-93497776D01*
X132469029Y-93514521D01*
X132466506Y-93515840D01*
X132463789Y-93516666D01*
X132411547Y-93544572D01*
X132358982Y-93572052D01*
X132356766Y-93573834D01*
X132354257Y-93575174D01*
X132308401Y-93612720D01*
X132262205Y-93649862D01*
X132260377Y-93652041D01*
X132258177Y-93653842D01*
X132251201Y-93662308D01*
X132241603Y-93661265D01*
X132199388Y-93664958D01*
X132157013Y-93666020D01*
X132137655Y-93670359D01*
X132117897Y-93672088D01*
X132077209Y-93683909D01*
X132035842Y-93693182D01*
X132017692Y-93701201D01*
X131998649Y-93706733D01*
X131961028Y-93726234D01*
X131922255Y-93743363D01*
X131906013Y-93754750D01*
X131888402Y-93763879D01*
X131855279Y-93790321D01*
X131820577Y-93814651D01*
X131810974Y-93824677D01*
X131808747Y-93826250D01*
X131802065Y-93832106D01*
X131796770Y-93836812D01*
X131827812Y-93734482D01*
X131840072Y-93610000D01*
X131840072Y-91810000D01*
X131827812Y-91685518D01*
X131791502Y-91565820D01*
X131788682Y-91560544D01*
X139869000Y-91560544D01*
X139869000Y-91827456D01*
X139921072Y-92089239D01*
X140023215Y-92335833D01*
X140171503Y-92557762D01*
X140360238Y-92746497D01*
X140582167Y-92894785D01*
X140828761Y-92996928D01*
X141090544Y-93049000D01*
X141357456Y-93049000D01*
X141619239Y-92996928D01*
X141865833Y-92894785D01*
X142087762Y-92746497D01*
X142204699Y-92629560D01*
X145548045Y-92629560D01*
X145609932Y-92865368D01*
X145851790Y-92978266D01*
X146111027Y-93041811D01*
X146377680Y-93053561D01*
X146641501Y-93013063D01*
X146892353Y-92921875D01*
X146998068Y-92865368D01*
X147059955Y-92629560D01*
X146304000Y-91873605D01*
X145548045Y-92629560D01*
X142204699Y-92629560D01*
X142276497Y-92557762D01*
X142424785Y-92335833D01*
X142526928Y-92089239D01*
X142579000Y-91827456D01*
X142579000Y-91767680D01*
X144944439Y-91767680D01*
X144984937Y-92031501D01*
X145076125Y-92282353D01*
X145132632Y-92388068D01*
X145368440Y-92449955D01*
X146124395Y-91694000D01*
X146483605Y-91694000D01*
X147239560Y-92449955D01*
X147475368Y-92388068D01*
X147588266Y-92146210D01*
X147651811Y-91886973D01*
X147663561Y-91620320D01*
X147623063Y-91356499D01*
X147531875Y-91105647D01*
X147475368Y-90999932D01*
X147239560Y-90938045D01*
X146483605Y-91694000D01*
X146124395Y-91694000D01*
X145368440Y-90938045D01*
X145132632Y-90999932D01*
X145019734Y-91241790D01*
X144956189Y-91501027D01*
X144944439Y-91767680D01*
X142579000Y-91767680D01*
X142579000Y-91560544D01*
X142526928Y-91298761D01*
X142424785Y-91052167D01*
X142276497Y-90830238D01*
X142204699Y-90758440D01*
X145548045Y-90758440D01*
X146304000Y-91514395D01*
X147059955Y-90758440D01*
X146998068Y-90522632D01*
X146756210Y-90409734D01*
X146496973Y-90346189D01*
X146230320Y-90334439D01*
X145966499Y-90374937D01*
X145715647Y-90466125D01*
X145609932Y-90522632D01*
X145548045Y-90758440D01*
X142204699Y-90758440D01*
X142087762Y-90641503D01*
X141865833Y-90493215D01*
X141619239Y-90391072D01*
X141357456Y-90339000D01*
X141090544Y-90339000D01*
X140828761Y-90391072D01*
X140582167Y-90493215D01*
X140360238Y-90641503D01*
X140171503Y-90830238D01*
X140023215Y-91052167D01*
X139921072Y-91298761D01*
X139869000Y-91560544D01*
X131788682Y-91560544D01*
X131732537Y-91455506D01*
X131653185Y-91358815D01*
X131556494Y-91279463D01*
X131446180Y-91220498D01*
X131435265Y-91217187D01*
X131482030Y-91170422D01*
X131366082Y-91054474D01*
X131620261Y-90970792D01*
X131751158Y-90698225D01*
X131826365Y-90405358D01*
X131842991Y-90103447D01*
X131800397Y-89804093D01*
X131700222Y-89518801D01*
X131620261Y-89369208D01*
X131366080Y-89285525D01*
X130481605Y-90170000D01*
X130495748Y-90184143D01*
X130316143Y-90363748D01*
X130302000Y-90349605D01*
X130287858Y-90363748D01*
X130108253Y-90184143D01*
X130122395Y-90170000D01*
X129237920Y-89285525D01*
X129184000Y-89303277D01*
X129184000Y-89105920D01*
X129417525Y-89105920D01*
X130302000Y-89990395D01*
X131186475Y-89105920D01*
X131102792Y-88851739D01*
X130830225Y-88720842D01*
X130537358Y-88645635D01*
X130235447Y-88629009D01*
X129936093Y-88671603D01*
X129650801Y-88771778D01*
X129501208Y-88851739D01*
X129417525Y-89105920D01*
X129184000Y-89105920D01*
X129184000Y-88544000D01*
X149637859Y-88544000D01*
X149480353Y-88609241D01*
G37*
X149480353Y-88609241D02*
X149313947Y-88720430D01*
X149172430Y-88861947D01*
X149061241Y-89028353D01*
X148984653Y-89213253D01*
X148945609Y-89409542D01*
X148945609Y-89609676D01*
X148984653Y-89805965D01*
X149061241Y-89990865D01*
X149148810Y-90121921D01*
X149148809Y-94405337D01*
X148811970Y-94068498D01*
X148786516Y-94037482D01*
X148662751Y-93935911D01*
X148521549Y-93860437D01*
X148368336Y-93813960D01*
X148248922Y-93802199D01*
X148248919Y-93802199D01*
X148208999Y-93798267D01*
X148169079Y-93802199D01*
X147478853Y-93802199D01*
X147458368Y-93752744D01*
X147347179Y-93586338D01*
X147205662Y-93444821D01*
X147039256Y-93333632D01*
X146854356Y-93257044D01*
X146658067Y-93218000D01*
X146457933Y-93218000D01*
X146261644Y-93257044D01*
X146076744Y-93333632D01*
X145910338Y-93444821D01*
X145768821Y-93586338D01*
X145657632Y-93752744D01*
X145581044Y-93937644D01*
X145542000Y-94133933D01*
X145542000Y-94334067D01*
X145581044Y-94530356D01*
X145657632Y-94715256D01*
X145768821Y-94881662D01*
X145910338Y-95023179D01*
X146074950Y-95133169D01*
X144781090Y-95133169D01*
X144816497Y-95097762D01*
X144964785Y-94875833D01*
X145066928Y-94629239D01*
X145119000Y-94367456D01*
X145119000Y-94100544D01*
X145066928Y-93838761D01*
X144964785Y-93592167D01*
X144816497Y-93370238D01*
X144627762Y-93181503D01*
X144405833Y-93033215D01*
X144159239Y-92931072D01*
X143897456Y-92879000D01*
X143630544Y-92879000D01*
X143368761Y-92931072D01*
X143122167Y-93033215D01*
X142900238Y-93181503D01*
X142711503Y-93370238D01*
X142563215Y-93592167D01*
X142461072Y-93838761D01*
X142409000Y-94100544D01*
X142409000Y-94367456D01*
X142443081Y-94538790D01*
X141332263Y-94538790D01*
X140453705Y-93660233D01*
X140422956Y-93505644D01*
X140346368Y-93320744D01*
X140235179Y-93154338D01*
X140093662Y-93012821D01*
X139927256Y-92901632D01*
X139742356Y-92825044D01*
X139546067Y-92786000D01*
X139345933Y-92786000D01*
X139149644Y-92825044D01*
X138964744Y-92901632D01*
X138798338Y-93012821D01*
X138656821Y-93154338D01*
X138545632Y-93320744D01*
X138469044Y-93505644D01*
X138430000Y-93701933D01*
X138430000Y-93902067D01*
X138469044Y-94098356D01*
X138545632Y-94283256D01*
X138656821Y-94449662D01*
X138798338Y-94591179D01*
X138964744Y-94702368D01*
X139149644Y-94778956D01*
X139304233Y-94809705D01*
X140392623Y-95898096D01*
X140418073Y-95929107D01*
X140541838Y-96030678D01*
X140683040Y-96106152D01*
X140836253Y-96152629D01*
X140955667Y-96164390D01*
X140955669Y-96164390D01*
X140995589Y-96168322D01*
X141035510Y-96164390D01*
X142938880Y-96164390D01*
X143266964Y-96492475D01*
X143292414Y-96523486D01*
X143416179Y-96625057D01*
X143557381Y-96700531D01*
X143710594Y-96747008D01*
X143830008Y-96758769D01*
X143830010Y-96758769D01*
X143869931Y-96762701D01*
X143909851Y-96758769D01*
X146663297Y-96758769D01*
X147074295Y-97169768D01*
X147105044Y-97324356D01*
X147181632Y-97509256D01*
X147292821Y-97675662D01*
X147434338Y-97817179D01*
X147600744Y-97928368D01*
X147785644Y-98004956D01*
X147981933Y-98044000D01*
X148182067Y-98044000D01*
X148207608Y-98038920D01*
X148194233Y-98052295D01*
X148039644Y-98083044D01*
X147854744Y-98159632D01*
X147688338Y-98270821D01*
X147593237Y-98365922D01*
X146436663Y-97209350D01*
X146409612Y-97176388D01*
X146278112Y-97068469D01*
X146128084Y-96988278D01*
X145965295Y-96938896D01*
X145838420Y-96926400D01*
X145796000Y-96922222D01*
X145753580Y-96926400D01*
X139474283Y-96926400D01*
X139419256Y-96889632D01*
X139234356Y-96813044D01*
X139038067Y-96774000D01*
X138837933Y-96774000D01*
X138641644Y-96813044D01*
X138456744Y-96889632D01*
X138290338Y-97000821D01*
X138148821Y-97142338D01*
X138037632Y-97308744D01*
X137961044Y-97493644D01*
X137922000Y-97689933D01*
X137922000Y-97890067D01*
X137961044Y-98086356D01*
X138037632Y-98271256D01*
X138148821Y-98437662D01*
X138290338Y-98579179D01*
X138456744Y-98690368D01*
X138641644Y-98766956D01*
X138777604Y-98794000D01*
X133117286Y-98794000D01*
X133117286Y-101224000D01*
X129184000Y-101224000D01*
X129184000Y-100620817D01*
X129323495Y-100760312D01*
X129574905Y-100928299D01*
X129854257Y-101044011D01*
X130150816Y-101103000D01*
X130453184Y-101103000D01*
X130749743Y-101044011D01*
X131029095Y-100928299D01*
X131280505Y-100760312D01*
X131494312Y-100546505D01*
X131662299Y-100295095D01*
X131778011Y-100015743D01*
X131837000Y-99719184D01*
X131837000Y-99416816D01*
X131778011Y-99120257D01*
X131662299Y-98840905D01*
X131494312Y-98589495D01*
X131427873Y-98523056D01*
X131446180Y-98517502D01*
X131556494Y-98458537D01*
X131653185Y-98379185D01*
X131732537Y-98282494D01*
X131791502Y-98172180D01*
X131827812Y-98052482D01*
X131840072Y-97928000D01*
X131837000Y-97313750D01*
X131678250Y-97155000D01*
X130429000Y-97155000D01*
X130429000Y-97175000D01*
X130175000Y-97175000D01*
X130175000Y-97155000D01*
X130155000Y-97155000D01*
X130155000Y-96901000D01*
X130175000Y-96901000D01*
X130175000Y-95651750D01*
X130016250Y-95493000D01*
X129402000Y-95489928D01*
X129277518Y-95502188D01*
X129184000Y-95530556D01*
X129184000Y-94207444D01*
X129277518Y-94235812D01*
X129402000Y-94248072D01*
X131202000Y-94248072D01*
X131326482Y-94235812D01*
X131446180Y-94199502D01*
X131494196Y-94173836D01*
X131476798Y-94211777D01*
X131456562Y-94249692D01*
X131450978Y-94268081D01*
X131442961Y-94285564D01*
X131432971Y-94327385D01*
X131420482Y-94368514D01*
X131418576Y-94387643D01*
X131414109Y-94406343D01*
X131412432Y-94449307D01*
X131408171Y-94492079D01*
X131408837Y-94498987D01*
X131405494Y-94501623D01*
X131400292Y-94507704D01*
X131394143Y-94512807D01*
X131359983Y-94554824D01*
X131324772Y-94595985D01*
X131320855Y-94602952D01*
X131315808Y-94609160D01*
X131290436Y-94657059D01*
X131263916Y-94704229D01*
X131261428Y-94711820D01*
X131257681Y-94718894D01*
X131242097Y-94770802D01*
X131225242Y-94822231D01*
X131224275Y-94830166D01*
X131221975Y-94837828D01*
X131216774Y-94891737D01*
X131210225Y-94945498D01*
X131210079Y-94954381D01*
X131207539Y-95221081D01*
X131211051Y-95260791D01*
X131211771Y-95300657D01*
X131216510Y-95322510D01*
X131218479Y-95344775D01*
X131229636Y-95383043D01*
X131238087Y-95422014D01*
X131246980Y-95442530D01*
X131253237Y-95463991D01*
X131270203Y-95496645D01*
X131202000Y-95489928D01*
X130587750Y-95493000D01*
X130429000Y-95651750D01*
X130429000Y-96901000D01*
X131678250Y-96901000D01*
X131837000Y-96742250D01*
X131838760Y-96390289D01*
X131852899Y-96399458D01*
X131873366Y-96416270D01*
X131902981Y-96432149D01*
X131917088Y-96442337D01*
X131923665Y-96445353D01*
X131934853Y-96452609D01*
X131942771Y-96456637D01*
X131952931Y-96461717D01*
X131971125Y-96468688D01*
X131982805Y-96474951D01*
X131999017Y-96479908D01*
X132029964Y-96494099D01*
X132049829Y-96498844D01*
X132068888Y-96506147D01*
X132110069Y-96513235D01*
X132150743Y-96522951D01*
X132171149Y-96523747D01*
X132191268Y-96527210D01*
X132233058Y-96526163D01*
X132274828Y-96527793D01*
X132294996Y-96524611D01*
X132315406Y-96524100D01*
X132356198Y-96514956D01*
X132397489Y-96508442D01*
X132416652Y-96501405D01*
X132436578Y-96496938D01*
X132468185Y-96482974D01*
X132482796Y-96478760D01*
X132493864Y-96473050D01*
X132514055Y-96465635D01*
X132522029Y-96461717D01*
X132532188Y-96456637D01*
X132542547Y-96450123D01*
X132550165Y-96446757D01*
X132561186Y-96439030D01*
X132588499Y-96436405D01*
X132625957Y-96435729D01*
X132650168Y-96430479D01*
X132674829Y-96428109D01*
X132710712Y-96417350D01*
X132747314Y-96409413D01*
X132770044Y-96399560D01*
X132793775Y-96392445D01*
X132826886Y-96374921D01*
X132845732Y-96366752D01*
X132878881Y-96385126D01*
X132879938Y-96385465D01*
X132880907Y-96385998D01*
X132938922Y-96404402D01*
X132958770Y-96410774D01*
X132964173Y-96412909D01*
X132967074Y-96413440D01*
X132997115Y-96423084D01*
X132998218Y-96423212D01*
X132999272Y-96423546D01*
X133058893Y-96430234D01*
X133086325Y-96435251D01*
X133100511Y-96435044D01*
X133117065Y-96436959D01*
X133119162Y-96438217D01*
X133158102Y-96456677D01*
X133195867Y-96477438D01*
X133214093Y-96483220D01*
X133231370Y-96491410D01*
X133273156Y-96501956D01*
X133314232Y-96514986D01*
X133333230Y-96517117D01*
X133351774Y-96521797D01*
X133394821Y-96524026D01*
X133437636Y-96528828D01*
X133446520Y-96528890D01*
X133449060Y-96528890D01*
X133462746Y-96527548D01*
X133476479Y-96528299D01*
X133524438Y-96521499D01*
X133572645Y-96516772D01*
X133585813Y-96512797D01*
X133599428Y-96510866D01*
X133645148Y-96494882D01*
X133691524Y-96480881D01*
X133703667Y-96474425D01*
X133716649Y-96469886D01*
X133758403Y-96445321D01*
X133801166Y-96422583D01*
X133811822Y-96413892D01*
X133823678Y-96406917D01*
X133830822Y-96401636D01*
X133861302Y-96378776D01*
X133891320Y-96351298D01*
X133923125Y-96325909D01*
X133929451Y-96319671D01*
X133990830Y-96258292D01*
X134004786Y-96246873D01*
X134009856Y-96240725D01*
X134015904Y-96235519D01*
X134021995Y-96229051D01*
X134055015Y-96193490D01*
X134055112Y-96193363D01*
X134057789Y-96190483D01*
X134076379Y-96170203D01*
X134086931Y-96159651D01*
X134123900Y-96114644D01*
X134161449Y-96070037D01*
X134165705Y-96063749D01*
X134165750Y-96063694D01*
X134165780Y-96063637D01*
X134166429Y-96062679D01*
X134171509Y-96055059D01*
X134197329Y-96006681D01*
X134224268Y-95958870D01*
X134226548Y-95951935D01*
X134229978Y-95945508D01*
X134245913Y-95893030D01*
X134263050Y-95840903D01*
X134263938Y-95833667D01*
X134266058Y-95826686D01*
X134271499Y-95772074D01*
X134278180Y-95717649D01*
X134277646Y-95710378D01*
X134278369Y-95703121D01*
X134277104Y-95690003D01*
X134281750Y-95685421D01*
X134281803Y-95685378D01*
X134281842Y-95685331D01*
X134282511Y-95684671D01*
X134285051Y-95682131D01*
X134307737Y-95654512D01*
X134332640Y-95628873D01*
X134347058Y-95606641D01*
X134363870Y-95586174D01*
X134380756Y-95554682D01*
X134400209Y-95524687D01*
X134404237Y-95516769D01*
X134406777Y-95511688D01*
X134413258Y-95494773D01*
X134422016Y-95478915D01*
X134435430Y-95436908D01*
X134451208Y-95395731D01*
X134454281Y-95377878D01*
X134459791Y-95360622D01*
X134461594Y-95351923D01*
X134464134Y-95339222D01*
X134468571Y-95294845D01*
X134472270Y-95273352D01*
X134472005Y-95262759D01*
X134476428Y-95223324D01*
X134476481Y-95215731D01*
X134476488Y-95215661D01*
X134476482Y-95215598D01*
X134476490Y-95214440D01*
X134476490Y-94996000D01*
X134473826Y-94968834D01*
X134474155Y-94941535D01*
X134473332Y-94932689D01*
X134470792Y-94907289D01*
X134464906Y-94877861D01*
X134464372Y-94872415D01*
X134462727Y-94866965D01*
X134462599Y-94866327D01*
X134460429Y-94850140D01*
X134458860Y-94834692D01*
X134457965Y-94831765D01*
X134457047Y-94824916D01*
X134454953Y-94816282D01*
X134452413Y-94806122D01*
X134448190Y-94794285D01*
X134446437Y-94785523D01*
X134436556Y-94761680D01*
X134436445Y-94761368D01*
X134422557Y-94715939D01*
X134415618Y-94702997D01*
X134410683Y-94689166D01*
X134386327Y-94648367D01*
X134363879Y-94606499D01*
X134354561Y-94595154D01*
X134347031Y-94582541D01*
X134315209Y-94547244D01*
X134285061Y-94510540D01*
X134277736Y-94504523D01*
X134278308Y-94499424D01*
X134278370Y-94490540D01*
X134278370Y-94488000D01*
X134277028Y-94474314D01*
X134277779Y-94460581D01*
X134274138Y-94434906D01*
X134273580Y-94412614D01*
X134268955Y-94391982D01*
X134266252Y-94364415D01*
X134262277Y-94351247D01*
X134260346Y-94337632D01*
X134250385Y-94309139D01*
X134246418Y-94291442D01*
X134239477Y-94275732D01*
X134230361Y-94245536D01*
X134223905Y-94233393D01*
X134219366Y-94220411D01*
X134201989Y-94190876D01*
X134196237Y-94177855D01*
X134190226Y-94169281D01*
X134187530Y-94163236D01*
X134183772Y-94157916D01*
X134172063Y-94135894D01*
X134163372Y-94125238D01*
X134156397Y-94113382D01*
X134151116Y-94106238D01*
X134143496Y-94096078D01*
X134128609Y-94079814D01*
X134115890Y-94061807D01*
X134110034Y-94055125D01*
X134089714Y-94032265D01*
X134079224Y-94022562D01*
X134070309Y-94011395D01*
X134064071Y-94005069D01*
X133949771Y-93890769D01*
X133941481Y-93883960D01*
X133934394Y-93875900D01*
X133927862Y-93869878D01*
X133899922Y-93844478D01*
X133873469Y-93824780D01*
X133848938Y-93802740D01*
X133841745Y-93797526D01*
X133823964Y-93784826D01*
X133818907Y-93781913D01*
X133814437Y-93778151D01*
X133807079Y-93773171D01*
X133799459Y-93768091D01*
X133746305Y-93739722D01*
X133735516Y-93733888D01*
X133716356Y-93722854D01*
X133713008Y-93721718D01*
X133693085Y-93710946D01*
X133691427Y-93710433D01*
X133689908Y-93709622D01*
X133632179Y-93692093D01*
X133574460Y-93674226D01*
X133572745Y-93674046D01*
X133571086Y-93673542D01*
X133510882Y-93667544D01*
X133450962Y-93661246D01*
X133449242Y-93661402D01*
X133447521Y-93661231D01*
X133438096Y-93662140D01*
X133433758Y-93656745D01*
X133431579Y-93654917D01*
X133429778Y-93652717D01*
X133384036Y-93615024D01*
X133338632Y-93576925D01*
X133336141Y-93575556D01*
X133333945Y-93573746D01*
X133286178Y-93548037D01*
X133281681Y-93544945D01*
X133276033Y-93542511D01*
X133229813Y-93517102D01*
X133227106Y-93516243D01*
X133224599Y-93514894D01*
X133180406Y-93501307D01*
X133167640Y-93495806D01*
X133152312Y-93492517D01*
X133111448Y-93479554D01*
X133108624Y-93479237D01*
X133105904Y-93478401D01*
X133068586Y-93474551D01*
X133046225Y-93469753D01*
X133037392Y-93468808D01*
X133011991Y-93466268D01*
X132992668Y-93466231D01*
X132988044Y-93465712D01*
X132982532Y-93465674D01*
X132982381Y-93465658D01*
X132982236Y-93465671D01*
X132979689Y-93465654D01*
X132957564Y-93463172D01*
X132948680Y-93463110D01*
X132783580Y-93463110D01*
X132766885Y-93464747D01*
X132750125Y-93463990D01*
X132741256Y-93464519D01*
X132724291Y-93465650D01*
X132720080Y-93465650D01*
X132711136Y-93466527D01*
X132703156Y-93467059D01*
X132699459Y-93467672D01*
X132662120Y-93471333D01*
X132604021Y-93476324D01*
X132596571Y-93477761D01*
X132596495Y-93477768D01*
X132596429Y-93477788D01*
X132595298Y-93478006D01*
X132582597Y-93480546D01*
X132525922Y-93497776D01*
X132469029Y-93514521D01*
X132466506Y-93515840D01*
X132463789Y-93516666D01*
X132411547Y-93544572D01*
X132358982Y-93572052D01*
X132356766Y-93573834D01*
X132354257Y-93575174D01*
X132308401Y-93612720D01*
X132262205Y-93649862D01*
X132260377Y-93652041D01*
X132258177Y-93653842D01*
X132251201Y-93662308D01*
X132241603Y-93661265D01*
X132199388Y-93664958D01*
X132157013Y-93666020D01*
X132137655Y-93670359D01*
X132117897Y-93672088D01*
X132077209Y-93683909D01*
X132035842Y-93693182D01*
X132017692Y-93701201D01*
X131998649Y-93706733D01*
X131961028Y-93726234D01*
X131922255Y-93743363D01*
X131906013Y-93754750D01*
X131888402Y-93763879D01*
X131855279Y-93790321D01*
X131820577Y-93814651D01*
X131810974Y-93824677D01*
X131808747Y-93826250D01*
X131802065Y-93832106D01*
X131796770Y-93836812D01*
X131827812Y-93734482D01*
X131840072Y-93610000D01*
X131840072Y-91810000D01*
X131827812Y-91685518D01*
X131791502Y-91565820D01*
X131788682Y-91560544D01*
X139869000Y-91560544D01*
X139869000Y-91827456D01*
X139921072Y-92089239D01*
X140023215Y-92335833D01*
X140171503Y-92557762D01*
X140360238Y-92746497D01*
X140582167Y-92894785D01*
X140828761Y-92996928D01*
X141090544Y-93049000D01*
X141357456Y-93049000D01*
X141619239Y-92996928D01*
X141865833Y-92894785D01*
X142087762Y-92746497D01*
X142204699Y-92629560D01*
X145548045Y-92629560D01*
X145609932Y-92865368D01*
X145851790Y-92978266D01*
X146111027Y-93041811D01*
X146377680Y-93053561D01*
X146641501Y-93013063D01*
X146892353Y-92921875D01*
X146998068Y-92865368D01*
X147059955Y-92629560D01*
X146304000Y-91873605D01*
X145548045Y-92629560D01*
X142204699Y-92629560D01*
X142276497Y-92557762D01*
X142424785Y-92335833D01*
X142526928Y-92089239D01*
X142579000Y-91827456D01*
X142579000Y-91767680D01*
X144944439Y-91767680D01*
X144984937Y-92031501D01*
X145076125Y-92282353D01*
X145132632Y-92388068D01*
X145368440Y-92449955D01*
X146124395Y-91694000D01*
X146483605Y-91694000D01*
X147239560Y-92449955D01*
X147475368Y-92388068D01*
X147588266Y-92146210D01*
X147651811Y-91886973D01*
X147663561Y-91620320D01*
X147623063Y-91356499D01*
X147531875Y-91105647D01*
X147475368Y-90999932D01*
X147239560Y-90938045D01*
X146483605Y-91694000D01*
X146124395Y-91694000D01*
X145368440Y-90938045D01*
X145132632Y-90999932D01*
X145019734Y-91241790D01*
X144956189Y-91501027D01*
X144944439Y-91767680D01*
X142579000Y-91767680D01*
X142579000Y-91560544D01*
X142526928Y-91298761D01*
X142424785Y-91052167D01*
X142276497Y-90830238D01*
X142204699Y-90758440D01*
X145548045Y-90758440D01*
X146304000Y-91514395D01*
X147059955Y-90758440D01*
X146998068Y-90522632D01*
X146756210Y-90409734D01*
X146496973Y-90346189D01*
X146230320Y-90334439D01*
X145966499Y-90374937D01*
X145715647Y-90466125D01*
X145609932Y-90522632D01*
X145548045Y-90758440D01*
X142204699Y-90758440D01*
X142087762Y-90641503D01*
X141865833Y-90493215D01*
X141619239Y-90391072D01*
X141357456Y-90339000D01*
X141090544Y-90339000D01*
X140828761Y-90391072D01*
X140582167Y-90493215D01*
X140360238Y-90641503D01*
X140171503Y-90830238D01*
X140023215Y-91052167D01*
X139921072Y-91298761D01*
X139869000Y-91560544D01*
X131788682Y-91560544D01*
X131732537Y-91455506D01*
X131653185Y-91358815D01*
X131556494Y-91279463D01*
X131446180Y-91220498D01*
X131435265Y-91217187D01*
X131482030Y-91170422D01*
X131366082Y-91054474D01*
X131620261Y-90970792D01*
X131751158Y-90698225D01*
X131826365Y-90405358D01*
X131842991Y-90103447D01*
X131800397Y-89804093D01*
X131700222Y-89518801D01*
X131620261Y-89369208D01*
X131366080Y-89285525D01*
X130481605Y-90170000D01*
X130495748Y-90184143D01*
X130316143Y-90363748D01*
X130302000Y-90349605D01*
X130287858Y-90363748D01*
X130108253Y-90184143D01*
X130122395Y-90170000D01*
X129237920Y-89285525D01*
X129184000Y-89303277D01*
X129184000Y-89105920D01*
X129417525Y-89105920D01*
X130302000Y-89990395D01*
X131186475Y-89105920D01*
X131102792Y-88851739D01*
X130830225Y-88720842D01*
X130537358Y-88645635D01*
X130235447Y-88629009D01*
X129936093Y-88671603D01*
X129650801Y-88771778D01*
X129501208Y-88851739D01*
X129417525Y-89105920D01*
X129184000Y-89105920D01*
X129184000Y-88544000D01*
X149637859Y-88544000D01*
X149480353Y-88609241D01*
M02*
