G04 #@! TF.GenerationSoftware,KiCad,Pcbnew,5.1.5-52549c5~86~ubuntu16.04.1*
G04 #@! TF.CreationDate,2020-07-27T16:21:35+05:30*
G04 #@! TF.ProjectId,IR_Sensor_Module_V1.0,49525f53-656e-4736-9f72-5f4d6f64756c,V1.0*
G04 #@! TF.SameCoordinates,Original*
G04 #@! TF.FileFunction,Legend,Top*
G04 #@! TF.FilePolarity,Positive*
%FSLAX46Y46*%
G04 Gerber Fmt 4.6, Leading zero omitted, Abs format (unit mm)*
G04 Created by KiCad (PCBNEW 5.1.5-52549c5~86~ubuntu16.04.1) date 2020-07-27 16:21:35*
%MOMM*%
%LPD*%
G04 APERTURE LIST*
%ADD10C,0.150000*%
%ADD11C,0.381000*%
%ADD12C,0.120000*%
G04 APERTURE END LIST*
D10*
X156170380Y-92519333D02*
X157170380Y-92186000D01*
X156170380Y-91852666D01*
X157075142Y-90947904D02*
X157122761Y-90995523D01*
X157170380Y-91138380D01*
X157170380Y-91233619D01*
X157122761Y-91376476D01*
X157027523Y-91471714D01*
X156932285Y-91519333D01*
X156741809Y-91566952D01*
X156598952Y-91566952D01*
X156408476Y-91519333D01*
X156313238Y-91471714D01*
X156218000Y-91376476D01*
X156170380Y-91233619D01*
X156170380Y-91138380D01*
X156218000Y-90995523D01*
X156265619Y-90947904D01*
X157075142Y-89947904D02*
X157122761Y-89995523D01*
X157170380Y-90138380D01*
X157170380Y-90233619D01*
X157122761Y-90376476D01*
X157027523Y-90471714D01*
X156932285Y-90519333D01*
X156741809Y-90566952D01*
X156598952Y-90566952D01*
X156408476Y-90519333D01*
X156313238Y-90471714D01*
X156218000Y-90376476D01*
X156170380Y-90233619D01*
X156170380Y-90138380D01*
X156218000Y-89995523D01*
X156265619Y-89947904D01*
X156218000Y-95249904D02*
X156170380Y-95345142D01*
X156170380Y-95488000D01*
X156218000Y-95630857D01*
X156313238Y-95726095D01*
X156408476Y-95773714D01*
X156598952Y-95821333D01*
X156741809Y-95821333D01*
X156932285Y-95773714D01*
X157027523Y-95726095D01*
X157122761Y-95630857D01*
X157170380Y-95488000D01*
X157170380Y-95392761D01*
X157122761Y-95249904D01*
X157075142Y-95202285D01*
X156741809Y-95202285D01*
X156741809Y-95392761D01*
X157170380Y-94773714D02*
X156170380Y-94773714D01*
X157170380Y-94202285D01*
X156170380Y-94202285D01*
X157170380Y-93726095D02*
X156170380Y-93726095D01*
X156170380Y-93488000D01*
X156218000Y-93345142D01*
X156313238Y-93249904D01*
X156408476Y-93202285D01*
X156598952Y-93154666D01*
X156741809Y-93154666D01*
X156932285Y-93202285D01*
X157027523Y-93249904D01*
X157122761Y-93345142D01*
X157170380Y-93488000D01*
X157170380Y-93726095D01*
X156170380Y-99044000D02*
X156170380Y-98853523D01*
X156218000Y-98758285D01*
X156313238Y-98663047D01*
X156503714Y-98615428D01*
X156837047Y-98615428D01*
X157027523Y-98663047D01*
X157122761Y-98758285D01*
X157170380Y-98853523D01*
X157170380Y-99044000D01*
X157122761Y-99139238D01*
X157027523Y-99234476D01*
X156837047Y-99282095D01*
X156503714Y-99282095D01*
X156313238Y-99234476D01*
X156218000Y-99139238D01*
X156170380Y-99044000D01*
X156170380Y-98186857D02*
X156979904Y-98186857D01*
X157075142Y-98139238D01*
X157122761Y-98091619D01*
X157170380Y-97996380D01*
X157170380Y-97805904D01*
X157122761Y-97710666D01*
X157075142Y-97663047D01*
X156979904Y-97615428D01*
X156170380Y-97615428D01*
X156170380Y-97282095D02*
X156170380Y-96710666D01*
X157170380Y-96996380D02*
X156170380Y-96996380D01*
D11*
X147828000Y-101382285D02*
X147900571Y-101454857D01*
X147828000Y-101527428D01*
X147755428Y-101454857D01*
X147828000Y-101382285D01*
X147828000Y-101527428D01*
X151130000Y-100112285D02*
X151202571Y-100184857D01*
X151130000Y-100257428D01*
X151057428Y-100184857D01*
X151130000Y-100112285D01*
X151130000Y-100257428D01*
X155448000Y-89444285D02*
X155520571Y-89516857D01*
X155448000Y-89589428D01*
X155375428Y-89516857D01*
X155448000Y-89444285D01*
X155448000Y-89589428D01*
D12*
X129222000Y-90170000D02*
X129222000Y-90170000D01*
X129092000Y-90170000D02*
X129222000Y-90170000D01*
X129092000Y-90170000D02*
X129092000Y-90170000D01*
X129222000Y-90170000D02*
X129092000Y-90170000D01*
X129222000Y-92710000D02*
X129222000Y-92710000D01*
X129092000Y-92710000D02*
X129222000Y-92710000D01*
X129092000Y-92710000D02*
X129092000Y-92710000D01*
X129222000Y-92710000D02*
X129092000Y-92710000D01*
X129092000Y-88880000D02*
X129092000Y-88480000D01*
X127972000Y-88880000D02*
X129092000Y-88880000D01*
X127972000Y-88480000D02*
X127972000Y-88880000D01*
X129092000Y-88480000D02*
X127972000Y-88480000D01*
X129092000Y-94000000D02*
X129092000Y-88880000D01*
X129092000Y-88880000D02*
X122932000Y-88880000D01*
X129092000Y-94000000D02*
X122932000Y-94000000D01*
X122932000Y-88880000D02*
G75*
G03X122932000Y-94000000I0J-2560000D01*
G01*
X136913252Y-88677601D02*
X136390748Y-88677601D01*
X136913252Y-90097601D02*
X136390748Y-90097601D01*
X136913252Y-92912000D02*
X136390748Y-92912000D01*
X136913252Y-91492000D02*
X136390748Y-91492000D01*
X152416000Y-100528000D02*
X155276000Y-100528000D01*
X155276000Y-100528000D02*
X155276000Y-98608000D01*
X155276000Y-98608000D02*
X152416000Y-98608000D01*
X122932000Y-100858000D02*
G75*
G02X122932000Y-95738000I0J2560000D01*
G01*
X129092000Y-95738000D02*
X122932000Y-95738000D01*
X129092000Y-100858000D02*
X122932000Y-100858000D01*
X129092000Y-95738000D02*
X129092000Y-100858000D01*
X129092000Y-101258000D02*
X127972000Y-101258000D01*
X127972000Y-101258000D02*
X127972000Y-100858000D01*
X127972000Y-100858000D02*
X129092000Y-100858000D01*
X129092000Y-100858000D02*
X129092000Y-101258000D01*
X129222000Y-97028000D02*
X129092000Y-97028000D01*
X129092000Y-97028000D02*
X129092000Y-97028000D01*
X129092000Y-97028000D02*
X129222000Y-97028000D01*
X129222000Y-97028000D02*
X129222000Y-97028000D01*
X129222000Y-99568000D02*
X129092000Y-99568000D01*
X129092000Y-99568000D02*
X129092000Y-99568000D01*
X129092000Y-99568000D02*
X129222000Y-99568000D01*
X129222000Y-99568000D02*
X129222000Y-99568000D01*
X151556000Y-91130000D02*
X154416000Y-91130000D01*
X151556000Y-89210000D02*
X151556000Y-91130000D01*
X154416000Y-89210000D02*
X151556000Y-89210000D01*
X160334000Y-90872000D02*
X157674000Y-90872000D01*
X160334000Y-96012000D02*
X160334000Y-90872000D01*
X157674000Y-96012000D02*
X157674000Y-90872000D01*
X160334000Y-96012000D02*
X157674000Y-96012000D01*
X160334000Y-97282000D02*
X160334000Y-98612000D01*
X160334000Y-98612000D02*
X159004000Y-98612000D01*
X150570000Y-97528748D02*
X150570000Y-98051252D01*
X149150000Y-97528748D02*
X149150000Y-98051252D01*
X136913252Y-101294000D02*
X136390748Y-101294000D01*
X136913252Y-99874000D02*
X136390748Y-99874000D01*
X136390748Y-94286000D02*
X136913252Y-94286000D01*
X136390748Y-95706000D02*
X136913252Y-95706000D01*
X136381748Y-98500000D02*
X136904252Y-98500000D01*
X136381748Y-97080000D02*
X136904252Y-97080000D01*
X150570000Y-92209252D02*
X150570000Y-91686748D01*
X149150000Y-92209252D02*
X149150000Y-91686748D01*
X147184000Y-88014000D02*
X147184000Y-91044000D01*
X147184000Y-92344000D02*
X147184000Y-95254000D01*
X140344000Y-88014000D02*
X140344000Y-91044000D01*
X140344000Y-92344000D02*
X140344000Y-95254000D01*
X147184000Y-88014000D02*
X140344000Y-88014000D01*
X147184000Y-95254000D02*
X140344000Y-95254000D01*
X143764000Y-96246000D02*
X141814000Y-96246000D01*
X143764000Y-96246000D02*
X145714000Y-96246000D01*
X143764000Y-101366000D02*
X141814000Y-101366000D01*
X143764000Y-101366000D02*
X147214000Y-101366000D01*
M02*
