G04 #@! TF.GenerationSoftware,KiCad,Pcbnew,5.1.5-52549c5~86~ubuntu16.04.1*
G04 #@! TF.CreationDate,2020-07-27T16:21:35+05:30*
G04 #@! TF.ProjectId,IR_Sensor_Module_V1.0,49525f53-656e-4736-9f72-5f4d6f64756c,V1.0*
G04 #@! TF.SameCoordinates,Original*
G04 #@! TF.FileFunction,Legend,Bot*
G04 #@! TF.FilePolarity,Positive*
%FSLAX46Y46*%
G04 Gerber Fmt 4.6, Leading zero omitted, Abs format (unit mm)*
G04 Created by KiCad (PCBNEW 5.1.5-52549c5~86~ubuntu16.04.1) date 2020-07-27 16:21:35*
%MOMM*%
%LPD*%
G04 APERTURE LIST*
%ADD10C,0.150000*%
G04 APERTURE END LIST*
D10*
X156170380Y-89852666D02*
X157170380Y-90186000D01*
X156170380Y-90519333D01*
X157075142Y-91424095D02*
X157122761Y-91376476D01*
X157170380Y-91233619D01*
X157170380Y-91138380D01*
X157122761Y-90995523D01*
X157027523Y-90900285D01*
X156932285Y-90852666D01*
X156741809Y-90805047D01*
X156598952Y-90805047D01*
X156408476Y-90852666D01*
X156313238Y-90900285D01*
X156218000Y-90995523D01*
X156170380Y-91138380D01*
X156170380Y-91233619D01*
X156218000Y-91376476D01*
X156265619Y-91424095D01*
X157075142Y-92424095D02*
X157122761Y-92376476D01*
X157170380Y-92233619D01*
X157170380Y-92138380D01*
X157122761Y-91995523D01*
X157027523Y-91900285D01*
X156932285Y-91852666D01*
X156741809Y-91805047D01*
X156598952Y-91805047D01*
X156408476Y-91852666D01*
X156313238Y-91900285D01*
X156218000Y-91995523D01*
X156170380Y-92138380D01*
X156170380Y-92233619D01*
X156218000Y-92376476D01*
X156265619Y-92424095D01*
X156218000Y-93726095D02*
X156170380Y-93630857D01*
X156170380Y-93488000D01*
X156218000Y-93345142D01*
X156313238Y-93249904D01*
X156408476Y-93202285D01*
X156598952Y-93154666D01*
X156741809Y-93154666D01*
X156932285Y-93202285D01*
X157027523Y-93249904D01*
X157122761Y-93345142D01*
X157170380Y-93488000D01*
X157170380Y-93583238D01*
X157122761Y-93726095D01*
X157075142Y-93773714D01*
X156741809Y-93773714D01*
X156741809Y-93583238D01*
X157170380Y-94202285D02*
X156170380Y-94202285D01*
X157170380Y-94773714D01*
X156170380Y-94773714D01*
X157170380Y-95249904D02*
X156170380Y-95249904D01*
X156170380Y-95488000D01*
X156218000Y-95630857D01*
X156313238Y-95726095D01*
X156408476Y-95773714D01*
X156598952Y-95821333D01*
X156741809Y-95821333D01*
X156932285Y-95773714D01*
X157027523Y-95726095D01*
X157122761Y-95630857D01*
X157170380Y-95488000D01*
X157170380Y-95249904D01*
X156170380Y-97044000D02*
X156170380Y-97234476D01*
X156218000Y-97329714D01*
X156313238Y-97424952D01*
X156503714Y-97472571D01*
X156837047Y-97472571D01*
X157027523Y-97424952D01*
X157122761Y-97329714D01*
X157170380Y-97234476D01*
X157170380Y-97044000D01*
X157122761Y-96948761D01*
X157027523Y-96853523D01*
X156837047Y-96805904D01*
X156503714Y-96805904D01*
X156313238Y-96853523D01*
X156218000Y-96948761D01*
X156170380Y-97044000D01*
X156170380Y-97901142D02*
X156979904Y-97901142D01*
X157075142Y-97948761D01*
X157122761Y-97996380D01*
X157170380Y-98091619D01*
X157170380Y-98282095D01*
X157122761Y-98377333D01*
X157075142Y-98424952D01*
X156979904Y-98472571D01*
X156170380Y-98472571D01*
X156170380Y-98805904D02*
X156170380Y-99377333D01*
X157170380Y-99091619D02*
X156170380Y-99091619D01*
M02*
