G04 #@! TF.GenerationSoftware,KiCad,Pcbnew,5.1.5-52549c5~86~ubuntu16.04.1*
G04 #@! TF.CreationDate,2020-07-27T16:21:35+05:30*
G04 #@! TF.ProjectId,IR_Sensor_Module_V1.0,49525f53-656e-4736-9f72-5f4d6f64756c,V1.0*
G04 #@! TF.SameCoordinates,Original*
G04 #@! TF.FileFunction,Soldermask,Top*
G04 #@! TF.FilePolarity,Negative*
%FSLAX46Y46*%
G04 Gerber Fmt 4.6, Leading zero omitted, Abs format (unit mm)*
G04 Created by KiCad (PCBNEW 5.1.5-52549c5~86~ubuntu16.04.1) date 2020-07-27 16:21:35*
%MOMM*%
%LPD*%
G04 APERTURE LIST*
%ADD10C,0.100000*%
G04 APERTURE END LIST*
D10*
G36*
X138140674Y-99837465D02*
G01*
X138178367Y-99848899D01*
X138213103Y-99867466D01*
X138243548Y-99892452D01*
X138268534Y-99922897D01*
X138287101Y-99957633D01*
X138298535Y-99995326D01*
X138303000Y-100040661D01*
X138303000Y-101127339D01*
X138298535Y-101172674D01*
X138287101Y-101210367D01*
X138268534Y-101245103D01*
X138243548Y-101275548D01*
X138213103Y-101300534D01*
X138178367Y-101319101D01*
X138140674Y-101330535D01*
X138095339Y-101335000D01*
X137258661Y-101335000D01*
X137213326Y-101330535D01*
X137175633Y-101319101D01*
X137140897Y-101300534D01*
X137110452Y-101275548D01*
X137085466Y-101245103D01*
X137066899Y-101210367D01*
X137055465Y-101172674D01*
X137051000Y-101127339D01*
X137051000Y-100040661D01*
X137055465Y-99995326D01*
X137066899Y-99957633D01*
X137085466Y-99922897D01*
X137110452Y-99892452D01*
X137140897Y-99867466D01*
X137175633Y-99848899D01*
X137213326Y-99837465D01*
X137258661Y-99833000D01*
X138095339Y-99833000D01*
X138140674Y-99837465D01*
G37*
G36*
X136090674Y-99837465D02*
G01*
X136128367Y-99848899D01*
X136163103Y-99867466D01*
X136193548Y-99892452D01*
X136218534Y-99922897D01*
X136237101Y-99957633D01*
X136248535Y-99995326D01*
X136253000Y-100040661D01*
X136253000Y-101127339D01*
X136248535Y-101172674D01*
X136237101Y-101210367D01*
X136218534Y-101245103D01*
X136193548Y-101275548D01*
X136163103Y-101300534D01*
X136128367Y-101319101D01*
X136090674Y-101330535D01*
X136045339Y-101335000D01*
X135208661Y-101335000D01*
X135163326Y-101330535D01*
X135125633Y-101319101D01*
X135090897Y-101300534D01*
X135060452Y-101275548D01*
X135035466Y-101245103D01*
X135016899Y-101210367D01*
X135005465Y-101172674D01*
X135001000Y-101127339D01*
X135001000Y-100040661D01*
X135005465Y-99995326D01*
X135016899Y-99957633D01*
X135035466Y-99922897D01*
X135060452Y-99892452D01*
X135090897Y-99867466D01*
X135125633Y-99848899D01*
X135163326Y-99837465D01*
X135208661Y-99833000D01*
X136045339Y-99833000D01*
X136090674Y-99837465D01*
G37*
G36*
X147173928Y-100362764D02*
G01*
X147195009Y-100369160D01*
X147214445Y-100379548D01*
X147231476Y-100393524D01*
X147245452Y-100410555D01*
X147255840Y-100429991D01*
X147262236Y-100451072D01*
X147265000Y-100479140D01*
X147265000Y-100942860D01*
X147262236Y-100970928D01*
X147255840Y-100992009D01*
X147245452Y-101011445D01*
X147231476Y-101028476D01*
X147214445Y-101042452D01*
X147195009Y-101052840D01*
X147173928Y-101059236D01*
X147145860Y-101062000D01*
X145332140Y-101062000D01*
X145304072Y-101059236D01*
X145282991Y-101052840D01*
X145263555Y-101042452D01*
X145246524Y-101028476D01*
X145232548Y-101011445D01*
X145222160Y-100992009D01*
X145215764Y-100970928D01*
X145213000Y-100942860D01*
X145213000Y-100479140D01*
X145215764Y-100451072D01*
X145222160Y-100429991D01*
X145232548Y-100410555D01*
X145246524Y-100393524D01*
X145263555Y-100379548D01*
X145282991Y-100369160D01*
X145304072Y-100362764D01*
X145332140Y-100360000D01*
X147145860Y-100360000D01*
X147173928Y-100362764D01*
G37*
G36*
X142223928Y-100362764D02*
G01*
X142245009Y-100369160D01*
X142264445Y-100379548D01*
X142281476Y-100393524D01*
X142295452Y-100410555D01*
X142305840Y-100429991D01*
X142312236Y-100451072D01*
X142315000Y-100479140D01*
X142315000Y-100942860D01*
X142312236Y-100970928D01*
X142305840Y-100992009D01*
X142295452Y-101011445D01*
X142281476Y-101028476D01*
X142264445Y-101042452D01*
X142245009Y-101052840D01*
X142223928Y-101059236D01*
X142195860Y-101062000D01*
X140382140Y-101062000D01*
X140354072Y-101059236D01*
X140332991Y-101052840D01*
X140313555Y-101042452D01*
X140296524Y-101028476D01*
X140282548Y-101011445D01*
X140272160Y-100992009D01*
X140265764Y-100970928D01*
X140263000Y-100942860D01*
X140263000Y-100479140D01*
X140265764Y-100451072D01*
X140272160Y-100429991D01*
X140282548Y-100410555D01*
X140296524Y-100393524D01*
X140313555Y-100379548D01*
X140332991Y-100369160D01*
X140354072Y-100362764D01*
X140382140Y-100360000D01*
X142195860Y-100360000D01*
X142223928Y-100362764D01*
G37*
G36*
X130579395Y-98653546D02*
G01*
X130752466Y-98725234D01*
X130752467Y-98725235D01*
X130908227Y-98829310D01*
X131040690Y-98961773D01*
X131040691Y-98961775D01*
X131144766Y-99117534D01*
X131216454Y-99290605D01*
X131253000Y-99474333D01*
X131253000Y-99661667D01*
X131216454Y-99845395D01*
X131144766Y-100018466D01*
X131144765Y-100018467D01*
X131040690Y-100174227D01*
X130908227Y-100306690D01*
X130874906Y-100328954D01*
X130752466Y-100410766D01*
X130579395Y-100482454D01*
X130395667Y-100519000D01*
X130208333Y-100519000D01*
X130024605Y-100482454D01*
X129851534Y-100410766D01*
X129729094Y-100328954D01*
X129695773Y-100306690D01*
X129563310Y-100174227D01*
X129459235Y-100018467D01*
X129459234Y-100018466D01*
X129387546Y-99845395D01*
X129351000Y-99661667D01*
X129351000Y-99474333D01*
X129387546Y-99290605D01*
X129459234Y-99117534D01*
X129563309Y-98961775D01*
X129563310Y-98961773D01*
X129695773Y-98829310D01*
X129851533Y-98725235D01*
X129851534Y-98725234D01*
X130024605Y-98653546D01*
X130208333Y-98617000D01*
X130395667Y-98617000D01*
X130579395Y-98653546D01*
G37*
G36*
X144828336Y-97258733D02*
G01*
X144858883Y-97267999D01*
X144887033Y-97283046D01*
X144911706Y-97303294D01*
X144931954Y-97327967D01*
X144947001Y-97356117D01*
X144956267Y-97386664D01*
X144960000Y-97424567D01*
X144960000Y-100187433D01*
X144956267Y-100225336D01*
X144947001Y-100255883D01*
X144931954Y-100284033D01*
X144911706Y-100308706D01*
X144887033Y-100328954D01*
X144858883Y-100344001D01*
X144828336Y-100353267D01*
X144790433Y-100357000D01*
X142737567Y-100357000D01*
X142699664Y-100353267D01*
X142669117Y-100344001D01*
X142640967Y-100328954D01*
X142616294Y-100308706D01*
X142596046Y-100284033D01*
X142580999Y-100255883D01*
X142571733Y-100225336D01*
X142568000Y-100187433D01*
X142568000Y-97424567D01*
X142571733Y-97386664D01*
X142580999Y-97356117D01*
X142596046Y-97327967D01*
X142616294Y-97303294D01*
X142640967Y-97283046D01*
X142669117Y-97267999D01*
X142699664Y-97258733D01*
X142737567Y-97255000D01*
X144790433Y-97255000D01*
X144828336Y-97258733D01*
G37*
G36*
X152854674Y-98821465D02*
G01*
X152892367Y-98832899D01*
X152927103Y-98851466D01*
X152957548Y-98876452D01*
X152982534Y-98906897D01*
X153001101Y-98941633D01*
X153012535Y-98979326D01*
X153017000Y-99024661D01*
X153017000Y-100111339D01*
X153012535Y-100156674D01*
X153001101Y-100194367D01*
X152982534Y-100229103D01*
X152957548Y-100259548D01*
X152927103Y-100284534D01*
X152892367Y-100303101D01*
X152854674Y-100314535D01*
X152809339Y-100319000D01*
X151972661Y-100319000D01*
X151927326Y-100314535D01*
X151889633Y-100303101D01*
X151854897Y-100284534D01*
X151824452Y-100259548D01*
X151799466Y-100229103D01*
X151780899Y-100194367D01*
X151769465Y-100156674D01*
X151765000Y-100111339D01*
X151765000Y-99024661D01*
X151769465Y-98979326D01*
X151780899Y-98941633D01*
X151799466Y-98906897D01*
X151824452Y-98876452D01*
X151854897Y-98851466D01*
X151889633Y-98832899D01*
X151927326Y-98821465D01*
X151972661Y-98817000D01*
X152809339Y-98817000D01*
X152854674Y-98821465D01*
G37*
G36*
X154904674Y-98821465D02*
G01*
X154942367Y-98832899D01*
X154977103Y-98851466D01*
X155007548Y-98876452D01*
X155032534Y-98906897D01*
X155051101Y-98941633D01*
X155062535Y-98979326D01*
X155067000Y-99024661D01*
X155067000Y-100111339D01*
X155062535Y-100156674D01*
X155051101Y-100194367D01*
X155032534Y-100229103D01*
X155007548Y-100259548D01*
X154977103Y-100284534D01*
X154942367Y-100303101D01*
X154904674Y-100314535D01*
X154859339Y-100319000D01*
X154022661Y-100319000D01*
X153977326Y-100314535D01*
X153939633Y-100303101D01*
X153904897Y-100284534D01*
X153874452Y-100259548D01*
X153849466Y-100229103D01*
X153830899Y-100194367D01*
X153819465Y-100156674D01*
X153815000Y-100111339D01*
X153815000Y-99024661D01*
X153819465Y-98979326D01*
X153830899Y-98941633D01*
X153849466Y-98906897D01*
X153874452Y-98876452D01*
X153904897Y-98851466D01*
X153939633Y-98832899D01*
X153977326Y-98821465D01*
X154022661Y-98817000D01*
X154859339Y-98817000D01*
X154904674Y-98821465D01*
G37*
G36*
X142223928Y-99092764D02*
G01*
X142245009Y-99099160D01*
X142264445Y-99109548D01*
X142281476Y-99123524D01*
X142295452Y-99140555D01*
X142305840Y-99159991D01*
X142312236Y-99181072D01*
X142315000Y-99209140D01*
X142315000Y-99672860D01*
X142312236Y-99700928D01*
X142305840Y-99722009D01*
X142295452Y-99741445D01*
X142281476Y-99758476D01*
X142264445Y-99772452D01*
X142245009Y-99782840D01*
X142223928Y-99789236D01*
X142195860Y-99792000D01*
X140382140Y-99792000D01*
X140354072Y-99789236D01*
X140332991Y-99782840D01*
X140313555Y-99772452D01*
X140296524Y-99758476D01*
X140282548Y-99741445D01*
X140272160Y-99722009D01*
X140265764Y-99700928D01*
X140263000Y-99672860D01*
X140263000Y-99209140D01*
X140265764Y-99181072D01*
X140272160Y-99159991D01*
X140282548Y-99140555D01*
X140296524Y-99123524D01*
X140313555Y-99109548D01*
X140332991Y-99099160D01*
X140354072Y-99092764D01*
X140382140Y-99090000D01*
X142195860Y-99090000D01*
X142223928Y-99092764D01*
G37*
G36*
X147173928Y-99092764D02*
G01*
X147195009Y-99099160D01*
X147214445Y-99109548D01*
X147231476Y-99123524D01*
X147245452Y-99140555D01*
X147255840Y-99159991D01*
X147262236Y-99181072D01*
X147265000Y-99209140D01*
X147265000Y-99672860D01*
X147262236Y-99700928D01*
X147255840Y-99722009D01*
X147245452Y-99741445D01*
X147231476Y-99758476D01*
X147214445Y-99772452D01*
X147195009Y-99782840D01*
X147173928Y-99789236D01*
X147145860Y-99792000D01*
X145332140Y-99792000D01*
X145304072Y-99789236D01*
X145282991Y-99782840D01*
X145263555Y-99772452D01*
X145246524Y-99758476D01*
X145232548Y-99741445D01*
X145222160Y-99722009D01*
X145215764Y-99700928D01*
X145213000Y-99672860D01*
X145213000Y-99209140D01*
X145215764Y-99181072D01*
X145222160Y-99159991D01*
X145232548Y-99140555D01*
X145246524Y-99123524D01*
X145263555Y-99109548D01*
X145282991Y-99099160D01*
X145304072Y-99092764D01*
X145332140Y-99090000D01*
X147145860Y-99090000D01*
X147173928Y-99092764D01*
G37*
G36*
X150448674Y-98193465D02*
G01*
X150486367Y-98204899D01*
X150521103Y-98223466D01*
X150551548Y-98248452D01*
X150576534Y-98278897D01*
X150595101Y-98313633D01*
X150606535Y-98351326D01*
X150611000Y-98396661D01*
X150611000Y-99233339D01*
X150606535Y-99278674D01*
X150595101Y-99316367D01*
X150576534Y-99351103D01*
X150551548Y-99381548D01*
X150521103Y-99406534D01*
X150486367Y-99425101D01*
X150448674Y-99436535D01*
X150403339Y-99441000D01*
X149316661Y-99441000D01*
X149271326Y-99436535D01*
X149233633Y-99425101D01*
X149198897Y-99406534D01*
X149168452Y-99381548D01*
X149143466Y-99351103D01*
X149124899Y-99316367D01*
X149113465Y-99278674D01*
X149109000Y-99233339D01*
X149109000Y-98396661D01*
X149113465Y-98351326D01*
X149124899Y-98313633D01*
X149143466Y-98278897D01*
X149168452Y-98248452D01*
X149198897Y-98223466D01*
X149233633Y-98204899D01*
X149271326Y-98193465D01*
X149316661Y-98189000D01*
X150403339Y-98189000D01*
X150448674Y-98193465D01*
G37*
G36*
X136081674Y-97043465D02*
G01*
X136119367Y-97054899D01*
X136154103Y-97073466D01*
X136184548Y-97098452D01*
X136209534Y-97128897D01*
X136228101Y-97163633D01*
X136239535Y-97201326D01*
X136244000Y-97246661D01*
X136244000Y-98333339D01*
X136239535Y-98378674D01*
X136228101Y-98416367D01*
X136209534Y-98451103D01*
X136184548Y-98481548D01*
X136154103Y-98506534D01*
X136119367Y-98525101D01*
X136081674Y-98536535D01*
X136036339Y-98541000D01*
X135199661Y-98541000D01*
X135154326Y-98536535D01*
X135116633Y-98525101D01*
X135081897Y-98506534D01*
X135051452Y-98481548D01*
X135026466Y-98451103D01*
X135007899Y-98416367D01*
X134996465Y-98378674D01*
X134992000Y-98333339D01*
X134992000Y-97246661D01*
X134996465Y-97201326D01*
X135007899Y-97163633D01*
X135026466Y-97128897D01*
X135051452Y-97098452D01*
X135081897Y-97073466D01*
X135116633Y-97054899D01*
X135154326Y-97043465D01*
X135199661Y-97039000D01*
X136036339Y-97039000D01*
X136081674Y-97043465D01*
G37*
G36*
X138131674Y-97043465D02*
G01*
X138169367Y-97054899D01*
X138204103Y-97073466D01*
X138234548Y-97098452D01*
X138259534Y-97128897D01*
X138278101Y-97163633D01*
X138289535Y-97201326D01*
X138294000Y-97246661D01*
X138294000Y-98333339D01*
X138289535Y-98378674D01*
X138278101Y-98416367D01*
X138259534Y-98451103D01*
X138234548Y-98481548D01*
X138204103Y-98506534D01*
X138169367Y-98525101D01*
X138131674Y-98536535D01*
X138086339Y-98541000D01*
X137249661Y-98541000D01*
X137204326Y-98536535D01*
X137166633Y-98525101D01*
X137131897Y-98506534D01*
X137101452Y-98481548D01*
X137076466Y-98451103D01*
X137057899Y-98416367D01*
X137046465Y-98378674D01*
X137042000Y-98333339D01*
X137042000Y-97246661D01*
X137046465Y-97201326D01*
X137057899Y-97163633D01*
X137076466Y-97128897D01*
X137101452Y-97098452D01*
X137131897Y-97073466D01*
X137166633Y-97054899D01*
X137204326Y-97043465D01*
X137249661Y-97039000D01*
X138086339Y-97039000D01*
X138131674Y-97043465D01*
G37*
G36*
X142223928Y-97822764D02*
G01*
X142245009Y-97829160D01*
X142264445Y-97839548D01*
X142281476Y-97853524D01*
X142295452Y-97870555D01*
X142305840Y-97889991D01*
X142312236Y-97911072D01*
X142315000Y-97939140D01*
X142315000Y-98402860D01*
X142312236Y-98430928D01*
X142305840Y-98452009D01*
X142295452Y-98471445D01*
X142281476Y-98488476D01*
X142264445Y-98502452D01*
X142245009Y-98512840D01*
X142223928Y-98519236D01*
X142195860Y-98522000D01*
X140382140Y-98522000D01*
X140354072Y-98519236D01*
X140332991Y-98512840D01*
X140313555Y-98502452D01*
X140296524Y-98488476D01*
X140282548Y-98471445D01*
X140272160Y-98452009D01*
X140265764Y-98430928D01*
X140263000Y-98402860D01*
X140263000Y-97939140D01*
X140265764Y-97911072D01*
X140272160Y-97889991D01*
X140282548Y-97870555D01*
X140296524Y-97853524D01*
X140313555Y-97839548D01*
X140332991Y-97829160D01*
X140354072Y-97822764D01*
X140382140Y-97820000D01*
X142195860Y-97820000D01*
X142223928Y-97822764D01*
G37*
G36*
X147173928Y-97822764D02*
G01*
X147195009Y-97829160D01*
X147214445Y-97839548D01*
X147231476Y-97853524D01*
X147245452Y-97870555D01*
X147255840Y-97889991D01*
X147262236Y-97911072D01*
X147265000Y-97939140D01*
X147265000Y-98402860D01*
X147262236Y-98430928D01*
X147255840Y-98452009D01*
X147245452Y-98471445D01*
X147231476Y-98488476D01*
X147214445Y-98502452D01*
X147195009Y-98512840D01*
X147173928Y-98519236D01*
X147145860Y-98522000D01*
X145332140Y-98522000D01*
X145304072Y-98519236D01*
X145282991Y-98512840D01*
X145263555Y-98502452D01*
X145246524Y-98488476D01*
X145232548Y-98471445D01*
X145222160Y-98452009D01*
X145215764Y-98430928D01*
X145213000Y-98402860D01*
X145213000Y-97939140D01*
X145215764Y-97911072D01*
X145222160Y-97889991D01*
X145232548Y-97870555D01*
X145246524Y-97853524D01*
X145263555Y-97839548D01*
X145282991Y-97829160D01*
X145304072Y-97822764D01*
X145332140Y-97820000D01*
X147145860Y-97820000D01*
X147173928Y-97822764D01*
G37*
G36*
X159905000Y-98183000D02*
G01*
X158103000Y-98183000D01*
X158103000Y-96381000D01*
X159905000Y-96381000D01*
X159905000Y-98183000D01*
G37*
G36*
X131253000Y-97979000D02*
G01*
X129351000Y-97979000D01*
X129351000Y-96077000D01*
X131253000Y-96077000D01*
X131253000Y-97979000D01*
G37*
G36*
X150448674Y-96143465D02*
G01*
X150486367Y-96154899D01*
X150521103Y-96173466D01*
X150551548Y-96198452D01*
X150576534Y-96228897D01*
X150595101Y-96263633D01*
X150606535Y-96301326D01*
X150611000Y-96346661D01*
X150611000Y-97183339D01*
X150606535Y-97228674D01*
X150595101Y-97266367D01*
X150576534Y-97301103D01*
X150551548Y-97331548D01*
X150521103Y-97356534D01*
X150486367Y-97375101D01*
X150448674Y-97386535D01*
X150403339Y-97391000D01*
X149316661Y-97391000D01*
X149271326Y-97386535D01*
X149233633Y-97375101D01*
X149198897Y-97356534D01*
X149168452Y-97331548D01*
X149143466Y-97301103D01*
X149124899Y-97266367D01*
X149113465Y-97228674D01*
X149109000Y-97183339D01*
X149109000Y-96346661D01*
X149113465Y-96301326D01*
X149124899Y-96263633D01*
X149143466Y-96228897D01*
X149168452Y-96198452D01*
X149198897Y-96173466D01*
X149233633Y-96154899D01*
X149271326Y-96143465D01*
X149316661Y-96139000D01*
X150403339Y-96139000D01*
X150448674Y-96143465D01*
G37*
G36*
X147173928Y-96552764D02*
G01*
X147195009Y-96559160D01*
X147214445Y-96569548D01*
X147231476Y-96583524D01*
X147245452Y-96600555D01*
X147255840Y-96619991D01*
X147262236Y-96641072D01*
X147265000Y-96669140D01*
X147265000Y-97132860D01*
X147262236Y-97160928D01*
X147255840Y-97182009D01*
X147245452Y-97201445D01*
X147231476Y-97218476D01*
X147214445Y-97232452D01*
X147195009Y-97242840D01*
X147173928Y-97249236D01*
X147145860Y-97252000D01*
X145332140Y-97252000D01*
X145304072Y-97249236D01*
X145282991Y-97242840D01*
X145263555Y-97232452D01*
X145246524Y-97218476D01*
X145232548Y-97201445D01*
X145222160Y-97182009D01*
X145215764Y-97160928D01*
X145213000Y-97132860D01*
X145213000Y-96669140D01*
X145215764Y-96641072D01*
X145222160Y-96619991D01*
X145232548Y-96600555D01*
X145246524Y-96583524D01*
X145263555Y-96569548D01*
X145282991Y-96559160D01*
X145304072Y-96552764D01*
X145332140Y-96550000D01*
X147145860Y-96550000D01*
X147173928Y-96552764D01*
G37*
G36*
X142223928Y-96552764D02*
G01*
X142245009Y-96559160D01*
X142264445Y-96569548D01*
X142281476Y-96583524D01*
X142295452Y-96600555D01*
X142305840Y-96619991D01*
X142312236Y-96641072D01*
X142315000Y-96669140D01*
X142315000Y-97132860D01*
X142312236Y-97160928D01*
X142305840Y-97182009D01*
X142295452Y-97201445D01*
X142281476Y-97218476D01*
X142264445Y-97232452D01*
X142245009Y-97242840D01*
X142223928Y-97249236D01*
X142195860Y-97252000D01*
X140382140Y-97252000D01*
X140354072Y-97249236D01*
X140332991Y-97242840D01*
X140313555Y-97232452D01*
X140296524Y-97218476D01*
X140282548Y-97201445D01*
X140272160Y-97182009D01*
X140265764Y-97160928D01*
X140263000Y-97132860D01*
X140263000Y-96669140D01*
X140265764Y-96641072D01*
X140272160Y-96619991D01*
X140282548Y-96600555D01*
X140296524Y-96583524D01*
X140313555Y-96569548D01*
X140332991Y-96559160D01*
X140354072Y-96552764D01*
X140382140Y-96550000D01*
X142195860Y-96550000D01*
X142223928Y-96552764D01*
G37*
G36*
X154045256Y-93133298D02*
G01*
X154151579Y-93154447D01*
X154452042Y-93278903D01*
X154722451Y-93459585D01*
X154952415Y-93689549D01*
X155133097Y-93959958D01*
X155257553Y-94260421D01*
X155268452Y-94315216D01*
X155321000Y-94579389D01*
X155321000Y-94904611D01*
X155301031Y-95005000D01*
X155257553Y-95223579D01*
X155133097Y-95524042D01*
X154952415Y-95794451D01*
X154722451Y-96024415D01*
X154452042Y-96205097D01*
X154151579Y-96329553D01*
X154065571Y-96346661D01*
X153832611Y-96393000D01*
X153507389Y-96393000D01*
X153274429Y-96346661D01*
X153188421Y-96329553D01*
X152887958Y-96205097D01*
X152617549Y-96024415D01*
X152387585Y-95794451D01*
X152206903Y-95524042D01*
X152082447Y-95223579D01*
X152038969Y-95005000D01*
X152019000Y-94904611D01*
X152019000Y-94579389D01*
X152071548Y-94315216D01*
X152082447Y-94260421D01*
X152206903Y-93959958D01*
X152387585Y-93689549D01*
X152617549Y-93459585D01*
X152887958Y-93278903D01*
X153188421Y-93154447D01*
X153294744Y-93133298D01*
X153507389Y-93091000D01*
X153832611Y-93091000D01*
X154045256Y-93133298D01*
G37*
G36*
X138140674Y-94249465D02*
G01*
X138178367Y-94260899D01*
X138213103Y-94279466D01*
X138243548Y-94304452D01*
X138268534Y-94334897D01*
X138287101Y-94369633D01*
X138298535Y-94407326D01*
X138303000Y-94452661D01*
X138303000Y-95539339D01*
X138298535Y-95584674D01*
X138287101Y-95622367D01*
X138268534Y-95657103D01*
X138243548Y-95687548D01*
X138213103Y-95712534D01*
X138178367Y-95731101D01*
X138140674Y-95742535D01*
X138095339Y-95747000D01*
X137258661Y-95747000D01*
X137213326Y-95742535D01*
X137175633Y-95731101D01*
X137140897Y-95712534D01*
X137110452Y-95687548D01*
X137085466Y-95657103D01*
X137066899Y-95622367D01*
X137055465Y-95584674D01*
X137051000Y-95539339D01*
X137051000Y-94452661D01*
X137055465Y-94407326D01*
X137066899Y-94369633D01*
X137085466Y-94334897D01*
X137110452Y-94304452D01*
X137140897Y-94279466D01*
X137175633Y-94260899D01*
X137213326Y-94249465D01*
X137258661Y-94245000D01*
X138095339Y-94245000D01*
X138140674Y-94249465D01*
G37*
G36*
X136090674Y-94249465D02*
G01*
X136128367Y-94260899D01*
X136163103Y-94279466D01*
X136193548Y-94304452D01*
X136218534Y-94334897D01*
X136237101Y-94369633D01*
X136248535Y-94407326D01*
X136253000Y-94452661D01*
X136253000Y-95539339D01*
X136248535Y-95584674D01*
X136237101Y-95622367D01*
X136218534Y-95657103D01*
X136193548Y-95687548D01*
X136163103Y-95712534D01*
X136128367Y-95731101D01*
X136090674Y-95742535D01*
X136045339Y-95747000D01*
X135208661Y-95747000D01*
X135163326Y-95742535D01*
X135125633Y-95731101D01*
X135090897Y-95712534D01*
X135060452Y-95687548D01*
X135035466Y-95657103D01*
X135016899Y-95622367D01*
X135005465Y-95584674D01*
X135001000Y-95539339D01*
X135001000Y-94452661D01*
X135005465Y-94407326D01*
X135016899Y-94369633D01*
X135035466Y-94334897D01*
X135060452Y-94304452D01*
X135090897Y-94279466D01*
X135125633Y-94260899D01*
X135163326Y-94249465D01*
X135208661Y-94245000D01*
X136045339Y-94245000D01*
X136090674Y-94249465D01*
G37*
G36*
X159117512Y-93845927D02*
G01*
X159266812Y-93875624D01*
X159430784Y-93943544D01*
X159578354Y-94042147D01*
X159703853Y-94167646D01*
X159802456Y-94315216D01*
X159870376Y-94479188D01*
X159905000Y-94653259D01*
X159905000Y-94830741D01*
X159870376Y-95004812D01*
X159802456Y-95168784D01*
X159703853Y-95316354D01*
X159578354Y-95441853D01*
X159430784Y-95540456D01*
X159266812Y-95608376D01*
X159117512Y-95638073D01*
X159092742Y-95643000D01*
X158915258Y-95643000D01*
X158890488Y-95638073D01*
X158741188Y-95608376D01*
X158577216Y-95540456D01*
X158429646Y-95441853D01*
X158304147Y-95316354D01*
X158205544Y-95168784D01*
X158137624Y-95004812D01*
X158103000Y-94830741D01*
X158103000Y-94653259D01*
X158137624Y-94479188D01*
X158205544Y-94315216D01*
X158304147Y-94167646D01*
X158429646Y-94042147D01*
X158577216Y-93943544D01*
X158741188Y-93875624D01*
X158890488Y-93845927D01*
X158915258Y-93841000D01*
X159092742Y-93841000D01*
X159117512Y-93845927D01*
G37*
G36*
X143889589Y-93472876D02*
G01*
X143988893Y-93492629D01*
X144129206Y-93550748D01*
X144255484Y-93635125D01*
X144362875Y-93742516D01*
X144447252Y-93868794D01*
X144505371Y-94009107D01*
X144535000Y-94158063D01*
X144535000Y-94309937D01*
X144505371Y-94458893D01*
X144447252Y-94599206D01*
X144362875Y-94725484D01*
X144255484Y-94832875D01*
X144129206Y-94917252D01*
X143988893Y-94975371D01*
X143889589Y-94995124D01*
X143839938Y-95005000D01*
X143688062Y-95005000D01*
X143638411Y-94995124D01*
X143539107Y-94975371D01*
X143398794Y-94917252D01*
X143272516Y-94832875D01*
X143165125Y-94725484D01*
X143080748Y-94599206D01*
X143022629Y-94458893D01*
X142993000Y-94309937D01*
X142993000Y-94158063D01*
X143022629Y-94009107D01*
X143080748Y-93868794D01*
X143165125Y-93742516D01*
X143272516Y-93635125D01*
X143398794Y-93550748D01*
X143539107Y-93492629D01*
X143638411Y-93472876D01*
X143688062Y-93463000D01*
X143839938Y-93463000D01*
X143889589Y-93472876D01*
G37*
G36*
X131253000Y-93661000D02*
G01*
X129351000Y-93661000D01*
X129351000Y-91759000D01*
X131253000Y-91759000D01*
X131253000Y-93661000D01*
G37*
G36*
X150448674Y-92351465D02*
G01*
X150486367Y-92362899D01*
X150521103Y-92381466D01*
X150551548Y-92406452D01*
X150576534Y-92436897D01*
X150595101Y-92471633D01*
X150606535Y-92509326D01*
X150611000Y-92554661D01*
X150611000Y-93391339D01*
X150606535Y-93436674D01*
X150595101Y-93474367D01*
X150576534Y-93509103D01*
X150551548Y-93539548D01*
X150521103Y-93564534D01*
X150486367Y-93583101D01*
X150448674Y-93594535D01*
X150403339Y-93599000D01*
X149316661Y-93599000D01*
X149271326Y-93594535D01*
X149233633Y-93583101D01*
X149198897Y-93564534D01*
X149168452Y-93539548D01*
X149143466Y-93509103D01*
X149124899Y-93474367D01*
X149113465Y-93436674D01*
X149109000Y-93391339D01*
X149109000Y-92554661D01*
X149113465Y-92509326D01*
X149124899Y-92471633D01*
X149143466Y-92436897D01*
X149168452Y-92406452D01*
X149198897Y-92381466D01*
X149233633Y-92362899D01*
X149271326Y-92351465D01*
X149316661Y-92347000D01*
X150403339Y-92347000D01*
X150448674Y-92351465D01*
G37*
G36*
X159117512Y-91305927D02*
G01*
X159266812Y-91335624D01*
X159430784Y-91403544D01*
X159578354Y-91502147D01*
X159703853Y-91627646D01*
X159802456Y-91775216D01*
X159870376Y-91939188D01*
X159905000Y-92113259D01*
X159905000Y-92290741D01*
X159870376Y-92464812D01*
X159802456Y-92628784D01*
X159703853Y-92776354D01*
X159578354Y-92901853D01*
X159430784Y-93000456D01*
X159266812Y-93068376D01*
X159117512Y-93098073D01*
X159092742Y-93103000D01*
X158915258Y-93103000D01*
X158890488Y-93098073D01*
X158741188Y-93068376D01*
X158577216Y-93000456D01*
X158429646Y-92901853D01*
X158304147Y-92776354D01*
X158205544Y-92628784D01*
X158137624Y-92464812D01*
X158103000Y-92290741D01*
X158103000Y-92113259D01*
X158137624Y-91939188D01*
X158205544Y-91775216D01*
X158304147Y-91627646D01*
X158429646Y-91502147D01*
X158577216Y-91403544D01*
X158741188Y-91335624D01*
X158890488Y-91305927D01*
X158915258Y-91301000D01*
X159092742Y-91301000D01*
X159117512Y-91305927D01*
G37*
G36*
X138140674Y-91455465D02*
G01*
X138178367Y-91466899D01*
X138213103Y-91485466D01*
X138243548Y-91510452D01*
X138268534Y-91540897D01*
X138287101Y-91575633D01*
X138298535Y-91613326D01*
X138303000Y-91658661D01*
X138303000Y-92745339D01*
X138298535Y-92790674D01*
X138287101Y-92828367D01*
X138268534Y-92863103D01*
X138243548Y-92893548D01*
X138213103Y-92918534D01*
X138178367Y-92937101D01*
X138140674Y-92948535D01*
X138095339Y-92953000D01*
X137258661Y-92953000D01*
X137213326Y-92948535D01*
X137175633Y-92937101D01*
X137140897Y-92918534D01*
X137110452Y-92893548D01*
X137085466Y-92863103D01*
X137066899Y-92828367D01*
X137055465Y-92790674D01*
X137051000Y-92745339D01*
X137051000Y-91658661D01*
X137055465Y-91613326D01*
X137066899Y-91575633D01*
X137085466Y-91540897D01*
X137110452Y-91510452D01*
X137140897Y-91485466D01*
X137175633Y-91466899D01*
X137213326Y-91455465D01*
X137258661Y-91451000D01*
X138095339Y-91451000D01*
X138140674Y-91455465D01*
G37*
G36*
X136090674Y-91455465D02*
G01*
X136128367Y-91466899D01*
X136163103Y-91485466D01*
X136193548Y-91510452D01*
X136218534Y-91540897D01*
X136237101Y-91575633D01*
X136248535Y-91613326D01*
X136253000Y-91658661D01*
X136253000Y-92745339D01*
X136248535Y-92790674D01*
X136237101Y-92828367D01*
X136218534Y-92863103D01*
X136193548Y-92893548D01*
X136163103Y-92918534D01*
X136128367Y-92937101D01*
X136090674Y-92948535D01*
X136045339Y-92953000D01*
X135208661Y-92953000D01*
X135163326Y-92948535D01*
X135125633Y-92937101D01*
X135090897Y-92918534D01*
X135060452Y-92893548D01*
X135035466Y-92863103D01*
X135016899Y-92828367D01*
X135005465Y-92790674D01*
X135001000Y-92745339D01*
X135001000Y-91658661D01*
X135005465Y-91613326D01*
X135016899Y-91575633D01*
X135035466Y-91540897D01*
X135060452Y-91510452D01*
X135090897Y-91485466D01*
X135125633Y-91466899D01*
X135163326Y-91455465D01*
X135208661Y-91451000D01*
X136045339Y-91451000D01*
X136090674Y-91455465D01*
G37*
G36*
X146429589Y-90932876D02*
G01*
X146528893Y-90952629D01*
X146669206Y-91010748D01*
X146795484Y-91095125D01*
X146902875Y-91202516D01*
X146987252Y-91328794D01*
X147045371Y-91469107D01*
X147075000Y-91618063D01*
X147075000Y-91769937D01*
X147045371Y-91918893D01*
X146987252Y-92059206D01*
X146902875Y-92185484D01*
X146795484Y-92292875D01*
X146669206Y-92377252D01*
X146528893Y-92435371D01*
X146429589Y-92455124D01*
X146379938Y-92465000D01*
X146228062Y-92465000D01*
X146178411Y-92455124D01*
X146079107Y-92435371D01*
X145938794Y-92377252D01*
X145812516Y-92292875D01*
X145705125Y-92185484D01*
X145620748Y-92059206D01*
X145562629Y-91918893D01*
X145533000Y-91769937D01*
X145533000Y-91618063D01*
X145562629Y-91469107D01*
X145620748Y-91328794D01*
X145705125Y-91202516D01*
X145812516Y-91095125D01*
X145938794Y-91010748D01*
X146079107Y-90952629D01*
X146178411Y-90932876D01*
X146228062Y-90923000D01*
X146379938Y-90923000D01*
X146429589Y-90932876D01*
G37*
G36*
X141349589Y-90932876D02*
G01*
X141448893Y-90952629D01*
X141589206Y-91010748D01*
X141715484Y-91095125D01*
X141822875Y-91202516D01*
X141907252Y-91328794D01*
X141965371Y-91469107D01*
X141995000Y-91618063D01*
X141995000Y-91769937D01*
X141965371Y-91918893D01*
X141907252Y-92059206D01*
X141822875Y-92185484D01*
X141715484Y-92292875D01*
X141589206Y-92377252D01*
X141448893Y-92435371D01*
X141349589Y-92455124D01*
X141299938Y-92465000D01*
X141148062Y-92465000D01*
X141098411Y-92455124D01*
X140999107Y-92435371D01*
X140858794Y-92377252D01*
X140732516Y-92292875D01*
X140625125Y-92185484D01*
X140540748Y-92059206D01*
X140482629Y-91918893D01*
X140453000Y-91769937D01*
X140453000Y-91618063D01*
X140482629Y-91469107D01*
X140540748Y-91328794D01*
X140625125Y-91202516D01*
X140732516Y-91095125D01*
X140858794Y-91010748D01*
X140999107Y-90952629D01*
X141098411Y-90932876D01*
X141148062Y-90923000D01*
X141299938Y-90923000D01*
X141349589Y-90932876D01*
G37*
G36*
X150448674Y-90301465D02*
G01*
X150486367Y-90312899D01*
X150521103Y-90331466D01*
X150551548Y-90356452D01*
X150576534Y-90386897D01*
X150595101Y-90421633D01*
X150606535Y-90459326D01*
X150611000Y-90504661D01*
X150611000Y-91341339D01*
X150606535Y-91386674D01*
X150595101Y-91424367D01*
X150576534Y-91459103D01*
X150551548Y-91489548D01*
X150521103Y-91514534D01*
X150486367Y-91533101D01*
X150448674Y-91544535D01*
X150403339Y-91549000D01*
X149316661Y-91549000D01*
X149271326Y-91544535D01*
X149233633Y-91533101D01*
X149198897Y-91514534D01*
X149168452Y-91489548D01*
X149143466Y-91459103D01*
X149124899Y-91424367D01*
X149113465Y-91386674D01*
X149109000Y-91341339D01*
X149109000Y-90504661D01*
X149113465Y-90459326D01*
X149124899Y-90421633D01*
X149143466Y-90386897D01*
X149168452Y-90356452D01*
X149198897Y-90331466D01*
X149233633Y-90312899D01*
X149271326Y-90301465D01*
X149316661Y-90297000D01*
X150403339Y-90297000D01*
X150448674Y-90301465D01*
G37*
G36*
X130579395Y-89255546D02*
G01*
X130752466Y-89327234D01*
X130752467Y-89327235D01*
X130908227Y-89431310D01*
X131040690Y-89563773D01*
X131040691Y-89563775D01*
X131144766Y-89719534D01*
X131216454Y-89892605D01*
X131253000Y-90076333D01*
X131253000Y-90263667D01*
X131216454Y-90447395D01*
X131144766Y-90620466D01*
X131144765Y-90620467D01*
X131040690Y-90776227D01*
X130908227Y-90908690D01*
X130886810Y-90923000D01*
X130752466Y-91012766D01*
X130579395Y-91084454D01*
X130395667Y-91121000D01*
X130208333Y-91121000D01*
X130024605Y-91084454D01*
X129851534Y-91012766D01*
X129717190Y-90923000D01*
X129695773Y-90908690D01*
X129563310Y-90776227D01*
X129459235Y-90620467D01*
X129459234Y-90620466D01*
X129387546Y-90447395D01*
X129351000Y-90263667D01*
X129351000Y-90076333D01*
X129387546Y-89892605D01*
X129459234Y-89719534D01*
X129563309Y-89563775D01*
X129563310Y-89563773D01*
X129695773Y-89431310D01*
X129851533Y-89327235D01*
X129851534Y-89327234D01*
X130024605Y-89255546D01*
X130208333Y-89219000D01*
X130395667Y-89219000D01*
X130579395Y-89255546D01*
G37*
G36*
X154904674Y-89423465D02*
G01*
X154942367Y-89434899D01*
X154977103Y-89453466D01*
X155007548Y-89478452D01*
X155032534Y-89508897D01*
X155051101Y-89543633D01*
X155062535Y-89581326D01*
X155067000Y-89626661D01*
X155067000Y-90713339D01*
X155062535Y-90758674D01*
X155051101Y-90796367D01*
X155032534Y-90831103D01*
X155007548Y-90861548D01*
X154977103Y-90886534D01*
X154942367Y-90905101D01*
X154904674Y-90916535D01*
X154859339Y-90921000D01*
X154022661Y-90921000D01*
X153977326Y-90916535D01*
X153939633Y-90905101D01*
X153904897Y-90886534D01*
X153874452Y-90861548D01*
X153849466Y-90831103D01*
X153830899Y-90796367D01*
X153819465Y-90758674D01*
X153815000Y-90713339D01*
X153815000Y-89626661D01*
X153819465Y-89581326D01*
X153830899Y-89543633D01*
X153849466Y-89508897D01*
X153874452Y-89478452D01*
X153904897Y-89453466D01*
X153939633Y-89434899D01*
X153977326Y-89423465D01*
X154022661Y-89419000D01*
X154859339Y-89419000D01*
X154904674Y-89423465D01*
G37*
G36*
X152854674Y-89423465D02*
G01*
X152892367Y-89434899D01*
X152927103Y-89453466D01*
X152957548Y-89478452D01*
X152982534Y-89508897D01*
X153001101Y-89543633D01*
X153012535Y-89581326D01*
X153017000Y-89626661D01*
X153017000Y-90713339D01*
X153012535Y-90758674D01*
X153001101Y-90796367D01*
X152982534Y-90831103D01*
X152957548Y-90861548D01*
X152927103Y-90886534D01*
X152892367Y-90905101D01*
X152854674Y-90916535D01*
X152809339Y-90921000D01*
X151972661Y-90921000D01*
X151927326Y-90916535D01*
X151889633Y-90905101D01*
X151854897Y-90886534D01*
X151824452Y-90861548D01*
X151799466Y-90831103D01*
X151780899Y-90796367D01*
X151769465Y-90758674D01*
X151765000Y-90713339D01*
X151765000Y-89626661D01*
X151769465Y-89581326D01*
X151780899Y-89543633D01*
X151799466Y-89508897D01*
X151824452Y-89478452D01*
X151854897Y-89453466D01*
X151889633Y-89434899D01*
X151927326Y-89423465D01*
X151972661Y-89419000D01*
X152809339Y-89419000D01*
X152854674Y-89423465D01*
G37*
G36*
X138140674Y-88641066D02*
G01*
X138178367Y-88652500D01*
X138213103Y-88671067D01*
X138243548Y-88696053D01*
X138268534Y-88726498D01*
X138287101Y-88761234D01*
X138298535Y-88798927D01*
X138303000Y-88844262D01*
X138303000Y-89930940D01*
X138298535Y-89976275D01*
X138287101Y-90013968D01*
X138268534Y-90048704D01*
X138243548Y-90079149D01*
X138213103Y-90104135D01*
X138178367Y-90122702D01*
X138140674Y-90134136D01*
X138095339Y-90138601D01*
X137258661Y-90138601D01*
X137213326Y-90134136D01*
X137175633Y-90122702D01*
X137140897Y-90104135D01*
X137110452Y-90079149D01*
X137085466Y-90048704D01*
X137066899Y-90013968D01*
X137055465Y-89976275D01*
X137051000Y-89930940D01*
X137051000Y-88844262D01*
X137055465Y-88798927D01*
X137066899Y-88761234D01*
X137085466Y-88726498D01*
X137110452Y-88696053D01*
X137140897Y-88671067D01*
X137175633Y-88652500D01*
X137213326Y-88641066D01*
X137258661Y-88636601D01*
X138095339Y-88636601D01*
X138140674Y-88641066D01*
G37*
G36*
X136090674Y-88641066D02*
G01*
X136128367Y-88652500D01*
X136163103Y-88671067D01*
X136193548Y-88696053D01*
X136218534Y-88726498D01*
X136237101Y-88761234D01*
X136248535Y-88798927D01*
X136253000Y-88844262D01*
X136253000Y-89930940D01*
X136248535Y-89976275D01*
X136237101Y-90013968D01*
X136218534Y-90048704D01*
X136193548Y-90079149D01*
X136163103Y-90104135D01*
X136128367Y-90122702D01*
X136090674Y-90134136D01*
X136045339Y-90138601D01*
X135208661Y-90138601D01*
X135163326Y-90134136D01*
X135125633Y-90122702D01*
X135090897Y-90104135D01*
X135060452Y-90079149D01*
X135035466Y-90048704D01*
X135016899Y-90013968D01*
X135005465Y-89976275D01*
X135001000Y-89930940D01*
X135001000Y-88844262D01*
X135005465Y-88798927D01*
X135016899Y-88761234D01*
X135035466Y-88726498D01*
X135060452Y-88696053D01*
X135090897Y-88671067D01*
X135125633Y-88652500D01*
X135163326Y-88641066D01*
X135208661Y-88636601D01*
X136045339Y-88636601D01*
X136090674Y-88641066D01*
G37*
M02*
