M48
; DRILL file {KiCad 5.1.5-52549c5~86~ubuntu16.04.1} date Mon Jul 27 16:21:38 2020
; FORMAT={-:-/ absolute / inch / decimal}
; #@! TF.CreationDate,2020-07-27T16:21:38+05:30
; #@! TF.GenerationSoftware,Kicad,Pcbnew,5.1.5-52549c5~86~ubuntu16.04.1
FMAT,2
INCH
T1C0.0150
T2C0.0315
T3C0.0354
T4C0.0394
T5C0.1260
%
G90
G05
T1
X5.2608Y-3.5192
X5.27Y-3.66
X5.47Y-3.85
X5.49Y-3.693
X5.7103Y-3.8094
X5.77Y-3.71
X5.83Y-3.82
X5.84Y-3.9
X5.84Y-3.97
X5.904Y-3.524
T2
X5.56Y-3.61
X5.66Y-3.71
X5.76Y-3.61
T3
X5.13Y-3.82
X5.13Y-3.92
X5.13Y-3.55
X5.13Y-3.65
T4
X6.26Y-3.63
X6.26Y-3.73
X6.26Y-3.83
T5
X6.05Y-3.73
T0
M30
