G04 #@! TF.GenerationSoftware,KiCad,Pcbnew,5.1.5-52549c5~86~ubuntu16.04.1*
G04 #@! TF.CreationDate,2020-07-29T15:08:35+05:30*
G04 #@! TF.ProjectId,MQxx Gas Sensor V1.0,4d517878-2047-4617-9320-53656e736f72,V1.0*
G04 #@! TF.SameCoordinates,Original*
G04 #@! TF.FileFunction,Legend,Top*
G04 #@! TF.FilePolarity,Positive*
%FSLAX46Y46*%
G04 Gerber Fmt 4.6, Leading zero omitted, Abs format (unit mm)*
G04 Created by KiCad (PCBNEW 5.1.5-52549c5~86~ubuntu16.04.1) date 2020-07-29 15:08:35*
%MOMM*%
%LPD*%
G04 APERTURE LIST*
%ADD10C,0.150000*%
%ADD11C,0.149860*%
%ADD12C,0.250000*%
%ADD13C,0.120000*%
G04 APERTURE END LIST*
D10*
X138611428Y-95594714D02*
X138611428Y-94832714D01*
X138792857Y-94832714D01*
X138901714Y-94869000D01*
X138974285Y-94941571D01*
X139010571Y-95014142D01*
X139046857Y-95159285D01*
X139046857Y-95268142D01*
X139010571Y-95413285D01*
X138974285Y-95485857D01*
X138901714Y-95558428D01*
X138792857Y-95594714D01*
X138611428Y-95594714D01*
X139518571Y-94832714D02*
X139663714Y-94832714D01*
X139736285Y-94869000D01*
X139808857Y-94941571D01*
X139845142Y-95086714D01*
X139845142Y-95340714D01*
X139808857Y-95485857D01*
X139736285Y-95558428D01*
X139663714Y-95594714D01*
X139518571Y-95594714D01*
X139446000Y-95558428D01*
X139373428Y-95485857D01*
X139337142Y-95340714D01*
X139337142Y-95086714D01*
X139373428Y-94941571D01*
X139446000Y-94869000D01*
X139518571Y-94832714D01*
X140171714Y-95304428D02*
X140752285Y-95304428D01*
X141478000Y-95594714D02*
X141115142Y-95594714D01*
X141115142Y-94832714D01*
X141732000Y-95195571D02*
X141986000Y-95195571D01*
X142094857Y-95594714D02*
X141732000Y-95594714D01*
X141732000Y-94832714D01*
X142094857Y-94832714D01*
X142421428Y-95594714D02*
X142421428Y-94832714D01*
X142602857Y-94832714D01*
X142711714Y-94869000D01*
X142784285Y-94941571D01*
X142820571Y-95014142D01*
X142856857Y-95159285D01*
X142856857Y-95268142D01*
X142820571Y-95413285D01*
X142784285Y-95485857D01*
X142711714Y-95558428D01*
X142602857Y-95594714D01*
X142421428Y-95594714D01*
D11*
X138575142Y-83021714D02*
X138575142Y-82259714D01*
X138865428Y-82259714D01*
X138938000Y-82296000D01*
X138974285Y-82332285D01*
X139010571Y-82404857D01*
X139010571Y-82513714D01*
X138974285Y-82586285D01*
X138938000Y-82622571D01*
X138865428Y-82658857D01*
X138575142Y-82658857D01*
X139264571Y-82259714D02*
X139446000Y-83021714D01*
X139591142Y-82477428D01*
X139736285Y-83021714D01*
X139917714Y-82259714D01*
X140643428Y-83021714D02*
X140389428Y-82658857D01*
X140208000Y-83021714D02*
X140208000Y-82259714D01*
X140498285Y-82259714D01*
X140570857Y-82296000D01*
X140607142Y-82332285D01*
X140643428Y-82404857D01*
X140643428Y-82513714D01*
X140607142Y-82586285D01*
X140570857Y-82622571D01*
X140498285Y-82658857D01*
X140208000Y-82658857D01*
X140970000Y-82731428D02*
X141550571Y-82731428D01*
X142276285Y-83021714D02*
X141913428Y-83021714D01*
X141913428Y-82259714D01*
X142530285Y-82622571D02*
X142784285Y-82622571D01*
X142893142Y-83021714D02*
X142530285Y-83021714D01*
X142530285Y-82259714D01*
X142893142Y-82259714D01*
X143219714Y-83021714D02*
X143219714Y-82259714D01*
X143401142Y-82259714D01*
X143510000Y-82296000D01*
X143582571Y-82368571D01*
X143618857Y-82441142D01*
X143655142Y-82586285D01*
X143655142Y-82695142D01*
X143618857Y-82840285D01*
X143582571Y-82912857D01*
X143510000Y-82985428D01*
X143401142Y-83021714D01*
X143219714Y-83021714D01*
X152998714Y-85852000D02*
X153760714Y-85598000D01*
X152998714Y-85344000D01*
X153688142Y-84654571D02*
X153724428Y-84690857D01*
X153760714Y-84799714D01*
X153760714Y-84872285D01*
X153724428Y-84981142D01*
X153651857Y-85053714D01*
X153579285Y-85090000D01*
X153434142Y-85126285D01*
X153325285Y-85126285D01*
X153180142Y-85090000D01*
X153107571Y-85053714D01*
X153035000Y-84981142D01*
X152998714Y-84872285D01*
X152998714Y-84799714D01*
X153035000Y-84690857D01*
X153071285Y-84654571D01*
X153688142Y-83892571D02*
X153724428Y-83928857D01*
X153760714Y-84037714D01*
X153760714Y-84110285D01*
X153724428Y-84219142D01*
X153651857Y-84291714D01*
X153579285Y-84328000D01*
X153434142Y-84364285D01*
X153325285Y-84364285D01*
X153180142Y-84328000D01*
X153107571Y-84291714D01*
X153035000Y-84219142D01*
X152998714Y-84110285D01*
X152998714Y-84037714D01*
X153035000Y-83928857D01*
X153071285Y-83892571D01*
X153035000Y-88210571D02*
X152998714Y-88283142D01*
X152998714Y-88392000D01*
X153035000Y-88500857D01*
X153107571Y-88573428D01*
X153180142Y-88609714D01*
X153325285Y-88646000D01*
X153434142Y-88646000D01*
X153579285Y-88609714D01*
X153651857Y-88573428D01*
X153724428Y-88500857D01*
X153760714Y-88392000D01*
X153760714Y-88319428D01*
X153724428Y-88210571D01*
X153688142Y-88174285D01*
X153434142Y-88174285D01*
X153434142Y-88319428D01*
X153760714Y-87847714D02*
X152998714Y-87847714D01*
X153760714Y-87412285D01*
X152998714Y-87412285D01*
X153760714Y-87049428D02*
X152998714Y-87049428D01*
X152998714Y-86868000D01*
X153035000Y-86759142D01*
X153107571Y-86686571D01*
X153180142Y-86650285D01*
X153325285Y-86614000D01*
X153434142Y-86614000D01*
X153579285Y-86650285D01*
X153651857Y-86686571D01*
X153724428Y-86759142D01*
X153760714Y-86868000D01*
X153760714Y-87049428D01*
X153760714Y-90641714D02*
X152998714Y-90641714D01*
X152998714Y-90460285D01*
X153035000Y-90351428D01*
X153107571Y-90278857D01*
X153180142Y-90242571D01*
X153325285Y-90206285D01*
X153434142Y-90206285D01*
X153579285Y-90242571D01*
X153651857Y-90278857D01*
X153724428Y-90351428D01*
X153760714Y-90460285D01*
X153760714Y-90641714D01*
X152998714Y-89734571D02*
X152998714Y-89589428D01*
X153035000Y-89516857D01*
X153107571Y-89444285D01*
X153252714Y-89408000D01*
X153506714Y-89408000D01*
X153651857Y-89444285D01*
X153724428Y-89516857D01*
X153760714Y-89589428D01*
X153760714Y-89734571D01*
X153724428Y-89807142D01*
X153651857Y-89879714D01*
X153506714Y-89916000D01*
X153252714Y-89916000D01*
X153107571Y-89879714D01*
X153035000Y-89807142D01*
X152998714Y-89734571D01*
X153543000Y-93163571D02*
X153543000Y-92800714D01*
X153760714Y-93236142D02*
X152998714Y-92982142D01*
X153760714Y-92728142D01*
X152998714Y-92329000D02*
X152998714Y-92183857D01*
X153035000Y-92111285D01*
X153107571Y-92038714D01*
X153252714Y-92002428D01*
X153506714Y-92002428D01*
X153651857Y-92038714D01*
X153724428Y-92111285D01*
X153760714Y-92183857D01*
X153760714Y-92329000D01*
X153724428Y-92401571D01*
X153651857Y-92474142D01*
X153506714Y-92510428D01*
X153252714Y-92510428D01*
X153107571Y-92474142D01*
X153035000Y-92401571D01*
X152998714Y-92329000D01*
D12*
X139065000Y-81002142D02*
X139112619Y-81049761D01*
X139065000Y-81097380D01*
X139017380Y-81049761D01*
X139065000Y-81002142D01*
X139065000Y-81097380D01*
X138811000Y-97131142D02*
X138858619Y-97178761D01*
X138811000Y-97226380D01*
X138763380Y-97178761D01*
X138811000Y-97131142D01*
X138811000Y-97226380D01*
X132518714Y-90585857D02*
X132518714Y-89385857D01*
X132918714Y-90243000D01*
X133318714Y-89385857D01*
X133318714Y-90585857D01*
X134690142Y-90700142D02*
X134575857Y-90643000D01*
X134461571Y-90528714D01*
X134290142Y-90357285D01*
X134175857Y-90300142D01*
X134061571Y-90300142D01*
X134118714Y-90585857D02*
X134004428Y-90528714D01*
X133890142Y-90414428D01*
X133833000Y-90185857D01*
X133833000Y-89785857D01*
X133890142Y-89557285D01*
X134004428Y-89443000D01*
X134118714Y-89385857D01*
X134347285Y-89385857D01*
X134461571Y-89443000D01*
X134575857Y-89557285D01*
X134633000Y-89785857D01*
X134633000Y-90185857D01*
X134575857Y-90414428D01*
X134461571Y-90528714D01*
X134347285Y-90585857D01*
X134118714Y-90585857D01*
X136004428Y-90528714D02*
X136175857Y-90585857D01*
X136461571Y-90585857D01*
X136575857Y-90528714D01*
X136633000Y-90471571D01*
X136690142Y-90357285D01*
X136690142Y-90243000D01*
X136633000Y-90128714D01*
X136575857Y-90071571D01*
X136461571Y-90014428D01*
X136233000Y-89957285D01*
X136118714Y-89900142D01*
X136061571Y-89843000D01*
X136004428Y-89728714D01*
X136004428Y-89614428D01*
X136061571Y-89500142D01*
X136118714Y-89443000D01*
X136233000Y-89385857D01*
X136518714Y-89385857D01*
X136690142Y-89443000D01*
X137661571Y-90528714D02*
X137547285Y-90585857D01*
X137318714Y-90585857D01*
X137204428Y-90528714D01*
X137147285Y-90414428D01*
X137147285Y-89957285D01*
X137204428Y-89843000D01*
X137318714Y-89785857D01*
X137547285Y-89785857D01*
X137661571Y-89843000D01*
X137718714Y-89957285D01*
X137718714Y-90071571D01*
X137147285Y-90185857D01*
X138233000Y-89785857D02*
X138233000Y-90585857D01*
X138233000Y-89900142D02*
X138290142Y-89843000D01*
X138404428Y-89785857D01*
X138575857Y-89785857D01*
X138690142Y-89843000D01*
X138747285Y-89957285D01*
X138747285Y-90585857D01*
X139261571Y-90528714D02*
X139375857Y-90585857D01*
X139604428Y-90585857D01*
X139718714Y-90528714D01*
X139775857Y-90414428D01*
X139775857Y-90357285D01*
X139718714Y-90243000D01*
X139604428Y-90185857D01*
X139433000Y-90185857D01*
X139318714Y-90128714D01*
X139261571Y-90014428D01*
X139261571Y-89957285D01*
X139318714Y-89843000D01*
X139433000Y-89785857D01*
X139604428Y-89785857D01*
X139718714Y-89843000D01*
X140461571Y-90585857D02*
X140347285Y-90528714D01*
X140290142Y-90471571D01*
X140233000Y-90357285D01*
X140233000Y-90014428D01*
X140290142Y-89900142D01*
X140347285Y-89843000D01*
X140461571Y-89785857D01*
X140633000Y-89785857D01*
X140747285Y-89843000D01*
X140804428Y-89900142D01*
X140861571Y-90014428D01*
X140861571Y-90357285D01*
X140804428Y-90471571D01*
X140747285Y-90528714D01*
X140633000Y-90585857D01*
X140461571Y-90585857D01*
X141375857Y-90585857D02*
X141375857Y-89785857D01*
X141375857Y-90014428D02*
X141433000Y-89900142D01*
X141490142Y-89843000D01*
X141604428Y-89785857D01*
X141718714Y-89785857D01*
X144780000Y-90527142D02*
X144827619Y-90574761D01*
X144780000Y-90622380D01*
X144732380Y-90574761D01*
X144780000Y-90527142D01*
X144780000Y-90622380D01*
D13*
X127769252Y-92658000D02*
X127246748Y-92658000D01*
X127769252Y-91238000D02*
X127246748Y-91238000D01*
X148074748Y-89610000D02*
X148597252Y-89610000D01*
X148074748Y-88190000D02*
X148597252Y-88190000D01*
X139970000Y-81986000D02*
X142830000Y-81986000D01*
X142830000Y-81986000D02*
X142830000Y-80066000D01*
X142830000Y-80066000D02*
X139970000Y-80066000D01*
X142576000Y-95941000D02*
X139716000Y-95941000D01*
X142576000Y-97861000D02*
X142576000Y-95941000D01*
X139716000Y-97861000D02*
X142576000Y-97861000D01*
X154372000Y-94040000D02*
X157032000Y-94040000D01*
X154372000Y-86360000D02*
X154372000Y-94040000D01*
X157032000Y-86360000D02*
X157032000Y-94040000D01*
X154372000Y-86360000D02*
X157032000Y-86360000D01*
X154372000Y-85090000D02*
X154372000Y-83760000D01*
X154372000Y-83760000D02*
X155702000Y-83760000D01*
X136136748Y-80316000D02*
X136659252Y-80316000D01*
X136136748Y-81736000D02*
X136659252Y-81736000D01*
X135882748Y-97611000D02*
X136405252Y-97611000D01*
X135882748Y-96191000D02*
X136405252Y-96191000D01*
X127778252Y-87578000D02*
X127255748Y-87578000D01*
X127778252Y-86158000D02*
X127255748Y-86158000D01*
X127769252Y-88698000D02*
X127246748Y-88698000D01*
X127769252Y-90118000D02*
X127246748Y-90118000D01*
X152010000Y-86110000D02*
X145170000Y-86110000D01*
X152010000Y-78870000D02*
X145170000Y-78870000D01*
X145170000Y-83200000D02*
X145170000Y-86110000D01*
X145170000Y-78870000D02*
X145170000Y-81900000D01*
X152010000Y-83200000D02*
X152010000Y-86110000D01*
X152010000Y-78870000D02*
X152010000Y-81900000D01*
X147320000Y-96286000D02*
X149270000Y-96286000D01*
X147320000Y-96286000D02*
X145370000Y-96286000D01*
X147320000Y-91166000D02*
X149270000Y-91166000D01*
X147320000Y-91166000D02*
X143870000Y-91166000D01*
M02*
