G04 #@! TF.GenerationSoftware,KiCad,Pcbnew,5.1.5-52549c5~86~ubuntu16.04.1*
G04 #@! TF.CreationDate,2020-07-29T15:08:35+05:30*
G04 #@! TF.ProjectId,MQxx Gas Sensor V1.0,4d517878-2047-4617-9320-53656e736f72,V1.0*
G04 #@! TF.SameCoordinates,Original*
G04 #@! TF.FileFunction,Soldermask,Bot*
G04 #@! TF.FilePolarity,Negative*
%FSLAX46Y46*%
G04 Gerber Fmt 4.6, Leading zero omitted, Abs format (unit mm)*
G04 Created by KiCad (PCBNEW 5.1.5-52549c5~86~ubuntu16.04.1) date 2020-07-29 15:08:35*
%MOMM*%
%LPD*%
G04 APERTURE LIST*
%ADD10C,0.100000*%
G04 APERTURE END LIST*
D10*
G36*
X154875256Y-94891298D02*
G01*
X154981579Y-94912447D01*
X155282042Y-95036903D01*
X155552451Y-95217585D01*
X155782415Y-95447549D01*
X155963097Y-95717958D01*
X156087553Y-96018421D01*
X156151000Y-96337391D01*
X156151000Y-96662609D01*
X156087553Y-96981579D01*
X155963097Y-97282042D01*
X155782415Y-97552451D01*
X155552451Y-97782415D01*
X155282042Y-97963097D01*
X154981579Y-98087553D01*
X154875256Y-98108702D01*
X154662611Y-98151000D01*
X154337389Y-98151000D01*
X154124744Y-98108702D01*
X154018421Y-98087553D01*
X153717958Y-97963097D01*
X153447549Y-97782415D01*
X153217585Y-97552451D01*
X153036903Y-97282042D01*
X152912447Y-96981579D01*
X152849000Y-96662609D01*
X152849000Y-96337391D01*
X152912447Y-96018421D01*
X153036903Y-95717958D01*
X153217585Y-95447549D01*
X153447549Y-95217585D01*
X153717958Y-95036903D01*
X154018421Y-94912447D01*
X154124744Y-94891298D01*
X154337389Y-94849000D01*
X154662611Y-94849000D01*
X154875256Y-94891298D01*
G37*
G36*
X127875256Y-94891298D02*
G01*
X127981579Y-94912447D01*
X128282042Y-95036903D01*
X128552451Y-95217585D01*
X128782415Y-95447549D01*
X128963097Y-95717958D01*
X129087553Y-96018421D01*
X129151000Y-96337391D01*
X129151000Y-96662609D01*
X129087553Y-96981579D01*
X128963097Y-97282042D01*
X128782415Y-97552451D01*
X128552451Y-97782415D01*
X128282042Y-97963097D01*
X127981579Y-98087553D01*
X127875256Y-98108702D01*
X127662611Y-98151000D01*
X127337389Y-98151000D01*
X127124744Y-98108702D01*
X127018421Y-98087553D01*
X126717958Y-97963097D01*
X126447549Y-97782415D01*
X126217585Y-97552451D01*
X126036903Y-97282042D01*
X125912447Y-96981579D01*
X125849000Y-96662609D01*
X125849000Y-96337391D01*
X125912447Y-96018421D01*
X126036903Y-95717958D01*
X126217585Y-95447549D01*
X126447549Y-95217585D01*
X126717958Y-95036903D01*
X127018421Y-94912447D01*
X127124744Y-94891298D01*
X127337389Y-94849000D01*
X127662611Y-94849000D01*
X127875256Y-94891298D01*
G37*
G36*
X137016564Y-92697389D02*
G01*
X137207833Y-92776615D01*
X137207835Y-92776616D01*
X137266527Y-92815833D01*
X137379973Y-92891635D01*
X137526365Y-93038027D01*
X137641385Y-93210167D01*
X137720611Y-93401436D01*
X137761000Y-93604484D01*
X137761000Y-93811516D01*
X137720611Y-94014564D01*
X137641385Y-94205833D01*
X137641384Y-94205835D01*
X137526365Y-94377973D01*
X137379973Y-94524365D01*
X137207835Y-94639384D01*
X137207834Y-94639385D01*
X137207833Y-94639385D01*
X137016564Y-94718611D01*
X136813516Y-94759000D01*
X136606484Y-94759000D01*
X136403436Y-94718611D01*
X136212167Y-94639385D01*
X136212166Y-94639385D01*
X136212165Y-94639384D01*
X136040027Y-94524365D01*
X135893635Y-94377973D01*
X135778616Y-94205835D01*
X135778615Y-94205833D01*
X135699389Y-94014564D01*
X135659000Y-93811516D01*
X135659000Y-93604484D01*
X135699389Y-93401436D01*
X135778615Y-93210167D01*
X135893635Y-93038027D01*
X136040027Y-92891635D01*
X136153473Y-92815833D01*
X136212165Y-92776616D01*
X136212167Y-92776615D01*
X136403436Y-92697389D01*
X136606484Y-92657000D01*
X136813516Y-92657000D01*
X137016564Y-92697389D01*
G37*
G36*
X155815512Y-91813927D02*
G01*
X155964812Y-91843624D01*
X156128784Y-91911544D01*
X156276354Y-92010147D01*
X156401853Y-92135646D01*
X156500456Y-92283216D01*
X156568376Y-92447188D01*
X156603000Y-92621259D01*
X156603000Y-92798741D01*
X156568376Y-92972812D01*
X156500456Y-93136784D01*
X156401853Y-93284354D01*
X156276354Y-93409853D01*
X156128784Y-93508456D01*
X155964812Y-93576376D01*
X155823500Y-93604484D01*
X155790742Y-93611000D01*
X155613258Y-93611000D01*
X155580500Y-93604484D01*
X155439188Y-93576376D01*
X155275216Y-93508456D01*
X155127646Y-93409853D01*
X155002147Y-93284354D01*
X154903544Y-93136784D01*
X154835624Y-92972812D01*
X154801000Y-92798741D01*
X154801000Y-92621259D01*
X154835624Y-92447188D01*
X154903544Y-92283216D01*
X155002147Y-92135646D01*
X155127646Y-92010147D01*
X155275216Y-91911544D01*
X155439188Y-91843624D01*
X155588488Y-91813927D01*
X155613258Y-91809000D01*
X155790742Y-91809000D01*
X155815512Y-91813927D01*
G37*
G36*
X133656564Y-91307389D02*
G01*
X133847833Y-91386615D01*
X133847835Y-91386616D01*
X134019973Y-91501635D01*
X134166365Y-91648027D01*
X134273924Y-91809000D01*
X134281385Y-91820167D01*
X134360611Y-92011436D01*
X134401000Y-92214484D01*
X134401000Y-92421516D01*
X134360611Y-92624564D01*
X134297629Y-92776616D01*
X134281384Y-92815835D01*
X134166365Y-92987973D01*
X134019973Y-93134365D01*
X133847835Y-93249384D01*
X133847834Y-93249385D01*
X133847833Y-93249385D01*
X133656564Y-93328611D01*
X133453516Y-93369000D01*
X133246484Y-93369000D01*
X133043436Y-93328611D01*
X132852167Y-93249385D01*
X132852166Y-93249385D01*
X132852165Y-93249384D01*
X132680027Y-93134365D01*
X132533635Y-92987973D01*
X132418616Y-92815835D01*
X132402371Y-92776616D01*
X132339389Y-92624564D01*
X132299000Y-92421516D01*
X132299000Y-92214484D01*
X132339389Y-92011436D01*
X132418615Y-91820167D01*
X132426077Y-91809000D01*
X132533635Y-91648027D01*
X132680027Y-91501635D01*
X132852165Y-91386616D01*
X132852167Y-91386615D01*
X133043436Y-91307389D01*
X133246484Y-91267000D01*
X133453516Y-91267000D01*
X133656564Y-91307389D01*
G37*
G36*
X140376564Y-91307389D02*
G01*
X140567833Y-91386615D01*
X140567835Y-91386616D01*
X140739973Y-91501635D01*
X140886365Y-91648027D01*
X140993924Y-91809000D01*
X141001385Y-91820167D01*
X141080611Y-92011436D01*
X141121000Y-92214484D01*
X141121000Y-92421516D01*
X141080611Y-92624564D01*
X141017629Y-92776616D01*
X141001384Y-92815835D01*
X140886365Y-92987973D01*
X140739973Y-93134365D01*
X140567835Y-93249384D01*
X140567834Y-93249385D01*
X140567833Y-93249385D01*
X140376564Y-93328611D01*
X140173516Y-93369000D01*
X139966484Y-93369000D01*
X139763436Y-93328611D01*
X139572167Y-93249385D01*
X139572166Y-93249385D01*
X139572165Y-93249384D01*
X139400027Y-93134365D01*
X139253635Y-92987973D01*
X139138616Y-92815835D01*
X139122371Y-92776616D01*
X139059389Y-92624564D01*
X139019000Y-92421516D01*
X139019000Y-92214484D01*
X139059389Y-92011436D01*
X139138615Y-91820167D01*
X139146077Y-91809000D01*
X139253635Y-91648027D01*
X139400027Y-91501635D01*
X139572165Y-91386616D01*
X139572167Y-91386615D01*
X139763436Y-91307389D01*
X139966484Y-91267000D01*
X140173516Y-91267000D01*
X140376564Y-91307389D01*
G37*
G36*
X155815512Y-89273927D02*
G01*
X155964812Y-89303624D01*
X156128784Y-89371544D01*
X156276354Y-89470147D01*
X156401853Y-89595646D01*
X156500456Y-89743216D01*
X156568376Y-89907188D01*
X156603000Y-90081259D01*
X156603000Y-90258741D01*
X156568376Y-90432812D01*
X156500456Y-90596784D01*
X156401853Y-90744354D01*
X156276354Y-90869853D01*
X156128784Y-90968456D01*
X155964812Y-91036376D01*
X155815512Y-91066073D01*
X155790742Y-91071000D01*
X155613258Y-91071000D01*
X155588488Y-91066073D01*
X155439188Y-91036376D01*
X155275216Y-90968456D01*
X155127646Y-90869853D01*
X155002147Y-90744354D01*
X154903544Y-90596784D01*
X154835624Y-90432812D01*
X154801000Y-90258741D01*
X154801000Y-90081259D01*
X154835624Y-89907188D01*
X154903544Y-89743216D01*
X155002147Y-89595646D01*
X155127646Y-89470147D01*
X155275216Y-89371544D01*
X155439188Y-89303624D01*
X155588488Y-89273927D01*
X155613258Y-89269000D01*
X155790742Y-89269000D01*
X155815512Y-89273927D01*
G37*
G36*
X155815512Y-86733927D02*
G01*
X155964812Y-86763624D01*
X156128784Y-86831544D01*
X156276354Y-86930147D01*
X156401853Y-87055646D01*
X156500456Y-87203216D01*
X156568376Y-87367188D01*
X156603000Y-87541259D01*
X156603000Y-87718741D01*
X156568376Y-87892812D01*
X156500456Y-88056784D01*
X156401853Y-88204354D01*
X156276354Y-88329853D01*
X156128784Y-88428456D01*
X155964812Y-88496376D01*
X155815512Y-88526073D01*
X155790742Y-88531000D01*
X155613258Y-88531000D01*
X155588488Y-88526073D01*
X155439188Y-88496376D01*
X155275216Y-88428456D01*
X155127646Y-88329853D01*
X155002147Y-88204354D01*
X154903544Y-88056784D01*
X154835624Y-87892812D01*
X154801000Y-87718741D01*
X154801000Y-87541259D01*
X154835624Y-87367188D01*
X154903544Y-87203216D01*
X155002147Y-87055646D01*
X155127646Y-86930147D01*
X155275216Y-86831544D01*
X155439188Y-86763624D01*
X155588488Y-86733927D01*
X155613258Y-86729000D01*
X155790742Y-86729000D01*
X155815512Y-86733927D01*
G37*
G36*
X134401000Y-86649000D02*
G01*
X132299000Y-86649000D01*
X132299000Y-84547000D01*
X134401000Y-84547000D01*
X134401000Y-86649000D01*
G37*
G36*
X140376564Y-84587389D02*
G01*
X140567833Y-84666615D01*
X140567835Y-84666616D01*
X140626527Y-84705833D01*
X140739973Y-84781635D01*
X140886365Y-84928027D01*
X141001385Y-85100167D01*
X141080611Y-85291436D01*
X141121000Y-85494484D01*
X141121000Y-85701516D01*
X141080611Y-85904564D01*
X141044808Y-85991000D01*
X141001384Y-86095835D01*
X140886365Y-86267973D01*
X140739973Y-86414365D01*
X140567835Y-86529384D01*
X140567834Y-86529385D01*
X140567833Y-86529385D01*
X140376564Y-86608611D01*
X140173516Y-86649000D01*
X139966484Y-86649000D01*
X139763436Y-86608611D01*
X139572167Y-86529385D01*
X139572166Y-86529385D01*
X139572165Y-86529384D01*
X139400027Y-86414365D01*
X139253635Y-86267973D01*
X139138616Y-86095835D01*
X139095192Y-85991000D01*
X139059389Y-85904564D01*
X139019000Y-85701516D01*
X139019000Y-85494484D01*
X139059389Y-85291436D01*
X139138615Y-85100167D01*
X139253635Y-84928027D01*
X139400027Y-84781635D01*
X139513473Y-84705833D01*
X139572165Y-84666616D01*
X139572167Y-84666615D01*
X139763436Y-84587389D01*
X139966484Y-84547000D01*
X140173516Y-84547000D01*
X140376564Y-84587389D01*
G37*
G36*
X156603000Y-85991000D02*
G01*
X154801000Y-85991000D01*
X154801000Y-84189000D01*
X156603000Y-84189000D01*
X156603000Y-85991000D01*
G37*
G36*
X148715589Y-84328876D02*
G01*
X148814893Y-84348629D01*
X148955206Y-84406748D01*
X149081484Y-84491125D01*
X149188875Y-84598516D01*
X149273252Y-84724794D01*
X149331371Y-84865107D01*
X149361000Y-85014063D01*
X149361000Y-85165937D01*
X149331371Y-85314893D01*
X149273252Y-85455206D01*
X149188875Y-85581484D01*
X149081484Y-85688875D01*
X148955206Y-85773252D01*
X148814893Y-85831371D01*
X148715589Y-85851124D01*
X148665938Y-85861000D01*
X148514062Y-85861000D01*
X148464411Y-85851124D01*
X148365107Y-85831371D01*
X148224794Y-85773252D01*
X148098516Y-85688875D01*
X147991125Y-85581484D01*
X147906748Y-85455206D01*
X147848629Y-85314893D01*
X147819000Y-85165937D01*
X147819000Y-85014063D01*
X147848629Y-84865107D01*
X147906748Y-84724794D01*
X147991125Y-84598516D01*
X148098516Y-84491125D01*
X148224794Y-84406748D01*
X148365107Y-84348629D01*
X148464411Y-84328876D01*
X148514062Y-84319000D01*
X148665938Y-84319000D01*
X148715589Y-84328876D01*
G37*
G36*
X137016564Y-83197389D02*
G01*
X137207833Y-83276615D01*
X137207835Y-83276616D01*
X137229917Y-83291371D01*
X137379973Y-83391635D01*
X137526365Y-83538027D01*
X137641385Y-83710167D01*
X137720611Y-83901436D01*
X137761000Y-84104484D01*
X137761000Y-84311516D01*
X137720611Y-84514564D01*
X137657629Y-84666616D01*
X137641384Y-84705835D01*
X137526365Y-84877973D01*
X137379973Y-85024365D01*
X137207835Y-85139384D01*
X137207834Y-85139385D01*
X137207833Y-85139385D01*
X137016564Y-85218611D01*
X136813516Y-85259000D01*
X136606484Y-85259000D01*
X136403436Y-85218611D01*
X136212167Y-85139385D01*
X136212166Y-85139385D01*
X136212165Y-85139384D01*
X136040027Y-85024365D01*
X135893635Y-84877973D01*
X135778616Y-84705835D01*
X135762371Y-84666616D01*
X135699389Y-84514564D01*
X135659000Y-84311516D01*
X135659000Y-84104484D01*
X135699389Y-83901436D01*
X135778615Y-83710167D01*
X135893635Y-83538027D01*
X136040027Y-83391635D01*
X136190083Y-83291371D01*
X136212165Y-83276616D01*
X136212167Y-83276615D01*
X136403436Y-83197389D01*
X136606484Y-83157000D01*
X136813516Y-83157000D01*
X137016564Y-83197389D01*
G37*
G36*
X146175589Y-81788876D02*
G01*
X146274893Y-81808629D01*
X146415206Y-81866748D01*
X146541484Y-81951125D01*
X146648875Y-82058516D01*
X146733252Y-82184794D01*
X146791371Y-82325107D01*
X146821000Y-82474063D01*
X146821000Y-82625937D01*
X146791371Y-82774893D01*
X146733252Y-82915206D01*
X146648875Y-83041484D01*
X146541484Y-83148875D01*
X146415206Y-83233252D01*
X146274893Y-83291371D01*
X146175589Y-83311124D01*
X146125938Y-83321000D01*
X145974062Y-83321000D01*
X145924411Y-83311124D01*
X145825107Y-83291371D01*
X145684794Y-83233252D01*
X145558516Y-83148875D01*
X145451125Y-83041484D01*
X145366748Y-82915206D01*
X145308629Y-82774893D01*
X145279000Y-82625937D01*
X145279000Y-82474063D01*
X145308629Y-82325107D01*
X145366748Y-82184794D01*
X145451125Y-82058516D01*
X145558516Y-81951125D01*
X145684794Y-81866748D01*
X145825107Y-81808629D01*
X145924411Y-81788876D01*
X145974062Y-81779000D01*
X146125938Y-81779000D01*
X146175589Y-81788876D01*
G37*
G36*
X151255589Y-81788876D02*
G01*
X151354893Y-81808629D01*
X151495206Y-81866748D01*
X151621484Y-81951125D01*
X151728875Y-82058516D01*
X151813252Y-82184794D01*
X151871371Y-82325107D01*
X151901000Y-82474063D01*
X151901000Y-82625937D01*
X151871371Y-82774893D01*
X151813252Y-82915206D01*
X151728875Y-83041484D01*
X151621484Y-83148875D01*
X151495206Y-83233252D01*
X151354893Y-83291371D01*
X151255589Y-83311124D01*
X151205938Y-83321000D01*
X151054062Y-83321000D01*
X151004411Y-83311124D01*
X150905107Y-83291371D01*
X150764794Y-83233252D01*
X150638516Y-83148875D01*
X150531125Y-83041484D01*
X150446748Y-82915206D01*
X150388629Y-82774893D01*
X150359000Y-82625937D01*
X150359000Y-82474063D01*
X150388629Y-82325107D01*
X150446748Y-82184794D01*
X150531125Y-82058516D01*
X150638516Y-81951125D01*
X150764794Y-81866748D01*
X150905107Y-81808629D01*
X151004411Y-81788876D01*
X151054062Y-81779000D01*
X151205938Y-81779000D01*
X151255589Y-81788876D01*
G37*
G36*
X127875256Y-79891298D02*
G01*
X127981579Y-79912447D01*
X128282042Y-80036903D01*
X128552451Y-80217585D01*
X128782415Y-80447549D01*
X128782416Y-80447551D01*
X128963098Y-80717960D01*
X129087553Y-81018422D01*
X129151000Y-81337389D01*
X129151000Y-81662611D01*
X129121955Y-81808629D01*
X129087553Y-81981579D01*
X128963097Y-82282042D01*
X128782415Y-82552451D01*
X128552451Y-82782415D01*
X128282042Y-82963097D01*
X127981579Y-83087553D01*
X127875256Y-83108702D01*
X127662611Y-83151000D01*
X127337389Y-83151000D01*
X127124744Y-83108702D01*
X127018421Y-83087553D01*
X126717958Y-82963097D01*
X126447549Y-82782415D01*
X126217585Y-82552451D01*
X126036903Y-82282042D01*
X125912447Y-81981579D01*
X125878045Y-81808629D01*
X125849000Y-81662611D01*
X125849000Y-81337389D01*
X125912447Y-81018422D01*
X126036902Y-80717960D01*
X126217584Y-80447551D01*
X126217585Y-80447549D01*
X126447549Y-80217585D01*
X126717958Y-80036903D01*
X127018421Y-79912447D01*
X127124744Y-79891298D01*
X127337389Y-79849000D01*
X127662611Y-79849000D01*
X127875256Y-79891298D01*
G37*
G36*
X154875256Y-79891298D02*
G01*
X154981579Y-79912447D01*
X155282042Y-80036903D01*
X155552451Y-80217585D01*
X155782415Y-80447549D01*
X155782416Y-80447551D01*
X155963098Y-80717960D01*
X156087553Y-81018422D01*
X156151000Y-81337389D01*
X156151000Y-81662611D01*
X156121955Y-81808629D01*
X156087553Y-81981579D01*
X155963097Y-82282042D01*
X155782415Y-82552451D01*
X155552451Y-82782415D01*
X155282042Y-82963097D01*
X154981579Y-83087553D01*
X154875256Y-83108702D01*
X154662611Y-83151000D01*
X154337389Y-83151000D01*
X154124744Y-83108702D01*
X154018421Y-83087553D01*
X153717958Y-82963097D01*
X153447549Y-82782415D01*
X153217585Y-82552451D01*
X153036903Y-82282042D01*
X152912447Y-81981579D01*
X152878045Y-81808629D01*
X152849000Y-81662611D01*
X152849000Y-81337389D01*
X152912447Y-81018422D01*
X153036902Y-80717960D01*
X153217584Y-80447551D01*
X153217585Y-80447549D01*
X153447549Y-80217585D01*
X153717958Y-80036903D01*
X154018421Y-79912447D01*
X154124744Y-79891298D01*
X154337389Y-79849000D01*
X154662611Y-79849000D01*
X154875256Y-79891298D01*
G37*
M02*
