M48
; DRILL file {KiCad 5.1.5-52549c5~86~ubuntu16.04.1} date Wed Jul 29 15:08:38 2020
; FORMAT={-:-/ absolute / inch / decimal}
; #@! TF.CreationDate,2020-07-29T15:08:38+05:30
; #@! TF.GenerationSoftware,Kicad,Pcbnew,5.1.5-52549c5~86~ubuntu16.04.1
FMAT,2
INCH
T1C0.0160
T2C0.0315
T3C0.0394
T4C0.1260
%
G90
G05
T1
X5.13Y-3.42
X5.145Y-3.78
X5.19Y-3.245
X5.25Y-3.805
X5.6114Y-3.6213
X5.63Y-3.715
X5.635Y-3.33
X5.66Y-3.57
X5.935Y-3.5
T2
X5.75Y-3.25
X5.85Y-3.35
X5.95Y-3.25
T3
X6.13Y-3.35
X6.13Y-3.45
X6.13Y-3.55
X6.13Y-3.65
X5.25Y-3.37
X5.25Y-3.6346
X5.3823Y-3.3153
X5.3823Y-3.6893
X5.5146Y-3.37
X5.5146Y-3.6346
T4
X6.0827Y-3.2087
X5.0197Y-3.2087
X5.0197Y-3.7992
X6.0827Y-3.7992
T0
M30
