G04 #@! TF.GenerationSoftware,KiCad,Pcbnew,5.1.5-52549c5~86~ubuntu16.04.1*
G04 #@! TF.CreationDate,2020-07-29T15:08:35+05:30*
G04 #@! TF.ProjectId,MQxx Gas Sensor V1.0,4d517878-2047-4617-9320-53656e736f72,V1.0*
G04 #@! TF.SameCoordinates,Original*
G04 #@! TF.FileFunction,Paste,Top*
G04 #@! TF.FilePolarity,Positive*
%FSLAX46Y46*%
G04 Gerber Fmt 4.6, Leading zero omitted, Abs format (unit mm)*
G04 Created by KiCad (PCBNEW 5.1.5-52549c5~86~ubuntu16.04.1) date 2020-07-29 15:08:35*
%MOMM*%
%LPD*%
G04 APERTURE LIST*
%ADD10C,0.100000*%
G04 APERTURE END LIST*
D10*
G36*
X128882505Y-91249204D02*
G01*
X128906773Y-91252804D01*
X128930572Y-91258765D01*
X128953671Y-91267030D01*
X128975850Y-91277520D01*
X128996893Y-91290132D01*
X129016599Y-91304747D01*
X129034777Y-91321223D01*
X129051253Y-91339401D01*
X129065868Y-91359107D01*
X129078480Y-91380150D01*
X129088970Y-91402329D01*
X129097235Y-91425428D01*
X129103196Y-91449227D01*
X129106796Y-91473495D01*
X129108000Y-91497999D01*
X129108000Y-92398001D01*
X129106796Y-92422505D01*
X129103196Y-92446773D01*
X129097235Y-92470572D01*
X129088970Y-92493671D01*
X129078480Y-92515850D01*
X129065868Y-92536893D01*
X129051253Y-92556599D01*
X129034777Y-92574777D01*
X129016599Y-92591253D01*
X128996893Y-92605868D01*
X128975850Y-92618480D01*
X128953671Y-92628970D01*
X128930572Y-92637235D01*
X128906773Y-92643196D01*
X128882505Y-92646796D01*
X128858001Y-92648000D01*
X128207999Y-92648000D01*
X128183495Y-92646796D01*
X128159227Y-92643196D01*
X128135428Y-92637235D01*
X128112329Y-92628970D01*
X128090150Y-92618480D01*
X128069107Y-92605868D01*
X128049401Y-92591253D01*
X128031223Y-92574777D01*
X128014747Y-92556599D01*
X128000132Y-92536893D01*
X127987520Y-92515850D01*
X127977030Y-92493671D01*
X127968765Y-92470572D01*
X127962804Y-92446773D01*
X127959204Y-92422505D01*
X127958000Y-92398001D01*
X127958000Y-91497999D01*
X127959204Y-91473495D01*
X127962804Y-91449227D01*
X127968765Y-91425428D01*
X127977030Y-91402329D01*
X127987520Y-91380150D01*
X128000132Y-91359107D01*
X128014747Y-91339401D01*
X128031223Y-91321223D01*
X128049401Y-91304747D01*
X128069107Y-91290132D01*
X128090150Y-91277520D01*
X128112329Y-91267030D01*
X128135428Y-91258765D01*
X128159227Y-91252804D01*
X128183495Y-91249204D01*
X128207999Y-91248000D01*
X128858001Y-91248000D01*
X128882505Y-91249204D01*
G37*
G36*
X126832505Y-91249204D02*
G01*
X126856773Y-91252804D01*
X126880572Y-91258765D01*
X126903671Y-91267030D01*
X126925850Y-91277520D01*
X126946893Y-91290132D01*
X126966599Y-91304747D01*
X126984777Y-91321223D01*
X127001253Y-91339401D01*
X127015868Y-91359107D01*
X127028480Y-91380150D01*
X127038970Y-91402329D01*
X127047235Y-91425428D01*
X127053196Y-91449227D01*
X127056796Y-91473495D01*
X127058000Y-91497999D01*
X127058000Y-92398001D01*
X127056796Y-92422505D01*
X127053196Y-92446773D01*
X127047235Y-92470572D01*
X127038970Y-92493671D01*
X127028480Y-92515850D01*
X127015868Y-92536893D01*
X127001253Y-92556599D01*
X126984777Y-92574777D01*
X126966599Y-92591253D01*
X126946893Y-92605868D01*
X126925850Y-92618480D01*
X126903671Y-92628970D01*
X126880572Y-92637235D01*
X126856773Y-92643196D01*
X126832505Y-92646796D01*
X126808001Y-92648000D01*
X126157999Y-92648000D01*
X126133495Y-92646796D01*
X126109227Y-92643196D01*
X126085428Y-92637235D01*
X126062329Y-92628970D01*
X126040150Y-92618480D01*
X126019107Y-92605868D01*
X125999401Y-92591253D01*
X125981223Y-92574777D01*
X125964747Y-92556599D01*
X125950132Y-92536893D01*
X125937520Y-92515850D01*
X125927030Y-92493671D01*
X125918765Y-92470572D01*
X125912804Y-92446773D01*
X125909204Y-92422505D01*
X125908000Y-92398001D01*
X125908000Y-91497999D01*
X125909204Y-91473495D01*
X125912804Y-91449227D01*
X125918765Y-91425428D01*
X125927030Y-91402329D01*
X125937520Y-91380150D01*
X125950132Y-91359107D01*
X125964747Y-91339401D01*
X125981223Y-91321223D01*
X125999401Y-91304747D01*
X126019107Y-91290132D01*
X126040150Y-91277520D01*
X126062329Y-91267030D01*
X126085428Y-91258765D01*
X126109227Y-91252804D01*
X126133495Y-91249204D01*
X126157999Y-91248000D01*
X126808001Y-91248000D01*
X126832505Y-91249204D01*
G37*
G36*
X149710505Y-88201204D02*
G01*
X149734773Y-88204804D01*
X149758572Y-88210765D01*
X149781671Y-88219030D01*
X149803850Y-88229520D01*
X149824893Y-88242132D01*
X149844599Y-88256747D01*
X149862777Y-88273223D01*
X149879253Y-88291401D01*
X149893868Y-88311107D01*
X149906480Y-88332150D01*
X149916970Y-88354329D01*
X149925235Y-88377428D01*
X149931196Y-88401227D01*
X149934796Y-88425495D01*
X149936000Y-88449999D01*
X149936000Y-89350001D01*
X149934796Y-89374505D01*
X149931196Y-89398773D01*
X149925235Y-89422572D01*
X149916970Y-89445671D01*
X149906480Y-89467850D01*
X149893868Y-89488893D01*
X149879253Y-89508599D01*
X149862777Y-89526777D01*
X149844599Y-89543253D01*
X149824893Y-89557868D01*
X149803850Y-89570480D01*
X149781671Y-89580970D01*
X149758572Y-89589235D01*
X149734773Y-89595196D01*
X149710505Y-89598796D01*
X149686001Y-89600000D01*
X149035999Y-89600000D01*
X149011495Y-89598796D01*
X148987227Y-89595196D01*
X148963428Y-89589235D01*
X148940329Y-89580970D01*
X148918150Y-89570480D01*
X148897107Y-89557868D01*
X148877401Y-89543253D01*
X148859223Y-89526777D01*
X148842747Y-89508599D01*
X148828132Y-89488893D01*
X148815520Y-89467850D01*
X148805030Y-89445671D01*
X148796765Y-89422572D01*
X148790804Y-89398773D01*
X148787204Y-89374505D01*
X148786000Y-89350001D01*
X148786000Y-88449999D01*
X148787204Y-88425495D01*
X148790804Y-88401227D01*
X148796765Y-88377428D01*
X148805030Y-88354329D01*
X148815520Y-88332150D01*
X148828132Y-88311107D01*
X148842747Y-88291401D01*
X148859223Y-88273223D01*
X148877401Y-88256747D01*
X148897107Y-88242132D01*
X148918150Y-88229520D01*
X148940329Y-88219030D01*
X148963428Y-88210765D01*
X148987227Y-88204804D01*
X149011495Y-88201204D01*
X149035999Y-88200000D01*
X149686001Y-88200000D01*
X149710505Y-88201204D01*
G37*
G36*
X147660505Y-88201204D02*
G01*
X147684773Y-88204804D01*
X147708572Y-88210765D01*
X147731671Y-88219030D01*
X147753850Y-88229520D01*
X147774893Y-88242132D01*
X147794599Y-88256747D01*
X147812777Y-88273223D01*
X147829253Y-88291401D01*
X147843868Y-88311107D01*
X147856480Y-88332150D01*
X147866970Y-88354329D01*
X147875235Y-88377428D01*
X147881196Y-88401227D01*
X147884796Y-88425495D01*
X147886000Y-88449999D01*
X147886000Y-89350001D01*
X147884796Y-89374505D01*
X147881196Y-89398773D01*
X147875235Y-89422572D01*
X147866970Y-89445671D01*
X147856480Y-89467850D01*
X147843868Y-89488893D01*
X147829253Y-89508599D01*
X147812777Y-89526777D01*
X147794599Y-89543253D01*
X147774893Y-89557868D01*
X147753850Y-89570480D01*
X147731671Y-89580970D01*
X147708572Y-89589235D01*
X147684773Y-89595196D01*
X147660505Y-89598796D01*
X147636001Y-89600000D01*
X146985999Y-89600000D01*
X146961495Y-89598796D01*
X146937227Y-89595196D01*
X146913428Y-89589235D01*
X146890329Y-89580970D01*
X146868150Y-89570480D01*
X146847107Y-89557868D01*
X146827401Y-89543253D01*
X146809223Y-89526777D01*
X146792747Y-89508599D01*
X146778132Y-89488893D01*
X146765520Y-89467850D01*
X146755030Y-89445671D01*
X146746765Y-89422572D01*
X146740804Y-89398773D01*
X146737204Y-89374505D01*
X146736000Y-89350001D01*
X146736000Y-88449999D01*
X146737204Y-88425495D01*
X146740804Y-88401227D01*
X146746765Y-88377428D01*
X146755030Y-88354329D01*
X146765520Y-88332150D01*
X146778132Y-88311107D01*
X146792747Y-88291401D01*
X146809223Y-88273223D01*
X146827401Y-88256747D01*
X146847107Y-88242132D01*
X146868150Y-88229520D01*
X146890329Y-88219030D01*
X146913428Y-88210765D01*
X146937227Y-88204804D01*
X146961495Y-88201204D01*
X146985999Y-88200000D01*
X147636001Y-88200000D01*
X147660505Y-88201204D01*
G37*
G36*
X142344505Y-80327204D02*
G01*
X142368773Y-80330804D01*
X142392572Y-80336765D01*
X142415671Y-80345030D01*
X142437850Y-80355520D01*
X142458893Y-80368132D01*
X142478599Y-80382747D01*
X142496777Y-80399223D01*
X142513253Y-80417401D01*
X142527868Y-80437107D01*
X142540480Y-80458150D01*
X142550970Y-80480329D01*
X142559235Y-80503428D01*
X142565196Y-80527227D01*
X142568796Y-80551495D01*
X142570000Y-80575999D01*
X142570000Y-81476001D01*
X142568796Y-81500505D01*
X142565196Y-81524773D01*
X142559235Y-81548572D01*
X142550970Y-81571671D01*
X142540480Y-81593850D01*
X142527868Y-81614893D01*
X142513253Y-81634599D01*
X142496777Y-81652777D01*
X142478599Y-81669253D01*
X142458893Y-81683868D01*
X142437850Y-81696480D01*
X142415671Y-81706970D01*
X142392572Y-81715235D01*
X142368773Y-81721196D01*
X142344505Y-81724796D01*
X142320001Y-81726000D01*
X141669999Y-81726000D01*
X141645495Y-81724796D01*
X141621227Y-81721196D01*
X141597428Y-81715235D01*
X141574329Y-81706970D01*
X141552150Y-81696480D01*
X141531107Y-81683868D01*
X141511401Y-81669253D01*
X141493223Y-81652777D01*
X141476747Y-81634599D01*
X141462132Y-81614893D01*
X141449520Y-81593850D01*
X141439030Y-81571671D01*
X141430765Y-81548572D01*
X141424804Y-81524773D01*
X141421204Y-81500505D01*
X141420000Y-81476001D01*
X141420000Y-80575999D01*
X141421204Y-80551495D01*
X141424804Y-80527227D01*
X141430765Y-80503428D01*
X141439030Y-80480329D01*
X141449520Y-80458150D01*
X141462132Y-80437107D01*
X141476747Y-80417401D01*
X141493223Y-80399223D01*
X141511401Y-80382747D01*
X141531107Y-80368132D01*
X141552150Y-80355520D01*
X141574329Y-80345030D01*
X141597428Y-80336765D01*
X141621227Y-80330804D01*
X141645495Y-80327204D01*
X141669999Y-80326000D01*
X142320001Y-80326000D01*
X142344505Y-80327204D01*
G37*
G36*
X140294505Y-80327204D02*
G01*
X140318773Y-80330804D01*
X140342572Y-80336765D01*
X140365671Y-80345030D01*
X140387850Y-80355520D01*
X140408893Y-80368132D01*
X140428599Y-80382747D01*
X140446777Y-80399223D01*
X140463253Y-80417401D01*
X140477868Y-80437107D01*
X140490480Y-80458150D01*
X140500970Y-80480329D01*
X140509235Y-80503428D01*
X140515196Y-80527227D01*
X140518796Y-80551495D01*
X140520000Y-80575999D01*
X140520000Y-81476001D01*
X140518796Y-81500505D01*
X140515196Y-81524773D01*
X140509235Y-81548572D01*
X140500970Y-81571671D01*
X140490480Y-81593850D01*
X140477868Y-81614893D01*
X140463253Y-81634599D01*
X140446777Y-81652777D01*
X140428599Y-81669253D01*
X140408893Y-81683868D01*
X140387850Y-81696480D01*
X140365671Y-81706970D01*
X140342572Y-81715235D01*
X140318773Y-81721196D01*
X140294505Y-81724796D01*
X140270001Y-81726000D01*
X139619999Y-81726000D01*
X139595495Y-81724796D01*
X139571227Y-81721196D01*
X139547428Y-81715235D01*
X139524329Y-81706970D01*
X139502150Y-81696480D01*
X139481107Y-81683868D01*
X139461401Y-81669253D01*
X139443223Y-81652777D01*
X139426747Y-81634599D01*
X139412132Y-81614893D01*
X139399520Y-81593850D01*
X139389030Y-81571671D01*
X139380765Y-81548572D01*
X139374804Y-81524773D01*
X139371204Y-81500505D01*
X139370000Y-81476001D01*
X139370000Y-80575999D01*
X139371204Y-80551495D01*
X139374804Y-80527227D01*
X139380765Y-80503428D01*
X139389030Y-80480329D01*
X139399520Y-80458150D01*
X139412132Y-80437107D01*
X139426747Y-80417401D01*
X139443223Y-80399223D01*
X139461401Y-80382747D01*
X139481107Y-80368132D01*
X139502150Y-80355520D01*
X139524329Y-80345030D01*
X139547428Y-80336765D01*
X139571227Y-80330804D01*
X139595495Y-80327204D01*
X139619999Y-80326000D01*
X140270001Y-80326000D01*
X140294505Y-80327204D01*
G37*
G36*
X140040505Y-96202204D02*
G01*
X140064773Y-96205804D01*
X140088572Y-96211765D01*
X140111671Y-96220030D01*
X140133850Y-96230520D01*
X140154893Y-96243132D01*
X140174599Y-96257747D01*
X140192777Y-96274223D01*
X140209253Y-96292401D01*
X140223868Y-96312107D01*
X140236480Y-96333150D01*
X140246970Y-96355329D01*
X140255235Y-96378428D01*
X140261196Y-96402227D01*
X140264796Y-96426495D01*
X140266000Y-96450999D01*
X140266000Y-97351001D01*
X140264796Y-97375505D01*
X140261196Y-97399773D01*
X140255235Y-97423572D01*
X140246970Y-97446671D01*
X140236480Y-97468850D01*
X140223868Y-97489893D01*
X140209253Y-97509599D01*
X140192777Y-97527777D01*
X140174599Y-97544253D01*
X140154893Y-97558868D01*
X140133850Y-97571480D01*
X140111671Y-97581970D01*
X140088572Y-97590235D01*
X140064773Y-97596196D01*
X140040505Y-97599796D01*
X140016001Y-97601000D01*
X139365999Y-97601000D01*
X139341495Y-97599796D01*
X139317227Y-97596196D01*
X139293428Y-97590235D01*
X139270329Y-97581970D01*
X139248150Y-97571480D01*
X139227107Y-97558868D01*
X139207401Y-97544253D01*
X139189223Y-97527777D01*
X139172747Y-97509599D01*
X139158132Y-97489893D01*
X139145520Y-97468850D01*
X139135030Y-97446671D01*
X139126765Y-97423572D01*
X139120804Y-97399773D01*
X139117204Y-97375505D01*
X139116000Y-97351001D01*
X139116000Y-96450999D01*
X139117204Y-96426495D01*
X139120804Y-96402227D01*
X139126765Y-96378428D01*
X139135030Y-96355329D01*
X139145520Y-96333150D01*
X139158132Y-96312107D01*
X139172747Y-96292401D01*
X139189223Y-96274223D01*
X139207401Y-96257747D01*
X139227107Y-96243132D01*
X139248150Y-96230520D01*
X139270329Y-96220030D01*
X139293428Y-96211765D01*
X139317227Y-96205804D01*
X139341495Y-96202204D01*
X139365999Y-96201000D01*
X140016001Y-96201000D01*
X140040505Y-96202204D01*
G37*
G36*
X142090505Y-96202204D02*
G01*
X142114773Y-96205804D01*
X142138572Y-96211765D01*
X142161671Y-96220030D01*
X142183850Y-96230520D01*
X142204893Y-96243132D01*
X142224599Y-96257747D01*
X142242777Y-96274223D01*
X142259253Y-96292401D01*
X142273868Y-96312107D01*
X142286480Y-96333150D01*
X142296970Y-96355329D01*
X142305235Y-96378428D01*
X142311196Y-96402227D01*
X142314796Y-96426495D01*
X142316000Y-96450999D01*
X142316000Y-97351001D01*
X142314796Y-97375505D01*
X142311196Y-97399773D01*
X142305235Y-97423572D01*
X142296970Y-97446671D01*
X142286480Y-97468850D01*
X142273868Y-97489893D01*
X142259253Y-97509599D01*
X142242777Y-97527777D01*
X142224599Y-97544253D01*
X142204893Y-97558868D01*
X142183850Y-97571480D01*
X142161671Y-97581970D01*
X142138572Y-97590235D01*
X142114773Y-97596196D01*
X142090505Y-97599796D01*
X142066001Y-97601000D01*
X141415999Y-97601000D01*
X141391495Y-97599796D01*
X141367227Y-97596196D01*
X141343428Y-97590235D01*
X141320329Y-97581970D01*
X141298150Y-97571480D01*
X141277107Y-97558868D01*
X141257401Y-97544253D01*
X141239223Y-97527777D01*
X141222747Y-97509599D01*
X141208132Y-97489893D01*
X141195520Y-97468850D01*
X141185030Y-97446671D01*
X141176765Y-97423572D01*
X141170804Y-97399773D01*
X141167204Y-97375505D01*
X141166000Y-97351001D01*
X141166000Y-96450999D01*
X141167204Y-96426495D01*
X141170804Y-96402227D01*
X141176765Y-96378428D01*
X141185030Y-96355329D01*
X141195520Y-96333150D01*
X141208132Y-96312107D01*
X141222747Y-96292401D01*
X141239223Y-96274223D01*
X141257401Y-96257747D01*
X141277107Y-96243132D01*
X141298150Y-96230520D01*
X141320329Y-96220030D01*
X141343428Y-96211765D01*
X141367227Y-96205804D01*
X141391495Y-96202204D01*
X141415999Y-96201000D01*
X142066001Y-96201000D01*
X142090505Y-96202204D01*
G37*
G36*
X135722505Y-80327204D02*
G01*
X135746773Y-80330804D01*
X135770572Y-80336765D01*
X135793671Y-80345030D01*
X135815850Y-80355520D01*
X135836893Y-80368132D01*
X135856599Y-80382747D01*
X135874777Y-80399223D01*
X135891253Y-80417401D01*
X135905868Y-80437107D01*
X135918480Y-80458150D01*
X135928970Y-80480329D01*
X135937235Y-80503428D01*
X135943196Y-80527227D01*
X135946796Y-80551495D01*
X135948000Y-80575999D01*
X135948000Y-81476001D01*
X135946796Y-81500505D01*
X135943196Y-81524773D01*
X135937235Y-81548572D01*
X135928970Y-81571671D01*
X135918480Y-81593850D01*
X135905868Y-81614893D01*
X135891253Y-81634599D01*
X135874777Y-81652777D01*
X135856599Y-81669253D01*
X135836893Y-81683868D01*
X135815850Y-81696480D01*
X135793671Y-81706970D01*
X135770572Y-81715235D01*
X135746773Y-81721196D01*
X135722505Y-81724796D01*
X135698001Y-81726000D01*
X135047999Y-81726000D01*
X135023495Y-81724796D01*
X134999227Y-81721196D01*
X134975428Y-81715235D01*
X134952329Y-81706970D01*
X134930150Y-81696480D01*
X134909107Y-81683868D01*
X134889401Y-81669253D01*
X134871223Y-81652777D01*
X134854747Y-81634599D01*
X134840132Y-81614893D01*
X134827520Y-81593850D01*
X134817030Y-81571671D01*
X134808765Y-81548572D01*
X134802804Y-81524773D01*
X134799204Y-81500505D01*
X134798000Y-81476001D01*
X134798000Y-80575999D01*
X134799204Y-80551495D01*
X134802804Y-80527227D01*
X134808765Y-80503428D01*
X134817030Y-80480329D01*
X134827520Y-80458150D01*
X134840132Y-80437107D01*
X134854747Y-80417401D01*
X134871223Y-80399223D01*
X134889401Y-80382747D01*
X134909107Y-80368132D01*
X134930150Y-80355520D01*
X134952329Y-80345030D01*
X134975428Y-80336765D01*
X134999227Y-80330804D01*
X135023495Y-80327204D01*
X135047999Y-80326000D01*
X135698001Y-80326000D01*
X135722505Y-80327204D01*
G37*
G36*
X137772505Y-80327204D02*
G01*
X137796773Y-80330804D01*
X137820572Y-80336765D01*
X137843671Y-80345030D01*
X137865850Y-80355520D01*
X137886893Y-80368132D01*
X137906599Y-80382747D01*
X137924777Y-80399223D01*
X137941253Y-80417401D01*
X137955868Y-80437107D01*
X137968480Y-80458150D01*
X137978970Y-80480329D01*
X137987235Y-80503428D01*
X137993196Y-80527227D01*
X137996796Y-80551495D01*
X137998000Y-80575999D01*
X137998000Y-81476001D01*
X137996796Y-81500505D01*
X137993196Y-81524773D01*
X137987235Y-81548572D01*
X137978970Y-81571671D01*
X137968480Y-81593850D01*
X137955868Y-81614893D01*
X137941253Y-81634599D01*
X137924777Y-81652777D01*
X137906599Y-81669253D01*
X137886893Y-81683868D01*
X137865850Y-81696480D01*
X137843671Y-81706970D01*
X137820572Y-81715235D01*
X137796773Y-81721196D01*
X137772505Y-81724796D01*
X137748001Y-81726000D01*
X137097999Y-81726000D01*
X137073495Y-81724796D01*
X137049227Y-81721196D01*
X137025428Y-81715235D01*
X137002329Y-81706970D01*
X136980150Y-81696480D01*
X136959107Y-81683868D01*
X136939401Y-81669253D01*
X136921223Y-81652777D01*
X136904747Y-81634599D01*
X136890132Y-81614893D01*
X136877520Y-81593850D01*
X136867030Y-81571671D01*
X136858765Y-81548572D01*
X136852804Y-81524773D01*
X136849204Y-81500505D01*
X136848000Y-81476001D01*
X136848000Y-80575999D01*
X136849204Y-80551495D01*
X136852804Y-80527227D01*
X136858765Y-80503428D01*
X136867030Y-80480329D01*
X136877520Y-80458150D01*
X136890132Y-80437107D01*
X136904747Y-80417401D01*
X136921223Y-80399223D01*
X136939401Y-80382747D01*
X136959107Y-80368132D01*
X136980150Y-80355520D01*
X137002329Y-80345030D01*
X137025428Y-80336765D01*
X137049227Y-80330804D01*
X137073495Y-80327204D01*
X137097999Y-80326000D01*
X137748001Y-80326000D01*
X137772505Y-80327204D01*
G37*
G36*
X137518505Y-96202204D02*
G01*
X137542773Y-96205804D01*
X137566572Y-96211765D01*
X137589671Y-96220030D01*
X137611850Y-96230520D01*
X137632893Y-96243132D01*
X137652599Y-96257747D01*
X137670777Y-96274223D01*
X137687253Y-96292401D01*
X137701868Y-96312107D01*
X137714480Y-96333150D01*
X137724970Y-96355329D01*
X137733235Y-96378428D01*
X137739196Y-96402227D01*
X137742796Y-96426495D01*
X137744000Y-96450999D01*
X137744000Y-97351001D01*
X137742796Y-97375505D01*
X137739196Y-97399773D01*
X137733235Y-97423572D01*
X137724970Y-97446671D01*
X137714480Y-97468850D01*
X137701868Y-97489893D01*
X137687253Y-97509599D01*
X137670777Y-97527777D01*
X137652599Y-97544253D01*
X137632893Y-97558868D01*
X137611850Y-97571480D01*
X137589671Y-97581970D01*
X137566572Y-97590235D01*
X137542773Y-97596196D01*
X137518505Y-97599796D01*
X137494001Y-97601000D01*
X136843999Y-97601000D01*
X136819495Y-97599796D01*
X136795227Y-97596196D01*
X136771428Y-97590235D01*
X136748329Y-97581970D01*
X136726150Y-97571480D01*
X136705107Y-97558868D01*
X136685401Y-97544253D01*
X136667223Y-97527777D01*
X136650747Y-97509599D01*
X136636132Y-97489893D01*
X136623520Y-97468850D01*
X136613030Y-97446671D01*
X136604765Y-97423572D01*
X136598804Y-97399773D01*
X136595204Y-97375505D01*
X136594000Y-97351001D01*
X136594000Y-96450999D01*
X136595204Y-96426495D01*
X136598804Y-96402227D01*
X136604765Y-96378428D01*
X136613030Y-96355329D01*
X136623520Y-96333150D01*
X136636132Y-96312107D01*
X136650747Y-96292401D01*
X136667223Y-96274223D01*
X136685401Y-96257747D01*
X136705107Y-96243132D01*
X136726150Y-96230520D01*
X136748329Y-96220030D01*
X136771428Y-96211765D01*
X136795227Y-96205804D01*
X136819495Y-96202204D01*
X136843999Y-96201000D01*
X137494001Y-96201000D01*
X137518505Y-96202204D01*
G37*
G36*
X135468505Y-96202204D02*
G01*
X135492773Y-96205804D01*
X135516572Y-96211765D01*
X135539671Y-96220030D01*
X135561850Y-96230520D01*
X135582893Y-96243132D01*
X135602599Y-96257747D01*
X135620777Y-96274223D01*
X135637253Y-96292401D01*
X135651868Y-96312107D01*
X135664480Y-96333150D01*
X135674970Y-96355329D01*
X135683235Y-96378428D01*
X135689196Y-96402227D01*
X135692796Y-96426495D01*
X135694000Y-96450999D01*
X135694000Y-97351001D01*
X135692796Y-97375505D01*
X135689196Y-97399773D01*
X135683235Y-97423572D01*
X135674970Y-97446671D01*
X135664480Y-97468850D01*
X135651868Y-97489893D01*
X135637253Y-97509599D01*
X135620777Y-97527777D01*
X135602599Y-97544253D01*
X135582893Y-97558868D01*
X135561850Y-97571480D01*
X135539671Y-97581970D01*
X135516572Y-97590235D01*
X135492773Y-97596196D01*
X135468505Y-97599796D01*
X135444001Y-97601000D01*
X134793999Y-97601000D01*
X134769495Y-97599796D01*
X134745227Y-97596196D01*
X134721428Y-97590235D01*
X134698329Y-97581970D01*
X134676150Y-97571480D01*
X134655107Y-97558868D01*
X134635401Y-97544253D01*
X134617223Y-97527777D01*
X134600747Y-97509599D01*
X134586132Y-97489893D01*
X134573520Y-97468850D01*
X134563030Y-97446671D01*
X134554765Y-97423572D01*
X134548804Y-97399773D01*
X134545204Y-97375505D01*
X134544000Y-97351001D01*
X134544000Y-96450999D01*
X134545204Y-96426495D01*
X134548804Y-96402227D01*
X134554765Y-96378428D01*
X134563030Y-96355329D01*
X134573520Y-96333150D01*
X134586132Y-96312107D01*
X134600747Y-96292401D01*
X134617223Y-96274223D01*
X134635401Y-96257747D01*
X134655107Y-96243132D01*
X134676150Y-96230520D01*
X134698329Y-96220030D01*
X134721428Y-96211765D01*
X134745227Y-96205804D01*
X134769495Y-96202204D01*
X134793999Y-96201000D01*
X135444001Y-96201000D01*
X135468505Y-96202204D01*
G37*
G36*
X128891505Y-86169204D02*
G01*
X128915773Y-86172804D01*
X128939572Y-86178765D01*
X128962671Y-86187030D01*
X128984850Y-86197520D01*
X129005893Y-86210132D01*
X129025599Y-86224747D01*
X129043777Y-86241223D01*
X129060253Y-86259401D01*
X129074868Y-86279107D01*
X129087480Y-86300150D01*
X129097970Y-86322329D01*
X129106235Y-86345428D01*
X129112196Y-86369227D01*
X129115796Y-86393495D01*
X129117000Y-86417999D01*
X129117000Y-87318001D01*
X129115796Y-87342505D01*
X129112196Y-87366773D01*
X129106235Y-87390572D01*
X129097970Y-87413671D01*
X129087480Y-87435850D01*
X129074868Y-87456893D01*
X129060253Y-87476599D01*
X129043777Y-87494777D01*
X129025599Y-87511253D01*
X129005893Y-87525868D01*
X128984850Y-87538480D01*
X128962671Y-87548970D01*
X128939572Y-87557235D01*
X128915773Y-87563196D01*
X128891505Y-87566796D01*
X128867001Y-87568000D01*
X128216999Y-87568000D01*
X128192495Y-87566796D01*
X128168227Y-87563196D01*
X128144428Y-87557235D01*
X128121329Y-87548970D01*
X128099150Y-87538480D01*
X128078107Y-87525868D01*
X128058401Y-87511253D01*
X128040223Y-87494777D01*
X128023747Y-87476599D01*
X128009132Y-87456893D01*
X127996520Y-87435850D01*
X127986030Y-87413671D01*
X127977765Y-87390572D01*
X127971804Y-87366773D01*
X127968204Y-87342505D01*
X127967000Y-87318001D01*
X127967000Y-86417999D01*
X127968204Y-86393495D01*
X127971804Y-86369227D01*
X127977765Y-86345428D01*
X127986030Y-86322329D01*
X127996520Y-86300150D01*
X128009132Y-86279107D01*
X128023747Y-86259401D01*
X128040223Y-86241223D01*
X128058401Y-86224747D01*
X128078107Y-86210132D01*
X128099150Y-86197520D01*
X128121329Y-86187030D01*
X128144428Y-86178765D01*
X128168227Y-86172804D01*
X128192495Y-86169204D01*
X128216999Y-86168000D01*
X128867001Y-86168000D01*
X128891505Y-86169204D01*
G37*
G36*
X126841505Y-86169204D02*
G01*
X126865773Y-86172804D01*
X126889572Y-86178765D01*
X126912671Y-86187030D01*
X126934850Y-86197520D01*
X126955893Y-86210132D01*
X126975599Y-86224747D01*
X126993777Y-86241223D01*
X127010253Y-86259401D01*
X127024868Y-86279107D01*
X127037480Y-86300150D01*
X127047970Y-86322329D01*
X127056235Y-86345428D01*
X127062196Y-86369227D01*
X127065796Y-86393495D01*
X127067000Y-86417999D01*
X127067000Y-87318001D01*
X127065796Y-87342505D01*
X127062196Y-87366773D01*
X127056235Y-87390572D01*
X127047970Y-87413671D01*
X127037480Y-87435850D01*
X127024868Y-87456893D01*
X127010253Y-87476599D01*
X126993777Y-87494777D01*
X126975599Y-87511253D01*
X126955893Y-87525868D01*
X126934850Y-87538480D01*
X126912671Y-87548970D01*
X126889572Y-87557235D01*
X126865773Y-87563196D01*
X126841505Y-87566796D01*
X126817001Y-87568000D01*
X126166999Y-87568000D01*
X126142495Y-87566796D01*
X126118227Y-87563196D01*
X126094428Y-87557235D01*
X126071329Y-87548970D01*
X126049150Y-87538480D01*
X126028107Y-87525868D01*
X126008401Y-87511253D01*
X125990223Y-87494777D01*
X125973747Y-87476599D01*
X125959132Y-87456893D01*
X125946520Y-87435850D01*
X125936030Y-87413671D01*
X125927765Y-87390572D01*
X125921804Y-87366773D01*
X125918204Y-87342505D01*
X125917000Y-87318001D01*
X125917000Y-86417999D01*
X125918204Y-86393495D01*
X125921804Y-86369227D01*
X125927765Y-86345428D01*
X125936030Y-86322329D01*
X125946520Y-86300150D01*
X125959132Y-86279107D01*
X125973747Y-86259401D01*
X125990223Y-86241223D01*
X126008401Y-86224747D01*
X126028107Y-86210132D01*
X126049150Y-86197520D01*
X126071329Y-86187030D01*
X126094428Y-86178765D01*
X126118227Y-86172804D01*
X126142495Y-86169204D01*
X126166999Y-86168000D01*
X126817001Y-86168000D01*
X126841505Y-86169204D01*
G37*
G36*
X126832505Y-88709204D02*
G01*
X126856773Y-88712804D01*
X126880572Y-88718765D01*
X126903671Y-88727030D01*
X126925850Y-88737520D01*
X126946893Y-88750132D01*
X126966599Y-88764747D01*
X126984777Y-88781223D01*
X127001253Y-88799401D01*
X127015868Y-88819107D01*
X127028480Y-88840150D01*
X127038970Y-88862329D01*
X127047235Y-88885428D01*
X127053196Y-88909227D01*
X127056796Y-88933495D01*
X127058000Y-88957999D01*
X127058000Y-89858001D01*
X127056796Y-89882505D01*
X127053196Y-89906773D01*
X127047235Y-89930572D01*
X127038970Y-89953671D01*
X127028480Y-89975850D01*
X127015868Y-89996893D01*
X127001253Y-90016599D01*
X126984777Y-90034777D01*
X126966599Y-90051253D01*
X126946893Y-90065868D01*
X126925850Y-90078480D01*
X126903671Y-90088970D01*
X126880572Y-90097235D01*
X126856773Y-90103196D01*
X126832505Y-90106796D01*
X126808001Y-90108000D01*
X126157999Y-90108000D01*
X126133495Y-90106796D01*
X126109227Y-90103196D01*
X126085428Y-90097235D01*
X126062329Y-90088970D01*
X126040150Y-90078480D01*
X126019107Y-90065868D01*
X125999401Y-90051253D01*
X125981223Y-90034777D01*
X125964747Y-90016599D01*
X125950132Y-89996893D01*
X125937520Y-89975850D01*
X125927030Y-89953671D01*
X125918765Y-89930572D01*
X125912804Y-89906773D01*
X125909204Y-89882505D01*
X125908000Y-89858001D01*
X125908000Y-88957999D01*
X125909204Y-88933495D01*
X125912804Y-88909227D01*
X125918765Y-88885428D01*
X125927030Y-88862329D01*
X125937520Y-88840150D01*
X125950132Y-88819107D01*
X125964747Y-88799401D01*
X125981223Y-88781223D01*
X125999401Y-88764747D01*
X126019107Y-88750132D01*
X126040150Y-88737520D01*
X126062329Y-88727030D01*
X126085428Y-88718765D01*
X126109227Y-88712804D01*
X126133495Y-88709204D01*
X126157999Y-88708000D01*
X126808001Y-88708000D01*
X126832505Y-88709204D01*
G37*
G36*
X128882505Y-88709204D02*
G01*
X128906773Y-88712804D01*
X128930572Y-88718765D01*
X128953671Y-88727030D01*
X128975850Y-88737520D01*
X128996893Y-88750132D01*
X129016599Y-88764747D01*
X129034777Y-88781223D01*
X129051253Y-88799401D01*
X129065868Y-88819107D01*
X129078480Y-88840150D01*
X129088970Y-88862329D01*
X129097235Y-88885428D01*
X129103196Y-88909227D01*
X129106796Y-88933495D01*
X129108000Y-88957999D01*
X129108000Y-89858001D01*
X129106796Y-89882505D01*
X129103196Y-89906773D01*
X129097235Y-89930572D01*
X129088970Y-89953671D01*
X129078480Y-89975850D01*
X129065868Y-89996893D01*
X129051253Y-90016599D01*
X129034777Y-90034777D01*
X129016599Y-90051253D01*
X128996893Y-90065868D01*
X128975850Y-90078480D01*
X128953671Y-90088970D01*
X128930572Y-90097235D01*
X128906773Y-90103196D01*
X128882505Y-90106796D01*
X128858001Y-90108000D01*
X128207999Y-90108000D01*
X128183495Y-90106796D01*
X128159227Y-90103196D01*
X128135428Y-90097235D01*
X128112329Y-90088970D01*
X128090150Y-90078480D01*
X128069107Y-90065868D01*
X128049401Y-90051253D01*
X128031223Y-90034777D01*
X128014747Y-90016599D01*
X128000132Y-89996893D01*
X127987520Y-89975850D01*
X127977030Y-89953671D01*
X127968765Y-89930572D01*
X127962804Y-89906773D01*
X127959204Y-89882505D01*
X127958000Y-89858001D01*
X127958000Y-88957999D01*
X127959204Y-88933495D01*
X127962804Y-88909227D01*
X127968765Y-88885428D01*
X127977030Y-88862329D01*
X127987520Y-88840150D01*
X128000132Y-88819107D01*
X128014747Y-88799401D01*
X128031223Y-88781223D01*
X128049401Y-88764747D01*
X128069107Y-88750132D01*
X128090150Y-88737520D01*
X128112329Y-88727030D01*
X128135428Y-88718765D01*
X128159227Y-88712804D01*
X128183495Y-88709204D01*
X128207999Y-88708000D01*
X128858001Y-88708000D01*
X128882505Y-88709204D01*
G37*
G36*
X147002544Y-92372108D02*
G01*
X147024871Y-92375419D01*
X147046765Y-92380904D01*
X147068017Y-92388508D01*
X147088421Y-92398158D01*
X147107781Y-92409762D01*
X147125910Y-92423208D01*
X147142635Y-92438365D01*
X147157792Y-92455090D01*
X147171238Y-92473219D01*
X147182842Y-92492579D01*
X147192492Y-92512983D01*
X147200096Y-92534235D01*
X147205581Y-92556129D01*
X147208892Y-92578456D01*
X147210000Y-92601000D01*
X147210000Y-93351000D01*
X147208892Y-93373544D01*
X147205581Y-93395871D01*
X147200096Y-93417765D01*
X147192492Y-93439017D01*
X147182842Y-93459421D01*
X147171238Y-93478781D01*
X147157792Y-93496910D01*
X147142635Y-93513635D01*
X147125910Y-93528792D01*
X147107781Y-93542238D01*
X147088421Y-93553842D01*
X147068017Y-93563492D01*
X147046765Y-93571096D01*
X147024871Y-93576581D01*
X147002544Y-93579892D01*
X146980000Y-93581000D01*
X146520000Y-93581000D01*
X146497456Y-93579892D01*
X146475129Y-93576581D01*
X146453235Y-93571096D01*
X146431983Y-93563492D01*
X146411579Y-93553842D01*
X146392219Y-93542238D01*
X146374090Y-93528792D01*
X146357365Y-93513635D01*
X146342208Y-93496910D01*
X146328762Y-93478781D01*
X146317158Y-93459421D01*
X146307508Y-93439017D01*
X146299904Y-93417765D01*
X146294419Y-93395871D01*
X146291108Y-93373544D01*
X146290000Y-93351000D01*
X146290000Y-92601000D01*
X146291108Y-92578456D01*
X146294419Y-92556129D01*
X146299904Y-92534235D01*
X146307508Y-92512983D01*
X146317158Y-92492579D01*
X146328762Y-92473219D01*
X146342208Y-92455090D01*
X146357365Y-92438365D01*
X146374090Y-92423208D01*
X146392219Y-92409762D01*
X146411579Y-92398158D01*
X146431983Y-92388508D01*
X146453235Y-92380904D01*
X146475129Y-92375419D01*
X146497456Y-92372108D01*
X146520000Y-92371000D01*
X146980000Y-92371000D01*
X147002544Y-92372108D01*
G37*
G36*
X147002544Y-93872108D02*
G01*
X147024871Y-93875419D01*
X147046765Y-93880904D01*
X147068017Y-93888508D01*
X147088421Y-93898158D01*
X147107781Y-93909762D01*
X147125910Y-93923208D01*
X147142635Y-93938365D01*
X147157792Y-93955090D01*
X147171238Y-93973219D01*
X147182842Y-93992579D01*
X147192492Y-94012983D01*
X147200096Y-94034235D01*
X147205581Y-94056129D01*
X147208892Y-94078456D01*
X147210000Y-94101000D01*
X147210000Y-94851000D01*
X147208892Y-94873544D01*
X147205581Y-94895871D01*
X147200096Y-94917765D01*
X147192492Y-94939017D01*
X147182842Y-94959421D01*
X147171238Y-94978781D01*
X147157792Y-94996910D01*
X147142635Y-95013635D01*
X147125910Y-95028792D01*
X147107781Y-95042238D01*
X147088421Y-95053842D01*
X147068017Y-95063492D01*
X147046765Y-95071096D01*
X147024871Y-95076581D01*
X147002544Y-95079892D01*
X146980000Y-95081000D01*
X146520000Y-95081000D01*
X146497456Y-95079892D01*
X146475129Y-95076581D01*
X146453235Y-95071096D01*
X146431983Y-95063492D01*
X146411579Y-95053842D01*
X146392219Y-95042238D01*
X146374090Y-95028792D01*
X146357365Y-95013635D01*
X146342208Y-94996910D01*
X146328762Y-94978781D01*
X146317158Y-94959421D01*
X146307508Y-94939017D01*
X146299904Y-94917765D01*
X146294419Y-94895871D01*
X146291108Y-94873544D01*
X146290000Y-94851000D01*
X146290000Y-94101000D01*
X146291108Y-94078456D01*
X146294419Y-94056129D01*
X146299904Y-94034235D01*
X146307508Y-94012983D01*
X146317158Y-93992579D01*
X146328762Y-93973219D01*
X146342208Y-93955090D01*
X146357365Y-93938365D01*
X146374090Y-93923208D01*
X146392219Y-93909762D01*
X146411579Y-93898158D01*
X146431983Y-93888508D01*
X146453235Y-93880904D01*
X146475129Y-93875419D01*
X146497456Y-93872108D01*
X146520000Y-93871000D01*
X146980000Y-93871000D01*
X147002544Y-93872108D01*
G37*
G36*
X148142544Y-92372108D02*
G01*
X148164871Y-92375419D01*
X148186765Y-92380904D01*
X148208017Y-92388508D01*
X148228421Y-92398158D01*
X148247781Y-92409762D01*
X148265910Y-92423208D01*
X148282635Y-92438365D01*
X148297792Y-92455090D01*
X148311238Y-92473219D01*
X148322842Y-92492579D01*
X148332492Y-92512983D01*
X148340096Y-92534235D01*
X148345581Y-92556129D01*
X148348892Y-92578456D01*
X148350000Y-92601000D01*
X148350000Y-93351000D01*
X148348892Y-93373544D01*
X148345581Y-93395871D01*
X148340096Y-93417765D01*
X148332492Y-93439017D01*
X148322842Y-93459421D01*
X148311238Y-93478781D01*
X148297792Y-93496910D01*
X148282635Y-93513635D01*
X148265910Y-93528792D01*
X148247781Y-93542238D01*
X148228421Y-93553842D01*
X148208017Y-93563492D01*
X148186765Y-93571096D01*
X148164871Y-93576581D01*
X148142544Y-93579892D01*
X148120000Y-93581000D01*
X147660000Y-93581000D01*
X147637456Y-93579892D01*
X147615129Y-93576581D01*
X147593235Y-93571096D01*
X147571983Y-93563492D01*
X147551579Y-93553842D01*
X147532219Y-93542238D01*
X147514090Y-93528792D01*
X147497365Y-93513635D01*
X147482208Y-93496910D01*
X147468762Y-93478781D01*
X147457158Y-93459421D01*
X147447508Y-93439017D01*
X147439904Y-93417765D01*
X147434419Y-93395871D01*
X147431108Y-93373544D01*
X147430000Y-93351000D01*
X147430000Y-92601000D01*
X147431108Y-92578456D01*
X147434419Y-92556129D01*
X147439904Y-92534235D01*
X147447508Y-92512983D01*
X147457158Y-92492579D01*
X147468762Y-92473219D01*
X147482208Y-92455090D01*
X147497365Y-92438365D01*
X147514090Y-92423208D01*
X147532219Y-92409762D01*
X147551579Y-92398158D01*
X147571983Y-92388508D01*
X147593235Y-92380904D01*
X147615129Y-92375419D01*
X147637456Y-92372108D01*
X147660000Y-92371000D01*
X148120000Y-92371000D01*
X148142544Y-92372108D01*
G37*
G36*
X148142544Y-93872108D02*
G01*
X148164871Y-93875419D01*
X148186765Y-93880904D01*
X148208017Y-93888508D01*
X148228421Y-93898158D01*
X148247781Y-93909762D01*
X148265910Y-93923208D01*
X148282635Y-93938365D01*
X148297792Y-93955090D01*
X148311238Y-93973219D01*
X148322842Y-93992579D01*
X148332492Y-94012983D01*
X148340096Y-94034235D01*
X148345581Y-94056129D01*
X148348892Y-94078456D01*
X148350000Y-94101000D01*
X148350000Y-94851000D01*
X148348892Y-94873544D01*
X148345581Y-94895871D01*
X148340096Y-94917765D01*
X148332492Y-94939017D01*
X148322842Y-94959421D01*
X148311238Y-94978781D01*
X148297792Y-94996910D01*
X148282635Y-95013635D01*
X148265910Y-95028792D01*
X148247781Y-95042238D01*
X148228421Y-95053842D01*
X148208017Y-95063492D01*
X148186765Y-95071096D01*
X148164871Y-95076581D01*
X148142544Y-95079892D01*
X148120000Y-95081000D01*
X147660000Y-95081000D01*
X147637456Y-95079892D01*
X147615129Y-95076581D01*
X147593235Y-95071096D01*
X147571983Y-95063492D01*
X147551579Y-95053842D01*
X147532219Y-95042238D01*
X147514090Y-95028792D01*
X147497365Y-95013635D01*
X147482208Y-94996910D01*
X147468762Y-94978781D01*
X147457158Y-94959421D01*
X147447508Y-94939017D01*
X147439904Y-94917765D01*
X147434419Y-94895871D01*
X147431108Y-94873544D01*
X147430000Y-94851000D01*
X147430000Y-94101000D01*
X147431108Y-94078456D01*
X147434419Y-94056129D01*
X147439904Y-94034235D01*
X147447508Y-94012983D01*
X147457158Y-93992579D01*
X147468762Y-93973219D01*
X147482208Y-93955090D01*
X147497365Y-93938365D01*
X147514090Y-93923208D01*
X147532219Y-93909762D01*
X147551579Y-93898158D01*
X147571983Y-93888508D01*
X147593235Y-93880904D01*
X147615129Y-93875419D01*
X147637456Y-93872108D01*
X147660000Y-93871000D01*
X148120000Y-93871000D01*
X148142544Y-93872108D01*
G37*
G36*
X145684703Y-91521722D02*
G01*
X145699264Y-91523882D01*
X145713543Y-91527459D01*
X145727403Y-91532418D01*
X145740710Y-91538712D01*
X145753336Y-91546280D01*
X145765159Y-91555048D01*
X145776066Y-91564934D01*
X145785952Y-91575841D01*
X145794720Y-91587664D01*
X145802288Y-91600290D01*
X145808582Y-91613597D01*
X145813541Y-91627457D01*
X145817118Y-91641736D01*
X145819278Y-91656297D01*
X145820000Y-91671000D01*
X145820000Y-91971000D01*
X145819278Y-91985703D01*
X145817118Y-92000264D01*
X145813541Y-92014543D01*
X145808582Y-92028403D01*
X145802288Y-92041710D01*
X145794720Y-92054336D01*
X145785952Y-92066159D01*
X145776066Y-92077066D01*
X145765159Y-92086952D01*
X145753336Y-92095720D01*
X145740710Y-92103288D01*
X145727403Y-92109582D01*
X145713543Y-92114541D01*
X145699264Y-92118118D01*
X145684703Y-92120278D01*
X145670000Y-92121000D01*
X144020000Y-92121000D01*
X144005297Y-92120278D01*
X143990736Y-92118118D01*
X143976457Y-92114541D01*
X143962597Y-92109582D01*
X143949290Y-92103288D01*
X143936664Y-92095720D01*
X143924841Y-92086952D01*
X143913934Y-92077066D01*
X143904048Y-92066159D01*
X143895280Y-92054336D01*
X143887712Y-92041710D01*
X143881418Y-92028403D01*
X143876459Y-92014543D01*
X143872882Y-92000264D01*
X143870722Y-91985703D01*
X143870000Y-91971000D01*
X143870000Y-91671000D01*
X143870722Y-91656297D01*
X143872882Y-91641736D01*
X143876459Y-91627457D01*
X143881418Y-91613597D01*
X143887712Y-91600290D01*
X143895280Y-91587664D01*
X143904048Y-91575841D01*
X143913934Y-91564934D01*
X143924841Y-91555048D01*
X143936664Y-91546280D01*
X143949290Y-91538712D01*
X143962597Y-91532418D01*
X143976457Y-91527459D01*
X143990736Y-91523882D01*
X144005297Y-91521722D01*
X144020000Y-91521000D01*
X145670000Y-91521000D01*
X145684703Y-91521722D01*
G37*
G36*
X145684703Y-92791722D02*
G01*
X145699264Y-92793882D01*
X145713543Y-92797459D01*
X145727403Y-92802418D01*
X145740710Y-92808712D01*
X145753336Y-92816280D01*
X145765159Y-92825048D01*
X145776066Y-92834934D01*
X145785952Y-92845841D01*
X145794720Y-92857664D01*
X145802288Y-92870290D01*
X145808582Y-92883597D01*
X145813541Y-92897457D01*
X145817118Y-92911736D01*
X145819278Y-92926297D01*
X145820000Y-92941000D01*
X145820000Y-93241000D01*
X145819278Y-93255703D01*
X145817118Y-93270264D01*
X145813541Y-93284543D01*
X145808582Y-93298403D01*
X145802288Y-93311710D01*
X145794720Y-93324336D01*
X145785952Y-93336159D01*
X145776066Y-93347066D01*
X145765159Y-93356952D01*
X145753336Y-93365720D01*
X145740710Y-93373288D01*
X145727403Y-93379582D01*
X145713543Y-93384541D01*
X145699264Y-93388118D01*
X145684703Y-93390278D01*
X145670000Y-93391000D01*
X144020000Y-93391000D01*
X144005297Y-93390278D01*
X143990736Y-93388118D01*
X143976457Y-93384541D01*
X143962597Y-93379582D01*
X143949290Y-93373288D01*
X143936664Y-93365720D01*
X143924841Y-93356952D01*
X143913934Y-93347066D01*
X143904048Y-93336159D01*
X143895280Y-93324336D01*
X143887712Y-93311710D01*
X143881418Y-93298403D01*
X143876459Y-93284543D01*
X143872882Y-93270264D01*
X143870722Y-93255703D01*
X143870000Y-93241000D01*
X143870000Y-92941000D01*
X143870722Y-92926297D01*
X143872882Y-92911736D01*
X143876459Y-92897457D01*
X143881418Y-92883597D01*
X143887712Y-92870290D01*
X143895280Y-92857664D01*
X143904048Y-92845841D01*
X143913934Y-92834934D01*
X143924841Y-92825048D01*
X143936664Y-92816280D01*
X143949290Y-92808712D01*
X143962597Y-92802418D01*
X143976457Y-92797459D01*
X143990736Y-92793882D01*
X144005297Y-92791722D01*
X144020000Y-92791000D01*
X145670000Y-92791000D01*
X145684703Y-92791722D01*
G37*
G36*
X145684703Y-94061722D02*
G01*
X145699264Y-94063882D01*
X145713543Y-94067459D01*
X145727403Y-94072418D01*
X145740710Y-94078712D01*
X145753336Y-94086280D01*
X145765159Y-94095048D01*
X145776066Y-94104934D01*
X145785952Y-94115841D01*
X145794720Y-94127664D01*
X145802288Y-94140290D01*
X145808582Y-94153597D01*
X145813541Y-94167457D01*
X145817118Y-94181736D01*
X145819278Y-94196297D01*
X145820000Y-94211000D01*
X145820000Y-94511000D01*
X145819278Y-94525703D01*
X145817118Y-94540264D01*
X145813541Y-94554543D01*
X145808582Y-94568403D01*
X145802288Y-94581710D01*
X145794720Y-94594336D01*
X145785952Y-94606159D01*
X145776066Y-94617066D01*
X145765159Y-94626952D01*
X145753336Y-94635720D01*
X145740710Y-94643288D01*
X145727403Y-94649582D01*
X145713543Y-94654541D01*
X145699264Y-94658118D01*
X145684703Y-94660278D01*
X145670000Y-94661000D01*
X144020000Y-94661000D01*
X144005297Y-94660278D01*
X143990736Y-94658118D01*
X143976457Y-94654541D01*
X143962597Y-94649582D01*
X143949290Y-94643288D01*
X143936664Y-94635720D01*
X143924841Y-94626952D01*
X143913934Y-94617066D01*
X143904048Y-94606159D01*
X143895280Y-94594336D01*
X143887712Y-94581710D01*
X143881418Y-94568403D01*
X143876459Y-94554543D01*
X143872882Y-94540264D01*
X143870722Y-94525703D01*
X143870000Y-94511000D01*
X143870000Y-94211000D01*
X143870722Y-94196297D01*
X143872882Y-94181736D01*
X143876459Y-94167457D01*
X143881418Y-94153597D01*
X143887712Y-94140290D01*
X143895280Y-94127664D01*
X143904048Y-94115841D01*
X143913934Y-94104934D01*
X143924841Y-94095048D01*
X143936664Y-94086280D01*
X143949290Y-94078712D01*
X143962597Y-94072418D01*
X143976457Y-94067459D01*
X143990736Y-94063882D01*
X144005297Y-94061722D01*
X144020000Y-94061000D01*
X145670000Y-94061000D01*
X145684703Y-94061722D01*
G37*
G36*
X145684703Y-95331722D02*
G01*
X145699264Y-95333882D01*
X145713543Y-95337459D01*
X145727403Y-95342418D01*
X145740710Y-95348712D01*
X145753336Y-95356280D01*
X145765159Y-95365048D01*
X145776066Y-95374934D01*
X145785952Y-95385841D01*
X145794720Y-95397664D01*
X145802288Y-95410290D01*
X145808582Y-95423597D01*
X145813541Y-95437457D01*
X145817118Y-95451736D01*
X145819278Y-95466297D01*
X145820000Y-95481000D01*
X145820000Y-95781000D01*
X145819278Y-95795703D01*
X145817118Y-95810264D01*
X145813541Y-95824543D01*
X145808582Y-95838403D01*
X145802288Y-95851710D01*
X145794720Y-95864336D01*
X145785952Y-95876159D01*
X145776066Y-95887066D01*
X145765159Y-95896952D01*
X145753336Y-95905720D01*
X145740710Y-95913288D01*
X145727403Y-95919582D01*
X145713543Y-95924541D01*
X145699264Y-95928118D01*
X145684703Y-95930278D01*
X145670000Y-95931000D01*
X144020000Y-95931000D01*
X144005297Y-95930278D01*
X143990736Y-95928118D01*
X143976457Y-95924541D01*
X143962597Y-95919582D01*
X143949290Y-95913288D01*
X143936664Y-95905720D01*
X143924841Y-95896952D01*
X143913934Y-95887066D01*
X143904048Y-95876159D01*
X143895280Y-95864336D01*
X143887712Y-95851710D01*
X143881418Y-95838403D01*
X143876459Y-95824543D01*
X143872882Y-95810264D01*
X143870722Y-95795703D01*
X143870000Y-95781000D01*
X143870000Y-95481000D01*
X143870722Y-95466297D01*
X143872882Y-95451736D01*
X143876459Y-95437457D01*
X143881418Y-95423597D01*
X143887712Y-95410290D01*
X143895280Y-95397664D01*
X143904048Y-95385841D01*
X143913934Y-95374934D01*
X143924841Y-95365048D01*
X143936664Y-95356280D01*
X143949290Y-95348712D01*
X143962597Y-95342418D01*
X143976457Y-95337459D01*
X143990736Y-95333882D01*
X144005297Y-95331722D01*
X144020000Y-95331000D01*
X145670000Y-95331000D01*
X145684703Y-95331722D01*
G37*
G36*
X150634703Y-95331722D02*
G01*
X150649264Y-95333882D01*
X150663543Y-95337459D01*
X150677403Y-95342418D01*
X150690710Y-95348712D01*
X150703336Y-95356280D01*
X150715159Y-95365048D01*
X150726066Y-95374934D01*
X150735952Y-95385841D01*
X150744720Y-95397664D01*
X150752288Y-95410290D01*
X150758582Y-95423597D01*
X150763541Y-95437457D01*
X150767118Y-95451736D01*
X150769278Y-95466297D01*
X150770000Y-95481000D01*
X150770000Y-95781000D01*
X150769278Y-95795703D01*
X150767118Y-95810264D01*
X150763541Y-95824543D01*
X150758582Y-95838403D01*
X150752288Y-95851710D01*
X150744720Y-95864336D01*
X150735952Y-95876159D01*
X150726066Y-95887066D01*
X150715159Y-95896952D01*
X150703336Y-95905720D01*
X150690710Y-95913288D01*
X150677403Y-95919582D01*
X150663543Y-95924541D01*
X150649264Y-95928118D01*
X150634703Y-95930278D01*
X150620000Y-95931000D01*
X148970000Y-95931000D01*
X148955297Y-95930278D01*
X148940736Y-95928118D01*
X148926457Y-95924541D01*
X148912597Y-95919582D01*
X148899290Y-95913288D01*
X148886664Y-95905720D01*
X148874841Y-95896952D01*
X148863934Y-95887066D01*
X148854048Y-95876159D01*
X148845280Y-95864336D01*
X148837712Y-95851710D01*
X148831418Y-95838403D01*
X148826459Y-95824543D01*
X148822882Y-95810264D01*
X148820722Y-95795703D01*
X148820000Y-95781000D01*
X148820000Y-95481000D01*
X148820722Y-95466297D01*
X148822882Y-95451736D01*
X148826459Y-95437457D01*
X148831418Y-95423597D01*
X148837712Y-95410290D01*
X148845280Y-95397664D01*
X148854048Y-95385841D01*
X148863934Y-95374934D01*
X148874841Y-95365048D01*
X148886664Y-95356280D01*
X148899290Y-95348712D01*
X148912597Y-95342418D01*
X148926457Y-95337459D01*
X148940736Y-95333882D01*
X148955297Y-95331722D01*
X148970000Y-95331000D01*
X150620000Y-95331000D01*
X150634703Y-95331722D01*
G37*
G36*
X150634703Y-94061722D02*
G01*
X150649264Y-94063882D01*
X150663543Y-94067459D01*
X150677403Y-94072418D01*
X150690710Y-94078712D01*
X150703336Y-94086280D01*
X150715159Y-94095048D01*
X150726066Y-94104934D01*
X150735952Y-94115841D01*
X150744720Y-94127664D01*
X150752288Y-94140290D01*
X150758582Y-94153597D01*
X150763541Y-94167457D01*
X150767118Y-94181736D01*
X150769278Y-94196297D01*
X150770000Y-94211000D01*
X150770000Y-94511000D01*
X150769278Y-94525703D01*
X150767118Y-94540264D01*
X150763541Y-94554543D01*
X150758582Y-94568403D01*
X150752288Y-94581710D01*
X150744720Y-94594336D01*
X150735952Y-94606159D01*
X150726066Y-94617066D01*
X150715159Y-94626952D01*
X150703336Y-94635720D01*
X150690710Y-94643288D01*
X150677403Y-94649582D01*
X150663543Y-94654541D01*
X150649264Y-94658118D01*
X150634703Y-94660278D01*
X150620000Y-94661000D01*
X148970000Y-94661000D01*
X148955297Y-94660278D01*
X148940736Y-94658118D01*
X148926457Y-94654541D01*
X148912597Y-94649582D01*
X148899290Y-94643288D01*
X148886664Y-94635720D01*
X148874841Y-94626952D01*
X148863934Y-94617066D01*
X148854048Y-94606159D01*
X148845280Y-94594336D01*
X148837712Y-94581710D01*
X148831418Y-94568403D01*
X148826459Y-94554543D01*
X148822882Y-94540264D01*
X148820722Y-94525703D01*
X148820000Y-94511000D01*
X148820000Y-94211000D01*
X148820722Y-94196297D01*
X148822882Y-94181736D01*
X148826459Y-94167457D01*
X148831418Y-94153597D01*
X148837712Y-94140290D01*
X148845280Y-94127664D01*
X148854048Y-94115841D01*
X148863934Y-94104934D01*
X148874841Y-94095048D01*
X148886664Y-94086280D01*
X148899290Y-94078712D01*
X148912597Y-94072418D01*
X148926457Y-94067459D01*
X148940736Y-94063882D01*
X148955297Y-94061722D01*
X148970000Y-94061000D01*
X150620000Y-94061000D01*
X150634703Y-94061722D01*
G37*
G36*
X150634703Y-92791722D02*
G01*
X150649264Y-92793882D01*
X150663543Y-92797459D01*
X150677403Y-92802418D01*
X150690710Y-92808712D01*
X150703336Y-92816280D01*
X150715159Y-92825048D01*
X150726066Y-92834934D01*
X150735952Y-92845841D01*
X150744720Y-92857664D01*
X150752288Y-92870290D01*
X150758582Y-92883597D01*
X150763541Y-92897457D01*
X150767118Y-92911736D01*
X150769278Y-92926297D01*
X150770000Y-92941000D01*
X150770000Y-93241000D01*
X150769278Y-93255703D01*
X150767118Y-93270264D01*
X150763541Y-93284543D01*
X150758582Y-93298403D01*
X150752288Y-93311710D01*
X150744720Y-93324336D01*
X150735952Y-93336159D01*
X150726066Y-93347066D01*
X150715159Y-93356952D01*
X150703336Y-93365720D01*
X150690710Y-93373288D01*
X150677403Y-93379582D01*
X150663543Y-93384541D01*
X150649264Y-93388118D01*
X150634703Y-93390278D01*
X150620000Y-93391000D01*
X148970000Y-93391000D01*
X148955297Y-93390278D01*
X148940736Y-93388118D01*
X148926457Y-93384541D01*
X148912597Y-93379582D01*
X148899290Y-93373288D01*
X148886664Y-93365720D01*
X148874841Y-93356952D01*
X148863934Y-93347066D01*
X148854048Y-93336159D01*
X148845280Y-93324336D01*
X148837712Y-93311710D01*
X148831418Y-93298403D01*
X148826459Y-93284543D01*
X148822882Y-93270264D01*
X148820722Y-93255703D01*
X148820000Y-93241000D01*
X148820000Y-92941000D01*
X148820722Y-92926297D01*
X148822882Y-92911736D01*
X148826459Y-92897457D01*
X148831418Y-92883597D01*
X148837712Y-92870290D01*
X148845280Y-92857664D01*
X148854048Y-92845841D01*
X148863934Y-92834934D01*
X148874841Y-92825048D01*
X148886664Y-92816280D01*
X148899290Y-92808712D01*
X148912597Y-92802418D01*
X148926457Y-92797459D01*
X148940736Y-92793882D01*
X148955297Y-92791722D01*
X148970000Y-92791000D01*
X150620000Y-92791000D01*
X150634703Y-92791722D01*
G37*
G36*
X150634703Y-91521722D02*
G01*
X150649264Y-91523882D01*
X150663543Y-91527459D01*
X150677403Y-91532418D01*
X150690710Y-91538712D01*
X150703336Y-91546280D01*
X150715159Y-91555048D01*
X150726066Y-91564934D01*
X150735952Y-91575841D01*
X150744720Y-91587664D01*
X150752288Y-91600290D01*
X150758582Y-91613597D01*
X150763541Y-91627457D01*
X150767118Y-91641736D01*
X150769278Y-91656297D01*
X150770000Y-91671000D01*
X150770000Y-91971000D01*
X150769278Y-91985703D01*
X150767118Y-92000264D01*
X150763541Y-92014543D01*
X150758582Y-92028403D01*
X150752288Y-92041710D01*
X150744720Y-92054336D01*
X150735952Y-92066159D01*
X150726066Y-92077066D01*
X150715159Y-92086952D01*
X150703336Y-92095720D01*
X150690710Y-92103288D01*
X150677403Y-92109582D01*
X150663543Y-92114541D01*
X150649264Y-92118118D01*
X150634703Y-92120278D01*
X150620000Y-92121000D01*
X148970000Y-92121000D01*
X148955297Y-92120278D01*
X148940736Y-92118118D01*
X148926457Y-92114541D01*
X148912597Y-92109582D01*
X148899290Y-92103288D01*
X148886664Y-92095720D01*
X148874841Y-92086952D01*
X148863934Y-92077066D01*
X148854048Y-92066159D01*
X148845280Y-92054336D01*
X148837712Y-92041710D01*
X148831418Y-92028403D01*
X148826459Y-92014543D01*
X148822882Y-92000264D01*
X148820722Y-91985703D01*
X148820000Y-91971000D01*
X148820000Y-91671000D01*
X148820722Y-91656297D01*
X148822882Y-91641736D01*
X148826459Y-91627457D01*
X148831418Y-91613597D01*
X148837712Y-91600290D01*
X148845280Y-91587664D01*
X148854048Y-91575841D01*
X148863934Y-91564934D01*
X148874841Y-91555048D01*
X148886664Y-91546280D01*
X148899290Y-91538712D01*
X148912597Y-91532418D01*
X148926457Y-91527459D01*
X148940736Y-91523882D01*
X148955297Y-91521722D01*
X148970000Y-91521000D01*
X150620000Y-91521000D01*
X150634703Y-91521722D01*
G37*
M02*
