G04 #@! TF.GenerationSoftware,KiCad,Pcbnew,5.1.5-52549c5~86~ubuntu16.04.1*
G04 #@! TF.CreationDate,2020-07-29T15:08:35+05:30*
G04 #@! TF.ProjectId,MQxx Gas Sensor V1.0,4d517878-2047-4617-9320-53656e736f72,V1.0*
G04 #@! TF.SameCoordinates,Original*
G04 #@! TF.FileFunction,Copper,L2,Bot*
G04 #@! TF.FilePolarity,Positive*
%FSLAX46Y46*%
G04 Gerber Fmt 4.6, Leading zero omitted, Abs format (unit mm)*
G04 Created by KiCad (PCBNEW 5.1.5-52549c5~86~ubuntu16.04.1) date 2020-07-29 15:08:35*
%MOMM*%
%LPD*%
G04 APERTURE LIST*
%ADD10C,0.300000*%
%ADD11R,1.700000X1.700000*%
%ADD12O,1.700000X1.700000*%
%ADD13C,1.440000*%
%ADD14C,2.000000*%
%ADD15R,2.000000X2.000000*%
%ADD16C,0.812800*%
%ADD17C,0.355600*%
%ADD18C,0.457200*%
%ADD19C,0.254000*%
G04 APERTURE END LIST*
D10*
X151490642Y-98206642D02*
X151633500Y-98278071D01*
X151919214Y-98278071D01*
X152062071Y-98206642D01*
X152133500Y-98063785D01*
X152133500Y-97492357D01*
X152062071Y-97349500D01*
X151919214Y-97278071D01*
X151633500Y-97278071D01*
X151490642Y-97349500D01*
X151419214Y-97492357D01*
X151419214Y-97635214D01*
X152133500Y-97778071D01*
X150562071Y-98278071D02*
X150704928Y-98206642D01*
X150776357Y-98063785D01*
X150776357Y-96778071D01*
X149419214Y-98206642D02*
X149562071Y-98278071D01*
X149847785Y-98278071D01*
X149990642Y-98206642D01*
X150062071Y-98063785D01*
X150062071Y-97492357D01*
X149990642Y-97349500D01*
X149847785Y-97278071D01*
X149562071Y-97278071D01*
X149419214Y-97349500D01*
X149347785Y-97492357D01*
X149347785Y-97635214D01*
X150062071Y-97778071D01*
X148704928Y-98278071D02*
X148704928Y-97278071D01*
X148704928Y-97420928D02*
X148633500Y-97349500D01*
X148490642Y-97278071D01*
X148276357Y-97278071D01*
X148133500Y-97349500D01*
X148062071Y-97492357D01*
X148062071Y-98278071D01*
X148062071Y-97492357D02*
X147990642Y-97349500D01*
X147847785Y-97278071D01*
X147633500Y-97278071D01*
X147490642Y-97349500D01*
X147419214Y-97492357D01*
X147419214Y-98278071D01*
X146133500Y-98206642D02*
X146276357Y-98278071D01*
X146562071Y-98278071D01*
X146704928Y-98206642D01*
X146776357Y-98063785D01*
X146776357Y-97492357D01*
X146704928Y-97349500D01*
X146562071Y-97278071D01*
X146276357Y-97278071D01*
X146133500Y-97349500D01*
X146062071Y-97492357D01*
X146062071Y-97635214D01*
X146776357Y-97778071D01*
X145419214Y-97278071D02*
X145419214Y-98278071D01*
X145419214Y-97420928D02*
X145347785Y-97349500D01*
X145204928Y-97278071D01*
X144990642Y-97278071D01*
X144847785Y-97349500D01*
X144776357Y-97492357D01*
X144776357Y-98278071D01*
X144276357Y-97278071D02*
X143704928Y-97278071D01*
X144062071Y-96778071D02*
X144062071Y-98063785D01*
X143990642Y-98206642D01*
X143847785Y-98278071D01*
X143704928Y-98278071D01*
X143347785Y-97278071D02*
X142562071Y-97278071D01*
X143347785Y-98278071D01*
X142562071Y-98278071D01*
D11*
X155702000Y-85090000D03*
D12*
X155702000Y-87630000D03*
X155702000Y-90170000D03*
X155702000Y-92710000D03*
D13*
X146050000Y-82550000D03*
X148590000Y-85090000D03*
X151130000Y-82550000D03*
D14*
X136710000Y-84208000D03*
X136710000Y-93708000D03*
D15*
X133350000Y-85598000D03*
D14*
X140070000Y-85598000D03*
X140070000Y-92318000D03*
X133350000Y-92318000D03*
D16*
X143764000Y-90678000D03*
X150749000Y-88900000D03*
X130683000Y-96012000D03*
X131826000Y-82423000D03*
X143129000Y-84582000D03*
X133350000Y-96647000D03*
X142528410Y-91981508D03*
X130302000Y-86868000D03*
X143002000Y-94361000D03*
D17*
X153924000Y-90170000D02*
X155702000Y-90170000D01*
X153162000Y-89408000D02*
X153924000Y-90170000D01*
X153162000Y-86868000D02*
X153162000Y-89408000D01*
X149606000Y-83312000D02*
X153162000Y-86868000D01*
X143764000Y-90678000D02*
X144170399Y-90271601D01*
X144170399Y-90271601D02*
X144170399Y-87350601D01*
X144170399Y-87350601D02*
X148209000Y-83312000D01*
X148209000Y-83312000D02*
X149606000Y-83312000D01*
D18*
X133096000Y-92572000D02*
X133350000Y-92318000D01*
X133350000Y-92318000D02*
X133350000Y-93732213D01*
X133350000Y-93732213D02*
X133350000Y-95250000D01*
X133350000Y-95250000D02*
X133350000Y-96647000D01*
D17*
X134366000Y-86614000D02*
X133350000Y-85598000D01*
X139054000Y-86614000D02*
X134366000Y-86614000D01*
X140070000Y-85598000D02*
X139054000Y-86614000D01*
X142528410Y-88056410D02*
X142528410Y-91406772D01*
X142528410Y-91406772D02*
X142528410Y-91981508D01*
X140070000Y-85598000D02*
X142528410Y-88056410D01*
X149352000Y-95758000D02*
X152400000Y-92710000D01*
X152400000Y-92710000D02*
X155702000Y-92710000D01*
X142528410Y-91981508D02*
X142528410Y-92556244D01*
X142528410Y-92556244D02*
X141859000Y-93225654D01*
X141859000Y-94742000D02*
X142875000Y-95758000D01*
X142875000Y-95758000D02*
X149352000Y-95758000D01*
X141859000Y-93225654D02*
X141859000Y-94742000D01*
X134874000Y-89154000D02*
X136710000Y-90990000D01*
X136710000Y-90990000D02*
X136710000Y-93708000D01*
X132588000Y-89154000D02*
X134874000Y-89154000D01*
X130302000Y-86868000D02*
X132588000Y-89154000D01*
X148590000Y-86108233D02*
X148590000Y-85090000D01*
X143002000Y-94361000D02*
X148590000Y-88773000D01*
X148590000Y-88773000D02*
X148590000Y-86108233D01*
D19*
G36*
X153075271Y-79763962D02*
G01*
X152763962Y-80075271D01*
X152519369Y-80441331D01*
X152350890Y-80848075D01*
X152265000Y-81279872D01*
X152265000Y-81720128D01*
X152291498Y-81853342D01*
X152065560Y-81794045D01*
X151309605Y-82550000D01*
X152065560Y-83305955D01*
X152301368Y-83244068D01*
X152414266Y-83002210D01*
X152477811Y-82742973D01*
X152489147Y-82485708D01*
X152519369Y-82558669D01*
X152763962Y-82924729D01*
X153075271Y-83236038D01*
X153441331Y-83480631D01*
X153848075Y-83649110D01*
X154279872Y-83735000D01*
X154466389Y-83735000D01*
X154400815Y-83788815D01*
X154321463Y-83885506D01*
X154262498Y-83995820D01*
X154226188Y-84115518D01*
X154213928Y-84240000D01*
X154213928Y-85940000D01*
X154226188Y-86064482D01*
X154262498Y-86184180D01*
X154321463Y-86294494D01*
X154400815Y-86391185D01*
X154497506Y-86470537D01*
X154607820Y-86529502D01*
X154688466Y-86553966D01*
X154604412Y-86629731D01*
X154430359Y-86863080D01*
X154305175Y-87125901D01*
X154260524Y-87273110D01*
X154381845Y-87503000D01*
X155575000Y-87503000D01*
X155575000Y-87483000D01*
X155829000Y-87483000D01*
X155829000Y-87503000D01*
X155849000Y-87503000D01*
X155849000Y-87757000D01*
X155829000Y-87757000D01*
X155829000Y-87777000D01*
X155575000Y-87777000D01*
X155575000Y-87757000D01*
X154381845Y-87757000D01*
X154260524Y-87986890D01*
X154305175Y-88134099D01*
X154430359Y-88396920D01*
X154604412Y-88630269D01*
X154820645Y-88825178D01*
X154937534Y-88894805D01*
X154755368Y-89016525D01*
X154548525Y-89223368D01*
X154459101Y-89357200D01*
X154260673Y-89357200D01*
X153974800Y-89071328D01*
X153974800Y-86907920D01*
X153978732Y-86867999D01*
X153970786Y-86787321D01*
X153963039Y-86708663D01*
X153916562Y-86555450D01*
X153844581Y-86420783D01*
X153841088Y-86414247D01*
X153806796Y-86372463D01*
X153739517Y-86290483D01*
X153708502Y-86265030D01*
X151333157Y-83889685D01*
X151467501Y-83869063D01*
X151718353Y-83777875D01*
X151824068Y-83721368D01*
X151885955Y-83485560D01*
X151130000Y-82729605D01*
X151115858Y-82743748D01*
X150936253Y-82564143D01*
X150950395Y-82550000D01*
X150194440Y-81794045D01*
X149958632Y-81855932D01*
X149845734Y-82097790D01*
X149782189Y-82357027D01*
X149775273Y-82513975D01*
X149765337Y-82510961D01*
X149645923Y-82499200D01*
X149645920Y-82499200D01*
X149606000Y-82495268D01*
X149566080Y-82499200D01*
X148248920Y-82499200D01*
X148208999Y-82495268D01*
X148169079Y-82499200D01*
X148169077Y-82499200D01*
X148049663Y-82510961D01*
X147896450Y-82557438D01*
X147804432Y-82606623D01*
X147755247Y-82632912D01*
X147717037Y-82664271D01*
X147631483Y-82734483D01*
X147606028Y-82765500D01*
X147301054Y-83070474D01*
X147352928Y-82945239D01*
X147405000Y-82683456D01*
X147405000Y-82416544D01*
X147352928Y-82154761D01*
X147250785Y-81908167D01*
X147102497Y-81686238D01*
X147030699Y-81614440D01*
X150374045Y-81614440D01*
X151130000Y-82370395D01*
X151885955Y-81614440D01*
X151824068Y-81378632D01*
X151582210Y-81265734D01*
X151322973Y-81202189D01*
X151056320Y-81190439D01*
X150792499Y-81230937D01*
X150541647Y-81322125D01*
X150435932Y-81378632D01*
X150374045Y-81614440D01*
X147030699Y-81614440D01*
X146913762Y-81497503D01*
X146691833Y-81349215D01*
X146445239Y-81247072D01*
X146183456Y-81195000D01*
X145916544Y-81195000D01*
X145654761Y-81247072D01*
X145408167Y-81349215D01*
X145186238Y-81497503D01*
X144997503Y-81686238D01*
X144849215Y-81908167D01*
X144747072Y-82154761D01*
X144695000Y-82416544D01*
X144695000Y-82683456D01*
X144747072Y-82945239D01*
X144849215Y-83191833D01*
X144997503Y-83413762D01*
X145186238Y-83602497D01*
X145408167Y-83750785D01*
X145654761Y-83852928D01*
X145916544Y-83905000D01*
X146183456Y-83905000D01*
X146445239Y-83852928D01*
X146570474Y-83801054D01*
X143623894Y-86747634D01*
X143592883Y-86773084D01*
X143567433Y-86804095D01*
X143491311Y-86896850D01*
X143415837Y-87038052D01*
X143406828Y-87067752D01*
X143372612Y-87180549D01*
X143369361Y-87191265D01*
X143353667Y-87350601D01*
X143357600Y-87390531D01*
X143357599Y-89719133D01*
X143341210Y-89725922D01*
X143341210Y-88096333D01*
X143345142Y-88056410D01*
X143329449Y-87897073D01*
X143282972Y-87743860D01*
X143207498Y-87602658D01*
X143131376Y-87509903D01*
X143105927Y-87478893D01*
X143074917Y-87453444D01*
X141651163Y-86029691D01*
X141705000Y-85759033D01*
X141705000Y-85436967D01*
X141642168Y-85121088D01*
X141518918Y-84823537D01*
X141339987Y-84555748D01*
X141112252Y-84328013D01*
X140844463Y-84149082D01*
X140546912Y-84025832D01*
X140231033Y-83963000D01*
X139908967Y-83963000D01*
X139593088Y-84025832D01*
X139295537Y-84149082D01*
X139027748Y-84328013D01*
X138800013Y-84555748D01*
X138621082Y-84823537D01*
X138497832Y-85121088D01*
X138435000Y-85436967D01*
X138435000Y-85759033D01*
X138443388Y-85801200D01*
X137081177Y-85801200D01*
X137186912Y-85780168D01*
X137484463Y-85656918D01*
X137752252Y-85477987D01*
X137979987Y-85250252D01*
X138158918Y-84982463D01*
X138282168Y-84684912D01*
X138345000Y-84369033D01*
X138345000Y-84046967D01*
X138282168Y-83731088D01*
X138158918Y-83433537D01*
X137979987Y-83165748D01*
X137752252Y-82938013D01*
X137484463Y-82759082D01*
X137186912Y-82635832D01*
X136871033Y-82573000D01*
X136548967Y-82573000D01*
X136233088Y-82635832D01*
X135935537Y-82759082D01*
X135667748Y-82938013D01*
X135440013Y-83165748D01*
X135261082Y-83433537D01*
X135137832Y-83731088D01*
X135075000Y-84046967D01*
X135075000Y-84369033D01*
X135137832Y-84684912D01*
X135261082Y-84982463D01*
X135440013Y-85250252D01*
X135667748Y-85477987D01*
X135935537Y-85656918D01*
X136233088Y-85780168D01*
X136338823Y-85801200D01*
X134988072Y-85801200D01*
X134988072Y-84598000D01*
X134975812Y-84473518D01*
X134939502Y-84353820D01*
X134880537Y-84243506D01*
X134801185Y-84146815D01*
X134704494Y-84067463D01*
X134594180Y-84008498D01*
X134474482Y-83972188D01*
X134350000Y-83959928D01*
X132350000Y-83959928D01*
X132225518Y-83972188D01*
X132105820Y-84008498D01*
X131995506Y-84067463D01*
X131898815Y-84146815D01*
X131819463Y-84243506D01*
X131760498Y-84353820D01*
X131724188Y-84473518D01*
X131711928Y-84598000D01*
X131711928Y-86598000D01*
X131724188Y-86722482D01*
X131760498Y-86842180D01*
X131819463Y-86952494D01*
X131898815Y-87049185D01*
X131995506Y-87128537D01*
X132105820Y-87187502D01*
X132225518Y-87223812D01*
X132350000Y-87236072D01*
X133842774Y-87236072D01*
X133912248Y-87293088D01*
X134053450Y-87368562D01*
X134206663Y-87415039D01*
X134326077Y-87426800D01*
X134326079Y-87426800D01*
X134366000Y-87430732D01*
X134405920Y-87426800D01*
X139014080Y-87426800D01*
X139054000Y-87430732D01*
X139093920Y-87426800D01*
X139093923Y-87426800D01*
X139213337Y-87415039D01*
X139366550Y-87368562D01*
X139507752Y-87293088D01*
X139631517Y-87191517D01*
X139641186Y-87179735D01*
X139908967Y-87233000D01*
X140231033Y-87233000D01*
X140501691Y-87179163D01*
X141715610Y-88393083D01*
X141715611Y-91323477D01*
X141605533Y-91488220D01*
X141550769Y-91620432D01*
X141518918Y-91543537D01*
X141339987Y-91275748D01*
X141112252Y-91048013D01*
X140844463Y-90869082D01*
X140546912Y-90745832D01*
X140231033Y-90683000D01*
X139908967Y-90683000D01*
X139593088Y-90745832D01*
X139295537Y-90869082D01*
X139027748Y-91048013D01*
X138800013Y-91275748D01*
X138621082Y-91543537D01*
X138497832Y-91841088D01*
X138435000Y-92156967D01*
X138435000Y-92479033D01*
X138497832Y-92794912D01*
X138621082Y-93092463D01*
X138800013Y-93360252D01*
X139027748Y-93587987D01*
X139295537Y-93766918D01*
X139593088Y-93890168D01*
X139908967Y-93953000D01*
X140231033Y-93953000D01*
X140546912Y-93890168D01*
X140844463Y-93766918D01*
X141046200Y-93632121D01*
X141046201Y-94702070D01*
X141042268Y-94742000D01*
X141057962Y-94901336D01*
X141104438Y-95054549D01*
X141179912Y-95195751D01*
X141179913Y-95195752D01*
X141281484Y-95319517D01*
X141312495Y-95344967D01*
X141777028Y-95809500D01*
X141562786Y-95809500D01*
X141562786Y-98340000D01*
X128769139Y-98340000D01*
X128924729Y-98236038D01*
X129236038Y-97924729D01*
X129480631Y-97558669D01*
X129649110Y-97151925D01*
X129735000Y-96720128D01*
X129735000Y-96279872D01*
X129649110Y-95848075D01*
X129480631Y-95441331D01*
X129236038Y-95075271D01*
X128924729Y-94763962D01*
X128558669Y-94519369D01*
X128151925Y-94350890D01*
X127720128Y-94265000D01*
X127279872Y-94265000D01*
X126848075Y-94350890D01*
X126441331Y-94519369D01*
X126075271Y-94763962D01*
X125763962Y-95075271D01*
X125660000Y-95230861D01*
X125660000Y-92156967D01*
X131715000Y-92156967D01*
X131715000Y-92479033D01*
X131777832Y-92794912D01*
X131901082Y-93092463D01*
X132080013Y-93360252D01*
X132307748Y-93587987D01*
X132486400Y-93707359D01*
X132486401Y-95207571D01*
X132486400Y-95207581D01*
X132486401Y-96064997D01*
X132427123Y-96153712D01*
X132348620Y-96343235D01*
X132308600Y-96544431D01*
X132308600Y-96749569D01*
X132348620Y-96950765D01*
X132427123Y-97140288D01*
X132541092Y-97310854D01*
X132686146Y-97455908D01*
X132856712Y-97569877D01*
X133046235Y-97648380D01*
X133247431Y-97688400D01*
X133452569Y-97688400D01*
X133653765Y-97648380D01*
X133843288Y-97569877D01*
X134013854Y-97455908D01*
X134158908Y-97310854D01*
X134272877Y-97140288D01*
X134351380Y-96950765D01*
X134391400Y-96749569D01*
X134391400Y-96544431D01*
X134351380Y-96343235D01*
X134272877Y-96153712D01*
X134213600Y-96064998D01*
X134213600Y-93707359D01*
X134392252Y-93587987D01*
X134619987Y-93360252D01*
X134798918Y-93092463D01*
X134922168Y-92794912D01*
X134985000Y-92479033D01*
X134985000Y-92156967D01*
X134922168Y-91841088D01*
X134798918Y-91543537D01*
X134619987Y-91275748D01*
X134392252Y-91048013D01*
X134124463Y-90869082D01*
X133826912Y-90745832D01*
X133511033Y-90683000D01*
X133188967Y-90683000D01*
X132873088Y-90745832D01*
X132575537Y-90869082D01*
X132307748Y-91048013D01*
X132080013Y-91275748D01*
X131901082Y-91543537D01*
X131777832Y-91841088D01*
X131715000Y-92156967D01*
X125660000Y-92156967D01*
X125660000Y-86765431D01*
X129260600Y-86765431D01*
X129260600Y-86970569D01*
X129300620Y-87171765D01*
X129379123Y-87361288D01*
X129493092Y-87531854D01*
X129638146Y-87676908D01*
X129808712Y-87790877D01*
X129998235Y-87869380D01*
X130192561Y-87908034D01*
X131985033Y-89700506D01*
X132010483Y-89731517D01*
X132134248Y-89833088D01*
X132275450Y-89908562D01*
X132428663Y-89955039D01*
X132548077Y-89966800D01*
X132548079Y-89966800D01*
X132587999Y-89970732D01*
X132627920Y-89966800D01*
X134537328Y-89966800D01*
X135897200Y-91326673D01*
X135897200Y-92284698D01*
X135667748Y-92438013D01*
X135440013Y-92665748D01*
X135261082Y-92933537D01*
X135137832Y-93231088D01*
X135075000Y-93546967D01*
X135075000Y-93869033D01*
X135137832Y-94184912D01*
X135261082Y-94482463D01*
X135440013Y-94750252D01*
X135667748Y-94977987D01*
X135935537Y-95156918D01*
X136233088Y-95280168D01*
X136548967Y-95343000D01*
X136871033Y-95343000D01*
X137186912Y-95280168D01*
X137484463Y-95156918D01*
X137752252Y-94977987D01*
X137979987Y-94750252D01*
X138158918Y-94482463D01*
X138282168Y-94184912D01*
X138345000Y-93869033D01*
X138345000Y-93546967D01*
X138282168Y-93231088D01*
X138158918Y-92933537D01*
X137979987Y-92665748D01*
X137752252Y-92438013D01*
X137522800Y-92284698D01*
X137522800Y-91029920D01*
X137526732Y-90989999D01*
X137515249Y-90873411D01*
X137511039Y-90830663D01*
X137464562Y-90677450D01*
X137389088Y-90536248D01*
X137287517Y-90412483D01*
X137256507Y-90387034D01*
X135476971Y-88607499D01*
X135451517Y-88576483D01*
X135327752Y-88474912D01*
X135186550Y-88399438D01*
X135033337Y-88352961D01*
X134913923Y-88341200D01*
X134913920Y-88341200D01*
X134874000Y-88337268D01*
X134834080Y-88341200D01*
X132924673Y-88341200D01*
X131342034Y-86758561D01*
X131303380Y-86564235D01*
X131224877Y-86374712D01*
X131110908Y-86204146D01*
X130965854Y-86059092D01*
X130795288Y-85945123D01*
X130605765Y-85866620D01*
X130404569Y-85826600D01*
X130199431Y-85826600D01*
X129998235Y-85866620D01*
X129808712Y-85945123D01*
X129638146Y-86059092D01*
X129493092Y-86204146D01*
X129379123Y-86374712D01*
X129300620Y-86564235D01*
X129260600Y-86765431D01*
X125660000Y-86765431D01*
X125660000Y-82769139D01*
X125763962Y-82924729D01*
X126075271Y-83236038D01*
X126441331Y-83480631D01*
X126848075Y-83649110D01*
X127279872Y-83735000D01*
X127720128Y-83735000D01*
X128151925Y-83649110D01*
X128558669Y-83480631D01*
X128924729Y-83236038D01*
X129236038Y-82924729D01*
X129480631Y-82558669D01*
X129649110Y-82151925D01*
X129735000Y-81720128D01*
X129735000Y-81279872D01*
X129649110Y-80848075D01*
X129480631Y-80441331D01*
X129236038Y-80075271D01*
X128924729Y-79763962D01*
X128769139Y-79660000D01*
X153230861Y-79660000D01*
X153075271Y-79763962D01*
G37*
X153075271Y-79763962D02*
X152763962Y-80075271D01*
X152519369Y-80441331D01*
X152350890Y-80848075D01*
X152265000Y-81279872D01*
X152265000Y-81720128D01*
X152291498Y-81853342D01*
X152065560Y-81794045D01*
X151309605Y-82550000D01*
X152065560Y-83305955D01*
X152301368Y-83244068D01*
X152414266Y-83002210D01*
X152477811Y-82742973D01*
X152489147Y-82485708D01*
X152519369Y-82558669D01*
X152763962Y-82924729D01*
X153075271Y-83236038D01*
X153441331Y-83480631D01*
X153848075Y-83649110D01*
X154279872Y-83735000D01*
X154466389Y-83735000D01*
X154400815Y-83788815D01*
X154321463Y-83885506D01*
X154262498Y-83995820D01*
X154226188Y-84115518D01*
X154213928Y-84240000D01*
X154213928Y-85940000D01*
X154226188Y-86064482D01*
X154262498Y-86184180D01*
X154321463Y-86294494D01*
X154400815Y-86391185D01*
X154497506Y-86470537D01*
X154607820Y-86529502D01*
X154688466Y-86553966D01*
X154604412Y-86629731D01*
X154430359Y-86863080D01*
X154305175Y-87125901D01*
X154260524Y-87273110D01*
X154381845Y-87503000D01*
X155575000Y-87503000D01*
X155575000Y-87483000D01*
X155829000Y-87483000D01*
X155829000Y-87503000D01*
X155849000Y-87503000D01*
X155849000Y-87757000D01*
X155829000Y-87757000D01*
X155829000Y-87777000D01*
X155575000Y-87777000D01*
X155575000Y-87757000D01*
X154381845Y-87757000D01*
X154260524Y-87986890D01*
X154305175Y-88134099D01*
X154430359Y-88396920D01*
X154604412Y-88630269D01*
X154820645Y-88825178D01*
X154937534Y-88894805D01*
X154755368Y-89016525D01*
X154548525Y-89223368D01*
X154459101Y-89357200D01*
X154260673Y-89357200D01*
X153974800Y-89071328D01*
X153974800Y-86907920D01*
X153978732Y-86867999D01*
X153970786Y-86787321D01*
X153963039Y-86708663D01*
X153916562Y-86555450D01*
X153844581Y-86420783D01*
X153841088Y-86414247D01*
X153806796Y-86372463D01*
X153739517Y-86290483D01*
X153708502Y-86265030D01*
X151333157Y-83889685D01*
X151467501Y-83869063D01*
X151718353Y-83777875D01*
X151824068Y-83721368D01*
X151885955Y-83485560D01*
X151130000Y-82729605D01*
X151115858Y-82743748D01*
X150936253Y-82564143D01*
X150950395Y-82550000D01*
X150194440Y-81794045D01*
X149958632Y-81855932D01*
X149845734Y-82097790D01*
X149782189Y-82357027D01*
X149775273Y-82513975D01*
X149765337Y-82510961D01*
X149645923Y-82499200D01*
X149645920Y-82499200D01*
X149606000Y-82495268D01*
X149566080Y-82499200D01*
X148248920Y-82499200D01*
X148208999Y-82495268D01*
X148169079Y-82499200D01*
X148169077Y-82499200D01*
X148049663Y-82510961D01*
X147896450Y-82557438D01*
X147804432Y-82606623D01*
X147755247Y-82632912D01*
X147717037Y-82664271D01*
X147631483Y-82734483D01*
X147606028Y-82765500D01*
X147301054Y-83070474D01*
X147352928Y-82945239D01*
X147405000Y-82683456D01*
X147405000Y-82416544D01*
X147352928Y-82154761D01*
X147250785Y-81908167D01*
X147102497Y-81686238D01*
X147030699Y-81614440D01*
X150374045Y-81614440D01*
X151130000Y-82370395D01*
X151885955Y-81614440D01*
X151824068Y-81378632D01*
X151582210Y-81265734D01*
X151322973Y-81202189D01*
X151056320Y-81190439D01*
X150792499Y-81230937D01*
X150541647Y-81322125D01*
X150435932Y-81378632D01*
X150374045Y-81614440D01*
X147030699Y-81614440D01*
X146913762Y-81497503D01*
X146691833Y-81349215D01*
X146445239Y-81247072D01*
X146183456Y-81195000D01*
X145916544Y-81195000D01*
X145654761Y-81247072D01*
X145408167Y-81349215D01*
X145186238Y-81497503D01*
X144997503Y-81686238D01*
X144849215Y-81908167D01*
X144747072Y-82154761D01*
X144695000Y-82416544D01*
X144695000Y-82683456D01*
X144747072Y-82945239D01*
X144849215Y-83191833D01*
X144997503Y-83413762D01*
X145186238Y-83602497D01*
X145408167Y-83750785D01*
X145654761Y-83852928D01*
X145916544Y-83905000D01*
X146183456Y-83905000D01*
X146445239Y-83852928D01*
X146570474Y-83801054D01*
X143623894Y-86747634D01*
X143592883Y-86773084D01*
X143567433Y-86804095D01*
X143491311Y-86896850D01*
X143415837Y-87038052D01*
X143406828Y-87067752D01*
X143372612Y-87180549D01*
X143369361Y-87191265D01*
X143353667Y-87350601D01*
X143357600Y-87390531D01*
X143357599Y-89719133D01*
X143341210Y-89725922D01*
X143341210Y-88096333D01*
X143345142Y-88056410D01*
X143329449Y-87897073D01*
X143282972Y-87743860D01*
X143207498Y-87602658D01*
X143131376Y-87509903D01*
X143105927Y-87478893D01*
X143074917Y-87453444D01*
X141651163Y-86029691D01*
X141705000Y-85759033D01*
X141705000Y-85436967D01*
X141642168Y-85121088D01*
X141518918Y-84823537D01*
X141339987Y-84555748D01*
X141112252Y-84328013D01*
X140844463Y-84149082D01*
X140546912Y-84025832D01*
X140231033Y-83963000D01*
X139908967Y-83963000D01*
X139593088Y-84025832D01*
X139295537Y-84149082D01*
X139027748Y-84328013D01*
X138800013Y-84555748D01*
X138621082Y-84823537D01*
X138497832Y-85121088D01*
X138435000Y-85436967D01*
X138435000Y-85759033D01*
X138443388Y-85801200D01*
X137081177Y-85801200D01*
X137186912Y-85780168D01*
X137484463Y-85656918D01*
X137752252Y-85477987D01*
X137979987Y-85250252D01*
X138158918Y-84982463D01*
X138282168Y-84684912D01*
X138345000Y-84369033D01*
X138345000Y-84046967D01*
X138282168Y-83731088D01*
X138158918Y-83433537D01*
X137979987Y-83165748D01*
X137752252Y-82938013D01*
X137484463Y-82759082D01*
X137186912Y-82635832D01*
X136871033Y-82573000D01*
X136548967Y-82573000D01*
X136233088Y-82635832D01*
X135935537Y-82759082D01*
X135667748Y-82938013D01*
X135440013Y-83165748D01*
X135261082Y-83433537D01*
X135137832Y-83731088D01*
X135075000Y-84046967D01*
X135075000Y-84369033D01*
X135137832Y-84684912D01*
X135261082Y-84982463D01*
X135440013Y-85250252D01*
X135667748Y-85477987D01*
X135935537Y-85656918D01*
X136233088Y-85780168D01*
X136338823Y-85801200D01*
X134988072Y-85801200D01*
X134988072Y-84598000D01*
X134975812Y-84473518D01*
X134939502Y-84353820D01*
X134880537Y-84243506D01*
X134801185Y-84146815D01*
X134704494Y-84067463D01*
X134594180Y-84008498D01*
X134474482Y-83972188D01*
X134350000Y-83959928D01*
X132350000Y-83959928D01*
X132225518Y-83972188D01*
X132105820Y-84008498D01*
X131995506Y-84067463D01*
X131898815Y-84146815D01*
X131819463Y-84243506D01*
X131760498Y-84353820D01*
X131724188Y-84473518D01*
X131711928Y-84598000D01*
X131711928Y-86598000D01*
X131724188Y-86722482D01*
X131760498Y-86842180D01*
X131819463Y-86952494D01*
X131898815Y-87049185D01*
X131995506Y-87128537D01*
X132105820Y-87187502D01*
X132225518Y-87223812D01*
X132350000Y-87236072D01*
X133842774Y-87236072D01*
X133912248Y-87293088D01*
X134053450Y-87368562D01*
X134206663Y-87415039D01*
X134326077Y-87426800D01*
X134326079Y-87426800D01*
X134366000Y-87430732D01*
X134405920Y-87426800D01*
X139014080Y-87426800D01*
X139054000Y-87430732D01*
X139093920Y-87426800D01*
X139093923Y-87426800D01*
X139213337Y-87415039D01*
X139366550Y-87368562D01*
X139507752Y-87293088D01*
X139631517Y-87191517D01*
X139641186Y-87179735D01*
X139908967Y-87233000D01*
X140231033Y-87233000D01*
X140501691Y-87179163D01*
X141715610Y-88393083D01*
X141715611Y-91323477D01*
X141605533Y-91488220D01*
X141550769Y-91620432D01*
X141518918Y-91543537D01*
X141339987Y-91275748D01*
X141112252Y-91048013D01*
X140844463Y-90869082D01*
X140546912Y-90745832D01*
X140231033Y-90683000D01*
X139908967Y-90683000D01*
X139593088Y-90745832D01*
X139295537Y-90869082D01*
X139027748Y-91048013D01*
X138800013Y-91275748D01*
X138621082Y-91543537D01*
X138497832Y-91841088D01*
X138435000Y-92156967D01*
X138435000Y-92479033D01*
X138497832Y-92794912D01*
X138621082Y-93092463D01*
X138800013Y-93360252D01*
X139027748Y-93587987D01*
X139295537Y-93766918D01*
X139593088Y-93890168D01*
X139908967Y-93953000D01*
X140231033Y-93953000D01*
X140546912Y-93890168D01*
X140844463Y-93766918D01*
X141046200Y-93632121D01*
X141046201Y-94702070D01*
X141042268Y-94742000D01*
X141057962Y-94901336D01*
X141104438Y-95054549D01*
X141179912Y-95195751D01*
X141179913Y-95195752D01*
X141281484Y-95319517D01*
X141312495Y-95344967D01*
X141777028Y-95809500D01*
X141562786Y-95809500D01*
X141562786Y-98340000D01*
X128769139Y-98340000D01*
X128924729Y-98236038D01*
X129236038Y-97924729D01*
X129480631Y-97558669D01*
X129649110Y-97151925D01*
X129735000Y-96720128D01*
X129735000Y-96279872D01*
X129649110Y-95848075D01*
X129480631Y-95441331D01*
X129236038Y-95075271D01*
X128924729Y-94763962D01*
X128558669Y-94519369D01*
X128151925Y-94350890D01*
X127720128Y-94265000D01*
X127279872Y-94265000D01*
X126848075Y-94350890D01*
X126441331Y-94519369D01*
X126075271Y-94763962D01*
X125763962Y-95075271D01*
X125660000Y-95230861D01*
X125660000Y-92156967D01*
X131715000Y-92156967D01*
X131715000Y-92479033D01*
X131777832Y-92794912D01*
X131901082Y-93092463D01*
X132080013Y-93360252D01*
X132307748Y-93587987D01*
X132486400Y-93707359D01*
X132486401Y-95207571D01*
X132486400Y-95207581D01*
X132486401Y-96064997D01*
X132427123Y-96153712D01*
X132348620Y-96343235D01*
X132308600Y-96544431D01*
X132308600Y-96749569D01*
X132348620Y-96950765D01*
X132427123Y-97140288D01*
X132541092Y-97310854D01*
X132686146Y-97455908D01*
X132856712Y-97569877D01*
X133046235Y-97648380D01*
X133247431Y-97688400D01*
X133452569Y-97688400D01*
X133653765Y-97648380D01*
X133843288Y-97569877D01*
X134013854Y-97455908D01*
X134158908Y-97310854D01*
X134272877Y-97140288D01*
X134351380Y-96950765D01*
X134391400Y-96749569D01*
X134391400Y-96544431D01*
X134351380Y-96343235D01*
X134272877Y-96153712D01*
X134213600Y-96064998D01*
X134213600Y-93707359D01*
X134392252Y-93587987D01*
X134619987Y-93360252D01*
X134798918Y-93092463D01*
X134922168Y-92794912D01*
X134985000Y-92479033D01*
X134985000Y-92156967D01*
X134922168Y-91841088D01*
X134798918Y-91543537D01*
X134619987Y-91275748D01*
X134392252Y-91048013D01*
X134124463Y-90869082D01*
X133826912Y-90745832D01*
X133511033Y-90683000D01*
X133188967Y-90683000D01*
X132873088Y-90745832D01*
X132575537Y-90869082D01*
X132307748Y-91048013D01*
X132080013Y-91275748D01*
X131901082Y-91543537D01*
X131777832Y-91841088D01*
X131715000Y-92156967D01*
X125660000Y-92156967D01*
X125660000Y-86765431D01*
X129260600Y-86765431D01*
X129260600Y-86970569D01*
X129300620Y-87171765D01*
X129379123Y-87361288D01*
X129493092Y-87531854D01*
X129638146Y-87676908D01*
X129808712Y-87790877D01*
X129998235Y-87869380D01*
X130192561Y-87908034D01*
X131985033Y-89700506D01*
X132010483Y-89731517D01*
X132134248Y-89833088D01*
X132275450Y-89908562D01*
X132428663Y-89955039D01*
X132548077Y-89966800D01*
X132548079Y-89966800D01*
X132587999Y-89970732D01*
X132627920Y-89966800D01*
X134537328Y-89966800D01*
X135897200Y-91326673D01*
X135897200Y-92284698D01*
X135667748Y-92438013D01*
X135440013Y-92665748D01*
X135261082Y-92933537D01*
X135137832Y-93231088D01*
X135075000Y-93546967D01*
X135075000Y-93869033D01*
X135137832Y-94184912D01*
X135261082Y-94482463D01*
X135440013Y-94750252D01*
X135667748Y-94977987D01*
X135935537Y-95156918D01*
X136233088Y-95280168D01*
X136548967Y-95343000D01*
X136871033Y-95343000D01*
X137186912Y-95280168D01*
X137484463Y-95156918D01*
X137752252Y-94977987D01*
X137979987Y-94750252D01*
X138158918Y-94482463D01*
X138282168Y-94184912D01*
X138345000Y-93869033D01*
X138345000Y-93546967D01*
X138282168Y-93231088D01*
X138158918Y-92933537D01*
X137979987Y-92665748D01*
X137752252Y-92438013D01*
X137522800Y-92284698D01*
X137522800Y-91029920D01*
X137526732Y-90989999D01*
X137515249Y-90873411D01*
X137511039Y-90830663D01*
X137464562Y-90677450D01*
X137389088Y-90536248D01*
X137287517Y-90412483D01*
X137256507Y-90387034D01*
X135476971Y-88607499D01*
X135451517Y-88576483D01*
X135327752Y-88474912D01*
X135186550Y-88399438D01*
X135033337Y-88352961D01*
X134913923Y-88341200D01*
X134913920Y-88341200D01*
X134874000Y-88337268D01*
X134834080Y-88341200D01*
X132924673Y-88341200D01*
X131342034Y-86758561D01*
X131303380Y-86564235D01*
X131224877Y-86374712D01*
X131110908Y-86204146D01*
X130965854Y-86059092D01*
X130795288Y-85945123D01*
X130605765Y-85866620D01*
X130404569Y-85826600D01*
X130199431Y-85826600D01*
X129998235Y-85866620D01*
X129808712Y-85945123D01*
X129638146Y-86059092D01*
X129493092Y-86204146D01*
X129379123Y-86374712D01*
X129300620Y-86564235D01*
X129260600Y-86765431D01*
X125660000Y-86765431D01*
X125660000Y-82769139D01*
X125763962Y-82924729D01*
X126075271Y-83236038D01*
X126441331Y-83480631D01*
X126848075Y-83649110D01*
X127279872Y-83735000D01*
X127720128Y-83735000D01*
X128151925Y-83649110D01*
X128558669Y-83480631D01*
X128924729Y-83236038D01*
X129236038Y-82924729D01*
X129480631Y-82558669D01*
X129649110Y-82151925D01*
X129735000Y-81720128D01*
X129735000Y-81279872D01*
X129649110Y-80848075D01*
X129480631Y-80441331D01*
X129236038Y-80075271D01*
X128924729Y-79763962D01*
X128769139Y-79660000D01*
X153230861Y-79660000D01*
X153075271Y-79763962D01*
G36*
X152349200Y-87204672D02*
G01*
X152349201Y-89368070D01*
X152345268Y-89408000D01*
X152359570Y-89553206D01*
X152360962Y-89567337D01*
X152368590Y-89592483D01*
X152407438Y-89720549D01*
X152482912Y-89861751D01*
X152482913Y-89861752D01*
X152584484Y-89985517D01*
X152615495Y-90010967D01*
X153321033Y-90716506D01*
X153346483Y-90747517D01*
X153446081Y-90829255D01*
X153470248Y-90849088D01*
X153611450Y-90924562D01*
X153764663Y-90971039D01*
X153924000Y-90986732D01*
X153963923Y-90982800D01*
X154459101Y-90982800D01*
X154548525Y-91116632D01*
X154755368Y-91323475D01*
X154929760Y-91440000D01*
X154755368Y-91556525D01*
X154548525Y-91763368D01*
X154459101Y-91897200D01*
X152439920Y-91897200D01*
X152400000Y-91893268D01*
X152360079Y-91897200D01*
X152360077Y-91897200D01*
X152240663Y-91908961D01*
X152087450Y-91955438D01*
X151946248Y-92030912D01*
X151822483Y-92132483D01*
X151797033Y-92163494D01*
X149015328Y-94945200D01*
X143864131Y-94945200D01*
X143924877Y-94854288D01*
X144003380Y-94664765D01*
X144042034Y-94470438D01*
X149136502Y-89375970D01*
X149167517Y-89350517D01*
X149237729Y-89264963D01*
X149269088Y-89226753D01*
X149295377Y-89177568D01*
X149344562Y-89085550D01*
X149391039Y-88932337D01*
X149402800Y-88812923D01*
X149402800Y-88812921D01*
X149406732Y-88773001D01*
X149402800Y-88733080D01*
X149402800Y-86176549D01*
X149453762Y-86142497D01*
X149642497Y-85953762D01*
X149790785Y-85731833D01*
X149892928Y-85485239D01*
X149945000Y-85223456D01*
X149945000Y-84956544D01*
X149906247Y-84761719D01*
X152349200Y-87204672D01*
G37*
X152349200Y-87204672D02*
X152349201Y-89368070D01*
X152345268Y-89408000D01*
X152359570Y-89553206D01*
X152360962Y-89567337D01*
X152368590Y-89592483D01*
X152407438Y-89720549D01*
X152482912Y-89861751D01*
X152482913Y-89861752D01*
X152584484Y-89985517D01*
X152615495Y-90010967D01*
X153321033Y-90716506D01*
X153346483Y-90747517D01*
X153446081Y-90829255D01*
X153470248Y-90849088D01*
X153611450Y-90924562D01*
X153764663Y-90971039D01*
X153924000Y-90986732D01*
X153963923Y-90982800D01*
X154459101Y-90982800D01*
X154548525Y-91116632D01*
X154755368Y-91323475D01*
X154929760Y-91440000D01*
X154755368Y-91556525D01*
X154548525Y-91763368D01*
X154459101Y-91897200D01*
X152439920Y-91897200D01*
X152400000Y-91893268D01*
X152360079Y-91897200D01*
X152360077Y-91897200D01*
X152240663Y-91908961D01*
X152087450Y-91955438D01*
X151946248Y-92030912D01*
X151822483Y-92132483D01*
X151797033Y-92163494D01*
X149015328Y-94945200D01*
X143864131Y-94945200D01*
X143924877Y-94854288D01*
X144003380Y-94664765D01*
X144042034Y-94470438D01*
X149136502Y-89375970D01*
X149167517Y-89350517D01*
X149237729Y-89264963D01*
X149269088Y-89226753D01*
X149295377Y-89177568D01*
X149344562Y-89085550D01*
X149391039Y-88932337D01*
X149402800Y-88812923D01*
X149402800Y-88812921D01*
X149406732Y-88773001D01*
X149402800Y-88733080D01*
X149402800Y-86176549D01*
X149453762Y-86142497D01*
X149642497Y-85953762D01*
X149790785Y-85731833D01*
X149892928Y-85485239D01*
X149945000Y-85223456D01*
X149945000Y-84956544D01*
X149906247Y-84761719D01*
X152349200Y-87204672D01*
M02*
