G04 #@! TF.GenerationSoftware,KiCad,Pcbnew,5.1.5-52549c5~86~ubuntu16.04.1*
G04 #@! TF.CreationDate,2020-11-24T12:51:21+05:30*
G04 #@! TF.ProjectId,IR_Sensor_Module_555_V1.0,49525f53-656e-4736-9f72-5f4d6f64756c,V1.0*
G04 #@! TF.SameCoordinates,Original*
G04 #@! TF.FileFunction,Legend,Top*
G04 #@! TF.FilePolarity,Positive*
%FSLAX46Y46*%
G04 Gerber Fmt 4.6, Leading zero omitted, Abs format (unit mm)*
G04 Created by KiCad (PCBNEW 5.1.5-52549c5~86~ubuntu16.04.1) date 2020-11-24 12:51:21*
%MOMM*%
%LPD*%
G04 APERTURE LIST*
%ADD10C,0.250000*%
%ADD11C,0.150000*%
%ADD12C,0.200000*%
%ADD13C,0.120000*%
%ADD14C,0.100000*%
G04 APERTURE END LIST*
D10*
X128676400Y-101626942D02*
X128724019Y-101674561D01*
X128676400Y-101722180D01*
X128628780Y-101674561D01*
X128676400Y-101626942D01*
X128676400Y-101722180D01*
X124764800Y-113869742D02*
X124812419Y-113917361D01*
X124764800Y-113964980D01*
X124717180Y-113917361D01*
X124764800Y-113869742D01*
X124764800Y-113964980D01*
D11*
X125341238Y-103830380D02*
X125341238Y-102830380D01*
X125722190Y-102830380D01*
X125817428Y-102878000D01*
X125865047Y-102925619D01*
X125912666Y-103020857D01*
X125912666Y-103163714D01*
X125865047Y-103258952D01*
X125817428Y-103306571D01*
X125722190Y-103354190D01*
X125341238Y-103354190D01*
X126484095Y-103830380D02*
X126388857Y-103782761D01*
X126341238Y-103687523D01*
X126341238Y-102830380D01*
X127246000Y-103782761D02*
X127150761Y-103830380D01*
X126960285Y-103830380D01*
X126865047Y-103782761D01*
X126817428Y-103687523D01*
X126817428Y-103306571D01*
X126865047Y-103211333D01*
X126960285Y-103163714D01*
X127150761Y-103163714D01*
X127246000Y-103211333D01*
X127293619Y-103306571D01*
X127293619Y-103401809D01*
X126817428Y-103497047D01*
X128150761Y-103830380D02*
X128150761Y-102830380D01*
X128150761Y-103782761D02*
X128055523Y-103830380D01*
X127865047Y-103830380D01*
X127769809Y-103782761D01*
X127722190Y-103735142D01*
X127674571Y-103639904D01*
X127674571Y-103354190D01*
X127722190Y-103258952D01*
X127769809Y-103211333D01*
X127865047Y-103163714D01*
X128055523Y-103163714D01*
X128150761Y-103211333D01*
X125317428Y-112418761D02*
X125460285Y-112466380D01*
X125698380Y-112466380D01*
X125793619Y-112418761D01*
X125841238Y-112371142D01*
X125888857Y-112275904D01*
X125888857Y-112180666D01*
X125841238Y-112085428D01*
X125793619Y-112037809D01*
X125698380Y-111990190D01*
X125507904Y-111942571D01*
X125412666Y-111894952D01*
X125365047Y-111847333D01*
X125317428Y-111752095D01*
X125317428Y-111656857D01*
X125365047Y-111561619D01*
X125412666Y-111514000D01*
X125507904Y-111466380D01*
X125746000Y-111466380D01*
X125888857Y-111514000D01*
X126460285Y-112466380D02*
X126365047Y-112418761D01*
X126317428Y-112323523D01*
X126317428Y-111466380D01*
X127222190Y-112418761D02*
X127126952Y-112466380D01*
X126936476Y-112466380D01*
X126841238Y-112418761D01*
X126793619Y-112323523D01*
X126793619Y-111942571D01*
X126841238Y-111847333D01*
X126936476Y-111799714D01*
X127126952Y-111799714D01*
X127222190Y-111847333D01*
X127269809Y-111942571D01*
X127269809Y-112037809D01*
X126793619Y-112133047D01*
X128126952Y-112466380D02*
X128126952Y-111466380D01*
X128126952Y-112418761D02*
X128031714Y-112466380D01*
X127841238Y-112466380D01*
X127746000Y-112418761D01*
X127698380Y-112371142D01*
X127650761Y-112275904D01*
X127650761Y-111990190D01*
X127698380Y-111894952D01*
X127746000Y-111847333D01*
X127841238Y-111799714D01*
X128031714Y-111799714D01*
X128126952Y-111847333D01*
X120975428Y-112799904D02*
X120975428Y-113133238D01*
X120451619Y-113276095D02*
X120451619Y-112799904D01*
X121451619Y-112799904D01*
X121451619Y-113276095D01*
X120451619Y-113704666D02*
X121451619Y-113704666D01*
X120451619Y-114276095D01*
X121451619Y-114276095D01*
X105028952Y-106751428D02*
X104267047Y-106751428D01*
X104648000Y-107132380D02*
X104648000Y-106370476D01*
X101346095Y-100846000D02*
X101250857Y-100798380D01*
X101108000Y-100798380D01*
X100965142Y-100846000D01*
X100869904Y-100941238D01*
X100822285Y-101036476D01*
X100774666Y-101226952D01*
X100774666Y-101369809D01*
X100822285Y-101560285D01*
X100869904Y-101655523D01*
X100965142Y-101750761D01*
X101108000Y-101798380D01*
X101203238Y-101798380D01*
X101346095Y-101750761D01*
X101393714Y-101703142D01*
X101393714Y-101369809D01*
X101203238Y-101369809D01*
X101822285Y-101798380D02*
X101822285Y-100798380D01*
X102393714Y-101798380D01*
X102393714Y-100798380D01*
X102869904Y-101798380D02*
X102869904Y-100798380D01*
X103108000Y-100798380D01*
X103250857Y-100846000D01*
X103346095Y-100941238D01*
X103393714Y-101036476D01*
X103441333Y-101226952D01*
X103441333Y-101369809D01*
X103393714Y-101560285D01*
X103346095Y-101655523D01*
X103250857Y-101750761D01*
X103108000Y-101798380D01*
X102869904Y-101798380D01*
X105195619Y-108386666D02*
X105195619Y-108577142D01*
X105148000Y-108672380D01*
X105052761Y-108767619D01*
X104862285Y-108815238D01*
X104528952Y-108815238D01*
X104338476Y-108767619D01*
X104243238Y-108672380D01*
X104195619Y-108577142D01*
X104195619Y-108386666D01*
X104243238Y-108291428D01*
X104338476Y-108196190D01*
X104528952Y-108148571D01*
X104862285Y-108148571D01*
X105052761Y-108196190D01*
X105148000Y-108291428D01*
X105195619Y-108386666D01*
X104862285Y-109672380D02*
X104195619Y-109672380D01*
X104862285Y-109243809D02*
X104338476Y-109243809D01*
X104243238Y-109291428D01*
X104195619Y-109386666D01*
X104195619Y-109529523D01*
X104243238Y-109624761D01*
X104290857Y-109672380D01*
X104862285Y-110005714D02*
X104862285Y-110386666D01*
X105195619Y-110148571D02*
X104338476Y-110148571D01*
X104243238Y-110196190D01*
X104195619Y-110291428D01*
X104195619Y-110386666D01*
X101369904Y-114482571D02*
X101703238Y-114482571D01*
X101846095Y-115006380D02*
X101369904Y-115006380D01*
X101369904Y-114006380D01*
X101846095Y-114006380D01*
X102274666Y-115006380D02*
X102274666Y-114006380D01*
X102846095Y-115006380D01*
X102846095Y-114006380D01*
D12*
X115974000Y-103378000D02*
G75*
G03X115974000Y-103378000I-150000J0D01*
G01*
D13*
X100778000Y-102810000D02*
X102108000Y-102810000D01*
X100778000Y-104140000D02*
X100778000Y-102810000D01*
X100778000Y-105410000D02*
X103438000Y-105410000D01*
X103438000Y-105410000D02*
X103438000Y-113090000D01*
X100778000Y-105410000D02*
X100778000Y-113090000D01*
X100778000Y-113090000D02*
X103438000Y-113090000D01*
D14*
X116772000Y-104106000D02*
X116072000Y-104106000D01*
X117072000Y-103806000D02*
X116772000Y-104106000D01*
X120972000Y-103826000D02*
X120972000Y-104026000D01*
X120272000Y-103826000D02*
X120972000Y-103826000D01*
X120972000Y-109026000D02*
X120372000Y-109026000D01*
X120972000Y-108826000D02*
X120972000Y-109026000D01*
X116772000Y-109026000D02*
X117472000Y-109026000D01*
X116772000Y-108826000D02*
X116772000Y-109026000D01*
D13*
X130218922Y-104850000D02*
X130736078Y-104850000D01*
X130218922Y-103430000D02*
X130736078Y-103430000D01*
X121416578Y-100890000D02*
X120899422Y-100890000D01*
X121416578Y-102310000D02*
X120899422Y-102310000D01*
X133423922Y-107390000D02*
X133941078Y-107390000D01*
X133423922Y-105970000D02*
X133941078Y-105970000D01*
X117222157Y-111200000D02*
X117739313Y-111200000D01*
X117222157Y-109780000D02*
X117739313Y-109780000D01*
X119666591Y-112208000D02*
X119666591Y-113538000D01*
X118336591Y-112208000D02*
X119666591Y-112208000D01*
X117066591Y-112208000D02*
X117066591Y-114868000D01*
X117066591Y-114868000D02*
X114466591Y-114868000D01*
X117066591Y-112208000D02*
X114466591Y-112208000D01*
X114466591Y-112208000D02*
X114466591Y-114868000D01*
D14*
X136099406Y-100220003D02*
X136099406Y-100720003D01*
X136099406Y-100220003D02*
X136599406Y-100220003D01*
X136099406Y-108120003D02*
X136099406Y-107620003D01*
X136099406Y-108120003D02*
X136599406Y-108120003D01*
X138899406Y-108120003D02*
X138399406Y-108120003D01*
X138899406Y-108120003D02*
X138899406Y-107620003D01*
X138899406Y-100220003D02*
X138899406Y-100720003D01*
X138899406Y-100220003D02*
X138399406Y-100220003D01*
D13*
X125061000Y-102566880D02*
X127746000Y-102566880D01*
X125061000Y-100646880D02*
X125061000Y-102566880D01*
X127746000Y-100646880D02*
X125061000Y-100646880D01*
X128431000Y-112832000D02*
X125746000Y-112832000D01*
X128431000Y-114752000D02*
X128431000Y-112832000D01*
X125746000Y-114752000D02*
X128431000Y-114752000D01*
X134641000Y-109200000D02*
X131551000Y-109200000D01*
X135596000Y-111760000D02*
G75*
G03X135596000Y-111760000I-2500000J0D01*
G01*
X133096462Y-114750000D02*
G75*
G02X131551170Y-109200000I-462J2990000D01*
G01*
X133095538Y-114750000D02*
G75*
G03X134640830Y-109200000I462J2990000D01*
G01*
X132679334Y-101285166D02*
X132162178Y-101285166D01*
X132679334Y-102705166D02*
X132162178Y-102705166D01*
X115311422Y-102310000D02*
X115828578Y-102310000D01*
X115311422Y-100890000D02*
X115828578Y-100890000D01*
D11*
X106719761Y-114752380D02*
X106386428Y-114276190D01*
X106148333Y-114752380D02*
X106148333Y-113752380D01*
X106529285Y-113752380D01*
X106624523Y-113800000D01*
X106672142Y-113847619D01*
X106719761Y-113942857D01*
X106719761Y-114085714D01*
X106672142Y-114180952D01*
X106624523Y-114228571D01*
X106529285Y-114276190D01*
X106148333Y-114276190D01*
X107005476Y-113752380D02*
X107338809Y-114752380D01*
X107672142Y-113752380D01*
X108529285Y-114752380D02*
X107957857Y-114752380D01*
X108243571Y-114752380D02*
X108243571Y-113752380D01*
X108148333Y-113895238D01*
X108053095Y-113990476D01*
X107957857Y-114038095D01*
X107303961Y-102306380D02*
X106970628Y-101830190D01*
X106732533Y-102306380D02*
X106732533Y-101306380D01*
X107113485Y-101306380D01*
X107208723Y-101354000D01*
X107256342Y-101401619D01*
X107303961Y-101496857D01*
X107303961Y-101639714D01*
X107256342Y-101734952D01*
X107208723Y-101782571D01*
X107113485Y-101830190D01*
X106732533Y-101830190D01*
X107589676Y-101306380D02*
X107923009Y-102306380D01*
X108256342Y-101306380D01*
X108542057Y-101401619D02*
X108589676Y-101354000D01*
X108684914Y-101306380D01*
X108923009Y-101306380D01*
X109018247Y-101354000D01*
X109065866Y-101401619D01*
X109113485Y-101496857D01*
X109113485Y-101592095D01*
X109065866Y-101734952D01*
X108494438Y-102306380D01*
X109113485Y-102306380D01*
X118084695Y-106005380D02*
X118084695Y-106814904D01*
X118132314Y-106910142D01*
X118179933Y-106957761D01*
X118275171Y-107005380D01*
X118465647Y-107005380D01*
X118560885Y-106957761D01*
X118608504Y-106910142D01*
X118656123Y-106814904D01*
X118656123Y-106005380D01*
X119656123Y-107005380D02*
X119084695Y-107005380D01*
X119370409Y-107005380D02*
X119370409Y-106005380D01*
X119275171Y-106148238D01*
X119179933Y-106243476D01*
X119084695Y-106291095D01*
X132929333Y-104820980D02*
X132596000Y-104344790D01*
X132357904Y-104820980D02*
X132357904Y-103820980D01*
X132738857Y-103820980D01*
X132834095Y-103868600D01*
X132881714Y-103916219D01*
X132929333Y-104011457D01*
X132929333Y-104154314D01*
X132881714Y-104249552D01*
X132834095Y-104297171D01*
X132738857Y-104344790D01*
X132357904Y-104344790D01*
X133786476Y-104154314D02*
X133786476Y-104820980D01*
X133548380Y-103773361D02*
X133310285Y-104487647D01*
X133929333Y-104487647D01*
X120991333Y-103654980D02*
X120658000Y-103178790D01*
X120419904Y-103654980D02*
X120419904Y-102654980D01*
X120800857Y-102654980D01*
X120896095Y-102702600D01*
X120943714Y-102750219D01*
X120991333Y-102845457D01*
X120991333Y-102988314D01*
X120943714Y-103083552D01*
X120896095Y-103131171D01*
X120800857Y-103178790D01*
X120419904Y-103178790D01*
X121324666Y-102654980D02*
X121943714Y-102654980D01*
X121610380Y-103035933D01*
X121753238Y-103035933D01*
X121848476Y-103083552D01*
X121896095Y-103131171D01*
X121943714Y-103226409D01*
X121943714Y-103464504D01*
X121896095Y-103559742D01*
X121848476Y-103607361D01*
X121753238Y-103654980D01*
X121467523Y-103654980D01*
X121372285Y-103607361D01*
X121324666Y-103559742D01*
X130643333Y-107132380D02*
X130310000Y-106656190D01*
X130071904Y-107132380D02*
X130071904Y-106132380D01*
X130452857Y-106132380D01*
X130548095Y-106180000D01*
X130595714Y-106227619D01*
X130643333Y-106322857D01*
X130643333Y-106465714D01*
X130595714Y-106560952D01*
X130548095Y-106608571D01*
X130452857Y-106656190D01*
X130071904Y-106656190D01*
X131024285Y-106227619D02*
X131071904Y-106180000D01*
X131167142Y-106132380D01*
X131405238Y-106132380D01*
X131500476Y-106180000D01*
X131548095Y-106227619D01*
X131595714Y-106322857D01*
X131595714Y-106418095D01*
X131548095Y-106560952D01*
X130976666Y-107132380D01*
X131595714Y-107132380D01*
X120229333Y-110944191D02*
X119896000Y-110468001D01*
X119657904Y-110944191D02*
X119657904Y-109944191D01*
X120038857Y-109944191D01*
X120134095Y-109991811D01*
X120181714Y-110039430D01*
X120229333Y-110134668D01*
X120229333Y-110277525D01*
X120181714Y-110372763D01*
X120134095Y-110420382D01*
X120038857Y-110468001D01*
X119657904Y-110468001D01*
X121181714Y-110944191D02*
X120610285Y-110944191D01*
X120896000Y-110944191D02*
X120896000Y-109944191D01*
X120800761Y-110087049D01*
X120705523Y-110182287D01*
X120610285Y-110229906D01*
X135113780Y-104346333D02*
X135828066Y-104346333D01*
X135970923Y-104393952D01*
X136066161Y-104489190D01*
X136113780Y-104632047D01*
X136113780Y-104727285D01*
X135209019Y-103917761D02*
X135161400Y-103870142D01*
X135113780Y-103774904D01*
X135113780Y-103536809D01*
X135161400Y-103441571D01*
X135209019Y-103393952D01*
X135304257Y-103346333D01*
X135399495Y-103346333D01*
X135542352Y-103393952D01*
X136113780Y-103965380D01*
X136113780Y-103346333D01*
X136523504Y-112237780D02*
X136523504Y-111237780D01*
X136761600Y-111237780D01*
X136904457Y-111285400D01*
X136999695Y-111380638D01*
X137047314Y-111475876D01*
X137094933Y-111666352D01*
X137094933Y-111809209D01*
X137047314Y-111999685D01*
X136999695Y-112094923D01*
X136904457Y-112190161D01*
X136761600Y-112237780D01*
X136523504Y-112237780D01*
X138047314Y-112237780D02*
X137475885Y-112237780D01*
X137761600Y-112237780D02*
X137761600Y-111237780D01*
X137666361Y-111380638D01*
X137571123Y-111475876D01*
X137475885Y-111523495D01*
X134808933Y-102160342D02*
X134761314Y-102207961D01*
X134618457Y-102255580D01*
X134523219Y-102255580D01*
X134380361Y-102207961D01*
X134285123Y-102112723D01*
X134237504Y-102017485D01*
X134189885Y-101827009D01*
X134189885Y-101684152D01*
X134237504Y-101493676D01*
X134285123Y-101398438D01*
X134380361Y-101303200D01*
X134523219Y-101255580D01*
X134618457Y-101255580D01*
X134761314Y-101303200D01*
X134808933Y-101350819D01*
X135189885Y-101350819D02*
X135237504Y-101303200D01*
X135332742Y-101255580D01*
X135570838Y-101255580D01*
X135666076Y-101303200D01*
X135713695Y-101350819D01*
X135761314Y-101446057D01*
X135761314Y-101541295D01*
X135713695Y-101684152D01*
X135142266Y-102255580D01*
X135761314Y-102255580D01*
X113879333Y-103735142D02*
X113831714Y-103782761D01*
X113688857Y-103830380D01*
X113593619Y-103830380D01*
X113450761Y-103782761D01*
X113355523Y-103687523D01*
X113307904Y-103592285D01*
X113260285Y-103401809D01*
X113260285Y-103258952D01*
X113307904Y-103068476D01*
X113355523Y-102973238D01*
X113450761Y-102878000D01*
X113593619Y-102830380D01*
X113688857Y-102830380D01*
X113831714Y-102878000D01*
X113879333Y-102925619D01*
X114831714Y-103830380D02*
X114260285Y-103830380D01*
X114546000Y-103830380D02*
X114546000Y-102830380D01*
X114450761Y-102973238D01*
X114355523Y-103068476D01*
X114260285Y-103116095D01*
M02*
