G04 #@! TF.GenerationSoftware,KiCad,Pcbnew,5.1.5-52549c5~86~ubuntu16.04.1*
G04 #@! TF.CreationDate,2020-11-24T12:51:21+05:30*
G04 #@! TF.ProjectId,IR_Sensor_Module_555_V1.0,49525f53-656e-4736-9f72-5f4d6f64756c,V1.0*
G04 #@! TF.SameCoordinates,Original*
G04 #@! TF.FileFunction,Copper,L1,Top*
G04 #@! TF.FilePolarity,Positive*
%FSLAX46Y46*%
G04 Gerber Fmt 4.6, Leading zero omitted, Abs format (unit mm)*
G04 Created by KiCad (PCBNEW 5.1.5-52549c5~86~ubuntu16.04.1) date 2020-11-24 12:51:21*
%MOMM*%
%LPD*%
G04 APERTURE LIST*
%ADD10C,1.750000*%
%ADD11O,1.700000X1.700000*%
%ADD12R,1.700000X1.700000*%
%ADD13R,1.600000X0.700000*%
%ADD14C,0.100000*%
%ADD15C,2.100000*%
%ADD16C,1.800000*%
%ADD17R,1.800000X1.800000*%
%ADD18C,0.800000*%
%ADD19C,0.406400*%
%ADD20C,0.254000*%
%ADD21C,0.508000*%
G04 APERTURE END LIST*
D10*
X111760000Y-114300000D03*
X106760000Y-111760000D03*
X111760000Y-109300000D03*
X111760000Y-106680000D03*
X106760000Y-104140000D03*
X111760000Y-101680000D03*
D11*
X102108000Y-111760000D03*
X102108000Y-109220000D03*
X102108000Y-106680000D03*
D12*
X102108000Y-104140000D03*
D13*
X121337000Y-104521000D03*
X121337000Y-105791000D03*
X121337000Y-107061000D03*
X121337000Y-108331000D03*
X116407000Y-104521000D03*
X116407000Y-108331000D03*
X116407000Y-105791000D03*
X116407000Y-107061000D03*
G04 #@! TA.AperFunction,SMDPad,CuDef*
D14*
G36*
X131682642Y-103441174D02*
G01*
X131706303Y-103444684D01*
X131729507Y-103450496D01*
X131752029Y-103458554D01*
X131773653Y-103468782D01*
X131794170Y-103481079D01*
X131813383Y-103495329D01*
X131831107Y-103511393D01*
X131847171Y-103529117D01*
X131861421Y-103548330D01*
X131873718Y-103568847D01*
X131883946Y-103590471D01*
X131892004Y-103612993D01*
X131897816Y-103636197D01*
X131901326Y-103659858D01*
X131902500Y-103683750D01*
X131902500Y-104596250D01*
X131901326Y-104620142D01*
X131897816Y-104643803D01*
X131892004Y-104667007D01*
X131883946Y-104689529D01*
X131873718Y-104711153D01*
X131861421Y-104731670D01*
X131847171Y-104750883D01*
X131831107Y-104768607D01*
X131813383Y-104784671D01*
X131794170Y-104798921D01*
X131773653Y-104811218D01*
X131752029Y-104821446D01*
X131729507Y-104829504D01*
X131706303Y-104835316D01*
X131682642Y-104838826D01*
X131658750Y-104840000D01*
X131171250Y-104840000D01*
X131147358Y-104838826D01*
X131123697Y-104835316D01*
X131100493Y-104829504D01*
X131077971Y-104821446D01*
X131056347Y-104811218D01*
X131035830Y-104798921D01*
X131016617Y-104784671D01*
X130998893Y-104768607D01*
X130982829Y-104750883D01*
X130968579Y-104731670D01*
X130956282Y-104711153D01*
X130946054Y-104689529D01*
X130937996Y-104667007D01*
X130932184Y-104643803D01*
X130928674Y-104620142D01*
X130927500Y-104596250D01*
X130927500Y-103683750D01*
X130928674Y-103659858D01*
X130932184Y-103636197D01*
X130937996Y-103612993D01*
X130946054Y-103590471D01*
X130956282Y-103568847D01*
X130968579Y-103548330D01*
X130982829Y-103529117D01*
X130998893Y-103511393D01*
X131016617Y-103495329D01*
X131035830Y-103481079D01*
X131056347Y-103468782D01*
X131077971Y-103458554D01*
X131100493Y-103450496D01*
X131123697Y-103444684D01*
X131147358Y-103441174D01*
X131171250Y-103440000D01*
X131658750Y-103440000D01*
X131682642Y-103441174D01*
G37*
G04 #@! TD.AperFunction*
G04 #@! TA.AperFunction,SMDPad,CuDef*
G36*
X129807642Y-103441174D02*
G01*
X129831303Y-103444684D01*
X129854507Y-103450496D01*
X129877029Y-103458554D01*
X129898653Y-103468782D01*
X129919170Y-103481079D01*
X129938383Y-103495329D01*
X129956107Y-103511393D01*
X129972171Y-103529117D01*
X129986421Y-103548330D01*
X129998718Y-103568847D01*
X130008946Y-103590471D01*
X130017004Y-103612993D01*
X130022816Y-103636197D01*
X130026326Y-103659858D01*
X130027500Y-103683750D01*
X130027500Y-104596250D01*
X130026326Y-104620142D01*
X130022816Y-104643803D01*
X130017004Y-104667007D01*
X130008946Y-104689529D01*
X129998718Y-104711153D01*
X129986421Y-104731670D01*
X129972171Y-104750883D01*
X129956107Y-104768607D01*
X129938383Y-104784671D01*
X129919170Y-104798921D01*
X129898653Y-104811218D01*
X129877029Y-104821446D01*
X129854507Y-104829504D01*
X129831303Y-104835316D01*
X129807642Y-104838826D01*
X129783750Y-104840000D01*
X129296250Y-104840000D01*
X129272358Y-104838826D01*
X129248697Y-104835316D01*
X129225493Y-104829504D01*
X129202971Y-104821446D01*
X129181347Y-104811218D01*
X129160830Y-104798921D01*
X129141617Y-104784671D01*
X129123893Y-104768607D01*
X129107829Y-104750883D01*
X129093579Y-104731670D01*
X129081282Y-104711153D01*
X129071054Y-104689529D01*
X129062996Y-104667007D01*
X129057184Y-104643803D01*
X129053674Y-104620142D01*
X129052500Y-104596250D01*
X129052500Y-103683750D01*
X129053674Y-103659858D01*
X129057184Y-103636197D01*
X129062996Y-103612993D01*
X129071054Y-103590471D01*
X129081282Y-103568847D01*
X129093579Y-103548330D01*
X129107829Y-103529117D01*
X129123893Y-103511393D01*
X129141617Y-103495329D01*
X129160830Y-103481079D01*
X129181347Y-103468782D01*
X129202971Y-103458554D01*
X129225493Y-103450496D01*
X129248697Y-103444684D01*
X129272358Y-103441174D01*
X129296250Y-103440000D01*
X129783750Y-103440000D01*
X129807642Y-103441174D01*
G37*
G04 #@! TD.AperFunction*
G04 #@! TA.AperFunction,SMDPad,CuDef*
G36*
X120488142Y-100901174D02*
G01*
X120511803Y-100904684D01*
X120535007Y-100910496D01*
X120557529Y-100918554D01*
X120579153Y-100928782D01*
X120599670Y-100941079D01*
X120618883Y-100955329D01*
X120636607Y-100971393D01*
X120652671Y-100989117D01*
X120666921Y-101008330D01*
X120679218Y-101028847D01*
X120689446Y-101050471D01*
X120697504Y-101072993D01*
X120703316Y-101096197D01*
X120706826Y-101119858D01*
X120708000Y-101143750D01*
X120708000Y-102056250D01*
X120706826Y-102080142D01*
X120703316Y-102103803D01*
X120697504Y-102127007D01*
X120689446Y-102149529D01*
X120679218Y-102171153D01*
X120666921Y-102191670D01*
X120652671Y-102210883D01*
X120636607Y-102228607D01*
X120618883Y-102244671D01*
X120599670Y-102258921D01*
X120579153Y-102271218D01*
X120557529Y-102281446D01*
X120535007Y-102289504D01*
X120511803Y-102295316D01*
X120488142Y-102298826D01*
X120464250Y-102300000D01*
X119976750Y-102300000D01*
X119952858Y-102298826D01*
X119929197Y-102295316D01*
X119905993Y-102289504D01*
X119883471Y-102281446D01*
X119861847Y-102271218D01*
X119841330Y-102258921D01*
X119822117Y-102244671D01*
X119804393Y-102228607D01*
X119788329Y-102210883D01*
X119774079Y-102191670D01*
X119761782Y-102171153D01*
X119751554Y-102149529D01*
X119743496Y-102127007D01*
X119737684Y-102103803D01*
X119734174Y-102080142D01*
X119733000Y-102056250D01*
X119733000Y-101143750D01*
X119734174Y-101119858D01*
X119737684Y-101096197D01*
X119743496Y-101072993D01*
X119751554Y-101050471D01*
X119761782Y-101028847D01*
X119774079Y-101008330D01*
X119788329Y-100989117D01*
X119804393Y-100971393D01*
X119822117Y-100955329D01*
X119841330Y-100941079D01*
X119861847Y-100928782D01*
X119883471Y-100918554D01*
X119905993Y-100910496D01*
X119929197Y-100904684D01*
X119952858Y-100901174D01*
X119976750Y-100900000D01*
X120464250Y-100900000D01*
X120488142Y-100901174D01*
G37*
G04 #@! TD.AperFunction*
G04 #@! TA.AperFunction,SMDPad,CuDef*
G36*
X122363142Y-100901174D02*
G01*
X122386803Y-100904684D01*
X122410007Y-100910496D01*
X122432529Y-100918554D01*
X122454153Y-100928782D01*
X122474670Y-100941079D01*
X122493883Y-100955329D01*
X122511607Y-100971393D01*
X122527671Y-100989117D01*
X122541921Y-101008330D01*
X122554218Y-101028847D01*
X122564446Y-101050471D01*
X122572504Y-101072993D01*
X122578316Y-101096197D01*
X122581826Y-101119858D01*
X122583000Y-101143750D01*
X122583000Y-102056250D01*
X122581826Y-102080142D01*
X122578316Y-102103803D01*
X122572504Y-102127007D01*
X122564446Y-102149529D01*
X122554218Y-102171153D01*
X122541921Y-102191670D01*
X122527671Y-102210883D01*
X122511607Y-102228607D01*
X122493883Y-102244671D01*
X122474670Y-102258921D01*
X122454153Y-102271218D01*
X122432529Y-102281446D01*
X122410007Y-102289504D01*
X122386803Y-102295316D01*
X122363142Y-102298826D01*
X122339250Y-102300000D01*
X121851750Y-102300000D01*
X121827858Y-102298826D01*
X121804197Y-102295316D01*
X121780993Y-102289504D01*
X121758471Y-102281446D01*
X121736847Y-102271218D01*
X121716330Y-102258921D01*
X121697117Y-102244671D01*
X121679393Y-102228607D01*
X121663329Y-102210883D01*
X121649079Y-102191670D01*
X121636782Y-102171153D01*
X121626554Y-102149529D01*
X121618496Y-102127007D01*
X121612684Y-102103803D01*
X121609174Y-102080142D01*
X121608000Y-102056250D01*
X121608000Y-101143750D01*
X121609174Y-101119858D01*
X121612684Y-101096197D01*
X121618496Y-101072993D01*
X121626554Y-101050471D01*
X121636782Y-101028847D01*
X121649079Y-101008330D01*
X121663329Y-100989117D01*
X121679393Y-100971393D01*
X121697117Y-100955329D01*
X121716330Y-100941079D01*
X121736847Y-100928782D01*
X121758471Y-100918554D01*
X121780993Y-100910496D01*
X121804197Y-100904684D01*
X121827858Y-100901174D01*
X121851750Y-100900000D01*
X122339250Y-100900000D01*
X122363142Y-100901174D01*
G37*
G04 #@! TD.AperFunction*
G04 #@! TA.AperFunction,SMDPad,CuDef*
G36*
X134887642Y-105981174D02*
G01*
X134911303Y-105984684D01*
X134934507Y-105990496D01*
X134957029Y-105998554D01*
X134978653Y-106008782D01*
X134999170Y-106021079D01*
X135018383Y-106035329D01*
X135036107Y-106051393D01*
X135052171Y-106069117D01*
X135066421Y-106088330D01*
X135078718Y-106108847D01*
X135088946Y-106130471D01*
X135097004Y-106152993D01*
X135102816Y-106176197D01*
X135106326Y-106199858D01*
X135107500Y-106223750D01*
X135107500Y-107136250D01*
X135106326Y-107160142D01*
X135102816Y-107183803D01*
X135097004Y-107207007D01*
X135088946Y-107229529D01*
X135078718Y-107251153D01*
X135066421Y-107271670D01*
X135052171Y-107290883D01*
X135036107Y-107308607D01*
X135018383Y-107324671D01*
X134999170Y-107338921D01*
X134978653Y-107351218D01*
X134957029Y-107361446D01*
X134934507Y-107369504D01*
X134911303Y-107375316D01*
X134887642Y-107378826D01*
X134863750Y-107380000D01*
X134376250Y-107380000D01*
X134352358Y-107378826D01*
X134328697Y-107375316D01*
X134305493Y-107369504D01*
X134282971Y-107361446D01*
X134261347Y-107351218D01*
X134240830Y-107338921D01*
X134221617Y-107324671D01*
X134203893Y-107308607D01*
X134187829Y-107290883D01*
X134173579Y-107271670D01*
X134161282Y-107251153D01*
X134151054Y-107229529D01*
X134142996Y-107207007D01*
X134137184Y-107183803D01*
X134133674Y-107160142D01*
X134132500Y-107136250D01*
X134132500Y-106223750D01*
X134133674Y-106199858D01*
X134137184Y-106176197D01*
X134142996Y-106152993D01*
X134151054Y-106130471D01*
X134161282Y-106108847D01*
X134173579Y-106088330D01*
X134187829Y-106069117D01*
X134203893Y-106051393D01*
X134221617Y-106035329D01*
X134240830Y-106021079D01*
X134261347Y-106008782D01*
X134282971Y-105998554D01*
X134305493Y-105990496D01*
X134328697Y-105984684D01*
X134352358Y-105981174D01*
X134376250Y-105980000D01*
X134863750Y-105980000D01*
X134887642Y-105981174D01*
G37*
G04 #@! TD.AperFunction*
G04 #@! TA.AperFunction,SMDPad,CuDef*
G36*
X133012642Y-105981174D02*
G01*
X133036303Y-105984684D01*
X133059507Y-105990496D01*
X133082029Y-105998554D01*
X133103653Y-106008782D01*
X133124170Y-106021079D01*
X133143383Y-106035329D01*
X133161107Y-106051393D01*
X133177171Y-106069117D01*
X133191421Y-106088330D01*
X133203718Y-106108847D01*
X133213946Y-106130471D01*
X133222004Y-106152993D01*
X133227816Y-106176197D01*
X133231326Y-106199858D01*
X133232500Y-106223750D01*
X133232500Y-107136250D01*
X133231326Y-107160142D01*
X133227816Y-107183803D01*
X133222004Y-107207007D01*
X133213946Y-107229529D01*
X133203718Y-107251153D01*
X133191421Y-107271670D01*
X133177171Y-107290883D01*
X133161107Y-107308607D01*
X133143383Y-107324671D01*
X133124170Y-107338921D01*
X133103653Y-107351218D01*
X133082029Y-107361446D01*
X133059507Y-107369504D01*
X133036303Y-107375316D01*
X133012642Y-107378826D01*
X132988750Y-107380000D01*
X132501250Y-107380000D01*
X132477358Y-107378826D01*
X132453697Y-107375316D01*
X132430493Y-107369504D01*
X132407971Y-107361446D01*
X132386347Y-107351218D01*
X132365830Y-107338921D01*
X132346617Y-107324671D01*
X132328893Y-107308607D01*
X132312829Y-107290883D01*
X132298579Y-107271670D01*
X132286282Y-107251153D01*
X132276054Y-107229529D01*
X132267996Y-107207007D01*
X132262184Y-107183803D01*
X132258674Y-107160142D01*
X132257500Y-107136250D01*
X132257500Y-106223750D01*
X132258674Y-106199858D01*
X132262184Y-106176197D01*
X132267996Y-106152993D01*
X132276054Y-106130471D01*
X132286282Y-106108847D01*
X132298579Y-106088330D01*
X132312829Y-106069117D01*
X132328893Y-106051393D01*
X132346617Y-106035329D01*
X132365830Y-106021079D01*
X132386347Y-106008782D01*
X132407971Y-105998554D01*
X132430493Y-105990496D01*
X132453697Y-105984684D01*
X132477358Y-105981174D01*
X132501250Y-105980000D01*
X132988750Y-105980000D01*
X133012642Y-105981174D01*
G37*
G04 #@! TD.AperFunction*
G04 #@! TA.AperFunction,SMDPad,CuDef*
G36*
X118685877Y-109791174D02*
G01*
X118709538Y-109794684D01*
X118732742Y-109800496D01*
X118755264Y-109808554D01*
X118776888Y-109818782D01*
X118797405Y-109831079D01*
X118816618Y-109845329D01*
X118834342Y-109861393D01*
X118850406Y-109879117D01*
X118864656Y-109898330D01*
X118876953Y-109918847D01*
X118887181Y-109940471D01*
X118895239Y-109962993D01*
X118901051Y-109986197D01*
X118904561Y-110009858D01*
X118905735Y-110033750D01*
X118905735Y-110946250D01*
X118904561Y-110970142D01*
X118901051Y-110993803D01*
X118895239Y-111017007D01*
X118887181Y-111039529D01*
X118876953Y-111061153D01*
X118864656Y-111081670D01*
X118850406Y-111100883D01*
X118834342Y-111118607D01*
X118816618Y-111134671D01*
X118797405Y-111148921D01*
X118776888Y-111161218D01*
X118755264Y-111171446D01*
X118732742Y-111179504D01*
X118709538Y-111185316D01*
X118685877Y-111188826D01*
X118661985Y-111190000D01*
X118174485Y-111190000D01*
X118150593Y-111188826D01*
X118126932Y-111185316D01*
X118103728Y-111179504D01*
X118081206Y-111171446D01*
X118059582Y-111161218D01*
X118039065Y-111148921D01*
X118019852Y-111134671D01*
X118002128Y-111118607D01*
X117986064Y-111100883D01*
X117971814Y-111081670D01*
X117959517Y-111061153D01*
X117949289Y-111039529D01*
X117941231Y-111017007D01*
X117935419Y-110993803D01*
X117931909Y-110970142D01*
X117930735Y-110946250D01*
X117930735Y-110033750D01*
X117931909Y-110009858D01*
X117935419Y-109986197D01*
X117941231Y-109962993D01*
X117949289Y-109940471D01*
X117959517Y-109918847D01*
X117971814Y-109898330D01*
X117986064Y-109879117D01*
X118002128Y-109861393D01*
X118019852Y-109845329D01*
X118039065Y-109831079D01*
X118059582Y-109818782D01*
X118081206Y-109808554D01*
X118103728Y-109800496D01*
X118126932Y-109794684D01*
X118150593Y-109791174D01*
X118174485Y-109790000D01*
X118661985Y-109790000D01*
X118685877Y-109791174D01*
G37*
G04 #@! TD.AperFunction*
G04 #@! TA.AperFunction,SMDPad,CuDef*
G36*
X116810877Y-109791174D02*
G01*
X116834538Y-109794684D01*
X116857742Y-109800496D01*
X116880264Y-109808554D01*
X116901888Y-109818782D01*
X116922405Y-109831079D01*
X116941618Y-109845329D01*
X116959342Y-109861393D01*
X116975406Y-109879117D01*
X116989656Y-109898330D01*
X117001953Y-109918847D01*
X117012181Y-109940471D01*
X117020239Y-109962993D01*
X117026051Y-109986197D01*
X117029561Y-110009858D01*
X117030735Y-110033750D01*
X117030735Y-110946250D01*
X117029561Y-110970142D01*
X117026051Y-110993803D01*
X117020239Y-111017007D01*
X117012181Y-111039529D01*
X117001953Y-111061153D01*
X116989656Y-111081670D01*
X116975406Y-111100883D01*
X116959342Y-111118607D01*
X116941618Y-111134671D01*
X116922405Y-111148921D01*
X116901888Y-111161218D01*
X116880264Y-111171446D01*
X116857742Y-111179504D01*
X116834538Y-111185316D01*
X116810877Y-111188826D01*
X116786985Y-111190000D01*
X116299485Y-111190000D01*
X116275593Y-111188826D01*
X116251932Y-111185316D01*
X116228728Y-111179504D01*
X116206206Y-111171446D01*
X116184582Y-111161218D01*
X116164065Y-111148921D01*
X116144852Y-111134671D01*
X116127128Y-111118607D01*
X116111064Y-111100883D01*
X116096814Y-111081670D01*
X116084517Y-111061153D01*
X116074289Y-111039529D01*
X116066231Y-111017007D01*
X116060419Y-110993803D01*
X116056909Y-110970142D01*
X116055735Y-110946250D01*
X116055735Y-110033750D01*
X116056909Y-110009858D01*
X116060419Y-109986197D01*
X116066231Y-109962993D01*
X116074289Y-109940471D01*
X116084517Y-109918847D01*
X116096814Y-109898330D01*
X116111064Y-109879117D01*
X116127128Y-109861393D01*
X116144852Y-109845329D01*
X116164065Y-109831079D01*
X116184582Y-109818782D01*
X116206206Y-109808554D01*
X116228728Y-109800496D01*
X116251932Y-109794684D01*
X116275593Y-109791174D01*
X116299485Y-109790000D01*
X116786985Y-109790000D01*
X116810877Y-109791174D01*
G37*
G04 #@! TD.AperFunction*
D11*
X115796591Y-113538000D03*
D12*
X118336591Y-113538000D03*
D15*
X137499406Y-101640003D03*
X137499406Y-104180003D03*
X137499406Y-106720003D03*
G04 #@! TA.AperFunction,SMDPad,CuDef*
D14*
G36*
X127951142Y-100908054D02*
G01*
X127974803Y-100911564D01*
X127998007Y-100917376D01*
X128020529Y-100925434D01*
X128042153Y-100935662D01*
X128062670Y-100947959D01*
X128081883Y-100962209D01*
X128099607Y-100978273D01*
X128115671Y-100995997D01*
X128129921Y-101015210D01*
X128142218Y-101035727D01*
X128152446Y-101057351D01*
X128160504Y-101079873D01*
X128166316Y-101103077D01*
X128169826Y-101126738D01*
X128171000Y-101150630D01*
X128171000Y-102063130D01*
X128169826Y-102087022D01*
X128166316Y-102110683D01*
X128160504Y-102133887D01*
X128152446Y-102156409D01*
X128142218Y-102178033D01*
X128129921Y-102198550D01*
X128115671Y-102217763D01*
X128099607Y-102235487D01*
X128081883Y-102251551D01*
X128062670Y-102265801D01*
X128042153Y-102278098D01*
X128020529Y-102288326D01*
X127998007Y-102296384D01*
X127974803Y-102302196D01*
X127951142Y-102305706D01*
X127927250Y-102306880D01*
X127439750Y-102306880D01*
X127415858Y-102305706D01*
X127392197Y-102302196D01*
X127368993Y-102296384D01*
X127346471Y-102288326D01*
X127324847Y-102278098D01*
X127304330Y-102265801D01*
X127285117Y-102251551D01*
X127267393Y-102235487D01*
X127251329Y-102217763D01*
X127237079Y-102198550D01*
X127224782Y-102178033D01*
X127214554Y-102156409D01*
X127206496Y-102133887D01*
X127200684Y-102110683D01*
X127197174Y-102087022D01*
X127196000Y-102063130D01*
X127196000Y-101150630D01*
X127197174Y-101126738D01*
X127200684Y-101103077D01*
X127206496Y-101079873D01*
X127214554Y-101057351D01*
X127224782Y-101035727D01*
X127237079Y-101015210D01*
X127251329Y-100995997D01*
X127267393Y-100978273D01*
X127285117Y-100962209D01*
X127304330Y-100947959D01*
X127324847Y-100935662D01*
X127346471Y-100925434D01*
X127368993Y-100917376D01*
X127392197Y-100911564D01*
X127415858Y-100908054D01*
X127439750Y-100906880D01*
X127927250Y-100906880D01*
X127951142Y-100908054D01*
G37*
G04 #@! TD.AperFunction*
G04 #@! TA.AperFunction,SMDPad,CuDef*
G36*
X126076142Y-100908054D02*
G01*
X126099803Y-100911564D01*
X126123007Y-100917376D01*
X126145529Y-100925434D01*
X126167153Y-100935662D01*
X126187670Y-100947959D01*
X126206883Y-100962209D01*
X126224607Y-100978273D01*
X126240671Y-100995997D01*
X126254921Y-101015210D01*
X126267218Y-101035727D01*
X126277446Y-101057351D01*
X126285504Y-101079873D01*
X126291316Y-101103077D01*
X126294826Y-101126738D01*
X126296000Y-101150630D01*
X126296000Y-102063130D01*
X126294826Y-102087022D01*
X126291316Y-102110683D01*
X126285504Y-102133887D01*
X126277446Y-102156409D01*
X126267218Y-102178033D01*
X126254921Y-102198550D01*
X126240671Y-102217763D01*
X126224607Y-102235487D01*
X126206883Y-102251551D01*
X126187670Y-102265801D01*
X126167153Y-102278098D01*
X126145529Y-102288326D01*
X126123007Y-102296384D01*
X126099803Y-102302196D01*
X126076142Y-102305706D01*
X126052250Y-102306880D01*
X125564750Y-102306880D01*
X125540858Y-102305706D01*
X125517197Y-102302196D01*
X125493993Y-102296384D01*
X125471471Y-102288326D01*
X125449847Y-102278098D01*
X125429330Y-102265801D01*
X125410117Y-102251551D01*
X125392393Y-102235487D01*
X125376329Y-102217763D01*
X125362079Y-102198550D01*
X125349782Y-102178033D01*
X125339554Y-102156409D01*
X125331496Y-102133887D01*
X125325684Y-102110683D01*
X125322174Y-102087022D01*
X125321000Y-102063130D01*
X125321000Y-101150630D01*
X125322174Y-101126738D01*
X125325684Y-101103077D01*
X125331496Y-101079873D01*
X125339554Y-101057351D01*
X125349782Y-101035727D01*
X125362079Y-101015210D01*
X125376329Y-100995997D01*
X125392393Y-100978273D01*
X125410117Y-100962209D01*
X125429330Y-100947959D01*
X125449847Y-100935662D01*
X125471471Y-100925434D01*
X125493993Y-100917376D01*
X125517197Y-100911564D01*
X125540858Y-100908054D01*
X125564750Y-100906880D01*
X126052250Y-100906880D01*
X126076142Y-100908054D01*
G37*
G04 #@! TD.AperFunction*
G04 #@! TA.AperFunction,SMDPad,CuDef*
G36*
X126076142Y-113093174D02*
G01*
X126099803Y-113096684D01*
X126123007Y-113102496D01*
X126145529Y-113110554D01*
X126167153Y-113120782D01*
X126187670Y-113133079D01*
X126206883Y-113147329D01*
X126224607Y-113163393D01*
X126240671Y-113181117D01*
X126254921Y-113200330D01*
X126267218Y-113220847D01*
X126277446Y-113242471D01*
X126285504Y-113264993D01*
X126291316Y-113288197D01*
X126294826Y-113311858D01*
X126296000Y-113335750D01*
X126296000Y-114248250D01*
X126294826Y-114272142D01*
X126291316Y-114295803D01*
X126285504Y-114319007D01*
X126277446Y-114341529D01*
X126267218Y-114363153D01*
X126254921Y-114383670D01*
X126240671Y-114402883D01*
X126224607Y-114420607D01*
X126206883Y-114436671D01*
X126187670Y-114450921D01*
X126167153Y-114463218D01*
X126145529Y-114473446D01*
X126123007Y-114481504D01*
X126099803Y-114487316D01*
X126076142Y-114490826D01*
X126052250Y-114492000D01*
X125564750Y-114492000D01*
X125540858Y-114490826D01*
X125517197Y-114487316D01*
X125493993Y-114481504D01*
X125471471Y-114473446D01*
X125449847Y-114463218D01*
X125429330Y-114450921D01*
X125410117Y-114436671D01*
X125392393Y-114420607D01*
X125376329Y-114402883D01*
X125362079Y-114383670D01*
X125349782Y-114363153D01*
X125339554Y-114341529D01*
X125331496Y-114319007D01*
X125325684Y-114295803D01*
X125322174Y-114272142D01*
X125321000Y-114248250D01*
X125321000Y-113335750D01*
X125322174Y-113311858D01*
X125325684Y-113288197D01*
X125331496Y-113264993D01*
X125339554Y-113242471D01*
X125349782Y-113220847D01*
X125362079Y-113200330D01*
X125376329Y-113181117D01*
X125392393Y-113163393D01*
X125410117Y-113147329D01*
X125429330Y-113133079D01*
X125449847Y-113120782D01*
X125471471Y-113110554D01*
X125493993Y-113102496D01*
X125517197Y-113096684D01*
X125540858Y-113093174D01*
X125564750Y-113092000D01*
X126052250Y-113092000D01*
X126076142Y-113093174D01*
G37*
G04 #@! TD.AperFunction*
G04 #@! TA.AperFunction,SMDPad,CuDef*
G36*
X127951142Y-113093174D02*
G01*
X127974803Y-113096684D01*
X127998007Y-113102496D01*
X128020529Y-113110554D01*
X128042153Y-113120782D01*
X128062670Y-113133079D01*
X128081883Y-113147329D01*
X128099607Y-113163393D01*
X128115671Y-113181117D01*
X128129921Y-113200330D01*
X128142218Y-113220847D01*
X128152446Y-113242471D01*
X128160504Y-113264993D01*
X128166316Y-113288197D01*
X128169826Y-113311858D01*
X128171000Y-113335750D01*
X128171000Y-114248250D01*
X128169826Y-114272142D01*
X128166316Y-114295803D01*
X128160504Y-114319007D01*
X128152446Y-114341529D01*
X128142218Y-114363153D01*
X128129921Y-114383670D01*
X128115671Y-114402883D01*
X128099607Y-114420607D01*
X128081883Y-114436671D01*
X128062670Y-114450921D01*
X128042153Y-114463218D01*
X128020529Y-114473446D01*
X127998007Y-114481504D01*
X127974803Y-114487316D01*
X127951142Y-114490826D01*
X127927250Y-114492000D01*
X127439750Y-114492000D01*
X127415858Y-114490826D01*
X127392197Y-114487316D01*
X127368993Y-114481504D01*
X127346471Y-114473446D01*
X127324847Y-114463218D01*
X127304330Y-114450921D01*
X127285117Y-114436671D01*
X127267393Y-114420607D01*
X127251329Y-114402883D01*
X127237079Y-114383670D01*
X127224782Y-114363153D01*
X127214554Y-114341529D01*
X127206496Y-114319007D01*
X127200684Y-114295803D01*
X127197174Y-114272142D01*
X127196000Y-114248250D01*
X127196000Y-113335750D01*
X127197174Y-113311858D01*
X127200684Y-113288197D01*
X127206496Y-113264993D01*
X127214554Y-113242471D01*
X127224782Y-113220847D01*
X127237079Y-113200330D01*
X127251329Y-113181117D01*
X127267393Y-113163393D01*
X127285117Y-113147329D01*
X127304330Y-113133079D01*
X127324847Y-113120782D01*
X127346471Y-113110554D01*
X127368993Y-113102496D01*
X127392197Y-113096684D01*
X127415858Y-113093174D01*
X127439750Y-113092000D01*
X127927250Y-113092000D01*
X127951142Y-113093174D01*
G37*
G04 #@! TD.AperFunction*
D16*
X133096000Y-113030000D03*
D17*
X133096000Y-110490000D03*
G04 #@! TA.AperFunction,SMDPad,CuDef*
D14*
G36*
X131750898Y-101296340D02*
G01*
X131774559Y-101299850D01*
X131797763Y-101305662D01*
X131820285Y-101313720D01*
X131841909Y-101323948D01*
X131862426Y-101336245D01*
X131881639Y-101350495D01*
X131899363Y-101366559D01*
X131915427Y-101384283D01*
X131929677Y-101403496D01*
X131941974Y-101424013D01*
X131952202Y-101445637D01*
X131960260Y-101468159D01*
X131966072Y-101491363D01*
X131969582Y-101515024D01*
X131970756Y-101538916D01*
X131970756Y-102451416D01*
X131969582Y-102475308D01*
X131966072Y-102498969D01*
X131960260Y-102522173D01*
X131952202Y-102544695D01*
X131941974Y-102566319D01*
X131929677Y-102586836D01*
X131915427Y-102606049D01*
X131899363Y-102623773D01*
X131881639Y-102639837D01*
X131862426Y-102654087D01*
X131841909Y-102666384D01*
X131820285Y-102676612D01*
X131797763Y-102684670D01*
X131774559Y-102690482D01*
X131750898Y-102693992D01*
X131727006Y-102695166D01*
X131239506Y-102695166D01*
X131215614Y-102693992D01*
X131191953Y-102690482D01*
X131168749Y-102684670D01*
X131146227Y-102676612D01*
X131124603Y-102666384D01*
X131104086Y-102654087D01*
X131084873Y-102639837D01*
X131067149Y-102623773D01*
X131051085Y-102606049D01*
X131036835Y-102586836D01*
X131024538Y-102566319D01*
X131014310Y-102544695D01*
X131006252Y-102522173D01*
X131000440Y-102498969D01*
X130996930Y-102475308D01*
X130995756Y-102451416D01*
X130995756Y-101538916D01*
X130996930Y-101515024D01*
X131000440Y-101491363D01*
X131006252Y-101468159D01*
X131014310Y-101445637D01*
X131024538Y-101424013D01*
X131036835Y-101403496D01*
X131051085Y-101384283D01*
X131067149Y-101366559D01*
X131084873Y-101350495D01*
X131104086Y-101336245D01*
X131124603Y-101323948D01*
X131146227Y-101313720D01*
X131168749Y-101305662D01*
X131191953Y-101299850D01*
X131215614Y-101296340D01*
X131239506Y-101295166D01*
X131727006Y-101295166D01*
X131750898Y-101296340D01*
G37*
G04 #@! TD.AperFunction*
G04 #@! TA.AperFunction,SMDPad,CuDef*
G36*
X133625898Y-101296340D02*
G01*
X133649559Y-101299850D01*
X133672763Y-101305662D01*
X133695285Y-101313720D01*
X133716909Y-101323948D01*
X133737426Y-101336245D01*
X133756639Y-101350495D01*
X133774363Y-101366559D01*
X133790427Y-101384283D01*
X133804677Y-101403496D01*
X133816974Y-101424013D01*
X133827202Y-101445637D01*
X133835260Y-101468159D01*
X133841072Y-101491363D01*
X133844582Y-101515024D01*
X133845756Y-101538916D01*
X133845756Y-102451416D01*
X133844582Y-102475308D01*
X133841072Y-102498969D01*
X133835260Y-102522173D01*
X133827202Y-102544695D01*
X133816974Y-102566319D01*
X133804677Y-102586836D01*
X133790427Y-102606049D01*
X133774363Y-102623773D01*
X133756639Y-102639837D01*
X133737426Y-102654087D01*
X133716909Y-102666384D01*
X133695285Y-102676612D01*
X133672763Y-102684670D01*
X133649559Y-102690482D01*
X133625898Y-102693992D01*
X133602006Y-102695166D01*
X133114506Y-102695166D01*
X133090614Y-102693992D01*
X133066953Y-102690482D01*
X133043749Y-102684670D01*
X133021227Y-102676612D01*
X132999603Y-102666384D01*
X132979086Y-102654087D01*
X132959873Y-102639837D01*
X132942149Y-102623773D01*
X132926085Y-102606049D01*
X132911835Y-102586836D01*
X132899538Y-102566319D01*
X132889310Y-102544695D01*
X132881252Y-102522173D01*
X132875440Y-102498969D01*
X132871930Y-102475308D01*
X132870756Y-102451416D01*
X132870756Y-101538916D01*
X132871930Y-101515024D01*
X132875440Y-101491363D01*
X132881252Y-101468159D01*
X132889310Y-101445637D01*
X132899538Y-101424013D01*
X132911835Y-101403496D01*
X132926085Y-101384283D01*
X132942149Y-101366559D01*
X132959873Y-101350495D01*
X132979086Y-101336245D01*
X132999603Y-101323948D01*
X133021227Y-101313720D01*
X133043749Y-101305662D01*
X133066953Y-101299850D01*
X133090614Y-101296340D01*
X133114506Y-101295166D01*
X133602006Y-101295166D01*
X133625898Y-101296340D01*
G37*
G04 #@! TD.AperFunction*
G04 #@! TA.AperFunction,SMDPad,CuDef*
G36*
X116775142Y-100901174D02*
G01*
X116798803Y-100904684D01*
X116822007Y-100910496D01*
X116844529Y-100918554D01*
X116866153Y-100928782D01*
X116886670Y-100941079D01*
X116905883Y-100955329D01*
X116923607Y-100971393D01*
X116939671Y-100989117D01*
X116953921Y-101008330D01*
X116966218Y-101028847D01*
X116976446Y-101050471D01*
X116984504Y-101072993D01*
X116990316Y-101096197D01*
X116993826Y-101119858D01*
X116995000Y-101143750D01*
X116995000Y-102056250D01*
X116993826Y-102080142D01*
X116990316Y-102103803D01*
X116984504Y-102127007D01*
X116976446Y-102149529D01*
X116966218Y-102171153D01*
X116953921Y-102191670D01*
X116939671Y-102210883D01*
X116923607Y-102228607D01*
X116905883Y-102244671D01*
X116886670Y-102258921D01*
X116866153Y-102271218D01*
X116844529Y-102281446D01*
X116822007Y-102289504D01*
X116798803Y-102295316D01*
X116775142Y-102298826D01*
X116751250Y-102300000D01*
X116263750Y-102300000D01*
X116239858Y-102298826D01*
X116216197Y-102295316D01*
X116192993Y-102289504D01*
X116170471Y-102281446D01*
X116148847Y-102271218D01*
X116128330Y-102258921D01*
X116109117Y-102244671D01*
X116091393Y-102228607D01*
X116075329Y-102210883D01*
X116061079Y-102191670D01*
X116048782Y-102171153D01*
X116038554Y-102149529D01*
X116030496Y-102127007D01*
X116024684Y-102103803D01*
X116021174Y-102080142D01*
X116020000Y-102056250D01*
X116020000Y-101143750D01*
X116021174Y-101119858D01*
X116024684Y-101096197D01*
X116030496Y-101072993D01*
X116038554Y-101050471D01*
X116048782Y-101028847D01*
X116061079Y-101008330D01*
X116075329Y-100989117D01*
X116091393Y-100971393D01*
X116109117Y-100955329D01*
X116128330Y-100941079D01*
X116148847Y-100928782D01*
X116170471Y-100918554D01*
X116192993Y-100910496D01*
X116216197Y-100904684D01*
X116239858Y-100901174D01*
X116263750Y-100900000D01*
X116751250Y-100900000D01*
X116775142Y-100901174D01*
G37*
G04 #@! TD.AperFunction*
G04 #@! TA.AperFunction,SMDPad,CuDef*
G36*
X114900142Y-100901174D02*
G01*
X114923803Y-100904684D01*
X114947007Y-100910496D01*
X114969529Y-100918554D01*
X114991153Y-100928782D01*
X115011670Y-100941079D01*
X115030883Y-100955329D01*
X115048607Y-100971393D01*
X115064671Y-100989117D01*
X115078921Y-101008330D01*
X115091218Y-101028847D01*
X115101446Y-101050471D01*
X115109504Y-101072993D01*
X115115316Y-101096197D01*
X115118826Y-101119858D01*
X115120000Y-101143750D01*
X115120000Y-102056250D01*
X115118826Y-102080142D01*
X115115316Y-102103803D01*
X115109504Y-102127007D01*
X115101446Y-102149529D01*
X115091218Y-102171153D01*
X115078921Y-102191670D01*
X115064671Y-102210883D01*
X115048607Y-102228607D01*
X115030883Y-102244671D01*
X115011670Y-102258921D01*
X114991153Y-102271218D01*
X114969529Y-102281446D01*
X114947007Y-102289504D01*
X114923803Y-102295316D01*
X114900142Y-102298826D01*
X114876250Y-102300000D01*
X114388750Y-102300000D01*
X114364858Y-102298826D01*
X114341197Y-102295316D01*
X114317993Y-102289504D01*
X114295471Y-102281446D01*
X114273847Y-102271218D01*
X114253330Y-102258921D01*
X114234117Y-102244671D01*
X114216393Y-102228607D01*
X114200329Y-102210883D01*
X114186079Y-102191670D01*
X114173782Y-102171153D01*
X114163554Y-102149529D01*
X114155496Y-102127007D01*
X114149684Y-102103803D01*
X114146174Y-102080142D01*
X114145000Y-102056250D01*
X114145000Y-101143750D01*
X114146174Y-101119858D01*
X114149684Y-101096197D01*
X114155496Y-101072993D01*
X114163554Y-101050471D01*
X114173782Y-101028847D01*
X114186079Y-101008330D01*
X114200329Y-100989117D01*
X114216393Y-100971393D01*
X114234117Y-100955329D01*
X114253330Y-100941079D01*
X114273847Y-100928782D01*
X114295471Y-100918554D01*
X114317993Y-100910496D01*
X114341197Y-100904684D01*
X114364858Y-100901174D01*
X114388750Y-100900000D01*
X114876250Y-100900000D01*
X114900142Y-100901174D01*
G37*
G04 #@! TD.AperFunction*
D18*
X130048000Y-101600000D03*
X129540000Y-105664000D03*
X118364000Y-100838000D03*
X115062000Y-110236000D03*
X109982000Y-111506000D03*
X104648000Y-105410000D03*
X121920000Y-109982000D03*
X113538000Y-103632000D03*
X104648000Y-111760000D03*
X121666000Y-113030000D03*
X124460000Y-111506000D03*
X126492000Y-105410000D03*
D19*
X114552500Y-101680000D02*
X114632500Y-101600000D01*
X111760000Y-101680000D02*
X114552500Y-101680000D01*
X116407000Y-105791000D02*
X115189000Y-105791000D01*
X114632500Y-105234500D02*
X114632500Y-101600000D01*
X115189000Y-105791000D02*
X114632500Y-105234500D01*
X116407000Y-105791000D02*
X117983000Y-105791000D01*
X119253000Y-107061000D02*
X121337000Y-107061000D01*
X117983000Y-105791000D02*
X119253000Y-107061000D01*
X133358256Y-101995166D02*
X133358256Y-101608256D01*
D20*
X116001699Y-113770982D02*
X115986304Y-113786377D01*
D19*
X106760000Y-111332000D02*
X106760000Y-111760000D01*
D21*
X102108000Y-106680000D02*
X105664000Y-106680000D01*
X106760000Y-107776000D02*
X106760000Y-111760000D01*
X105664000Y-106680000D02*
X106760000Y-107776000D01*
X115796591Y-114740081D02*
X116577500Y-115520990D01*
X115796591Y-113538000D02*
X115796591Y-114740081D01*
X116577500Y-115520990D02*
X125017010Y-115520990D01*
X125808500Y-114729500D02*
X125808500Y-113792000D01*
X125017010Y-115520990D02*
X125808500Y-114729500D01*
X112980990Y-115520990D02*
X116577500Y-115520990D01*
X111760000Y-115062000D02*
X112218990Y-115520990D01*
X112218990Y-115520990D02*
X112980990Y-115520990D01*
X111760000Y-114300000D02*
X111760000Y-115062000D01*
X127683500Y-100906880D02*
X128111370Y-100479010D01*
X127683500Y-101606880D02*
X127683500Y-100906880D01*
X136338413Y-100479010D02*
X137499406Y-101640003D01*
X128111370Y-100479010D02*
X136338413Y-100479010D01*
X133358256Y-100978754D02*
X133858000Y-100479010D01*
X133358256Y-101995166D02*
X133358256Y-100978754D01*
X121337000Y-104521000D02*
X126365000Y-104521000D01*
X127683500Y-103202500D02*
X127683500Y-101606880D01*
X126365000Y-104521000D02*
X127683500Y-103202500D01*
X131415000Y-104140000D02*
X132842000Y-104140000D01*
X133358256Y-103623744D02*
X133358256Y-101995166D01*
X132842000Y-104140000D02*
X133358256Y-103623744D01*
X131415000Y-107345000D02*
X131415000Y-104140000D01*
X125808500Y-113792000D02*
X125808500Y-112951500D01*
X125808500Y-112951500D02*
X131415000Y-107345000D01*
D19*
X122058400Y-111506000D02*
X123894315Y-111506000D01*
X123894315Y-111506000D02*
X124460000Y-111506000D01*
X117613400Y-107061000D02*
X122058400Y-111506000D01*
X116407000Y-107061000D02*
X117613400Y-107061000D01*
D20*
X118442500Y-114248222D02*
X118432005Y-114258717D01*
X118418235Y-114244947D02*
X118432005Y-114258717D01*
D19*
X118418235Y-113456356D02*
X118336591Y-113538000D01*
X118418235Y-110490000D02*
X118418235Y-113456356D01*
X102108000Y-111760000D02*
X102957999Y-112609999D01*
X102957999Y-112609999D02*
X104140000Y-113792000D01*
X109739600Y-113792000D02*
X104140000Y-113792000D01*
X115200600Y-108331000D02*
X109739600Y-113792000D01*
X116407000Y-108331000D02*
X115200600Y-108331000D01*
X118418235Y-109135835D02*
X118418235Y-110490000D01*
X116407000Y-108331000D02*
X117613400Y-108331000D01*
X117613400Y-108331000D02*
X118418235Y-109135835D01*
D20*
X134660003Y-106720003D02*
X134620000Y-106680000D01*
D19*
X137459403Y-106680000D02*
X137499406Y-106720003D01*
X134620000Y-106680000D02*
X137459403Y-106680000D01*
X126111000Y-105791000D02*
X126492000Y-105410000D01*
X121337000Y-105791000D02*
X126111000Y-105791000D01*
X127762000Y-104140000D02*
X129540000Y-104140000D01*
X126492000Y-105410000D02*
X127762000Y-104140000D01*
X109220000Y-104140000D02*
X111760000Y-106680000D01*
X106760000Y-104140000D02*
X109220000Y-104140000D01*
X125801620Y-101600000D02*
X125808500Y-101606880D01*
X122095500Y-101600000D02*
X125801620Y-101600000D01*
X127624796Y-113786377D02*
X127664999Y-113746174D01*
X127683500Y-113792000D02*
X127683500Y-112854500D01*
X132745000Y-107793000D02*
X132745000Y-106680000D01*
X127683500Y-112854500D02*
X132745000Y-107793000D01*
D20*
G36*
X139340000Y-101273381D02*
G01*
X139340001Y-114726618D01*
X138726620Y-115340000D01*
X126457524Y-115340000D01*
X126551253Y-115225791D01*
X126633803Y-115071351D01*
X126662502Y-114976742D01*
X126684636Y-114903775D01*
X126689422Y-114855184D01*
X126746000Y-114786244D01*
X126816208Y-114871792D01*
X126949836Y-114981458D01*
X127102291Y-115062947D01*
X127267715Y-115113128D01*
X127439750Y-115130072D01*
X127927250Y-115130072D01*
X128099285Y-115113128D01*
X128264709Y-115062947D01*
X128417164Y-114981458D01*
X128550792Y-114871792D01*
X128660458Y-114738164D01*
X128741947Y-114585709D01*
X128792128Y-114420285D01*
X128809072Y-114248250D01*
X128809072Y-113335750D01*
X128792128Y-113163715D01*
X128741947Y-112998291D01*
X128736079Y-112987314D01*
X131557928Y-110165466D01*
X131557928Y-111390000D01*
X131570188Y-111514482D01*
X131606498Y-111634180D01*
X131665463Y-111744494D01*
X131744815Y-111841185D01*
X131841506Y-111920537D01*
X131951820Y-111979502D01*
X131970127Y-111985056D01*
X131903688Y-112051495D01*
X131735701Y-112302905D01*
X131619989Y-112582257D01*
X131561000Y-112878816D01*
X131561000Y-113181184D01*
X131619989Y-113477743D01*
X131735701Y-113757095D01*
X131903688Y-114008505D01*
X132117495Y-114222312D01*
X132368905Y-114390299D01*
X132648257Y-114506011D01*
X132944816Y-114565000D01*
X133247184Y-114565000D01*
X133543743Y-114506011D01*
X133823095Y-114390299D01*
X134074505Y-114222312D01*
X134288312Y-114008505D01*
X134456299Y-113757095D01*
X134572011Y-113477743D01*
X134631000Y-113181184D01*
X134631000Y-112878816D01*
X134572011Y-112582257D01*
X134456299Y-112302905D01*
X134288312Y-112051495D01*
X134221873Y-111985056D01*
X134240180Y-111979502D01*
X134350494Y-111920537D01*
X134447185Y-111841185D01*
X134526537Y-111744494D01*
X134585502Y-111634180D01*
X134621812Y-111514482D01*
X134634072Y-111390000D01*
X134634072Y-109590000D01*
X134621812Y-109465518D01*
X134585502Y-109345820D01*
X134526537Y-109235506D01*
X134447185Y-109138815D01*
X134350494Y-109059463D01*
X134240180Y-109000498D01*
X134120482Y-108964188D01*
X133996000Y-108951928D01*
X132771466Y-108951928D01*
X133308589Y-108414805D01*
X133340564Y-108388564D01*
X133418516Y-108293580D01*
X133445309Y-108260932D01*
X133523142Y-108115317D01*
X133571071Y-107957316D01*
X133571765Y-107950274D01*
X133583200Y-107834170D01*
X133583200Y-107834163D01*
X133587254Y-107793000D01*
X133586100Y-107781287D01*
X133612292Y-107759792D01*
X133682500Y-107674244D01*
X133752708Y-107759792D01*
X133886336Y-107869458D01*
X134038791Y-107950947D01*
X134204215Y-108001128D01*
X134376250Y-108018072D01*
X134863750Y-108018072D01*
X135035785Y-108001128D01*
X135201209Y-107950947D01*
X135353664Y-107869458D01*
X135487292Y-107759792D01*
X135596958Y-107626164D01*
X135654666Y-107518200D01*
X136006211Y-107518200D01*
X136190581Y-107794128D01*
X136425281Y-108028828D01*
X136701259Y-108213231D01*
X137007910Y-108340249D01*
X137333448Y-108405003D01*
X137665364Y-108405003D01*
X137990902Y-108340249D01*
X138297553Y-108213231D01*
X138573531Y-108028828D01*
X138808231Y-107794128D01*
X138992634Y-107518150D01*
X139119652Y-107211499D01*
X139184406Y-106885961D01*
X139184406Y-106554045D01*
X139119652Y-106228507D01*
X138992634Y-105921856D01*
X138808231Y-105645878D01*
X138573531Y-105411178D01*
X138489397Y-105354961D01*
X138490867Y-105351069D01*
X137499406Y-104359608D01*
X136507945Y-105351069D01*
X136509415Y-105354961D01*
X136425281Y-105411178D01*
X136190581Y-105645878D01*
X136059670Y-105841800D01*
X135654666Y-105841800D01*
X135596958Y-105733836D01*
X135487292Y-105600208D01*
X135353664Y-105490542D01*
X135201209Y-105409053D01*
X135035785Y-105358872D01*
X134863750Y-105341928D01*
X134376250Y-105341928D01*
X134204215Y-105358872D01*
X134038791Y-105409053D01*
X133886336Y-105490542D01*
X133752708Y-105600208D01*
X133682500Y-105685756D01*
X133612292Y-105600208D01*
X133478664Y-105490542D01*
X133326209Y-105409053D01*
X133160785Y-105358872D01*
X132988750Y-105341928D01*
X132501250Y-105341928D01*
X132329215Y-105358872D01*
X132304000Y-105366521D01*
X132304000Y-105193341D01*
X132391958Y-105086164D01*
X132422513Y-105029000D01*
X132798340Y-105029000D01*
X132842000Y-105033300D01*
X132885660Y-105029000D01*
X132885667Y-105029000D01*
X133016274Y-105016136D01*
X133183851Y-104965303D01*
X133338291Y-104882753D01*
X133473659Y-104771659D01*
X133501499Y-104737736D01*
X133955988Y-104283246D01*
X133989915Y-104255403D01*
X134002047Y-104240620D01*
X135807340Y-104240620D01*
X135851678Y-104569560D01*
X135959337Y-104883530D01*
X136058827Y-105069664D01*
X136328340Y-105171464D01*
X137319801Y-104180003D01*
X137679011Y-104180003D01*
X138670472Y-105171464D01*
X138939985Y-105069664D01*
X139085869Y-104771526D01*
X139170786Y-104450657D01*
X139191472Y-104119386D01*
X139147134Y-103790446D01*
X139039475Y-103476476D01*
X138939985Y-103290342D01*
X138670472Y-103188542D01*
X137679011Y-104180003D01*
X137319801Y-104180003D01*
X136328340Y-103188542D01*
X136058827Y-103290342D01*
X135912943Y-103588480D01*
X135828026Y-103909349D01*
X135807340Y-104240620D01*
X134002047Y-104240620D01*
X134101009Y-104120035D01*
X134183559Y-103965595D01*
X134223429Y-103834159D01*
X134234392Y-103798020D01*
X134237662Y-103764820D01*
X134247256Y-103667411D01*
X134247256Y-103667405D01*
X134251556Y-103623745D01*
X134247256Y-103580085D01*
X134247256Y-103048507D01*
X134335214Y-102941330D01*
X134416703Y-102788875D01*
X134466884Y-102623451D01*
X134483828Y-102451416D01*
X134483828Y-101538916D01*
X134466995Y-101368010D01*
X135835498Y-101368010D01*
X135814406Y-101474045D01*
X135814406Y-101805961D01*
X135879160Y-102131499D01*
X136006178Y-102438150D01*
X136190581Y-102714128D01*
X136425281Y-102948828D01*
X136509415Y-103005045D01*
X136507945Y-103008937D01*
X137499406Y-104000398D01*
X138490867Y-103008937D01*
X138489397Y-103005045D01*
X138573531Y-102948828D01*
X138808231Y-102714128D01*
X138992634Y-102438150D01*
X139119652Y-102131499D01*
X139184406Y-101805961D01*
X139184406Y-101474045D01*
X139119652Y-101148507D01*
X139052142Y-100985523D01*
X139340000Y-101273381D01*
G37*
X139340000Y-101273381D02*
X139340001Y-114726618D01*
X138726620Y-115340000D01*
X126457524Y-115340000D01*
X126551253Y-115225791D01*
X126633803Y-115071351D01*
X126662502Y-114976742D01*
X126684636Y-114903775D01*
X126689422Y-114855184D01*
X126746000Y-114786244D01*
X126816208Y-114871792D01*
X126949836Y-114981458D01*
X127102291Y-115062947D01*
X127267715Y-115113128D01*
X127439750Y-115130072D01*
X127927250Y-115130072D01*
X128099285Y-115113128D01*
X128264709Y-115062947D01*
X128417164Y-114981458D01*
X128550792Y-114871792D01*
X128660458Y-114738164D01*
X128741947Y-114585709D01*
X128792128Y-114420285D01*
X128809072Y-114248250D01*
X128809072Y-113335750D01*
X128792128Y-113163715D01*
X128741947Y-112998291D01*
X128736079Y-112987314D01*
X131557928Y-110165466D01*
X131557928Y-111390000D01*
X131570188Y-111514482D01*
X131606498Y-111634180D01*
X131665463Y-111744494D01*
X131744815Y-111841185D01*
X131841506Y-111920537D01*
X131951820Y-111979502D01*
X131970127Y-111985056D01*
X131903688Y-112051495D01*
X131735701Y-112302905D01*
X131619989Y-112582257D01*
X131561000Y-112878816D01*
X131561000Y-113181184D01*
X131619989Y-113477743D01*
X131735701Y-113757095D01*
X131903688Y-114008505D01*
X132117495Y-114222312D01*
X132368905Y-114390299D01*
X132648257Y-114506011D01*
X132944816Y-114565000D01*
X133247184Y-114565000D01*
X133543743Y-114506011D01*
X133823095Y-114390299D01*
X134074505Y-114222312D01*
X134288312Y-114008505D01*
X134456299Y-113757095D01*
X134572011Y-113477743D01*
X134631000Y-113181184D01*
X134631000Y-112878816D01*
X134572011Y-112582257D01*
X134456299Y-112302905D01*
X134288312Y-112051495D01*
X134221873Y-111985056D01*
X134240180Y-111979502D01*
X134350494Y-111920537D01*
X134447185Y-111841185D01*
X134526537Y-111744494D01*
X134585502Y-111634180D01*
X134621812Y-111514482D01*
X134634072Y-111390000D01*
X134634072Y-109590000D01*
X134621812Y-109465518D01*
X134585502Y-109345820D01*
X134526537Y-109235506D01*
X134447185Y-109138815D01*
X134350494Y-109059463D01*
X134240180Y-109000498D01*
X134120482Y-108964188D01*
X133996000Y-108951928D01*
X132771466Y-108951928D01*
X133308589Y-108414805D01*
X133340564Y-108388564D01*
X133418516Y-108293580D01*
X133445309Y-108260932D01*
X133523142Y-108115317D01*
X133571071Y-107957316D01*
X133571765Y-107950274D01*
X133583200Y-107834170D01*
X133583200Y-107834163D01*
X133587254Y-107793000D01*
X133586100Y-107781287D01*
X133612292Y-107759792D01*
X133682500Y-107674244D01*
X133752708Y-107759792D01*
X133886336Y-107869458D01*
X134038791Y-107950947D01*
X134204215Y-108001128D01*
X134376250Y-108018072D01*
X134863750Y-108018072D01*
X135035785Y-108001128D01*
X135201209Y-107950947D01*
X135353664Y-107869458D01*
X135487292Y-107759792D01*
X135596958Y-107626164D01*
X135654666Y-107518200D01*
X136006211Y-107518200D01*
X136190581Y-107794128D01*
X136425281Y-108028828D01*
X136701259Y-108213231D01*
X137007910Y-108340249D01*
X137333448Y-108405003D01*
X137665364Y-108405003D01*
X137990902Y-108340249D01*
X138297553Y-108213231D01*
X138573531Y-108028828D01*
X138808231Y-107794128D01*
X138992634Y-107518150D01*
X139119652Y-107211499D01*
X139184406Y-106885961D01*
X139184406Y-106554045D01*
X139119652Y-106228507D01*
X138992634Y-105921856D01*
X138808231Y-105645878D01*
X138573531Y-105411178D01*
X138489397Y-105354961D01*
X138490867Y-105351069D01*
X137499406Y-104359608D01*
X136507945Y-105351069D01*
X136509415Y-105354961D01*
X136425281Y-105411178D01*
X136190581Y-105645878D01*
X136059670Y-105841800D01*
X135654666Y-105841800D01*
X135596958Y-105733836D01*
X135487292Y-105600208D01*
X135353664Y-105490542D01*
X135201209Y-105409053D01*
X135035785Y-105358872D01*
X134863750Y-105341928D01*
X134376250Y-105341928D01*
X134204215Y-105358872D01*
X134038791Y-105409053D01*
X133886336Y-105490542D01*
X133752708Y-105600208D01*
X133682500Y-105685756D01*
X133612292Y-105600208D01*
X133478664Y-105490542D01*
X133326209Y-105409053D01*
X133160785Y-105358872D01*
X132988750Y-105341928D01*
X132501250Y-105341928D01*
X132329215Y-105358872D01*
X132304000Y-105366521D01*
X132304000Y-105193341D01*
X132391958Y-105086164D01*
X132422513Y-105029000D01*
X132798340Y-105029000D01*
X132842000Y-105033300D01*
X132885660Y-105029000D01*
X132885667Y-105029000D01*
X133016274Y-105016136D01*
X133183851Y-104965303D01*
X133338291Y-104882753D01*
X133473659Y-104771659D01*
X133501499Y-104737736D01*
X133955988Y-104283246D01*
X133989915Y-104255403D01*
X134002047Y-104240620D01*
X135807340Y-104240620D01*
X135851678Y-104569560D01*
X135959337Y-104883530D01*
X136058827Y-105069664D01*
X136328340Y-105171464D01*
X137319801Y-104180003D01*
X137679011Y-104180003D01*
X138670472Y-105171464D01*
X138939985Y-105069664D01*
X139085869Y-104771526D01*
X139170786Y-104450657D01*
X139191472Y-104119386D01*
X139147134Y-103790446D01*
X139039475Y-103476476D01*
X138939985Y-103290342D01*
X138670472Y-103188542D01*
X137679011Y-104180003D01*
X137319801Y-104180003D01*
X136328340Y-103188542D01*
X136058827Y-103290342D01*
X135912943Y-103588480D01*
X135828026Y-103909349D01*
X135807340Y-104240620D01*
X134002047Y-104240620D01*
X134101009Y-104120035D01*
X134183559Y-103965595D01*
X134223429Y-103834159D01*
X134234392Y-103798020D01*
X134237662Y-103764820D01*
X134247256Y-103667411D01*
X134247256Y-103667405D01*
X134251556Y-103623745D01*
X134247256Y-103580085D01*
X134247256Y-103048507D01*
X134335214Y-102941330D01*
X134416703Y-102788875D01*
X134466884Y-102623451D01*
X134483828Y-102451416D01*
X134483828Y-101538916D01*
X134466995Y-101368010D01*
X135835498Y-101368010D01*
X135814406Y-101474045D01*
X135814406Y-101805961D01*
X135879160Y-102131499D01*
X136006178Y-102438150D01*
X136190581Y-102714128D01*
X136425281Y-102948828D01*
X136509415Y-103005045D01*
X136507945Y-103008937D01*
X137499406Y-104000398D01*
X138490867Y-103008937D01*
X138489397Y-103005045D01*
X138573531Y-102948828D01*
X138808231Y-102714128D01*
X138992634Y-102438150D01*
X139119652Y-102131499D01*
X139184406Y-101805961D01*
X139184406Y-101474045D01*
X139119652Y-101148507D01*
X139052142Y-100985523D01*
X139340000Y-101273381D01*
G36*
X128563042Y-105086164D02*
G01*
X128672708Y-105219792D01*
X128806336Y-105329458D01*
X128958791Y-105410947D01*
X129124215Y-105461128D01*
X129296250Y-105478072D01*
X129783750Y-105478072D01*
X129955785Y-105461128D01*
X130121209Y-105410947D01*
X130273664Y-105329458D01*
X130407292Y-105219792D01*
X130477500Y-105134244D01*
X130526001Y-105193342D01*
X130526000Y-106976765D01*
X125210759Y-112292006D01*
X125176842Y-112319841D01*
X125149007Y-112353758D01*
X125149005Y-112353760D01*
X125065748Y-112455209D01*
X124983198Y-112609648D01*
X124955693Y-112700320D01*
X124941208Y-112712208D01*
X124831542Y-112845836D01*
X124750053Y-112998291D01*
X124699872Y-113163715D01*
X124682928Y-113335750D01*
X124682928Y-114248250D01*
X124699872Y-114420285D01*
X124737253Y-114543512D01*
X124648775Y-114631990D01*
X119776151Y-114631990D01*
X119812403Y-114512482D01*
X119824663Y-114388000D01*
X119824663Y-112688000D01*
X119812403Y-112563518D01*
X119776093Y-112443820D01*
X119717128Y-112333506D01*
X119637776Y-112236815D01*
X119541085Y-112157463D01*
X119430771Y-112098498D01*
X119311073Y-112062188D01*
X119256435Y-112056807D01*
X119256435Y-111593667D01*
X119285527Y-111569792D01*
X119395193Y-111436164D01*
X119476682Y-111283709D01*
X119526863Y-111118285D01*
X119543807Y-110946250D01*
X119543807Y-110176801D01*
X121436594Y-112069588D01*
X121462836Y-112101564D01*
X121590468Y-112206309D01*
X121736083Y-112284142D01*
X121894084Y-112332071D01*
X122017230Y-112344200D01*
X122017239Y-112344200D01*
X122058399Y-112348254D01*
X122099559Y-112344200D01*
X123851504Y-112344200D01*
X123969744Y-112423205D01*
X124158102Y-112501226D01*
X124358061Y-112541000D01*
X124561939Y-112541000D01*
X124761898Y-112501226D01*
X124950256Y-112423205D01*
X125119774Y-112309937D01*
X125263937Y-112165774D01*
X125377205Y-111996256D01*
X125455226Y-111807898D01*
X125495000Y-111607939D01*
X125495000Y-111404061D01*
X125455226Y-111204102D01*
X125377205Y-111015744D01*
X125263937Y-110846226D01*
X125119774Y-110702063D01*
X124950256Y-110588795D01*
X124761898Y-110510774D01*
X124561939Y-110471000D01*
X124358061Y-110471000D01*
X124158102Y-110510774D01*
X123969744Y-110588795D01*
X123851504Y-110667800D01*
X122405594Y-110667800D01*
X121056866Y-109319072D01*
X122137000Y-109319072D01*
X122261482Y-109306812D01*
X122381180Y-109270502D01*
X122491494Y-109211537D01*
X122588185Y-109132185D01*
X122667537Y-109035494D01*
X122726502Y-108925180D01*
X122762812Y-108805482D01*
X122775072Y-108681000D01*
X122775072Y-107981000D01*
X122762812Y-107856518D01*
X122726502Y-107736820D01*
X122704683Y-107696000D01*
X122726502Y-107655180D01*
X122762812Y-107535482D01*
X122775072Y-107411000D01*
X122775072Y-106711000D01*
X122767016Y-106629200D01*
X123727928Y-106629200D01*
X123519369Y-106941331D01*
X123350890Y-107348075D01*
X123265000Y-107779872D01*
X123265000Y-108220128D01*
X123350890Y-108651925D01*
X123519369Y-109058669D01*
X123763962Y-109424729D01*
X124075271Y-109736038D01*
X124441331Y-109980631D01*
X124848075Y-110149110D01*
X125279872Y-110235000D01*
X125720128Y-110235000D01*
X126151925Y-110149110D01*
X126558669Y-109980631D01*
X126924729Y-109736038D01*
X127236038Y-109424729D01*
X127480631Y-109058669D01*
X127649110Y-108651925D01*
X127735000Y-108220128D01*
X127735000Y-107779872D01*
X127649110Y-107348075D01*
X127480631Y-106941331D01*
X127236038Y-106575271D01*
X126985682Y-106324915D01*
X127151774Y-106213937D01*
X127295937Y-106069774D01*
X127409205Y-105900256D01*
X127487226Y-105711898D01*
X127514969Y-105572425D01*
X128109194Y-104978200D01*
X128505334Y-104978200D01*
X128563042Y-105086164D01*
G37*
X128563042Y-105086164D02*
X128672708Y-105219792D01*
X128806336Y-105329458D01*
X128958791Y-105410947D01*
X129124215Y-105461128D01*
X129296250Y-105478072D01*
X129783750Y-105478072D01*
X129955785Y-105461128D01*
X130121209Y-105410947D01*
X130273664Y-105329458D01*
X130407292Y-105219792D01*
X130477500Y-105134244D01*
X130526001Y-105193342D01*
X130526000Y-106976765D01*
X125210759Y-112292006D01*
X125176842Y-112319841D01*
X125149007Y-112353758D01*
X125149005Y-112353760D01*
X125065748Y-112455209D01*
X124983198Y-112609648D01*
X124955693Y-112700320D01*
X124941208Y-112712208D01*
X124831542Y-112845836D01*
X124750053Y-112998291D01*
X124699872Y-113163715D01*
X124682928Y-113335750D01*
X124682928Y-114248250D01*
X124699872Y-114420285D01*
X124737253Y-114543512D01*
X124648775Y-114631990D01*
X119776151Y-114631990D01*
X119812403Y-114512482D01*
X119824663Y-114388000D01*
X119824663Y-112688000D01*
X119812403Y-112563518D01*
X119776093Y-112443820D01*
X119717128Y-112333506D01*
X119637776Y-112236815D01*
X119541085Y-112157463D01*
X119430771Y-112098498D01*
X119311073Y-112062188D01*
X119256435Y-112056807D01*
X119256435Y-111593667D01*
X119285527Y-111569792D01*
X119395193Y-111436164D01*
X119476682Y-111283709D01*
X119526863Y-111118285D01*
X119543807Y-110946250D01*
X119543807Y-110176801D01*
X121436594Y-112069588D01*
X121462836Y-112101564D01*
X121590468Y-112206309D01*
X121736083Y-112284142D01*
X121894084Y-112332071D01*
X122017230Y-112344200D01*
X122017239Y-112344200D01*
X122058399Y-112348254D01*
X122099559Y-112344200D01*
X123851504Y-112344200D01*
X123969744Y-112423205D01*
X124158102Y-112501226D01*
X124358061Y-112541000D01*
X124561939Y-112541000D01*
X124761898Y-112501226D01*
X124950256Y-112423205D01*
X125119774Y-112309937D01*
X125263937Y-112165774D01*
X125377205Y-111996256D01*
X125455226Y-111807898D01*
X125495000Y-111607939D01*
X125495000Y-111404061D01*
X125455226Y-111204102D01*
X125377205Y-111015744D01*
X125263937Y-110846226D01*
X125119774Y-110702063D01*
X124950256Y-110588795D01*
X124761898Y-110510774D01*
X124561939Y-110471000D01*
X124358061Y-110471000D01*
X124158102Y-110510774D01*
X123969744Y-110588795D01*
X123851504Y-110667800D01*
X122405594Y-110667800D01*
X121056866Y-109319072D01*
X122137000Y-109319072D01*
X122261482Y-109306812D01*
X122381180Y-109270502D01*
X122491494Y-109211537D01*
X122588185Y-109132185D01*
X122667537Y-109035494D01*
X122726502Y-108925180D01*
X122762812Y-108805482D01*
X122775072Y-108681000D01*
X122775072Y-107981000D01*
X122762812Y-107856518D01*
X122726502Y-107736820D01*
X122704683Y-107696000D01*
X122726502Y-107655180D01*
X122762812Y-107535482D01*
X122775072Y-107411000D01*
X122775072Y-106711000D01*
X122767016Y-106629200D01*
X123727928Y-106629200D01*
X123519369Y-106941331D01*
X123350890Y-107348075D01*
X123265000Y-107779872D01*
X123265000Y-108220128D01*
X123350890Y-108651925D01*
X123519369Y-109058669D01*
X123763962Y-109424729D01*
X124075271Y-109736038D01*
X124441331Y-109980631D01*
X124848075Y-110149110D01*
X125279872Y-110235000D01*
X125720128Y-110235000D01*
X126151925Y-110149110D01*
X126558669Y-109980631D01*
X126924729Y-109736038D01*
X127236038Y-109424729D01*
X127480631Y-109058669D01*
X127649110Y-108651925D01*
X127735000Y-108220128D01*
X127735000Y-107779872D01*
X127649110Y-107348075D01*
X127480631Y-106941331D01*
X127236038Y-106575271D01*
X126985682Y-106324915D01*
X127151774Y-106213937D01*
X127295937Y-106069774D01*
X127409205Y-105900256D01*
X127487226Y-105711898D01*
X127514969Y-105572425D01*
X128109194Y-104978200D01*
X128505334Y-104978200D01*
X128563042Y-105086164D01*
G36*
X115482518Y-109306812D02*
G01*
X115607000Y-109319072D01*
X115628607Y-109319072D01*
X115604550Y-109338815D01*
X115525198Y-109435506D01*
X115466233Y-109545820D01*
X115429923Y-109665518D01*
X115417663Y-109790000D01*
X115420735Y-110204250D01*
X115579485Y-110363000D01*
X116416235Y-110363000D01*
X116416235Y-110343000D01*
X116670235Y-110343000D01*
X116670235Y-110363000D01*
X116690235Y-110363000D01*
X116690235Y-110617000D01*
X116670235Y-110617000D01*
X116670235Y-111666250D01*
X116828985Y-111825000D01*
X117030735Y-111828072D01*
X117155217Y-111815812D01*
X117274915Y-111779502D01*
X117385229Y-111720537D01*
X117481920Y-111641185D01*
X117545727Y-111563436D01*
X117550943Y-111569792D01*
X117580035Y-111593668D01*
X117580036Y-112049928D01*
X117486591Y-112049928D01*
X117362109Y-112062188D01*
X117242411Y-112098498D01*
X117132097Y-112157463D01*
X117035406Y-112236815D01*
X116956054Y-112333506D01*
X116897089Y-112443820D01*
X116875078Y-112516380D01*
X116743223Y-112384525D01*
X116500002Y-112222010D01*
X116229749Y-112110068D01*
X115942851Y-112053000D01*
X115650331Y-112053000D01*
X115363433Y-112110068D01*
X115093180Y-112222010D01*
X114849959Y-112384525D01*
X114643116Y-112591368D01*
X114480601Y-112834589D01*
X114368659Y-113104842D01*
X114311591Y-113391740D01*
X114311591Y-113684260D01*
X114368659Y-113971158D01*
X114480601Y-114241411D01*
X114643116Y-114484632D01*
X114790474Y-114631990D01*
X113233545Y-114631990D01*
X113270000Y-114448722D01*
X113270000Y-114151278D01*
X113211971Y-113859549D01*
X113098144Y-113584747D01*
X112932893Y-113337431D01*
X112722569Y-113127107D01*
X112475253Y-112961856D01*
X112200451Y-112848029D01*
X111923962Y-112793031D01*
X113526993Y-111190000D01*
X115417663Y-111190000D01*
X115429923Y-111314482D01*
X115466233Y-111434180D01*
X115525198Y-111544494D01*
X115604550Y-111641185D01*
X115701241Y-111720537D01*
X115811555Y-111779502D01*
X115931253Y-111815812D01*
X116055735Y-111828072D01*
X116257485Y-111825000D01*
X116416235Y-111666250D01*
X116416235Y-110617000D01*
X115579485Y-110617000D01*
X115420735Y-110775750D01*
X115417663Y-111190000D01*
X113526993Y-111190000D01*
X115427018Y-109289976D01*
X115482518Y-109306812D01*
G37*
X115482518Y-109306812D02*
X115607000Y-109319072D01*
X115628607Y-109319072D01*
X115604550Y-109338815D01*
X115525198Y-109435506D01*
X115466233Y-109545820D01*
X115429923Y-109665518D01*
X115417663Y-109790000D01*
X115420735Y-110204250D01*
X115579485Y-110363000D01*
X116416235Y-110363000D01*
X116416235Y-110343000D01*
X116670235Y-110343000D01*
X116670235Y-110363000D01*
X116690235Y-110363000D01*
X116690235Y-110617000D01*
X116670235Y-110617000D01*
X116670235Y-111666250D01*
X116828985Y-111825000D01*
X117030735Y-111828072D01*
X117155217Y-111815812D01*
X117274915Y-111779502D01*
X117385229Y-111720537D01*
X117481920Y-111641185D01*
X117545727Y-111563436D01*
X117550943Y-111569792D01*
X117580035Y-111593668D01*
X117580036Y-112049928D01*
X117486591Y-112049928D01*
X117362109Y-112062188D01*
X117242411Y-112098498D01*
X117132097Y-112157463D01*
X117035406Y-112236815D01*
X116956054Y-112333506D01*
X116897089Y-112443820D01*
X116875078Y-112516380D01*
X116743223Y-112384525D01*
X116500002Y-112222010D01*
X116229749Y-112110068D01*
X115942851Y-112053000D01*
X115650331Y-112053000D01*
X115363433Y-112110068D01*
X115093180Y-112222010D01*
X114849959Y-112384525D01*
X114643116Y-112591368D01*
X114480601Y-112834589D01*
X114368659Y-113104842D01*
X114311591Y-113391740D01*
X114311591Y-113684260D01*
X114368659Y-113971158D01*
X114480601Y-114241411D01*
X114643116Y-114484632D01*
X114790474Y-114631990D01*
X113233545Y-114631990D01*
X113270000Y-114448722D01*
X113270000Y-114151278D01*
X113211971Y-113859549D01*
X113098144Y-113584747D01*
X112932893Y-113337431D01*
X112722569Y-113127107D01*
X112475253Y-112961856D01*
X112200451Y-112848029D01*
X111923962Y-112793031D01*
X113526993Y-111190000D01*
X115417663Y-111190000D01*
X115429923Y-111314482D01*
X115466233Y-111434180D01*
X115525198Y-111544494D01*
X115604550Y-111641185D01*
X115701241Y-111720537D01*
X115811555Y-111779502D01*
X115931253Y-111815812D01*
X116055735Y-111828072D01*
X116257485Y-111825000D01*
X116416235Y-111666250D01*
X116416235Y-110617000D01*
X115579485Y-110617000D01*
X115420735Y-110775750D01*
X115417663Y-111190000D01*
X113526993Y-111190000D01*
X115427018Y-109289976D01*
X115482518Y-109306812D01*
G36*
X105871000Y-108144236D02*
G01*
X105871001Y-110537949D01*
X105797431Y-110587107D01*
X105587107Y-110797431D01*
X105421856Y-111044747D01*
X105308029Y-111319549D01*
X105250000Y-111611278D01*
X105250000Y-111908722D01*
X105308029Y-112200451D01*
X105421856Y-112475253D01*
X105587107Y-112722569D01*
X105797431Y-112932893D01*
X105828721Y-112953800D01*
X104487194Y-112953800D01*
X103579811Y-112046418D01*
X103579807Y-112046413D01*
X103567558Y-112034164D01*
X103593000Y-111906260D01*
X103593000Y-111613740D01*
X103535932Y-111326842D01*
X103423990Y-111056589D01*
X103261475Y-110813368D01*
X103054632Y-110606525D01*
X102880240Y-110490000D01*
X103054632Y-110373475D01*
X103261475Y-110166632D01*
X103423990Y-109923411D01*
X103535932Y-109653158D01*
X103593000Y-109366260D01*
X103593000Y-109073740D01*
X103535932Y-108786842D01*
X103423990Y-108516589D01*
X103261475Y-108273368D01*
X103054632Y-108066525D01*
X102880240Y-107950000D01*
X103054632Y-107833475D01*
X103261475Y-107626632D01*
X103299983Y-107569000D01*
X105295765Y-107569000D01*
X105871000Y-108144236D01*
G37*
X105871000Y-108144236D02*
X105871001Y-110537949D01*
X105797431Y-110587107D01*
X105587107Y-110797431D01*
X105421856Y-111044747D01*
X105308029Y-111319549D01*
X105250000Y-111611278D01*
X105250000Y-111908722D01*
X105308029Y-112200451D01*
X105421856Y-112475253D01*
X105587107Y-112722569D01*
X105797431Y-112932893D01*
X105828721Y-112953800D01*
X104487194Y-112953800D01*
X103579811Y-112046418D01*
X103579807Y-112046413D01*
X103567558Y-112034164D01*
X103593000Y-111906260D01*
X103593000Y-111613740D01*
X103535932Y-111326842D01*
X103423990Y-111056589D01*
X103261475Y-110813368D01*
X103054632Y-110606525D01*
X102880240Y-110490000D01*
X103054632Y-110373475D01*
X103261475Y-110166632D01*
X103423990Y-109923411D01*
X103535932Y-109653158D01*
X103593000Y-109366260D01*
X103593000Y-109073740D01*
X103535932Y-108786842D01*
X103423990Y-108516589D01*
X103261475Y-108273368D01*
X103054632Y-108066525D01*
X102880240Y-107950000D01*
X103054632Y-107833475D01*
X103261475Y-107626632D01*
X103299983Y-107569000D01*
X105295765Y-107569000D01*
X105871000Y-108144236D01*
G36*
X110587107Y-100717431D02*
G01*
X110421856Y-100964747D01*
X110308029Y-101239549D01*
X110250000Y-101531278D01*
X110250000Y-101828722D01*
X110308029Y-102120451D01*
X110421856Y-102395253D01*
X110587107Y-102642569D01*
X110797431Y-102852893D01*
X111044747Y-103018144D01*
X111319549Y-103131971D01*
X111611278Y-103190000D01*
X111908722Y-103190000D01*
X112200451Y-103131971D01*
X112475253Y-103018144D01*
X112722569Y-102852893D01*
X112932893Y-102642569D01*
X113015994Y-102518200D01*
X113640595Y-102518200D01*
X113655542Y-102546164D01*
X113765208Y-102679792D01*
X113794301Y-102703668D01*
X113794300Y-105193337D01*
X113790246Y-105234500D01*
X113794300Y-105275663D01*
X113794300Y-105275669D01*
X113806429Y-105398815D01*
X113854358Y-105556816D01*
X113932191Y-105702431D01*
X114036936Y-105830064D01*
X114068918Y-105856311D01*
X114567189Y-106354582D01*
X114593436Y-106386564D01*
X114721068Y-106491309D01*
X114866683Y-106569142D01*
X114979528Y-106603373D01*
X114968928Y-106711000D01*
X114968928Y-107411000D01*
X114979864Y-107522044D01*
X114878283Y-107552858D01*
X114732668Y-107630691D01*
X114605036Y-107735436D01*
X114578794Y-107767412D01*
X113257545Y-109088662D01*
X113211971Y-108859549D01*
X113098144Y-108584747D01*
X112932893Y-108337431D01*
X112722569Y-108127107D01*
X112517374Y-107990000D01*
X112722569Y-107852893D01*
X112932893Y-107642569D01*
X113098144Y-107395253D01*
X113211971Y-107120451D01*
X113270000Y-106828722D01*
X113270000Y-106531278D01*
X113211971Y-106239549D01*
X113098144Y-105964747D01*
X112932893Y-105717431D01*
X112722569Y-105507107D01*
X112475253Y-105341856D01*
X112200451Y-105228029D01*
X111908722Y-105170000D01*
X111611278Y-105170000D01*
X111464575Y-105199181D01*
X109841811Y-103576418D01*
X109815564Y-103544436D01*
X109687932Y-103439691D01*
X109542317Y-103361858D01*
X109384316Y-103313929D01*
X109261170Y-103301800D01*
X109261163Y-103301800D01*
X109220000Y-103297746D01*
X109178837Y-103301800D01*
X108015994Y-103301800D01*
X107932893Y-103177431D01*
X107722569Y-102967107D01*
X107475253Y-102801856D01*
X107200451Y-102688029D01*
X106908722Y-102630000D01*
X106611278Y-102630000D01*
X106319549Y-102688029D01*
X106044747Y-102801856D01*
X105797431Y-102967107D01*
X105587107Y-103177431D01*
X105421856Y-103424747D01*
X105308029Y-103699549D01*
X105250000Y-103991278D01*
X105250000Y-104288722D01*
X105308029Y-104580451D01*
X105421856Y-104855253D01*
X105587107Y-105102569D01*
X105797431Y-105312893D01*
X106044747Y-105478144D01*
X106319549Y-105591971D01*
X106611278Y-105650000D01*
X106908722Y-105650000D01*
X107200451Y-105591971D01*
X107475253Y-105478144D01*
X107722569Y-105312893D01*
X107932893Y-105102569D01*
X108015994Y-104978200D01*
X108872807Y-104978200D01*
X110279181Y-106384575D01*
X110250000Y-106531278D01*
X110250000Y-106828722D01*
X110308029Y-107120451D01*
X110421856Y-107395253D01*
X110587107Y-107642569D01*
X110797431Y-107852893D01*
X111002626Y-107990000D01*
X110797431Y-108127107D01*
X110587107Y-108337431D01*
X110421856Y-108584747D01*
X110308029Y-108859549D01*
X110250000Y-109151278D01*
X110250000Y-109448722D01*
X110308029Y-109740451D01*
X110421856Y-110015253D01*
X110587107Y-110262569D01*
X110797431Y-110472893D01*
X111044747Y-110638144D01*
X111319549Y-110751971D01*
X111548662Y-110797545D01*
X109392407Y-112953800D01*
X107691279Y-112953800D01*
X107722569Y-112932893D01*
X107932893Y-112722569D01*
X108098144Y-112475253D01*
X108211971Y-112200451D01*
X108270000Y-111908722D01*
X108270000Y-111611278D01*
X108211971Y-111319549D01*
X108098144Y-111044747D01*
X107932893Y-110797431D01*
X107722569Y-110587107D01*
X107649000Y-110537950D01*
X107649000Y-107819659D01*
X107653300Y-107775999D01*
X107649000Y-107732339D01*
X107649000Y-107732333D01*
X107636136Y-107601726D01*
X107624164Y-107562257D01*
X107612029Y-107522254D01*
X107585303Y-107434149D01*
X107502753Y-107279709D01*
X107391659Y-107144341D01*
X107357743Y-107116507D01*
X106323499Y-106082264D01*
X106295659Y-106048341D01*
X106160291Y-105937247D01*
X106005851Y-105854697D01*
X105838274Y-105803864D01*
X105707667Y-105791000D01*
X105707660Y-105791000D01*
X105664000Y-105786700D01*
X105620340Y-105791000D01*
X103299983Y-105791000D01*
X103261475Y-105733368D01*
X103129620Y-105601513D01*
X103202180Y-105579502D01*
X103312494Y-105520537D01*
X103409185Y-105441185D01*
X103488537Y-105344494D01*
X103547502Y-105234180D01*
X103583812Y-105114482D01*
X103596072Y-104990000D01*
X103593000Y-104425750D01*
X103434250Y-104267000D01*
X102235000Y-104267000D01*
X102235000Y-104287000D01*
X101981000Y-104287000D01*
X101981000Y-104267000D01*
X101961000Y-104267000D01*
X101961000Y-104013000D01*
X101981000Y-104013000D01*
X101981000Y-102813750D01*
X102235000Y-102813750D01*
X102235000Y-104013000D01*
X103434250Y-104013000D01*
X103593000Y-103854250D01*
X103596072Y-103290000D01*
X103583812Y-103165518D01*
X103547502Y-103045820D01*
X103488537Y-102935506D01*
X103409185Y-102838815D01*
X103312494Y-102759463D01*
X103202180Y-102700498D01*
X103082482Y-102664188D01*
X102958000Y-102651928D01*
X102393750Y-102655000D01*
X102235000Y-102813750D01*
X101981000Y-102813750D01*
X101822250Y-102655000D01*
X101258000Y-102651928D01*
X101133518Y-102664188D01*
X101013820Y-102700498D01*
X100903506Y-102759463D01*
X100806815Y-102838815D01*
X100727463Y-102935506D01*
X100668498Y-103045820D01*
X100660000Y-103073834D01*
X100660000Y-100660000D01*
X110644538Y-100660000D01*
X110587107Y-100717431D01*
G37*
X110587107Y-100717431D02*
X110421856Y-100964747D01*
X110308029Y-101239549D01*
X110250000Y-101531278D01*
X110250000Y-101828722D01*
X110308029Y-102120451D01*
X110421856Y-102395253D01*
X110587107Y-102642569D01*
X110797431Y-102852893D01*
X111044747Y-103018144D01*
X111319549Y-103131971D01*
X111611278Y-103190000D01*
X111908722Y-103190000D01*
X112200451Y-103131971D01*
X112475253Y-103018144D01*
X112722569Y-102852893D01*
X112932893Y-102642569D01*
X113015994Y-102518200D01*
X113640595Y-102518200D01*
X113655542Y-102546164D01*
X113765208Y-102679792D01*
X113794301Y-102703668D01*
X113794300Y-105193337D01*
X113790246Y-105234500D01*
X113794300Y-105275663D01*
X113794300Y-105275669D01*
X113806429Y-105398815D01*
X113854358Y-105556816D01*
X113932191Y-105702431D01*
X114036936Y-105830064D01*
X114068918Y-105856311D01*
X114567189Y-106354582D01*
X114593436Y-106386564D01*
X114721068Y-106491309D01*
X114866683Y-106569142D01*
X114979528Y-106603373D01*
X114968928Y-106711000D01*
X114968928Y-107411000D01*
X114979864Y-107522044D01*
X114878283Y-107552858D01*
X114732668Y-107630691D01*
X114605036Y-107735436D01*
X114578794Y-107767412D01*
X113257545Y-109088662D01*
X113211971Y-108859549D01*
X113098144Y-108584747D01*
X112932893Y-108337431D01*
X112722569Y-108127107D01*
X112517374Y-107990000D01*
X112722569Y-107852893D01*
X112932893Y-107642569D01*
X113098144Y-107395253D01*
X113211971Y-107120451D01*
X113270000Y-106828722D01*
X113270000Y-106531278D01*
X113211971Y-106239549D01*
X113098144Y-105964747D01*
X112932893Y-105717431D01*
X112722569Y-105507107D01*
X112475253Y-105341856D01*
X112200451Y-105228029D01*
X111908722Y-105170000D01*
X111611278Y-105170000D01*
X111464575Y-105199181D01*
X109841811Y-103576418D01*
X109815564Y-103544436D01*
X109687932Y-103439691D01*
X109542317Y-103361858D01*
X109384316Y-103313929D01*
X109261170Y-103301800D01*
X109261163Y-103301800D01*
X109220000Y-103297746D01*
X109178837Y-103301800D01*
X108015994Y-103301800D01*
X107932893Y-103177431D01*
X107722569Y-102967107D01*
X107475253Y-102801856D01*
X107200451Y-102688029D01*
X106908722Y-102630000D01*
X106611278Y-102630000D01*
X106319549Y-102688029D01*
X106044747Y-102801856D01*
X105797431Y-102967107D01*
X105587107Y-103177431D01*
X105421856Y-103424747D01*
X105308029Y-103699549D01*
X105250000Y-103991278D01*
X105250000Y-104288722D01*
X105308029Y-104580451D01*
X105421856Y-104855253D01*
X105587107Y-105102569D01*
X105797431Y-105312893D01*
X106044747Y-105478144D01*
X106319549Y-105591971D01*
X106611278Y-105650000D01*
X106908722Y-105650000D01*
X107200451Y-105591971D01*
X107475253Y-105478144D01*
X107722569Y-105312893D01*
X107932893Y-105102569D01*
X108015994Y-104978200D01*
X108872807Y-104978200D01*
X110279181Y-106384575D01*
X110250000Y-106531278D01*
X110250000Y-106828722D01*
X110308029Y-107120451D01*
X110421856Y-107395253D01*
X110587107Y-107642569D01*
X110797431Y-107852893D01*
X111002626Y-107990000D01*
X110797431Y-108127107D01*
X110587107Y-108337431D01*
X110421856Y-108584747D01*
X110308029Y-108859549D01*
X110250000Y-109151278D01*
X110250000Y-109448722D01*
X110308029Y-109740451D01*
X110421856Y-110015253D01*
X110587107Y-110262569D01*
X110797431Y-110472893D01*
X111044747Y-110638144D01*
X111319549Y-110751971D01*
X111548662Y-110797545D01*
X109392407Y-112953800D01*
X107691279Y-112953800D01*
X107722569Y-112932893D01*
X107932893Y-112722569D01*
X108098144Y-112475253D01*
X108211971Y-112200451D01*
X108270000Y-111908722D01*
X108270000Y-111611278D01*
X108211971Y-111319549D01*
X108098144Y-111044747D01*
X107932893Y-110797431D01*
X107722569Y-110587107D01*
X107649000Y-110537950D01*
X107649000Y-107819659D01*
X107653300Y-107775999D01*
X107649000Y-107732339D01*
X107649000Y-107732333D01*
X107636136Y-107601726D01*
X107624164Y-107562257D01*
X107612029Y-107522254D01*
X107585303Y-107434149D01*
X107502753Y-107279709D01*
X107391659Y-107144341D01*
X107357743Y-107116507D01*
X106323499Y-106082264D01*
X106295659Y-106048341D01*
X106160291Y-105937247D01*
X106005851Y-105854697D01*
X105838274Y-105803864D01*
X105707667Y-105791000D01*
X105707660Y-105791000D01*
X105664000Y-105786700D01*
X105620340Y-105791000D01*
X103299983Y-105791000D01*
X103261475Y-105733368D01*
X103129620Y-105601513D01*
X103202180Y-105579502D01*
X103312494Y-105520537D01*
X103409185Y-105441185D01*
X103488537Y-105344494D01*
X103547502Y-105234180D01*
X103583812Y-105114482D01*
X103596072Y-104990000D01*
X103593000Y-104425750D01*
X103434250Y-104267000D01*
X102235000Y-104267000D01*
X102235000Y-104287000D01*
X101981000Y-104287000D01*
X101981000Y-104267000D01*
X101961000Y-104267000D01*
X101961000Y-104013000D01*
X101981000Y-104013000D01*
X101981000Y-102813750D01*
X102235000Y-102813750D01*
X102235000Y-104013000D01*
X103434250Y-104013000D01*
X103593000Y-103854250D01*
X103596072Y-103290000D01*
X103583812Y-103165518D01*
X103547502Y-103045820D01*
X103488537Y-102935506D01*
X103409185Y-102838815D01*
X103312494Y-102759463D01*
X103202180Y-102700498D01*
X103082482Y-102664188D01*
X102958000Y-102651928D01*
X102393750Y-102655000D01*
X102235000Y-102813750D01*
X101981000Y-102813750D01*
X101822250Y-102655000D01*
X101258000Y-102651928D01*
X101133518Y-102664188D01*
X101013820Y-102700498D01*
X100903506Y-102759463D01*
X100806815Y-102838815D01*
X100727463Y-102935506D01*
X100668498Y-103045820D01*
X100660000Y-103073834D01*
X100660000Y-100660000D01*
X110644538Y-100660000D01*
X110587107Y-100717431D01*
G36*
X119107188Y-100775518D02*
G01*
X119094928Y-100900000D01*
X119098000Y-101314250D01*
X119256750Y-101473000D01*
X120093500Y-101473000D01*
X120093500Y-101453000D01*
X120347500Y-101453000D01*
X120347500Y-101473000D01*
X120367500Y-101473000D01*
X120367500Y-101727000D01*
X120347500Y-101727000D01*
X120347500Y-102776250D01*
X120506250Y-102935000D01*
X120708000Y-102938072D01*
X120832482Y-102925812D01*
X120952180Y-102889502D01*
X121062494Y-102830537D01*
X121159185Y-102751185D01*
X121222992Y-102673436D01*
X121228208Y-102679792D01*
X121361836Y-102789458D01*
X121514291Y-102870947D01*
X121679715Y-102921128D01*
X121851750Y-102938072D01*
X122339250Y-102938072D01*
X122511285Y-102921128D01*
X122676709Y-102870947D01*
X122829164Y-102789458D01*
X122962792Y-102679792D01*
X123072458Y-102546164D01*
X123130166Y-102438200D01*
X124770157Y-102438200D01*
X124831542Y-102553044D01*
X124941208Y-102686672D01*
X125074836Y-102796338D01*
X125227291Y-102877827D01*
X125392715Y-102928008D01*
X125564750Y-102944952D01*
X126052250Y-102944952D01*
X126224285Y-102928008D01*
X126389709Y-102877827D01*
X126542164Y-102796338D01*
X126675792Y-102686672D01*
X126746000Y-102601124D01*
X126794500Y-102660221D01*
X126794500Y-102834264D01*
X125996765Y-103632000D01*
X122475661Y-103632000D01*
X122381180Y-103581498D01*
X122261482Y-103545188D01*
X122137000Y-103532928D01*
X120537000Y-103532928D01*
X120412518Y-103545188D01*
X120292820Y-103581498D01*
X120182506Y-103640463D01*
X120085815Y-103719815D01*
X120006463Y-103816506D01*
X119947498Y-103926820D01*
X119911188Y-104046518D01*
X119898928Y-104171000D01*
X119898928Y-104871000D01*
X119911188Y-104995482D01*
X119947498Y-105115180D01*
X119969317Y-105156000D01*
X119947498Y-105196820D01*
X119911188Y-105316518D01*
X119898928Y-105441000D01*
X119898928Y-106141000D01*
X119906984Y-106222800D01*
X119600194Y-106222800D01*
X118604811Y-105227418D01*
X118578564Y-105195436D01*
X118450932Y-105090691D01*
X118305317Y-105012858D01*
X118147316Y-104964929D01*
X118024170Y-104952800D01*
X118024163Y-104952800D01*
X117983000Y-104948746D01*
X117941837Y-104952800D01*
X117837016Y-104952800D01*
X117845072Y-104871000D01*
X117842000Y-104806750D01*
X117683250Y-104648000D01*
X116534000Y-104648000D01*
X116534000Y-104668000D01*
X116280000Y-104668000D01*
X116280000Y-104648000D01*
X116260000Y-104648000D01*
X116260000Y-104394000D01*
X116280000Y-104394000D01*
X116280000Y-103694750D01*
X116534000Y-103694750D01*
X116534000Y-104394000D01*
X117683250Y-104394000D01*
X117842000Y-104235250D01*
X117845072Y-104171000D01*
X117832812Y-104046518D01*
X117796502Y-103926820D01*
X117737537Y-103816506D01*
X117658185Y-103719815D01*
X117561494Y-103640463D01*
X117451180Y-103581498D01*
X117331482Y-103545188D01*
X117207000Y-103532928D01*
X116692750Y-103536000D01*
X116534000Y-103694750D01*
X116280000Y-103694750D01*
X116121250Y-103536000D01*
X115607000Y-103532928D01*
X115482518Y-103545188D01*
X115470700Y-103548773D01*
X115470700Y-102703667D01*
X115499792Y-102679792D01*
X115505008Y-102673436D01*
X115568815Y-102751185D01*
X115665506Y-102830537D01*
X115775820Y-102889502D01*
X115895518Y-102925812D01*
X116020000Y-102938072D01*
X116221750Y-102935000D01*
X116380500Y-102776250D01*
X116380500Y-101727000D01*
X116634500Y-101727000D01*
X116634500Y-102776250D01*
X116793250Y-102935000D01*
X116995000Y-102938072D01*
X117119482Y-102925812D01*
X117239180Y-102889502D01*
X117349494Y-102830537D01*
X117446185Y-102751185D01*
X117525537Y-102654494D01*
X117584502Y-102544180D01*
X117620812Y-102424482D01*
X117633072Y-102300000D01*
X119094928Y-102300000D01*
X119107188Y-102424482D01*
X119143498Y-102544180D01*
X119202463Y-102654494D01*
X119281815Y-102751185D01*
X119378506Y-102830537D01*
X119488820Y-102889502D01*
X119608518Y-102925812D01*
X119733000Y-102938072D01*
X119934750Y-102935000D01*
X120093500Y-102776250D01*
X120093500Y-101727000D01*
X119256750Y-101727000D01*
X119098000Y-101885750D01*
X119094928Y-102300000D01*
X117633072Y-102300000D01*
X117630000Y-101885750D01*
X117471250Y-101727000D01*
X116634500Y-101727000D01*
X116380500Y-101727000D01*
X116360500Y-101727000D01*
X116360500Y-101473000D01*
X116380500Y-101473000D01*
X116380500Y-101453000D01*
X116634500Y-101453000D01*
X116634500Y-101473000D01*
X117471250Y-101473000D01*
X117630000Y-101314250D01*
X117633072Y-100900000D01*
X117620812Y-100775518D01*
X117585770Y-100660000D01*
X119142230Y-100660000D01*
X119107188Y-100775518D01*
G37*
X119107188Y-100775518D02*
X119094928Y-100900000D01*
X119098000Y-101314250D01*
X119256750Y-101473000D01*
X120093500Y-101473000D01*
X120093500Y-101453000D01*
X120347500Y-101453000D01*
X120347500Y-101473000D01*
X120367500Y-101473000D01*
X120367500Y-101727000D01*
X120347500Y-101727000D01*
X120347500Y-102776250D01*
X120506250Y-102935000D01*
X120708000Y-102938072D01*
X120832482Y-102925812D01*
X120952180Y-102889502D01*
X121062494Y-102830537D01*
X121159185Y-102751185D01*
X121222992Y-102673436D01*
X121228208Y-102679792D01*
X121361836Y-102789458D01*
X121514291Y-102870947D01*
X121679715Y-102921128D01*
X121851750Y-102938072D01*
X122339250Y-102938072D01*
X122511285Y-102921128D01*
X122676709Y-102870947D01*
X122829164Y-102789458D01*
X122962792Y-102679792D01*
X123072458Y-102546164D01*
X123130166Y-102438200D01*
X124770157Y-102438200D01*
X124831542Y-102553044D01*
X124941208Y-102686672D01*
X125074836Y-102796338D01*
X125227291Y-102877827D01*
X125392715Y-102928008D01*
X125564750Y-102944952D01*
X126052250Y-102944952D01*
X126224285Y-102928008D01*
X126389709Y-102877827D01*
X126542164Y-102796338D01*
X126675792Y-102686672D01*
X126746000Y-102601124D01*
X126794500Y-102660221D01*
X126794500Y-102834264D01*
X125996765Y-103632000D01*
X122475661Y-103632000D01*
X122381180Y-103581498D01*
X122261482Y-103545188D01*
X122137000Y-103532928D01*
X120537000Y-103532928D01*
X120412518Y-103545188D01*
X120292820Y-103581498D01*
X120182506Y-103640463D01*
X120085815Y-103719815D01*
X120006463Y-103816506D01*
X119947498Y-103926820D01*
X119911188Y-104046518D01*
X119898928Y-104171000D01*
X119898928Y-104871000D01*
X119911188Y-104995482D01*
X119947498Y-105115180D01*
X119969317Y-105156000D01*
X119947498Y-105196820D01*
X119911188Y-105316518D01*
X119898928Y-105441000D01*
X119898928Y-106141000D01*
X119906984Y-106222800D01*
X119600194Y-106222800D01*
X118604811Y-105227418D01*
X118578564Y-105195436D01*
X118450932Y-105090691D01*
X118305317Y-105012858D01*
X118147316Y-104964929D01*
X118024170Y-104952800D01*
X118024163Y-104952800D01*
X117983000Y-104948746D01*
X117941837Y-104952800D01*
X117837016Y-104952800D01*
X117845072Y-104871000D01*
X117842000Y-104806750D01*
X117683250Y-104648000D01*
X116534000Y-104648000D01*
X116534000Y-104668000D01*
X116280000Y-104668000D01*
X116280000Y-104648000D01*
X116260000Y-104648000D01*
X116260000Y-104394000D01*
X116280000Y-104394000D01*
X116280000Y-103694750D01*
X116534000Y-103694750D01*
X116534000Y-104394000D01*
X117683250Y-104394000D01*
X117842000Y-104235250D01*
X117845072Y-104171000D01*
X117832812Y-104046518D01*
X117796502Y-103926820D01*
X117737537Y-103816506D01*
X117658185Y-103719815D01*
X117561494Y-103640463D01*
X117451180Y-103581498D01*
X117331482Y-103545188D01*
X117207000Y-103532928D01*
X116692750Y-103536000D01*
X116534000Y-103694750D01*
X116280000Y-103694750D01*
X116121250Y-103536000D01*
X115607000Y-103532928D01*
X115482518Y-103545188D01*
X115470700Y-103548773D01*
X115470700Y-102703667D01*
X115499792Y-102679792D01*
X115505008Y-102673436D01*
X115568815Y-102751185D01*
X115665506Y-102830537D01*
X115775820Y-102889502D01*
X115895518Y-102925812D01*
X116020000Y-102938072D01*
X116221750Y-102935000D01*
X116380500Y-102776250D01*
X116380500Y-101727000D01*
X116634500Y-101727000D01*
X116634500Y-102776250D01*
X116793250Y-102935000D01*
X116995000Y-102938072D01*
X117119482Y-102925812D01*
X117239180Y-102889502D01*
X117349494Y-102830537D01*
X117446185Y-102751185D01*
X117525537Y-102654494D01*
X117584502Y-102544180D01*
X117620812Y-102424482D01*
X117633072Y-102300000D01*
X119094928Y-102300000D01*
X119107188Y-102424482D01*
X119143498Y-102544180D01*
X119202463Y-102654494D01*
X119281815Y-102751185D01*
X119378506Y-102830537D01*
X119488820Y-102889502D01*
X119608518Y-102925812D01*
X119733000Y-102938072D01*
X119934750Y-102935000D01*
X120093500Y-102776250D01*
X120093500Y-101727000D01*
X119256750Y-101727000D01*
X119098000Y-101885750D01*
X119094928Y-102300000D01*
X117633072Y-102300000D01*
X117630000Y-101885750D01*
X117471250Y-101727000D01*
X116634500Y-101727000D01*
X116380500Y-101727000D01*
X116360500Y-101727000D01*
X116360500Y-101473000D01*
X116380500Y-101473000D01*
X116380500Y-101453000D01*
X116634500Y-101453000D01*
X116634500Y-101473000D01*
X117471250Y-101473000D01*
X117630000Y-101314250D01*
X117633072Y-100900000D01*
X117620812Y-100775518D01*
X117585770Y-100660000D01*
X119142230Y-100660000D01*
X119107188Y-100775518D01*
G36*
X130360756Y-101709416D02*
G01*
X130519506Y-101868166D01*
X131356256Y-101868166D01*
X131356256Y-101848166D01*
X131610256Y-101848166D01*
X131610256Y-101868166D01*
X131630256Y-101868166D01*
X131630256Y-102122166D01*
X131610256Y-102122166D01*
X131610256Y-102142166D01*
X131356256Y-102142166D01*
X131356256Y-102122166D01*
X130519506Y-102122166D01*
X130360756Y-102280916D01*
X130357684Y-102695166D01*
X130369944Y-102819648D01*
X130406254Y-102939346D01*
X130465219Y-103049660D01*
X130510792Y-103105191D01*
X130477500Y-103145756D01*
X130407292Y-103060208D01*
X130273664Y-102950542D01*
X130121209Y-102869053D01*
X129955785Y-102818872D01*
X129783750Y-102801928D01*
X129296250Y-102801928D01*
X129124215Y-102818872D01*
X128958791Y-102869053D01*
X128806336Y-102950542D01*
X128672708Y-103060208D01*
X128574565Y-103179796D01*
X128572500Y-103158832D01*
X128572500Y-102660221D01*
X128660458Y-102553044D01*
X128741947Y-102400589D01*
X128792128Y-102235165D01*
X128809072Y-102063130D01*
X128809072Y-101368010D01*
X130358224Y-101368010D01*
X130360756Y-101709416D01*
G37*
X130360756Y-101709416D02*
X130519506Y-101868166D01*
X131356256Y-101868166D01*
X131356256Y-101848166D01*
X131610256Y-101848166D01*
X131610256Y-101868166D01*
X131630256Y-101868166D01*
X131630256Y-102122166D01*
X131610256Y-102122166D01*
X131610256Y-102142166D01*
X131356256Y-102142166D01*
X131356256Y-102122166D01*
X130519506Y-102122166D01*
X130360756Y-102280916D01*
X130357684Y-102695166D01*
X130369944Y-102819648D01*
X130406254Y-102939346D01*
X130465219Y-103049660D01*
X130510792Y-103105191D01*
X130477500Y-103145756D01*
X130407292Y-103060208D01*
X130273664Y-102950542D01*
X130121209Y-102869053D01*
X129955785Y-102818872D01*
X129783750Y-102801928D01*
X129296250Y-102801928D01*
X129124215Y-102818872D01*
X128958791Y-102869053D01*
X128806336Y-102950542D01*
X128672708Y-103060208D01*
X128574565Y-103179796D01*
X128572500Y-103158832D01*
X128572500Y-102660221D01*
X128660458Y-102553044D01*
X128741947Y-102400589D01*
X128792128Y-102235165D01*
X128809072Y-102063130D01*
X128809072Y-101368010D01*
X130358224Y-101368010D01*
X130360756Y-101709416D01*
M02*
