G04 #@! TF.GenerationSoftware,KiCad,Pcbnew,5.1.5-52549c5~86~ubuntu16.04.1*
G04 #@! TF.CreationDate,2020-11-24T12:51:21+05:30*
G04 #@! TF.ProjectId,IR_Sensor_Module_555_V1.0,49525f53-656e-4736-9f72-5f4d6f64756c,V1.0*
G04 #@! TF.SameCoordinates,Original*
G04 #@! TF.FileFunction,Soldermask,Top*
G04 #@! TF.FilePolarity,Negative*
%FSLAX46Y46*%
G04 Gerber Fmt 4.6, Leading zero omitted, Abs format (unit mm)*
G04 Created by KiCad (PCBNEW 5.1.5-52549c5~86~ubuntu16.04.1) date 2020-11-24 12:51:21*
%MOMM*%
%LPD*%
G04 APERTURE LIST*
%ADD10C,0.100000*%
G04 APERTURE END LIST*
D10*
G36*
X112030104Y-113409585D02*
G01*
X112198626Y-113479389D01*
X112350291Y-113580728D01*
X112479272Y-113709709D01*
X112580611Y-113861374D01*
X112650415Y-114029896D01*
X112686000Y-114208797D01*
X112686000Y-114391203D01*
X112650415Y-114570104D01*
X112580611Y-114738626D01*
X112479272Y-114890291D01*
X112350291Y-115019272D01*
X112198626Y-115120611D01*
X112030104Y-115190415D01*
X111851203Y-115226000D01*
X111668797Y-115226000D01*
X111489896Y-115190415D01*
X111321374Y-115120611D01*
X111169709Y-115019272D01*
X111040728Y-114890291D01*
X110939389Y-114738626D01*
X110869585Y-114570104D01*
X110834000Y-114391203D01*
X110834000Y-114208797D01*
X110869585Y-114029896D01*
X110939389Y-113861374D01*
X111040728Y-113709709D01*
X111169709Y-113580728D01*
X111321374Y-113479389D01*
X111489896Y-113409585D01*
X111668797Y-113374000D01*
X111851203Y-113374000D01*
X112030104Y-113409585D01*
G37*
G36*
X128055468Y-113045565D02*
G01*
X128094138Y-113057296D01*
X128129777Y-113076346D01*
X128161017Y-113101983D01*
X128186654Y-113133223D01*
X128205704Y-113168862D01*
X128217435Y-113207532D01*
X128222000Y-113253888D01*
X128222000Y-114330112D01*
X128217435Y-114376468D01*
X128205704Y-114415138D01*
X128186654Y-114450777D01*
X128161017Y-114482017D01*
X128129777Y-114507654D01*
X128094138Y-114526704D01*
X128055468Y-114538435D01*
X128009112Y-114543000D01*
X127357888Y-114543000D01*
X127311532Y-114538435D01*
X127272862Y-114526704D01*
X127237223Y-114507654D01*
X127205983Y-114482017D01*
X127180346Y-114450777D01*
X127161296Y-114415138D01*
X127149565Y-114376468D01*
X127145000Y-114330112D01*
X127145000Y-113253888D01*
X127149565Y-113207532D01*
X127161296Y-113168862D01*
X127180346Y-113133223D01*
X127205983Y-113101983D01*
X127237223Y-113076346D01*
X127272862Y-113057296D01*
X127311532Y-113045565D01*
X127357888Y-113041000D01*
X128009112Y-113041000D01*
X128055468Y-113045565D01*
G37*
G36*
X126180468Y-113045565D02*
G01*
X126219138Y-113057296D01*
X126254777Y-113076346D01*
X126286017Y-113101983D01*
X126311654Y-113133223D01*
X126330704Y-113168862D01*
X126342435Y-113207532D01*
X126347000Y-113253888D01*
X126347000Y-114330112D01*
X126342435Y-114376468D01*
X126330704Y-114415138D01*
X126311654Y-114450777D01*
X126286017Y-114482017D01*
X126254777Y-114507654D01*
X126219138Y-114526704D01*
X126180468Y-114538435D01*
X126134112Y-114543000D01*
X125482888Y-114543000D01*
X125436532Y-114538435D01*
X125397862Y-114526704D01*
X125362223Y-114507654D01*
X125330983Y-114482017D01*
X125305346Y-114450777D01*
X125286296Y-114415138D01*
X125274565Y-114376468D01*
X125270000Y-114330112D01*
X125270000Y-113253888D01*
X125274565Y-113207532D01*
X125286296Y-113168862D01*
X125305346Y-113133223D01*
X125330983Y-113101983D01*
X125362223Y-113076346D01*
X125397862Y-113057296D01*
X125436532Y-113045565D01*
X125482888Y-113041000D01*
X126134112Y-113041000D01*
X126180468Y-113045565D01*
G37*
G36*
X115910103Y-112641927D02*
G01*
X116059403Y-112671624D01*
X116223375Y-112739544D01*
X116370945Y-112838147D01*
X116496444Y-112963646D01*
X116595047Y-113111216D01*
X116662967Y-113275188D01*
X116697591Y-113449259D01*
X116697591Y-113626741D01*
X116662967Y-113800812D01*
X116595047Y-113964784D01*
X116496444Y-114112354D01*
X116370945Y-114237853D01*
X116223375Y-114336456D01*
X116059403Y-114404376D01*
X115910103Y-114434073D01*
X115885333Y-114439000D01*
X115707849Y-114439000D01*
X115683079Y-114434073D01*
X115533779Y-114404376D01*
X115369807Y-114336456D01*
X115222237Y-114237853D01*
X115096738Y-114112354D01*
X114998135Y-113964784D01*
X114930215Y-113800812D01*
X114895591Y-113626741D01*
X114895591Y-113449259D01*
X114930215Y-113275188D01*
X114998135Y-113111216D01*
X115096738Y-112963646D01*
X115222237Y-112838147D01*
X115369807Y-112739544D01*
X115533779Y-112671624D01*
X115683079Y-112641927D01*
X115707849Y-112637000D01*
X115885333Y-112637000D01*
X115910103Y-112641927D01*
G37*
G36*
X119237591Y-114439000D02*
G01*
X117435591Y-114439000D01*
X117435591Y-112637000D01*
X119237591Y-112637000D01*
X119237591Y-114439000D01*
G37*
G36*
X133373395Y-112115546D02*
G01*
X133546466Y-112187234D01*
X133563515Y-112198626D01*
X133702227Y-112291310D01*
X133834690Y-112423773D01*
X133834691Y-112423775D01*
X133938766Y-112579534D01*
X134010454Y-112752605D01*
X134047000Y-112936333D01*
X134047000Y-113123667D01*
X134010454Y-113307395D01*
X133938766Y-113480466D01*
X133938765Y-113480467D01*
X133834690Y-113636227D01*
X133702227Y-113768690D01*
X133654154Y-113800811D01*
X133546466Y-113872766D01*
X133373395Y-113944454D01*
X133189667Y-113981000D01*
X133002333Y-113981000D01*
X132818605Y-113944454D01*
X132645534Y-113872766D01*
X132537846Y-113800811D01*
X132489773Y-113768690D01*
X132357310Y-113636227D01*
X132253235Y-113480467D01*
X132253234Y-113480466D01*
X132181546Y-113307395D01*
X132145000Y-113123667D01*
X132145000Y-112936333D01*
X132181546Y-112752605D01*
X132253234Y-112579534D01*
X132357309Y-112423775D01*
X132357310Y-112423773D01*
X132489773Y-112291310D01*
X132628485Y-112198626D01*
X132645534Y-112187234D01*
X132818605Y-112115546D01*
X133002333Y-112079000D01*
X133189667Y-112079000D01*
X133373395Y-112115546D01*
G37*
G36*
X107030104Y-110869585D02*
G01*
X107198626Y-110939389D01*
X107350291Y-111040728D01*
X107479272Y-111169709D01*
X107580611Y-111321374D01*
X107650415Y-111489896D01*
X107686000Y-111668797D01*
X107686000Y-111851203D01*
X107650415Y-112030104D01*
X107580611Y-112198626D01*
X107479272Y-112350291D01*
X107350291Y-112479272D01*
X107198626Y-112580611D01*
X107030104Y-112650415D01*
X106851203Y-112686000D01*
X106668797Y-112686000D01*
X106489896Y-112650415D01*
X106321374Y-112580611D01*
X106169709Y-112479272D01*
X106040728Y-112350291D01*
X105939389Y-112198626D01*
X105869585Y-112030104D01*
X105834000Y-111851203D01*
X105834000Y-111668797D01*
X105869585Y-111489896D01*
X105939389Y-111321374D01*
X106040728Y-111169709D01*
X106169709Y-111040728D01*
X106321374Y-110939389D01*
X106489896Y-110869585D01*
X106668797Y-110834000D01*
X106851203Y-110834000D01*
X107030104Y-110869585D01*
G37*
G36*
X102221512Y-110863927D02*
G01*
X102370812Y-110893624D01*
X102534784Y-110961544D01*
X102682354Y-111060147D01*
X102807853Y-111185646D01*
X102906456Y-111333216D01*
X102974376Y-111497188D01*
X103009000Y-111671259D01*
X103009000Y-111848741D01*
X102974376Y-112022812D01*
X102906456Y-112186784D01*
X102807853Y-112334354D01*
X102682354Y-112459853D01*
X102534784Y-112558456D01*
X102370812Y-112626376D01*
X102221512Y-112656073D01*
X102196742Y-112661000D01*
X102019258Y-112661000D01*
X101994488Y-112656073D01*
X101845188Y-112626376D01*
X101681216Y-112558456D01*
X101533646Y-112459853D01*
X101408147Y-112334354D01*
X101309544Y-112186784D01*
X101241624Y-112022812D01*
X101207000Y-111848741D01*
X101207000Y-111671259D01*
X101241624Y-111497188D01*
X101309544Y-111333216D01*
X101408147Y-111185646D01*
X101533646Y-111060147D01*
X101681216Y-110961544D01*
X101845188Y-110893624D01*
X101994488Y-110863927D01*
X102019258Y-110859000D01*
X102196742Y-110859000D01*
X102221512Y-110863927D01*
G37*
G36*
X134047000Y-111441000D02*
G01*
X132145000Y-111441000D01*
X132145000Y-109539000D01*
X134047000Y-109539000D01*
X134047000Y-111441000D01*
G37*
G36*
X116915203Y-109743565D02*
G01*
X116953873Y-109755296D01*
X116989512Y-109774346D01*
X117020752Y-109799983D01*
X117046389Y-109831223D01*
X117065439Y-109866862D01*
X117077170Y-109905532D01*
X117081735Y-109951888D01*
X117081735Y-111028112D01*
X117077170Y-111074468D01*
X117065439Y-111113138D01*
X117046389Y-111148777D01*
X117020752Y-111180017D01*
X116989512Y-111205654D01*
X116953873Y-111224704D01*
X116915203Y-111236435D01*
X116868847Y-111241000D01*
X116217623Y-111241000D01*
X116171267Y-111236435D01*
X116132597Y-111224704D01*
X116096958Y-111205654D01*
X116065718Y-111180017D01*
X116040081Y-111148777D01*
X116021031Y-111113138D01*
X116009300Y-111074468D01*
X116004735Y-111028112D01*
X116004735Y-109951888D01*
X116009300Y-109905532D01*
X116021031Y-109866862D01*
X116040081Y-109831223D01*
X116065718Y-109799983D01*
X116096958Y-109774346D01*
X116132597Y-109755296D01*
X116171267Y-109743565D01*
X116217623Y-109739000D01*
X116868847Y-109739000D01*
X116915203Y-109743565D01*
G37*
G36*
X118790203Y-109743565D02*
G01*
X118828873Y-109755296D01*
X118864512Y-109774346D01*
X118895752Y-109799983D01*
X118921389Y-109831223D01*
X118940439Y-109866862D01*
X118952170Y-109905532D01*
X118956735Y-109951888D01*
X118956735Y-111028112D01*
X118952170Y-111074468D01*
X118940439Y-111113138D01*
X118921389Y-111148777D01*
X118895752Y-111180017D01*
X118864512Y-111205654D01*
X118828873Y-111224704D01*
X118790203Y-111236435D01*
X118743847Y-111241000D01*
X118092623Y-111241000D01*
X118046267Y-111236435D01*
X118007597Y-111224704D01*
X117971958Y-111205654D01*
X117940718Y-111180017D01*
X117915081Y-111148777D01*
X117896031Y-111113138D01*
X117884300Y-111074468D01*
X117879735Y-111028112D01*
X117879735Y-109951888D01*
X117884300Y-109905532D01*
X117896031Y-109866862D01*
X117915081Y-109831223D01*
X117940718Y-109799983D01*
X117971958Y-109774346D01*
X118007597Y-109755296D01*
X118046267Y-109743565D01*
X118092623Y-109739000D01*
X118743847Y-109739000D01*
X118790203Y-109743565D01*
G37*
G36*
X112030104Y-108409585D02*
G01*
X112198626Y-108479389D01*
X112350291Y-108580728D01*
X112479272Y-108709709D01*
X112580611Y-108861374D01*
X112650415Y-109029896D01*
X112686000Y-109208797D01*
X112686000Y-109391203D01*
X112650415Y-109570104D01*
X112580611Y-109738626D01*
X112479272Y-109890291D01*
X112350291Y-110019272D01*
X112198626Y-110120611D01*
X112030104Y-110190415D01*
X111851203Y-110226000D01*
X111668797Y-110226000D01*
X111489896Y-110190415D01*
X111321374Y-110120611D01*
X111169709Y-110019272D01*
X111040728Y-109890291D01*
X110939389Y-109738626D01*
X110869585Y-109570104D01*
X110834000Y-109391203D01*
X110834000Y-109208797D01*
X110869585Y-109029896D01*
X110939389Y-108861374D01*
X111040728Y-108709709D01*
X111169709Y-108580728D01*
X111321374Y-108479389D01*
X111489896Y-108409585D01*
X111668797Y-108374000D01*
X111851203Y-108374000D01*
X112030104Y-108409585D01*
G37*
G36*
X102221512Y-108323927D02*
G01*
X102370812Y-108353624D01*
X102534784Y-108421544D01*
X102682354Y-108520147D01*
X102807853Y-108645646D01*
X102906456Y-108793216D01*
X102974376Y-108957188D01*
X103009000Y-109131259D01*
X103009000Y-109308741D01*
X102974376Y-109482812D01*
X102906456Y-109646784D01*
X102807853Y-109794354D01*
X102682354Y-109919853D01*
X102534784Y-110018456D01*
X102370812Y-110086376D01*
X102221512Y-110116073D01*
X102196742Y-110121000D01*
X102019258Y-110121000D01*
X101994488Y-110116073D01*
X101845188Y-110086376D01*
X101681216Y-110018456D01*
X101533646Y-109919853D01*
X101408147Y-109794354D01*
X101309544Y-109646784D01*
X101241624Y-109482812D01*
X101207000Y-109308741D01*
X101207000Y-109131259D01*
X101241624Y-108957188D01*
X101309544Y-108793216D01*
X101408147Y-108645646D01*
X101533646Y-108520147D01*
X101681216Y-108421544D01*
X101845188Y-108353624D01*
X101994488Y-108323927D01*
X102019258Y-108319000D01*
X102196742Y-108319000D01*
X102221512Y-108323927D01*
G37*
G36*
X125875256Y-106391298D02*
G01*
X125981579Y-106412447D01*
X126282042Y-106536903D01*
X126552451Y-106717585D01*
X126782415Y-106947549D01*
X126963097Y-107217958D01*
X127087553Y-107518421D01*
X127108702Y-107624744D01*
X127147741Y-107821003D01*
X127151000Y-107837391D01*
X127151000Y-108162609D01*
X127087553Y-108481579D01*
X126963097Y-108782042D01*
X126782415Y-109052451D01*
X126552451Y-109282415D01*
X126282042Y-109463097D01*
X125981579Y-109587553D01*
X125875256Y-109608702D01*
X125662611Y-109651000D01*
X125337389Y-109651000D01*
X125124744Y-109608702D01*
X125018421Y-109587553D01*
X124717958Y-109463097D01*
X124447549Y-109282415D01*
X124217585Y-109052451D01*
X124036903Y-108782042D01*
X123912447Y-108481579D01*
X123849000Y-108162609D01*
X123849000Y-107837391D01*
X123852260Y-107821003D01*
X123891298Y-107624744D01*
X123912447Y-107518421D01*
X124036903Y-107217958D01*
X124217585Y-106947549D01*
X124447549Y-106717585D01*
X124717958Y-106536903D01*
X125018421Y-106412447D01*
X125124744Y-106391298D01*
X125337389Y-106349000D01*
X125662611Y-106349000D01*
X125875256Y-106391298D01*
G37*
G36*
X122188000Y-108732000D02*
G01*
X120486000Y-108732000D01*
X120486000Y-107930000D01*
X122188000Y-107930000D01*
X122188000Y-108732000D01*
G37*
G36*
X117258000Y-108732000D02*
G01*
X115556000Y-108732000D01*
X115556000Y-107930000D01*
X117258000Y-107930000D01*
X117258000Y-108732000D01*
G37*
G36*
X137714201Y-105640159D02*
G01*
X137820556Y-105661314D01*
X138020926Y-105744310D01*
X138201250Y-105864798D01*
X138354611Y-106018159D01*
X138475099Y-106198483D01*
X138475099Y-106198484D01*
X138558095Y-106398853D01*
X138560292Y-106409897D01*
X138595878Y-106588797D01*
X138600406Y-106611564D01*
X138600406Y-106828442D01*
X138558095Y-107041153D01*
X138526005Y-107118625D01*
X138475099Y-107241523D01*
X138354611Y-107421847D01*
X138201250Y-107575208D01*
X138020926Y-107695696D01*
X137820556Y-107778692D01*
X137714201Y-107799847D01*
X137607846Y-107821003D01*
X137390966Y-107821003D01*
X137284611Y-107799847D01*
X137178256Y-107778692D01*
X137078072Y-107737194D01*
X136977886Y-107695696D01*
X136797562Y-107575208D01*
X136644201Y-107421847D01*
X136523713Y-107241523D01*
X136472807Y-107118625D01*
X136440717Y-107041153D01*
X136398406Y-106828442D01*
X136398406Y-106611564D01*
X136402935Y-106588797D01*
X136438520Y-106409897D01*
X136440717Y-106398853D01*
X136523713Y-106198484D01*
X136523713Y-106198483D01*
X136644201Y-106018159D01*
X136797562Y-105864798D01*
X136977886Y-105744310D01*
X137078072Y-105702812D01*
X137178256Y-105661314D01*
X137284612Y-105640158D01*
X137390966Y-105619003D01*
X137607846Y-105619003D01*
X137714201Y-105640159D01*
G37*
G36*
X112030104Y-105789585D02*
G01*
X112198626Y-105859389D01*
X112350291Y-105960728D01*
X112479272Y-106089709D01*
X112580611Y-106241374D01*
X112650415Y-106409896D01*
X112686000Y-106588797D01*
X112686000Y-106771203D01*
X112650415Y-106950104D01*
X112580611Y-107118626D01*
X112479272Y-107270291D01*
X112350291Y-107399272D01*
X112198626Y-107500611D01*
X112030104Y-107570415D01*
X111851203Y-107606000D01*
X111668797Y-107606000D01*
X111489896Y-107570415D01*
X111321374Y-107500611D01*
X111169709Y-107399272D01*
X111040728Y-107270291D01*
X110939389Y-107118626D01*
X110869585Y-106950104D01*
X110834000Y-106771203D01*
X110834000Y-106588797D01*
X110869585Y-106409896D01*
X110939389Y-106241374D01*
X111040728Y-106089709D01*
X111169709Y-105960728D01*
X111321374Y-105859389D01*
X111489896Y-105789585D01*
X111668797Y-105754000D01*
X111851203Y-105754000D01*
X112030104Y-105789585D01*
G37*
G36*
X102221512Y-105783927D02*
G01*
X102370812Y-105813624D01*
X102534784Y-105881544D01*
X102682354Y-105980147D01*
X102807853Y-106105646D01*
X102906456Y-106253216D01*
X102974376Y-106417188D01*
X103009000Y-106591259D01*
X103009000Y-106768741D01*
X102974376Y-106942812D01*
X102906456Y-107106784D01*
X102807853Y-107254354D01*
X102682354Y-107379853D01*
X102534784Y-107478456D01*
X102370812Y-107546376D01*
X102225875Y-107575205D01*
X102196742Y-107581000D01*
X102019258Y-107581000D01*
X101990125Y-107575205D01*
X101845188Y-107546376D01*
X101681216Y-107478456D01*
X101533646Y-107379853D01*
X101408147Y-107254354D01*
X101309544Y-107106784D01*
X101241624Y-106942812D01*
X101207000Y-106768741D01*
X101207000Y-106591259D01*
X101241624Y-106417188D01*
X101309544Y-106253216D01*
X101408147Y-106105646D01*
X101533646Y-105980147D01*
X101681216Y-105881544D01*
X101845188Y-105813624D01*
X101994488Y-105783927D01*
X102019258Y-105779000D01*
X102196742Y-105779000D01*
X102221512Y-105783927D01*
G37*
G36*
X122188000Y-107462000D02*
G01*
X120486000Y-107462000D01*
X120486000Y-106660000D01*
X122188000Y-106660000D01*
X122188000Y-107462000D01*
G37*
G36*
X117258000Y-107462000D02*
G01*
X115556000Y-107462000D01*
X115556000Y-106660000D01*
X117258000Y-106660000D01*
X117258000Y-107462000D01*
G37*
G36*
X134991968Y-105933565D02*
G01*
X135030638Y-105945296D01*
X135066277Y-105964346D01*
X135097517Y-105989983D01*
X135123154Y-106021223D01*
X135142204Y-106056862D01*
X135153935Y-106095532D01*
X135158500Y-106141888D01*
X135158500Y-107218112D01*
X135153935Y-107264468D01*
X135142204Y-107303138D01*
X135123154Y-107338777D01*
X135097517Y-107370017D01*
X135066277Y-107395654D01*
X135030638Y-107414704D01*
X134991968Y-107426435D01*
X134945612Y-107431000D01*
X134294388Y-107431000D01*
X134248032Y-107426435D01*
X134209362Y-107414704D01*
X134173723Y-107395654D01*
X134142483Y-107370017D01*
X134116846Y-107338777D01*
X134097796Y-107303138D01*
X134086065Y-107264468D01*
X134081500Y-107218112D01*
X134081500Y-106141888D01*
X134086065Y-106095532D01*
X134097796Y-106056862D01*
X134116846Y-106021223D01*
X134142483Y-105989983D01*
X134173723Y-105964346D01*
X134209362Y-105945296D01*
X134248032Y-105933565D01*
X134294388Y-105929000D01*
X134945612Y-105929000D01*
X134991968Y-105933565D01*
G37*
G36*
X133116968Y-105933565D02*
G01*
X133155638Y-105945296D01*
X133191277Y-105964346D01*
X133222517Y-105989983D01*
X133248154Y-106021223D01*
X133267204Y-106056862D01*
X133278935Y-106095532D01*
X133283500Y-106141888D01*
X133283500Y-107218112D01*
X133278935Y-107264468D01*
X133267204Y-107303138D01*
X133248154Y-107338777D01*
X133222517Y-107370017D01*
X133191277Y-107395654D01*
X133155638Y-107414704D01*
X133116968Y-107426435D01*
X133070612Y-107431000D01*
X132419388Y-107431000D01*
X132373032Y-107426435D01*
X132334362Y-107414704D01*
X132298723Y-107395654D01*
X132267483Y-107370017D01*
X132241846Y-107338777D01*
X132222796Y-107303138D01*
X132211065Y-107264468D01*
X132206500Y-107218112D01*
X132206500Y-106141888D01*
X132211065Y-106095532D01*
X132222796Y-106056862D01*
X132241846Y-106021223D01*
X132267483Y-105989983D01*
X132298723Y-105964346D01*
X132334362Y-105945296D01*
X132373032Y-105933565D01*
X132419388Y-105929000D01*
X133070612Y-105929000D01*
X133116968Y-105933565D01*
G37*
G36*
X117258000Y-106192000D02*
G01*
X115556000Y-106192000D01*
X115556000Y-105390000D01*
X117258000Y-105390000D01*
X117258000Y-106192000D01*
G37*
G36*
X122188000Y-106192000D02*
G01*
X120486000Y-106192000D01*
X120486000Y-105390000D01*
X122188000Y-105390000D01*
X122188000Y-106192000D01*
G37*
G36*
X137714200Y-103100158D02*
G01*
X137820556Y-103121314D01*
X138020926Y-103204310D01*
X138201250Y-103324798D01*
X138354611Y-103478159D01*
X138475099Y-103658483D01*
X138475099Y-103658484D01*
X138558095Y-103858853D01*
X138560292Y-103869897D01*
X138600406Y-104071563D01*
X138600406Y-104288443D01*
X138558095Y-104501152D01*
X138475099Y-104701523D01*
X138354611Y-104881847D01*
X138201250Y-105035208D01*
X138020926Y-105155696D01*
X137820556Y-105238692D01*
X137714200Y-105259848D01*
X137607846Y-105281003D01*
X137390966Y-105281003D01*
X137284612Y-105259848D01*
X137178256Y-105238692D01*
X136977886Y-105155696D01*
X136797562Y-105035208D01*
X136644201Y-104881847D01*
X136523713Y-104701523D01*
X136440717Y-104501152D01*
X136398406Y-104288443D01*
X136398406Y-104071563D01*
X136438520Y-103869897D01*
X136440717Y-103858853D01*
X136523713Y-103658484D01*
X136523713Y-103658483D01*
X136644201Y-103478159D01*
X136797562Y-103324798D01*
X136977886Y-103204310D01*
X137078072Y-103162812D01*
X137178256Y-103121314D01*
X137284611Y-103100159D01*
X137390966Y-103079003D01*
X137607846Y-103079003D01*
X137714200Y-103100158D01*
G37*
G36*
X107030104Y-103249585D02*
G01*
X107198626Y-103319389D01*
X107350291Y-103420728D01*
X107479272Y-103549709D01*
X107580611Y-103701374D01*
X107650415Y-103869896D01*
X107686000Y-104048797D01*
X107686000Y-104231203D01*
X107650415Y-104410104D01*
X107580611Y-104578626D01*
X107479272Y-104730291D01*
X107350291Y-104859272D01*
X107198626Y-104960611D01*
X107030104Y-105030415D01*
X106851203Y-105066000D01*
X106668797Y-105066000D01*
X106489896Y-105030415D01*
X106321374Y-104960611D01*
X106169709Y-104859272D01*
X106040728Y-104730291D01*
X105939389Y-104578626D01*
X105869585Y-104410104D01*
X105834000Y-104231203D01*
X105834000Y-104048797D01*
X105869585Y-103869896D01*
X105939389Y-103701374D01*
X106040728Y-103549709D01*
X106169709Y-103420728D01*
X106321374Y-103319389D01*
X106489896Y-103249585D01*
X106668797Y-103214000D01*
X106851203Y-103214000D01*
X107030104Y-103249585D01*
G37*
G36*
X103009000Y-105041000D02*
G01*
X101207000Y-105041000D01*
X101207000Y-103239000D01*
X103009000Y-103239000D01*
X103009000Y-105041000D01*
G37*
G36*
X122188000Y-104922000D02*
G01*
X120486000Y-104922000D01*
X120486000Y-104120000D01*
X122188000Y-104120000D01*
X122188000Y-104922000D01*
G37*
G36*
X117258000Y-104922000D02*
G01*
X115556000Y-104922000D01*
X115556000Y-104120000D01*
X117258000Y-104120000D01*
X117258000Y-104922000D01*
G37*
G36*
X131786968Y-103393565D02*
G01*
X131825638Y-103405296D01*
X131861277Y-103424346D01*
X131892517Y-103449983D01*
X131918154Y-103481223D01*
X131937204Y-103516862D01*
X131948935Y-103555532D01*
X131953500Y-103601888D01*
X131953500Y-104678112D01*
X131948935Y-104724468D01*
X131937204Y-104763138D01*
X131918154Y-104798777D01*
X131892517Y-104830017D01*
X131861277Y-104855654D01*
X131825638Y-104874704D01*
X131786968Y-104886435D01*
X131740612Y-104891000D01*
X131089388Y-104891000D01*
X131043032Y-104886435D01*
X131004362Y-104874704D01*
X130968723Y-104855654D01*
X130937483Y-104830017D01*
X130911846Y-104798777D01*
X130892796Y-104763138D01*
X130881065Y-104724468D01*
X130876500Y-104678112D01*
X130876500Y-103601888D01*
X130881065Y-103555532D01*
X130892796Y-103516862D01*
X130911846Y-103481223D01*
X130937483Y-103449983D01*
X130968723Y-103424346D01*
X131004362Y-103405296D01*
X131043032Y-103393565D01*
X131089388Y-103389000D01*
X131740612Y-103389000D01*
X131786968Y-103393565D01*
G37*
G36*
X129911968Y-103393565D02*
G01*
X129950638Y-103405296D01*
X129986277Y-103424346D01*
X130017517Y-103449983D01*
X130043154Y-103481223D01*
X130062204Y-103516862D01*
X130073935Y-103555532D01*
X130078500Y-103601888D01*
X130078500Y-104678112D01*
X130073935Y-104724468D01*
X130062204Y-104763138D01*
X130043154Y-104798777D01*
X130017517Y-104830017D01*
X129986277Y-104855654D01*
X129950638Y-104874704D01*
X129911968Y-104886435D01*
X129865612Y-104891000D01*
X129214388Y-104891000D01*
X129168032Y-104886435D01*
X129129362Y-104874704D01*
X129093723Y-104855654D01*
X129062483Y-104830017D01*
X129036846Y-104798777D01*
X129017796Y-104763138D01*
X129006065Y-104724468D01*
X129001500Y-104678112D01*
X129001500Y-103601888D01*
X129006065Y-103555532D01*
X129017796Y-103516862D01*
X129036846Y-103481223D01*
X129062483Y-103449983D01*
X129093723Y-103424346D01*
X129129362Y-103405296D01*
X129168032Y-103393565D01*
X129214388Y-103389000D01*
X129865612Y-103389000D01*
X129911968Y-103393565D01*
G37*
G36*
X133730224Y-101248731D02*
G01*
X133768894Y-101260462D01*
X133804533Y-101279512D01*
X133835773Y-101305149D01*
X133861410Y-101336389D01*
X133880460Y-101372028D01*
X133892191Y-101410698D01*
X133896756Y-101457054D01*
X133896756Y-102533278D01*
X133892191Y-102579634D01*
X133880460Y-102618304D01*
X133861410Y-102653943D01*
X133835773Y-102685183D01*
X133804533Y-102710820D01*
X133768894Y-102729870D01*
X133730224Y-102741601D01*
X133683868Y-102746166D01*
X133032644Y-102746166D01*
X132986288Y-102741601D01*
X132947618Y-102729870D01*
X132911979Y-102710820D01*
X132880739Y-102685183D01*
X132855102Y-102653943D01*
X132836052Y-102618304D01*
X132824321Y-102579634D01*
X132819756Y-102533278D01*
X132819756Y-101457054D01*
X132824321Y-101410698D01*
X132836052Y-101372028D01*
X132855102Y-101336389D01*
X132880739Y-101305149D01*
X132911979Y-101279512D01*
X132947618Y-101260462D01*
X132986288Y-101248731D01*
X133032644Y-101244166D01*
X133683868Y-101244166D01*
X133730224Y-101248731D01*
G37*
G36*
X131855224Y-101248731D02*
G01*
X131893894Y-101260462D01*
X131929533Y-101279512D01*
X131960773Y-101305149D01*
X131986410Y-101336389D01*
X132005460Y-101372028D01*
X132017191Y-101410698D01*
X132021756Y-101457054D01*
X132021756Y-102533278D01*
X132017191Y-102579634D01*
X132005460Y-102618304D01*
X131986410Y-102653943D01*
X131960773Y-102685183D01*
X131929533Y-102710820D01*
X131893894Y-102729870D01*
X131855224Y-102741601D01*
X131808868Y-102746166D01*
X131157644Y-102746166D01*
X131111288Y-102741601D01*
X131072618Y-102729870D01*
X131036979Y-102710820D01*
X131005739Y-102685183D01*
X130980102Y-102653943D01*
X130961052Y-102618304D01*
X130949321Y-102579634D01*
X130944756Y-102533278D01*
X130944756Y-101457054D01*
X130949321Y-101410698D01*
X130961052Y-101372028D01*
X130980102Y-101336389D01*
X131005739Y-101305149D01*
X131036979Y-101279512D01*
X131072618Y-101260462D01*
X131111288Y-101248731D01*
X131157644Y-101244166D01*
X131808868Y-101244166D01*
X131855224Y-101248731D01*
G37*
G36*
X137714200Y-100560158D02*
G01*
X137820556Y-100581314D01*
X137920740Y-100622812D01*
X138020926Y-100664310D01*
X138201250Y-100784798D01*
X138354611Y-100938159D01*
X138475099Y-101118483D01*
X138475099Y-101118484D01*
X138558095Y-101318853D01*
X138576364Y-101410698D01*
X138600406Y-101531563D01*
X138600406Y-101748443D01*
X138558095Y-101961152D01*
X138475099Y-102161523D01*
X138354611Y-102341847D01*
X138201250Y-102495208D01*
X138020926Y-102615696D01*
X137994835Y-102626503D01*
X137820556Y-102698692D01*
X137714201Y-102719847D01*
X137607846Y-102741003D01*
X137390966Y-102741003D01*
X137284611Y-102719847D01*
X137178256Y-102698692D01*
X137003977Y-102626503D01*
X136977886Y-102615696D01*
X136797562Y-102495208D01*
X136644201Y-102341847D01*
X136523713Y-102161523D01*
X136440717Y-101961152D01*
X136398406Y-101748443D01*
X136398406Y-101531563D01*
X136422448Y-101410698D01*
X136440717Y-101318853D01*
X136523713Y-101118484D01*
X136523713Y-101118483D01*
X136644201Y-100938159D01*
X136797562Y-100784798D01*
X136977886Y-100664310D01*
X137178256Y-100581314D01*
X137284612Y-100560158D01*
X137390966Y-100539003D01*
X137607846Y-100539003D01*
X137714200Y-100560158D01*
G37*
G36*
X112030104Y-100789585D02*
G01*
X112198626Y-100859389D01*
X112350291Y-100960728D01*
X112479272Y-101089709D01*
X112580611Y-101241374D01*
X112650415Y-101409896D01*
X112686000Y-101588797D01*
X112686000Y-101771203D01*
X112650415Y-101950104D01*
X112580611Y-102118626D01*
X112479272Y-102270291D01*
X112350291Y-102399272D01*
X112198626Y-102500611D01*
X112030104Y-102570415D01*
X111851203Y-102606000D01*
X111668797Y-102606000D01*
X111489896Y-102570415D01*
X111321374Y-102500611D01*
X111169709Y-102399272D01*
X111040728Y-102270291D01*
X110939389Y-102118626D01*
X110869585Y-101950104D01*
X110834000Y-101771203D01*
X110834000Y-101588797D01*
X110869585Y-101409896D01*
X110939389Y-101241374D01*
X111040728Y-101089709D01*
X111169709Y-100960728D01*
X111321374Y-100859389D01*
X111489896Y-100789585D01*
X111668797Y-100754000D01*
X111851203Y-100754000D01*
X112030104Y-100789585D01*
G37*
G36*
X128055468Y-100860445D02*
G01*
X128094138Y-100872176D01*
X128129777Y-100891226D01*
X128161017Y-100916863D01*
X128186654Y-100948103D01*
X128205704Y-100983742D01*
X128217435Y-101022412D01*
X128222000Y-101068768D01*
X128222000Y-102144992D01*
X128217435Y-102191348D01*
X128205704Y-102230018D01*
X128186654Y-102265657D01*
X128161017Y-102296897D01*
X128129777Y-102322534D01*
X128094138Y-102341584D01*
X128055468Y-102353315D01*
X128009112Y-102357880D01*
X127357888Y-102357880D01*
X127311532Y-102353315D01*
X127272862Y-102341584D01*
X127237223Y-102322534D01*
X127205983Y-102296897D01*
X127180346Y-102265657D01*
X127161296Y-102230018D01*
X127149565Y-102191348D01*
X127145000Y-102144992D01*
X127145000Y-101068768D01*
X127149565Y-101022412D01*
X127161296Y-100983742D01*
X127180346Y-100948103D01*
X127205983Y-100916863D01*
X127237223Y-100891226D01*
X127272862Y-100872176D01*
X127311532Y-100860445D01*
X127357888Y-100855880D01*
X128009112Y-100855880D01*
X128055468Y-100860445D01*
G37*
G36*
X126180468Y-100860445D02*
G01*
X126219138Y-100872176D01*
X126254777Y-100891226D01*
X126286017Y-100916863D01*
X126311654Y-100948103D01*
X126330704Y-100983742D01*
X126342435Y-101022412D01*
X126347000Y-101068768D01*
X126347000Y-102144992D01*
X126342435Y-102191348D01*
X126330704Y-102230018D01*
X126311654Y-102265657D01*
X126286017Y-102296897D01*
X126254777Y-102322534D01*
X126219138Y-102341584D01*
X126180468Y-102353315D01*
X126134112Y-102357880D01*
X125482888Y-102357880D01*
X125436532Y-102353315D01*
X125397862Y-102341584D01*
X125362223Y-102322534D01*
X125330983Y-102296897D01*
X125305346Y-102265657D01*
X125286296Y-102230018D01*
X125274565Y-102191348D01*
X125270000Y-102144992D01*
X125270000Y-101068768D01*
X125274565Y-101022412D01*
X125286296Y-100983742D01*
X125305346Y-100948103D01*
X125330983Y-100916863D01*
X125362223Y-100891226D01*
X125397862Y-100872176D01*
X125436532Y-100860445D01*
X125482888Y-100855880D01*
X126134112Y-100855880D01*
X126180468Y-100860445D01*
G37*
G36*
X122467468Y-100853565D02*
G01*
X122506138Y-100865296D01*
X122541777Y-100884346D01*
X122573017Y-100909983D01*
X122598654Y-100941223D01*
X122617704Y-100976862D01*
X122629435Y-101015532D01*
X122634000Y-101061888D01*
X122634000Y-102138112D01*
X122629435Y-102184468D01*
X122617704Y-102223138D01*
X122598654Y-102258777D01*
X122573017Y-102290017D01*
X122541777Y-102315654D01*
X122506138Y-102334704D01*
X122467468Y-102346435D01*
X122421112Y-102351000D01*
X121769888Y-102351000D01*
X121723532Y-102346435D01*
X121684862Y-102334704D01*
X121649223Y-102315654D01*
X121617983Y-102290017D01*
X121592346Y-102258777D01*
X121573296Y-102223138D01*
X121561565Y-102184468D01*
X121557000Y-102138112D01*
X121557000Y-101061888D01*
X121561565Y-101015532D01*
X121573296Y-100976862D01*
X121592346Y-100941223D01*
X121617983Y-100909983D01*
X121649223Y-100884346D01*
X121684862Y-100865296D01*
X121723532Y-100853565D01*
X121769888Y-100849000D01*
X122421112Y-100849000D01*
X122467468Y-100853565D01*
G37*
G36*
X120592468Y-100853565D02*
G01*
X120631138Y-100865296D01*
X120666777Y-100884346D01*
X120698017Y-100909983D01*
X120723654Y-100941223D01*
X120742704Y-100976862D01*
X120754435Y-101015532D01*
X120759000Y-101061888D01*
X120759000Y-102138112D01*
X120754435Y-102184468D01*
X120742704Y-102223138D01*
X120723654Y-102258777D01*
X120698017Y-102290017D01*
X120666777Y-102315654D01*
X120631138Y-102334704D01*
X120592468Y-102346435D01*
X120546112Y-102351000D01*
X119894888Y-102351000D01*
X119848532Y-102346435D01*
X119809862Y-102334704D01*
X119774223Y-102315654D01*
X119742983Y-102290017D01*
X119717346Y-102258777D01*
X119698296Y-102223138D01*
X119686565Y-102184468D01*
X119682000Y-102138112D01*
X119682000Y-101061888D01*
X119686565Y-101015532D01*
X119698296Y-100976862D01*
X119717346Y-100941223D01*
X119742983Y-100909983D01*
X119774223Y-100884346D01*
X119809862Y-100865296D01*
X119848532Y-100853565D01*
X119894888Y-100849000D01*
X120546112Y-100849000D01*
X120592468Y-100853565D01*
G37*
G36*
X116879468Y-100853565D02*
G01*
X116918138Y-100865296D01*
X116953777Y-100884346D01*
X116985017Y-100909983D01*
X117010654Y-100941223D01*
X117029704Y-100976862D01*
X117041435Y-101015532D01*
X117046000Y-101061888D01*
X117046000Y-102138112D01*
X117041435Y-102184468D01*
X117029704Y-102223138D01*
X117010654Y-102258777D01*
X116985017Y-102290017D01*
X116953777Y-102315654D01*
X116918138Y-102334704D01*
X116879468Y-102346435D01*
X116833112Y-102351000D01*
X116181888Y-102351000D01*
X116135532Y-102346435D01*
X116096862Y-102334704D01*
X116061223Y-102315654D01*
X116029983Y-102290017D01*
X116004346Y-102258777D01*
X115985296Y-102223138D01*
X115973565Y-102184468D01*
X115969000Y-102138112D01*
X115969000Y-101061888D01*
X115973565Y-101015532D01*
X115985296Y-100976862D01*
X116004346Y-100941223D01*
X116029983Y-100909983D01*
X116061223Y-100884346D01*
X116096862Y-100865296D01*
X116135532Y-100853565D01*
X116181888Y-100849000D01*
X116833112Y-100849000D01*
X116879468Y-100853565D01*
G37*
G36*
X115004468Y-100853565D02*
G01*
X115043138Y-100865296D01*
X115078777Y-100884346D01*
X115110017Y-100909983D01*
X115135654Y-100941223D01*
X115154704Y-100976862D01*
X115166435Y-101015532D01*
X115171000Y-101061888D01*
X115171000Y-102138112D01*
X115166435Y-102184468D01*
X115154704Y-102223138D01*
X115135654Y-102258777D01*
X115110017Y-102290017D01*
X115078777Y-102315654D01*
X115043138Y-102334704D01*
X115004468Y-102346435D01*
X114958112Y-102351000D01*
X114306888Y-102351000D01*
X114260532Y-102346435D01*
X114221862Y-102334704D01*
X114186223Y-102315654D01*
X114154983Y-102290017D01*
X114129346Y-102258777D01*
X114110296Y-102223138D01*
X114098565Y-102184468D01*
X114094000Y-102138112D01*
X114094000Y-101061888D01*
X114098565Y-101015532D01*
X114110296Y-100976862D01*
X114129346Y-100941223D01*
X114154983Y-100909983D01*
X114186223Y-100884346D01*
X114221862Y-100865296D01*
X114260532Y-100853565D01*
X114306888Y-100849000D01*
X114958112Y-100849000D01*
X115004468Y-100853565D01*
G37*
M02*
