M48
; DRILL file {KiCad 5.1.5-52549c5~86~ubuntu16.04.1} date Tue Nov 24 12:51:24 2020
; FORMAT={-:-/ absolute / inch / decimal}
; #@! TF.CreationDate,2020-11-24T12:51:24+05:30
; #@! TF.GenerationSoftware,Kicad,Pcbnew,5.1.5-52549c5~86~ubuntu16.04.1
FMAT,2
INCH
T1C0.0157
T2C0.0276
T3C0.0354
T4C0.0394
T5C0.0433
T6C0.1260
%
G90
G05
T1
X4.12Y-4.15
X4.12Y-4.4
X4.33Y-4.39
X4.47Y-4.08
X4.53Y-4.34
X4.66Y-3.97
X4.79Y-4.45
X4.8Y-4.33
X4.9Y-4.39
X4.98Y-4.15
X5.1Y-4.16
X5.12Y-4.0
T2
X4.2031Y-4.1
X4.4Y-4.0031
X4.4Y-4.2
X4.2031Y-4.4
X4.4Y-4.3031
X4.4Y-4.5
T3
X5.24Y-4.35
X5.24Y-4.45
T4
X4.02Y-4.1
X4.02Y-4.2
X4.02Y-4.3
X4.02Y-4.4
X4.5589Y-4.47
X4.6589Y-4.47
T5
X5.4134Y-4.0016
X5.4134Y-4.1016
X5.4134Y-4.2016
T6
X4.9409Y-4.252
T0
M30
