%TF.GenerationSoftware,KiCad,Pcbnew,5.1.5-52549c5~86~ubuntu16.04.1*%
%TF.CreationDate,2020-11-12T16:56:08+05:30*%
%TF.ProjectId,Potentiometer Module V1.0,506f7465-6e74-4696-9f6d-65746572204d,V1.0*%
%TF.SameCoordinates,Original*%
%TF.FileFunction,Copper,L2,Bot*%
%TF.FilePolarity,Positive*%
%FSLAX46Y46*%
G04 Gerber Fmt 4.6, Leading zero omitted, Abs format (unit mm)*
G04 Created by KiCad (PCBNEW 5.1.5-52549c5~86~ubuntu16.04.1) date 2020-11-12 16:56:08*
%MOMM*%
%LPD*%
G04 APERTURE LIST*
%TA.AperFunction,EtchedComponent*%
%ADD10C,0.002540*%
%TD*%
%TA.AperFunction,ComponentPad*%
%ADD11O,3.400000X3.400000*%
%TD*%
%TA.AperFunction,ComponentPad*%
%ADD12O,1.700000X1.700000*%
%TD*%
%TA.AperFunction,ComponentPad*%
%ADD13R,1.700000X1.700000*%
%TD*%
%TA.AperFunction,Conductor*%
%ADD14C,0.609600*%
%TD*%
G04 APERTURE END LIST*
D10*
%TO.C,G\002A\002A\002A*%
G36*
X132567680Y-86563200D02*
G01*
X132585460Y-86555580D01*
X132618480Y-86532720D01*
X132669280Y-86499700D01*
X132727700Y-86461600D01*
X132788660Y-86420960D01*
X132836920Y-86387940D01*
X132872480Y-86365080D01*
X132885180Y-86357460D01*
X132892800Y-86360000D01*
X132920740Y-86375240D01*
X132961380Y-86395560D01*
X132986780Y-86408260D01*
X133024880Y-86423500D01*
X133042660Y-86428580D01*
X133045200Y-86423500D01*
X133060440Y-86393020D01*
X133080760Y-86344760D01*
X133108700Y-86278720D01*
X133141720Y-86202520D01*
X133177280Y-86121240D01*
X133210300Y-86037420D01*
X133243320Y-85958680D01*
X133273800Y-85885020D01*
X133296660Y-85826600D01*
X133311900Y-85785960D01*
X133319520Y-85768180D01*
X133316980Y-85765640D01*
X133299200Y-85747860D01*
X133266180Y-85722460D01*
X133195060Y-85664040D01*
X133123940Y-85577680D01*
X133080760Y-85478620D01*
X133068060Y-85366860D01*
X133078220Y-85265260D01*
X133118860Y-85168740D01*
X133187440Y-85079840D01*
X133271260Y-85013800D01*
X133367780Y-84973160D01*
X133477000Y-84960460D01*
X133581140Y-84970620D01*
X133680200Y-85011260D01*
X133769100Y-85077300D01*
X133807200Y-85120480D01*
X133858000Y-85211920D01*
X133888480Y-85305900D01*
X133891020Y-85328760D01*
X133885940Y-85435440D01*
X133855460Y-85537040D01*
X133799580Y-85625940D01*
X133723380Y-85699600D01*
X133713220Y-85707220D01*
X133677660Y-85735160D01*
X133652260Y-85752940D01*
X133634480Y-85768180D01*
X133769100Y-86090760D01*
X133789420Y-86141560D01*
X133827520Y-86230460D01*
X133858000Y-86306660D01*
X133885940Y-86367620D01*
X133903720Y-86408260D01*
X133911340Y-86423500D01*
X133924040Y-86426040D01*
X133946900Y-86418420D01*
X133992620Y-86395560D01*
X134023100Y-86380320D01*
X134056120Y-86365080D01*
X134071360Y-86357460D01*
X134086600Y-86365080D01*
X134119620Y-86385400D01*
X134165340Y-86418420D01*
X134223760Y-86456520D01*
X134279640Y-86494620D01*
X134330440Y-86527640D01*
X134366000Y-86553040D01*
X134383780Y-86560660D01*
X134386320Y-86560660D01*
X134404100Y-86553040D01*
X134432040Y-86527640D01*
X134475220Y-86487000D01*
X134538720Y-86426040D01*
X134548880Y-86415880D01*
X134599680Y-86365080D01*
X134640320Y-86319360D01*
X134668260Y-86288880D01*
X134678420Y-86276180D01*
X134668260Y-86258400D01*
X134645400Y-86220300D01*
X134612380Y-86169500D01*
X134571740Y-86108540D01*
X134465060Y-85953600D01*
X134523480Y-85808820D01*
X134541260Y-85763100D01*
X134564120Y-85707220D01*
X134581900Y-85669120D01*
X134589520Y-85651340D01*
X134607300Y-85646260D01*
X134645400Y-85636100D01*
X134703820Y-85625940D01*
X134774940Y-85613240D01*
X134840980Y-85600540D01*
X134899400Y-85587840D01*
X134942580Y-85580220D01*
X134962900Y-85577680D01*
X134967980Y-85572600D01*
X134970520Y-85564980D01*
X134973060Y-85544660D01*
X134975600Y-85506560D01*
X134975600Y-85450680D01*
X134975600Y-85366860D01*
X134975600Y-85359240D01*
X134975600Y-85280500D01*
X134973060Y-85217000D01*
X134970520Y-85178900D01*
X134967980Y-85161120D01*
X134950200Y-85156040D01*
X134907020Y-85148420D01*
X134848600Y-85135720D01*
X134777480Y-85123020D01*
X134772400Y-85123020D01*
X134701280Y-85107780D01*
X134642860Y-85095080D01*
X134599680Y-85087460D01*
X134581900Y-85079840D01*
X134579360Y-85074760D01*
X134564120Y-85046820D01*
X134543800Y-85003640D01*
X134520940Y-84950300D01*
X134498080Y-84894420D01*
X134477760Y-84843620D01*
X134465060Y-84808060D01*
X134459980Y-84790280D01*
X134470140Y-84772500D01*
X134495540Y-84736940D01*
X134531100Y-84686140D01*
X134571740Y-84625180D01*
X134574280Y-84620100D01*
X134614920Y-84559140D01*
X134647940Y-84508340D01*
X134670800Y-84472780D01*
X134678420Y-84457540D01*
X134678420Y-84455000D01*
X134665720Y-84437220D01*
X134635240Y-84404200D01*
X134589520Y-84358480D01*
X134538720Y-84305140D01*
X134520940Y-84289900D01*
X134462520Y-84231480D01*
X134421880Y-84195920D01*
X134396480Y-84175600D01*
X134386320Y-84170520D01*
X134383780Y-84170520D01*
X134366000Y-84180680D01*
X134327900Y-84206080D01*
X134277100Y-84241640D01*
X134216140Y-84282280D01*
X134213600Y-84284820D01*
X134152640Y-84325460D01*
X134101840Y-84361020D01*
X134066280Y-84383880D01*
X134051040Y-84391500D01*
X134048500Y-84391500D01*
X134025640Y-84386420D01*
X133982460Y-84371180D01*
X133929120Y-84350860D01*
X133873240Y-84328000D01*
X133822440Y-84307680D01*
X133786880Y-84289900D01*
X133769100Y-84279740D01*
X133766560Y-84279740D01*
X133761480Y-84256880D01*
X133751320Y-84211160D01*
X133738620Y-84150200D01*
X133723380Y-84076540D01*
X133720840Y-84066380D01*
X133708140Y-83992720D01*
X133697980Y-83934300D01*
X133687820Y-83893660D01*
X133685280Y-83875880D01*
X133675120Y-83875880D01*
X133639560Y-83873340D01*
X133586220Y-83870800D01*
X133520180Y-83870800D01*
X133454140Y-83870800D01*
X133388100Y-83870800D01*
X133332220Y-83873340D01*
X133291580Y-83875880D01*
X133273800Y-83880960D01*
X133268720Y-83903820D01*
X133258560Y-83947000D01*
X133245860Y-84010500D01*
X133230620Y-84084160D01*
X133228080Y-84096860D01*
X133215380Y-84167980D01*
X133202680Y-84226400D01*
X133195060Y-84267040D01*
X133189980Y-84282280D01*
X133184900Y-84284820D01*
X133154420Y-84300060D01*
X133106160Y-84317840D01*
X133047740Y-84343240D01*
X132910580Y-84399120D01*
X132742940Y-84282280D01*
X132727700Y-84272120D01*
X132666740Y-84231480D01*
X132615940Y-84198460D01*
X132580380Y-84175600D01*
X132567680Y-84167980D01*
X132565140Y-84167980D01*
X132549900Y-84183220D01*
X132516880Y-84213700D01*
X132471160Y-84259420D01*
X132417820Y-84310220D01*
X132377180Y-84350860D01*
X132331460Y-84396580D01*
X132303520Y-84429600D01*
X132285740Y-84449920D01*
X132280660Y-84462620D01*
X132283200Y-84470240D01*
X132293360Y-84488020D01*
X132318760Y-84523580D01*
X132351780Y-84576920D01*
X132392420Y-84635340D01*
X132427980Y-84686140D01*
X132463540Y-84742020D01*
X132486400Y-84782660D01*
X132496560Y-84800440D01*
X132494020Y-84810600D01*
X132481320Y-84843620D01*
X132461000Y-84891880D01*
X132435600Y-84952840D01*
X132377180Y-85084920D01*
X132290820Y-85102700D01*
X132237480Y-85112860D01*
X132163820Y-85125560D01*
X132092700Y-85140800D01*
X131980940Y-85161120D01*
X131978400Y-85564980D01*
X131996180Y-85572600D01*
X132011420Y-85577680D01*
X132052060Y-85587840D01*
X132110480Y-85598000D01*
X132179060Y-85610700D01*
X132240020Y-85623400D01*
X132298440Y-85633560D01*
X132341620Y-85641180D01*
X132359400Y-85646260D01*
X132364480Y-85651340D01*
X132379720Y-85681820D01*
X132400040Y-85727540D01*
X132422900Y-85780880D01*
X132448300Y-85839300D01*
X132468620Y-85890100D01*
X132483860Y-85930740D01*
X132488940Y-85951060D01*
X132481320Y-85966300D01*
X132458460Y-86001860D01*
X132425440Y-86052660D01*
X132384800Y-86111080D01*
X132344160Y-86169500D01*
X132311140Y-86220300D01*
X132285740Y-86255860D01*
X132278120Y-86273640D01*
X132283200Y-86283800D01*
X132306060Y-86311740D01*
X132349240Y-86357460D01*
X132415280Y-86423500D01*
X132427980Y-86433660D01*
X132478780Y-86484460D01*
X132524500Y-86525100D01*
X132554980Y-86553040D01*
X132567680Y-86563200D01*
G37*
X132567680Y-86563200D02*
X132585460Y-86555580D01*
X132618480Y-86532720D01*
X132669280Y-86499700D01*
X132727700Y-86461600D01*
X132788660Y-86420960D01*
X132836920Y-86387940D01*
X132872480Y-86365080D01*
X132885180Y-86357460D01*
X132892800Y-86360000D01*
X132920740Y-86375240D01*
X132961380Y-86395560D01*
X132986780Y-86408260D01*
X133024880Y-86423500D01*
X133042660Y-86428580D01*
X133045200Y-86423500D01*
X133060440Y-86393020D01*
X133080760Y-86344760D01*
X133108700Y-86278720D01*
X133141720Y-86202520D01*
X133177280Y-86121240D01*
X133210300Y-86037420D01*
X133243320Y-85958680D01*
X133273800Y-85885020D01*
X133296660Y-85826600D01*
X133311900Y-85785960D01*
X133319520Y-85768180D01*
X133316980Y-85765640D01*
X133299200Y-85747860D01*
X133266180Y-85722460D01*
X133195060Y-85664040D01*
X133123940Y-85577680D01*
X133080760Y-85478620D01*
X133068060Y-85366860D01*
X133078220Y-85265260D01*
X133118860Y-85168740D01*
X133187440Y-85079840D01*
X133271260Y-85013800D01*
X133367780Y-84973160D01*
X133477000Y-84960460D01*
X133581140Y-84970620D01*
X133680200Y-85011260D01*
X133769100Y-85077300D01*
X133807200Y-85120480D01*
X133858000Y-85211920D01*
X133888480Y-85305900D01*
X133891020Y-85328760D01*
X133885940Y-85435440D01*
X133855460Y-85537040D01*
X133799580Y-85625940D01*
X133723380Y-85699600D01*
X133713220Y-85707220D01*
X133677660Y-85735160D01*
X133652260Y-85752940D01*
X133634480Y-85768180D01*
X133769100Y-86090760D01*
X133789420Y-86141560D01*
X133827520Y-86230460D01*
X133858000Y-86306660D01*
X133885940Y-86367620D01*
X133903720Y-86408260D01*
X133911340Y-86423500D01*
X133924040Y-86426040D01*
X133946900Y-86418420D01*
X133992620Y-86395560D01*
X134023100Y-86380320D01*
X134056120Y-86365080D01*
X134071360Y-86357460D01*
X134086600Y-86365080D01*
X134119620Y-86385400D01*
X134165340Y-86418420D01*
X134223760Y-86456520D01*
X134279640Y-86494620D01*
X134330440Y-86527640D01*
X134366000Y-86553040D01*
X134383780Y-86560660D01*
X134386320Y-86560660D01*
X134404100Y-86553040D01*
X134432040Y-86527640D01*
X134475220Y-86487000D01*
X134538720Y-86426040D01*
X134548880Y-86415880D01*
X134599680Y-86365080D01*
X134640320Y-86319360D01*
X134668260Y-86288880D01*
X134678420Y-86276180D01*
X134668260Y-86258400D01*
X134645400Y-86220300D01*
X134612380Y-86169500D01*
X134571740Y-86108540D01*
X134465060Y-85953600D01*
X134523480Y-85808820D01*
X134541260Y-85763100D01*
X134564120Y-85707220D01*
X134581900Y-85669120D01*
X134589520Y-85651340D01*
X134607300Y-85646260D01*
X134645400Y-85636100D01*
X134703820Y-85625940D01*
X134774940Y-85613240D01*
X134840980Y-85600540D01*
X134899400Y-85587840D01*
X134942580Y-85580220D01*
X134962900Y-85577680D01*
X134967980Y-85572600D01*
X134970520Y-85564980D01*
X134973060Y-85544660D01*
X134975600Y-85506560D01*
X134975600Y-85450680D01*
X134975600Y-85366860D01*
X134975600Y-85359240D01*
X134975600Y-85280500D01*
X134973060Y-85217000D01*
X134970520Y-85178900D01*
X134967980Y-85161120D01*
X134950200Y-85156040D01*
X134907020Y-85148420D01*
X134848600Y-85135720D01*
X134777480Y-85123020D01*
X134772400Y-85123020D01*
X134701280Y-85107780D01*
X134642860Y-85095080D01*
X134599680Y-85087460D01*
X134581900Y-85079840D01*
X134579360Y-85074760D01*
X134564120Y-85046820D01*
X134543800Y-85003640D01*
X134520940Y-84950300D01*
X134498080Y-84894420D01*
X134477760Y-84843620D01*
X134465060Y-84808060D01*
X134459980Y-84790280D01*
X134470140Y-84772500D01*
X134495540Y-84736940D01*
X134531100Y-84686140D01*
X134571740Y-84625180D01*
X134574280Y-84620100D01*
X134614920Y-84559140D01*
X134647940Y-84508340D01*
X134670800Y-84472780D01*
X134678420Y-84457540D01*
X134678420Y-84455000D01*
X134665720Y-84437220D01*
X134635240Y-84404200D01*
X134589520Y-84358480D01*
X134538720Y-84305140D01*
X134520940Y-84289900D01*
X134462520Y-84231480D01*
X134421880Y-84195920D01*
X134396480Y-84175600D01*
X134386320Y-84170520D01*
X134383780Y-84170520D01*
X134366000Y-84180680D01*
X134327900Y-84206080D01*
X134277100Y-84241640D01*
X134216140Y-84282280D01*
X134213600Y-84284820D01*
X134152640Y-84325460D01*
X134101840Y-84361020D01*
X134066280Y-84383880D01*
X134051040Y-84391500D01*
X134048500Y-84391500D01*
X134025640Y-84386420D01*
X133982460Y-84371180D01*
X133929120Y-84350860D01*
X133873240Y-84328000D01*
X133822440Y-84307680D01*
X133786880Y-84289900D01*
X133769100Y-84279740D01*
X133766560Y-84279740D01*
X133761480Y-84256880D01*
X133751320Y-84211160D01*
X133738620Y-84150200D01*
X133723380Y-84076540D01*
X133720840Y-84066380D01*
X133708140Y-83992720D01*
X133697980Y-83934300D01*
X133687820Y-83893660D01*
X133685280Y-83875880D01*
X133675120Y-83875880D01*
X133639560Y-83873340D01*
X133586220Y-83870800D01*
X133520180Y-83870800D01*
X133454140Y-83870800D01*
X133388100Y-83870800D01*
X133332220Y-83873340D01*
X133291580Y-83875880D01*
X133273800Y-83880960D01*
X133268720Y-83903820D01*
X133258560Y-83947000D01*
X133245860Y-84010500D01*
X133230620Y-84084160D01*
X133228080Y-84096860D01*
X133215380Y-84167980D01*
X133202680Y-84226400D01*
X133195060Y-84267040D01*
X133189980Y-84282280D01*
X133184900Y-84284820D01*
X133154420Y-84300060D01*
X133106160Y-84317840D01*
X133047740Y-84343240D01*
X132910580Y-84399120D01*
X132742940Y-84282280D01*
X132727700Y-84272120D01*
X132666740Y-84231480D01*
X132615940Y-84198460D01*
X132580380Y-84175600D01*
X132567680Y-84167980D01*
X132565140Y-84167980D01*
X132549900Y-84183220D01*
X132516880Y-84213700D01*
X132471160Y-84259420D01*
X132417820Y-84310220D01*
X132377180Y-84350860D01*
X132331460Y-84396580D01*
X132303520Y-84429600D01*
X132285740Y-84449920D01*
X132280660Y-84462620D01*
X132283200Y-84470240D01*
X132293360Y-84488020D01*
X132318760Y-84523580D01*
X132351780Y-84576920D01*
X132392420Y-84635340D01*
X132427980Y-84686140D01*
X132463540Y-84742020D01*
X132486400Y-84782660D01*
X132496560Y-84800440D01*
X132494020Y-84810600D01*
X132481320Y-84843620D01*
X132461000Y-84891880D01*
X132435600Y-84952840D01*
X132377180Y-85084920D01*
X132290820Y-85102700D01*
X132237480Y-85112860D01*
X132163820Y-85125560D01*
X132092700Y-85140800D01*
X131980940Y-85161120D01*
X131978400Y-85564980D01*
X131996180Y-85572600D01*
X132011420Y-85577680D01*
X132052060Y-85587840D01*
X132110480Y-85598000D01*
X132179060Y-85610700D01*
X132240020Y-85623400D01*
X132298440Y-85633560D01*
X132341620Y-85641180D01*
X132359400Y-85646260D01*
X132364480Y-85651340D01*
X132379720Y-85681820D01*
X132400040Y-85727540D01*
X132422900Y-85780880D01*
X132448300Y-85839300D01*
X132468620Y-85890100D01*
X132483860Y-85930740D01*
X132488940Y-85951060D01*
X132481320Y-85966300D01*
X132458460Y-86001860D01*
X132425440Y-86052660D01*
X132384800Y-86111080D01*
X132344160Y-86169500D01*
X132311140Y-86220300D01*
X132285740Y-86255860D01*
X132278120Y-86273640D01*
X132283200Y-86283800D01*
X132306060Y-86311740D01*
X132349240Y-86357460D01*
X132415280Y-86423500D01*
X132427980Y-86433660D01*
X132478780Y-86484460D01*
X132524500Y-86525100D01*
X132554980Y-86553040D01*
X132567680Y-86563200D01*
%TD*%
D11*
%TO.P,RV1,1*%
%TO.N,GND*%
X148717000Y-97155000D03*
%TO.P,RV1,2*%
%TO.N,/OUT*%
X148717000Y-92155000D03*
%TO.P,RV1,3*%
%TO.N,/VCC*%
X148717000Y-87155000D03*
%TD*%
D12*
%TO.P,J1,3*%
%TO.N,GND*%
X130560404Y-94680000D03*
%TO.P,J1,2*%
%TO.N,/OUT*%
X130560404Y-92140000D03*
D13*
%TO.P,J1,1*%
%TO.N,/VCC*%
X130560404Y-89600000D03*
%TD*%
D14*
%TO.N,/VCC*%
X130560404Y-89600000D02*
X133412000Y-89600000D01*
X135857000Y-87155000D02*
X148717000Y-87155000D01*
X133412000Y-89600000D02*
X135857000Y-87155000D01*
%TO.N,GND*%
X130560404Y-94680000D02*
X132272000Y-94680000D01*
X134747000Y-97155000D02*
X148717000Y-97155000D01*
X132272000Y-94680000D02*
X134747000Y-97155000D01*
%TO.N,/OUT*%
X130560404Y-92140000D02*
X132907000Y-92140000D01*
X132907000Y-92140000D02*
X135382000Y-94615000D01*
X135382000Y-94615000D02*
X139192000Y-94615000D01*
X141652000Y-92155000D02*
X148717000Y-92155000D01*
X139192000Y-94615000D02*
X141652000Y-92155000D01*
%TD*%
M02*
