%TF.GenerationSoftware,KiCad,Pcbnew,5.1.5-52549c5~86~ubuntu16.04.1*%
%TF.CreationDate,2020-11-12T16:56:08+05:30*%
%TF.ProjectId,Potentiometer Module V1.0,506f7465-6e74-4696-9f6d-65746572204d,V1.0*%
%TF.SameCoordinates,Original*%
%TF.FileFunction,Legend,Top*%
%TF.FilePolarity,Positive*%
%FSLAX46Y46*%
G04 Gerber Fmt 4.6, Leading zero omitted, Abs format (unit mm)*
G04 Created by KiCad (PCBNEW 5.1.5-52549c5~86~ubuntu16.04.1) date 2020-11-12 16:56:08*
%MOMM*%
%LPD*%
G04 APERTURE LIST*
%ADD10C,0.120000*%
%ADD11C,0.150000*%
G04 APERTURE END LIST*
D10*
%TO.C,RV1*%
X141897000Y-83085000D02*
X152637000Y-83085000D01*
X141897000Y-101225000D02*
X152637000Y-101225000D01*
X141897000Y-83085000D02*
X141897000Y-101225000D01*
X152637000Y-83085000D02*
X152637000Y-101225000D01*
X152637000Y-88535000D02*
X157637000Y-88535000D01*
X152637000Y-95775000D02*
X157637000Y-95775000D01*
X152637000Y-88535000D02*
X152637000Y-95775000D01*
X157637000Y-88535000D02*
X157637000Y-95775000D01*
X157637000Y-89035000D02*
X167637000Y-89035000D01*
X157637000Y-95276000D02*
X167637000Y-95276000D01*
X157637000Y-89035000D02*
X157637000Y-95276000D01*
X167637000Y-89035000D02*
X167637000Y-95276000D01*
%TO.C,J1*%
X129230404Y-88270000D02*
X130560404Y-88270000D01*
X129230404Y-89600000D02*
X129230404Y-88270000D01*
X129230404Y-90870000D02*
X131890404Y-90870000D01*
X131890404Y-90870000D02*
X131890404Y-96010000D01*
X129230404Y-90870000D02*
X129230404Y-96010000D01*
X129230404Y-96010000D02*
X131890404Y-96010000D01*
%TO.C,RV1*%
D11*
X139866761Y-84272380D02*
X139533428Y-83796190D01*
X139295333Y-84272380D02*
X139295333Y-83272380D01*
X139676285Y-83272380D01*
X139771523Y-83320000D01*
X139819142Y-83367619D01*
X139866761Y-83462857D01*
X139866761Y-83605714D01*
X139819142Y-83700952D01*
X139771523Y-83748571D01*
X139676285Y-83796190D01*
X139295333Y-83796190D01*
X140152476Y-83272380D02*
X140485809Y-84272380D01*
X140819142Y-83272380D01*
X141676285Y-84272380D02*
X141104857Y-84272380D01*
X141390571Y-84272380D02*
X141390571Y-83272380D01*
X141295333Y-83415238D01*
X141200095Y-83510476D01*
X141104857Y-83558095D01*
%TD*%
M02*
